<?xml version="1.0" encoding="utf-8" standalone="no"?>
<!DOCTYPE svg PUBLIC "-//W3C//DTD SVG 1.1//EN"
  "http://www.w3.org/Graphics/SVG/1.1/DTD/svg11.dtd">
<svg xmlns:xlink="http://www.w3.org/1999/xlink" width="200.16pt" height="142.56pt" viewBox="0 0 200.16 142.56" xmlns="http://www.w3.org/2000/svg" version="1.1">
 <metadata>
  <rdf:RDF xmlns:dc="http://purl.org/dc/elements/1.1/" xmlns:cc="http://creativecommons.org/ns#" xmlns:rdf="http://www.w3.org/1999/02/22-rdf-syntax-ns#">
   <cc:Work>
    <dc:type rdf:resource="http://purl.org/dc/dcmitype/StillImage"/>
    <dc:date>2025-08-12T16:07:15.350822</dc:date>
    <dc:format>image/svg+xml</dc:format>
    <dc:creator>
     <cc:Agent>
      <dc:title>Matplotlib v3.10.3, https://matplotlib.org/</dc:title>
     </cc:Agent>
    </dc:creator>
   </cc:Work>
  </rdf:RDF>
 </metadata>
 <defs>
  <style type="text/css">*{stroke-linejoin: round; stroke-linecap: butt}</style>
 </defs>
 <g id="figure_1">
  <g id="patch_1">
   <path d="M 0 142.56 
L 200.16 142.56 
L 200.16 0 
L 0 0 
L 0 142.56 
z
" style="fill: none"/>
  </g>
  <g id="axes_1">
   <g id="patch_2">
    <path d="M 44.804673 100.56419 
L 182.717267 100.56419 
L 182.717267 12.042938 
L 44.804673 12.042938 
L 44.804673 100.56419 
z
" style="fill: none"/>
   </g>
   <g id="FillBetweenPolyCollection_1">
    <defs>
     <path id="mc7f9e199a7" d="M 44.804673 -115.724159 
L 44.804673 -82.071288 
L 45.081051 -81.88099 
L 45.357429 -81.691474 
L 45.633807 -81.502739 
L 45.910185 -81.314785 
L 46.186563 -81.127611 
L 46.462941 -80.941218 
L 46.739319 -80.755605 
L 47.015697 -80.570772 
L 47.292075 -80.386719 
L 47.568453 -80.203445 
L 47.844831 -80.02095 
L 48.121209 -79.839234 
L 48.397587 -79.658298 
L 48.673965 -79.47814 
L 48.950343 -79.29876 
L 49.22672 -79.120158 
L 49.503098 -78.942334 
L 49.779476 -78.765288 
L 50.055854 -78.589019 
L 50.332232 -78.413527 
L 50.60861 -78.238812 
L 50.884988 -78.064874 
L 51.161366 -77.891712 
L 51.437744 -77.719326 
L 51.714122 -77.547716 
L 51.9905 -77.376882 
L 52.266878 -77.206822 
L 52.543256 -77.037538 
L 52.819634 -76.869029 
L 53.096012 -76.701294 
L 53.37239 -76.534333 
L 53.648768 -76.368145 
L 53.925146 -76.202732 
L 54.201523 -76.038091 
L 54.477901 -75.874224 
L 54.754279 -75.711129 
L 55.030657 -75.548807 
L 55.307035 -75.387256 
L 55.583413 -75.226477 
L 55.859791 -75.06647 
L 56.136169 -74.907233 
L 56.412547 -74.748768 
L 56.688925 -74.591072 
L 56.965303 -74.434147 
L 57.241681 -74.277991 
L 57.518059 -74.122605 
L 57.794437 -73.967987 
L 58.070815 -73.814138 
L 58.347193 -73.661058 
L 58.623571 -73.508745 
L 58.899948 -73.357199 
L 59.176326 -73.206421 
L 59.452704 -73.05641 
L 59.729082 -72.907164 
L 60.00546 -72.758685 
L 60.281838 -72.610971 
L 60.558216 -72.464022 
L 60.834594 -72.317838 
L 61.110972 -72.172419 
L 61.38735 -72.027763 
L 61.663728 -71.88387 
L 61.940106 -71.740741 
L 62.216484 -71.598374 
L 62.492862 -71.456769 
L 62.76924 -71.315926 
L 63.045618 -71.175844 
L 63.321996 -71.036522 
L 63.598374 -70.897961 
L 63.874751 -70.76016 
L 64.151129 -70.623118 
L 64.427507 -70.486834 
L 64.703885 -70.351309 
L 64.980263 -70.216542 
L 65.256641 -70.082532 
L 65.533019 -69.949278 
L 65.809397 -69.816781 
L 66.085775 -69.685039 
L 66.362153 -69.554053 
L 66.638531 -69.423821 
L 66.914909 -69.294342 
L 67.191287 -69.165618 
L 67.467665 -69.037646 
L 67.744043 -68.910426 
L 68.020421 -68.783958 
L 68.296799 -68.658241 
L 68.573177 -68.533275 
L 68.849554 -68.409058 
L 69.125932 -68.28559 
L 69.40231 -68.162871 
L 69.678688 -68.040899 
L 69.955066 -67.919675 
L 70.231444 -67.799198 
L 70.507822 -67.679466 
L 70.7842 -67.560479 
L 71.060578 -67.442237 
L 71.336956 -67.324739 
L 71.613334 -67.207983 
L 71.889712 -67.09197 
L 72.16609 -66.976698 
L 72.442468 -66.862167 
L 72.718846 -66.748377 
L 72.995224 -66.635325 
L 73.271602 -66.523012 
L 73.547979 -66.411436 
L 73.824357 -66.300597 
L 74.100735 -66.190495 
L 74.377113 -66.081127 
L 74.653491 -65.972493 
L 74.929869 -65.864594 
L 75.206247 -65.757426 
L 75.482625 -65.65099 
L 75.759003 -65.545285 
L 76.035381 -65.44031 
L 76.311759 -65.336064 
L 76.588137 -65.232546 
L 76.864515 -65.129754 
L 77.140893 -65.027689 
L 77.417271 -64.926348 
L 77.693649 -64.825732 
L 77.970027 -64.725839 
L 78.246405 -64.626667 
L 78.522782 -64.528216 
L 78.79916 -64.430486 
L 79.075538 -64.333473 
L 79.351916 -64.237179 
L 79.628294 -64.141601 
L 79.904672 -64.046738 
L 80.18105 -63.952589 
L 80.457428 -63.859153 
L 80.733806 -63.766429 
L 81.010184 -63.674416 
L 81.286562 -63.583112 
L 81.56294 -63.492516 
L 81.839318 -63.402626 
L 82.115696 -63.313443 
L 82.392074 -63.224963 
L 82.668452 -63.137186 
L 82.94483 -63.050111 
L 83.221208 -62.963735 
L 83.497585 -62.878059 
L 83.773963 -62.79308 
L 84.050341 -62.708796 
L 84.326719 -62.625207 
L 84.603097 -62.54231 
L 84.879475 -62.460105 
L 85.155853 -62.37859 
L 85.432231 -62.297763 
L 85.708609 -62.217622 
L 85.984987 -62.138167 
L 86.261365 -62.059395 
L 86.537743 -61.981304 
L 86.814121 -61.903894 
L 87.090499 -61.827162 
L 87.366877 -61.751106 
L 87.643255 -61.675725 
L 87.919633 -61.601017 
L 88.19601 -61.526981 
L 88.472388 -61.453613 
L 88.748766 -61.380913 
L 89.025144 -61.308878 
L 89.301522 -61.237507 
L 89.5779 -61.166797 
L 89.854278 -61.096747 
L 90.130656 -61.027354 
L 90.407034 -60.958616 
L 90.683412 -60.890532 
L 90.95979 -60.823099 
L 91.236168 -60.756315 
L 91.512546 -60.690177 
L 91.788924 -60.624684 
L 92.065302 -60.559834 
L 92.34168 -60.495623 
L 92.618058 -60.43205 
L 92.894436 -60.369112 
L 93.170813 -60.306807 
L 93.447191 -60.245132 
L 93.723569 -60.184085 
L 93.999947 -60.123663 
L 94.276325 -60.063864 
L 94.552703 -60.004685 
L 94.829081 -59.946124 
L 95.105459 -59.888178 
L 95.381837 -59.830844 
L 95.658215 -59.774119 
L 95.934593 -59.718001 
L 96.210971 -59.662486 
L 96.487349 -59.607573 
L 96.763727 -59.553258 
L 97.040105 -59.499537 
L 97.316483 -59.446409 
L 97.592861 -59.39387 
L 97.869238 -59.341916 
L 98.145616 -59.290546 
L 98.421994 -59.239755 
L 98.698372 -59.189541 
L 98.97475 -59.1399 
L 99.251128 -59.090829 
L 99.527506 -59.042325 
L 99.803884 -58.994384 
L 100.080262 -58.947003 
L 100.35664 -58.900179 
L 100.633018 -58.853908 
L 100.909396 -58.808186 
L 101.185774 -58.763011 
L 101.462152 -58.718377 
L 101.73853 -58.674283 
L 102.014908 -58.630724 
L 102.291286 -58.587696 
L 102.567664 -58.545195 
L 102.844041 -58.503219 
L 103.120419 -58.461762 
L 103.396797 -58.420822 
L 103.673175 -58.380394 
L 103.949553 -58.340475 
L 104.225931 -58.30106 
L 104.502309 -58.262145 
L 104.778687 -58.223727 
L 105.055065 -58.185801 
L 105.331443 -58.148364 
L 105.607821 -58.11141 
L 105.884199 -58.074937 
L 106.160577 -58.03894 
L 106.436955 -58.003414 
L 106.713333 -57.968356 
L 106.989711 -57.933761 
L 107.266089 -57.899625 
L 107.542467 -57.865944 
L 107.818844 -57.832713 
L 108.095222 -57.799929 
L 108.3716 -57.767586 
L 108.647978 -57.735682 
L 108.924356 -57.70421 
L 109.200734 -57.673167 
L 109.477112 -57.642549 
L 109.75349 -57.612352 
L 110.029868 -57.58257 
L 110.306246 -57.5532 
L 110.582624 -57.524238 
L 110.859002 -57.495678 
L 111.13538 -57.467517 
L 111.411758 -57.439751 
L 111.688136 -57.412375 
L 111.964514 -57.385385 
L 112.240892 -57.358777 
L 112.517269 -57.332547 
L 112.793647 -57.306691 
L 113.070025 -57.281203 
L 113.346403 -57.256082 
L 113.622781 -57.231321 
L 113.899159 -57.206919 
L 114.175537 -57.182869 
L 114.451915 -57.15917 
L 114.728293 -57.135816 
L 115.004671 -57.112805 
L 115.281049 -57.090131 
L 115.557427 -57.067793 
L 115.833805 -57.045786 
L 116.110183 -57.024107 
L 116.386561 -57.002753 
L 116.662939 -56.98172 
L 116.939317 -56.961004 
L 117.215695 -56.940604 
L 117.492072 -56.920515 
L 117.76845 -56.900736 
L 118.044828 -56.881262 
L 118.321206 -56.862092 
L 118.597584 -56.843223 
L 118.873962 -56.824652 
L 119.15034 -56.806377 
L 119.426718 -56.788396 
L 119.703096 -56.770706 
L 119.979474 -56.753305 
L 120.255852 -56.736192 
L 120.53223 -56.719365 
L 120.808608 -56.702822 
L 121.084986 -56.686562 
L 121.361364 -56.670583 
L 121.637742 -56.654883 
L 121.91412 -56.639463 
L 122.190497 -56.624321 
L 122.466875 -56.609456 
L 122.743253 -56.594867 
L 123.019631 -56.580554 
L 123.296009 -56.566517 
L 123.572387 -56.552755 
L 123.848765 -56.539268 
L 124.125143 -56.526056 
L 124.401521 -56.51312 
L 124.677899 -56.500459 
L 124.954277 -56.488074 
L 125.230655 -56.475966 
L 125.507033 -56.464135 
L 125.783411 -56.452583 
L 126.059789 -56.44131 
L 126.336167 -56.430318 
L 126.612545 -56.419608 
L 126.888923 -56.409181 
L 127.1653 -56.399038 
L 127.441678 -56.389183 
L 127.718056 -56.379616 
L 127.994434 -56.370339 
L 128.270812 -56.361354 
L 128.54719 -56.352664 
L 128.823568 -56.344271 
L 129.099946 -56.336178 
L 129.376324 -56.328386 
L 129.652702 -56.320899 
L 129.92908 -56.31372 
L 130.205458 -56.306851 
L 130.481836 -56.300295 
L 130.758214 -56.294055 
L 131.034592 -56.288134 
L 131.31097 -56.282537 
L 131.587348 -56.277265 
L 131.863726 -56.272323 
L 132.140103 -56.267713 
L 132.416481 -56.26344 
L 132.692859 -56.259507 
L 132.969237 -56.255918 
L 133.245615 -56.252677 
L 133.521993 -56.249787 
L 133.798371 -56.247252 
L 134.074749 -56.245077 
L 134.351127 -56.243265 
L 134.627505 -56.24182 
L 134.903883 -56.240746 
L 135.180261 -56.240048 
L 135.456639 -56.239729 
L 135.733017 -56.239794 
L 136.009395 -56.240247 
L 136.285773 -56.241093 
L 136.562151 -56.242334 
L 136.838528 -56.243977 
L 137.114906 -56.246024 
L 137.391284 -56.248481 
L 137.667662 -56.251351 
L 137.94404 -56.25464 
L 138.220418 -56.25835 
L 138.496796 -56.262487 
L 138.773174 -56.267056 
L 139.049552 -56.272059 
L 139.32593 -56.277502 
L 139.602308 -56.283388 
L 139.878686 -56.289723 
L 140.155064 -56.29651 
L 140.431442 -56.303754 
L 140.70782 -56.311459 
L 140.984198 -56.319629 
L 141.260576 -56.328268 
L 141.536954 -56.337381 
L 141.813331 -56.346972 
L 142.089709 -56.357045 
L 142.366087 -56.367603 
L 142.642465 -56.378652 
L 142.918843 -56.390195 
L 143.195221 -56.402236 
L 143.471599 -56.41478 
L 143.747977 -56.42783 
L 144.024355 -56.441389 
L 144.300733 -56.455463 
L 144.577111 -56.470055 
L 144.853489 -56.485169 
L 145.129867 -56.500808 
L 145.406245 -56.516977 
L 145.682623 -56.533678 
L 145.959001 -56.550916 
L 146.235379 -56.568695 
L 146.511756 -56.587018 
L 146.788134 -56.605888 
L 147.064512 -56.62531 
L 147.34089 -56.645286 
L 147.617268 -56.66582 
L 147.893646 -56.686916 
L 148.170024 -56.708577 
L 148.446402 -56.730805 
L 148.72278 -56.753606 
L 148.999158 -56.776981 
L 149.275536 -56.800934 
L 149.551914 -56.825468 
L 149.828292 -56.850586 
L 150.10467 -56.876292 
L 150.381048 -56.902588 
L 150.657426 -56.929478 
L 150.933804 -56.956964 
L 151.210182 -56.985049 
L 151.486559 -57.013737 
L 151.762937 -57.043029 
L 152.039315 -57.07293 
L 152.315693 -57.103441 
L 152.592071 -57.134565 
L 152.868449 -57.166306 
L 153.144827 -57.198665 
L 153.421205 -57.231645 
L 153.697583 -57.26525 
L 153.973961 -57.299481 
L 154.250339 -57.334341 
L 154.526717 -57.369832 
L 154.803095 -57.405957 
L 155.079473 -57.442719 
L 155.355851 -57.480119 
L 155.632229 -57.51816 
L 155.908607 -57.556845 
L 156.184985 -57.596174 
L 156.461362 -57.636152 
L 156.73774 -57.67678 
L 157.014118 -57.718059 
L 157.290496 -57.759993 
L 157.566874 -57.802583 
L 157.843252 -57.845832 
L 158.11963 -57.889741 
L 158.396008 -57.934312 
L 158.672386 -57.979548 
L 158.948764 -58.02545 
L 159.225142 -58.07202 
L 159.50152 -58.11926 
L 159.777898 -58.167173 
L 160.054276 -58.215759 
L 160.330654 -58.26502 
L 160.607032 -58.314959 
L 160.88341 -58.365577 
L 161.159787 -58.416875 
L 161.436165 -58.468857 
L 161.712543 -58.521522 
L 161.988921 -58.574873 
L 162.265299 -58.628911 
L 162.541677 -58.683638 
L 162.818055 -58.739056 
L 163.094433 -58.795165 
L 163.370811 -58.851968 
L 163.647189 -58.909467 
L 163.923567 -58.967661 
L 164.199945 -59.026554 
L 164.476323 -59.086145 
L 164.752701 -59.146438 
L 165.029079 -59.207432 
L 165.305457 -59.26913 
L 165.581835 -59.331533 
L 165.858213 -59.394642 
L 166.13459 -59.458458 
L 166.410968 -59.522983 
L 166.687346 -59.588218 
L 166.963724 -59.654163 
L 167.240102 -59.720821 
L 167.51648 -59.788193 
L 167.792858 -59.856279 
L 168.069236 -59.925081 
L 168.345614 -59.9946 
L 168.621992 -60.064837 
L 168.89837 -60.135794 
L 169.174748 -60.20747 
L 169.451126 -60.279868 
L 169.727504 -60.352988 
L 170.003882 -60.426832 
L 170.28026 -60.5014 
L 170.556638 -60.576694 
L 170.833016 -60.652714 
L 171.109393 -60.729461 
L 171.385771 -60.806937 
L 171.662149 -60.885142 
L 171.938527 -60.964077 
L 172.214905 -61.043744 
L 172.491283 -61.124142 
L 172.767661 -61.205274 
L 173.044039 -61.287139 
L 173.320417 -61.369739 
L 173.596795 -61.453074 
L 173.873173 -61.537146 
L 174.149551 -61.621955 
L 174.425929 -61.707502 
L 174.702307 -61.793788 
L 174.978685 -61.880813 
L 175.255063 -61.968579 
L 175.531441 -62.057086 
L 175.807818 -62.146335 
L 176.084196 -62.236326 
L 176.360574 -62.327061 
L 176.636952 -62.418539 
L 176.91333 -62.510763 
L 177.189708 -62.603732 
L 177.466086 -62.697447 
L 177.742464 -62.791909 
L 178.018842 -62.887118 
L 178.29522 -62.983075 
L 178.571598 -63.079782 
L 178.847976 -63.177238 
L 179.124354 -63.275443 
L 179.400732 -63.3744 
L 179.67711 -63.474108 
L 179.953488 -63.574567 
L 180.229866 -63.675779 
L 180.506244 -63.777745 
L 180.782621 -63.880463 
L 181.058999 -63.983937 
L 181.335377 -64.088164 
L 181.611755 -64.193148 
L 181.888133 -64.298887 
L 182.164511 -64.405382 
L 182.440889 -64.512635 
L 182.717267 -64.620644 
L 182.717267 -90.979549 
L 182.717267 -90.979549 
L 182.440889 -90.772179 
L 182.164511 -90.565658 
L 181.888133 -90.359987 
L 181.611755 -90.155165 
L 181.335377 -89.951193 
L 181.058999 -89.748073 
L 180.782621 -89.545803 
L 180.506244 -89.344386 
L 180.229866 -89.143821 
L 179.953488 -88.94411 
L 179.67711 -88.745252 
L 179.400732 -88.547248 
L 179.124354 -88.350099 
L 178.847976 -88.153806 
L 178.571598 -87.958369 
L 178.29522 -87.763788 
L 178.018842 -87.570065 
L 177.742464 -87.3772 
L 177.466086 -87.185194 
L 177.189708 -86.994047 
L 176.91333 -86.80376 
L 176.636952 -86.614334 
L 176.360574 -86.425769 
L 176.084196 -86.238066 
L 175.807818 -86.051227 
L 175.531441 -85.86525 
L 175.255063 -85.680139 
L 174.978685 -85.495892 
L 174.702307 -85.312511 
L 174.425929 -85.129996 
L 174.149551 -84.948349 
L 173.873173 -84.767571 
L 173.596795 -84.587661 
L 173.320417 -84.408621 
L 173.044039 -84.230451 
L 172.767661 -84.053154 
L 172.491283 -83.876728 
L 172.214905 -83.701176 
L 171.938527 -83.526498 
L 171.662149 -83.352695 
L 171.385771 -83.179768 
L 171.109393 -83.007717 
L 170.833016 -82.836545 
L 170.556638 -82.666251 
L 170.28026 -82.496837 
L 170.003882 -82.328304 
L 169.727504 -82.160653 
L 169.451126 -81.993884 
L 169.174748 -81.827999 
L 168.89837 -81.662999 
L 168.621992 -81.498885 
L 168.345614 -81.335658 
L 168.069236 -81.173319 
L 167.792858 -81.011869 
L 167.51648 -80.85131 
L 167.240102 -80.691642 
L 166.963724 -80.532866 
L 166.687346 -80.374985 
L 166.410968 -80.217999 
L 166.13459 -80.061909 
L 165.858213 -79.906716 
L 165.581835 -79.752423 
L 165.305457 -79.599029 
L 165.029079 -79.446537 
L 164.752701 -79.294948 
L 164.476323 -79.144263 
L 164.199945 -78.994483 
L 163.923567 -78.84561 
L 163.647189 -78.697646 
L 163.370811 -78.550591 
L 163.094433 -78.404447 
L 162.818055 -78.259216 
L 162.541677 -78.114899 
L 162.265299 -77.971498 
L 161.988921 -77.829015 
L 161.712543 -77.68745 
L 161.436165 -77.546805 
L 161.159787 -77.407083 
L 160.88341 -77.268284 
L 160.607032 -77.130411 
L 160.330654 -76.993465 
L 160.054276 -76.857447 
L 159.777898 -76.722361 
L 159.50152 -76.588206 
L 159.225142 -76.454987 
L 158.948764 -76.322703 
L 158.672386 -76.191357 
L 158.396008 -76.060951 
L 158.11963 -75.931487 
L 157.843252 -75.802966 
L 157.566874 -75.675392 
L 157.290496 -75.548765 
L 157.014118 -75.423088 
L 156.73774 -75.298363 
L 156.461362 -75.174592 
L 156.184985 -75.051777 
L 155.908607 -74.929921 
L 155.632229 -74.809026 
L 155.355851 -74.689093 
L 155.079473 -74.570126 
L 154.803095 -74.452126 
L 154.526717 -74.335096 
L 154.250339 -74.219039 
L 153.973961 -74.103956 
L 153.697583 -73.98985 
L 153.421205 -73.876724 
L 153.144827 -73.76458 
L 152.868449 -73.653422 
L 152.592071 -73.54325 
L 152.315693 -73.434069 
L 152.039315 -73.32588 
L 151.762937 -73.218687 
L 151.486559 -73.112493 
L 151.210182 -73.007299 
L 150.933804 -72.90311 
L 150.657426 -72.799927 
L 150.381048 -72.697754 
L 150.10467 -72.596594 
L 149.828292 -72.49645 
L 149.551914 -72.397324 
L 149.275536 -72.299221 
L 148.999158 -72.202142 
L 148.72278 -72.106092 
L 148.446402 -72.011073 
L 148.170024 -71.917089 
L 147.893646 -71.824143 
L 147.617268 -71.732238 
L 147.34089 -71.641378 
L 147.064512 -71.551565 
L 146.788134 -71.462805 
L 146.511756 -71.375099 
L 146.235379 -71.288452 
L 145.959001 -71.202868 
L 145.682623 -71.118348 
L 145.406245 -71.034899 
L 145.129867 -70.952522 
L 144.853489 -70.871223 
L 144.577111 -70.791004 
L 144.300733 -70.711869 
L 144.024355 -70.633823 
L 143.747977 -70.556868 
L 143.471599 -70.48101 
L 143.195221 -70.406252 
L 142.918843 -70.332598 
L 142.642465 -70.260051 
L 142.366087 -70.188617 
L 142.089709 -70.118299 
L 141.813331 -70.0491 
L 141.536954 -69.981027 
L 141.260576 -69.914081 
L 140.984198 -69.848268 
L 140.70782 -69.783592 
L 140.431442 -69.720057 
L 140.155064 -69.657667 
L 139.878686 -69.596427 
L 139.602308 -69.53634 
L 139.32593 -69.477412 
L 139.049552 -69.419645 
L 138.773174 -69.363046 
L 138.496796 -69.307617 
L 138.220418 -69.253364 
L 137.94404 -69.20029 
L 137.667662 -69.1484 
L 137.391284 -69.097699 
L 137.114906 -69.04819 
L 136.838528 -68.999877 
L 136.562151 -68.952767 
L 136.285773 -68.906861 
L 136.009395 -68.862165 
L 135.733017 -68.818684 
L 135.456639 -68.77642 
L 135.180261 -68.735379 
L 134.903883 -68.695564 
L 134.627505 -68.656981 
L 134.351127 -68.619632 
L 134.074749 -68.583522 
L 133.798371 -68.548655 
L 133.521993 -68.515034 
L 133.245615 -68.482665 
L 132.969237 -68.451551 
L 132.692859 -68.421695 
L 132.416481 -68.393102 
L 132.140103 -68.365774 
L 131.863726 -68.339716 
L 131.587348 -68.314932 
L 131.31097 -68.291424 
L 131.034592 -68.269197 
L 130.758214 -68.248253 
L 130.481836 -68.228596 
L 130.205458 -68.210228 
L 129.92908 -68.193154 
L 129.652702 -68.177375 
L 129.376324 -68.162896 
L 129.099946 -68.149718 
L 128.823568 -68.137844 
L 128.54719 -68.127277 
L 128.270812 -68.118019 
L 127.994434 -68.110073 
L 127.718056 -68.10344 
L 127.441678 -68.098124 
L 127.1653 -68.094125 
L 126.888923 -68.091445 
L 126.612545 -68.090087 
L 126.336167 -68.090052 
L 126.059789 -68.091342 
L 125.783411 -68.093956 
L 125.507033 -68.097898 
L 125.230655 -68.103167 
L 124.954277 -68.109766 
L 124.677899 -68.117693 
L 124.401521 -68.126951 
L 124.125143 -68.137539 
L 123.848765 -68.149458 
L 123.572387 -68.162709 
L 123.296009 -68.17729 
L 123.019631 -68.193202 
L 122.743253 -68.210445 
L 122.466875 -68.229018 
L 122.190497 -68.248921 
L 121.91412 -68.270153 
L 121.637742 -68.292713 
L 121.361364 -68.3166 
L 121.084986 -68.341814 
L 120.808608 -68.368352 
L 120.53223 -68.396215 
L 120.255852 -68.425399 
L 119.979474 -68.455903 
L 119.703096 -68.487726 
L 119.426718 -68.520866 
L 119.15034 -68.555321 
L 118.873962 -68.591088 
L 118.597584 -68.628165 
L 118.321206 -68.666551 
L 118.044828 -68.706241 
L 117.76845 -68.747235 
L 117.492072 -68.789528 
L 117.215695 -68.833119 
L 116.939317 -68.878004 
L 116.662939 -68.92418 
L 116.386561 -68.971645 
L 116.110183 -69.020394 
L 115.833805 -69.070426 
L 115.557427 -69.121735 
L 115.281049 -69.17432 
L 115.004671 -69.228175 
L 114.728293 -69.283299 
L 114.451915 -69.339686 
L 114.175537 -69.397334 
L 113.899159 -69.456238 
L 113.622781 -69.516395 
L 113.346403 -69.5778 
L 113.070025 -69.64045 
L 112.793647 -69.704341 
L 112.517269 -69.769469 
L 112.240892 -69.835829 
L 111.964514 -69.903418 
L 111.688136 -69.972231 
L 111.411758 -70.042264 
L 111.13538 -70.113513 
L 110.859002 -70.185974 
L 110.582624 -70.259642 
L 110.306246 -70.334513 
L 110.029868 -70.410583 
L 109.75349 -70.487848 
L 109.477112 -70.566303 
L 109.200734 -70.645943 
L 108.924356 -70.726765 
L 108.647978 -70.808765 
L 108.3716 -70.891937 
L 108.095222 -70.976278 
L 107.818844 -71.061783 
L 107.542467 -71.148448 
L 107.266089 -71.236268 
L 106.989711 -71.32524 
L 106.713333 -71.41536 
L 106.436955 -71.506622 
L 106.160577 -71.599023 
L 105.884199 -71.692558 
L 105.607821 -71.787224 
L 105.331443 -71.883015 
L 105.055065 -71.979929 
L 104.778687 -72.077961 
L 104.502309 -72.177106 
L 104.225931 -72.277361 
L 103.949553 -72.378722 
L 103.673175 -72.481185 
L 103.396797 -72.584745 
L 103.120419 -72.6894 
L 102.844041 -72.795144 
L 102.567664 -72.901974 
L 102.291286 -73.009887 
L 102.014908 -73.118878 
L 101.73853 -73.228944 
L 101.462152 -73.340081 
L 101.185774 -73.452286 
L 100.909396 -73.565554 
L 100.633018 -73.679883 
L 100.35664 -73.795268 
L 100.080262 -73.911706 
L 99.803884 -74.029194 
L 99.527506 -74.147728 
L 99.251128 -74.267305 
L 98.97475 -74.387921 
L 98.698372 -74.509574 
L 98.421994 -74.632259 
L 98.145616 -74.755974 
L 97.869238 -74.880716 
L 97.592861 -75.00648 
L 97.316483 -75.133265 
L 97.040105 -75.261068 
L 96.763727 -75.389884 
L 96.487349 -75.519711 
L 96.210971 -75.650547 
L 95.934593 -75.782388 
L 95.658215 -75.915231 
L 95.381837 -76.049074 
L 95.105459 -76.183913 
L 94.829081 -76.319747 
L 94.552703 -76.456572 
L 94.276325 -76.594385 
L 93.999947 -76.733185 
L 93.723569 -76.872968 
L 93.447191 -77.013732 
L 93.170813 -77.155474 
L 92.894436 -77.298192 
L 92.618058 -77.441884 
L 92.34168 -77.586546 
L 92.065302 -77.732177 
L 91.788924 -77.878774 
L 91.512546 -78.026335 
L 91.236168 -78.174858 
L 90.95979 -78.324341 
L 90.683412 -78.47478 
L 90.407034 -78.626175 
L 90.130656 -78.778522 
L 89.854278 -78.93182 
L 89.5779 -79.086068 
L 89.301522 -79.241261 
L 89.025144 -79.3974 
L 88.748766 -79.554481 
L 88.472388 -79.712503 
L 88.19601 -79.871463 
L 87.919633 -80.031361 
L 87.643255 -80.192194 
L 87.366877 -80.35396 
L 87.090499 -80.516657 
L 86.814121 -80.680284 
L 86.537743 -80.844839 
L 86.261365 -81.01032 
L 85.984987 -81.176726 
L 85.708609 -81.344054 
L 85.432231 -81.512304 
L 85.155853 -81.681473 
L 84.879475 -81.85156 
L 84.603097 -82.022564 
L 84.326719 -82.194482 
L 84.050341 -82.367314 
L 83.773963 -82.541058 
L 83.497585 -82.715712 
L 83.221208 -82.891274 
L 82.94483 -83.067745 
L 82.668452 -83.245121 
L 82.392074 -83.423403 
L 82.115696 -83.602587 
L 81.839318 -83.782674 
L 81.56294 -83.963661 
L 81.286562 -84.145548 
L 81.010184 -84.328333 
L 80.733806 -84.512015 
L 80.457428 -84.696592 
L 80.18105 -84.882064 
L 79.904672 -85.068429 
L 79.628294 -85.255686 
L 79.351916 -85.443834 
L 79.075538 -85.632871 
L 78.79916 -85.822798 
L 78.522782 -86.013611 
L 78.246405 -86.205311 
L 77.970027 -86.397897 
L 77.693649 -86.591367 
L 77.417271 -86.78572 
L 77.140893 -86.980955 
L 76.864515 -87.177071 
L 76.588137 -87.374067 
L 76.311759 -87.571943 
L 76.035381 -87.770697 
L 75.759003 -87.970328 
L 75.482625 -88.170836 
L 75.206247 -88.372219 
L 74.929869 -88.574477 
L 74.653491 -88.777608 
L 74.377113 -88.981612 
L 74.100735 -89.186488 
L 73.824357 -89.392235 
L 73.547979 -89.598852 
L 73.271602 -89.806338 
L 72.995224 -90.014693 
L 72.718846 -90.223916 
L 72.442468 -90.434006 
L 72.16609 -90.644961 
L 71.889712 -90.856783 
L 71.613334 -91.069469 
L 71.336956 -91.283019 
L 71.060578 -91.497432 
L 70.7842 -91.712707 
L 70.507822 -91.928844 
L 70.231444 -92.145843 
L 69.955066 -92.363701 
L 69.678688 -92.582419 
L 69.40231 -92.801997 
L 69.125932 -93.022432 
L 68.849554 -93.243726 
L 68.573177 -93.465876 
L 68.296799 -93.688883 
L 68.020421 -93.912745 
L 67.744043 -94.137463 
L 67.467665 -94.363035 
L 67.191287 -94.589461 
L 66.914909 -94.81674 
L 66.638531 -95.044873 
L 66.362153 -95.273857 
L 66.085775 -95.503693 
L 65.809397 -95.734381 
L 65.533019 -95.965919 
L 65.256641 -96.198306 
L 64.980263 -96.431544 
L 64.703885 -96.66563 
L 64.427507 -96.900565 
L 64.151129 -97.136347 
L 63.874751 -97.372977 
L 63.598374 -97.610454 
L 63.321996 -97.848778 
L 63.045618 -98.087947 
L 62.76924 -98.327962 
L 62.492862 -98.568822 
L 62.216484 -98.810526 
L 61.940106 -99.053075 
L 61.663728 -99.296467 
L 61.38735 -99.540702 
L 61.110972 -99.785781 
L 60.834594 -100.031701 
L 60.558216 -100.278463 
L 60.281838 -100.526067 
L 60.00546 -100.774512 
L 59.729082 -101.023798 
L 59.452704 -101.273924 
L 59.176326 -101.524889 
L 58.899948 -101.776695 
L 58.623571 -102.029339 
L 58.347193 -102.282822 
L 58.070815 -102.537143 
L 57.794437 -102.792302 
L 57.518059 -103.048299 
L 57.241681 -103.305133 
L 56.965303 -103.562804 
L 56.688925 -103.821312 
L 56.412547 -104.080656 
L 56.136169 -104.340835 
L 55.859791 -104.60185 
L 55.583413 -104.8637 
L 55.307035 -105.126385 
L 55.030657 -105.389905 
L 54.754279 -105.654258 
L 54.477901 -105.919446 
L 54.201523 -106.185467 
L 53.925146 -106.452321 
L 53.648768 -106.720009 
L 53.37239 -106.988529 
L 53.096012 -107.257881 
L 52.819634 -107.528065 
L 52.543256 -107.799081 
L 52.266878 -108.070929 
L 51.9905 -108.343608 
L 51.714122 -108.617117 
L 51.437744 -108.891458 
L 51.161366 -109.166628 
L 50.884988 -109.442629 
L 50.60861 -109.71946 
L 50.332232 -109.99712 
L 50.055854 -110.275609 
L 49.779476 -110.554928 
L 49.503098 -110.835075 
L 49.22672 -111.116051 
L 48.950343 -111.397856 
L 48.673965 -111.680488 
L 48.397587 -111.963948 
L 48.121209 -112.248236 
L 47.844831 -112.533351 
L 47.568453 -112.819293 
L 47.292075 -113.106062 
L 47.015697 -113.393658 
L 46.739319 -113.682081 
L 46.462941 -113.971329 
L 46.186563 -114.261404 
L 45.910185 -114.552304 
L 45.633807 -114.84403 
L 45.357429 -115.136581 
L 45.081051 -115.429958 
L 44.804673 -115.724159 
z
"/>
    </defs>
    <g clip-path="url(#p8b1fa4b629)">
     <use xlink:href="#mc7f9e199a7" x="0" y="142.56" style="fill: #c70303; fill-opacity: 0.1"/>
    </g>
   </g>
   <g id="matplotlib.axis_1">
    <g id="xtick_1">
     <g id="line2d_1">
      <defs>
       <path id="m4cd371f86f" d="M 0 0 
L 0 2.5 
" style="stroke: #000000; stroke-width: 0.6"/>
      </defs>
      <g>
       <use xlink:href="#m4cd371f86f" x="72.387192" y="100.56419" style="stroke: #000000; stroke-width: 0.6"/>
      </g>
     </g>
     <g id="text_1">
      <!-- $\mathdefault{60}$ -->
      <g transform="translate(65.558703 116.250067) scale(0.14 -0.14)">
       <defs>
        <path id="CMR17-36" d="M 678 2176 
C 678 3690 1395 4032 1811 4032 
C 1946 4032 2272 4009 2400 3776 
C 2298 3776 2106 3776 2106 3553 
C 2106 3381 2246 3323 2336 3323 
C 2394 3323 2566 3348 2566 3560 
C 2566 3954 2246 4179 1805 4179 
C 1043 4179 243 3390 243 1984 
C 243 253 966 -128 1478 -128 
C 2099 -128 2688 427 2688 1283 
C 2688 2081 2170 2662 1517 2662 
C 1126 2662 838 2407 678 1960 
L 678 2176 
z
M 1478 25 
C 691 25 691 1200 691 1436 
C 691 1896 909 2560 1504 2560 
C 1613 2560 1926 2560 2138 2120 
C 2253 1870 2253 1609 2253 1289 
C 2253 944 2253 690 2118 434 
C 1978 171 1773 25 1478 25 
z
" transform="scale(0.015625)"/>
        <path id="CMR17-30" d="M 2688 2025 
C 2688 2416 2682 3080 2413 3591 
C 2176 4039 1798 4198 1466 4198 
C 1158 4198 768 4058 525 3597 
C 269 3118 243 2524 243 2025 
C 243 1661 250 1106 448 619 
C 723 -39 1216 -128 1466 -128 
C 1760 -128 2208 -7 2470 600 
C 2662 1042 2688 1559 2688 2025 
z
M 1466 -26 
C 1056 -26 813 325 723 812 
C 653 1188 653 1738 653 2096 
C 653 2588 653 2997 736 3387 
C 858 3929 1216 4096 1466 4096 
C 1728 4096 2067 3923 2189 3400 
C 2272 3036 2278 2607 2278 2096 
C 2278 1680 2278 1169 2202 792 
C 2067 95 1690 -26 1466 -26 
z
" transform="scale(0.015625)"/>
       </defs>
       <use xlink:href="#CMR17-36" transform="scale(0.996264)"/>
       <use xlink:href="#CMR17-30" transform="translate(45.690477 0) scale(0.996264)"/>
      </g>
     </g>
    </g>
    <g id="xtick_2">
     <g id="line2d_2">
      <g>
       <use xlink:href="#m4cd371f86f" x="127.55223" y="100.56419" style="stroke: #000000; stroke-width: 0.6"/>
      </g>
     </g>
     <g id="text_2">
      <!-- $\mathdefault{80}$ -->
      <g transform="translate(120.723741 116.250067) scale(0.14 -0.14)">
       <defs>
        <path id="CMR17-38" d="M 1741 2264 
C 2144 2467 2554 2773 2554 3263 
C 2554 3841 1990 4179 1472 4179 
C 890 4179 378 3759 378 3180 
C 378 3021 416 2747 666 2505 
C 730 2442 998 2251 1171 2130 
C 883 1983 211 1634 211 934 
C 211 279 838 -128 1459 -128 
C 2144 -128 2720 362 2720 1010 
C 2720 1590 2330 1857 2074 2029 
L 1741 2264 
z
M 902 2822 
C 851 2854 595 3051 595 3351 
C 595 3739 998 4032 1459 4032 
C 1965 4032 2336 3676 2336 3262 
C 2336 2669 1670 2331 1638 2331 
C 1632 2331 1626 2331 1574 2370 
L 902 2822 
z
M 2080 1519 
C 2176 1449 2483 1240 2483 851 
C 2483 381 2010 25 1472 25 
C 890 25 448 438 448 940 
C 448 1443 838 1862 1280 2060 
L 2080 1519 
z
" transform="scale(0.015625)"/>
       </defs>
       <use xlink:href="#CMR17-38" transform="scale(0.996264)"/>
       <use xlink:href="#CMR17-30" transform="translate(45.690477 0) scale(0.996264)"/>
      </g>
     </g>
    </g>
    <g id="xtick_3">
     <g id="line2d_3">
      <g>
       <use xlink:href="#m4cd371f86f" x="182.717267" y="100.56419" style="stroke: #000000; stroke-width: 0.6"/>
      </g>
     </g>
     <g id="text_3">
      <!-- $\mathdefault{100}$ -->
      <g transform="translate(172.474534 116.250067) scale(0.14 -0.14)">
       <defs>
        <path id="CMR17-31" d="M 1702 4058 
C 1702 4192 1696 4192 1606 4192 
C 1357 3916 979 3827 621 3827 
C 602 3827 570 3827 563 3808 
C 557 3795 557 3782 557 3648 
C 755 3648 1088 3686 1344 3839 
L 1344 461 
C 1344 236 1331 160 781 160 
L 589 160 
L 589 0 
C 896 0 1216 0 1523 0 
C 1830 0 2150 0 2458 0 
L 2458 160 
L 2266 160 
C 1715 160 1702 230 1702 458 
L 1702 4058 
z
" transform="scale(0.015625)"/>
       </defs>
       <use xlink:href="#CMR17-31" transform="scale(0.996264)"/>
       <use xlink:href="#CMR17-30" transform="translate(45.690477 0) scale(0.996264)"/>
       <use xlink:href="#CMR17-30" transform="translate(91.380954 0) scale(0.996264)"/>
      </g>
     </g>
    </g>
    <g id="text_4">
     <!-- sleep score -->
     <g transform="translate(82.198178 132.647972) scale(0.14 -0.14)">
      <defs>
       <path id="CMR17-73" d="M 1978 2697 
C 1978 2813 1971 2819 1933 2819 
C 1907 2819 1901 2813 1824 2717 
C 1805 2691 1747 2626 1728 2601 
C 1523 2819 1235 2819 1126 2819 
C 416 2819 160 2447 160 2076 
C 160 1498 813 1365 998 1325 
C 1402 1243 1542 1217 1677 1101 
C 1760 1025 1901 884 1901 654 
C 1901 384 1747 38 1158 38 
C 602 38 403 460 288 1021 
C 269 1110 269 1117 218 1117 
C 166 1117 160 1110 160 983 
L 160 63 
C 160 -51 166 -58 205 -58 
C 237 -58 243 -51 275 0 
C 314 57 410 211 448 276 
C 576 103 800 -64 1158 -64 
C 1792 -64 2131 283 2131 784 
C 2131 1112 1958 1285 1875 1362 
C 1683 1561 1459 1606 1190 1657 
C 838 1735 390 1825 390 2217 
C 390 2383 480 2737 1126 2737 
C 1811 2737 1850 2094 1862 1888 
C 1869 1856 1901 1849 1920 1849 
C 1978 1849 1978 1869 1978 1978 
L 1978 2697 
z
" transform="scale(0.015625)"/>
       <path id="CMR17-6c" d="M 979 4396 
L 218 4326 
L 218 4160 
C 595 4160 653 4122 653 3817 
L 653 426 
C 653 184 627 153 218 153 
L 218 -13 
C 371 0 653 0 813 0 
C 979 0 1261 0 1414 -13 
L 1414 153 
C 1005 153 979 178 979 426 
L 979 4396 
z
" transform="scale(0.015625)"/>
       <path id="CMR17-65" d="M 2438 1472 
C 2464 1498 2464 1511 2464 1576 
C 2464 2238 2118 2816 1389 2816 
C 710 2816 173 2169 173 1383 
C 173 551 781 -64 1459 -64 
C 2176 -64 2458 607 2458 740 
C 2458 784 2419 784 2406 784 
C 2362 784 2355 771 2330 696 
C 2189 265 1837 51 1504 51 
C 1229 51 954 203 781 480 
C 582 803 582 1176 582 1472 
L 2438 1472 
z
M 589 1568 
C 634 2505 1126 2714 1382 2714 
C 1818 2714 2112 2297 2118 1568 
L 589 1568 
z
" transform="scale(0.015625)"/>
       <path id="CMR17-70" d="M 1408 -1063 
C 998 -1063 973 -1037 973 -789 
L 973 402 
C 1158 134 1427 -38 1766 -38 
C 2406 -38 3053 523 3053 1388 
C 3053 2191 2496 2802 1837 2802 
C 1453 2802 1139 2592 960 2338 
L 960 2802 
L 198 2732 
L 198 2567 
C 576 2567 634 2528 634 2223 
L 634 -789 
C 634 -1031 608 -1063 198 -1063 
L 198 -1228 
C 352 -1216 634 -1216 800 -1216 
C 966 -1216 1254 -1216 1408 -1228 
L 1408 -1063 
z
M 973 2012 
C 973 2102 973 2235 1222 2471 
C 1254 2497 1472 2688 1792 2688 
C 2259 2688 2643 2108 2643 1382 
C 2643 656 2234 64 1728 64 
C 1498 64 1248 172 1056 472 
C 973 612 973 650 973 752 
L 973 2012 
z
" transform="scale(0.015625)"/>
       <path id="CMR17-63" d="M 2234 2240 
C 2112 2240 1933 2240 1933 2017 
C 1933 1838 2080 1787 2163 1787 
C 2208 1787 2394 1807 2394 2024 
C 2394 2467 1958 2803 1466 2803 
C 787 2803 211 2178 211 1363 
C 211 516 813 -64 1466 -64 
C 2259 -64 2458 677 2458 748 
C 2458 774 2451 793 2406 793 
C 2362 793 2355 787 2330 703 
C 2163 180 1798 51 1523 51 
C 1114 51 621 427 621 1369 
C 621 2338 1094 2688 1472 2688 
C 1722 2688 2093 2573 2234 2240 
z
" transform="scale(0.015625)"/>
       <path id="CMR17-6f" d="M 2758 1356 
C 2758 2176 2163 2816 1466 2816 
C 768 2816 173 2176 173 1356 
C 173 551 768 -64 1466 -64 
C 2163 -64 2758 551 2758 1356 
z
M 1466 51 
C 1165 51 909 230 762 480 
C 602 767 582 1126 582 1408 
C 582 1677 595 2010 762 2298 
C 890 2509 1139 2714 1466 2714 
C 1754 2714 1997 2554 2150 2330 
C 2349 2029 2349 1607 2349 1408 
C 2349 1158 2336 775 2163 467 
C 1984 173 1709 51 1466 51 
z
" transform="scale(0.015625)"/>
       <path id="CMR17-72" d="M 960 1497 
C 960 2112 1222 2688 1702 2688 
C 1747 2688 1792 2682 1837 2662 
C 1837 2662 1696 2617 1696 2452 
C 1696 2298 1818 2234 1914 2234 
C 1990 2234 2131 2279 2131 2458 
C 2131 2663 1926 2790 1709 2790 
C 1222 2790 1011 2317 947 2093 
L 941 2093 
L 941 2790 
L 198 2720 
L 198 2554 
C 576 2554 634 2515 634 2208 
L 634 428 
C 634 184 608 153 198 153 
L 198 -13 
C 352 0 646 0 813 0 
C 998 0 1325 0 1498 -13 
L 1498 153 
C 1037 153 960 153 960 440 
L 960 1497 
z
" transform="scale(0.015625)"/>
      </defs>
      <use xlink:href="#CMR17-73" transform="scale(0.996264)"/>
      <use xlink:href="#CMR17-6c" transform="translate(35.801338 0) scale(0.996264)"/>
      <use xlink:href="#CMR17-65" transform="translate(60.672396 0) scale(0.996264)"/>
      <use xlink:href="#CMR17-65" transform="translate(101.158057 0) scale(0.996264)"/>
      <use xlink:href="#CMR17-70" transform="translate(141.643717 0) scale(0.996264)"/>
      <use xlink:href="#CMR17-73" transform="translate(222.615053 0) scale(0.996264)"/>
      <use xlink:href="#CMR17-63" transform="translate(258.416391 0) scale(0.996264)"/>
      <use xlink:href="#CMR17-6f" transform="translate(298.902051 0) scale(0.996264)"/>
      <use xlink:href="#CMR17-72" transform="translate(344.592528 0) scale(0.996264)"/>
      <use xlink:href="#CMR17-65" transform="translate(379.873296 0) scale(0.996264)"/>
     </g>
    </g>
   </g>
   <g id="matplotlib.axis_2">
    <g id="ytick_1">
     <g id="line2d_4">
      <defs>
       <path id="m56f3a9ced1" d="M 0 0 
L -2.5 0 
" style="stroke: #000000; stroke-width: 0.6"/>
      </defs>
      <g>
       <use xlink:href="#m56f3a9ced1" x="44.804673" y="67.368721" style="stroke: #000000; stroke-width: 0.6"/>
      </g>
     </g>
     <g id="text_5">
      <!-- $\mathdefault{25}$ -->
      <g transform="translate(25.147696 72.211659) scale(0.14 -0.14)">
       <defs>
        <path id="CMR17-32" d="M 2669 989 
L 2554 989 
C 2490 536 2438 459 2413 420 
C 2381 369 1920 369 1830 369 
L 602 369 
C 832 619 1280 1072 1824 1597 
C 2214 1967 2669 2402 2669 3035 
C 2669 3790 2067 4224 1395 4224 
C 691 4224 262 3604 262 3030 
C 262 2780 448 2748 525 2748 
C 589 2748 781 2787 781 3010 
C 781 3207 614 3264 525 3264 
C 486 3264 448 3258 422 3245 
C 544 3790 915 4058 1306 4058 
C 1862 4058 2227 3617 2227 3035 
C 2227 2479 1901 2000 1536 1584 
L 262 146 
L 262 0 
L 2515 0 
L 2669 989 
z
" transform="scale(0.015625)"/>
        <path id="CMR17-35" d="M 730 3692 
C 794 3666 1056 3584 1325 3584 
C 1920 3584 2246 3911 2432 4100 
C 2432 4157 2432 4192 2394 4192 
C 2387 4192 2374 4192 2323 4163 
C 2099 4058 1837 3973 1517 3973 
C 1325 3973 1037 3999 723 4139 
C 653 4171 640 4171 634 4171 
C 602 4171 595 4164 595 4037 
L 595 2203 
C 595 2089 595 2057 659 2057 
C 691 2057 704 2070 736 2114 
C 941 2401 1222 2522 1542 2522 
C 1766 2522 2246 2382 2246 1289 
C 2246 1085 2246 715 2054 421 
C 1894 159 1645 25 1370 25 
C 947 25 518 320 403 814 
C 429 807 480 795 506 795 
C 589 795 749 840 749 1038 
C 749 1210 627 1280 506 1280 
C 358 1280 262 1190 262 1011 
C 262 454 704 -128 1382 -128 
C 2042 -128 2669 440 2669 1264 
C 2669 2030 2170 2624 1549 2624 
C 1222 2624 947 2503 730 2274 
L 730 3692 
z
" transform="scale(0.015625)"/>
       </defs>
       <use xlink:href="#CMR17-32" transform="scale(0.996264)"/>
       <use xlink:href="#CMR17-35" transform="translate(45.690477 0) scale(0.996264)"/>
      </g>
     </g>
    </g>
    <g id="ytick_2">
     <g id="line2d_5">
      <g>
       <use xlink:href="#m56f3a9ced1" x="44.804673" y="12.042938" style="stroke: #000000; stroke-width: 0.6"/>
      </g>
     </g>
     <g id="text_6">
      <!-- $\mathdefault{30}$ -->
      <g transform="translate(25.147696 16.885876) scale(0.14 -0.14)">
       <defs>
        <path id="CMR17-33" d="M 1414 2157 
C 1984 2157 2234 1662 2234 1090 
C 2234 320 1824 25 1453 25 
C 1114 25 563 194 390 693 
C 422 680 454 680 486 680 
C 640 680 755 782 755 948 
C 755 1133 614 1216 486 1216 
C 378 1216 211 1165 211 926 
C 211 335 787 -128 1466 -128 
C 2176 -128 2720 430 2720 1085 
C 2720 1707 2208 2157 1600 2227 
C 2086 2328 2554 2756 2554 3329 
C 2554 3820 2048 4179 1472 4179 
C 890 4179 378 3829 378 3329 
C 378 3110 544 3072 627 3072 
C 762 3072 877 3155 877 3321 
C 877 3486 762 3569 627 3569 
C 602 3569 570 3569 544 3557 
C 730 3959 1235 4032 1459 4032 
C 1683 4032 2106 3925 2106 3320 
C 2106 3143 2080 2828 1862 2550 
C 1670 2304 1453 2304 1242 2284 
C 1210 2284 1062 2269 1037 2269 
C 992 2263 966 2257 966 2208 
C 966 2163 973 2157 1101 2157 
L 1414 2157 
z
" transform="scale(0.015625)"/>
       </defs>
       <use xlink:href="#CMR17-33" transform="scale(0.996264)"/>
       <use xlink:href="#CMR17-30" transform="translate(45.690477 0) scale(0.996264)"/>
      </g>
     </g>
    </g>
    <g id="text_7">
     <!-- run time (min) -->
     <g transform="translate(17.660772 101.068101) rotate(-90) scale(0.14 -0.14)">
      <defs>
       <path id="CMR17-75" d="M 1882 2693 
L 1882 2528 
C 2259 2528 2317 2489 2317 2186 
L 2317 1032 
C 2317 500 2029 38 1555 38 
C 1030 38 986 348 986 678 
L 986 2763 
L 211 2693 
L 211 2528 
C 467 2528 640 2528 646 2274 
L 646 1058 
C 646 633 646 361 813 183 
C 896 101 1056 -64 1517 -64 
C 2061 -64 2272 377 2323 506 
L 2330 506 
L 2330 -63 
L 3091 -63 
L 3091 128 
C 2714 128 2656 166 2656 473 
L 2656 2763 
L 1882 2693 
z
" transform="scale(0.015625)"/>
       <path id="CMR17-6e" d="M 2656 1933 
C 2656 2259 2592 2790 1837 2790 
C 1331 2790 1069 2400 973 2144 
L 966 2144 
L 966 2790 
L 211 2720 
L 211 2554 
C 589 2554 646 2515 646 2208 
L 646 428 
C 646 184 621 153 211 153 
L 211 -13 
C 365 0 646 0 813 0 
C 979 0 1267 0 1421 -13 
L 1421 153 
C 1011 153 986 178 986 428 
L 986 1658 
C 986 2247 1344 2688 1792 2688 
C 2266 2688 2317 2266 2317 1958 
L 2317 428 
C 2317 184 2291 153 1882 153 
L 1882 -13 
C 2035 0 2317 0 2483 0 
C 2650 0 2938 0 3091 -13 
L 3091 153 
C 2682 153 2656 178 2656 428 
L 2656 1933 
z
" transform="scale(0.015625)"/>
       <path id="CMR17-74" d="M 966 2560 
L 1862 2560 
L 1862 2725 
L 966 2725 
L 966 3904 
L 851 3904 
C 838 3245 614 2668 70 2668 
L 70 2560 
L 627 2560 
L 627 771 
C 627 650 627 -64 1370 -64 
C 1747 -64 1965 306 1965 777 
L 1965 1140 
L 1850 1140 
L 1850 783 
C 1850 344 1677 51 1408 51 
C 1222 51 966 178 966 758 
L 966 2560 
z
" transform="scale(0.015625)"/>
       <path id="CMR17-69" d="M 992 3909 
C 992 4049 877 4170 730 4170 
C 589 4170 467 4056 467 3909 
C 467 3769 582 3648 730 3648 
C 870 3648 992 3763 992 3909 
z
M 243 2706 
L 243 2541 
C 602 2541 653 2502 653 2197 
L 653 427 
C 653 184 627 153 218 153 
L 218 -13 
C 371 0 646 0 806 0 
C 960 0 1222 0 1370 -13 
L 1370 153 
C 992 153 979 191 979 420 
L 979 2776 
L 243 2706 
z
" transform="scale(0.015625)"/>
       <path id="CMR17-6d" d="M 4326 1933 
C 4326 2252 4269 2790 3507 2790 
C 3072 2790 2771 2496 2656 2151 
L 2650 2151 
C 2573 2676 2195 2790 1837 2790 
C 1331 2790 1069 2400 973 2144 
L 966 2144 
L 966 2790 
L 211 2720 
L 211 2554 
C 589 2554 646 2515 646 2208 
L 646 428 
C 646 184 621 153 211 153 
L 211 -13 
C 365 0 646 0 813 0 
C 979 0 1267 0 1421 -13 
L 1421 153 
C 1011 153 986 178 986 428 
L 986 1658 
C 986 2247 1344 2688 1792 2688 
C 2266 2688 2317 2266 2317 1958 
L 2317 428 
C 2317 184 2291 153 1882 153 
L 1882 -13 
C 2035 0 2317 0 2483 0 
C 2650 0 2938 0 3091 -13 
L 3091 153 
C 2682 153 2656 178 2656 428 
L 2656 1658 
C 2656 2247 3014 2688 3462 2688 
C 3936 2688 3987 2266 3987 1958 
L 3987 428 
C 3987 184 3962 153 3552 153 
L 3552 -13 
C 3706 0 3987 0 4154 0 
C 4320 0 4608 0 4762 -13 
L 4762 153 
C 4352 153 4326 178 4326 428 
L 4326 1933 
z
" transform="scale(0.015625)"/>
       <path id="CMR17-28" d="M 1958 -1561 
C 1958 -1555 1958 -1542 1939 -1523 
C 1645 -1224 858 -407 858 1581 
C 858 3569 1632 4379 1946 4697 
C 1946 4704 1958 4717 1958 4736 
C 1958 4755 1939 4768 1914 4768 
C 1843 4768 1299 4296 986 3594 
C 666 2887 576 2199 576 1588 
C 576 1128 621 351 1005 -471 
C 1312 -1135 1837 -1600 1914 -1600 
C 1946 -1600 1958 -1587 1958 -1561 
z
" transform="scale(0.015625)"/>
       <path id="CMR17-29" d="M 1683 1581 
C 1683 2040 1638 2817 1254 3639 
C 947 4303 422 4768 346 4768 
C 326 4768 301 4761 301 4729 
C 301 4717 307 4710 314 4697 
C 621 4378 1402 3568 1402 1584 
C 1402 -407 627 -1217 314 -1537 
C 307 -1549 301 -1556 301 -1568 
C 301 -1600 326 -1600 346 -1600 
C 416 -1600 960 -1128 1274 -426 
C 1594 281 1683 969 1683 1581 
z
" transform="scale(0.015625)"/>
      </defs>
      <use xlink:href="#CMR17-72" transform="scale(0.996264)"/>
      <use xlink:href="#CMR17-75" transform="translate(35.280768 0) scale(0.996264)"/>
      <use xlink:href="#CMR17-6e" transform="translate(86.176138 0) scale(0.996264)"/>
      <use xlink:href="#CMR17-74" transform="translate(167.147474 0) scale(0.996264)"/>
      <use xlink:href="#CMR17-69" transform="translate(202.428242 0) scale(0.996264)"/>
      <use xlink:href="#CMR17-6d" transform="translate(227.2993 0) scale(0.996264)"/>
      <use xlink:href="#CMR17-65" transform="translate(304.21889 0) scale(0.996264)"/>
      <use xlink:href="#CMR17-28" transform="translate(374.780517 0) scale(0.996264)"/>
      <use xlink:href="#CMR17-6d" transform="translate(410.061284 0) scale(0.996264)"/>
      <use xlink:href="#CMR17-69" transform="translate(486.980874 0) scale(0.996264)"/>
      <use xlink:href="#CMR17-6e" transform="translate(511.851933 0) scale(0.996264)"/>
      <use xlink:href="#CMR17-29" transform="translate(562.747303 0) scale(0.996264)"/>
     </g>
    </g>
   </g>
   <g id="line2d_6">
    <path d="M 44.804673 43.662277 
L 50.055854 48.127686 
L 55.307035 52.303179 
L 60.558216 56.188757 
L 65.533019 59.602402 
L 70.507822 62.755845 
L 75.482625 65.649087 
L 80.457428 68.282127 
L 85.432231 70.654967 
L 90.130656 72.657062 
L 94.829081 74.427064 
L 99.527506 75.964974 
L 104.225931 77.27079 
L 108.924356 78.344512 
L 113.622781 79.186142 
L 118.321206 79.795679 
L 123.019631 80.173122 
L 127.718056 80.318472 
L 132.416481 80.231729 
L 137.114906 79.912893 
L 141.813331 79.361964 
L 146.511756 78.578941 
L 151.210182 77.563826 
L 155.908607 76.316617 
L 160.607032 74.837315 
L 165.305457 73.12592 
L 170.003882 71.182432 
L 174.702307 69.006851 
L 179.67711 66.45032 
L 182.717267 64.759903 
L 182.717267 64.759903 
" clip-path="url(#p8b1fa4b629)" style="fill: none; stroke: #c70303; stroke-width: 2; stroke-linecap: square"/>
   </g>
   <g id="line2d_7">
    <defs>
     <path id="m1945a5daba" d="M 0 5 
C 1.326016 5 2.597899 4.473168 3.535534 3.535534 
C 4.473168 2.597899 5 1.326016 5 0 
C 5 -1.326016 4.473168 -2.597899 3.535534 -3.535534 
C 2.597899 -4.473168 1.326016 -5 0 -5 
C -1.326016 -5 -2.597899 -4.473168 -3.535534 -3.535534 
C -4.473168 -2.597899 -5 -1.326016 -5 0 
C -5 1.326016 -4.473168 2.597899 -3.535534 3.535534 
C -2.597899 4.473168 -1.326016 5 0 5 
z
" style="stroke: #c70303"/>
    </defs>
    <g clip-path="url(#p8b1fa4b629)">
     <use xlink:href="#m1945a5daba" x="128.270812" y="80.320313" style="fill: #c70303; stroke: #c70303"/>
    </g>
   </g>
   <g id="patch_3">
    <path d="M 44.804673 100.56419 
L 44.804673 12.042938 
" style="fill: none; stroke: #000000; stroke-width: 0.6; stroke-linejoin: miter; stroke-linecap: square"/>
   </g>
   <g id="patch_4">
    <path d="M 44.804673 100.56419 
L 182.717267 100.56419 
" style="fill: none; stroke: #000000; stroke-width: 0.6; stroke-linejoin: miter; stroke-linecap: square"/>
   </g>
  </g>
 </g>
 <defs>
  <clipPath id="p8b1fa4b629">
   <rect x="44.804673" y="12.042938" width="137.912594" height="88.521252"/>
  </clipPath>
 </defs>
</svg>
