<?xml version="1.0" encoding="utf-8" standalone="no"?>
<!DOCTYPE svg PUBLIC "-//W3C//DTD SVG 1.1//EN"
  "http://www.w3.org/Graphics/SVG/1.1/DTD/svg11.dtd">
<svg xmlns:xlink="http://www.w3.org/1999/xlink" width="200.16pt" height="142.56pt" viewBox="0 0 200.16 142.56" xmlns="http://www.w3.org/2000/svg" version="1.1">
 <metadata>
  <rdf:RDF xmlns:dc="http://purl.org/dc/elements/1.1/" xmlns:cc="http://creativecommons.org/ns#" xmlns:rdf="http://www.w3.org/1999/02/22-rdf-syntax-ns#">
   <cc:Work>
    <dc:type rdf:resource="http://purl.org/dc/dcmitype/StillImage"/>
    <dc:date>2025-08-12T16:07:15.383208</dc:date>
    <dc:format>image/svg+xml</dc:format>
    <dc:creator>
     <cc:Agent>
      <dc:title>Matplotlib v3.10.3, https://matplotlib.org/</dc:title>
     </cc:Agent>
    </dc:creator>
   </cc:Work>
  </rdf:RDF>
 </metadata>
 <defs>
  <style type="text/css">*{stroke-linejoin: round; stroke-linecap: butt}</style>
 </defs>
 <g id="figure_1">
  <g id="patch_1">
   <path d="M 0 142.56 
L 200.16 142.56 
L 200.16 0 
L 0 0 
L 0 142.56 
z
" style="fill: none"/>
  </g>
  <g id="axes_1">
   <g id="patch_2">
    <path d="M 44.804673 99.014399 
L 186.131511 99.014399 
L 186.131511 12.042938 
L 44.804673 12.042938 
L 44.804673 99.014399 
z
" style="fill: none"/>
   </g>
   <g id="FillBetweenPolyCollection_1">
    <defs>
     <path id="m0addddcd43" d="M 44.804673 -119.118308 
L 44.804673 -59.044888 
L 45.087894 -58.984075 
L 45.371114 -58.923706 
L 45.654334 -58.863782 
L 45.937554 -58.804302 
L 46.220774 -58.745266 
L 46.503994 -58.686674 
L 46.787214 -58.628526 
L 47.070434 -58.570821 
L 47.353654 -58.51356 
L 47.636875 -58.456742 
L 47.920095 -58.400367 
L 48.203315 -58.344435 
L 48.486535 -58.288945 
L 48.769755 -58.233898 
L 49.052975 -58.179294 
L 49.336195 -58.125132 
L 49.619415 -58.071412 
L 49.902635 -58.018133 
L 50.185856 -57.965297 
L 50.469076 -57.912902 
L 50.752296 -57.860948 
L 51.035516 -57.809436 
L 51.318736 -57.758364 
L 51.601956 -57.707733 
L 51.885176 -57.657543 
L 52.168396 -57.607794 
L 52.451617 -57.558484 
L 52.734837 -57.509615 
L 53.018057 -57.461186 
L 53.301277 -57.413196 
L 53.584497 -57.365645 
L 53.867717 -57.318534 
L 54.150937 -57.271862 
L 54.434157 -57.225629 
L 54.717377 -57.179835 
L 55.000598 -57.134479 
L 55.283818 -57.089561 
L 55.567038 -57.045081 
L 55.850258 -57.00104 
L 56.133478 -56.957435 
L 56.416698 -56.914268 
L 56.699918 -56.871539 
L 56.983138 -56.829246 
L 57.266359 -56.78739 
L 57.549579 -56.74597 
L 57.832799 -56.704987 
L 58.116019 -56.66444 
L 58.399239 -56.624328 
L 58.682459 -56.584653 
L 58.965679 -56.545412 
L 59.248899 -56.506607 
L 59.532119 -56.468236 
L 59.81534 -56.4303 
L 60.09856 -56.392798 
L 60.38178 -56.355731 
L 60.665 -56.319097 
L 60.94822 -56.282897 
L 61.23144 -56.24713 
L 61.51466 -56.211797 
L 61.79788 -56.176896 
L 62.0811 -56.142428 
L 62.364321 -56.108392 
L 62.647541 -56.074788 
L 62.930761 -56.041615 
L 63.213981 -56.008874 
L 63.497201 -55.976565 
L 63.780421 -55.944686 
L 64.063641 -55.913238 
L 64.346861 -55.88222 
L 64.630082 -55.851632 
L 64.913302 -55.821474 
L 65.196522 -55.791745 
L 65.479742 -55.762446 
L 65.762962 -55.733575 
L 66.046182 -55.705133 
L 66.329402 -55.677118 
L 66.612622 -55.649532 
L 66.895842 -55.622374 
L 67.179063 -55.595642 
L 67.462283 -55.569338 
L 67.745503 -55.54346 
L 68.028723 -55.518008 
L 68.311943 -55.492982 
L 68.595163 -55.468382 
L 68.878383 -55.444207 
L 69.161603 -55.420457 
L 69.444824 -55.397131 
L 69.728044 -55.37423 
L 70.011264 -55.351752 
L 70.294484 -55.329698 
L 70.577704 -55.308067 
L 70.860924 -55.286858 
L 71.144144 -55.266072 
L 71.427364 -55.245708 
L 71.710584 -55.225765 
L 71.993805 -55.206244 
L 72.277025 -55.187143 
L 72.560245 -55.168463 
L 72.843465 -55.150203 
L 73.126685 -55.132362 
L 73.409905 -55.11494 
L 73.693125 -55.097938 
L 73.976345 -55.081353 
L 74.259565 -55.065187 
L 74.542786 -55.049437 
L 74.826006 -55.034105 
L 75.109226 -55.01919 
L 75.392446 -55.004691 
L 75.675666 -54.990607 
L 75.958886 -54.976939 
L 76.242106 -54.963685 
L 76.525326 -54.950846 
L 76.808547 -54.93842 
L 77.091767 -54.926408 
L 77.374987 -54.914809 
L 77.658207 -54.903622 
L 77.941427 -54.892847 
L 78.224647 -54.882484 
L 78.507867 -54.872531 
L 78.791087 -54.862989 
L 79.074307 -54.853857 
L 79.357528 -54.845134 
L 79.640748 -54.83682 
L 79.923968 -54.828914 
L 80.207188 -54.821416 
L 80.490408 -54.814325 
L 80.773628 -54.807641 
L 81.056848 -54.801363 
L 81.340068 -54.79549 
L 81.623288 -54.790022 
L 81.906509 -54.784959 
L 82.189729 -54.780299 
L 82.472949 -54.776043 
L 82.756169 -54.772189 
L 83.039389 -54.768737 
L 83.322609 -54.765687 
L 83.605829 -54.763037 
L 83.889049 -54.760787 
L 84.17227 -54.758937 
L 84.45549 -54.757486 
L 84.73871 -54.756432 
L 85.02193 -54.755776 
L 85.30515 -54.755517 
L 85.58837 -54.755654 
L 85.87159 -54.756187 
L 86.15481 -54.757114 
L 86.43803 -54.758436 
L 86.721251 -54.76015 
L 87.004471 -54.762258 
L 87.287691 -54.764757 
L 87.570911 -54.767647 
L 87.854131 -54.770928 
L 88.137351 -54.774598 
L 88.420571 -54.778657 
L 88.703791 -54.783104 
L 88.987012 -54.787939 
L 89.270232 -54.79316 
L 89.553452 -54.798767 
L 89.836672 -54.804758 
L 90.119892 -54.811134 
L 90.403112 -54.817893 
L 90.686332 -54.825034 
L 90.969552 -54.832557 
L 91.252772 -54.84046 
L 91.535993 -54.848743 
L 91.819213 -54.857405 
L 92.102433 -54.866445 
L 92.385653 -54.875862 
L 92.668873 -54.885656 
L 92.952093 -54.895824 
L 93.235313 -54.906367 
L 93.518533 -54.917282 
L 93.801753 -54.928571 
L 94.084974 -54.94023 
L 94.368194 -54.95226 
L 94.651414 -54.964659 
L 94.934634 -54.977427 
L 95.217854 -54.990561 
L 95.501074 -55.004062 
L 95.784294 -55.017929 
L 96.067514 -55.032159 
L 96.350735 -55.046752 
L 96.633955 -55.061707 
L 96.917175 -55.077023 
L 97.200395 -55.092699 
L 97.483615 -55.108733 
L 97.766835 -55.125124 
L 98.050055 -55.141871 
L 98.333275 -55.158974 
L 98.616495 -55.17643 
L 98.899716 -55.194239 
L 99.182936 -55.212399 
L 99.466156 -55.230909 
L 99.749376 -55.249768 
L 100.032596 -55.268975 
L 100.315816 -55.288527 
L 100.599036 -55.308425 
L 100.882256 -55.328666 
L 101.165477 -55.349249 
L 101.448697 -55.370174 
L 101.731917 -55.391437 
L 102.015137 -55.413039 
L 102.298357 -55.434977 
L 102.581577 -55.457251 
L 102.864797 -55.479858 
L 103.148017 -55.502797 
L 103.431237 -55.526068 
L 103.714458 -55.549667 
L 103.997678 -55.573594 
L 104.280898 -55.597848 
L 104.564118 -55.622426 
L 104.847338 -55.647327 
L 105.130558 -55.672549 
L 105.413778 -55.698091 
L 105.696998 -55.723951 
L 105.980218 -55.750128 
L 106.263439 -55.776619 
L 106.546659 -55.803424 
L 106.829879 -55.830539 
L 107.113099 -55.857965 
L 107.396319 -55.885697 
L 107.679539 -55.913736 
L 107.962759 -55.942079 
L 108.245979 -55.970724 
L 108.5292 -55.99967 
L 108.81242 -56.028914 
L 109.09564 -56.058454 
L 109.37886 -56.088289 
L 109.66208 -56.118417 
L 109.9453 -56.148836 
L 110.22852 -56.179543 
L 110.51174 -56.210536 
L 110.79496 -56.241815 
L 111.078181 -56.273375 
L 111.361401 -56.305216 
L 111.644621 -56.337335 
L 111.927841 -56.36973 
L 112.211061 -56.402399 
L 112.494281 -56.43534 
L 112.777501 -56.46855 
L 113.060721 -56.502027 
L 113.343942 -56.535768 
L 113.627162 -56.569772 
L 113.910382 -56.604037 
L 114.193602 -56.638559 
L 114.476822 -56.673336 
L 114.760042 -56.708366 
L 115.043262 -56.743646 
L 115.326482 -56.779175 
L 115.609702 -56.814949 
L 115.892923 -56.850965 
L 116.176143 -56.887222 
L 116.459363 -56.923716 
L 116.742583 -56.960446 
L 117.025803 -56.997408 
L 117.309023 -57.034599 
L 117.592243 -57.072018 
L 117.875463 -57.10966 
L 118.158683 -57.147524 
L 118.441904 -57.185607 
L 118.725124 -57.223905 
L 119.008344 -57.262416 
L 119.291564 -57.301137 
L 119.574784 -57.340066 
L 119.858004 -57.379198 
L 120.141224 -57.418531 
L 120.424444 -57.458063 
L 120.707665 -57.497789 
L 120.990885 -57.537708 
L 121.274105 -57.577815 
L 121.557325 -57.618109 
L 121.840545 -57.658584 
L 122.123765 -57.69924 
L 122.406985 -57.740071 
L 122.690205 -57.781075 
L 122.973425 -57.822249 
L 123.256646 -57.86359 
L 123.539866 -57.905093 
L 123.823086 -57.946756 
L 124.106306 -57.988576 
L 124.389526 -58.030548 
L 124.672746 -58.07267 
L 124.955966 -58.114938 
L 125.239186 -58.157349 
L 125.522407 -58.199898 
L 125.805627 -58.242583 
L 126.088847 -58.2854 
L 126.372067 -58.328346 
L 126.655287 -58.371416 
L 126.938507 -58.414607 
L 127.221727 -58.457916 
L 127.504947 -58.501339 
L 127.788167 -58.544872 
L 128.071388 -58.588511 
L 128.354608 -58.632254 
L 128.637828 -58.676095 
L 128.921048 -58.720032 
L 129.204268 -58.76406 
L 129.487488 -58.808176 
L 129.770708 -58.852376 
L 130.053928 -58.896656 
L 130.337148 -58.941012 
L 130.620369 -58.985441 
L 130.903589 -59.029939 
L 131.186809 -59.074502 
L 131.470029 -59.119125 
L 131.753249 -59.163806 
L 132.036469 -59.20854 
L 132.319689 -59.253323 
L 132.602909 -59.298152 
L 132.88613 -59.343023 
L 133.16935 -59.387932 
L 133.45257 -59.432875 
L 133.73579 -59.477848 
L 134.01901 -59.522847 
L 134.30223 -59.567869 
L 134.58545 -59.612909 
L 134.86867 -59.657965 
L 135.15189 -59.703031 
L 135.435111 -59.748105 
L 135.718331 -59.793182 
L 136.001551 -59.83826 
L 136.284771 -59.883333 
L 136.567991 -59.928399 
L 136.851211 -59.973453 
L 137.134431 -60.018493 
L 137.417651 -60.063514 
L 137.700872 -60.108513 
L 137.984092 -60.153486 
L 138.267312 -60.19843 
L 138.550532 -60.243341 
L 138.833752 -60.288217 
L 139.116972 -60.333053 
L 139.400192 -60.377846 
L 139.683412 -60.422592 
L 139.966632 -60.46729 
L 140.249853 -60.511935 
L 140.533073 -60.556524 
L 140.816293 -60.601054 
L 141.099513 -60.645522 
L 141.382733 -60.689925 
L 141.665953 -60.73426 
L 141.949173 -60.778525 
L 142.232393 -60.822716 
L 142.515613 -60.866831 
L 142.798834 -60.910867 
L 143.082054 -60.954821 
L 143.365274 -60.998692 
L 143.648494 -61.042476 
L 143.931714 -61.086171 
L 144.214934 -61.129775 
L 144.498154 -61.173285 
L 144.781374 -61.2167 
L 145.064595 -61.260018 
L 145.347815 -61.303236 
L 145.631035 -61.346353 
L 145.914255 -61.389367 
L 146.197475 -61.432275 
L 146.480695 -61.475078 
L 146.763915 -61.517772 
L 147.047135 -61.560357 
L 147.330355 -61.602832 
L 147.613576 -61.645194 
L 147.896796 -61.687444 
L 148.180016 -61.72958 
L 148.463236 -61.7716 
L 148.746456 -61.813505 
L 149.029676 -61.855293 
L 149.312896 -61.896965 
L 149.596116 -61.938518 
L 149.879337 -61.979954 
L 150.162557 -62.021271 
L 150.445777 -62.062469 
L 150.728997 -62.103549 
L 151.012217 -62.14451 
L 151.295437 -62.185353 
L 151.578657 -62.226077 
L 151.861877 -62.266683 
L 152.145097 -62.307171 
L 152.428318 -62.347543 
L 152.711538 -62.387797 
L 152.994758 -62.427936 
L 153.277978 -62.46796 
L 153.561198 -62.50787 
L 153.844418 -62.547667 
L 154.127638 -62.587351 
L 154.410858 -62.626925 
L 154.694078 -62.66639 
L 154.977299 -62.705746 
L 155.260519 -62.744996 
L 155.543739 -62.784141 
L 155.826959 -62.823183 
L 156.110179 -62.862123 
L 156.393399 -62.900964 
L 156.676619 -62.939707 
L 156.959839 -62.978355 
L 157.24306 -63.016909 
L 157.52628 -63.055371 
L 157.8095 -63.093745 
L 158.09272 -63.132032 
L 158.37594 -63.170235 
L 158.65916 -63.208356 
L 158.94238 -63.246398 
L 159.2256 -63.284364 
L 159.50882 -63.322256 
L 159.792041 -63.360077 
L 160.075261 -63.39783 
L 160.358481 -63.435518 
L 160.641701 -63.473143 
L 160.924921 -63.51071 
L 161.208141 -63.548221 
L 161.491361 -63.585678 
L 161.774581 -63.623087 
L 162.057801 -63.660448 
L 162.341022 -63.697767 
L 162.624242 -63.735046 
L 162.907462 -63.772289 
L 163.190682 -63.809498 
L 163.473902 -63.846679 
L 163.757122 -63.883833 
L 164.040342 -63.920965 
L 164.323562 -63.958079 
L 164.606783 -63.995177 
L 164.890003 -64.032264 
L 165.173223 -64.069342 
L 165.456443 -64.106417 
L 165.739663 -64.143491 
L 166.022883 -64.180569 
L 166.306103 -64.217654 
L 166.589323 -64.254749 
L 166.872543 -64.291859 
L 167.155764 -64.328988 
L 167.438984 -64.366139 
L 167.722204 -64.403316 
L 168.005424 -64.440522 
L 168.288644 -64.477763 
L 168.571864 -64.515041 
L 168.855084 -64.552361 
L 169.138304 -64.589726 
L 169.421525 -64.627141 
L 169.704745 -64.664608 
L 169.987965 -64.702132 
L 170.271185 -64.739717 
L 170.554405 -64.777367 
L 170.837625 -64.815085 
L 171.120845 -64.852875 
L 171.404065 -64.890742 
L 171.687285 -64.928688 
L 171.970506 -64.966718 
L 172.253726 -65.004836 
L 172.536946 -65.043045 
L 172.820166 -65.081349 
L 173.103386 -65.119752 
L 173.386606 -65.158257 
L 173.669826 -65.196868 
L 173.953046 -65.23559 
L 174.236266 -65.274425 
L 174.519487 -65.313378 
L 174.802707 -65.352451 
L 175.085927 -65.391649 
L 175.369147 -65.430975 
L 175.652367 -65.470433 
L 175.935587 -65.510026 
L 176.218807 -65.549758 
L 176.502027 -65.589632 
L 176.785248 -65.629652 
L 177.068468 -65.669821 
L 177.351688 -65.710143 
L 177.634908 -65.750621 
L 177.918128 -65.791259 
L 178.201348 -65.832059 
L 178.484568 -65.873026 
L 178.767788 -65.914162 
L 179.051008 -65.955471 
L 179.334229 -65.996955 
L 179.617449 -66.038619 
L 179.900669 -66.080466 
L 180.183889 -66.122497 
L 180.467109 -66.164718 
L 180.750329 -66.20713 
L 181.033549 -66.249737 
L 181.316769 -66.292542 
L 181.59999 -66.335548 
L 181.88321 -66.378758 
L 182.16643 -66.422175 
L 182.44965 -66.465801 
L 182.73287 -66.509641 
L 183.01609 -66.553695 
L 183.29931 -66.597969 
L 183.58253 -66.642463 
L 183.86575 -66.687181 
L 184.148971 -66.732126 
L 184.432191 -66.777301 
L 184.715411 -66.822708 
L 184.998631 -66.868349 
L 185.281851 -66.914228 
L 185.565071 -66.960347 
L 185.848291 -67.006709 
L 186.131511 -67.053316 
L 186.131511 -94.496875 
L 186.131511 -94.496875 
L 185.848291 -94.345017 
L 185.565071 -94.193845 
L 185.281851 -94.043361 
L 184.998631 -93.893567 
L 184.715411 -93.744467 
L 184.432191 -93.596063 
L 184.148971 -93.448357 
L 183.86575 -93.301352 
L 183.58253 -93.155052 
L 183.29931 -93.009458 
L 183.01609 -92.864574 
L 182.73287 -92.720402 
L 182.44965 -92.576945 
L 182.16643 -92.434207 
L 181.88321 -92.292189 
L 181.59999 -92.150896 
L 181.316769 -92.010329 
L 181.033549 -91.870492 
L 180.750329 -91.731388 
L 180.467109 -91.593019 
L 180.183889 -91.45539 
L 179.900669 -91.318503 
L 179.617449 -91.182361 
L 179.334229 -91.046967 
L 179.051008 -90.912325 
L 178.767788 -90.778438 
L 178.484568 -90.645309 
L 178.201348 -90.512941 
L 177.918128 -90.381338 
L 177.634908 -90.250502 
L 177.351688 -90.120438 
L 177.068468 -89.991148 
L 176.785248 -89.862637 
L 176.502027 -89.734907 
L 176.218807 -89.607962 
L 175.935587 -89.481805 
L 175.652367 -89.356441 
L 175.369147 -89.231872 
L 175.085927 -89.108101 
L 174.802707 -88.985134 
L 174.519487 -88.862973 
L 174.236266 -88.741621 
L 173.953046 -88.621083 
L 173.669826 -88.501362 
L 173.386606 -88.382462 
L 173.103386 -88.264386 
L 172.820166 -88.147139 
L 172.536946 -88.030723 
L 172.253726 -87.915143 
L 171.970506 -87.800403 
L 171.687285 -87.686506 
L 171.404065 -87.573456 
L 171.120845 -87.461257 
L 170.837625 -87.349912 
L 170.554405 -87.239426 
L 170.271185 -87.129802 
L 169.987965 -87.021045 
L 169.704745 -86.913157 
L 169.421525 -86.806143 
L 169.138304 -86.700007 
L 168.855084 -86.594752 
L 168.571864 -86.490383 
L 168.288644 -86.386903 
L 168.005424 -86.284317 
L 167.722204 -86.182627 
L 167.438984 -86.081838 
L 167.155764 -85.981954 
L 166.872543 -85.882978 
L 166.589323 -85.784914 
L 166.306103 -85.687767 
L 166.022883 -85.591539 
L 165.739663 -85.496236 
L 165.456443 -85.401859 
L 165.173223 -85.308414 
L 164.890003 -85.215904 
L 164.606783 -85.124332 
L 164.323562 -85.033703 
L 164.040342 -84.944019 
L 163.757122 -84.855285 
L 163.473902 -84.767504 
L 163.190682 -84.68068 
L 162.907462 -84.594816 
L 162.624242 -84.509915 
L 162.341022 -84.425982 
L 162.057801 -84.343019 
L 161.774581 -84.26103 
L 161.491361 -84.180018 
L 161.208141 -84.099986 
L 160.924921 -84.020938 
L 160.641701 -83.942877 
L 160.358481 -83.865806 
L 160.075261 -83.789727 
L 159.792041 -83.714645 
L 159.50882 -83.640561 
L 159.2256 -83.567479 
L 158.94238 -83.495401 
L 158.65916 -83.424331 
L 158.37594 -83.35427 
L 158.09272 -83.285222 
L 157.8095 -83.217188 
L 157.52628 -83.150173 
L 157.24306 -83.084176 
L 156.959839 -83.019202 
L 156.676619 -82.955253 
L 156.393399 -82.892329 
L 156.110179 -82.830434 
L 155.826959 -82.769569 
L 155.543739 -82.709737 
L 155.260519 -82.650938 
L 154.977299 -82.593176 
L 154.694078 -82.53645 
L 154.410858 -82.480763 
L 154.127638 -82.426117 
L 153.844418 -82.372512 
L 153.561198 -82.319949 
L 153.277978 -82.268431 
L 152.994758 -82.217957 
L 152.711538 -82.168529 
L 152.428318 -82.120148 
L 152.145097 -82.072814 
L 151.861877 -82.026528 
L 151.578657 -81.98129 
L 151.295437 -81.937101 
L 151.012217 -81.893962 
L 150.728997 -81.851871 
L 150.445777 -81.81083 
L 150.162557 -81.770839 
L 149.879337 -81.731897 
L 149.596116 -81.694004 
L 149.312896 -81.65716 
L 149.029676 -81.621364 
L 148.746456 -81.586616 
L 148.463236 -81.552915 
L 148.180016 -81.520261 
L 147.896796 -81.488653 
L 147.613576 -81.458089 
L 147.330355 -81.428569 
L 147.047135 -81.400092 
L 146.763915 -81.372656 
L 146.480695 -81.34626 
L 146.197475 -81.320903 
L 145.914255 -81.296583 
L 145.631035 -81.273299 
L 145.347815 -81.251049 
L 145.064595 -81.22983 
L 144.781374 -81.209642 
L 144.498154 -81.190482 
L 144.214934 -81.172349 
L 143.931714 -81.155239 
L 143.648494 -81.139152 
L 143.365274 -81.124084 
L 143.082054 -81.110033 
L 142.798834 -81.096997 
L 142.515613 -81.084973 
L 142.232393 -81.073959 
L 141.949173 -81.063952 
L 141.665953 -81.054949 
L 141.382733 -81.046948 
L 141.099513 -81.039946 
L 140.816293 -81.033939 
L 140.533073 -81.028924 
L 140.249853 -81.0249 
L 139.966632 -81.021861 
L 139.683412 -81.019807 
L 139.400192 -81.018732 
L 139.116972 -81.018634 
L 138.833752 -81.01951 
L 138.550532 -81.021357 
L 138.267312 -81.02417 
L 137.984092 -81.027946 
L 137.700872 -81.032682 
L 137.417651 -81.038375 
L 137.134431 -81.045021 
L 136.851211 -81.052616 
L 136.567991 -81.061156 
L 136.284771 -81.070639 
L 136.001551 -81.08106 
L 135.718331 -81.092416 
L 135.435111 -81.104702 
L 135.15189 -81.117916 
L 134.86867 -81.132053 
L 134.58545 -81.14711 
L 134.30223 -81.163083 
L 134.01901 -81.179967 
L 133.73579 -81.19776 
L 133.45257 -81.216458 
L 133.16935 -81.236056 
L 132.88613 -81.25655 
L 132.602909 -81.277938 
L 132.319689 -81.300214 
L 132.036469 -81.323376 
L 131.753249 -81.347419 
L 131.470029 -81.372339 
L 131.186809 -81.398133 
L 130.903589 -81.424797 
L 130.620369 -81.452327 
L 130.337148 -81.480718 
L 130.053928 -81.509968 
L 129.770708 -81.540073 
L 129.487488 -81.571027 
L 129.204268 -81.602829 
L 128.921048 -81.635474 
L 128.637828 -81.668958 
L 128.354608 -81.703277 
L 128.071388 -81.738428 
L 127.788167 -81.774407 
L 127.504947 -81.81121 
L 127.221727 -81.848834 
L 126.938507 -81.887275 
L 126.655287 -81.926528 
L 126.372067 -81.966592 
L 126.088847 -82.007461 
L 125.805627 -82.049133 
L 125.522407 -82.091604 
L 125.239186 -82.134869 
L 124.955966 -82.178927 
L 124.672746 -82.223773 
L 124.389526 -82.269403 
L 124.106306 -82.315815 
L 123.823086 -82.363004 
L 123.539866 -82.410968 
L 123.256646 -82.459703 
L 122.973425 -82.509206 
L 122.690205 -82.559473 
L 122.406985 -82.610501 
L 122.123765 -82.662287 
L 121.840545 -82.714827 
L 121.557325 -82.768119 
L 121.274105 -82.822159 
L 120.990885 -82.876944 
L 120.707665 -82.932471 
L 120.424444 -82.988737 
L 120.141224 -83.045738 
L 119.858004 -83.103472 
L 119.574784 -83.161935 
L 119.291564 -83.221126 
L 119.008344 -83.28104 
L 118.725124 -83.341674 
L 118.441904 -83.403027 
L 118.158683 -83.465095 
L 117.875463 -83.527874 
L 117.592243 -83.591364 
L 117.309023 -83.655559 
L 117.025803 -83.720459 
L 116.742583 -83.78606 
L 116.459363 -83.852359 
L 116.176143 -83.919353 
L 115.892923 -83.987041 
L 115.609702 -84.05542 
L 115.326482 -84.124486 
L 115.043262 -84.194238 
L 114.760042 -84.264672 
L 114.476822 -84.335787 
L 114.193602 -84.40758 
L 113.910382 -84.480048 
L 113.627162 -84.55319 
L 113.343942 -84.627002 
L 113.060721 -84.701482 
L 112.777501 -84.776628 
L 112.494281 -84.852438 
L 112.211061 -84.92891 
L 111.927841 -85.00604 
L 111.644621 -85.083828 
L 111.361401 -85.16227 
L 111.078181 -85.241365 
L 110.79496 -85.32111 
L 110.51174 -85.401504 
L 110.22852 -85.482544 
L 109.9453 -85.564227 
L 109.66208 -85.646554 
L 109.37886 -85.72952 
L 109.09564 -85.813124 
L 108.81242 -85.897365 
L 108.5292 -85.982239 
L 108.245979 -86.067746 
L 107.962759 -86.153883 
L 107.679539 -86.240649 
L 107.396319 -86.328042 
L 107.113099 -86.416059 
L 106.829879 -86.504699 
L 106.546659 -86.593961 
L 106.263439 -86.683842 
L 105.980218 -86.774341 
L 105.696998 -86.865455 
L 105.413778 -86.957185 
L 105.130558 -87.049526 
L 104.847338 -87.142479 
L 104.564118 -87.236041 
L 104.280898 -87.330211 
L 103.997678 -87.424987 
L 103.714458 -87.520368 
L 103.431237 -87.616352 
L 103.148017 -87.712937 
L 102.864797 -87.810122 
L 102.581577 -87.907906 
L 102.298357 -88.006287 
L 102.015137 -88.105263 
L 101.731917 -88.204833 
L 101.448697 -88.304996 
L 101.165477 -88.405751 
L 100.882256 -88.507095 
L 100.599036 -88.609028 
L 100.315816 -88.711548 
L 100.032596 -88.814654 
L 99.749376 -88.918345 
L 99.466156 -89.022618 
L 99.182936 -89.127474 
L 98.899716 -89.23291 
L 98.616495 -89.338926 
L 98.333275 -89.44552 
L 98.050055 -89.552691 
L 97.766835 -89.660438 
L 97.483615 -89.768759 
L 97.200395 -89.877654 
L 96.917175 -89.987121 
L 96.633955 -90.097159 
L 96.350735 -90.207767 
L 96.067514 -90.318944 
L 95.784294 -90.430689 
L 95.501074 -90.543001 
L 95.217854 -90.655878 
L 94.934634 -90.769319 
L 94.651414 -90.883324 
L 94.368194 -90.997892 
L 94.084974 -91.113021 
L 93.801753 -91.22871 
L 93.518533 -91.344959 
L 93.235313 -91.461766 
L 92.952093 -91.579131 
L 92.668873 -91.697052 
L 92.385653 -91.815528 
L 92.102433 -91.93456 
L 91.819213 -92.054145 
L 91.535993 -92.174283 
L 91.252772 -92.294972 
L 90.969552 -92.416213 
L 90.686332 -92.538004 
L 90.403112 -92.660344 
L 90.119892 -92.783232 
L 89.836672 -92.906668 
L 89.553452 -93.030651 
L 89.270232 -93.15518 
L 88.987012 -93.280253 
L 88.703791 -93.405871 
L 88.420571 -93.532033 
L 88.137351 -93.658737 
L 87.854131 -93.785983 
L 87.570911 -93.91377 
L 87.287691 -94.042097 
L 87.004471 -94.170964 
L 86.721251 -94.30037 
L 86.43803 -94.430314 
L 86.15481 -94.560795 
L 85.87159 -94.691813 
L 85.58837 -94.823368 
L 85.30515 -94.955457 
L 85.02193 -95.088081 
L 84.73871 -95.221239 
L 84.45549 -95.354931 
L 84.17227 -95.489155 
L 83.889049 -95.62391 
L 83.605829 -95.759198 
L 83.322609 -95.895015 
L 83.039389 -96.031363 
L 82.756169 -96.168241 
L 82.472949 -96.305647 
L 82.189729 -96.443581 
L 81.906509 -96.582043 
L 81.623288 -96.721032 
L 81.340068 -96.860547 
L 81.056848 -97.000588 
L 80.773628 -97.141154 
L 80.490408 -97.282245 
L 80.207188 -97.42386 
L 79.923968 -97.565999 
L 79.640748 -97.70866 
L 79.357528 -97.851844 
L 79.074307 -97.99555 
L 78.791087 -98.139778 
L 78.507867 -98.284526 
L 78.224647 -98.429795 
L 77.941427 -98.575583 
L 77.658207 -98.721891 
L 77.374987 -98.868718 
L 77.091767 -99.016063 
L 76.808547 -99.163926 
L 76.525326 -99.312306 
L 76.242106 -99.461203 
L 75.958886 -99.610617 
L 75.675666 -99.760547 
L 75.392446 -99.910992 
L 75.109226 -100.061952 
L 74.826006 -100.213427 
L 74.542786 -100.365415 
L 74.259565 -100.517918 
L 73.976345 -100.670934 
L 73.693125 -100.824463 
L 73.409905 -100.978504 
L 73.126685 -101.133057 
L 72.843465 -101.288122 
L 72.560245 -101.443698 
L 72.277025 -101.599785 
L 71.993805 -101.756382 
L 71.710584 -101.913489 
L 71.427364 -102.071105 
L 71.144144 -102.229231 
L 70.860924 -102.387866 
L 70.577704 -102.547009 
L 70.294484 -102.70666 
L 70.011264 -102.866819 
L 69.728044 -103.027485 
L 69.444824 -103.188658 
L 69.161603 -103.350338 
L 68.878383 -103.512524 
L 68.595163 -103.675216 
L 68.311943 -103.838413 
L 68.028723 -104.002115 
L 67.745503 -104.166323 
L 67.462283 -104.331035 
L 67.179063 -104.496251 
L 66.895842 -104.66197 
L 66.612622 -104.828194 
L 66.329402 -104.99492 
L 66.046182 -105.16215 
L 65.762962 -105.329882 
L 65.479742 -105.498116 
L 65.196522 -105.666852 
L 64.913302 -105.83609 
L 64.630082 -106.005829 
L 64.346861 -106.17607 
L 64.063641 -106.346811 
L 63.780421 -106.518052 
L 63.497201 -106.689794 
L 63.213981 -106.862035 
L 62.930761 -107.034776 
L 62.647541 -107.208016 
L 62.364321 -107.381756 
L 62.0811 -107.555994 
L 61.79788 -107.73073 
L 61.51466 -107.905965 
L 61.23144 -108.081698 
L 60.94822 -108.257928 
L 60.665 -108.434656 
L 60.38178 -108.611881 
L 60.09856 -108.789603 
L 59.81534 -108.967821 
L 59.532119 -109.146536 
L 59.248899 -109.325747 
L 58.965679 -109.505454 
L 58.682459 -109.685657 
L 58.399239 -109.866355 
L 58.116019 -110.047548 
L 57.832799 -110.229236 
L 57.549579 -110.411419 
L 57.266359 -110.594096 
L 56.983138 -110.777268 
L 56.699918 -110.960934 
L 56.416698 -111.145093 
L 56.133478 -111.329746 
L 55.850258 -111.514893 
L 55.567038 -111.700532 
L 55.283818 -111.886665 
L 55.000598 -112.07329 
L 54.717377 -112.260407 
L 54.434157 -112.448017 
L 54.150937 -112.63612 
L 53.867717 -112.824714 
L 53.584497 -113.013799 
L 53.301277 -113.203376 
L 53.018057 -113.393445 
L 52.734837 -113.584004 
L 52.451617 -113.775055 
L 52.168396 -113.966596 
L 51.885176 -114.158627 
L 51.601956 -114.351149 
L 51.318736 -114.544161 
L 51.035516 -114.737663 
L 50.752296 -114.931655 
L 50.469076 -115.126136 
L 50.185856 -115.321107 
L 49.902635 -115.516567 
L 49.619415 -115.712516 
L 49.336195 -115.908953 
L 49.052975 -116.10588 
L 48.769755 -116.303295 
L 48.486535 -116.501198 
L 48.203315 -116.69959 
L 47.920095 -116.89847 
L 47.636875 -117.097837 
L 47.353654 -117.297692 
L 47.070434 -117.498035 
L 46.787214 -117.698865 
L 46.503994 -117.900182 
L 46.220774 -118.101986 
L 45.937554 -118.304277 
L 45.654334 -118.507055 
L 45.371114 -118.71032 
L 45.087894 -118.91407 
L 44.804673 -119.118308 
z
"/>
    </defs>
    <g clip-path="url(#pab7b719454)">
     <use xlink:href="#m0addddcd43" x="0" y="142.56" style="fill: #c70303; fill-opacity: 0.1"/>
    </g>
   </g>
   <g id="matplotlib.axis_1">
    <g id="xtick_1">
     <g id="line2d_1">
      <defs>
       <path id="m4cd371f86f" d="M 0 0 
L 0 2.5 
" style="stroke: #000000; stroke-width: 0.6"/>
      </defs>
      <g>
       <use xlink:href="#m4cd371f86f" x="44.804673" y="99.014399" style="stroke: #000000; stroke-width: 0.6"/>
      </g>
     </g>
     <g id="text_1">
      <!-- $\mathdefault{-20}$ -->
      <g transform="translate(32.552067 114.700275) scale(0.14 -0.14)">
       <defs>
        <path id="CMSY10-0" d="M 4218 1472 
C 4326 1472 4442 1472 4442 1600 
C 4442 1728 4326 1728 4218 1728 
L 755 1728 
C 646 1728 531 1728 531 1600 
C 531 1472 646 1472 755 1472 
L 4218 1472 
z
" transform="scale(0.015625)"/>
        <path id="CMR17-32" d="M 2669 989 
L 2554 989 
C 2490 536 2438 459 2413 420 
C 2381 369 1920 369 1830 369 
L 602 369 
C 832 619 1280 1072 1824 1597 
C 2214 1967 2669 2402 2669 3035 
C 2669 3790 2067 4224 1395 4224 
C 691 4224 262 3604 262 3030 
C 262 2780 448 2748 525 2748 
C 589 2748 781 2787 781 3010 
C 781 3207 614 3264 525 3264 
C 486 3264 448 3258 422 3245 
C 544 3790 915 4058 1306 4058 
C 1862 4058 2227 3617 2227 3035 
C 2227 2479 1901 2000 1536 1584 
L 262 146 
L 262 0 
L 2515 0 
L 2669 989 
z
" transform="scale(0.015625)"/>
        <path id="CMR17-30" d="M 2688 2025 
C 2688 2416 2682 3080 2413 3591 
C 2176 4039 1798 4198 1466 4198 
C 1158 4198 768 4058 525 3597 
C 269 3118 243 2524 243 2025 
C 243 1661 250 1106 448 619 
C 723 -39 1216 -128 1466 -128 
C 1760 -128 2208 -7 2470 600 
C 2662 1042 2688 1559 2688 2025 
z
M 1466 -26 
C 1056 -26 813 325 723 812 
C 653 1188 653 1738 653 2096 
C 653 2588 653 2997 736 3387 
C 858 3929 1216 4096 1466 4096 
C 1728 4096 2067 3923 2189 3400 
C 2272 3036 2278 2607 2278 2096 
C 2278 1680 2278 1169 2202 792 
C 2067 95 1690 -26 1466 -26 
z
" transform="scale(0.015625)"/>
       </defs>
       <use xlink:href="#CMSY10-0" transform="scale(0.996264)"/>
       <use xlink:href="#CMR17-32" transform="translate(77.487468 0) scale(0.996264)"/>
       <use xlink:href="#CMR17-30" transform="translate(123.177945 0) scale(0.996264)"/>
      </g>
     </g>
    </g>
    <g id="xtick_2">
     <g id="line2d_2">
      <g>
       <use xlink:href="#m4cd371f86f" x="115.468092" y="99.014399" style="stroke: #000000; stroke-width: 0.6"/>
      </g>
     </g>
     <g id="text_2">
      <!-- $\mathdefault{0}$ -->
      <g transform="translate(112.053848 114.700275) scale(0.14 -0.14)">
       <use xlink:href="#CMR17-30" transform="scale(0.996264)"/>
      </g>
     </g>
    </g>
    <g id="xtick_3">
     <g id="line2d_3">
      <g>
       <use xlink:href="#m4cd371f86f" x="186.131511" y="99.014399" style="stroke: #000000; stroke-width: 0.6"/>
      </g>
     </g>
     <g id="text_3">
      <!-- $\mathdefault{20}$ -->
      <g transform="translate(179.303023 114.700275) scale(0.14 -0.14)">
       <use xlink:href="#CMR17-32" transform="scale(0.996264)"/>
       <use xlink:href="#CMR17-30" transform="translate(45.690477 0) scale(0.996264)"/>
      </g>
     </g>
    </g>
    <g id="text_4">
     <!-- dew point (Celcius degrees) -->
     <g transform="translate(33.070996 131.873076) scale(0.14 -0.14)">
      <defs>
       <path id="CMR17-64" d="M 1869 4326 
L 1869 4160 
C 2246 4160 2304 4122 2304 3820 
L 2304 2345 
C 2278 2377 2016 2790 1498 2790 
C 845 2790 211 2208 211 1364 
C 211 525 806 -64 1434 -64 
C 1978 -64 2259 337 2291 380 
L 2291 -63 
L 3066 -63 
L 3066 128 
C 2688 128 2630 166 2630 473 
L 2630 4396 
L 1869 4326 
z
M 2291 755 
C 2291 563 2176 390 2029 262 
C 1811 70 1594 38 1472 38 
C 1286 38 621 134 621 1356 
C 621 2612 1363 2688 1530 2688 
C 1824 2688 2061 2522 2208 2291 
C 2291 2157 2291 2138 2291 2023 
L 2291 755 
z
" transform="scale(0.015625)"/>
       <path id="CMR17-65" d="M 2438 1472 
C 2464 1498 2464 1511 2464 1576 
C 2464 2238 2118 2816 1389 2816 
C 710 2816 173 2169 173 1383 
C 173 551 781 -64 1459 -64 
C 2176 -64 2458 607 2458 740 
C 2458 784 2419 784 2406 784 
C 2362 784 2355 771 2330 696 
C 2189 265 1837 51 1504 51 
C 1229 51 954 203 781 480 
C 582 803 582 1176 582 1472 
L 2438 1472 
z
M 589 1568 
C 634 2505 1126 2714 1382 2714 
C 1818 2714 2112 2297 2118 1568 
L 589 1568 
z
" transform="scale(0.015625)"/>
       <path id="CMR17-77" d="M 3725 2183 
C 3853 2560 4109 2560 4205 2560 
L 4205 2732 
C 4077 2732 3949 2732 3821 2732 
C 3699 2732 3424 2732 3315 2738 
L 3315 2560 
C 3514 2560 3622 2445 3622 2286 
C 3622 2241 3610 2184 3597 2140 
L 2995 407 
L 2342 2275 
C 2330 2319 2310 2370 2310 2395 
C 2310 2560 2528 2560 2630 2560 
L 2630 2738 
C 2483 2732 2214 2732 2061 2732 
C 1901 2732 1734 2732 1587 2738 
L 1587 2560 
C 1939 2560 1939 2547 2074 2149 
L 1485 451 
L 851 2281 
C 819 2363 819 2376 819 2395 
C 819 2560 1037 2560 1139 2560 
L 1139 2738 
C 986 2732 717 2732 557 2732 
C 416 2732 198 2732 64 2738 
L 64 2560 
C 346 2560 416 2541 486 2331 
L 1274 49 
C 1299 -33 1318 -52 1370 -52 
C 1414 -52 1440 -39 1472 56 
L 2131 1980 
L 2797 56 
C 2829 -39 2854 -52 2899 -52 
C 2950 -52 2970 -33 2995 50 
L 3725 2183 
z
" transform="scale(0.015625)"/>
       <path id="CMR17-70" d="M 1408 -1063 
C 998 -1063 973 -1037 973 -789 
L 973 402 
C 1158 134 1427 -38 1766 -38 
C 2406 -38 3053 523 3053 1388 
C 3053 2191 2496 2802 1837 2802 
C 1453 2802 1139 2592 960 2338 
L 960 2802 
L 198 2732 
L 198 2567 
C 576 2567 634 2528 634 2223 
L 634 -789 
C 634 -1031 608 -1063 198 -1063 
L 198 -1228 
C 352 -1216 634 -1216 800 -1216 
C 966 -1216 1254 -1216 1408 -1228 
L 1408 -1063 
z
M 973 2012 
C 973 2102 973 2235 1222 2471 
C 1254 2497 1472 2688 1792 2688 
C 2259 2688 2643 2108 2643 1382 
C 2643 656 2234 64 1728 64 
C 1498 64 1248 172 1056 472 
C 973 612 973 650 973 752 
L 973 2012 
z
" transform="scale(0.015625)"/>
       <path id="CMR17-6f" d="M 2758 1356 
C 2758 2176 2163 2816 1466 2816 
C 768 2816 173 2176 173 1356 
C 173 551 768 -64 1466 -64 
C 2163 -64 2758 551 2758 1356 
z
M 1466 51 
C 1165 51 909 230 762 480 
C 602 767 582 1126 582 1408 
C 582 1677 595 2010 762 2298 
C 890 2509 1139 2714 1466 2714 
C 1754 2714 1997 2554 2150 2330 
C 2349 2029 2349 1607 2349 1408 
C 2349 1158 2336 775 2163 467 
C 1984 173 1709 51 1466 51 
z
" transform="scale(0.015625)"/>
       <path id="CMR17-69" d="M 992 3909 
C 992 4049 877 4170 730 4170 
C 589 4170 467 4056 467 3909 
C 467 3769 582 3648 730 3648 
C 870 3648 992 3763 992 3909 
z
M 243 2706 
L 243 2541 
C 602 2541 653 2502 653 2197 
L 653 427 
C 653 184 627 153 218 153 
L 218 -13 
C 371 0 646 0 806 0 
C 960 0 1222 0 1370 -13 
L 1370 153 
C 992 153 979 191 979 420 
L 979 2776 
L 243 2706 
z
" transform="scale(0.015625)"/>
       <path id="CMR17-6e" d="M 2656 1933 
C 2656 2259 2592 2790 1837 2790 
C 1331 2790 1069 2400 973 2144 
L 966 2144 
L 966 2790 
L 211 2720 
L 211 2554 
C 589 2554 646 2515 646 2208 
L 646 428 
C 646 184 621 153 211 153 
L 211 -13 
C 365 0 646 0 813 0 
C 979 0 1267 0 1421 -13 
L 1421 153 
C 1011 153 986 178 986 428 
L 986 1658 
C 986 2247 1344 2688 1792 2688 
C 2266 2688 2317 2266 2317 1958 
L 2317 428 
C 2317 184 2291 153 1882 153 
L 1882 -13 
C 2035 0 2317 0 2483 0 
C 2650 0 2938 0 3091 -13 
L 3091 153 
C 2682 153 2656 178 2656 428 
L 2656 1933 
z
" transform="scale(0.015625)"/>
       <path id="CMR17-74" d="M 966 2560 
L 1862 2560 
L 1862 2725 
L 966 2725 
L 966 3904 
L 851 3904 
C 838 3245 614 2668 70 2668 
L 70 2560 
L 627 2560 
L 627 771 
C 627 650 627 -64 1370 -64 
C 1747 -64 1965 306 1965 777 
L 1965 1140 
L 1850 1140 
L 1850 783 
C 1850 344 1677 51 1408 51 
C 1222 51 966 178 966 758 
L 966 2560 
z
" transform="scale(0.015625)"/>
       <path id="CMR17-28" d="M 1958 -1561 
C 1958 -1555 1958 -1542 1939 -1523 
C 1645 -1224 858 -407 858 1581 
C 858 3569 1632 4379 1946 4697 
C 1946 4704 1958 4717 1958 4736 
C 1958 4755 1939 4768 1914 4768 
C 1843 4768 1299 4296 986 3594 
C 666 2887 576 2199 576 1588 
C 576 1128 621 351 1005 -471 
C 1312 -1135 1837 -1600 1914 -1600 
C 1946 -1600 1958 -1587 1958 -1561 
z
" transform="scale(0.015625)"/>
       <path id="CMR17-43" d="M 3974 4289 
C 3974 4403 3968 4410 3930 4410 
C 3904 4410 3898 4403 3853 4327 
L 3571 3792 
C 3258 4187 2874 4416 2381 4416 
C 1286 4416 294 3456 294 2148 
C 294 826 1286 -128 2387 -128 
C 3366 -128 3974 730 3974 1461 
C 3974 1524 3974 1550 3917 1550 
C 3866 1550 3866 1531 3859 1474 
C 3808 585 3168 38 2477 38 
C 1824 38 781 495 781 2147 
C 781 3805 1843 4250 2464 4250 
C 3187 4250 3712 3628 3834 2745 
C 3846 2668 3846 2655 3904 2655 
C 3974 2655 3974 2668 3974 2783 
L 3974 4289 
z
" transform="scale(0.015625)"/>
       <path id="CMR17-6c" d="M 979 4396 
L 218 4326 
L 218 4160 
C 595 4160 653 4122 653 3817 
L 653 426 
C 653 184 627 153 218 153 
L 218 -13 
C 371 0 653 0 813 0 
C 979 0 1261 0 1414 -13 
L 1414 153 
C 1005 153 979 178 979 426 
L 979 4396 
z
" transform="scale(0.015625)"/>
       <path id="CMR17-63" d="M 2234 2240 
C 2112 2240 1933 2240 1933 2017 
C 1933 1838 2080 1787 2163 1787 
C 2208 1787 2394 1807 2394 2024 
C 2394 2467 1958 2803 1466 2803 
C 787 2803 211 2178 211 1363 
C 211 516 813 -64 1466 -64 
C 2259 -64 2458 677 2458 748 
C 2458 774 2451 793 2406 793 
C 2362 793 2355 787 2330 703 
C 2163 180 1798 51 1523 51 
C 1114 51 621 427 621 1369 
C 621 2338 1094 2688 1472 2688 
C 1722 2688 2093 2573 2234 2240 
z
" transform="scale(0.015625)"/>
       <path id="CMR17-75" d="M 1882 2693 
L 1882 2528 
C 2259 2528 2317 2489 2317 2186 
L 2317 1032 
C 2317 500 2029 38 1555 38 
C 1030 38 986 348 986 678 
L 986 2763 
L 211 2693 
L 211 2528 
C 467 2528 640 2528 646 2274 
L 646 1058 
C 646 633 646 361 813 183 
C 896 101 1056 -64 1517 -64 
C 2061 -64 2272 377 2323 506 
L 2330 506 
L 2330 -63 
L 3091 -63 
L 3091 128 
C 2714 128 2656 166 2656 473 
L 2656 2763 
L 1882 2693 
z
" transform="scale(0.015625)"/>
       <path id="CMR17-73" d="M 1978 2697 
C 1978 2813 1971 2819 1933 2819 
C 1907 2819 1901 2813 1824 2717 
C 1805 2691 1747 2626 1728 2601 
C 1523 2819 1235 2819 1126 2819 
C 416 2819 160 2447 160 2076 
C 160 1498 813 1365 998 1325 
C 1402 1243 1542 1217 1677 1101 
C 1760 1025 1901 884 1901 654 
C 1901 384 1747 38 1158 38 
C 602 38 403 460 288 1021 
C 269 1110 269 1117 218 1117 
C 166 1117 160 1110 160 983 
L 160 63 
C 160 -51 166 -58 205 -58 
C 237 -58 243 -51 275 0 
C 314 57 410 211 448 276 
C 576 103 800 -64 1158 -64 
C 1792 -64 2131 283 2131 784 
C 2131 1112 1958 1285 1875 1362 
C 1683 1561 1459 1606 1190 1657 
C 838 1735 390 1825 390 2217 
C 390 2383 480 2737 1126 2737 
C 1811 2737 1850 2094 1862 1888 
C 1869 1856 1901 1849 1920 1849 
C 1978 1849 1978 1869 1978 1978 
L 1978 2697 
z
" transform="scale(0.015625)"/>
       <path id="CMR17-67" d="M 710 1164 
C 832 1068 1043 960 1299 960 
C 1805 960 2240 1357 2240 1888 
C 2240 2054 2189 2310 1997 2509 
C 2176 2692 2438 2752 2586 2752 
C 2611 2752 2650 2752 2682 2734 
C 2656 2728 2598 2703 2598 2605 
C 2598 2527 2656 2471 2739 2471 
C 2835 2471 2886 2533 2886 2614 
C 2886 2731 2790 2854 2586 2854 
C 2330 2854 2106 2738 1926 2580 
C 1734 2753 1504 2816 1299 2816 
C 794 2816 358 2419 358 1888 
C 358 1522 570 1292 634 1228 
C 442 1004 442 743 442 711 
C 442 545 506 302 723 168 
C 390 85 128 -169 128 -486 
C 128 -943 736 -1280 1466 -1280 
C 2170 -1280 2803 -956 2803 -479 
C 2803 384 1856 384 1363 384 
C 1216 384 954 384 922 391 
C 723 423 589 602 589 826 
C 589 883 589 1024 710 1164 
z
M 1299 1068 
C 736 1068 736 1760 736 1889 
C 736 2016 736 2708 1299 2708 
C 1862 2708 1862 2016 1862 1889 
C 1862 1760 1862 1068 1299 1068 
z
M 1466 -1171 
C 826 -1171 384 -835 384 -486 
C 384 -289 493 -105 634 -4 
C 794 104 858 104 1293 104 
C 1818 104 2547 104 2547 -486 
C 2547 -835 2106 -1171 1466 -1171 
z
" transform="scale(0.015625)"/>
       <path id="CMR17-72" d="M 960 1497 
C 960 2112 1222 2688 1702 2688 
C 1747 2688 1792 2682 1837 2662 
C 1837 2662 1696 2617 1696 2452 
C 1696 2298 1818 2234 1914 2234 
C 1990 2234 2131 2279 2131 2458 
C 2131 2663 1926 2790 1709 2790 
C 1222 2790 1011 2317 947 2093 
L 941 2093 
L 941 2790 
L 198 2720 
L 198 2554 
C 576 2554 634 2515 634 2208 
L 634 428 
C 634 184 608 153 198 153 
L 198 -13 
C 352 0 646 0 813 0 
C 998 0 1325 0 1498 -13 
L 1498 153 
C 1037 153 960 153 960 440 
L 960 1497 
z
" transform="scale(0.015625)"/>
       <path id="CMR17-29" d="M 1683 1581 
C 1683 2040 1638 2817 1254 3639 
C 947 4303 422 4768 346 4768 
C 326 4768 301 4761 301 4729 
C 301 4717 307 4710 314 4697 
C 621 4378 1402 3568 1402 1584 
C 1402 -407 627 -1217 314 -1537 
C 307 -1549 301 -1556 301 -1568 
C 301 -1600 326 -1600 346 -1600 
C 416 -1600 960 -1128 1274 -426 
C 1594 281 1683 969 1683 1581 
z
" transform="scale(0.015625)"/>
      </defs>
      <use xlink:href="#CMR17-64" transform="scale(0.996264)"/>
      <use xlink:href="#CMR17-65" transform="translate(50.89537 0) scale(0.996264)"/>
      <use xlink:href="#CMR17-77" transform="translate(91.38103 0) scale(0.996264)"/>
      <use xlink:href="#CMR17-70" transform="translate(187.966877 0) scale(0.996264)"/>
      <use xlink:href="#CMR17-6f" transform="translate(241.464686 0) scale(0.996264)"/>
      <use xlink:href="#CMR17-69" transform="translate(287.155163 0) scale(0.996264)"/>
      <use xlink:href="#CMR17-6e" transform="translate(312.026221 0) scale(0.996264)"/>
      <use xlink:href="#CMR17-74" transform="translate(360.319137 0) scale(0.996264)"/>
      <use xlink:href="#CMR17-28" transform="translate(425.675871 0) scale(0.996264)"/>
      <use xlink:href="#CMR17-43" transform="translate(460.956639 0) scale(0.996264)"/>
      <use xlink:href="#CMR17-65" transform="translate(527.46652 0) scale(0.996264)"/>
      <use xlink:href="#CMR17-6c" transform="translate(567.95218 0) scale(0.996264)"/>
      <use xlink:href="#CMR17-63" transform="translate(592.823239 0) scale(0.996264)"/>
      <use xlink:href="#CMR17-69" transform="translate(633.308899 0) scale(0.996264)"/>
      <use xlink:href="#CMR17-75" transform="translate(658.179957 0) scale(0.996264)"/>
      <use xlink:href="#CMR17-73" transform="translate(709.075327 0) scale(0.996264)"/>
      <use xlink:href="#CMR17-64" transform="translate(774.952631 0) scale(0.996264)"/>
      <use xlink:href="#CMR17-65" transform="translate(825.848001 0) scale(0.996264)"/>
      <use xlink:href="#CMR17-67" transform="translate(866.333661 0) scale(0.996264)"/>
      <use xlink:href="#CMR17-72" transform="translate(912.024139 0) scale(0.996264)"/>
      <use xlink:href="#CMR17-65" transform="translate(947.304906 0) scale(0.996264)"/>
      <use xlink:href="#CMR17-65" transform="translate(987.790567 0) scale(0.996264)"/>
      <use xlink:href="#CMR17-73" transform="translate(1028.276227 0) scale(0.996264)"/>
      <use xlink:href="#CMR17-29" transform="translate(1064.077565 0) scale(0.996264)"/>
     </g>
    </g>
   </g>
   <g id="matplotlib.axis_2">
    <g id="ytick_1">
     <g id="line2d_4">
      <defs>
       <path id="m56f3a9ced1" d="M 0 0 
L -2.5 0 
" style="stroke: #000000; stroke-width: 0.6"/>
      </defs>
      <g>
       <use xlink:href="#m56f3a9ced1" x="44.804673" y="99.014399" style="stroke: #000000; stroke-width: 0.6"/>
      </g>
     </g>
     <g id="text_5">
      <!-- $\mathdefault{22}$ -->
      <g transform="translate(25.147696 103.857337) scale(0.14 -0.14)">
       <use xlink:href="#CMR17-32" transform="scale(0.996264)"/>
       <use xlink:href="#CMR17-32" transform="translate(45.690477 0) scale(0.996264)"/>
      </g>
     </g>
    </g>
    <g id="ytick_2">
     <g id="line2d_5">
      <g>
       <use xlink:href="#m56f3a9ced1" x="44.804673" y="70.023912" style="stroke: #000000; stroke-width: 0.6"/>
      </g>
     </g>
     <g id="text_6">
      <!-- $\mathdefault{24}$ -->
      <g transform="translate(25.147696 74.86685) scale(0.14 -0.14)">
       <defs>
        <path id="CMR17-34" d="M 2150 4122 
C 2150 4256 2144 4256 2029 4256 
L 128 1254 
L 128 1088 
L 1779 1088 
L 1779 457 
C 1779 224 1766 160 1318 160 
L 1197 160 
L 1197 0 
C 1402 0 1747 0 1965 0 
C 2182 0 2528 0 2733 0 
L 2733 160 
L 2611 160 
C 2163 160 2150 224 2150 457 
L 2150 1088 
L 2803 1088 
L 2803 1254 
L 2150 1254 
L 2150 4122 
z
M 1798 3703 
L 1798 1254 
L 256 1254 
L 1798 3703 
z
" transform="scale(0.015625)"/>
       </defs>
       <use xlink:href="#CMR17-32" transform="scale(0.996264)"/>
       <use xlink:href="#CMR17-34" transform="translate(45.690477 0) scale(0.996264)"/>
      </g>
     </g>
    </g>
    <g id="ytick_3">
     <g id="line2d_6">
      <g>
       <use xlink:href="#m56f3a9ced1" x="44.804673" y="41.033425" style="stroke: #000000; stroke-width: 0.6"/>
      </g>
     </g>
     <g id="text_7">
      <!-- $\mathdefault{26}$ -->
      <g transform="translate(25.147696 45.876363) scale(0.14 -0.14)">
       <defs>
        <path id="CMR17-36" d="M 678 2176 
C 678 3690 1395 4032 1811 4032 
C 1946 4032 2272 4009 2400 3776 
C 2298 3776 2106 3776 2106 3553 
C 2106 3381 2246 3323 2336 3323 
C 2394 3323 2566 3348 2566 3560 
C 2566 3954 2246 4179 1805 4179 
C 1043 4179 243 3390 243 1984 
C 243 253 966 -128 1478 -128 
C 2099 -128 2688 427 2688 1283 
C 2688 2081 2170 2662 1517 2662 
C 1126 2662 838 2407 678 1960 
L 678 2176 
z
M 1478 25 
C 691 25 691 1200 691 1436 
C 691 1896 909 2560 1504 2560 
C 1613 2560 1926 2560 2138 2120 
C 2253 1870 2253 1609 2253 1289 
C 2253 944 2253 690 2118 434 
C 1978 171 1773 25 1478 25 
z
" transform="scale(0.015625)"/>
       </defs>
       <use xlink:href="#CMR17-32" transform="scale(0.996264)"/>
       <use xlink:href="#CMR17-36" transform="translate(45.690477 0) scale(0.996264)"/>
      </g>
     </g>
    </g>
    <g id="ytick_4">
     <g id="line2d_7">
      <g>
       <use xlink:href="#m56f3a9ced1" x="44.804673" y="12.042938" style="stroke: #000000; stroke-width: 0.6"/>
      </g>
     </g>
     <g id="text_8">
      <!-- $\mathdefault{28}$ -->
      <g transform="translate(25.147696 16.885876) scale(0.14 -0.14)">
       <defs>
        <path id="CMR17-38" d="M 1741 2264 
C 2144 2467 2554 2773 2554 3263 
C 2554 3841 1990 4179 1472 4179 
C 890 4179 378 3759 378 3180 
C 378 3021 416 2747 666 2505 
C 730 2442 998 2251 1171 2130 
C 883 1983 211 1634 211 934 
C 211 279 838 -128 1459 -128 
C 2144 -128 2720 362 2720 1010 
C 2720 1590 2330 1857 2074 2029 
L 1741 2264 
z
M 902 2822 
C 851 2854 595 3051 595 3351 
C 595 3739 998 4032 1459 4032 
C 1965 4032 2336 3676 2336 3262 
C 2336 2669 1670 2331 1638 2331 
C 1632 2331 1626 2331 1574 2370 
L 902 2822 
z
M 2080 1519 
C 2176 1449 2483 1240 2483 851 
C 2483 381 2010 25 1472 25 
C 890 25 448 438 448 940 
C 448 1443 838 1862 1280 2060 
L 2080 1519 
z
" transform="scale(0.015625)"/>
       </defs>
       <use xlink:href="#CMR17-32" transform="scale(0.996264)"/>
       <use xlink:href="#CMR17-38" transform="translate(45.690477 0) scale(0.996264)"/>
      </g>
     </g>
    </g>
    <g id="text_9">
     <!-- run time (min) -->
     <g transform="translate(17.660772 100.293205) rotate(-90) scale(0.14 -0.14)">
      <defs>
       <path id="CMR17-6d" d="M 4326 1933 
C 4326 2252 4269 2790 3507 2790 
C 3072 2790 2771 2496 2656 2151 
L 2650 2151 
C 2573 2676 2195 2790 1837 2790 
C 1331 2790 1069 2400 973 2144 
L 966 2144 
L 966 2790 
L 211 2720 
L 211 2554 
C 589 2554 646 2515 646 2208 
L 646 428 
C 646 184 621 153 211 153 
L 211 -13 
C 365 0 646 0 813 0 
C 979 0 1267 0 1421 -13 
L 1421 153 
C 1011 153 986 178 986 428 
L 986 1658 
C 986 2247 1344 2688 1792 2688 
C 2266 2688 2317 2266 2317 1958 
L 2317 428 
C 2317 184 2291 153 1882 153 
L 1882 -13 
C 2035 0 2317 0 2483 0 
C 2650 0 2938 0 3091 -13 
L 3091 153 
C 2682 153 2656 178 2656 428 
L 2656 1658 
C 2656 2247 3014 2688 3462 2688 
C 3936 2688 3987 2266 3987 1958 
L 3987 428 
C 3987 184 3962 153 3552 153 
L 3552 -13 
C 3706 0 3987 0 4154 0 
C 4320 0 4608 0 4762 -13 
L 4762 153 
C 4352 153 4326 178 4326 428 
L 4326 1933 
z
" transform="scale(0.015625)"/>
      </defs>
      <use xlink:href="#CMR17-72" transform="scale(0.996264)"/>
      <use xlink:href="#CMR17-75" transform="translate(35.280768 0) scale(0.996264)"/>
      <use xlink:href="#CMR17-6e" transform="translate(86.176138 0) scale(0.996264)"/>
      <use xlink:href="#CMR17-74" transform="translate(167.147474 0) scale(0.996264)"/>
      <use xlink:href="#CMR17-69" transform="translate(202.428242 0) scale(0.996264)"/>
      <use xlink:href="#CMR17-6d" transform="translate(227.2993 0) scale(0.996264)"/>
      <use xlink:href="#CMR17-65" transform="translate(304.21889 0) scale(0.996264)"/>
      <use xlink:href="#CMR17-28" transform="translate(374.780517 0) scale(0.996264)"/>
      <use xlink:href="#CMR17-6d" transform="translate(410.061284 0) scale(0.996264)"/>
      <use xlink:href="#CMR17-69" transform="translate(486.980874 0) scale(0.996264)"/>
      <use xlink:href="#CMR17-6e" transform="translate(511.851933 0) scale(0.996264)"/>
      <use xlink:href="#CMR17-29" transform="translate(562.747303 0) scale(0.996264)"/>
     </g>
    </g>
   </g>
   <g id="line2d_8">
    <path d="M 44.804673 53.478402 
L 51.318736 56.408737 
L 57.832799 59.092888 
L 64.346861 61.530855 
L 70.860924 63.722638 
L 77.091767 65.588764 
L 83.322609 67.229649 
L 89.553452 68.645291 
L 95.784294 69.835691 
L 102.015137 70.800849 
L 108.245979 71.540765 
L 114.476822 72.055438 
L 120.707665 72.34487 
L 126.938507 72.409059 
L 133.16935 72.248006 
L 139.400192 71.861711 
L 145.631035 71.250174 
L 151.861877 70.413395 
L 158.09272 69.351373 
L 164.323562 68.064109 
L 170.554405 66.551604 
L 176.785248 64.813856 
L 183.01609 62.850865 
L 186.131511 61.784904 
L 186.131511 61.784904 
" clip-path="url(#pab7b719454)" style="fill: none; stroke: #c70303; stroke-width: 2; stroke-linecap: square"/>
   </g>
   <g id="line2d_9">
    <defs>
     <path id="m1945a5daba" d="M 0 5 
C 1.326016 5 2.597899 4.473168 3.535534 3.535534 
C 4.473168 2.597899 5 1.326016 5 0 
C 5 -1.326016 4.473168 -2.597899 3.535534 -3.535534 
C 2.597899 -4.473168 1.326016 -5 0 -5 
C -1.326016 -5 -2.597899 -4.473168 -3.535534 -3.535534 
C -4.473168 -2.597899 -5 -1.326016 -5 0 
C -5 1.326016 -4.473168 2.597899 -3.535534 3.535534 
C -2.597899 4.473168 -1.326016 5 0 5 
z
" style="stroke: #c70303"/>
    </defs>
    <g clip-path="url(#pab7b719454)">
     <use xlink:href="#m1945a5daba" x="125.522407" y="72.414249" style="fill: #c70303; stroke: #c70303"/>
    </g>
   </g>
   <g id="patch_3">
    <path d="M 44.804673 99.014399 
L 44.804673 12.042938 
" style="fill: none; stroke: #000000; stroke-width: 0.6; stroke-linejoin: miter; stroke-linecap: square"/>
   </g>
   <g id="patch_4">
    <path d="M 44.804673 99.014399 
L 186.131511 99.014399 
" style="fill: none; stroke: #000000; stroke-width: 0.6; stroke-linejoin: miter; stroke-linecap: square"/>
   </g>
  </g>
 </g>
 <defs>
  <clipPath id="pab7b719454">
   <rect x="44.804673" y="12.042938" width="141.326838" height="86.971461"/>
  </clipPath>
 </defs>
</svg>
