<?xml version="1.0" encoding="utf-8" standalone="no"?>
<!DOCTYPE svg PUBLIC "-//W3C//DTD SVG 1.1//EN"
  "http://www.w3.org/Graphics/SVG/1.1/DTD/svg11.dtd">
<svg xmlns:xlink="http://www.w3.org/1999/xlink" width="200.16pt" height="142.56pt" viewBox="0 0 200.16 142.56" xmlns="http://www.w3.org/2000/svg" version="1.1">
 <metadata>
  <rdf:RDF xmlns:dc="http://purl.org/dc/elements/1.1/" xmlns:cc="http://creativecommons.org/ns#" xmlns:rdf="http://www.w3.org/1999/02/22-rdf-syntax-ns#">
   <cc:Work>
    <dc:type rdf:resource="http://purl.org/dc/dcmitype/StillImage"/>
    <dc:date>2025-08-12T16:07:15.318107</dc:date>
    <dc:format>image/svg+xml</dc:format>
    <dc:creator>
     <cc:Agent>
      <dc:title>Matplotlib v3.10.3, https://matplotlib.org/</dc:title>
     </cc:Agent>
    </dc:creator>
   </cc:Work>
  </rdf:RDF>
 </metadata>
 <defs>
  <style type="text/css">*{stroke-linejoin: round; stroke-linecap: butt}</style>
 </defs>
 <g id="figure_1">
  <g id="patch_1">
   <path d="M 0 142.56 
L 200.16 142.56 
L 200.16 0 
L 0 0 
L 0 142.56 
z
" style="fill: none"/>
  </g>
  <g id="axes_1">
   <g id="patch_2">
    <path d="M 44.804673 99.014399 
L 186.131511 99.014399 
L 186.131511 12.042938 
L 44.804673 12.042938 
L 44.804673 99.014399 
z
" style="fill: none"/>
   </g>
   <g id="FillBetweenPolyCollection_1">
    <defs>
     <path id="m4602235909" d="M 44.804673 -113.476192 
L 44.804673 -73.933742 
L 45.087894 -73.748597 
L 45.371114 -73.564426 
L 45.654334 -73.381231 
L 45.937554 -73.199009 
L 46.220774 -73.017762 
L 46.503994 -72.837489 
L 46.787214 -72.658189 
L 47.070434 -72.479863 
L 47.353654 -72.30251 
L 47.636875 -72.12613 
L 47.920095 -71.950723 
L 48.203315 -71.776287 
L 48.486535 -71.602824 
L 48.769755 -71.430333 
L 49.052975 -71.258813 
L 49.336195 -71.088264 
L 49.619415 -70.918685 
L 49.902635 -70.750078 
L 50.185856 -70.58244 
L 50.469076 -70.415773 
L 50.752296 -70.250075 
L 51.035516 -70.085346 
L 51.318736 -69.921586 
L 51.601956 -69.758795 
L 51.885176 -69.596972 
L 52.168396 -69.436117 
L 52.451617 -69.276229 
L 52.734837 -69.117309 
L 53.018057 -68.959355 
L 53.301277 -68.802368 
L 53.584497 -68.646348 
L 53.867717 -68.491293 
L 54.150937 -68.337203 
L 54.434157 -68.184078 
L 54.717377 -68.031918 
L 55.000598 -67.880723 
L 55.283818 -67.730491 
L 55.567038 -67.581222 
L 55.850258 -67.432917 
L 56.133478 -67.285574 
L 56.416698 -67.139193 
L 56.699918 -66.993774 
L 56.983138 -66.849317 
L 57.266359 -66.70582 
L 57.549579 -66.563284 
L 57.832799 -66.421707 
L 58.116019 -66.281091 
L 58.399239 -66.141433 
L 58.682459 -66.002734 
L 58.965679 -65.864993 
L 59.248899 -65.72821 
L 59.532119 -65.592384 
L 59.81534 -65.457514 
L 60.09856 -65.323601 
L 60.38178 -65.190644 
L 60.665 -65.058641 
L 60.94822 -64.927593 
L 61.23144 -64.797499 
L 61.51466 -64.668359 
L 61.79788 -64.540171 
L 62.0811 -64.412936 
L 62.364321 -64.286653 
L 62.647541 -64.161321 
L 62.930761 -64.03694 
L 63.213981 -63.913509 
L 63.497201 -63.791027 
L 63.780421 -63.669494 
L 64.063641 -63.548909 
L 64.346861 -63.429272 
L 64.630082 -63.310581 
L 64.913302 -63.192837 
L 65.196522 -63.076039 
L 65.479742 -62.960186 
L 65.762962 -62.845276 
L 66.046182 -62.731311 
L 66.329402 -62.618288 
L 66.612622 -62.506207 
L 66.895842 -62.395068 
L 67.179063 -62.28487 
L 67.462283 -62.175611 
L 67.745503 -62.067291 
L 68.028723 -61.95991 
L 68.311943 -61.853467 
L 68.595163 -61.74796 
L 68.878383 -61.643389 
L 69.161603 -61.539754 
L 69.444824 -61.437052 
L 69.728044 -61.335285 
L 70.011264 -61.234449 
L 70.294484 -61.134546 
L 70.577704 -61.035573 
L 70.860924 -60.93753 
L 71.144144 -60.840416 
L 71.427364 -60.74423 
L 71.710584 -60.648971 
L 71.993805 -60.554639 
L 72.277025 -60.461231 
L 72.560245 -60.368748 
L 72.843465 -60.277187 
L 73.126685 -60.186549 
L 73.409905 -60.096832 
L 73.693125 -60.008034 
L 73.976345 -59.920156 
L 74.259565 -59.833195 
L 74.542786 -59.747151 
L 74.826006 -59.662022 
L 75.109226 -59.577807 
L 75.392446 -59.494506 
L 75.675666 -59.412116 
L 75.958886 -59.330637 
L 76.242106 -59.250068 
L 76.525326 -59.170406 
L 76.808547 -59.091652 
L 77.091767 -59.013803 
L 77.374987 -58.936858 
L 77.658207 -58.860816 
L 77.941427 -58.785676 
L 78.224647 -58.711435 
L 78.507867 -58.638093 
L 78.791087 -58.565649 
L 79.074307 -58.4941 
L 79.357528 -58.423445 
L 79.640748 -58.353683 
L 79.923968 -58.284812 
L 80.207188 -58.216831 
L 80.490408 -58.149737 
L 80.773628 -58.08353 
L 81.056848 -58.018207 
L 81.340068 -57.953767 
L 81.623288 -57.890209 
L 81.906509 -57.827529 
L 82.189729 -57.765728 
L 82.472949 -57.704802 
L 82.756169 -57.64475 
L 83.039389 -57.58557 
L 83.322609 -57.52726 
L 83.605829 -57.469818 
L 83.889049 -57.413243 
L 84.17227 -57.357531 
L 84.45549 -57.302682 
L 84.73871 -57.248693 
L 85.02193 -57.195561 
L 85.30515 -57.143286 
L 85.58837 -57.091863 
L 85.87159 -57.041292 
L 86.15481 -56.99157 
L 86.43803 -56.942694 
L 86.721251 -56.894663 
L 87.004471 -56.847473 
L 87.287691 -56.801123 
L 87.570911 -56.75561 
L 87.854131 -56.710931 
L 88.137351 -56.667083 
L 88.420571 -56.624065 
L 88.703791 -56.581873 
L 88.987012 -56.540505 
L 89.270232 -56.499957 
L 89.553452 -56.460228 
L 89.836672 -56.421314 
L 90.119892 -56.383212 
L 90.403112 -56.345919 
L 90.686332 -56.309432 
L 90.969552 -56.273749 
L 91.252772 -56.238866 
L 91.535993 -56.204779 
L 91.819213 -56.171486 
L 92.102433 -56.138983 
L 92.385653 -56.107267 
L 92.668873 -56.076335 
L 92.952093 -56.046182 
L 93.235313 -56.016806 
L 93.518533 -55.988203 
L 93.801753 -55.960369 
L 94.084974 -55.9333 
L 94.368194 -55.906994 
L 94.651414 -55.881444 
L 94.934634 -55.856649 
L 95.217854 -55.832604 
L 95.501074 -55.809305 
L 95.784294 -55.786747 
L 96.067514 -55.764928 
L 96.350735 -55.743841 
L 96.633955 -55.723484 
L 96.917175 -55.703851 
L 97.200395 -55.684939 
L 97.483615 -55.666742 
L 97.766835 -55.649257 
L 98.050055 -55.632478 
L 98.333275 -55.616401 
L 98.616495 -55.601021 
L 98.899716 -55.586333 
L 99.182936 -55.572333 
L 99.466156 -55.559015 
L 99.749376 -55.546373 
L 100.032596 -55.534404 
L 100.315816 -55.523102 
L 100.599036 -55.512461 
L 100.882256 -55.502477 
L 101.165477 -55.493143 
L 101.448697 -55.484454 
L 101.731917 -55.476405 
L 102.015137 -55.468991 
L 102.298357 -55.462204 
L 102.581577 -55.456041 
L 102.864797 -55.450494 
L 103.148017 -55.445558 
L 103.431237 -55.441227 
L 103.714458 -55.437495 
L 103.997678 -55.434356 
L 104.280898 -55.431804 
L 104.564118 -55.429832 
L 104.847338 -55.428435 
L 105.130558 -55.427605 
L 105.413778 -55.427338 
L 105.696998 -55.427626 
L 105.980218 -55.428462 
L 106.263439 -55.429841 
L 106.546659 -55.431756 
L 106.829879 -55.434201 
L 107.113099 -55.437168 
L 107.396319 -55.440651 
L 107.679539 -55.444644 
L 107.962759 -55.44914 
L 108.245979 -55.454132 
L 108.5292 -55.459613 
L 108.81242 -55.465577 
L 109.09564 -55.472018 
L 109.37886 -55.478927 
L 109.66208 -55.4863 
L 109.9453 -55.494128 
L 110.22852 -55.502406 
L 110.51174 -55.511127 
L 110.79496 -55.520283 
L 111.078181 -55.529869 
L 111.361401 -55.539878 
L 111.644621 -55.550304 
L 111.927841 -55.561139 
L 112.211061 -55.572378 
L 112.494281 -55.584015 
L 112.777501 -55.596042 
L 113.060721 -55.608454 
L 113.343942 -55.621245 
L 113.627162 -55.634409 
L 113.910382 -55.647939 
L 114.193602 -55.661831 
L 114.476822 -55.676078 
L 114.760042 -55.690675 
L 115.043262 -55.705616 
L 115.326482 -55.720896 
L 115.609702 -55.73651 
L 115.892923 -55.752453 
L 116.176143 -55.76872 
L 116.459363 -55.785307 
L 116.742583 -55.802208 
L 117.025803 -55.81942 
L 117.309023 -55.836939 
L 117.592243 -55.85476 
L 117.875463 -55.872879 
L 118.158683 -55.891294 
L 118.441904 -55.91 
L 118.725124 -55.928995 
L 119.008344 -55.948275 
L 119.291564 -55.967839 
L 119.574784 -55.987683 
L 119.858004 -56.007805 
L 120.141224 -56.028203 
L 120.424444 -56.048876 
L 120.707665 -56.069821 
L 120.990885 -56.091038 
L 121.274105 -56.112526 
L 121.557325 -56.134283 
L 121.840545 -56.156309 
L 122.123765 -56.178604 
L 122.406985 -56.201168 
L 122.690205 -56.224001 
L 122.973425 -56.247103 
L 123.256646 -56.270475 
L 123.539866 -56.294118 
L 123.823086 -56.318033 
L 124.106306 -56.342222 
L 124.389526 -56.366686 
L 124.672746 -56.391428 
L 124.955966 -56.416448 
L 125.239186 -56.441751 
L 125.522407 -56.467337 
L 125.805627 -56.493211 
L 126.088847 -56.519375 
L 126.372067 -56.545832 
L 126.655287 -56.572586 
L 126.938507 -56.59964 
L 127.221727 -56.626999 
L 127.504947 -56.654667 
L 127.788167 -56.682647 
L 128.071388 -56.710944 
L 128.354608 -56.739563 
L 128.637828 -56.768509 
L 128.921048 -56.797786 
L 129.204268 -56.8274 
L 129.487488 -56.857355 
L 129.770708 -56.887657 
L 130.053928 -56.918312 
L 130.337148 -56.949326 
L 130.620369 -56.980703 
L 130.903589 -57.01245 
L 131.186809 -57.044573 
L 131.470029 -57.077077 
L 131.753249 -57.10997 
L 132.036469 -57.143257 
L 132.319689 -57.176944 
L 132.602909 -57.211038 
L 132.88613 -57.245545 
L 133.16935 -57.280472 
L 133.45257 -57.315826 
L 133.73579 -57.351612 
L 134.01901 -57.387837 
L 134.30223 -57.424509 
L 134.58545 -57.461633 
L 134.86867 -57.499217 
L 135.15189 -57.537267 
L 135.435111 -57.575789 
L 135.718331 -57.614791 
L 136.001551 -57.654279 
L 136.284771 -57.694261 
L 136.567991 -57.734741 
L 136.851211 -57.775728 
L 137.134431 -57.817228 
L 137.417651 -57.859247 
L 137.700872 -57.901793 
L 137.984092 -57.944871 
L 138.267312 -57.988488 
L 138.550532 -58.032652 
L 138.833752 -58.077367 
L 139.116972 -58.122641 
L 139.400192 -58.168479 
L 139.683412 -58.214889 
L 139.966632 -58.261877 
L 140.249853 -58.309448 
L 140.533073 -58.357609 
L 140.816293 -58.406366 
L 141.099513 -58.455725 
L 141.382733 -58.505692 
L 141.665953 -58.556273 
L 141.949173 -58.607474 
L 142.232393 -58.659301 
L 142.515613 -58.711758 
L 142.798834 -58.764853 
L 143.082054 -58.81859 
L 143.365274 -58.872975 
L 143.648494 -58.928014 
L 143.931714 -58.983711 
L 144.214934 -59.040073 
L 144.498154 -59.097104 
L 144.781374 -59.15481 
L 145.064595 -59.213196 
L 145.347815 -59.272267 
L 145.631035 -59.332027 
L 145.914255 -59.392482 
L 146.197475 -59.453636 
L 146.480695 -59.515494 
L 146.763915 -59.578062 
L 147.047135 -59.641343 
L 147.330355 -59.705342 
L 147.613576 -59.770063 
L 147.896796 -59.835512 
L 148.180016 -59.901691 
L 148.463236 -59.968607 
L 148.746456 -60.036262 
L 149.029676 -60.104661 
L 149.312896 -60.173808 
L 149.596116 -60.243706 
L 149.879337 -60.314361 
L 150.162557 -60.385776 
L 150.445777 -60.457954 
L 150.728997 -60.530899 
L 151.012217 -60.604616 
L 151.295437 -60.679107 
L 151.578657 -60.754377 
L 151.861877 -60.830428 
L 152.145097 -60.907264 
L 152.428318 -60.984889 
L 152.711538 -61.063306 
L 152.994758 -61.142518 
L 153.277978 -61.222529 
L 153.561198 -61.303341 
L 153.844418 -61.384958 
L 154.127638 -61.467382 
L 154.410858 -61.550618 
L 154.694078 -61.634667 
L 154.977299 -61.719532 
L 155.260519 -61.805218 
L 155.543739 -61.891725 
L 155.826959 -61.979058 
L 156.110179 -62.067218 
L 156.393399 -62.156208 
L 156.676619 -62.246032 
L 156.959839 -62.336691 
L 157.24306 -62.428189 
L 157.52628 -62.520527 
L 157.8095 -62.613708 
L 158.09272 -62.707734 
L 158.37594 -62.802608 
L 158.65916 -62.898332 
L 158.94238 -62.994909 
L 159.2256 -63.09234 
L 159.50882 -63.190628 
L 159.792041 -63.289775 
L 160.075261 -63.389783 
L 160.358481 -63.490654 
L 160.641701 -63.59239 
L 160.924921 -63.694994 
L 161.208141 -63.798466 
L 161.491361 -63.90281 
L 161.774581 -64.008027 
L 162.057801 -64.114118 
L 162.341022 -64.221086 
L 162.624242 -64.328933 
L 162.907462 -64.43766 
L 163.190682 -64.547269 
L 163.473902 -64.657762 
L 163.757122 -64.76914 
L 164.040342 -64.881406 
L 164.323562 -64.99456 
L 164.606783 -65.108604 
L 164.890003 -65.22354 
L 165.173223 -65.33937 
L 165.456443 -65.456095 
L 165.739663 -65.573716 
L 166.022883 -65.692235 
L 166.306103 -65.811653 
L 166.589323 -65.931972 
L 166.872543 -66.053194 
L 167.155764 -66.175318 
L 167.438984 -66.298348 
L 167.722204 -66.422284 
L 168.005424 -66.547127 
L 168.288644 -66.67288 
L 168.571864 -66.799542 
L 168.855084 -66.927115 
L 169.138304 -67.055602 
L 169.421525 -67.185001 
L 169.704745 -67.315316 
L 169.987965 -67.446546 
L 170.271185 -67.578694 
L 170.554405 -67.71176 
L 170.837625 -67.845746 
L 171.120845 -67.980652 
L 171.404065 -68.116479 
L 171.687285 -68.253229 
L 171.970506 -68.390903 
L 172.253726 -68.529501 
L 172.536946 -68.669025 
L 172.820166 -68.809476 
L 173.103386 -68.950854 
L 173.386606 -69.09316 
L 173.669826 -69.236396 
L 173.953046 -69.380562 
L 174.236266 -69.52566 
L 174.519487 -69.67169 
L 174.802707 -69.818652 
L 175.085927 -69.966549 
L 175.369147 -70.115381 
L 175.652367 -70.265148 
L 175.935587 -70.415851 
L 176.218807 -70.567491 
L 176.502027 -70.72007 
L 176.785248 -70.873587 
L 177.068468 -71.028044 
L 177.351688 -71.183441 
L 177.634908 -71.339779 
L 177.918128 -71.497059 
L 178.201348 -71.655282 
L 178.484568 -71.814447 
L 178.767788 -71.974557 
L 179.051008 -72.135611 
L 179.334229 -72.297611 
L 179.617449 -72.460556 
L 179.900669 -72.624448 
L 180.183889 -72.789287 
L 180.467109 -72.955075 
L 180.750329 -73.12181 
L 181.033549 -73.289495 
L 181.316769 -73.45813 
L 181.59999 -73.627715 
L 181.88321 -73.798251 
L 182.16643 -73.969738 
L 182.44965 -74.142178 
L 182.73287 -74.31557 
L 183.01609 -74.489915 
L 183.29931 -74.665215 
L 183.58253 -74.841468 
L 183.86575 -75.018677 
L 184.148971 -75.19684 
L 184.432191 -75.37596 
L 184.715411 -75.556036 
L 184.998631 -75.737069 
L 185.281851 -75.91906 
L 185.565071 -76.102008 
L 185.848291 -76.285915 
L 186.131511 -76.47078 
L 186.131511 -110.048173 
L 186.131511 -110.048173 
L 185.848291 -109.736672 
L 185.565071 -109.426213 
L 185.281851 -109.116796 
L 184.998631 -108.808421 
L 184.715411 -108.50109 
L 184.432191 -108.194803 
L 184.148971 -107.889559 
L 183.86575 -107.585361 
L 183.58253 -107.282207 
L 183.29931 -106.9801 
L 183.01609 -106.679039 
L 182.73287 -106.379024 
L 182.44965 -106.080057 
L 182.16643 -105.782138 
L 181.88321 -105.485267 
L 181.59999 -105.189446 
L 181.316769 -104.894674 
L 181.033549 -104.600952 
L 180.750329 -104.308282 
L 180.467109 -104.016662 
L 180.183889 -103.726095 
L 179.900669 -103.436581 
L 179.617449 -103.148119 
L 179.334229 -102.860712 
L 179.051008 -102.57436 
L 178.767788 -102.289063 
L 178.484568 -102.004822 
L 178.201348 -101.721637 
L 177.918128 -101.43951 
L 177.634908 -101.158441 
L 177.351688 -100.878431 
L 177.068468 -100.59948 
L 176.785248 -100.32159 
L 176.502027 -100.044761 
L 176.218807 -99.768994 
L 175.935587 -99.494289 
L 175.652367 -99.220648 
L 175.369147 -98.948071 
L 175.085927 -98.676559 
L 174.802707 -98.406112 
L 174.519487 -98.136733 
L 174.236266 -97.868421 
L 173.953046 -97.601178 
L 173.669826 -97.335004 
L 173.386606 -97.0699 
L 173.103386 -96.805867 
L 172.820166 -96.542907 
L 172.536946 -96.28102 
L 172.253726 -96.020206 
L 171.970506 -95.760468 
L 171.687285 -95.501805 
L 171.404065 -95.24422 
L 171.120845 -94.987712 
L 170.837625 -94.732284 
L 170.554405 -94.477936 
L 170.271185 -94.224669 
L 169.987965 -93.972484 
L 169.704745 -93.721383 
L 169.421525 -93.471367 
L 169.138304 -93.222436 
L 168.855084 -92.974592 
L 168.571864 -92.727836 
L 168.288644 -92.48217 
L 168.005424 -92.237594 
L 167.722204 -91.99411 
L 167.438984 -91.751719 
L 167.155764 -91.510422 
L 166.872543 -91.270221 
L 166.589323 -91.031117 
L 166.306103 -90.793112 
L 166.022883 -90.556207 
L 165.739663 -90.320402 
L 165.456443 -90.085701 
L 165.173223 -89.852103 
L 164.890003 -89.619612 
L 164.606783 -89.388227 
L 164.323562 -89.157951 
L 164.040342 -88.928786 
L 163.757122 -88.700732 
L 163.473902 -88.473792 
L 163.190682 -88.247967 
L 162.907462 -88.023259 
L 162.624242 -87.79967 
L 162.341022 -87.577201 
L 162.057801 -87.355853 
L 161.774581 -87.13563 
L 161.491361 -86.916533 
L 161.208141 -86.698563 
L 160.924921 -86.481723 
L 160.641701 -86.266014 
L 160.358481 -86.051439 
L 160.075261 -85.837999 
L 159.792041 -85.625696 
L 159.50882 -85.414533 
L 159.2256 -85.204512 
L 158.94238 -84.995635 
L 158.65916 -84.787903 
L 158.37594 -84.58132 
L 158.09272 -84.375888 
L 157.8095 -84.171608 
L 157.52628 -83.968483 
L 157.24306 -83.766516 
L 156.959839 -83.56571 
L 156.676619 -83.366065 
L 156.393399 -83.167586 
L 156.110179 -82.970274 
L 155.826959 -82.774132 
L 155.543739 -82.579163 
L 155.260519 -82.38537 
L 154.977299 -82.192755 
L 154.694078 -82.001322 
L 154.410858 -81.811072 
L 154.127638 -81.622009 
L 153.844418 -81.434136 
L 153.561198 -81.247456 
L 153.277978 -81.061972 
L 152.994758 -80.877687 
L 152.711538 -80.694604 
L 152.428318 -80.512726 
L 152.145097 -80.332057 
L 151.861877 -80.1526 
L 151.578657 -79.974359 
L 151.295437 -79.797336 
L 151.012217 -79.621536 
L 150.728997 -79.446961 
L 150.445777 -79.273617 
L 150.162557 -79.101505 
L 149.879337 -78.930631 
L 149.596116 -78.760997 
L 149.312896 -78.592608 
L 149.029676 -78.425468 
L 148.746456 -78.25958 
L 148.463236 -78.094949 
L 148.180016 -77.931579 
L 147.896796 -77.769474 
L 147.613576 -77.608639 
L 147.330355 -77.449077 
L 147.047135 -77.290793 
L 146.763915 -77.133791 
L 146.480695 -76.978077 
L 146.197475 -76.823654 
L 145.914255 -76.670528 
L 145.631035 -76.518703 
L 145.347815 -76.368184 
L 145.064595 -76.218976 
L 144.781374 -76.071084 
L 144.498154 -75.924512 
L 144.214934 -75.779267 
L 143.931714 -75.635352 
L 143.648494 -75.492774 
L 143.365274 -75.351538 
L 143.082054 -75.211649 
L 142.798834 -75.073112 
L 142.515613 -74.935934 
L 142.232393 -74.800119 
L 141.949173 -74.665673 
L 141.665953 -74.532603 
L 141.382733 -74.400913 
L 141.099513 -74.27061 
L 140.816293 -74.1417 
L 140.533073 -74.014188 
L 140.249853 -73.888081 
L 139.966632 -73.763385 
L 139.683412 -73.640105 
L 139.400192 -73.518249 
L 139.116972 -73.397821 
L 138.833752 -73.27883 
L 138.550532 -73.161281 
L 138.267312 -73.04518 
L 137.984092 -72.930534 
L 137.700872 -72.817349 
L 137.417651 -72.705633 
L 137.134431 -72.59539 
L 136.851211 -72.486629 
L 136.567991 -72.379356 
L 136.284771 -72.273577 
L 136.001551 -72.169299 
L 135.718331 -72.066529 
L 135.435111 -71.965273 
L 135.15189 -71.865539 
L 134.86867 -71.767332 
L 134.58545 -71.670659 
L 134.30223 -71.575528 
L 134.01901 -71.481945 
L 133.73579 -71.389916 
L 133.45257 -71.299449 
L 133.16935 -71.210549 
L 132.88613 -71.123224 
L 132.602909 -71.037479 
L 132.319689 -70.953322 
L 132.036469 -70.870759 
L 131.753249 -70.789796 
L 131.470029 -70.710439 
L 131.186809 -70.632695 
L 130.903589 -70.55657 
L 130.620369 -70.482069 
L 130.337148 -70.4092 
L 130.053928 -70.337967 
L 129.770708 -70.268376 
L 129.487488 -70.200434 
L 129.204268 -70.134144 
L 128.921048 -70.069514 
L 128.637828 -70.006548 
L 128.354608 -69.945251 
L 128.071388 -69.885628 
L 127.788167 -69.827684 
L 127.504947 -69.771424 
L 127.221727 -69.716851 
L 126.938507 -69.66397 
L 126.655287 -69.612786 
L 126.372067 -69.563302 
L 126.088847 -69.515521 
L 125.805627 -69.469448 
L 125.522407 -69.425085 
L 125.239186 -69.382436 
L 124.955966 -69.341503 
L 124.672746 -69.302289 
L 124.389526 -69.264796 
L 124.106306 -69.229027 
L 123.823086 -69.194983 
L 123.539866 -69.162666 
L 123.256646 -69.132078 
L 122.973425 -69.103219 
L 122.690205 -69.076091 
L 122.406985 -69.050694 
L 122.123765 -69.027028 
L 121.840545 -69.005095 
L 121.557325 -68.984893 
L 121.274105 -68.966423 
L 120.990885 -68.949684 
L 120.707665 -68.934675 
L 120.424444 -68.921395 
L 120.141224 -68.909843 
L 119.858004 -68.900017 
L 119.574784 -68.891915 
L 119.291564 -68.885536 
L 119.008344 -68.880877 
L 118.725124 -68.877936 
L 118.441904 -68.876709 
L 118.158683 -68.877195 
L 117.875463 -68.87939 
L 117.592243 -68.88329 
L 117.309023 -68.888892 
L 117.025803 -68.896192 
L 116.742583 -68.905187 
L 116.459363 -68.915871 
L 116.176143 -68.928241 
L 115.892923 -68.942293 
L 115.609702 -68.958021 
L 115.326482 -68.975421 
L 115.043262 -68.994487 
L 114.760042 -69.015215 
L 114.476822 -69.037599 
L 114.193602 -69.061634 
L 113.910382 -69.087314 
L 113.627162 -69.114634 
L 113.343942 -69.143587 
L 113.060721 -69.174169 
L 112.777501 -69.206372 
L 112.494281 -69.240191 
L 112.211061 -69.27562 
L 111.927841 -69.312651 
L 111.644621 -69.35128 
L 111.361401 -69.3915 
L 111.078181 -69.433304 
L 110.79496 -69.476685 
L 110.51174 -69.521638 
L 110.22852 -69.568155 
L 109.9453 -69.61623 
L 109.66208 -69.665856 
L 109.37886 -69.717027 
L 109.09564 -69.769735 
L 108.81242 -69.823975 
L 108.5292 -69.87974 
L 108.245979 -69.937022 
L 107.962759 -69.995815 
L 107.679539 -70.056113 
L 107.396319 -70.117908 
L 107.113099 -70.181195 
L 106.829879 -70.245966 
L 106.546659 -70.312215 
L 106.263439 -70.379935 
L 105.980218 -70.44912 
L 105.696998 -70.519763 
L 105.413778 -70.591857 
L 105.130558 -70.665397 
L 104.847338 -70.740376 
L 104.564118 -70.816788 
L 104.280898 -70.894625 
L 103.997678 -70.973883 
L 103.714458 -71.054555 
L 103.431237 -71.136634 
L 103.148017 -71.220115 
L 102.864797 -71.304991 
L 102.581577 -71.391257 
L 102.298357 -71.478907 
L 102.015137 -71.567935 
L 101.731917 -71.658335 
L 101.448697 -71.750102 
L 101.165477 -71.84323 
L 100.882256 -71.937712 
L 100.599036 -72.033545 
L 100.315816 -72.130722 
L 100.032596 -72.229239 
L 99.749376 -72.329089 
L 99.466156 -72.430267 
L 99.182936 -72.532769 
L 98.899716 -72.63659 
L 98.616495 -72.741723 
L 98.333275 -72.848166 
L 98.050055 -72.955911 
L 97.766835 -73.064956 
L 97.483615 -73.175295 
L 97.200395 -73.286923 
L 96.917175 -73.399836 
L 96.633955 -73.514029 
L 96.350735 -73.629498 
L 96.067514 -73.746239 
L 95.784294 -73.864247 
L 95.501074 -73.983518 
L 95.217854 -74.104047 
L 94.934634 -74.225832 
L 94.651414 -74.348867 
L 94.368194 -74.473148 
L 94.084974 -74.598673 
L 93.801753 -74.725436 
L 93.518533 -74.853435 
L 93.235313 -74.982665 
L 92.952093 -75.113123 
L 92.668873 -75.244804 
L 92.385653 -75.377707 
L 92.102433 -75.511827 
L 91.819213 -75.64716 
L 91.535993 -75.783704 
L 91.252772 -75.921455 
L 90.969552 -76.06041 
L 90.686332 -76.200565 
L 90.403112 -76.341918 
L 90.119892 -76.484465 
L 89.836672 -76.628203 
L 89.553452 -76.77313 
L 89.270232 -76.919243 
L 88.987012 -77.066538 
L 88.703791 -77.215012 
L 88.420571 -77.364664 
L 88.137351 -77.51549 
L 87.854131 -77.667487 
L 87.570911 -77.820653 
L 87.287691 -77.974986 
L 87.004471 -78.130483 
L 86.721251 -78.28714 
L 86.43803 -78.444957 
L 86.15481 -78.60393 
L 85.87159 -78.764056 
L 85.58837 -78.925335 
L 85.30515 -79.087763 
L 85.02193 -79.251338 
L 84.73871 -79.416058 
L 84.45549 -79.581921 
L 84.17227 -79.748925 
L 83.889049 -79.917067 
L 83.605829 -80.086345 
L 83.322609 -80.256758 
L 83.039389 -80.428303 
L 82.756169 -80.600979 
L 82.472949 -80.774784 
L 82.189729 -80.949715 
L 81.906509 -81.125771 
L 81.623288 -81.30295 
L 81.340068 -81.48125 
L 81.056848 -81.660669 
L 80.773628 -81.841207 
L 80.490408 -82.02286 
L 80.207188 -82.205628 
L 79.923968 -82.389508 
L 79.640748 -82.5745 
L 79.357528 -82.760601 
L 79.074307 -82.94781 
L 78.791087 -83.136126 
L 78.507867 -83.325546 
L 78.224647 -83.51607 
L 77.941427 -83.707696 
L 77.658207 -83.900422 
L 77.374987 -84.094247 
L 77.091767 -84.289171 
L 76.808547 -84.48519 
L 76.525326 -84.682305 
L 76.242106 -84.880514 
L 75.958886 -85.079815 
L 75.675666 -85.280207 
L 75.392446 -85.481689 
L 75.109226 -85.68426 
L 74.826006 -85.887918 
L 74.542786 -86.092663 
L 74.259565 -86.298493 
L 73.976345 -86.505406 
L 73.693125 -86.713403 
L 73.409905 -86.922482 
L 73.126685 -87.132641 
L 72.843465 -87.34388 
L 72.560245 -87.556197 
L 72.277025 -87.769592 
L 71.993805 -87.984064 
L 71.710584 -88.199611 
L 71.427364 -88.416232 
L 71.144144 -88.633927 
L 70.860924 -88.852695 
L 70.577704 -89.072534 
L 70.294484 -89.293444 
L 70.011264 -89.515424 
L 69.728044 -89.738472 
L 69.444824 -89.962589 
L 69.161603 -90.187773 
L 68.878383 -90.414023 
L 68.595163 -90.641338 
L 68.311943 -90.869719 
L 68.028723 -91.099163 
L 67.745503 -91.32967 
L 67.462283 -91.561239 
L 67.179063 -91.79387 
L 66.895842 -92.027561 
L 66.612622 -92.262313 
L 66.329402 -92.498123 
L 66.046182 -92.734992 
L 65.762962 -92.972919 
L 65.479742 -93.211903 
L 65.196522 -93.451943 
L 64.913302 -93.693039 
L 64.630082 -93.93519 
L 64.346861 -94.178396 
L 64.063641 -94.422654 
L 63.780421 -94.667966 
L 63.497201 -94.914331 
L 63.213981 -95.161747 
L 62.930761 -95.410214 
L 62.647541 -95.659732 
L 62.364321 -95.9103 
L 62.0811 -96.161917 
L 61.79788 -96.414583 
L 61.51466 -96.668297 
L 61.23144 -96.923059 
L 60.94822 -97.178868 
L 60.665 -97.435724 
L 60.38178 -97.693625 
L 60.09856 -97.952572 
L 59.81534 -98.212564 
L 59.532119 -98.473601 
L 59.248899 -98.735681 
L 58.965679 -98.998805 
L 58.682459 -99.262972 
L 58.399239 -99.528182 
L 58.116019 -99.794433 
L 57.832799 -100.061726 
L 57.549579 -100.33006 
L 57.266359 -100.599434 
L 56.983138 -100.869849 
L 56.699918 -101.141303 
L 56.416698 -101.413797 
L 56.133478 -101.68733 
L 55.850258 -101.961901 
L 55.567038 -102.23751 
L 55.283818 -102.514156 
L 55.000598 -102.79184 
L 54.717377 -103.070561 
L 54.434157 -103.350317 
L 54.150937 -103.63111 
L 53.867717 -103.912939 
L 53.584497 -104.195803 
L 53.301277 -104.479701 
L 53.018057 -104.764634 
L 52.734837 -105.050601 
L 52.451617 -105.337602 
L 52.168396 -105.625636 
L 51.885176 -105.914704 
L 51.601956 -106.204804 
L 51.318736 -106.495936 
L 51.035516 -106.788101 
L 50.752296 -107.081297 
L 50.469076 -107.375524 
L 50.185856 -107.670783 
L 49.902635 -107.967072 
L 49.619415 -108.264392 
L 49.336195 -108.562741 
L 49.052975 -108.862121 
L 48.769755 -109.16253 
L 48.486535 -109.463968 
L 48.203315 -109.766435 
L 47.920095 -110.069931 
L 47.636875 -110.374455 
L 47.353654 -110.680007 
L 47.070434 -110.986587 
L 46.787214 -111.294194 
L 46.503994 -111.602829 
L 46.220774 -111.91249 
L 45.937554 -112.223178 
L 45.654334 -112.534893 
L 45.371114 -112.847634 
L 45.087894 -113.1614 
L 44.804673 -113.476192 
z
"/>
    </defs>
    <g clip-path="url(#pd8a6cd8224)">
     <use xlink:href="#m4602235909" x="0" y="142.56" style="fill: #c70303; fill-opacity: 0.1"/>
    </g>
   </g>
   <g id="matplotlib.axis_1">
    <g id="xtick_1">
     <g id="line2d_1">
      <defs>
       <path id="m4cd371f86f" d="M 0 0 
L 0 2.5 
" style="stroke: #000000; stroke-width: 0.6"/>
      </defs>
      <g>
       <use xlink:href="#m4cd371f86f" x="73.070041" y="99.014399" style="stroke: #000000; stroke-width: 0.6"/>
      </g>
     </g>
     <g id="text_1">
      <!-- $\mathdefault{0}$ -->
      <g transform="translate(69.655797 114.700275) scale(0.14 -0.14)">
       <defs>
        <path id="CMR17-30" d="M 2688 2025 
C 2688 2416 2682 3080 2413 3591 
C 2176 4039 1798 4198 1466 4198 
C 1158 4198 768 4058 525 3597 
C 269 3118 243 2524 243 2025 
C 243 1661 250 1106 448 619 
C 723 -39 1216 -128 1466 -128 
C 1760 -128 2208 -7 2470 600 
C 2662 1042 2688 1559 2688 2025 
z
M 1466 -26 
C 1056 -26 813 325 723 812 
C 653 1188 653 1738 653 2096 
C 653 2588 653 2997 736 3387 
C 858 3929 1216 4096 1466 4096 
C 1728 4096 2067 3923 2189 3400 
C 2272 3036 2278 2607 2278 2096 
C 2278 1680 2278 1169 2202 792 
C 2067 95 1690 -26 1466 -26 
z
" transform="scale(0.015625)"/>
       </defs>
       <use xlink:href="#CMR17-30" transform="scale(0.996264)"/>
      </g>
     </g>
    </g>
    <g id="xtick_2">
     <g id="line2d_2">
      <g>
       <use xlink:href="#m4cd371f86f" x="129.600776" y="99.014399" style="stroke: #000000; stroke-width: 0.6"/>
      </g>
     </g>
     <g id="text_2">
      <!-- $\mathdefault{20}$ -->
      <g transform="translate(122.772288 114.700275) scale(0.14 -0.14)">
       <defs>
        <path id="CMR17-32" d="M 2669 989 
L 2554 989 
C 2490 536 2438 459 2413 420 
C 2381 369 1920 369 1830 369 
L 602 369 
C 832 619 1280 1072 1824 1597 
C 2214 1967 2669 2402 2669 3035 
C 2669 3790 2067 4224 1395 4224 
C 691 4224 262 3604 262 3030 
C 262 2780 448 2748 525 2748 
C 589 2748 781 2787 781 3010 
C 781 3207 614 3264 525 3264 
C 486 3264 448 3258 422 3245 
C 544 3790 915 4058 1306 4058 
C 1862 4058 2227 3617 2227 3035 
C 2227 2479 1901 2000 1536 1584 
L 262 146 
L 262 0 
L 2515 0 
L 2669 989 
z
" transform="scale(0.015625)"/>
       </defs>
       <use xlink:href="#CMR17-32" transform="scale(0.996264)"/>
       <use xlink:href="#CMR17-30" transform="translate(45.690477 0) scale(0.996264)"/>
      </g>
     </g>
    </g>
    <g id="xtick_3">
     <g id="line2d_3">
      <g>
       <use xlink:href="#m4cd371f86f" x="186.131511" y="99.014399" style="stroke: #000000; stroke-width: 0.6"/>
      </g>
     </g>
     <g id="text_3">
      <!-- $\mathdefault{40}$ -->
      <g transform="translate(179.303023 114.700275) scale(0.14 -0.14)">
       <defs>
        <path id="CMR17-34" d="M 2150 4122 
C 2150 4256 2144 4256 2029 4256 
L 128 1254 
L 128 1088 
L 1779 1088 
L 1779 457 
C 1779 224 1766 160 1318 160 
L 1197 160 
L 1197 0 
C 1402 0 1747 0 1965 0 
C 2182 0 2528 0 2733 0 
L 2733 160 
L 2611 160 
C 2163 160 2150 224 2150 457 
L 2150 1088 
L 2803 1088 
L 2803 1254 
L 2150 1254 
L 2150 4122 
z
M 1798 3703 
L 1798 1254 
L 256 1254 
L 1798 3703 
z
" transform="scale(0.015625)"/>
       </defs>
       <use xlink:href="#CMR17-34" transform="scale(0.996264)"/>
       <use xlink:href="#CMR17-30" transform="translate(45.690477 0) scale(0.996264)"/>
      </g>
     </g>
    </g>
    <g id="text_4">
     <!-- temperature (Celcius degrees) -->
     <g transform="translate(26.052827 131.873076) scale(0.14 -0.14)">
      <defs>
       <path id="CMR17-74" d="M 966 2560 
L 1862 2560 
L 1862 2725 
L 966 2725 
L 966 3904 
L 851 3904 
C 838 3245 614 2668 70 2668 
L 70 2560 
L 627 2560 
L 627 771 
C 627 650 627 -64 1370 -64 
C 1747 -64 1965 306 1965 777 
L 1965 1140 
L 1850 1140 
L 1850 783 
C 1850 344 1677 51 1408 51 
C 1222 51 966 178 966 758 
L 966 2560 
z
" transform="scale(0.015625)"/>
       <path id="CMR17-65" d="M 2438 1472 
C 2464 1498 2464 1511 2464 1576 
C 2464 2238 2118 2816 1389 2816 
C 710 2816 173 2169 173 1383 
C 173 551 781 -64 1459 -64 
C 2176 -64 2458 607 2458 740 
C 2458 784 2419 784 2406 784 
C 2362 784 2355 771 2330 696 
C 2189 265 1837 51 1504 51 
C 1229 51 954 203 781 480 
C 582 803 582 1176 582 1472 
L 2438 1472 
z
M 589 1568 
C 634 2505 1126 2714 1382 2714 
C 1818 2714 2112 2297 2118 1568 
L 589 1568 
z
" transform="scale(0.015625)"/>
       <path id="CMR17-6d" d="M 4326 1933 
C 4326 2252 4269 2790 3507 2790 
C 3072 2790 2771 2496 2656 2151 
L 2650 2151 
C 2573 2676 2195 2790 1837 2790 
C 1331 2790 1069 2400 973 2144 
L 966 2144 
L 966 2790 
L 211 2720 
L 211 2554 
C 589 2554 646 2515 646 2208 
L 646 428 
C 646 184 621 153 211 153 
L 211 -13 
C 365 0 646 0 813 0 
C 979 0 1267 0 1421 -13 
L 1421 153 
C 1011 153 986 178 986 428 
L 986 1658 
C 986 2247 1344 2688 1792 2688 
C 2266 2688 2317 2266 2317 1958 
L 2317 428 
C 2317 184 2291 153 1882 153 
L 1882 -13 
C 2035 0 2317 0 2483 0 
C 2650 0 2938 0 3091 -13 
L 3091 153 
C 2682 153 2656 178 2656 428 
L 2656 1658 
C 2656 2247 3014 2688 3462 2688 
C 3936 2688 3987 2266 3987 1958 
L 3987 428 
C 3987 184 3962 153 3552 153 
L 3552 -13 
C 3706 0 3987 0 4154 0 
C 4320 0 4608 0 4762 -13 
L 4762 153 
C 4352 153 4326 178 4326 428 
L 4326 1933 
z
" transform="scale(0.015625)"/>
       <path id="CMR17-70" d="M 1408 -1063 
C 998 -1063 973 -1037 973 -789 
L 973 402 
C 1158 134 1427 -38 1766 -38 
C 2406 -38 3053 523 3053 1388 
C 3053 2191 2496 2802 1837 2802 
C 1453 2802 1139 2592 960 2338 
L 960 2802 
L 198 2732 
L 198 2567 
C 576 2567 634 2528 634 2223 
L 634 -789 
C 634 -1031 608 -1063 198 -1063 
L 198 -1228 
C 352 -1216 634 -1216 800 -1216 
C 966 -1216 1254 -1216 1408 -1228 
L 1408 -1063 
z
M 973 2012 
C 973 2102 973 2235 1222 2471 
C 1254 2497 1472 2688 1792 2688 
C 2259 2688 2643 2108 2643 1382 
C 2643 656 2234 64 1728 64 
C 1498 64 1248 172 1056 472 
C 973 612 973 650 973 752 
L 973 2012 
z
" transform="scale(0.015625)"/>
       <path id="CMR17-72" d="M 960 1497 
C 960 2112 1222 2688 1702 2688 
C 1747 2688 1792 2682 1837 2662 
C 1837 2662 1696 2617 1696 2452 
C 1696 2298 1818 2234 1914 2234 
C 1990 2234 2131 2279 2131 2458 
C 2131 2663 1926 2790 1709 2790 
C 1222 2790 1011 2317 947 2093 
L 941 2093 
L 941 2790 
L 198 2720 
L 198 2554 
C 576 2554 634 2515 634 2208 
L 634 428 
C 634 184 608 153 198 153 
L 198 -13 
C 352 0 646 0 813 0 
C 998 0 1325 0 1498 -13 
L 1498 153 
C 1037 153 960 153 960 440 
L 960 1497 
z
" transform="scale(0.015625)"/>
       <path id="CMR17-61" d="M 2304 1653 
C 2304 2072 2304 2294 2035 2543 
C 1798 2752 1523 2816 1306 2816 
C 800 2816 435 2407 435 1971 
C 435 1728 627 1728 666 1728 
C 749 1728 896 1778 896 1954 
C 896 2112 774 2181 666 2181 
C 640 2181 608 2174 589 2168 
C 723 2592 1069 2714 1293 2714 
C 1613 2714 1965 2429 1965 1885 
L 1965 1600 
C 1587 1600 1133 1549 774 1357 
C 371 1133 256 813 256 570 
C 256 77 832 -64 1171 -64 
C 1523 -64 1850 139 1990 511 
C 2003 233 2182 -18 2464 -18 
C 2598 -18 2938 70 2938 567 
L 2938 920 
L 2822 920 
L 2822 562 
C 2822 178 2650 128 2566 128 
C 2304 128 2304 458 2304 738 
L 2304 1653 
z
M 1965 870 
C 1965 317 1568 38 1216 38 
C 896 38 646 275 646 570 
C 646 761 730 1100 1101 1305 
C 1408 1478 1760 1504 1965 1504 
L 1965 870 
z
" transform="scale(0.015625)"/>
       <path id="CMR17-75" d="M 1882 2693 
L 1882 2528 
C 2259 2528 2317 2489 2317 2186 
L 2317 1032 
C 2317 500 2029 38 1555 38 
C 1030 38 986 348 986 678 
L 986 2763 
L 211 2693 
L 211 2528 
C 467 2528 640 2528 646 2274 
L 646 1058 
C 646 633 646 361 813 183 
C 896 101 1056 -64 1517 -64 
C 2061 -64 2272 377 2323 506 
L 2330 506 
L 2330 -63 
L 3091 -63 
L 3091 128 
C 2714 128 2656 166 2656 473 
L 2656 2763 
L 1882 2693 
z
" transform="scale(0.015625)"/>
       <path id="CMR17-28" d="M 1958 -1561 
C 1958 -1555 1958 -1542 1939 -1523 
C 1645 -1224 858 -407 858 1581 
C 858 3569 1632 4379 1946 4697 
C 1946 4704 1958 4717 1958 4736 
C 1958 4755 1939 4768 1914 4768 
C 1843 4768 1299 4296 986 3594 
C 666 2887 576 2199 576 1588 
C 576 1128 621 351 1005 -471 
C 1312 -1135 1837 -1600 1914 -1600 
C 1946 -1600 1958 -1587 1958 -1561 
z
" transform="scale(0.015625)"/>
       <path id="CMR17-43" d="M 3974 4289 
C 3974 4403 3968 4410 3930 4410 
C 3904 4410 3898 4403 3853 4327 
L 3571 3792 
C 3258 4187 2874 4416 2381 4416 
C 1286 4416 294 3456 294 2148 
C 294 826 1286 -128 2387 -128 
C 3366 -128 3974 730 3974 1461 
C 3974 1524 3974 1550 3917 1550 
C 3866 1550 3866 1531 3859 1474 
C 3808 585 3168 38 2477 38 
C 1824 38 781 495 781 2147 
C 781 3805 1843 4250 2464 4250 
C 3187 4250 3712 3628 3834 2745 
C 3846 2668 3846 2655 3904 2655 
C 3974 2655 3974 2668 3974 2783 
L 3974 4289 
z
" transform="scale(0.015625)"/>
       <path id="CMR17-6c" d="M 979 4396 
L 218 4326 
L 218 4160 
C 595 4160 653 4122 653 3817 
L 653 426 
C 653 184 627 153 218 153 
L 218 -13 
C 371 0 653 0 813 0 
C 979 0 1261 0 1414 -13 
L 1414 153 
C 1005 153 979 178 979 426 
L 979 4396 
z
" transform="scale(0.015625)"/>
       <path id="CMR17-63" d="M 2234 2240 
C 2112 2240 1933 2240 1933 2017 
C 1933 1838 2080 1787 2163 1787 
C 2208 1787 2394 1807 2394 2024 
C 2394 2467 1958 2803 1466 2803 
C 787 2803 211 2178 211 1363 
C 211 516 813 -64 1466 -64 
C 2259 -64 2458 677 2458 748 
C 2458 774 2451 793 2406 793 
C 2362 793 2355 787 2330 703 
C 2163 180 1798 51 1523 51 
C 1114 51 621 427 621 1369 
C 621 2338 1094 2688 1472 2688 
C 1722 2688 2093 2573 2234 2240 
z
" transform="scale(0.015625)"/>
       <path id="CMR17-69" d="M 992 3909 
C 992 4049 877 4170 730 4170 
C 589 4170 467 4056 467 3909 
C 467 3769 582 3648 730 3648 
C 870 3648 992 3763 992 3909 
z
M 243 2706 
L 243 2541 
C 602 2541 653 2502 653 2197 
L 653 427 
C 653 184 627 153 218 153 
L 218 -13 
C 371 0 646 0 806 0 
C 960 0 1222 0 1370 -13 
L 1370 153 
C 992 153 979 191 979 420 
L 979 2776 
L 243 2706 
z
" transform="scale(0.015625)"/>
       <path id="CMR17-73" d="M 1978 2697 
C 1978 2813 1971 2819 1933 2819 
C 1907 2819 1901 2813 1824 2717 
C 1805 2691 1747 2626 1728 2601 
C 1523 2819 1235 2819 1126 2819 
C 416 2819 160 2447 160 2076 
C 160 1498 813 1365 998 1325 
C 1402 1243 1542 1217 1677 1101 
C 1760 1025 1901 884 1901 654 
C 1901 384 1747 38 1158 38 
C 602 38 403 460 288 1021 
C 269 1110 269 1117 218 1117 
C 166 1117 160 1110 160 983 
L 160 63 
C 160 -51 166 -58 205 -58 
C 237 -58 243 -51 275 0 
C 314 57 410 211 448 276 
C 576 103 800 -64 1158 -64 
C 1792 -64 2131 283 2131 784 
C 2131 1112 1958 1285 1875 1362 
C 1683 1561 1459 1606 1190 1657 
C 838 1735 390 1825 390 2217 
C 390 2383 480 2737 1126 2737 
C 1811 2737 1850 2094 1862 1888 
C 1869 1856 1901 1849 1920 1849 
C 1978 1849 1978 1869 1978 1978 
L 1978 2697 
z
" transform="scale(0.015625)"/>
       <path id="CMR17-64" d="M 1869 4326 
L 1869 4160 
C 2246 4160 2304 4122 2304 3820 
L 2304 2345 
C 2278 2377 2016 2790 1498 2790 
C 845 2790 211 2208 211 1364 
C 211 525 806 -64 1434 -64 
C 1978 -64 2259 337 2291 380 
L 2291 -63 
L 3066 -63 
L 3066 128 
C 2688 128 2630 166 2630 473 
L 2630 4396 
L 1869 4326 
z
M 2291 755 
C 2291 563 2176 390 2029 262 
C 1811 70 1594 38 1472 38 
C 1286 38 621 134 621 1356 
C 621 2612 1363 2688 1530 2688 
C 1824 2688 2061 2522 2208 2291 
C 2291 2157 2291 2138 2291 2023 
L 2291 755 
z
" transform="scale(0.015625)"/>
       <path id="CMR17-67" d="M 710 1164 
C 832 1068 1043 960 1299 960 
C 1805 960 2240 1357 2240 1888 
C 2240 2054 2189 2310 1997 2509 
C 2176 2692 2438 2752 2586 2752 
C 2611 2752 2650 2752 2682 2734 
C 2656 2728 2598 2703 2598 2605 
C 2598 2527 2656 2471 2739 2471 
C 2835 2471 2886 2533 2886 2614 
C 2886 2731 2790 2854 2586 2854 
C 2330 2854 2106 2738 1926 2580 
C 1734 2753 1504 2816 1299 2816 
C 794 2816 358 2419 358 1888 
C 358 1522 570 1292 634 1228 
C 442 1004 442 743 442 711 
C 442 545 506 302 723 168 
C 390 85 128 -169 128 -486 
C 128 -943 736 -1280 1466 -1280 
C 2170 -1280 2803 -956 2803 -479 
C 2803 384 1856 384 1363 384 
C 1216 384 954 384 922 391 
C 723 423 589 602 589 826 
C 589 883 589 1024 710 1164 
z
M 1299 1068 
C 736 1068 736 1760 736 1889 
C 736 2016 736 2708 1299 2708 
C 1862 2708 1862 2016 1862 1889 
C 1862 1760 1862 1068 1299 1068 
z
M 1466 -1171 
C 826 -1171 384 -835 384 -486 
C 384 -289 493 -105 634 -4 
C 794 104 858 104 1293 104 
C 1818 104 2547 104 2547 -486 
C 2547 -835 2106 -1171 1466 -1171 
z
" transform="scale(0.015625)"/>
       <path id="CMR17-29" d="M 1683 1581 
C 1683 2040 1638 2817 1254 3639 
C 947 4303 422 4768 346 4768 
C 326 4768 301 4761 301 4729 
C 301 4717 307 4710 314 4697 
C 621 4378 1402 3568 1402 1584 
C 1402 -407 627 -1217 314 -1537 
C 307 -1549 301 -1556 301 -1568 
C 301 -1600 326 -1600 346 -1600 
C 416 -1600 960 -1128 1274 -426 
C 1594 281 1683 969 1683 1581 
z
" transform="scale(0.015625)"/>
      </defs>
      <use xlink:href="#CMR17-74" transform="scale(0.996264)"/>
      <use xlink:href="#CMR17-65" transform="translate(35.280768 0) scale(0.996264)"/>
      <use xlink:href="#CMR17-6d" transform="translate(75.766428 0) scale(0.996264)"/>
      <use xlink:href="#CMR17-70" transform="translate(152.686018 0) scale(0.996264)"/>
      <use xlink:href="#CMR17-65" transform="translate(206.183827 0) scale(0.996264)"/>
      <use xlink:href="#CMR17-72" transform="translate(246.669487 0) scale(0.996264)"/>
      <use xlink:href="#CMR17-61" transform="translate(281.950255 0) scale(0.996264)"/>
      <use xlink:href="#CMR17-74" transform="translate(327.640732 0) scale(0.996264)"/>
      <use xlink:href="#CMR17-75" transform="translate(362.9215 0) scale(0.996264)"/>
      <use xlink:href="#CMR17-72" transform="translate(413.81687 0) scale(0.996264)"/>
      <use xlink:href="#CMR17-65" transform="translate(449.097637 0) scale(0.996264)"/>
      <use xlink:href="#CMR17-28" transform="translate(519.659264 0) scale(0.996264)"/>
      <use xlink:href="#CMR17-43" transform="translate(554.940032 0) scale(0.996264)"/>
      <use xlink:href="#CMR17-65" transform="translate(621.449913 0) scale(0.996264)"/>
      <use xlink:href="#CMR17-6c" transform="translate(661.935573 0) scale(0.996264)"/>
      <use xlink:href="#CMR17-63" transform="translate(686.806632 0) scale(0.996264)"/>
      <use xlink:href="#CMR17-69" transform="translate(727.292292 0) scale(0.996264)"/>
      <use xlink:href="#CMR17-75" transform="translate(752.16335 0) scale(0.996264)"/>
      <use xlink:href="#CMR17-73" transform="translate(803.05872 0) scale(0.996264)"/>
      <use xlink:href="#CMR17-64" transform="translate(868.936024 0) scale(0.996264)"/>
      <use xlink:href="#CMR17-65" transform="translate(919.831394 0) scale(0.996264)"/>
      <use xlink:href="#CMR17-67" transform="translate(960.317054 0) scale(0.996264)"/>
      <use xlink:href="#CMR17-72" transform="translate(1006.007532 0) scale(0.996264)"/>
      <use xlink:href="#CMR17-65" transform="translate(1041.288299 0) scale(0.996264)"/>
      <use xlink:href="#CMR17-65" transform="translate(1081.77396 0) scale(0.996264)"/>
      <use xlink:href="#CMR17-73" transform="translate(1122.25962 0) scale(0.996264)"/>
      <use xlink:href="#CMR17-29" transform="translate(1158.060958 0) scale(0.996264)"/>
     </g>
    </g>
   </g>
   <g id="matplotlib.axis_2">
    <g id="ytick_1">
     <g id="line2d_4">
      <defs>
       <path id="m56f3a9ced1" d="M 0 0 
L -2.5 0 
" style="stroke: #000000; stroke-width: 0.6"/>
      </defs>
      <g>
       <use xlink:href="#m56f3a9ced1" x="44.804673" y="66.400101" style="stroke: #000000; stroke-width: 0.6"/>
      </g>
     </g>
     <g id="text_5">
      <!-- $\mathdefault{25}$ -->
      <g transform="translate(25.147696 71.243039) scale(0.14 -0.14)">
       <defs>
        <path id="CMR17-35" d="M 730 3692 
C 794 3666 1056 3584 1325 3584 
C 1920 3584 2246 3911 2432 4100 
C 2432 4157 2432 4192 2394 4192 
C 2387 4192 2374 4192 2323 4163 
C 2099 4058 1837 3973 1517 3973 
C 1325 3973 1037 3999 723 4139 
C 653 4171 640 4171 634 4171 
C 602 4171 595 4164 595 4037 
L 595 2203 
C 595 2089 595 2057 659 2057 
C 691 2057 704 2070 736 2114 
C 941 2401 1222 2522 1542 2522 
C 1766 2522 2246 2382 2246 1289 
C 2246 1085 2246 715 2054 421 
C 1894 159 1645 25 1370 25 
C 947 25 518 320 403 814 
C 429 807 480 795 506 795 
C 589 795 749 840 749 1038 
C 749 1210 627 1280 506 1280 
C 358 1280 262 1190 262 1011 
C 262 454 704 -128 1382 -128 
C 2042 -128 2669 440 2669 1264 
C 2669 2030 2170 2624 1549 2624 
C 1222 2624 947 2503 730 2274 
L 730 3692 
z
" transform="scale(0.015625)"/>
       </defs>
       <use xlink:href="#CMR17-32" transform="scale(0.996264)"/>
       <use xlink:href="#CMR17-35" transform="translate(45.690477 0) scale(0.996264)"/>
      </g>
     </g>
    </g>
    <g id="ytick_2">
     <g id="line2d_5">
      <g>
       <use xlink:href="#m56f3a9ced1" x="44.804673" y="12.042938" style="stroke: #000000; stroke-width: 0.6"/>
      </g>
     </g>
     <g id="text_6">
      <!-- $\mathdefault{30}$ -->
      <g transform="translate(25.147696 16.885876) scale(0.14 -0.14)">
       <defs>
        <path id="CMR17-33" d="M 1414 2157 
C 1984 2157 2234 1662 2234 1090 
C 2234 320 1824 25 1453 25 
C 1114 25 563 194 390 693 
C 422 680 454 680 486 680 
C 640 680 755 782 755 948 
C 755 1133 614 1216 486 1216 
C 378 1216 211 1165 211 926 
C 211 335 787 -128 1466 -128 
C 2176 -128 2720 430 2720 1085 
C 2720 1707 2208 2157 1600 2227 
C 2086 2328 2554 2756 2554 3329 
C 2554 3820 2048 4179 1472 4179 
C 890 4179 378 3829 378 3329 
C 378 3110 544 3072 627 3072 
C 762 3072 877 3155 877 3321 
C 877 3486 762 3569 627 3569 
C 602 3569 570 3569 544 3557 
C 730 3959 1235 4032 1459 4032 
C 1683 4032 2106 3925 2106 3320 
C 2106 3143 2080 2828 1862 2550 
C 1670 2304 1453 2304 1242 2284 
C 1210 2284 1062 2269 1037 2269 
C 992 2263 966 2257 966 2208 
C 966 2163 973 2157 1101 2157 
L 1414 2157 
z
" transform="scale(0.015625)"/>
       </defs>
       <use xlink:href="#CMR17-33" transform="scale(0.996264)"/>
       <use xlink:href="#CMR17-30" transform="translate(45.690477 0) scale(0.996264)"/>
      </g>
     </g>
    </g>
    <g id="text_7">
     <!-- run time (min) -->
     <g transform="translate(17.660772 100.293205) rotate(-90) scale(0.14 -0.14)">
      <defs>
       <path id="CMR17-6e" d="M 2656 1933 
C 2656 2259 2592 2790 1837 2790 
C 1331 2790 1069 2400 973 2144 
L 966 2144 
L 966 2790 
L 211 2720 
L 211 2554 
C 589 2554 646 2515 646 2208 
L 646 428 
C 646 184 621 153 211 153 
L 211 -13 
C 365 0 646 0 813 0 
C 979 0 1267 0 1421 -13 
L 1421 153 
C 1011 153 986 178 986 428 
L 986 1658 
C 986 2247 1344 2688 1792 2688 
C 2266 2688 2317 2266 2317 1958 
L 2317 428 
C 2317 184 2291 153 1882 153 
L 1882 -13 
C 2035 0 2317 0 2483 0 
C 2650 0 2938 0 3091 -13 
L 3091 153 
C 2682 153 2656 178 2656 428 
L 2656 1933 
z
" transform="scale(0.015625)"/>
      </defs>
      <use xlink:href="#CMR17-72" transform="scale(0.996264)"/>
      <use xlink:href="#CMR17-75" transform="translate(35.280768 0) scale(0.996264)"/>
      <use xlink:href="#CMR17-6e" transform="translate(86.176138 0) scale(0.996264)"/>
      <use xlink:href="#CMR17-74" transform="translate(167.147474 0) scale(0.996264)"/>
      <use xlink:href="#CMR17-69" transform="translate(202.428242 0) scale(0.996264)"/>
      <use xlink:href="#CMR17-6d" transform="translate(227.2993 0) scale(0.996264)"/>
      <use xlink:href="#CMR17-65" transform="translate(304.21889 0) scale(0.996264)"/>
      <use xlink:href="#CMR17-28" transform="translate(374.780517 0) scale(0.996264)"/>
      <use xlink:href="#CMR17-6d" transform="translate(410.061284 0) scale(0.996264)"/>
      <use xlink:href="#CMR17-69" transform="translate(486.980874 0) scale(0.996264)"/>
      <use xlink:href="#CMR17-6e" transform="translate(511.851933 0) scale(0.996264)"/>
      <use xlink:href="#CMR17-29" transform="translate(562.747303 0) scale(0.996264)"/>
     </g>
    </g>
   </g>
   <g id="line2d_6">
    <path d="M 44.804673 48.855033 
L 49.619415 52.968462 
L 54.434157 56.792802 
L 59.248899 60.328054 
L 63.780421 63.39127 
L 68.311943 66.198407 
L 72.843465 68.749466 
L 77.374987 71.044447 
L 81.906509 73.08335 
L 86.43803 74.866174 
L 90.686332 76.305001 
L 94.934634 77.51876 
L 99.182936 78.507449 
L 103.431237 79.27107 
L 107.679539 79.809621 
L 111.927841 80.123105 
L 116.176143 80.211519 
L 120.424444 80.074865 
L 124.672746 79.713142 
L 128.921048 79.12635 
L 133.16935 78.314489 
L 137.417651 77.27756 
L 141.665953 76.015562 
L 145.914255 74.528495 
L 150.162557 72.816359 
L 154.694078 70.742006 
L 159.2256 68.411574 
L 163.757122 65.825064 
L 168.288644 62.982475 
L 172.820166 59.883809 
L 177.634908 56.31089 
L 182.44965 52.448883 
L 186.131511 49.300523 
L 186.131511 49.300523 
" clip-path="url(#pd8a6cd8224)" style="fill: none; stroke: #c70303; stroke-width: 2; stroke-linecap: square"/>
   </g>
   <g id="line2d_7">
    <defs>
     <path id="m1945a5daba" d="M 0 5 
C 1.326016 5 2.597899 4.473168 3.535534 3.535534 
C 4.473168 2.597899 5 1.326016 5 0 
C 5 -1.326016 4.473168 -2.597899 3.535534 -3.535534 
C 2.597899 -4.473168 1.326016 -5 0 -5 
C -1.326016 -5 -2.597899 -4.473168 -3.535534 -3.535534 
C -4.473168 -2.597899 -5 -1.326016 -5 0 
C -5 1.326016 -4.473168 2.597899 -3.535534 3.535534 
C -2.597899 4.473168 -1.326016 5 0 5 
z
" style="stroke: #c70303"/>
    </defs>
    <g clip-path="url(#pd8a6cd8224)">
     <use xlink:href="#m1945a5daba" x="115.609702" y="80.212734" style="fill: #c70303; stroke: #c70303"/>
    </g>
   </g>
   <g id="patch_3">
    <path d="M 44.804673 99.014399 
L 44.804673 12.042938 
" style="fill: none; stroke: #000000; stroke-width: 0.6; stroke-linejoin: miter; stroke-linecap: square"/>
   </g>
   <g id="patch_4">
    <path d="M 44.804673 99.014399 
L 186.131511 99.014399 
" style="fill: none; stroke: #000000; stroke-width: 0.6; stroke-linejoin: miter; stroke-linecap: square"/>
   </g>
  </g>
 </g>
 <defs>
  <clipPath id="pd8a6cd8224">
   <rect x="44.804673" y="12.042938" width="141.326838" height="86.971461"/>
  </clipPath>
 </defs>
</svg>
