<?xml version="1.0" encoding="utf-8" standalone="no"?>
<!DOCTYPE svg PUBLIC "-//W3C//DTD SVG 1.1//EN"
  "http://www.w3.org/Graphics/SVG/1.1/DTD/svg11.dtd">
<svg xmlns:xlink="http://www.w3.org/1999/xlink" width="460.8pt" height="345.6pt" viewBox="0 0 460.8 345.6" xmlns="http://www.w3.org/2000/svg" version="1.1">
 <metadata>
  <rdf:RDF xmlns:dc="http://purl.org/dc/elements/1.1/" xmlns:cc="http://creativecommons.org/ns#" xmlns:rdf="http://www.w3.org/1999/02/22-rdf-syntax-ns#">
   <cc:Work>
    <dc:type rdf:resource="http://purl.org/dc/dcmitype/StillImage"/>
    <dc:date>2024-05-23T11:48:14.895241</dc:date>
    <dc:format>image/svg+xml</dc:format>
    <dc:creator>
     <cc:Agent>
      <dc:title>Matplotlib v3.8.4, https://matplotlib.org/</dc:title>
     </cc:Agent>
    </dc:creator>
   </cc:Work>
  </rdf:RDF>
 </metadata>
 <defs>
  <style type="text/css">*{stroke-linejoin: round; stroke-linecap: butt}</style>
 </defs>
 <g id="figure_1">
  <g id="patch_1">
   <path d="M 0 345.6 
L 460.8 345.6 
L 460.8 0 
L 0 0 
z
" style="fill: #ffffff"/>
  </g>
  <g id="axes_1">
   <g id="patch_2">
    <path d="M 57.6 307.584 
L 414.72 307.584 
L 414.72 41.472 
L 57.6 41.472 
z
" style="fill: #ffffff"/>
   </g>
   <g id="matplotlib.axis_1">
    <g id="xtick_1">
     <g id="line2d_1">
      <defs>
       <path id="m1c645f7782" d="M 0 0 
L 0 3.5 
" style="stroke: #000000; stroke-width: 0.8"/>
      </defs>
      <g>
       <use xlink:href="#m1c645f7782" x="73.832727" y="307.584" style="stroke: #000000; stroke-width: 0.8"/>
      </g>
     </g>
     <g id="text_1">
      <!-- 0 -->
      <g transform="translate(70.651477 322.182437) scale(0.1 -0.1)">
       <defs>
        <path id="DejaVuSans-30" d="M 2034 4250 
Q 1547 4250 1301 3770 
Q 1056 3291 1056 2328 
Q 1056 1369 1301 889 
Q 1547 409 2034 409 
Q 2525 409 2770 889 
Q 3016 1369 3016 2328 
Q 3016 3291 2770 3770 
Q 2525 4250 2034 4250 
z
M 2034 4750 
Q 2819 4750 3233 4129 
Q 3647 3509 3647 2328 
Q 3647 1150 3233 529 
Q 2819 -91 2034 -91 
Q 1250 -91 836 529 
Q 422 1150 422 2328 
Q 422 3509 836 4129 
Q 1250 4750 2034 4750 
z
" transform="scale(0.015625)"/>
       </defs>
       <use xlink:href="#DejaVuSans-30"/>
      </g>
     </g>
    </g>
    <g id="xtick_2">
     <g id="line2d_2">
      <g>
       <use xlink:href="#m1c645f7782" x="114.416575" y="307.584" style="stroke: #000000; stroke-width: 0.8"/>
      </g>
     </g>
     <g id="text_2">
      <!-- 2500 -->
      <g transform="translate(101.691575 322.182437) scale(0.1 -0.1)">
       <defs>
        <path id="DejaVuSans-32" d="M 1228 531 
L 3431 531 
L 3431 0 
L 469 0 
L 469 531 
Q 828 903 1448 1529 
Q 2069 2156 2228 2338 
Q 2531 2678 2651 2914 
Q 2772 3150 2772 3378 
Q 2772 3750 2511 3984 
Q 2250 4219 1831 4219 
Q 1534 4219 1204 4116 
Q 875 4013 500 3803 
L 500 4441 
Q 881 4594 1212 4672 
Q 1544 4750 1819 4750 
Q 2544 4750 2975 4387 
Q 3406 4025 3406 3419 
Q 3406 3131 3298 2873 
Q 3191 2616 2906 2266 
Q 2828 2175 2409 1742 
Q 1991 1309 1228 531 
z
" transform="scale(0.015625)"/>
        <path id="DejaVuSans-35" d="M 691 4666 
L 3169 4666 
L 3169 4134 
L 1269 4134 
L 1269 2991 
Q 1406 3038 1543 3061 
Q 1681 3084 1819 3084 
Q 2600 3084 3056 2656 
Q 3513 2228 3513 1497 
Q 3513 744 3044 326 
Q 2575 -91 1722 -91 
Q 1428 -91 1123 -41 
Q 819 9 494 109 
L 494 744 
Q 775 591 1075 516 
Q 1375 441 1709 441 
Q 2250 441 2565 725 
Q 2881 1009 2881 1497 
Q 2881 1984 2565 2268 
Q 2250 2553 1709 2553 
Q 1456 2553 1204 2497 
Q 953 2441 691 2322 
L 691 4666 
z
" transform="scale(0.015625)"/>
       </defs>
       <use xlink:href="#DejaVuSans-32"/>
       <use xlink:href="#DejaVuSans-35" x="63.623047"/>
       <use xlink:href="#DejaVuSans-30" x="127.246094"/>
       <use xlink:href="#DejaVuSans-30" x="190.869141"/>
      </g>
     </g>
    </g>
    <g id="xtick_3">
     <g id="line2d_3">
      <g>
       <use xlink:href="#m1c645f7782" x="155.000422" y="307.584" style="stroke: #000000; stroke-width: 0.8"/>
      </g>
     </g>
     <g id="text_3">
      <!-- 5000 -->
      <g transform="translate(142.275422 322.182437) scale(0.1 -0.1)">
       <use xlink:href="#DejaVuSans-35"/>
       <use xlink:href="#DejaVuSans-30" x="63.623047"/>
       <use xlink:href="#DejaVuSans-30" x="127.246094"/>
       <use xlink:href="#DejaVuSans-30" x="190.869141"/>
      </g>
     </g>
    </g>
    <g id="xtick_4">
     <g id="line2d_4">
      <g>
       <use xlink:href="#m1c645f7782" x="195.584269" y="307.584" style="stroke: #000000; stroke-width: 0.8"/>
      </g>
     </g>
     <g id="text_4">
      <!-- 7500 -->
      <g transform="translate(182.859269 322.182437) scale(0.1 -0.1)">
       <defs>
        <path id="DejaVuSans-37" d="M 525 4666 
L 3525 4666 
L 3525 4397 
L 1831 0 
L 1172 0 
L 2766 4134 
L 525 4134 
L 525 4666 
z
" transform="scale(0.015625)"/>
       </defs>
       <use xlink:href="#DejaVuSans-37"/>
       <use xlink:href="#DejaVuSans-35" x="63.623047"/>
       <use xlink:href="#DejaVuSans-30" x="127.246094"/>
       <use xlink:href="#DejaVuSans-30" x="190.869141"/>
      </g>
     </g>
    </g>
    <g id="xtick_5">
     <g id="line2d_5">
      <g>
       <use xlink:href="#m1c645f7782" x="236.168117" y="307.584" style="stroke: #000000; stroke-width: 0.8"/>
      </g>
     </g>
     <g id="text_5">
      <!-- 10000 -->
      <g transform="translate(220.261867 322.182437) scale(0.1 -0.1)">
       <defs>
        <path id="DejaVuSans-31" d="M 794 531 
L 1825 531 
L 1825 4091 
L 703 3866 
L 703 4441 
L 1819 4666 
L 2450 4666 
L 2450 531 
L 3481 531 
L 3481 0 
L 794 0 
L 794 531 
z
" transform="scale(0.015625)"/>
       </defs>
       <use xlink:href="#DejaVuSans-31"/>
       <use xlink:href="#DejaVuSans-30" x="63.623047"/>
       <use xlink:href="#DejaVuSans-30" x="127.246094"/>
       <use xlink:href="#DejaVuSans-30" x="190.869141"/>
       <use xlink:href="#DejaVuSans-30" x="254.492188"/>
      </g>
     </g>
    </g>
    <g id="xtick_6">
     <g id="line2d_6">
      <g>
       <use xlink:href="#m1c645f7782" x="276.751964" y="307.584" style="stroke: #000000; stroke-width: 0.8"/>
      </g>
     </g>
     <g id="text_6">
      <!-- 12500 -->
      <g transform="translate(260.845714 322.182437) scale(0.1 -0.1)">
       <use xlink:href="#DejaVuSans-31"/>
       <use xlink:href="#DejaVuSans-32" x="63.623047"/>
       <use xlink:href="#DejaVuSans-35" x="127.246094"/>
       <use xlink:href="#DejaVuSans-30" x="190.869141"/>
       <use xlink:href="#DejaVuSans-30" x="254.492188"/>
      </g>
     </g>
    </g>
    <g id="xtick_7">
     <g id="line2d_7">
      <g>
       <use xlink:href="#m1c645f7782" x="317.335812" y="307.584" style="stroke: #000000; stroke-width: 0.8"/>
      </g>
     </g>
     <g id="text_7">
      <!-- 15000 -->
      <g transform="translate(301.429562 322.182437) scale(0.1 -0.1)">
       <use xlink:href="#DejaVuSans-31"/>
       <use xlink:href="#DejaVuSans-35" x="63.623047"/>
       <use xlink:href="#DejaVuSans-30" x="127.246094"/>
       <use xlink:href="#DejaVuSans-30" x="190.869141"/>
       <use xlink:href="#DejaVuSans-30" x="254.492188"/>
      </g>
     </g>
    </g>
    <g id="xtick_8">
     <g id="line2d_8">
      <g>
       <use xlink:href="#m1c645f7782" x="357.919659" y="307.584" style="stroke: #000000; stroke-width: 0.8"/>
      </g>
     </g>
     <g id="text_8">
      <!-- 17500 -->
      <g transform="translate(342.013409 322.182437) scale(0.1 -0.1)">
       <use xlink:href="#DejaVuSans-31"/>
       <use xlink:href="#DejaVuSans-37" x="63.623047"/>
       <use xlink:href="#DejaVuSans-35" x="127.246094"/>
       <use xlink:href="#DejaVuSans-30" x="190.869141"/>
       <use xlink:href="#DejaVuSans-30" x="254.492188"/>
      </g>
     </g>
    </g>
    <g id="xtick_9">
     <g id="line2d_9">
      <g>
       <use xlink:href="#m1c645f7782" x="398.503506" y="307.584" style="stroke: #000000; stroke-width: 0.8"/>
      </g>
     </g>
     <g id="text_9">
      <!-- 20000 -->
      <g transform="translate(382.597256 322.182437) scale(0.1 -0.1)">
       <use xlink:href="#DejaVuSans-32"/>
       <use xlink:href="#DejaVuSans-30" x="63.623047"/>
       <use xlink:href="#DejaVuSans-30" x="127.246094"/>
       <use xlink:href="#DejaVuSans-30" x="190.869141"/>
       <use xlink:href="#DejaVuSans-30" x="254.492188"/>
      </g>
     </g>
    </g>
    <g id="text_10">
     <!-- epoch -->
     <g transform="translate(220.931875 335.860562) scale(0.1 -0.1)">
      <defs>
       <path id="DejaVuSans-65" d="M 3597 1894 
L 3597 1613 
L 953 1613 
Q 991 1019 1311 708 
Q 1631 397 2203 397 
Q 2534 397 2845 478 
Q 3156 559 3463 722 
L 3463 178 
Q 3153 47 2828 -22 
Q 2503 -91 2169 -91 
Q 1331 -91 842 396 
Q 353 884 353 1716 
Q 353 2575 817 3079 
Q 1281 3584 2069 3584 
Q 2775 3584 3186 3129 
Q 3597 2675 3597 1894 
z
M 3022 2063 
Q 3016 2534 2758 2815 
Q 2500 3097 2075 3097 
Q 1594 3097 1305 2825 
Q 1016 2553 972 2059 
L 3022 2063 
z
" transform="scale(0.015625)"/>
       <path id="DejaVuSans-70" d="M 1159 525 
L 1159 -1331 
L 581 -1331 
L 581 3500 
L 1159 3500 
L 1159 2969 
Q 1341 3281 1617 3432 
Q 1894 3584 2278 3584 
Q 2916 3584 3314 3078 
Q 3713 2572 3713 1747 
Q 3713 922 3314 415 
Q 2916 -91 2278 -91 
Q 1894 -91 1617 61 
Q 1341 213 1159 525 
z
M 3116 1747 
Q 3116 2381 2855 2742 
Q 2594 3103 2138 3103 
Q 1681 3103 1420 2742 
Q 1159 2381 1159 1747 
Q 1159 1113 1420 752 
Q 1681 391 2138 391 
Q 2594 391 2855 752 
Q 3116 1113 3116 1747 
z
" transform="scale(0.015625)"/>
       <path id="DejaVuSans-6f" d="M 1959 3097 
Q 1497 3097 1228 2736 
Q 959 2375 959 1747 
Q 959 1119 1226 758 
Q 1494 397 1959 397 
Q 2419 397 2687 759 
Q 2956 1122 2956 1747 
Q 2956 2369 2687 2733 
Q 2419 3097 1959 3097 
z
M 1959 3584 
Q 2709 3584 3137 3096 
Q 3566 2609 3566 1747 
Q 3566 888 3137 398 
Q 2709 -91 1959 -91 
Q 1206 -91 779 398 
Q 353 888 353 1747 
Q 353 2609 779 3096 
Q 1206 3584 1959 3584 
z
" transform="scale(0.015625)"/>
       <path id="DejaVuSans-63" d="M 3122 3366 
L 3122 2828 
Q 2878 2963 2633 3030 
Q 2388 3097 2138 3097 
Q 1578 3097 1268 2742 
Q 959 2388 959 1747 
Q 959 1106 1268 751 
Q 1578 397 2138 397 
Q 2388 397 2633 464 
Q 2878 531 3122 666 
L 3122 134 
Q 2881 22 2623 -34 
Q 2366 -91 2075 -91 
Q 1284 -91 818 406 
Q 353 903 353 1747 
Q 353 2603 823 3093 
Q 1294 3584 2113 3584 
Q 2378 3584 2631 3529 
Q 2884 3475 3122 3366 
z
" transform="scale(0.015625)"/>
       <path id="DejaVuSans-68" d="M 3513 2113 
L 3513 0 
L 2938 0 
L 2938 2094 
Q 2938 2591 2744 2837 
Q 2550 3084 2163 3084 
Q 1697 3084 1428 2787 
Q 1159 2491 1159 1978 
L 1159 0 
L 581 0 
L 581 4863 
L 1159 4863 
L 1159 2956 
Q 1366 3272 1645 3428 
Q 1925 3584 2291 3584 
Q 2894 3584 3203 3211 
Q 3513 2838 3513 2113 
z
" transform="scale(0.015625)"/>
      </defs>
      <use xlink:href="#DejaVuSans-65"/>
      <use xlink:href="#DejaVuSans-70" x="61.523438"/>
      <use xlink:href="#DejaVuSans-6f" x="125"/>
      <use xlink:href="#DejaVuSans-63" x="186.181641"/>
      <use xlink:href="#DejaVuSans-68" x="241.162109"/>
     </g>
    </g>
   </g>
   <g id="matplotlib.axis_2">
    <g id="ytick_1">
     <g id="line2d_10">
      <defs>
       <path id="m1eef529d75" d="M 0 0 
L -3.5 0 
" style="stroke: #000000; stroke-width: 0.8"/>
      </defs>
      <g>
       <use xlink:href="#m1eef529d75" x="57.6" y="264.914767" style="stroke: #000000; stroke-width: 0.8"/>
      </g>
     </g>
     <g id="text_11">
      <!-- $\mathdefault{10^{-2}}$ -->
      <g transform="translate(27.1 268.713986) scale(0.1 -0.1)">
       <defs>
        <path id="DejaVuSans-2212" d="M 678 2272 
L 4684 2272 
L 4684 1741 
L 678 1741 
L 678 2272 
z
" transform="scale(0.015625)"/>
       </defs>
       <use xlink:href="#DejaVuSans-31" transform="translate(0 0.765625)"/>
       <use xlink:href="#DejaVuSans-30" transform="translate(63.623047 0.765625)"/>
       <use xlink:href="#DejaVuSans-2212" transform="translate(128.203125 39.046875) scale(0.7)"/>
       <use xlink:href="#DejaVuSans-32" transform="translate(186.855469 39.046875) scale(0.7)"/>
      </g>
     </g>
    </g>
    <g id="ytick_2">
     <g id="line2d_11">
      <g>
       <use xlink:href="#m1eef529d75" x="57.6" y="213.549006" style="stroke: #000000; stroke-width: 0.8"/>
      </g>
     </g>
     <g id="text_12">
      <!-- $\mathdefault{10^{-1}}$ -->
      <g transform="translate(27.1 217.348224) scale(0.1 -0.1)">
       <use xlink:href="#DejaVuSans-31" transform="translate(0 0.684375)"/>
       <use xlink:href="#DejaVuSans-30" transform="translate(63.623047 0.684375)"/>
       <use xlink:href="#DejaVuSans-2212" transform="translate(128.203125 38.965625) scale(0.7)"/>
       <use xlink:href="#DejaVuSans-31" transform="translate(186.855469 38.965625) scale(0.7)"/>
      </g>
     </g>
    </g>
    <g id="ytick_3">
     <g id="line2d_12">
      <g>
       <use xlink:href="#m1eef529d75" x="57.6" y="162.183244" style="stroke: #000000; stroke-width: 0.8"/>
      </g>
     </g>
     <g id="text_13">
      <!-- $\mathdefault{10^{0}}$ -->
      <g transform="translate(33 165.982463) scale(0.1 -0.1)">
       <use xlink:href="#DejaVuSans-31" transform="translate(0 0.765625)"/>
       <use xlink:href="#DejaVuSans-30" transform="translate(63.623047 0.765625)"/>
       <use xlink:href="#DejaVuSans-30" transform="translate(128.203125 39.046875) scale(0.7)"/>
      </g>
     </g>
    </g>
    <g id="ytick_4">
     <g id="line2d_13">
      <g>
       <use xlink:href="#m1eef529d75" x="57.6" y="110.817482" style="stroke: #000000; stroke-width: 0.8"/>
      </g>
     </g>
     <g id="text_14">
      <!-- $\mathdefault{10^{1}}$ -->
      <g transform="translate(33 114.616701) scale(0.1 -0.1)">
       <use xlink:href="#DejaVuSans-31" transform="translate(0 0.684375)"/>
       <use xlink:href="#DejaVuSans-30" transform="translate(63.623047 0.684375)"/>
       <use xlink:href="#DejaVuSans-31" transform="translate(128.203125 38.965625) scale(0.7)"/>
      </g>
     </g>
    </g>
    <g id="ytick_5">
     <g id="line2d_14">
      <g>
       <use xlink:href="#m1eef529d75" x="57.6" y="59.45172" style="stroke: #000000; stroke-width: 0.8"/>
      </g>
     </g>
     <g id="text_15">
      <!-- $\mathdefault{10^{2}}$ -->
      <g transform="translate(33 63.250939) scale(0.1 -0.1)">
       <use xlink:href="#DejaVuSans-31" transform="translate(0 0.765625)"/>
       <use xlink:href="#DejaVuSans-30" transform="translate(63.623047 0.765625)"/>
       <use xlink:href="#DejaVuSans-32" transform="translate(128.203125 39.046875) scale(0.7)"/>
      </g>
     </g>
    </g>
    <g id="ytick_6">
     <g id="line2d_15">
      <defs>
       <path id="mf08f3458e9" d="M 0 0 
L -2 0 
" style="stroke: #000000; stroke-width: 0.6"/>
      </defs>
      <g>
       <use xlink:href="#mf08f3458e9" x="57.6" y="300.817894" style="stroke: #000000; stroke-width: 0.6"/>
      </g>
     </g>
    </g>
    <g id="ytick_7">
     <g id="line2d_16">
      <g>
       <use xlink:href="#mf08f3458e9" x="57.6" y="291.772832" style="stroke: #000000; stroke-width: 0.6"/>
      </g>
     </g>
    </g>
    <g id="ytick_8">
     <g id="line2d_17">
      <g>
       <use xlink:href="#mf08f3458e9" x="57.6" y="285.355259" style="stroke: #000000; stroke-width: 0.6"/>
      </g>
     </g>
    </g>
    <g id="ytick_9">
     <g id="line2d_18">
      <g>
       <use xlink:href="#mf08f3458e9" x="57.6" y="280.377402" style="stroke: #000000; stroke-width: 0.6"/>
      </g>
     </g>
    </g>
    <g id="ytick_10">
     <g id="line2d_19">
      <g>
       <use xlink:href="#mf08f3458e9" x="57.6" y="276.310197" style="stroke: #000000; stroke-width: 0.6"/>
      </g>
     </g>
    </g>
    <g id="ytick_11">
     <g id="line2d_20">
      <g>
       <use xlink:href="#mf08f3458e9" x="57.6" y="272.871424" style="stroke: #000000; stroke-width: 0.6"/>
      </g>
     </g>
    </g>
    <g id="ytick_12">
     <g id="line2d_21">
      <g>
       <use xlink:href="#mf08f3458e9" x="57.6" y="269.892624" style="stroke: #000000; stroke-width: 0.6"/>
      </g>
     </g>
    </g>
    <g id="ytick_13">
     <g id="line2d_22">
      <g>
       <use xlink:href="#mf08f3458e9" x="57.6" y="267.265136" style="stroke: #000000; stroke-width: 0.6"/>
      </g>
     </g>
    </g>
    <g id="ytick_14">
     <g id="line2d_23">
      <g>
       <use xlink:href="#mf08f3458e9" x="57.6" y="249.452132" style="stroke: #000000; stroke-width: 0.6"/>
      </g>
     </g>
    </g>
    <g id="ytick_15">
     <g id="line2d_24">
      <g>
       <use xlink:href="#mf08f3458e9" x="57.6" y="240.407071" style="stroke: #000000; stroke-width: 0.6"/>
      </g>
     </g>
    </g>
    <g id="ytick_16">
     <g id="line2d_25">
      <g>
       <use xlink:href="#mf08f3458e9" x="57.6" y="233.989497" style="stroke: #000000; stroke-width: 0.6"/>
      </g>
     </g>
    </g>
    <g id="ytick_17">
     <g id="line2d_26">
      <g>
       <use xlink:href="#mf08f3458e9" x="57.6" y="229.011641" style="stroke: #000000; stroke-width: 0.6"/>
      </g>
     </g>
    </g>
    <g id="ytick_18">
     <g id="line2d_27">
      <g>
       <use xlink:href="#mf08f3458e9" x="57.6" y="224.944436" style="stroke: #000000; stroke-width: 0.6"/>
      </g>
     </g>
    </g>
    <g id="ytick_19">
     <g id="line2d_28">
      <g>
       <use xlink:href="#mf08f3458e9" x="57.6" y="221.505663" style="stroke: #000000; stroke-width: 0.6"/>
      </g>
     </g>
    </g>
    <g id="ytick_20">
     <g id="line2d_29">
      <g>
       <use xlink:href="#mf08f3458e9" x="57.6" y="218.526862" style="stroke: #000000; stroke-width: 0.6"/>
      </g>
     </g>
    </g>
    <g id="ytick_21">
     <g id="line2d_30">
      <g>
       <use xlink:href="#mf08f3458e9" x="57.6" y="215.899374" style="stroke: #000000; stroke-width: 0.6"/>
      </g>
     </g>
    </g>
    <g id="ytick_22">
     <g id="line2d_31">
      <g>
       <use xlink:href="#mf08f3458e9" x="57.6" y="198.08637" style="stroke: #000000; stroke-width: 0.6"/>
      </g>
     </g>
    </g>
    <g id="ytick_23">
     <g id="line2d_32">
      <g>
       <use xlink:href="#mf08f3458e9" x="57.6" y="189.041309" style="stroke: #000000; stroke-width: 0.6"/>
      </g>
     </g>
    </g>
    <g id="ytick_24">
     <g id="line2d_33">
      <g>
       <use xlink:href="#mf08f3458e9" x="57.6" y="182.623735" style="stroke: #000000; stroke-width: 0.6"/>
      </g>
     </g>
    </g>
    <g id="ytick_25">
     <g id="line2d_34">
      <g>
       <use xlink:href="#mf08f3458e9" x="57.6" y="177.645879" style="stroke: #000000; stroke-width: 0.6"/>
      </g>
     </g>
    </g>
    <g id="ytick_26">
     <g id="line2d_35">
      <g>
       <use xlink:href="#mf08f3458e9" x="57.6" y="173.578674" style="stroke: #000000; stroke-width: 0.6"/>
      </g>
     </g>
    </g>
    <g id="ytick_27">
     <g id="line2d_36">
      <g>
       <use xlink:href="#mf08f3458e9" x="57.6" y="170.139901" style="stroke: #000000; stroke-width: 0.6"/>
      </g>
     </g>
    </g>
    <g id="ytick_28">
     <g id="line2d_37">
      <g>
       <use xlink:href="#mf08f3458e9" x="57.6" y="167.1611" style="stroke: #000000; stroke-width: 0.6"/>
      </g>
     </g>
    </g>
    <g id="ytick_29">
     <g id="line2d_38">
      <g>
       <use xlink:href="#mf08f3458e9" x="57.6" y="164.533612" style="stroke: #000000; stroke-width: 0.6"/>
      </g>
     </g>
    </g>
    <g id="ytick_30">
     <g id="line2d_39">
      <g>
       <use xlink:href="#mf08f3458e9" x="57.6" y="146.720609" style="stroke: #000000; stroke-width: 0.6"/>
      </g>
     </g>
    </g>
    <g id="ytick_31">
     <g id="line2d_40">
      <g>
       <use xlink:href="#mf08f3458e9" x="57.6" y="137.675547" style="stroke: #000000; stroke-width: 0.6"/>
      </g>
     </g>
    </g>
    <g id="ytick_32">
     <g id="line2d_41">
      <g>
       <use xlink:href="#mf08f3458e9" x="57.6" y="131.257974" style="stroke: #000000; stroke-width: 0.6"/>
      </g>
     </g>
    </g>
    <g id="ytick_33">
     <g id="line2d_42">
      <g>
       <use xlink:href="#mf08f3458e9" x="57.6" y="126.280117" style="stroke: #000000; stroke-width: 0.6"/>
      </g>
     </g>
    </g>
    <g id="ytick_34">
     <g id="line2d_43">
      <g>
       <use xlink:href="#mf08f3458e9" x="57.6" y="122.212912" style="stroke: #000000; stroke-width: 0.6"/>
      </g>
     </g>
    </g>
    <g id="ytick_35">
     <g id="line2d_44">
      <g>
       <use xlink:href="#mf08f3458e9" x="57.6" y="118.774139" style="stroke: #000000; stroke-width: 0.6"/>
      </g>
     </g>
    </g>
    <g id="ytick_36">
     <g id="line2d_45">
      <g>
       <use xlink:href="#mf08f3458e9" x="57.6" y="115.795339" style="stroke: #000000; stroke-width: 0.6"/>
      </g>
     </g>
    </g>
    <g id="ytick_37">
     <g id="line2d_46">
      <g>
       <use xlink:href="#mf08f3458e9" x="57.6" y="113.16785" style="stroke: #000000; stroke-width: 0.6"/>
      </g>
     </g>
    </g>
    <g id="ytick_38">
     <g id="line2d_47">
      <g>
       <use xlink:href="#mf08f3458e9" x="57.6" y="95.354847" style="stroke: #000000; stroke-width: 0.6"/>
      </g>
     </g>
    </g>
    <g id="ytick_39">
     <g id="line2d_48">
      <g>
       <use xlink:href="#mf08f3458e9" x="57.6" y="86.309785" style="stroke: #000000; stroke-width: 0.6"/>
      </g>
     </g>
    </g>
    <g id="ytick_40">
     <g id="line2d_49">
      <g>
       <use xlink:href="#mf08f3458e9" x="57.6" y="79.892212" style="stroke: #000000; stroke-width: 0.6"/>
      </g>
     </g>
    </g>
    <g id="ytick_41">
     <g id="line2d_50">
      <g>
       <use xlink:href="#mf08f3458e9" x="57.6" y="74.914355" style="stroke: #000000; stroke-width: 0.6"/>
      </g>
     </g>
    </g>
    <g id="ytick_42">
     <g id="line2d_51">
      <g>
       <use xlink:href="#mf08f3458e9" x="57.6" y="70.84715" style="stroke: #000000; stroke-width: 0.6"/>
      </g>
     </g>
    </g>
    <g id="ytick_43">
     <g id="line2d_52">
      <g>
       <use xlink:href="#mf08f3458e9" x="57.6" y="67.408377" style="stroke: #000000; stroke-width: 0.6"/>
      </g>
     </g>
    </g>
    <g id="ytick_44">
     <g id="line2d_53">
      <g>
       <use xlink:href="#mf08f3458e9" x="57.6" y="64.429577" style="stroke: #000000; stroke-width: 0.6"/>
      </g>
     </g>
    </g>
    <g id="ytick_45">
     <g id="line2d_54">
      <g>
       <use xlink:href="#mf08f3458e9" x="57.6" y="61.802089" style="stroke: #000000; stroke-width: 0.6"/>
      </g>
     </g>
    </g>
    <g id="ytick_46">
     <g id="line2d_55">
      <g>
       <use xlink:href="#mf08f3458e9" x="57.6" y="43.989085" style="stroke: #000000; stroke-width: 0.6"/>
      </g>
     </g>
    </g>
    <g id="text_16">
     <!-- mse -->
     <g transform="translate(21.020313 185.079562) rotate(-90) scale(0.1 -0.1)">
      <defs>
       <path id="DejaVuSans-6d" d="M 3328 2828 
Q 3544 3216 3844 3400 
Q 4144 3584 4550 3584 
Q 5097 3584 5394 3201 
Q 5691 2819 5691 2113 
L 5691 0 
L 5113 0 
L 5113 2094 
Q 5113 2597 4934 2840 
Q 4756 3084 4391 3084 
Q 3944 3084 3684 2787 
Q 3425 2491 3425 1978 
L 3425 0 
L 2847 0 
L 2847 2094 
Q 2847 2600 2669 2842 
Q 2491 3084 2119 3084 
Q 1678 3084 1418 2786 
Q 1159 2488 1159 1978 
L 1159 0 
L 581 0 
L 581 3500 
L 1159 3500 
L 1159 2956 
Q 1356 3278 1631 3431 
Q 1906 3584 2284 3584 
Q 2666 3584 2933 3390 
Q 3200 3197 3328 2828 
z
" transform="scale(0.015625)"/>
       <path id="DejaVuSans-73" d="M 2834 3397 
L 2834 2853 
Q 2591 2978 2328 3040 
Q 2066 3103 1784 3103 
Q 1356 3103 1142 2972 
Q 928 2841 928 2578 
Q 928 2378 1081 2264 
Q 1234 2150 1697 2047 
L 1894 2003 
Q 2506 1872 2764 1633 
Q 3022 1394 3022 966 
Q 3022 478 2636 193 
Q 2250 -91 1575 -91 
Q 1294 -91 989 -36 
Q 684 19 347 128 
L 347 722 
Q 666 556 975 473 
Q 1284 391 1588 391 
Q 1994 391 2212 530 
Q 2431 669 2431 922 
Q 2431 1156 2273 1281 
Q 2116 1406 1581 1522 
L 1381 1569 
Q 847 1681 609 1914 
Q 372 2147 372 2553 
Q 372 3047 722 3315 
Q 1072 3584 1716 3584 
Q 2034 3584 2315 3537 
Q 2597 3491 2834 3397 
z
" transform="scale(0.015625)"/>
      </defs>
      <use xlink:href="#DejaVuSans-6d"/>
      <use xlink:href="#DejaVuSans-73" x="97.412109"/>
      <use xlink:href="#DejaVuSans-65" x="149.511719"/>
     </g>
    </g>
   </g>
   <g id="line2d_56">
    <path d="M 73.832727 53.568 
L 74.173632 82.701641 
L 74.482069 130.234697 
L 74.693105 156.693199 
L 74.725572 156.530057 
L 74.839207 155.360394 
L 74.887907 155.566144 
L 75.066476 158.400082 
L 75.326213 161.068266 
L 76.072956 163.746208 
L 76.835932 166.966249 
L 77.19307 169.442687 
L 77.598908 174.200156 
L 78.410585 183.900852 
L 78.767723 185.721996 
L 79.141095 186.557966 
L 80.08264 187.855168 
L 81.738461 190.351729 
L 82.598838 192.022851 
L 83.053377 193.374889 
L 83.394282 195.160341 
L 83.735186 198.251509 
L 84.871534 209.360444 
L 85.553342 213.307873 
L 86.397486 216.793939 
L 87.176696 219.157183 
L 87.955906 220.815718 
L 88.832517 222.173435 
L 90.066266 223.547635 
L 92.24156 225.796922 
L 93.540244 227.268377 
L 96.299945 230.618233 
L 98.816144 233.261899 
L 100.13106 234.342553 
L 103.783607 236.696533 
L 109.319243 240.068464 
L 110.86143 241.400289 
L 112.19258 242.810686 
L 115.974994 246.642581 
L 117.500947 247.67781 
L 119.448972 248.712858 
L 122.728147 250.164097 
L 125.325513 251.048938 
L 128.669622 251.967293 
L 132.452036 252.828296 
L 136.461721 253.487002 
L 143.539544 254.572303 
L 153.831607 256.679928 
L 153.929008 256.605177 
L 153.993943 256.460192 
L 154.02641 256.647299 
L 154.091344 256.61778 
L 154.156278 256.732722 
L 154.188745 256.685764 
L 154.269913 256.728537 
L 156.396506 257.188015 
L 158.084794 257.429602 
L 158.165962 257.493762 
L 158.328298 257.55914 
L 158.669202 257.64743 
L 159.85425 257.829842 
L 160.016586 257.869245 
L 160.195154 257.921958 
L 160.487358 257.989162 
L 161.510071 258.174737 
L 162.208113 258.327467 
L 163.133425 258.425487 
L 163.198359 258.133739 
L 163.230826 258.273227 
L 163.360695 258.556408 
L 163.393162 258.474938 
L 163.474329 258.534921 
L 164.318473 258.76049 
L 167.061941 259.285924 
L 167.126876 259.175223 
L 167.175576 259.304386 
L 167.305445 259.370541 
L 167.451546 259.429671 
L 167.857385 259.498209 
L 169.626841 259.790117 
L 169.756709 259.699588 
L 169.789176 259.788794 
L 169.919044 259.831486 
L 170.097613 259.910094 
L 178.668922 261.334061 
L 178.733856 261.26712 
L 178.766323 261.324295 
L 178.831257 261.467092 
L 178.912425 261.438268 
L 179.090994 261.518105 
L 179.870204 261.676411 
L 181.071486 261.794866 
L 181.13642 261.597285 
L 181.18512 261.788429 
L 181.314989 261.924261 
L 181.461091 261.972728 
L 181.623426 261.998118 
L 181.996797 262.076806 
L 184.431828 262.413512 
L 184.512996 261.958082 
L 184.545463 262.152663 
L 184.675331 262.539241 
L 184.707798 262.47484 
L 184.724032 262.431564 
L 184.772732 262.56777 
L 184.8052 262.518026 
L 184.918834 262.558965 
L 185.097403 262.615346 
L 185.600643 262.718091 
L 188.928518 263.243092 
L 189.042153 263.222018 
L 189.058387 263.24897 
L 189.220722 263.338515 
L 190.486938 263.528772 
L 190.584339 263.480501 
L 190.616806 263.530052 
L 190.779142 263.619268 
L 191.217447 263.73557 
L 192.061591 263.823981 
L 192.158993 263.651873 
L 192.207693 263.777335 
L 192.256394 263.928378 
L 192.337562 263.85978 
L 192.597298 263.982862 
L 193.035604 264.074311 
L 194.155718 264.195836 
L 194.236886 264.095874 
L 194.269353 264.186725 
L 194.334287 264.359645 
L 194.399221 264.299172 
L 194.821293 264.47291 
L 195.973874 264.777662 
L 196.233611 264.749478 
L 196.331012 264.391252 
L 196.363479 264.603535 
L 196.41218 264.91547 
L 196.493348 264.816294 
L 196.639449 264.974272 
L 196.91542 265.056628 
L 197.353725 265.18188 
L 198.733576 265.50106 
L 198.830977 265.370518 
L 198.879678 265.482221 
L 198.960845 265.643128 
L 199.009546 265.601421 
L 199.106947 265.676267 
L 199.382918 265.759798 
L 200.567966 265.90867 
L 200.649134 265.610691 
L 200.681601 265.761352 
L 200.746535 266.127469 
L 200.811469 265.986888 
L 200.990038 266.195554 
L 201.249774 266.273429 
L 201.834182 266.44394 
L 203.214033 266.723192 
L 203.360135 266.796974 
L 203.587404 266.90992 
L 204.171811 267.063955 
L 204.464015 267.157963 
L 204.707518 267.092591 
L 204.80492 267.113553 
L 204.821153 267.143269 
L 204.999722 267.274361 
L 205.162057 267.346199 
L 205.502962 267.445868 
L 206.13607 267.645183 
L 206.574375 267.710148 
L 206.752944 267.759168 
L 206.980214 267.93002 
L 207.678256 267.998904 
L 207.759424 267.845138 
L 207.808124 267.969234 
L 207.889292 268.272719 
L 207.954226 268.206485 
L 208.457466 268.477218 
L 209.07434 268.651999 
L 209.236676 268.444597 
L 209.285376 268.572795 
L 209.382778 268.825013 
L 209.447712 268.787865 
L 209.561346 268.882829 
L 209.85355 269.027362 
L 210.470425 269.263278 
L 210.567826 269.137031 
L 210.665227 268.882368 
L 210.697694 268.985781 
L 210.778862 269.442096 
L 210.86003 269.333544 
L 211.574305 269.759456 
L 212.028844 269.832941 
L 212.126246 269.461882 
L 212.174946 269.219792 
L 212.223647 269.49781 
L 212.288581 270.014167 
L 212.353515 269.796534 
L 212.402216 269.938148 
L 212.450916 270.070504 
L 212.532084 270.015003 
L 212.759354 270.173052 
L 213.262593 270.347819 
L 213.847001 270.442778 
L 213.944402 270.090457 
L 214.009336 269.804425 
L 214.041803 269.972217 
L 214.122971 270.643968 
L 214.187905 270.436787 
L 214.236606 270.538297 
L 214.30154 270.704244 
L 214.366474 270.645054 
L 215.665157 271.15866 
L 215.730091 271.035426 
L 215.811259 270.031988 
L 215.85996 269.219089 
L 215.892427 269.885732 
L 215.941127 271.293172 
L 216.022295 270.789804 
L 216.070996 271.315386 
L 216.152163 271.236872 
L 216.233331 271.218502 
L 216.282032 271.402202 
L 216.428133 271.468886 
L 216.346966 271.356084 
L 216.444367 271.456407 
L 216.558002 271.518025 
L 216.752804 271.59604 
L 217.402146 271.844753 
L 219.009266 272.370349 
L 219.0255 272.318121 
L 219.0742 271.731459 
L 219.155368 267.074687 
L 219.187835 268.829123 
L 219.317703 272.537543 
L 219.35017 271.141455 
L 219.398871 272.567211 
L 219.431338 271.844023 
L 219.447572 271.772761 
L 219.463805 272.194354 
L 219.528739 272.119995 
L 219.57744 272.599412 
L 219.609907 272.347348 
L 219.658608 272.649018 
L 219.691075 272.495359 
L 219.820943 272.712576 
L 219.85341 272.666097 
L 220.535219 272.96151 
L 223.733226 273.971418 
L 223.79816 273.325827 
L 223.895561 269.076578 
L 223.928028 271.038351 
L 223.960495 274.07907 
L 224.057897 273.788124 
L 224.122831 273.078093 
L 224.171531 274.23204 
L 224.220232 273.653913 
L 224.268933 274.258338 
L 224.285166 274.245334 
L 224.317633 273.973022 
L 224.382567 274.30179 
L 224.398801 274.22549 
L 224.415035 274.158293 
L 224.479969 274.342352 
L 224.528669 274.269196 
L 224.57737 274.374765 
L 224.772172 274.429424 
L 225.12931 274.548693 
L 227.207203 275.1321 
L 227.272137 274.729186 
L 227.353305 272.254821 
L 227.402006 271.000695 
L 227.434473 272.929043 
L 227.483173 275.237484 
L 227.548108 273.839316 
L 227.596808 275.374904 
L 227.694209 275.229479 
L 227.775377 275.042272 
L 227.824078 275.440823 
L 227.856545 275.372269 
L 227.889012 275.278274 
L 227.937713 275.473658 
L 228.002647 275.421071 
L 228.100048 275.523931 
L 228.213683 275.579994 
L 228.440952 275.655436 
L 229.561066 276.053264 
L 230.064306 276.116369 
L 230.12924 275.657155 
L 230.210408 272.452907 
L 230.259109 270.689278 
L 230.291576 273.381893 
L 230.324043 276.267874 
L 230.421444 275.694615 
L 230.437678 276.303578 
L 230.486378 275.210336 
L 230.535079 276.166773 
L 230.551312 276.377699 
L 230.600013 275.782124 
L 230.648714 276.358184 
L 230.664947 276.404043 
L 230.681181 276.293956 
L 230.713648 276.119096 
L 230.762348 276.431211 
L 230.794815 276.372367 
L 230.827282 276.310211 
L 230.875983 276.473558 
L 231.18442 276.553481 
L 231.590259 276.686874 
L 233.262313 277.098311 
L 233.327247 276.814461 
L 233.392182 274.887022 
L 233.473349 268.978823 
L 233.505816 273.217927 
L 233.635685 277.224685 
L 233.684385 275.169997 
L 233.733086 277.274882 
L 233.781787 276.140778 
L 233.927888 277.30158 
L 233.960355 276.982767 
L 234.009056 277.333473 
L 234.041523 277.222255 
L 234.057757 277.159583 
L 234.106457 277.366214 
L 234.268793 277.363517 
L 234.431128 277.442804 
L 234.658398 277.50898 
L 237.028494 278.029792 
L 237.093428 277.591357 
L 237.174596 274.597694 
L 237.223297 271.852535 
L 237.271997 275.175236 
L 237.304464 278.195403 
L 237.385632 276.292285 
L 237.434333 278.186362 
L 237.515501 277.866042 
L 237.596668 277.673086 
L 237.645369 278.306689 
L 237.677836 278.167303 
L 237.710303 278.028675 
L 237.759004 278.346467 
L 237.791471 278.289163 
L 237.823938 278.218789 
L 237.872638 278.378884 
L 238.164842 278.462196 
L 238.473279 278.560698 
L 240.031699 278.958587 
L 240.096633 278.759786 
L 240.161567 277.537858 
L 240.258969 270.768966 
L 240.291436 273.481954 
L 240.340136 278.860328 
L 240.421304 278.076644 
L 240.437538 279.074628 
L 240.486238 277.20901 
L 240.534939 279.039576 
L 240.551172 279.066441 
L 240.583639 278.165989 
L 240.648574 279.157102 
L 240.664807 278.92974 
L 240.697274 278.65547 
L 240.745975 279.199657 
L 240.762208 279.107997 
L 240.794675 278.921724 
L 240.843376 279.223993 
L 240.85961 279.201482 
L 240.892077 279.085562 
L 240.957011 279.252362 
L 241.005711 279.190927 
L 241.054412 279.283093 
L 241.281682 279.343013 
L 241.91479 279.503652 
L 243.440742 279.780352 
L 243.505676 279.550838 
L 243.570611 278.253073 
L 243.668012 271.92339 
L 243.700479 274.558313 
L 243.749179 279.778447 
L 243.830347 278.552234 
L 243.911515 278.22673 
L 243.960215 279.946398 
L 244.008916 279.04649 
L 244.057617 279.916006 
L 244.07385 279.952286 
L 244.090084 279.753054 
L 244.122551 279.523441 
L 244.171251 279.996322 
L 244.219952 279.761684 
L 244.268653 279.994047 
L 244.398521 280.043768 
L 244.333587 279.906332 
L 244.414755 280.02323 
L 244.447222 279.99545 
L 244.512156 280.070113 
L 244.690725 280.09917 
L 245.145264 280.220628 
L 246.801085 280.538928 
L 246.866019 279.959413 
L 246.947187 275.55338 
L 246.995887 271.997762 
L 247.028354 275.021847 
L 247.077055 280.495167 
L 247.158223 279.606616 
L 247.174456 280.70444 
L 247.223157 278.828378 
L 247.271857 280.616271 
L 247.288091 280.777198 
L 247.304324 280.343744 
L 247.336792 279.788936 
L 247.385492 280.837004 
L 247.401726 280.681404 
L 247.434193 280.286238 
L 247.482893 280.852863 
L 247.499127 280.829048 
L 247.531594 280.587787 
L 247.596528 280.892318 
L 247.645229 280.754115 
L 247.693929 280.918048 
L 247.986133 280.975367 
L 248.327037 281.076679 
L 250.08026 281.34035 
L 250.145194 280.825773 
L 250.226361 277.463349 
L 250.291296 274.1174 
L 250.323763 277.320945 
L 250.35623 281.356649 
L 250.437398 278.922018 
L 250.486098 281.575008 
L 250.567266 280.856753 
L 250.599733 281.606561 
L 250.697134 281.545011 
L 250.713368 281.636265 
L 250.762068 281.27789 
L 250.956871 281.68963 
L 250.989338 281.630093 
L 251.054272 281.717003 
L 251.346476 281.796514 
L 251.995817 281.948105 
L 253.115931 282.122209 
L 253.180866 281.695618 
L 253.2458 279.038772 
L 253.326967 271.596522 
L 253.359435 276.71815 
L 253.391902 282.262858 
L 253.489303 282.158697 
L 253.538003 279.554152 
L 253.586704 282.256777 
L 253.651638 281.158901 
L 253.781507 282.346595 
L 253.830207 281.89835 
L 253.878908 282.36336 
L 253.911375 282.1357 
L 253.927608 282.132245 
L 254.07371 282.407671 
L 254.122411 282.345542 
L 254.203579 282.403487 
L 254.382147 282.475779 
L 254.787986 282.564138 
L 256.930813 283.019098 
L 256.995747 282.688752 
L 257.060681 280.723882 
L 257.141849 273.068755 
L 257.19055 278.428036 
L 257.223017 283.144941 
L 257.271717 278.416367 
L 257.320418 282.938176 
L 257.336652 282.985548 
L 257.369119 280.788244 
L 257.434053 283.16599 
L 257.450286 282.577039 
L 257.482753 281.920305 
L 257.531454 283.218938 
L 257.547688 282.922846 
L 257.580155 282.524733 
L 257.628855 283.251303 
L 257.645089 283.112075 
L 257.677556 282.868242 
L 257.726256 283.27509 
L 257.74249 283.222037 
L 257.774957 283.071199 
L 257.823658 283.292473 
L 257.839891 283.285158 
L 257.872358 283.197837 
L 257.937293 283.32049 
L 258.067161 283.333814 
L 258.229496 283.378062 
L 258.619101 283.470007 
L 260.469725 283.767154 
L 260.534659 283.428577 
L 260.599593 281.432847 
L 260.696994 273.463001 
L 260.729461 278.823462 
L 260.761928 283.886326 
L 260.85933 283.641153 
L 260.875563 283.713605 
L 260.90803 281.418719 
L 260.972964 283.88821 
L 260.989198 283.272816 
L 261.021665 282.593095 
L 261.070366 283.937158 
L 261.086599 283.623979 
L 261.119066 283.211197 
L 261.167767 283.966058 
L 261.184 283.815982 
L 261.216467 283.564213 
L 261.265168 283.985883 
L 261.281402 283.92595 
L 261.313869 283.770618 
L 261.362569 283.999525 
L 261.378803 283.98709 
L 261.41127 283.894205 
L 261.476204 284.020288 
L 261.606072 284.024312 
L 261.768408 284.062144 
L 262.125546 284.12589 
L 263.943702 284.367416 
L 264.008636 284.191795 
L 264.07357 283.107055 
L 264.187205 273.687563 
L 264.219672 277.375407 
L 264.252139 284.14665 
L 264.34954 283.391766 
L 264.365774 284.464121 
L 264.414475 281.812465 
L 264.463175 284.445421 
L 264.511876 283.052069 
L 264.560576 284.456803 
L 264.609277 283.731778 
L 264.771612 284.518642 
L 264.804079 284.330007 
L 264.820313 284.31477 
L 264.836547 284.392258 
L 264.966415 284.545338 
L 267.385212 284.822793 
L 267.450146 284.545122 
L 267.51508 283.071218 
L 267.612482 275.346043 
L 267.661182 280.58241 
L 267.693649 284.940173 
L 267.791051 284.201746 
L 267.807284 284.956767 
L 267.855985 282.78275 
L 267.904685 284.816343 
L 267.920919 284.929149 
L 267.937152 284.467013 
L 267.96962 283.872692 
L 268.01832 284.98412 
L 268.034554 284.884184 
L 268.067021 284.419223 
L 268.131955 285.004562 
L 268.180656 284.714684 
L 268.229356 285.009985 
L 268.24559 285.017497 
L 268.261823 284.958376 
L 268.29429 284.884756 
L 268.342991 285.037045 
L 269.34947 285.193694 
L 270.599453 285.296791 
L 270.664387 284.921764 
L 270.729321 282.653999 
L 270.810489 273.892046 
L 270.85919 280.535289 
L 270.940357 279.895919 
L 270.989058 285.388584 
L 271.037758 282.434411 
L 271.086459 285.410364 
L 271.13516 283.797225 
L 271.281262 285.476432 
L 271.297495 285.341758 
L 271.329962 284.984881 
L 271.378663 285.492558 
L 271.41113 285.278074 
L 271.427363 285.227231 
L 271.45983 285.439301 
L 271.573465 285.521069 
L 271.524765 285.368797 
L 271.589699 285.514715 
L 271.622166 285.454801 
L 271.703334 285.52665 
L 271.833202 285.544505 
L 273.407855 285.844637 
L 274.235766 285.882846 
L 274.3007 285.435782 
L 274.365634 282.944133 
L 274.446802 274.908847 
L 274.479269 278.0342 
L 274.527969 285.811368 
L 274.609137 284.394387 
L 274.625371 285.936178 
L 274.674071 283.357528 
L 274.722772 285.860709 
L 274.739005 285.974812 
L 274.755239 285.304187 
L 274.771472 284.675758 
L 274.836407 286.058787 
L 274.85264 285.749345 
L 274.885107 285.305286 
L 274.933808 286.086355 
L 274.950041 285.965088 
L 274.982508 285.668568 
L 275.031209 286.092981 
L 275.047443 286.069489 
L 275.07991 285.887166 
L 275.144844 286.11299 
L 275.193544 286.005684 
L 275.258479 286.123496 
L 275.307179 286.081053 
L 275.372113 286.139762 
L 275.534449 286.152666 
L 275.988988 286.224382 
L 277.709743 286.316314 
L 277.774677 285.699117 
L 277.839611 282.019773 
L 277.904545 273.791004 
L 277.953246 281.540572 
L 278.034414 280.391499 
L 278.083114 286.437851 
L 278.131815 283.108041 
L 278.212983 284.632822 
L 278.229216 284.691122 
L 278.359084 286.484254 
L 278.407785 285.887712 
L 278.456486 286.508494 
L 278.505186 286.175905 
L 278.651288 286.530145 
L 278.699989 286.436969 
L 278.781157 286.50121 
L 278.927258 286.550846 
L 279.154528 286.588619 
L 281.021385 286.789909 
L 281.313589 286.723187 
L 281.394756 286.274495 
L 281.475924 283.784182 
L 281.557092 279.018767 
L 281.589559 281.122351 
L 281.638259 286.806402 
L 281.719427 284.126276 
L 281.768128 286.846782 
L 281.849295 285.730586 
L 281.897996 286.893911 
L 281.979164 286.43399 
L 282.027864 286.905933 
L 282.092798 286.624382 
L 282.157733 286.925473 
L 282.2389 286.828283 
L 282.303834 286.938725 
L 282.368769 286.894534 
L 282.612272 286.975952 
L 283.29408 287.046681 
L 283.781087 287.014638 
L 283.862254 286.613538 
L 283.943422 284.226147 
L 284.02459 278.810225 
L 284.07329 282.903789 
L 284.105757 286.978106 
L 284.186925 284.102797 
L 284.235626 287.120338 
L 284.333027 286.566263 
L 284.365494 287.155192 
L 284.414195 286.41718 
L 284.446662 286.746495 
L 284.479129 287.173587 
L 284.560296 286.906272 
L 284.608997 287.197598 
L 284.690165 287.080471 
L 284.738865 287.213037 
L 284.820033 287.159862 
L 284.998602 287.237178 
L 285.35574 287.283973 
L 286.524555 287.329211 
L 286.589489 287.008109 
L 286.654423 285.097882 
L 286.751824 275.43111 
L 286.784291 279.634026 
L 286.816758 287.149616 
L 286.91416 286.360014 
L 286.930393 287.436455 
L 286.979094 284.423813 
L 287.027794 287.433342 
L 287.076495 285.799831 
L 287.125196 287.439302 
L 287.173896 286.570111 
L 287.336232 287.463793 
L 287.352465 287.348988 
L 287.384932 287.24303 
L 287.433633 287.487964 
L 287.449866 287.444039 
L 287.482333 287.358374 
L 287.531034 287.495575 
L 287.547268 287.489531 
L 287.595968 287.438964 
L 287.660902 287.499376 
L 287.807004 287.505096 
L 288.505046 287.591839 
L 290.1284 287.667241 
L 290.193334 287.085149 
L 290.258269 283.533545 
L 290.339436 274.533763 
L 290.371903 281.350418 
L 290.453071 281.229207 
L 290.501772 287.807403 
L 290.550472 284.160411 
L 290.599173 287.831906 
L 290.63164 286.016426 
L 290.647873 285.828312 
L 290.664107 286.639567 
L 290.696574 287.806404 
L 290.793975 287.784493 
L 290.826442 287.212348 
L 290.875143 287.861916 
L 290.90761 287.600964 
L 290.923844 287.511653 
L 290.956311 287.790948 
L 291.021245 287.687201 
L 291.069945 287.892883 
L 291.118646 287.789981 
L 291.216047 287.851244 
L 291.443317 287.928186 
L 291.751754 287.975094 
L 293.829647 288.17709 
L 293.894581 288.002577 
L 293.959515 287.096647 
L 294.040683 281.558264 
L 294.089384 277.96253 
L 294.121851 281.473508 
L 294.170551 288.110479 
L 294.251719 286.112316 
L 294.284186 288.248762 
L 294.332887 285.978823 
L 294.381587 288.146575 
L 294.397821 288.229716 
L 294.414055 287.754363 
L 294.446522 287.127492 
L 294.495222 288.271778 
L 294.527689 287.964931 
L 294.560156 287.728421 
L 294.608857 288.302386 
L 294.673791 288.02953 
L 294.722492 288.314978 
L 294.917294 288.277254 
L 295.07963 288.347879 
L 295.680271 288.406437 
L 296.865319 288.429729 
L 296.930253 288.074466 
L 296.995187 286.242796 
L 297.092588 277.702633 
L 297.125056 280.588144 
L 297.173756 288.501716 
L 297.254924 286.053129 
L 297.287391 288.533525 
L 297.384792 288.456273 
L 297.401026 288.456004 
L 297.449726 287.31951 
L 297.498427 288.569899 
L 297.547128 287.903339 
L 297.595828 288.521522 
L 297.612062 288.574232 
L 297.628295 288.451766 
L 297.660762 288.243227 
L 297.725696 288.582062 
L 297.774397 288.426855 
L 297.823098 288.595378 
L 299.381517 288.749909 
L 299.998392 288.711067 
L 300.063326 288.357041 
L 300.12826 286.484035 
L 300.225661 277.527635 
L 300.258129 280.570472 
L 300.306829 288.752311 
L 300.387997 286.401769 
L 300.469165 286.192602 
L 300.517865 288.80453 
L 300.566566 287.481004 
L 300.615266 288.707656 
L 300.6315 288.842281 
L 300.663967 288.232898 
L 300.680201 288.133853 
L 300.696434 288.337149 
L 300.728901 288.851922 
L 300.826302 288.814693 
L 300.891237 288.68484 
L 300.956171 288.88056 
L 301.004871 288.789106 
L 301.069805 288.890558 
L 301.248374 288.882891 
L 301.621746 288.931953 
L 303.310034 288.931676 
L 303.374968 288.216301 
L 303.439902 284.140462 
L 303.504836 275.603523 
L 303.537303 278.852786 
L 303.586004 288.698205 
L 303.667172 287.723763 
L 303.732106 285.457796 
L 303.780806 289.095348 
L 303.829507 287.106254 
L 303.910675 288.034724 
L 303.926908 288.044831 
L 304.056777 289.096302 
L 304.07301 289.088556 
L 304.105477 288.780166 
L 304.154178 289.11961 
L 304.186645 289.015992 
L 304.202879 288.948158 
L 304.251579 289.131013 
L 304.284046 289.084685 
L 304.30028 289.045025 
L 304.365214 289.147161 
L 304.381447 289.125626 
L 304.511316 289.132102 
L 304.933388 289.190184 
L 306.946347 289.201793 
L 307.011281 288.698056 
L 307.076215 286.262308 
L 307.157383 278.538283 
L 307.206083 283.720077 
L 307.23855 289.305793 
L 307.335952 288.017225 
L 307.352185 289.281399 
L 307.400886 286.987042 
L 307.449586 288.922005 
L 307.46582 289.369293 
L 307.51452 288.092586 
L 307.563221 289.269777 
L 307.579455 289.360942 
L 307.595688 289.118018 
L 307.628155 288.729903 
L 307.676856 289.362425 
L 307.693089 289.356997 
L 307.74179 289.066174 
L 307.790491 289.385008 
L 307.985293 289.341488 
L 308.131395 289.402032 
L 308.407365 289.424735 
L 309.884617 289.449747 
L 309.965785 289.142835 
L 310.046953 287.235346 
L 310.144354 280.398122 
L 310.193054 284.944171 
L 310.225521 289.392625 
L 310.306689 286.208426 
L 310.35539 289.524987 
L 310.436557 288.255553 
L 310.485258 289.517179 
L 310.566426 289.125054 
L 310.598893 289.554674 
L 310.680061 289.268232 
L 310.728761 289.560487 
L 310.809929 289.444328 
L 310.858629 289.569108 
L 310.939797 289.514314 
L 311.085899 289.560474 
L 311.296935 289.594673 
L 312.644319 289.470242 
L 312.709253 288.635347 
L 312.790421 282.937412 
L 312.839121 278.145349 
L 312.871588 281.014674 
L 312.920289 289.652721 
L 313.001457 287.026564 
L 313.033924 289.666257 
L 313.082624 286.967358 
L 313.131325 289.62662 
L 313.163792 288.865582 
L 313.180026 288.328665 
L 313.24496 289.705562 
L 313.29366 288.964788 
L 313.342361 289.689372 
L 313.358594 289.680843 
L 313.407295 289.350577 
L 313.455996 289.719729 
L 313.504696 289.532581 
L 313.56963 289.726978 
L 313.618331 289.632925 
L 313.715732 289.703756 
L 313.861834 289.721238 
L 314.381307 289.773615 
L 315.874793 289.754219 
L 315.939727 289.272714 
L 316.004661 286.559669 
L 316.085829 277.100348 
L 316.13453 284.212255 
L 316.166997 289.786342 
L 316.215697 283.688006 
L 316.264398 289.650624 
L 316.280631 289.511457 
L 316.313099 286.659169 
L 316.378033 289.796781 
L 316.394266 288.972723 
L 316.4105 288.18831 
L 316.475434 289.865068 
L 316.491667 289.450407 
L 316.524135 288.957703 
L 316.572835 289.89232 
L 316.589069 289.695894 
L 316.621536 289.38311 
L 316.670236 289.903341 
L 316.68647 289.826598 
L 316.718937 289.625524 
L 316.767638 289.903602 
L 316.783871 289.889233 
L 316.816338 289.766785 
L 316.881272 289.913875 
L 316.897506 289.886394 
L 316.929973 289.841062 
L 317.011141 289.900599 
L 317.157243 289.912636 
L 317.498147 289.949792 
L 319.267603 289.950958 
L 319.332537 289.577548 
L 319.413705 287.054379 
L 319.494872 280.558499 
L 319.543573 284.479944 
L 319.592273 289.912934 
L 319.657208 286.422672 
L 319.705908 290.073622 
L 319.803309 289.531608 
L 319.819543 290.045561 
L 319.884477 289.161279 
L 319.916944 289.751594 
L 319.949411 290.108226 
L 319.998112 289.660782 
L 320.030579 289.885009 
L 320.063046 290.124877 
L 320.144214 289.973339 
L 320.192914 290.135898 
L 320.274082 290.073927 
L 320.420184 290.134825 
L 320.614986 290.16901 
L 321.442897 290.23026 
L 322.092238 290.194951 
L 322.157173 289.851747 
L 322.222107 287.995829 
L 322.319508 278.249793 
L 322.368209 284.935384 
L 322.400676 290.277644 
L 322.449376 284.703896 
L 322.498077 289.735329 
L 322.51431 290.243601 
L 322.530544 289.099574 
L 322.563011 287.399542 
L 322.611712 290.300716 
L 322.627945 290.001751 
L 322.660412 288.762381 
L 322.725346 290.272093 
L 322.774047 289.54581 
L 322.822748 290.336665 
L 322.838981 290.208221 
L 322.871448 289.906167 
L 322.920149 290.329745 
L 322.936382 290.328393 
L 322.985083 290.134521 
L 323.033784 290.35456 
L 323.196119 290.313839 
L 323.748059 290.418701 
L 325.387647 290.527576 
L 325.452581 290.349857 
L 325.517515 289.311005 
L 325.598683 282.332119 
L 325.647383 278.135419 
L 325.679851 283.325601 
L 325.712318 290.491211 
L 325.809719 289.463773 
L 325.825952 290.60825 
L 325.874653 287.509204 
L 325.923354 290.526374 
L 325.939587 290.424915 
L 325.972054 289.002042 
L 326.036988 290.603961 
L 326.053222 290.239083 
L 326.085689 289.773532 
L 326.13439 290.640802 
L 326.150623 290.519872 
L 326.18309 290.178639 
L 326.231791 290.632614 
L 326.248024 290.62976 
L 326.296725 290.426802 
L 326.345426 290.660133 
L 326.394126 290.540968 
L 326.491527 290.621982 
L 326.637629 290.662677 
L 326.848665 290.70081 
L 328.861624 290.796345 
L 328.926558 290.190322 
L 328.991492 286.714551 
L 329.07266 277.136365 
L 329.105127 282.58688 
L 329.137594 290.862857 
L 329.234996 290.307833 
L 329.251229 290.800583 
L 329.267463 289.140292 
L 329.29993 287.478759 
L 329.34863 290.902673 
L 329.364864 289.997814 
L 329.397331 289.057939 
L 329.446032 290.928095 
L 329.462265 290.407802 
L 329.478499 289.911363 
L 329.543433 290.954324 
L 329.559666 290.664388 
L 329.5759 290.400979 
L 329.640834 290.982754 
L 329.657068 290.830499 
L 329.673301 290.68516 
L 329.738235 291.006177 
L 329.754469 290.934841 
L 329.786936 290.840738 
L 329.835637 291.020682 
L 329.85187 290.994901 
L 329.884337 290.930603 
L 329.933038 291.0285 
L 329.965505 291.00604 
L 330.095373 291.02331 
L 330.598613 291.102791 
L 332.449236 291.292344 
L 332.51417 291.09432 
L 332.579105 289.875448 
L 332.660272 281.650316 
L 332.692739 277.790919 
L 332.74144 285.309523 
L 332.773907 291.261596 
L 332.822608 284.708482 
L 332.871308 291.221195 
L 332.920009 287.821359 
L 332.96871 291.219455 
L 332.984943 291.210809 
L 333.01741 289.462841 
L 333.082344 291.321834 
L 333.098578 290.787956 
L 333.114811 290.358118 
L 333.179746 291.384599 
L 333.195979 291.106092 
L 333.212213 290.860954 
L 333.277147 291.424024 
L 333.29338 291.288652 
L 333.325847 291.137623 
L 333.374548 291.446515 
L 333.390782 291.391091 
L 333.423249 291.283433 
L 333.471949 291.456937 
L 333.488183 291.446435 
L 333.52065 291.377631 
L 333.601818 291.458156 
L 333.731686 291.469914 
L 334.640764 291.604595 
L 336.069315 291.694931 
L 336.13425 291.25965 
L 336.199184 288.584329 
L 336.296585 277.470832 
L 336.329052 284.356383 
L 336.361519 291.801348 
L 336.45892 291.633093 
L 336.507621 287.928786 
L 336.556322 291.73102 
L 336.621256 290.070989 
L 336.751124 291.868017 
L 336.799825 291.198929 
L 336.848525 291.883646 
L 336.897226 291.51874 
L 337.043328 291.906178 
L 337.059561 291.888735 
L 337.092028 291.804912 
L 337.140729 291.91524 
L 337.173196 291.892539 
L 337.286831 291.914869 
L 337.5141 291.960847 
L 339.62446 292.037259 
L 339.689395 291.260528 
L 339.770562 286.51252 
L 339.835497 281.608624 
L 339.867964 285.367119 
L 339.916664 292.214154 
L 339.997832 289.472501 
L 340.030299 292.261521 
L 340.1277 291.667874 
L 340.143934 292.264705 
L 340.208868 291.229614 
L 340.241335 291.956338 
L 340.273802 292.326717 
L 340.322503 291.805509 
L 340.35497 292.110144 
L 340.387437 292.362075 
L 340.468605 292.206268 
L 340.517305 292.371654 
L 340.598473 292.323642 
L 340.728341 292.373051 
L 340.90691 292.426348 
L 342.416629 292.51504 
L 342.481563 292.112776 
L 342.546498 289.996679 
L 342.643899 279.865423 
L 342.692599 287.278962 
L 342.725066 292.595808 
L 342.773767 286.709272 
L 342.822468 292.031528 
L 342.838701 292.604332 
L 342.871168 290.008493 
L 342.887402 289.571692 
L 342.903635 290.378614 
L 342.936102 292.624635 
L 343.033504 292.519062 
L 343.049737 292.668668 
L 343.082204 291.943199 
L 343.098438 291.837259 
L 343.114671 292.086551 
L 343.147138 292.687569 
L 343.24454 292.650948 
L 343.309474 292.48785 
L 343.374408 292.719759 
L 343.423109 292.614453 
L 343.488043 292.733577 
L 343.634145 292.732827 
L 343.828947 292.767841 
L 344.62439 292.854848 
L 345.776972 292.903862 
L 345.841906 292.435894 
L 345.90684 288.950448 
L 345.988008 274.664029 
L 346.020475 280.289899 
L 346.150343 292.990782 
L 346.199044 287.48468 
L 346.280211 289.475583 
L 346.41008 292.993006 
L 346.442547 291.76938 
L 346.491247 293.040512 
L 346.523715 292.331402 
L 346.539948 292.375017 
L 346.572415 293.042912 
L 346.669816 293.027543 
L 346.702283 292.803014 
L 346.750984 293.063872 
L 346.783451 292.926265 
L 347.124355 293.096899 
L 347.351625 293.116301 
L 348.861344 293.243355 
L 350.062626 293.23414 
L 350.12756 292.855535 
L 350.192494 290.883733 
L 350.289896 280.500412 
L 350.338596 286.619629 
L 350.371063 293.324755 
L 350.468465 292.104432 
L 350.484698 293.345018 
L 350.533399 290.203056 
L 350.582099 293.121318 
L 350.598333 293.291219 
L 350.614566 292.594838 
L 350.647033 291.730472 
L 350.695734 293.362311 
L 350.711968 293.177331 
L 350.744435 292.496268 
L 350.809369 293.356994 
L 350.858069 292.930077 
L 350.90677 293.374056 
L 350.971704 293.167238 
L 351.085339 293.286966 
L 351.247674 293.404051 
L 352.51389 293.494121 
L 353.309334 293.46662 
L 353.374268 293.096201 
L 353.439202 291.060925 
L 353.536603 279.995078 
L 353.585304 286.981741 
L 353.617771 293.575295 
L 353.715172 292.879381 
L 353.731406 293.518428 
L 353.763873 290.57083 
L 353.780106 290.171802 
L 353.79634 291.188067 
L 353.828807 293.587309 
L 353.926208 293.544001 
L 353.942442 293.506541 
L 353.974909 292.65384 
L 354.039843 293.608379 
L 354.056077 293.407369 
L 354.088544 293.104833 
L 354.137244 293.625149 
L 354.153478 293.576727 
L 354.185945 293.361065 
L 354.250879 293.635024 
L 354.29958 293.503075 
L 354.364514 293.641955 
L 354.413214 293.583091 
L 354.478149 293.653764 
L 354.640484 293.654086 
L 355.370993 293.741204 
L 356.734611 293.800208 
L 356.799545 293.509645 
L 356.864479 291.814601 
L 356.978114 279.331814 
L 357.010581 284.644315 
L 357.043048 293.65509 
L 357.140449 292.636521 
L 357.205383 290.086253 
L 357.254084 293.891627 
L 357.302784 291.809878 
L 357.400186 292.776181 
L 357.562521 293.908571 
L 357.578755 293.757149 
L 357.594988 293.622373 
L 357.659922 293.938041 
L 357.676156 293.877562 
L 357.708623 293.771229 
L 357.757324 293.945782 
L 357.773557 293.935509 
L 357.806024 293.864282 
L 357.887192 293.943997 
L 358.01706 293.950082 
L 358.439132 294.004132 
L 360.322223 294.090631 
L 360.387157 293.766912 
L 360.452091 291.664278 
L 360.549492 278.254008 
L 360.598193 287.445754 
L 360.679361 286.198981 
L 360.728061 294.16508 
L 360.776762 289.692058 
L 360.857929 291.776004 
L 360.874163 291.75381 
L 361.004031 294.168811 
L 361.052732 293.379881 
L 361.101433 294.208138 
L 361.150133 293.75843 
L 361.296235 294.226145 
L 361.344936 294.094258 
L 361.426103 294.181668 
L 361.539738 294.207076 
L 362.562451 294.316762 
L 364.104637 294.324574 
L 364.169571 293.907644 
L 364.234506 291.456029 
L 364.331907 279.121785 
L 364.364374 283.877156 
L 364.396841 293.953669 
L 364.494242 293.031157 
L 364.559176 290.301848 
L 364.607877 294.444926 
L 364.656578 292.154845 
L 364.705278 294.45287 
L 364.737745 293.392157 
L 364.753979 293.190483 
L 364.770212 293.602603 
L 364.900081 294.466128 
L 364.948781 294.088829 
L 365.029949 294.329109 
L 365.046182 294.271882 
L 365.094883 294.471107 
L 365.776692 294.517901 
L 367.757183 294.515701 
L 367.822118 293.951851 
L 367.887052 290.390928 
L 367.96822 277.675164 
L 368.000687 282.196595 
L 368.033154 294.099442 
L 368.130555 293.914547 
L 368.146788 294.234449 
L 368.179256 289.681019 
L 368.227956 294.507597 
L 368.260423 292.454484 
L 368.276657 291.709321 
L 368.309124 294.023982 
L 368.325357 294.630932 
L 368.374058 293.057372 
L 368.422759 294.552401 
L 368.455226 293.690652 
L 368.503926 294.639073 
L 368.536393 294.210319 
L 368.552627 294.108737 
L 368.585094 294.557671 
L 368.650028 294.361964 
L 368.698729 294.644332 
L 368.731196 294.492802 
L 368.812364 294.605355 
L 368.828597 294.568193 
L 368.877298 294.652933 
L 368.925998 294.613216 
L 370.435717 294.711799 
L 371.653233 294.643113 
L 371.718167 294.131064 
L 371.783101 291.170972 
L 371.880502 279.486422 
L 371.912969 286.489071 
L 371.945437 294.754071 
L 372.042838 294.328307 
L 372.059071 294.390791 
L 372.091538 290.728242 
L 372.156473 294.611991 
L 372.172706 293.493809 
L 372.18894 292.531776 
L 372.253874 294.677032 
L 372.270107 294.05636 
L 372.286341 293.526518 
L 372.351275 294.721224 
L 372.367509 294.386919 
L 372.383742 294.095165 
L 372.448676 294.753204 
L 372.46491 294.583085 
L 372.497377 294.416378 
L 372.546077 294.771607 
L 372.562311 294.695465 
L 372.594778 294.577342 
L 372.643479 294.777355 
L 372.659712 294.753359 
L 372.692179 294.673422 
L 372.773347 294.754332 
L 372.903215 294.758757 
L 373.747359 294.811338 
L 375.289546 294.767298 
L 375.35448 294.238144 
L 375.419414 290.990026 
L 375.500582 278.727091 
L 375.549282 287.483374 
L 375.63045 286.612751 
L 375.679151 294.87352 
L 375.727851 290.210345 
L 375.809019 292.496106 
L 375.825252 292.316292 
L 375.955121 294.825321 
L 375.971354 294.782918 
L 376.003821 294.048686 
L 376.052522 294.881388 
L 376.084989 294.542131 
L 376.101223 294.423263 
L 376.13369 294.774362 
L 376.198624 294.637591 
L 376.247324 294.89655 
L 376.296025 294.758273 
L 376.393426 294.827004 
L 376.669396 294.9119 
L 377.059001 294.926246 
L 379.136894 294.926968 
L 379.201828 294.463107 
L 379.266763 291.597385 
L 379.364164 278.55444 
L 379.396631 285.610673 
L 379.429098 295.028345 
L 379.526499 294.819209 
L 379.5752 290.323962 
L 379.6239 294.980554 
L 379.672601 292.356922 
L 379.721302 295.039552 
L 379.818703 295.022766 
L 379.85117 294.245994 
L 379.932338 294.781037 
L 379.948571 294.588462 
L 379.997272 295.029621 
L 380.029739 294.893238 
L 380.045972 294.796818 
L 380.094673 295.0428 
L 380.12714 294.971077 
L 380.143374 294.917706 
L 380.208308 295.052879 
L 380.224541 295.019224 
L 380.338176 295.027636 
L 380.581679 295.060269 
L 381.036218 295.08272 
L 383.081644 295.049282 
L 383.146578 294.401114 
L 383.211513 289.722527 
L 383.29268 275.394467 
L 383.325147 285.15586 
L 383.390082 284.662499 
L 383.438782 294.64055 
L 383.471249 290.217137 
L 383.487483 288.5783 
L 383.51995 294.101164 
L 383.56865 291.200213 
L 383.617351 295.140163 
L 383.649818 292.833513 
L 383.698519 295.157201 
L 383.747219 293.853081 
L 383.779686 295.147211 
L 383.877088 295.077764 
L 383.909555 294.659654 
L 383.958255 295.146571 
L 383.990722 294.869615 
L 384.120591 295.167512 
L 384.153058 295.094776 
L 384.217992 295.172201 
L 384.266693 295.125577 
L 384.412794 295.172215 
L 384.62383 295.17907 
L 387.269897 295.222159 
L 387.367299 295.0601 
L 387.432233 294.42301 
L 387.5134 290.287806 
L 387.594568 283.5592 
L 387.627035 288.014715 
L 387.675736 295.054496 
L 387.74067 290.616272 
L 387.789371 295.238992 
L 387.886772 294.655601 
L 387.903005 295.226985 
L 387.967939 294.037262 
L 388.000407 294.908411 
L 388.01664 295.227442 
L 388.081574 294.648887 
L 388.114041 295.03354 
L 388.146508 295.2578 
L 388.195209 294.970671 
L 388.227676 295.103366 
L 388.260143 295.26314 
L 388.341311 295.155379 
L 388.390012 295.268014 
L 388.471179 295.217883 
L 388.649748 295.270594 
L 389.282856 295.286064 
L 390.175701 295.200474 
L 390.240635 294.774278 
L 390.305569 292.484368 
L 390.40297 280.988926 
L 390.451671 288.932724 
L 390.484138 295.253607 
L 390.532839 288.435804 
L 390.581539 294.724418 
L 390.597773 295.172278 
L 390.614006 293.635004 
L 390.646473 291.734862 
L 390.695174 295.310001 
L 390.711408 294.810667 
L 390.743875 293.3536 
L 390.792575 295.260826 
L 390.808809 295.193516 
L 390.841276 294.305181 
L 390.90621 295.307151 
L 390.922444 295.095936 
L 390.954911 294.779688 
L 391.003611 295.317551 
L 391.019845 295.269284 
L 391.052312 295.040224 
L 391.117246 295.322136 
L 391.165947 295.178372 
L 391.230881 295.323533 
L 391.279581 295.254667 
L 391.360749 295.31535 
L 391.506851 295.315577 
L 393.454876 295.367372 
L 393.552277 295.232257 
L 393.617211 294.466201 
L 393.682145 290.089604 
L 393.763313 278.83723 
L 393.79578 285.919857 
L 393.828247 295.384947 
L 393.925648 295.125844 
L 393.958115 292.173767 
L 393.974349 290.66566 
L 394.02305 295.298026 
L 394.055517 293.420954 
L 394.07175 292.689389 
L 394.120451 295.387514 
L 394.169151 293.884631 
L 394.250319 294.63527 
L 394.266553 294.577903 
L 394.282786 294.915946 
L 394.412654 295.388668 
L 394.445122 295.158883 
L 394.526289 295.338853 
L 394.558756 295.27109 
L 394.607457 295.403324 
L 394.639924 295.342061 
L 394.769792 295.375088 
L 394.948361 295.405716 
L 395.435367 295.422297 
L 397.302224 295.366095 
L 397.367159 294.871608 
L 397.432093 291.867881 
L 397.529494 278.936724 
L 397.561961 286.315354 
L 397.594428 295.462527 
L 397.691829 295.262539 
L 397.74053 290.742089 
L 397.789231 295.398718 
L 397.837931 292.78008 
L 397.984033 295.474157 
L 398.000267 295.154247 
L 398.032734 294.667783 
L 398.081434 295.469827 
L 398.113901 295.051796 
L 398.130135 295.043856 
L 398.276237 295.481716 
L 398.324937 295.354395 
L 398.406105 295.42806 
L 398.487273 295.482681 
L 398.487273 295.482681 
" clip-path="url(#p4504b9f586)" style="fill: none; stroke: #1f77b4; stroke-width: 1.5; stroke-linecap: square"/>
   </g>
   <g id="patch_3">
    <path d="M 57.6 307.584 
L 57.6 41.472 
" style="fill: none; stroke: #000000; stroke-width: 0.8; stroke-linejoin: miter; stroke-linecap: square"/>
   </g>
   <g id="patch_4">
    <path d="M 414.72 307.584 
L 414.72 41.472 
" style="fill: none; stroke: #000000; stroke-width: 0.8; stroke-linejoin: miter; stroke-linecap: square"/>
   </g>
   <g id="patch_5">
    <path d="M 57.6 307.584 
L 414.72 307.584 
" style="fill: none; stroke: #000000; stroke-width: 0.8; stroke-linejoin: miter; stroke-linecap: square"/>
   </g>
   <g id="patch_6">
    <path d="M 57.6 41.472 
L 414.72 41.472 
" style="fill: none; stroke: #000000; stroke-width: 0.8; stroke-linejoin: miter; stroke-linecap: square"/>
   </g>
  </g>
 </g>
 <defs>
  <clipPath id="p4504b9f586">
   <rect x="57.6" y="41.472" width="357.12" height="266.112"/>
  </clipPath>
 </defs>
</svg>
