<?xml version="1.0" encoding="utf-8" standalone="no"?>
<!DOCTYPE svg PUBLIC "-//W3C//DTD SVG 1.1//EN"
  "http://www.w3.org/Graphics/SVG/1.1/DTD/svg11.dtd">
<svg xmlns:xlink="http://www.w3.org/1999/xlink" width="272.16pt" height="272.16pt" viewBox="0 0 272.16 272.16" xmlns="http://www.w3.org/2000/svg" version="1.1">
 <metadata>
  <rdf:RDF xmlns:dc="http://purl.org/dc/elements/1.1/" xmlns:cc="http://creativecommons.org/ns#" xmlns:rdf="http://www.w3.org/1999/02/22-rdf-syntax-ns#">
   <cc:Work>
    <dc:type rdf:resource="http://purl.org/dc/dcmitype/StillImage"/>
    <dc:date>2025-12-22T10:03:11.137059</dc:date>
    <dc:format>image/svg+xml</dc:format>
    <dc:creator>
     <cc:Agent>
      <dc:title>Matplotlib v3.10.3, https://matplotlib.org/</dc:title>
     </cc:Agent>
    </dc:creator>
   </cc:Work>
  </rdf:RDF>
 </metadata>
 <defs>
  <style type="text/css">*{stroke-linejoin: round; stroke-linecap: butt}</style>
 </defs>
 <g id="figure_1">
  <g id="patch_1">
   <path d="M 0 272.16 
L 272.16 272.16 
L 272.16 0 
L 0 0 
L 0 272.16 
z
" style="fill: none"/>
  </g>
  <g id="axes_1">
   <g id="patch_2">
    <path d="M 47.048487 228.614399 
L 264.96 228.614399 
L 264.96 24.823055 
L 47.048487 24.823055 
L 47.048487 228.614399 
z
" style="fill: none"/>
   </g>
   <g id="matplotlib.axis_1">
    <g id="xtick_1">
     <g id="line2d_1">
      <defs>
       <path id="m4cd371f86f" d="M 0 0 
L 0 2.5 
" style="stroke: #000000; stroke-width: 0.6"/>
      </defs>
      <g>
       <use xlink:href="#m4cd371f86f" x="83.367072" y="228.614399" style="stroke: #000000; stroke-width: 0.6"/>
      </g>
     </g>
     <g id="text_1">
      <!-- $\mathdefault{-20}$ -->
      <g transform="translate(71.114466 244.300275) scale(0.14 -0.14)">
       <defs>
        <path id="CMSY10-0" d="M 4218 1472 
C 4326 1472 4442 1472 4442 1600 
C 4442 1728 4326 1728 4218 1728 
L 755 1728 
C 646 1728 531 1728 531 1600 
C 531 1472 646 1472 755 1472 
L 4218 1472 
z
" transform="scale(0.015625)"/>
        <path id="CMR17-32" d="M 2669 989 
L 2554 989 
C 2490 536 2438 459 2413 420 
C 2381 369 1920 369 1830 369 
L 602 369 
C 832 619 1280 1072 1824 1597 
C 2214 1967 2669 2402 2669 3035 
C 2669 3790 2067 4224 1395 4224 
C 691 4224 262 3604 262 3030 
C 262 2780 448 2748 525 2748 
C 589 2748 781 2787 781 3010 
C 781 3207 614 3264 525 3264 
C 486 3264 448 3258 422 3245 
C 544 3790 915 4058 1306 4058 
C 1862 4058 2227 3617 2227 3035 
C 2227 2479 1901 2000 1536 1584 
L 262 146 
L 262 0 
L 2515 0 
L 2669 989 
z
" transform="scale(0.015625)"/>
        <path id="CMR17-30" d="M 2688 2025 
C 2688 2416 2682 3080 2413 3591 
C 2176 4039 1798 4198 1466 4198 
C 1158 4198 768 4058 525 3597 
C 269 3118 243 2524 243 2025 
C 243 1661 250 1106 448 619 
C 723 -39 1216 -128 1466 -128 
C 1760 -128 2208 -7 2470 600 
C 2662 1042 2688 1559 2688 2025 
z
M 1466 -26 
C 1056 -26 813 325 723 812 
C 653 1188 653 1738 653 2096 
C 653 2588 653 2997 736 3387 
C 858 3929 1216 4096 1466 4096 
C 1728 4096 2067 3923 2189 3400 
C 2272 3036 2278 2607 2278 2096 
C 2278 1680 2278 1169 2202 792 
C 2067 95 1690 -26 1466 -26 
z
" transform="scale(0.015625)"/>
       </defs>
       <use xlink:href="#CMSY10-0" transform="scale(0.996264)"/>
       <use xlink:href="#CMR17-32" transform="translate(77.487468 0) scale(0.996264)"/>
       <use xlink:href="#CMR17-30" transform="translate(123.177945 0) scale(0.996264)"/>
      </g>
     </g>
    </g>
    <g id="xtick_2">
     <g id="line2d_2">
      <g>
       <use xlink:href="#m4cd371f86f" x="156.004243" y="228.614399" style="stroke: #000000; stroke-width: 0.6"/>
      </g>
     </g>
     <g id="text_2">
      <!-- $\mathdefault{0}$ -->
      <g transform="translate(152.589999 244.300275) scale(0.14 -0.14)">
       <use xlink:href="#CMR17-30" transform="scale(0.996264)"/>
      </g>
     </g>
    </g>
    <g id="xtick_3">
     <g id="line2d_3">
      <g>
       <use xlink:href="#m4cd371f86f" x="228.641414" y="228.614399" style="stroke: #000000; stroke-width: 0.6"/>
      </g>
     </g>
     <g id="text_3">
      <!-- $\mathdefault{20}$ -->
      <g transform="translate(221.812926 244.300275) scale(0.14 -0.14)">
       <use xlink:href="#CMR17-32" transform="scale(0.996264)"/>
       <use xlink:href="#CMR17-30" transform="translate(45.690477 0) scale(0.996264)"/>
      </g>
     </g>
    </g>
    <g id="text_4">
     <!-- $t$(s) -->
     <g transform="translate(145.533894 261.473076) scale(0.14 -0.14)">
      <defs>
       <path id="CMMI12-74" d="M 1286 2566 
L 1875 2566 
C 1997 2566 2061 2566 2061 2681 
C 2061 2752 2022 2752 1894 2752 
L 1331 2752 
L 1568 3692 
C 1594 3781 1594 3794 1594 3840 
C 1594 3943 1510 4000 1427 4000 
C 1376 4000 1229 3981 1178 3775 
L 928 2752 
L 326 2752 
C 198 2752 141 2752 141 2630 
C 141 2566 186 2566 307 2566 
L 877 2566 
L 454 881 
C 403 658 384 594 384 511 
C 384 211 595 -64 954 -64 
C 1600 -64 1946 868 1946 912 
C 1946 951 1920 970 1882 970 
C 1869 970 1843 970 1830 944 
C 1824 938 1818 931 1773 829 
C 1638 511 1344 64 973 64 
C 781 64 768 224 768 364 
C 768 370 768 492 787 568 
L 1286 2566 
z
" transform="scale(0.015625)"/>
       <path id="CMR17-28" d="M 1958 -1561 
C 1958 -1555 1958 -1542 1939 -1523 
C 1645 -1224 858 -407 858 1581 
C 858 3569 1632 4379 1946 4697 
C 1946 4704 1958 4717 1958 4736 
C 1958 4755 1939 4768 1914 4768 
C 1843 4768 1299 4296 986 3594 
C 666 2887 576 2199 576 1588 
C 576 1128 621 351 1005 -471 
C 1312 -1135 1837 -1600 1914 -1600 
C 1946 -1600 1958 -1587 1958 -1561 
z
" transform="scale(0.015625)"/>
       <path id="CMR17-73" d="M 1978 2697 
C 1978 2813 1971 2819 1933 2819 
C 1907 2819 1901 2813 1824 2717 
C 1805 2691 1747 2626 1728 2601 
C 1523 2819 1235 2819 1126 2819 
C 416 2819 160 2447 160 2076 
C 160 1498 813 1365 998 1325 
C 1402 1243 1542 1217 1677 1101 
C 1760 1025 1901 884 1901 654 
C 1901 384 1747 38 1158 38 
C 602 38 403 460 288 1021 
C 269 1110 269 1117 218 1117 
C 166 1117 160 1110 160 983 
L 160 63 
C 160 -51 166 -58 205 -58 
C 237 -58 243 -51 275 0 
C 314 57 410 211 448 276 
C 576 103 800 -64 1158 -64 
C 1792 -64 2131 283 2131 784 
C 2131 1112 1958 1285 1875 1362 
C 1683 1561 1459 1606 1190 1657 
C 838 1735 390 1825 390 2217 
C 390 2383 480 2737 1126 2737 
C 1811 2737 1850 2094 1862 1888 
C 1869 1856 1901 1849 1920 1849 
C 1978 1849 1978 1869 1978 1978 
L 1978 2697 
z
" transform="scale(0.015625)"/>
       <path id="CMR17-29" d="M 1683 1581 
C 1683 2040 1638 2817 1254 3639 
C 947 4303 422 4768 346 4768 
C 326 4768 301 4761 301 4729 
C 301 4717 307 4710 314 4697 
C 621 4378 1402 3568 1402 1584 
C 1402 -407 627 -1217 314 -1537 
C 307 -1549 301 -1556 301 -1568 
C 301 -1600 326 -1600 346 -1600 
C 416 -1600 960 -1128 1274 -426 
C 1594 281 1683 969 1683 1581 
z
" transform="scale(0.015625)"/>
      </defs>
      <use xlink:href="#CMMI12-74" transform="scale(0.996264)"/>
      <use xlink:href="#CMR17-28" transform="translate(35.22633 0) scale(0.996264)"/>
      <use xlink:href="#CMR17-73" transform="translate(70.507098 0) scale(0.996264)"/>
      <use xlink:href="#CMR17-29" transform="translate(106.308436 0) scale(0.996264)"/>
     </g>
    </g>
   </g>
   <g id="matplotlib.axis_2">
    <g id="ytick_1">
     <g id="line2d_4">
      <defs>
       <path id="m56f3a9ced1" d="M 0 0 
L -2.5 0 
" style="stroke: #000000; stroke-width: 0.6"/>
      </defs>
      <g>
       <use xlink:href="#m56f3a9ced1" x="47.048487" y="228.614399" style="stroke: #000000; stroke-width: 0.6"/>
      </g>
     </g>
     <g id="text_5">
      <!-- $\mathdefault{0.0}$ -->
      <g transform="translate(23.597905 233.457337) scale(0.14 -0.14)">
       <defs>
        <path id="CMMI12-3a" d="M 1178 307 
C 1178 492 1024 619 870 619 
C 685 619 557 466 557 313 
C 557 128 710 0 864 0 
C 1050 0 1178 153 1178 307 
z
" transform="scale(0.015625)"/>
       </defs>
       <use xlink:href="#CMR17-30" transform="scale(0.996264)"/>
       <use xlink:href="#CMMI12-3a" transform="translate(45.690477 0) scale(0.996264)"/>
       <use xlink:href="#CMR17-30" transform="translate(72.787654 0) scale(0.996264)"/>
      </g>
     </g>
    </g>
    <g id="ytick_2">
     <g id="line2d_5">
      <g>
       <use xlink:href="#m56f3a9ced1" x="47.048487" y="187.85613" style="stroke: #000000; stroke-width: 0.6"/>
      </g>
     </g>
     <g id="text_6">
      <!-- $\mathdefault{0.2}$ -->
      <g transform="translate(23.597905 192.699068) scale(0.14 -0.14)">
       <use xlink:href="#CMR17-30" transform="scale(0.996264)"/>
       <use xlink:href="#CMMI12-3a" transform="translate(45.690477 0) scale(0.996264)"/>
       <use xlink:href="#CMR17-32" transform="translate(72.787654 0) scale(0.996264)"/>
      </g>
     </g>
    </g>
    <g id="ytick_3">
     <g id="line2d_6">
      <g>
       <use xlink:href="#m56f3a9ced1" x="47.048487" y="147.097861" style="stroke: #000000; stroke-width: 0.6"/>
      </g>
     </g>
     <g id="text_7">
      <!-- $\mathdefault{0.4}$ -->
      <g transform="translate(23.597905 151.9408) scale(0.14 -0.14)">
       <defs>
        <path id="CMR17-34" d="M 2150 4122 
C 2150 4256 2144 4256 2029 4256 
L 128 1254 
L 128 1088 
L 1779 1088 
L 1779 457 
C 1779 224 1766 160 1318 160 
L 1197 160 
L 1197 0 
C 1402 0 1747 0 1965 0 
C 2182 0 2528 0 2733 0 
L 2733 160 
L 2611 160 
C 2163 160 2150 224 2150 457 
L 2150 1088 
L 2803 1088 
L 2803 1254 
L 2150 1254 
L 2150 4122 
z
M 1798 3703 
L 1798 1254 
L 256 1254 
L 1798 3703 
z
" transform="scale(0.015625)"/>
       </defs>
       <use xlink:href="#CMR17-30" transform="scale(0.996264)"/>
       <use xlink:href="#CMMI12-3a" transform="translate(45.690477 0) scale(0.996264)"/>
       <use xlink:href="#CMR17-34" transform="translate(72.787654 0) scale(0.996264)"/>
      </g>
     </g>
    </g>
    <g id="ytick_4">
     <g id="line2d_7">
      <g>
       <use xlink:href="#m56f3a9ced1" x="47.048487" y="106.339592" style="stroke: #000000; stroke-width: 0.6"/>
      </g>
     </g>
     <g id="text_8">
      <!-- $\mathdefault{0.6}$ -->
      <g transform="translate(23.597905 111.182531) scale(0.14 -0.14)">
       <defs>
        <path id="CMR17-36" d="M 678 2176 
C 678 3690 1395 4032 1811 4032 
C 1946 4032 2272 4009 2400 3776 
C 2298 3776 2106 3776 2106 3553 
C 2106 3381 2246 3323 2336 3323 
C 2394 3323 2566 3348 2566 3560 
C 2566 3954 2246 4179 1805 4179 
C 1043 4179 243 3390 243 1984 
C 243 253 966 -128 1478 -128 
C 2099 -128 2688 427 2688 1283 
C 2688 2081 2170 2662 1517 2662 
C 1126 2662 838 2407 678 1960 
L 678 2176 
z
M 1478 25 
C 691 25 691 1200 691 1436 
C 691 1896 909 2560 1504 2560 
C 1613 2560 1926 2560 2138 2120 
C 2253 1870 2253 1609 2253 1289 
C 2253 944 2253 690 2118 434 
C 1978 171 1773 25 1478 25 
z
" transform="scale(0.015625)"/>
       </defs>
       <use xlink:href="#CMR17-30" transform="scale(0.996264)"/>
       <use xlink:href="#CMMI12-3a" transform="translate(45.690477 0) scale(0.996264)"/>
       <use xlink:href="#CMR17-36" transform="translate(72.787654 0) scale(0.996264)"/>
      </g>
     </g>
    </g>
    <g id="ytick_5">
     <g id="line2d_8">
      <g>
       <use xlink:href="#m56f3a9ced1" x="47.048487" y="65.581324" style="stroke: #000000; stroke-width: 0.6"/>
      </g>
     </g>
     <g id="text_9">
      <!-- $\mathdefault{0.8}$ -->
      <g transform="translate(23.597905 70.424262) scale(0.14 -0.14)">
       <defs>
        <path id="CMR17-38" d="M 1741 2264 
C 2144 2467 2554 2773 2554 3263 
C 2554 3841 1990 4179 1472 4179 
C 890 4179 378 3759 378 3180 
C 378 3021 416 2747 666 2505 
C 730 2442 998 2251 1171 2130 
C 883 1983 211 1634 211 934 
C 211 279 838 -128 1459 -128 
C 2144 -128 2720 362 2720 1010 
C 2720 1590 2330 1857 2074 2029 
L 1741 2264 
z
M 902 2822 
C 851 2854 595 3051 595 3351 
C 595 3739 998 4032 1459 4032 
C 1965 4032 2336 3676 2336 3262 
C 2336 2669 1670 2331 1638 2331 
C 1632 2331 1626 2331 1574 2370 
L 902 2822 
z
M 2080 1519 
C 2176 1449 2483 1240 2483 851 
C 2483 381 2010 25 1472 25 
C 890 25 448 438 448 940 
C 448 1443 838 1862 1280 2060 
L 2080 1519 
z
" transform="scale(0.015625)"/>
       </defs>
       <use xlink:href="#CMR17-30" transform="scale(0.996264)"/>
       <use xlink:href="#CMMI12-3a" transform="translate(45.690477 0) scale(0.996264)"/>
       <use xlink:href="#CMR17-38" transform="translate(72.787654 0) scale(0.996264)"/>
      </g>
     </g>
    </g>
    <g id="ytick_6">
     <g id="line2d_9">
      <g>
       <use xlink:href="#m56f3a9ced1" x="47.048487" y="24.823055" style="stroke: #000000; stroke-width: 0.6"/>
      </g>
     </g>
     <g id="text_10">
      <!-- $\mathdefault{1.0}$ -->
      <g transform="translate(23.597905 29.665993) scale(0.14 -0.14)">
       <defs>
        <path id="CMR17-31" d="M 1702 4058 
C 1702 4192 1696 4192 1606 4192 
C 1357 3916 979 3827 621 3827 
C 602 3827 570 3827 563 3808 
C 557 3795 557 3782 557 3648 
C 755 3648 1088 3686 1344 3839 
L 1344 461 
C 1344 236 1331 160 781 160 
L 589 160 
L 589 0 
C 896 0 1216 0 1523 0 
C 1830 0 2150 0 2458 0 
L 2458 160 
L 2266 160 
C 1715 160 1702 230 1702 458 
L 1702 4058 
z
" transform="scale(0.015625)"/>
       </defs>
       <use xlink:href="#CMR17-31" transform="scale(0.996264)"/>
       <use xlink:href="#CMMI12-3a" transform="translate(45.690477 0) scale(0.996264)"/>
       <use xlink:href="#CMR17-30" transform="translate(72.787654 0) scale(0.996264)"/>
      </g>
     </g>
    </g>
    <g id="text_11">
     <!-- normalized elevation -->
     <g transform="translate(16.885876 187.985444) rotate(-90) scale(0.14 -0.14)">
      <defs>
       <path id="CMR17-6e" d="M 2656 1933 
C 2656 2259 2592 2790 1837 2790 
C 1331 2790 1069 2400 973 2144 
L 966 2144 
L 966 2790 
L 211 2720 
L 211 2554 
C 589 2554 646 2515 646 2208 
L 646 428 
C 646 184 621 153 211 153 
L 211 -13 
C 365 0 646 0 813 0 
C 979 0 1267 0 1421 -13 
L 1421 153 
C 1011 153 986 178 986 428 
L 986 1658 
C 986 2247 1344 2688 1792 2688 
C 2266 2688 2317 2266 2317 1958 
L 2317 428 
C 2317 184 2291 153 1882 153 
L 1882 -13 
C 2035 0 2317 0 2483 0 
C 2650 0 2938 0 3091 -13 
L 3091 153 
C 2682 153 2656 178 2656 428 
L 2656 1933 
z
" transform="scale(0.015625)"/>
       <path id="CMR17-6f" d="M 2758 1356 
C 2758 2176 2163 2816 1466 2816 
C 768 2816 173 2176 173 1356 
C 173 551 768 -64 1466 -64 
C 2163 -64 2758 551 2758 1356 
z
M 1466 51 
C 1165 51 909 230 762 480 
C 602 767 582 1126 582 1408 
C 582 1677 595 2010 762 2298 
C 890 2509 1139 2714 1466 2714 
C 1754 2714 1997 2554 2150 2330 
C 2349 2029 2349 1607 2349 1408 
C 2349 1158 2336 775 2163 467 
C 1984 173 1709 51 1466 51 
z
" transform="scale(0.015625)"/>
       <path id="CMR17-72" d="M 960 1497 
C 960 2112 1222 2688 1702 2688 
C 1747 2688 1792 2682 1837 2662 
C 1837 2662 1696 2617 1696 2452 
C 1696 2298 1818 2234 1914 2234 
C 1990 2234 2131 2279 2131 2458 
C 2131 2663 1926 2790 1709 2790 
C 1222 2790 1011 2317 947 2093 
L 941 2093 
L 941 2790 
L 198 2720 
L 198 2554 
C 576 2554 634 2515 634 2208 
L 634 428 
C 634 184 608 153 198 153 
L 198 -13 
C 352 0 646 0 813 0 
C 998 0 1325 0 1498 -13 
L 1498 153 
C 1037 153 960 153 960 440 
L 960 1497 
z
" transform="scale(0.015625)"/>
       <path id="CMR17-6d" d="M 4326 1933 
C 4326 2252 4269 2790 3507 2790 
C 3072 2790 2771 2496 2656 2151 
L 2650 2151 
C 2573 2676 2195 2790 1837 2790 
C 1331 2790 1069 2400 973 2144 
L 966 2144 
L 966 2790 
L 211 2720 
L 211 2554 
C 589 2554 646 2515 646 2208 
L 646 428 
C 646 184 621 153 211 153 
L 211 -13 
C 365 0 646 0 813 0 
C 979 0 1267 0 1421 -13 
L 1421 153 
C 1011 153 986 178 986 428 
L 986 1658 
C 986 2247 1344 2688 1792 2688 
C 2266 2688 2317 2266 2317 1958 
L 2317 428 
C 2317 184 2291 153 1882 153 
L 1882 -13 
C 2035 0 2317 0 2483 0 
C 2650 0 2938 0 3091 -13 
L 3091 153 
C 2682 153 2656 178 2656 428 
L 2656 1658 
C 2656 2247 3014 2688 3462 2688 
C 3936 2688 3987 2266 3987 1958 
L 3987 428 
C 3987 184 3962 153 3552 153 
L 3552 -13 
C 3706 0 3987 0 4154 0 
C 4320 0 4608 0 4762 -13 
L 4762 153 
C 4352 153 4326 178 4326 428 
L 4326 1933 
z
" transform="scale(0.015625)"/>
       <path id="CMR17-61" d="M 2304 1653 
C 2304 2072 2304 2294 2035 2543 
C 1798 2752 1523 2816 1306 2816 
C 800 2816 435 2407 435 1971 
C 435 1728 627 1728 666 1728 
C 749 1728 896 1778 896 1954 
C 896 2112 774 2181 666 2181 
C 640 2181 608 2174 589 2168 
C 723 2592 1069 2714 1293 2714 
C 1613 2714 1965 2429 1965 1885 
L 1965 1600 
C 1587 1600 1133 1549 774 1357 
C 371 1133 256 813 256 570 
C 256 77 832 -64 1171 -64 
C 1523 -64 1850 139 1990 511 
C 2003 233 2182 -18 2464 -18 
C 2598 -18 2938 70 2938 567 
L 2938 920 
L 2822 920 
L 2822 562 
C 2822 178 2650 128 2566 128 
C 2304 128 2304 458 2304 738 
L 2304 1653 
z
M 1965 870 
C 1965 317 1568 38 1216 38 
C 896 38 646 275 646 570 
C 646 761 730 1100 1101 1305 
C 1408 1478 1760 1504 1965 1504 
L 1965 870 
z
" transform="scale(0.015625)"/>
       <path id="CMR17-6c" d="M 979 4396 
L 218 4326 
L 218 4160 
C 595 4160 653 4122 653 3817 
L 653 426 
C 653 184 627 153 218 153 
L 218 -13 
C 371 0 653 0 813 0 
C 979 0 1261 0 1414 -13 
L 1414 153 
C 1005 153 979 178 979 426 
L 979 4396 
z
" transform="scale(0.015625)"/>
       <path id="CMR17-69" d="M 992 3909 
C 992 4049 877 4170 730 4170 
C 589 4170 467 4056 467 3909 
C 467 3769 582 3648 730 3648 
C 870 3648 992 3763 992 3909 
z
M 243 2706 
L 243 2541 
C 602 2541 653 2502 653 2197 
L 653 427 
C 653 184 627 153 218 153 
L 218 -13 
C 371 0 646 0 806 0 
C 960 0 1222 0 1370 -13 
L 1370 153 
C 992 153 979 191 979 420 
L 979 2776 
L 243 2706 
z
" transform="scale(0.015625)"/>
       <path id="CMR17-7a" d="M 2310 2605 
C 2362 2670 2362 2682 2362 2695 
C 2362 2752 2336 2752 2221 2752 
L 275 2752 
L 211 1760 
L 326 1760 
C 371 2381 442 2650 1178 2650 
L 1958 2650 
L 128 96 
C 128 0 134 0 269 0 
L 2291 0 
L 2381 1152 
L 2266 1152 
C 2214 442 2131 115 1350 115 
L 531 115 
L 2310 2605 
z
" transform="scale(0.015625)"/>
       <path id="CMR17-65" d="M 2438 1472 
C 2464 1498 2464 1511 2464 1576 
C 2464 2238 2118 2816 1389 2816 
C 710 2816 173 2169 173 1383 
C 173 551 781 -64 1459 -64 
C 2176 -64 2458 607 2458 740 
C 2458 784 2419 784 2406 784 
C 2362 784 2355 771 2330 696 
C 2189 265 1837 51 1504 51 
C 1229 51 954 203 781 480 
C 582 803 582 1176 582 1472 
L 2438 1472 
z
M 589 1568 
C 634 2505 1126 2714 1382 2714 
C 1818 2714 2112 2297 2118 1568 
L 589 1568 
z
" transform="scale(0.015625)"/>
       <path id="CMR17-64" d="M 1869 4326 
L 1869 4160 
C 2246 4160 2304 4122 2304 3820 
L 2304 2345 
C 2278 2377 2016 2790 1498 2790 
C 845 2790 211 2208 211 1364 
C 211 525 806 -64 1434 -64 
C 1978 -64 2259 337 2291 380 
L 2291 -63 
L 3066 -63 
L 3066 128 
C 2688 128 2630 166 2630 473 
L 2630 4396 
L 1869 4326 
z
M 2291 755 
C 2291 563 2176 390 2029 262 
C 1811 70 1594 38 1472 38 
C 1286 38 621 134 621 1356 
C 621 2612 1363 2688 1530 2688 
C 1824 2688 2061 2522 2208 2291 
C 2291 2157 2291 2138 2291 2023 
L 2291 755 
z
" transform="scale(0.015625)"/>
       <path id="CMR17-76" d="M 2502 2163 
C 2560 2304 2662 2560 3034 2560 
L 3034 2726 
C 2912 2726 2752 2726 2630 2726 
C 2496 2726 2285 2726 2157 2732 
L 2157 2566 
C 2317 2553 2406 2477 2406 2311 
C 2406 2253 2406 2240 2368 2151 
L 1664 377 
L 902 2286 
C 864 2369 864 2381 864 2407 
C 864 2560 1075 2560 1171 2560 
L 1171 2732 
C 1018 2726 736 2726 576 2726 
C 403 2726 205 2726 64 2732 
L 64 2560 
C 307 2560 442 2560 518 2362 
L 1446 44 
C 1485 -51 1491 -64 1549 -64 
C 1606 -64 1613 -51 1651 44 
L 2502 2163 
z
" transform="scale(0.015625)"/>
       <path id="CMR17-74" d="M 966 2560 
L 1862 2560 
L 1862 2725 
L 966 2725 
L 966 3904 
L 851 3904 
C 838 3245 614 2668 70 2668 
L 70 2560 
L 627 2560 
L 627 771 
C 627 650 627 -64 1370 -64 
C 1747 -64 1965 306 1965 777 
L 1965 1140 
L 1850 1140 
L 1850 783 
C 1850 344 1677 51 1408 51 
C 1222 51 966 178 966 758 
L 966 2560 
z
" transform="scale(0.015625)"/>
      </defs>
      <use xlink:href="#CMR17-6e" transform="scale(0.996264)"/>
      <use xlink:href="#CMR17-6f" transform="translate(50.89537 0) scale(0.996264)"/>
      <use xlink:href="#CMR17-72" transform="translate(96.585847 0) scale(0.996264)"/>
      <use xlink:href="#CMR17-6d" transform="translate(131.866615 0) scale(0.996264)"/>
      <use xlink:href="#CMR17-61" transform="translate(208.786205 0) scale(0.996264)"/>
      <use xlink:href="#CMR17-6c" transform="translate(254.476682 0) scale(0.996264)"/>
      <use xlink:href="#CMR17-69" transform="translate(279.34774 0) scale(0.996264)"/>
      <use xlink:href="#CMR17-7a" transform="translate(304.218799 0) scale(0.996264)"/>
      <use xlink:href="#CMR17-65" transform="translate(344.704459 0) scale(0.996264)"/>
      <use xlink:href="#CMR17-64" transform="translate(385.19012 0) scale(0.996264)"/>
      <use xlink:href="#CMR17-65" transform="translate(466.161456 0) scale(0.996264)"/>
      <use xlink:href="#CMR17-6c" transform="translate(506.647116 0) scale(0.996264)"/>
      <use xlink:href="#CMR17-65" transform="translate(531.518175 0) scale(0.996264)"/>
      <use xlink:href="#CMR17-76" transform="translate(572.003835 0) scale(0.996264)"/>
      <use xlink:href="#CMR17-61" transform="translate(615.091934 0) scale(0.996264)"/>
      <use xlink:href="#CMR17-74" transform="translate(660.782411 0) scale(0.996264)"/>
      <use xlink:href="#CMR17-69" transform="translate(696.063179 0) scale(0.996264)"/>
      <use xlink:href="#CMR17-6f" transform="translate(720.934238 0) scale(0.996264)"/>
      <use xlink:href="#CMR17-6e" transform="translate(766.624715 0) scale(0.996264)"/>
     </g>
    </g>
   </g>
   <g id="line2d_10">
    <path d="M 68.839638 228.614399 
L 72.471497 228.614399 
L 76.103355 228.614399 
L 79.735214 228.614399 
L 83.367072 228.614399 
L 97.894507 228.614399 
L 101.526365 228.614399 
L 105.158224 200.012102 
L 108.790082 178.560371 
L 112.421941 157.108674 
L 116.053799 139.232242 
L 119.685658 128.506377 
L 123.317516 114.205211 
L 126.949375 103.47938 
L 130.581234 92.753514 
L 134.213092 82.027649 
L 137.844951 71.301783 
L 141.476809 60.575917 
L 145.108668 46.274786 
L 148.740526 39.12422 
L 152.372385 24.823055 
L 156.004243 24.823055 
" clip-path="url(#p8a57698d88)" style="fill: none; stroke: #c70303; stroke-opacity: 0; stroke-width: 2; stroke-linecap: square"/>
   </g>
   <g id="line2d_11">
    <path d="M 156.004243 24.823055 
L 159.636102 24.823055 
L 163.267961 24.823055 
L 166.899819 28.398355 
L 170.531678 39.12422 
L 174.163536 53.425352 
L 177.795395 64.151217 
L 181.427253 74.877083 
L 185.059112 85.602949 
L 188.69097 96.32878 
L 192.322829 103.47938 
L 195.954688 114.205211 
L 199.586546 124.931077 
L 203.218405 135.656943 
L 206.850263 146.382808 
L 210.482122 153.533374 
L 214.11398 160.68394 
L 217.745839 167.834505 
L 221.377697 174.985105 
L 225.009556 182.135671 
L 228.641414 192.861536 
L 232.273273 203.587368 
L 235.905132 207.162668 
" clip-path="url(#p8a57698d88)" style="fill: none; stroke: #2979ea; stroke-opacity: 0; stroke-width: 2; stroke-linecap: square"/>
   </g>
   <g id="line2d_12">
    <path d="M 79.735214 228.614399 
L 83.367072 228.614399 
L 86.998931 228.614399 
L 90.63079 217.4985 
L 94.262648 202.677326 
L 97.894507 180.445529 
L 101.526365 158.213767 
L 105.158224 143.392557 
L 108.790082 132.276659 
L 112.421941 117.455484 
L 116.053799 113.750173 
L 119.685658 102.634309 
L 123.317516 95.223687 
L 126.949375 87.8131 
L 130.581234 76.697201 
L 134.213092 65.581338 
L 137.844951 54.465439 
L 141.476809 43.349541 
L 145.108668 35.938953 
L 148.740526 28.528366 
L 152.372385 24.823055 
L 156.004243 24.823055 
" clip-path="url(#p8a57698d88)" style="fill: none; stroke: #c70303; stroke-opacity: 0.027027; stroke-width: 2; stroke-linecap: square"/>
   </g>
   <g id="line2d_13">
    <path d="M 156.004243 24.823055 
L 159.636102 24.823055 
L 163.267961 24.823055 
L 166.899819 32.233642 
L 170.531678 47.054852 
L 174.163536 61.876026 
L 177.795395 72.991925 
L 181.427253 84.107824 
L 185.059112 95.223687 
L 188.69097 110.044897 
L 192.322829 128.571383 
L 195.954688 143.392557 
L 199.586546 158.213767 
L 203.218405 173.034942 
L 206.850263 180.445529 
L 210.482122 184.15084 
L 214.11398 187.856116 
L 217.745839 195.266739 
L 221.377697 213.793224 
L 225.009556 224.909088 
L 228.641414 228.614399 
" clip-path="url(#p8a57698d88)" style="fill: none; stroke: #2979ea; stroke-opacity: 0.027027; stroke-width: 2; stroke-linecap: square"/>
   </g>
   <g id="line2d_14">
    <path d="M 79.735214 228.614399 
L 83.367072 228.614399 
L 86.998931 228.614399 
L 90.63079 210.087913 
L 94.262648 198.972015 
L 97.894507 169.32963 
L 101.526365 143.392557 
L 105.158224 139.687281 
L 108.790082 135.98197 
L 112.421941 124.866071 
L 116.053799 121.160795 
L 119.685658 110.044897 
L 123.317516 98.928998 
L 126.949375 91.518411 
L 130.581234 80.402512 
L 134.213092 72.991925 
L 137.844951 61.876026 
L 141.476809 47.054852 
L 145.108668 39.644229 
L 148.740526 28.528366 
L 152.372385 24.823055 
L 156.004243 24.823055 
" clip-path="url(#p8a57698d88)" style="fill: none; stroke: #c70303; stroke-opacity: 0.054054; stroke-width: 2; stroke-linecap: square"/>
   </g>
   <g id="line2d_15">
    <path d="M 156.004243 24.823055 
L 159.636102 24.823055 
L 163.267961 28.528366 
L 166.899819 39.644229 
L 170.531678 50.760128 
L 174.163536 61.876026 
L 177.795395 72.991925 
L 181.427253 87.8131 
L 185.059112 102.634309 
L 188.69097 113.750173 
L 192.322829 124.866071 
L 195.954688 139.687281 
L 199.586546 154.508456 
L 203.218405 161.919043 
L 206.850263 165.624354 
L 210.482122 176.740253 
L 214.11398 184.15084 
L 217.745839 187.856116 
L 221.377697 202.677326 
L 225.009556 213.793224 
L 228.641414 221.203812 
" clip-path="url(#p8a57698d88)" style="fill: none; stroke: #2979ea; stroke-opacity: 0.054054; stroke-width: 2; stroke-linecap: square"/>
   </g>
   <g id="line2d_16">
    <path d="M 83.367072 228.614399 
L 86.998931 228.614399 
L 90.63079 228.614399 
L 94.262648 210.737965 
L 97.894507 192.86153 
L 101.526365 178.560363 
L 105.158224 157.108662 
L 108.790082 149.958095 
L 112.421941 135.656927 
L 116.053799 124.93106 
L 119.685658 114.205226 
L 123.317516 99.904058 
L 126.949375 92.753491 
L 130.581234 89.178191 
L 134.213092 82.027624 
L 137.844951 71.301757 
L 141.476809 60.575923 
L 145.108668 46.274755 
L 148.740526 31.973622 
L 152.372385 24.823055 
L 156.004243 24.823055 
" clip-path="url(#p8a57698d88)" style="fill: none; stroke: #c70303; stroke-opacity: 0.081081; stroke-width: 2; stroke-linecap: square"/>
   </g>
   <g id="line2d_17">
    <path d="M 156.004243 24.823055 
L 159.636102 24.823055 
L 163.267961 24.823055 
L 166.899819 35.548888 
L 170.531678 42.699489 
L 174.163536 57.000623 
L 177.795395 67.72649 
L 181.427253 78.452358 
L 185.059112 89.178191 
L 188.69097 103.479359 
L 192.322829 114.205226 
L 195.954688 121.355793 
L 199.586546 132.081661 
L 203.218405 146.382794 
L 206.850263 160.683928 
L 210.482122 167.834529 
L 214.11398 167.834529 
L 217.745839 174.985096 
L 221.377697 185.710964 
L 225.009556 200.012097 
L 228.641414 207.162664 
L 232.273273 217.888532 
" clip-path="url(#p8a57698d88)" style="fill: none; stroke: #2979ea; stroke-opacity: 0.081081; stroke-width: 2; stroke-linecap: square"/>
   </g>
   <g id="line2d_18">
    <path d="M 83.367072 228.614399 
L 86.998931 228.614399 
L 90.63079 228.614399 
L 94.262648 212.938156 
L 97.894507 193.342834 
L 101.526365 173.747512 
L 105.158224 150.23311 
L 108.790082 142.394988 
L 112.421941 134.556867 
L 116.053799 118.880587 
L 119.685658 111.042465 
L 123.317516 103.204344 
L 126.949375 91.447143 
L 130.581234 79.689942 
L 134.213092 71.851821 
L 137.844951 60.09462 
L 141.476809 52.256498 
L 145.108668 40.499298 
L 148.740526 32.661176 
L 152.372385 24.823055 
L 156.004243 24.823055 
" clip-path="url(#p8a57698d88)" style="fill: none; stroke: #c70303; stroke-opacity: 0.108108; stroke-width: 2; stroke-linecap: square"/>
   </g>
   <g id="line2d_19">
    <path d="M 156.004243 24.823055 
L 159.636102 24.823055 
L 163.267961 24.823055 
L 166.899819 36.580256 
L 170.531678 48.337419 
L 174.163536 64.013699 
L 177.795395 83.609022 
L 181.427253 95.366222 
L 185.059112 107.123386 
L 188.69097 114.961545 
L 192.322829 126.718708 
L 195.954688 138.475909 
L 199.586546 146.31403 
L 203.218405 158.071231 
L 206.850263 173.747512 
L 210.482122 181.585633 
L 214.11398 193.342834 
L 217.745839 201.180955 
L 221.377697 212.938156 
L 225.009556 220.776278 
L 228.641414 232.533478 
" clip-path="url(#p8a57698d88)" style="fill: none; stroke: #2979ea; stroke-opacity: 0.108108; stroke-width: 2; stroke-linecap: square"/>
   </g>
   <g id="line2d_20">
    <path d="M 86.998931 228.614399 
L 90.63079 228.614399 
L 94.262648 228.614399 
L 97.894507 224.975254 
L 101.526365 203.140455 
L 105.158224 181.30569 
L 108.790082 152.192636 
L 112.421941 130.357837 
L 116.053799 119.440472 
L 119.685658 115.801327 
L 123.317516 112.162182 
L 126.949375 101.244818 
L 130.581234 90.327418 
L 134.213092 79.410018 
L 137.844951 68.492619 
L 141.476809 57.575219 
L 145.108668 43.018709 
L 148.740526 32.10131 
L 152.372385 24.823055 
L 156.004243 24.823055 
" clip-path="url(#p8a57698d88)" style="fill: none; stroke: #c70303; stroke-opacity: 0.135135; stroke-width: 2; stroke-linecap: square"/>
   </g>
   <g id="line2d_21">
    <path d="M 156.004243 24.823055 
L 159.636102 24.823055 
L 163.267961 24.823055 
L 166.899819 32.10131 
L 170.531678 46.657854 
L 174.163536 57.575219 
L 177.795395 72.131763 
L 181.427253 90.327418 
L 185.059112 104.883928 
L 188.69097 119.440472 
L 192.322829 126.718727 
L 195.954688 137.636127 
L 199.586546 152.192636 
L 203.218405 163.110036 
L 206.850263 170.388291 
L 210.482122 174.027436 
L 214.11398 181.30569 
L 217.745839 188.583945 
L 221.377697 199.501345 
L 225.009556 210.418745 
L 228.641414 221.336109 
" clip-path="url(#p8a57698d88)" style="fill: none; stroke: #2979ea; stroke-opacity: 0.135135; stroke-width: 2; stroke-linecap: square"/>
   </g>
   <g id="line2d_22">
    <path d="M 86.998931 228.614399 
L 90.63079 228.614399 
L 94.262648 228.614399 
L 97.894507 220.776278 
L 101.526365 197.261913 
L 105.158224 173.747512 
L 108.790082 158.071269 
L 112.421941 146.314068 
L 116.053799 134.556867 
L 119.685658 122.799666 
L 123.317516 111.042465 
L 126.949375 95.366222 
L 130.581234 87.528101 
L 134.213092 71.851821 
L 137.844951 60.094657 
L 141.476809 52.256498 
L 145.108668 40.499335 
L 148.740526 32.661176 
L 152.372385 24.823055 
L 156.004243 24.823055 
" clip-path="url(#p8a57698d88)" style="fill: none; stroke: #c70303; stroke-opacity: 0.162162; stroke-width: 2; stroke-linecap: square"/>
   </g>
   <g id="line2d_23">
    <path d="M 156.004243 24.823055 
L 159.636102 24.823055 
L 163.267961 24.823055 
L 166.899819 28.742134 
L 170.531678 44.418377 
L 174.163536 60.094657 
L 177.795395 71.851821 
L 181.427253 79.68998 
L 185.059112 99.285302 
L 188.69097 111.042465 
L 192.322829 118.880624 
L 195.954688 134.556867 
L 199.586546 150.23311 
L 203.218405 165.90939 
L 206.850263 169.828432 
L 210.482122 173.747512 
L 214.11398 173.747512 
L 217.745839 177.666591 
L 221.377697 193.342834 
L 225.009556 209.019077 
L 228.641414 220.776278 
L 232.273273 228.614399 
" clip-path="url(#p8a57698d88)" style="fill: none; stroke: #2979ea; stroke-opacity: 0.162162; stroke-width: 2; stroke-linecap: square"/>
   </g>
   <g id="line2d_24">
    <path d="M 83.367072 228.614399 
L 86.998931 228.614399 
L 90.63079 228.614399 
L 94.262648 217.888566 
L 97.894507 196.436831 
L 101.526365 167.834529 
L 105.158224 149.958095 
L 108.790082 139.232228 
L 112.421941 135.656961 
L 116.053799 124.931094 
L 119.685658 110.62996 
L 123.317516 99.904092 
L 126.949375 89.178225 
L 130.581234 78.452358 
L 134.213092 67.72649 
L 137.844951 57.000657 
L 141.476809 49.850056 
L 145.108668 39.124223 
L 148.740526 31.973622 
L 152.372385 24.823055 
L 156.004243 24.823055 
" clip-path="url(#p8a57698d88)" style="fill: none; stroke: #c70303; stroke-opacity: 0.189189; stroke-width: 2; stroke-linecap: square"/>
   </g>
   <g id="line2d_25">
    <path d="M 156.004243 24.823055 
L 159.636102 24.823055 
L 163.267961 24.823055 
L 166.899819 35.548922 
L 170.531678 46.27479 
L 174.163536 57.000657 
L 177.795395 71.301791 
L 181.427253 82.027658 
L 185.059112 96.328792 
L 188.69097 107.054659 
L 192.322829 121.355793 
L 195.954688 132.081661 
L 199.586546 142.807528 
L 203.218405 157.108662 
L 206.850263 164.259263 
L 210.482122 174.985096 
L 214.11398 178.560397 
L 217.745839 182.135697 
L 221.377697 185.710964 
L 225.009556 196.436831 
L 228.641414 210.737965 
L 232.273273 225.039133 
L 235.905132 228.614399 
" clip-path="url(#p8a57698d88)" style="fill: none; stroke: #2979ea; stroke-opacity: 0.189189; stroke-width: 2; stroke-linecap: square"/>
   </g>
   <g id="line2d_26">
    <path d="M 83.367072 228.614399 
L 86.998931 228.614399 
L 90.63079 228.614399 
L 94.262648 210.418741 
L 97.894507 184.944828 
L 101.526365 166.74917 
L 105.158224 155.831769 
L 108.790082 141.275256 
L 112.421941 130.357855 
L 116.053799 115.801343 
L 119.685658 104.883941 
L 123.317516 97.605685 
L 126.949375 86.688284 
L 130.581234 79.410028 
L 134.213092 68.492626 
L 137.844951 61.21437 
L 141.476809 50.296968 
L 145.108668 43.018712 
L 148.740526 28.462165 
L 152.372385 24.823055 
L 156.004243 24.823055 
" clip-path="url(#p8a57698d88)" style="fill: none; stroke: #c70303; stroke-opacity: 0.216216; stroke-width: 2; stroke-linecap: square"/>
   </g>
   <g id="line2d_27">
    <path d="M 156.004243 24.823055 
L 159.636102 24.823055 
L 163.267961 24.823055 
L 166.899819 35.740456 
L 170.531678 46.657823 
L 174.163536 57.575225 
L 177.795395 68.492626 
L 181.427253 83.049138 
L 185.059112 93.96654 
L 188.69097 108.523087 
L 192.322829 119.440453 
L 195.954688 130.357855 
L 199.586546 141.275256 
L 203.218405 155.831769 
L 206.850263 166.74917 
L 210.482122 177.666572 
L 214.11398 181.305717 
L 217.745839 184.944828 
L 221.377697 188.583973 
L 225.009556 199.501375 
L 228.641414 210.418741 
L 232.273273 221.336143 
L 235.905132 224.975288 
" clip-path="url(#p8a57698d88)" style="fill: none; stroke: #2979ea; stroke-opacity: 0.216216; stroke-width: 2; stroke-linecap: square"/>
   </g>
   <g id="line2d_28">
    <path d="M 83.367072 228.614399 
L 86.998931 228.614399 
L 90.63079 224.840471 
L 94.262648 205.970904 
L 97.894507 190.875265 
L 101.526365 175.77959 
L 105.158224 153.136131 
L 108.790082 141.814384 
L 112.421941 134.266564 
L 116.053799 119.170889 
L 119.685658 104.07525 
L 123.317516 92.753503 
L 126.949375 85.205683 
L 130.581234 77.657864 
L 134.213092 70.110044 
L 137.844951 58.788297 
L 141.476809 47.466549 
L 145.108668 39.91873 
L 148.740526 28.596983 
L 152.372385 24.823055 
L 156.004243 24.823055 
" clip-path="url(#p8a57698d88)" style="fill: none; stroke: #c70303; stroke-opacity: 0.243243; stroke-width: 2; stroke-linecap: square"/>
   </g>
   <g id="line2d_29">
    <path d="M 156.004243 24.823055 
L 159.636102 24.823055 
L 163.267961 24.823055 
L 166.899819 39.91873 
L 170.531678 55.014369 
L 174.163536 70.110044 
L 177.795395 81.431756 
L 181.427253 88.979611 
L 185.059112 104.07525 
L 188.69097 111.62307 
L 192.322829 126.718745 
L 195.954688 138.040456 
L 199.586546 153.136131 
L 203.218405 164.457879 
L 206.850263 175.77959 
L 210.482122 183.327446 
L 214.11398 190.875265 
L 217.745839 198.423085 
L 221.377697 205.970904 
L 225.009556 209.744832 
L 228.641414 217.292652 
L 232.273273 228.614399 
L 235.905132 239.936146 
" clip-path="url(#p8a57698d88)" style="fill: none; stroke: #2979ea; stroke-opacity: 0.243243; stroke-width: 2; stroke-linecap: square"/>
   </g>
   <g id="line2d_30">
    <path d="M 83.367072 228.614399 
L 86.998931 228.614399 
L 90.63079 228.614399 
L 94.262648 218.252122 
L 97.894507 204.435741 
L 101.526365 183.711219 
L 105.158224 149.170317 
L 108.790082 138.808039 
L 112.421941 131.899866 
L 116.053799 124.991692 
L 119.685658 114.629414 
L 123.317516 100.813034 
L 126.949375 97.358963 
L 130.581234 80.088512 
L 134.213092 69.726235 
L 137.844951 62.818061 
L 141.476809 52.455783 
L 145.108668 42.093506 
L 148.740526 31.731229 
L 152.372385 24.823055 
L 156.004243 24.823055 
" clip-path="url(#p8a57698d88)" style="fill: none; stroke: #c70303; stroke-opacity: 0.27027; stroke-width: 2; stroke-linecap: square"/>
   </g>
   <g id="line2d_31">
    <path d="M 156.004243 24.823055 
L 159.636102 24.823055 
L 163.267961 24.823055 
L 166.899819 31.731229 
L 170.531678 42.093506 
L 174.163536 55.909887 
L 177.795395 69.726235 
L 181.427253 80.088512 
L 185.059112 93.90486 
L 188.69097 100.813034 
L 192.322829 107.72124 
L 195.954688 118.083485 
L 199.586546 128.445762 
L 203.218405 138.808039 
L 206.850263 149.170317 
L 210.482122 156.078491 
L 214.11398 162.986665 
L 217.745839 173.348942 
L 221.377697 180.257116 
L 225.009556 187.16529 
L 228.641414 200.98167 
L 232.273273 211.343948 
L 235.905132 214.798018 
" clip-path="url(#p8a57698d88)" style="fill: none; stroke: #2979ea; stroke-opacity: 0.27027; stroke-width: 2; stroke-linecap: square"/>
   </g>
   <g id="line2d_32">
    <path d="M 83.367072 228.614399 
L 86.998931 228.614399 
L 90.63079 228.614399 
L 94.262648 213.793224 
L 97.894507 187.856151 
L 101.526365 165.624354 
L 105.158224 143.392557 
L 108.790082 132.276694 
L 112.421941 121.160795 
L 116.053799 102.634309 
L 119.685658 95.223722 
L 123.317516 84.107824 
L 126.949375 76.697236 
L 130.581234 69.286614 
L 134.213092 58.17075 
L 137.844951 50.760128 
L 141.476809 43.349541 
L 145.108668 35.938953 
L 148.740526 28.528366 
L 152.372385 24.823055 
L 156.004243 24.823055 
" clip-path="url(#p8a57698d88)" style="fill: none; stroke: #c70303; stroke-opacity: 0.297297; stroke-width: 2; stroke-linecap: square"/>
   </g>
   <g id="line2d_33">
    <path d="M 156.004243 24.823055 
L 159.636102 24.823055 
L 163.267961 28.528366 
L 166.899819 43.349541 
L 170.531678 54.465439 
L 174.163536 65.581338 
L 177.795395 80.402512 
L 181.427253 87.8131 
L 185.059112 98.928998 
L 188.69097 110.044897 
L 192.322829 124.866071 
L 195.954688 135.98197 
L 199.586546 150.80318 
L 203.218405 161.919043 
L 206.850263 169.329666 
L 210.482122 176.740253 
L 214.11398 187.856151 
L 217.745839 195.266739 
L 221.377697 206.382637 
L 225.009556 213.793224 
L 228.641414 224.909123 
L 232.273273 236.024986 
L 235.905132 239.730298 
" clip-path="url(#p8a57698d88)" style="fill: none; stroke: #2979ea; stroke-opacity: 0.297297; stroke-width: 2; stroke-linecap: square"/>
   </g>
   <g id="line2d_34">
    <path d="M 83.367072 228.614399 
L 86.998931 228.614399 
L 90.63079 224.769265 
L 94.262648 201.698569 
L 97.894507 186.318069 
L 101.526365 167.092471 
L 105.158224 151.712008 
L 108.790082 140.176642 
L 112.421941 128.641276 
L 116.053799 120.951044 
L 119.685658 109.415678 
L 123.317516 97.880349 
L 126.949375 86.344982 
L 130.581234 74.809616 
L 134.213092 67.119385 
L 137.844951 55.584019 
L 141.476809 44.048653 
L 145.108668 36.358421 
L 148.740526 24.823055 
L 152.372385 24.823055 
L 156.004243 24.823055 
" clip-path="url(#p8a57698d88)" style="fill: none; stroke: #c70303; stroke-opacity: 0.324324; stroke-width: 2; stroke-linecap: square"/>
   </g>
   <g id="line2d_35">
    <path d="M 156.004243 24.823055 
L 159.636102 24.823055 
L 163.267961 24.823055 
L 166.899819 36.358421 
L 170.531678 47.893787 
L 174.163536 63.27425 
L 177.795395 78.654751 
L 181.427253 90.19008 
L 185.059112 105.57058 
L 188.69097 117.105946 
L 192.322829 128.641276 
L 195.954688 140.176642 
L 199.586546 155.557142 
L 203.218405 163.247374 
L 206.850263 174.78274 
L 210.482122 178.627837 
L 214.11398 190.163203 
L 217.745839 197.853435 
L 221.377697 205.543667 
L 225.009556 220.924167 
L 228.641414 232.459533 
L 232.273273 247.839997 
" clip-path="url(#p8a57698d88)" style="fill: none; stroke: #2979ea; stroke-opacity: 0.324324; stroke-width: 2; stroke-linecap: square"/>
   </g>
   <g id="line2d_36">
    <path d="M 83.367072 228.614399 
L 86.998931 228.614399 
L 90.63079 228.614399 
L 94.262648 214.313265 
L 97.894507 200.012097 
L 101.526365 182.135663 
L 105.158224 164.259229 
L 108.790082 146.382794 
L 112.421941 135.656927 
L 116.053799 117.780493 
L 119.685658 107.054659 
L 123.317516 96.328792 
L 126.949375 85.602925 
L 130.581234 71.301791 
L 134.213092 64.15119 
L 137.844951 53.425356 
L 141.476809 42.699489 
L 145.108668 35.548922 
L 148.740526 28.398321 
L 152.372385 24.823055 
L 156.004243 24.823055 
" clip-path="url(#p8a57698d88)" style="fill: none; stroke: #c70303; stroke-opacity: 0.351351; stroke-width: 2; stroke-linecap: square"/>
   </g>
   <g id="line2d_37">
    <path d="M 156.004243 24.823055 
L 159.636102 24.823055 
L 163.267961 24.823055 
L 166.899819 35.548922 
L 170.531678 46.274755 
L 174.163536 60.575923 
L 177.795395 67.72649 
L 181.427253 82.027624 
L 185.059112 85.602925 
L 188.69097 89.178225 
L 192.322829 99.904058 
L 195.954688 114.205226 
L 199.586546 128.50636 
L 203.218405 142.807528 
L 206.850263 157.108662 
L 210.482122 167.834529 
L 214.11398 171.409796 
L 217.745839 178.560397 
L 221.377697 189.28623 
L 225.009556 196.436831 
L 228.641414 207.162664 
L 232.273273 217.888532 
L 235.905132 225.039099 
" clip-path="url(#p8a57698d88)" style="fill: none; stroke: #2979ea; stroke-opacity: 0.351351; stroke-width: 2; stroke-linecap: square"/>
   </g>
   <g id="line2d_38">
    <path d="M 86.998931 228.614399 
L 90.63079 228.614399 
L 94.262648 228.614399 
L 97.894507 214.559835 
L 101.526365 196.991613 
L 105.158224 175.909734 
L 108.790082 151.314231 
L 112.421941 133.746009 
L 116.053799 123.205069 
L 119.685658 112.664163 
L 123.317516 105.636848 
L 126.949375 95.095941 
L 130.581234 81.041344 
L 134.213092 74.014062 
L 137.844951 59.959498 
L 141.476809 49.418558 
L 145.108668 42.391276 
L 148.740526 31.850337 
L 152.372385 24.823055 
L 156.004243 24.823055 
" clip-path="url(#p8a57698d88)" style="fill: none; stroke: #c70303; stroke-opacity: 0.378378; stroke-width: 2; stroke-linecap: square"/>
   </g>
   <g id="line2d_39">
    <path d="M 156.004243 24.823055 
L 159.636102 24.823055 
L 163.267961 24.823055 
L 166.899819 28.336679 
L 170.531678 42.391276 
L 174.163536 56.44584 
L 177.795395 66.98678 
L 181.427253 81.041344 
L 185.059112 95.095941 
L 188.69097 105.636848 
L 192.322829 119.691445 
L 195.954688 130.232385 
L 199.586546 140.773291 
L 203.218405 147.800606 
L 206.850263 161.85517 
L 210.482122 165.368828 
L 214.11398 172.39611 
L 217.745839 179.423392 
L 221.377697 186.450674 
L 225.009556 193.477956 
L 228.641414 200.505271 
L 232.273273 211.046177 
L 235.905132 218.073493 
" clip-path="url(#p8a57698d88)" style="fill: none; stroke: #2979ea; stroke-opacity: 0.378378; stroke-width: 2; stroke-linecap: square"/>
   </g>
   <g id="line2d_40">
    <path d="M 83.367072 228.614399 
L 86.998931 228.614399 
L 90.63079 228.614399 
L 94.262648 214.798018 
L 97.894507 194.073497 
L 101.526365 166.440768 
L 105.158224 149.170317 
L 108.790082 138.808039 
L 112.421941 131.899866 
L 116.053799 121.537588 
L 119.685658 111.175311 
L 123.317516 104.267137 
L 126.949375 93.90486 
L 130.581234 83.542582 
L 134.213092 80.088512 
L 137.844951 76.634408 
L 141.476809 66.272131 
L 145.108668 45.547609 
L 148.740526 28.277158 
L 152.372385 24.823055 
L 156.004243 24.823055 
" clip-path="url(#p8a57698d88)" style="fill: none; stroke: #c70303; stroke-opacity: 0.405405; stroke-width: 2; stroke-linecap: square"/>
   </g>
   <g id="line2d_41">
    <path d="M 156.004243 24.823055 
L 159.636102 24.823055 
L 163.267961 24.823055 
L 166.899819 42.093506 
L 170.531678 59.363957 
L 174.163536 76.634408 
L 177.795395 90.450789 
L 181.427253 100.813034 
L 185.059112 114.629414 
L 188.69097 128.445762 
L 192.322829 138.808039 
L 195.954688 149.170317 
L 199.586546 159.532594 
L 203.218405 169.894839 
L 206.850263 173.348942 
L 210.482122 183.711219 
L 214.11398 190.619393 
L 217.745839 194.073497 
L 221.377697 197.527567 
L 225.009556 211.343948 
L 228.641414 218.252122 
" clip-path="url(#p8a57698d88)" style="fill: none; stroke: #2979ea; stroke-opacity: 0.405405; stroke-width: 2; stroke-linecap: square"/>
   </g>
   <g id="line2d_42">
    <path d="M 83.367072 228.614399 
L 86.998931 228.614399 
L 90.63079 228.614399 
L 94.262648 224.538557 
L 97.894507 208.235265 
L 101.526365 187.85613 
L 105.158224 167.476996 
L 108.790082 151.173665 
L 112.421941 143.022019 
L 116.053799 130.79453 
L 119.685658 122.642884 
L 123.317516 114.491238 
L 126.949375 98.187946 
L 130.581234 85.960458 
L 134.213092 81.884616 
L 137.844951 73.73297 
L 141.476809 61.505481 
L 145.108668 53.353835 
L 148.740526 37.050543 
L 152.372385 24.823055 
L 156.004243 24.823055 
" clip-path="url(#p8a57698d88)" style="fill: none; stroke: #c70303; stroke-opacity: 0.432432; stroke-width: 2; stroke-linecap: square"/>
   </g>
   <g id="line2d_43">
    <path d="M 156.004243 24.823055 
L 159.636102 24.823055 
L 163.267961 24.823055 
L 166.899819 32.974701 
L 170.531678 45.202189 
L 174.163536 57.429678 
L 177.795395 73.73297 
L 181.427253 81.884616 
L 185.059112 98.187946 
L 188.69097 110.415396 
L 192.322829 122.642884 
L 195.954688 143.022019 
L 199.586546 155.249507 
L 203.218405 167.476996 
L 206.850263 175.628642 
L 210.482122 187.85613 
L 214.11398 196.007776 
L 217.745839 208.235265 
L 221.377697 216.386911 
L 225.009556 228.614399 
L 228.641414 240.841887 
L 232.273273 257.145179 
" clip-path="url(#p8a57698d88)" style="fill: none; stroke: #2979ea; stroke-opacity: 0.432432; stroke-width: 2; stroke-linecap: square"/>
   </g>
   <g id="line2d_44">
    <path d="M 86.998931 228.614399 
L 90.63079 228.614399 
L 94.262648 228.614399 
L 97.894507 215.251046 
L 101.526365 191.86513 
L 105.158224 171.8201 
L 108.790082 151.775038 
L 112.421941 131.730008 
L 116.053799 111.684947 
L 119.685658 98.321593 
L 123.317516 91.639885 
L 126.949375 78.276532 
L 130.581234 64.913178 
L 134.213092 58.23147 
L 137.844951 48.208971 
L 141.476809 38.18644 
L 145.108668 34.845586 
L 148.740526 24.823055 
L 152.372385 24.823055 
L 156.004243 24.823055 
" clip-path="url(#p8a57698d88)" style="fill: none; stroke: #c70303; stroke-opacity: 0.459459; stroke-width: 2; stroke-linecap: square"/>
   </g>
   <g id="line2d_45">
    <path d="M 156.004243 24.823055 
L 159.636102 24.823055 
L 163.267961 24.823055 
L 166.899819 34.845586 
L 170.531678 44.868117 
L 174.163536 58.23147 
L 177.795395 68.254001 
L 181.427253 78.276532 
L 185.059112 88.299062 
L 188.69097 98.321593 
L 192.322829 108.344092 
L 195.954688 118.366623 
L 199.586546 128.389154 
L 203.218405 141.752507 
L 206.850263 148.434216 
L 210.482122 155.115892 
L 214.11398 165.138423 
L 217.745839 178.501777 
L 221.377697 185.183453 
L 225.009556 191.86513 
L 228.641414 195.205984 
L 232.273273 205.228515 
L 235.905132 208.569337 
" clip-path="url(#p8a57698d88)" style="fill: none; stroke: #2979ea; stroke-opacity: 0.459459; stroke-width: 2; stroke-linecap: square"/>
   </g>
   <g id="line2d_46">
    <path d="M 83.367072 228.614399 
L 86.998931 228.614399 
L 90.63079 228.614399 
L 94.262648 208.235265 
L 97.894507 187.85613 
L 101.526365 171.552838 
L 105.158224 151.173704 
L 108.790082 138.946215 
L 112.421941 126.718727 
L 116.053799 114.491277 
L 119.685658 110.415435 
L 123.317516 98.187946 
L 126.949375 90.0363 
L 130.581234 81.884654 
L 134.213092 69.657166 
L 137.844951 57.429678 
L 141.476809 49.278032 
L 145.108668 37.050543 
L 148.740526 28.898897 
L 152.372385 24.823055 
L 156.004243 24.823055 
" clip-path="url(#p8a57698d88)" style="fill: none; stroke: #c70303; stroke-opacity: 0.486486; stroke-width: 2; stroke-linecap: square"/>
   </g>
   <g id="line2d_47">
    <path d="M 156.004243 24.823055 
L 159.636102 24.823055 
L 163.267961 24.823055 
L 166.899819 37.050543 
L 170.531678 53.353874 
L 174.163536 65.581324 
L 177.795395 81.884654 
L 181.427253 98.187946 
L 185.059112 110.415435 
L 188.69097 122.642923 
L 192.322829 138.946215 
L 195.954688 151.173704 
L 199.586546 167.476996 
L 203.218405 179.704484 
L 206.850263 187.85613 
L 210.482122 204.159461 
L 214.11398 212.311107 
L 217.745839 216.386949 
L 221.377697 232.690241 
L 225.009556 244.91773 
L 228.641414 253.069376 
" clip-path="url(#p8a57698d88)" style="fill: none; stroke: #2979ea; stroke-opacity: 0.486486; stroke-width: 2; stroke-linecap: square"/>
   </g>
   <g id="line2d_48">
    <path d="M 86.998931 228.614399 
L 90.63079 228.614399 
L 94.262648 225.160295 
L 97.894507 204.43577 
L 101.526365 187.165316 
L 105.158224 169.894862 
L 108.790082 149.170304 
L 112.421941 138.808025 
L 116.053799 128.445779 
L 119.685658 118.0835 
L 123.317516 107.721221 
L 126.949375 100.813046 
L 130.581234 90.450767 
L 134.213092 76.634417 
L 137.844951 62.818034 
L 141.476809 49.001684 
L 145.108668 42.093509 
L 148.740526 31.73123 
L 152.372385 24.823055 
L 156.004243 24.823055 
" clip-path="url(#p8a57698d88)" style="fill: none; stroke: #c70303; stroke-opacity: 0.513514; stroke-width: 2; stroke-linecap: square"/>
   </g>
   <g id="line2d_49">
    <path d="M 156.004243 24.823055 
L 159.636102 24.823055 
L 163.267961 24.823055 
L 166.899819 31.73123 
L 170.531678 38.639405 
L 174.163536 49.001684 
L 177.795395 62.818034 
L 181.427253 73.180313 
L 185.059112 86.996663 
L 188.69097 97.358942 
L 192.322829 111.175325 
L 195.954688 124.991675 
L 199.586546 135.353954 
L 203.218405 142.262129 
L 206.850263 152.624408 
L 210.482122 162.986687 
L 214.11398 169.894862 
L 217.745839 180.257141 
L 221.377697 194.073491 
L 225.009556 200.981666 
L 228.641414 207.889841 
L 232.273273 221.706224 
L 235.905132 225.160295 
" clip-path="url(#p8a57698d88)" style="fill: none; stroke: #2979ea; stroke-opacity: 0.513514; stroke-width: 2; stroke-linecap: square"/>
   </g>
   <g id="line2d_50">
    <path d="M 86.998931 228.614399 
L 90.63079 228.614399 
L 94.262648 221.203812 
L 97.894507 198.97205 
L 101.526365 173.034942 
L 105.158224 143.392592 
L 108.790082 121.160795 
L 112.421941 110.044897 
L 116.053799 102.634309 
L 119.685658 91.518411 
L 123.317516 84.107824 
L 126.949375 80.402512 
L 130.581234 72.991925 
L 134.213092 65.581338 
L 137.844951 58.17075 
L 141.476809 43.349541 
L 145.108668 32.233677 
L 148.740526 28.528366 
L 152.372385 24.823055 
L 156.004243 24.823055 
" clip-path="url(#p8a57698d88)" style="fill: none; stroke: #c70303; stroke-opacity: 0.540541; stroke-width: 2; stroke-linecap: square"/>
   </g>
   <g id="line2d_51">
    <path d="M 156.004243 24.823055 
L 159.636102 24.823055 
L 163.267961 32.233677 
L 166.899819 43.349541 
L 170.531678 54.465439 
L 174.163536 65.581338 
L 177.795395 80.402512 
L 181.427253 91.518411 
L 185.059112 106.339621 
L 188.69097 117.455484 
L 192.322829 128.571383 
L 195.954688 139.687281 
L 199.586546 150.80318 
L 203.218405 161.919078 
L 206.850263 169.329666 
L 210.482122 180.445564 
L 214.11398 191.561427 
L 217.745839 198.97205 
L 221.377697 210.087913 
L 225.009556 221.203812 
L 228.641414 232.31971 
" clip-path="url(#p8a57698d88)" style="fill: none; stroke: #2979ea; stroke-opacity: 0.540541; stroke-width: 2; stroke-linecap: square"/>
   </g>
   <g id="line2d_52">
    <path d="M 79.735214 228.614399 
L 83.367072 228.614399 
L 86.998931 228.614399 
L 90.63079 217.29265 
L 94.262648 190.875259 
L 97.894507 168.23176 
L 101.526365 153.136118 
L 105.158224 141.814369 
L 108.790082 134.266548 
L 112.421941 122.944798 
L 116.053799 115.396978 
L 119.685658 107.849157 
L 123.317516 96.527407 
L 126.949375 88.979586 
L 130.581234 77.657837 
L 134.213092 66.336088 
L 137.844951 58.788267 
L 141.476809 47.466517 
L 145.108668 39.918697 
L 148.740526 28.596947 
L 152.372385 24.823055 
L 156.004243 24.823055 
" clip-path="url(#p8a57698d88)" style="fill: none; stroke: #c70303; stroke-opacity: 0.567568; stroke-width: 2; stroke-linecap: square"/>
   </g>
   <g id="line2d_53">
    <path d="M 156.004243 24.823055 
L 159.636102 24.823055 
L 163.267961 32.370876 
L 166.899819 43.692625 
L 170.531678 55.014338 
L 174.163536 70.110016 
L 177.795395 81.431766 
L 181.427253 96.527407 
L 185.059112 111.623049 
L 188.69097 126.718727 
L 192.322829 138.040476 
L 195.954688 149.36219 
L 199.586546 160.683939 
L 203.218405 172.005688 
L 206.850263 175.779617 
L 210.482122 187.10133 
L 214.11398 198.423079 
L 217.745839 205.9709 
L 221.377697 217.29265 
L 225.009556 228.614399 
L 228.641414 236.16222 
" clip-path="url(#p8a57698d88)" style="fill: none; stroke: #2979ea; stroke-opacity: 0.567568; stroke-width: 2; stroke-linecap: square"/>
   </g>
   <g id="line2d_54">
    <path d="M 79.735214 228.614399 
L 83.367072 228.614399 
L 86.998931 228.614399 
L 90.63079 206.382637 
L 94.262648 184.15084 
L 97.894507 169.329666 
L 101.526365 158.213767 
L 105.158224 150.80318 
L 108.790082 143.392557 
L 112.421941 132.276694 
L 116.053799 121.160795 
L 119.685658 110.044897 
L 123.317516 98.928998 
L 126.949375 91.518411 
L 130.581234 76.697236 
L 134.213092 72.991925 
L 137.844951 61.876026 
L 141.476809 50.760128 
L 145.108668 43.349541 
L 148.740526 32.233642 
L 152.372385 24.823055 
L 156.004243 24.823055 
" clip-path="url(#p8a57698d88)" style="fill: none; stroke: #c70303; stroke-opacity: 0.594595; stroke-width: 2; stroke-linecap: square"/>
   </g>
   <g id="line2d_55">
    <path d="M 156.004243 24.823055 
L 159.636102 24.823055 
L 163.267961 24.823055 
L 166.899819 32.233642 
L 170.531678 39.644265 
L 174.163536 50.760128 
L 177.795395 65.581338 
L 181.427253 76.697236 
L 185.059112 91.518411 
L 188.69097 106.339585 
L 192.322829 117.455484 
L 195.954688 124.866071 
L 199.586546 139.687281 
L 203.218405 147.097868 
L 206.850263 158.213767 
L 210.482122 165.624354 
L 214.11398 169.329666 
L 217.745839 176.740253 
L 221.377697 187.856151 
L 225.009556 210.087913 
L 228.641414 217.4985 
L 232.273273 221.203812 
" clip-path="url(#p8a57698d88)" style="fill: none; stroke: #2979ea; stroke-opacity: 0.594595; stroke-width: 2; stroke-linecap: square"/>
   </g>
   <g id="line2d_56">
    <path d="M 86.998931 228.614399 
L 90.63079 228.614399 
L 94.262648 224.840471 
L 97.894507 202.197008 
L 101.526365 183.327438 
L 105.158224 164.457867 
L 108.790082 149.36219 
L 112.421941 141.814369 
L 116.053799 134.266548 
L 119.685658 122.944798 
L 123.317516 111.623049 
L 126.949375 96.527407 
L 130.581234 85.205658 
L 134.213092 77.657837 
L 137.844951 66.336088 
L 141.476809 55.014338 
L 145.108668 43.692625 
L 148.740526 28.596947 
L 152.372385 24.823055 
L 156.004243 24.823055 
" clip-path="url(#p8a57698d88)" style="fill: none; stroke: #c70303; stroke-opacity: 0.621622; stroke-width: 2; stroke-linecap: square"/>
   </g>
   <g id="line2d_57">
    <path d="M 156.004243 24.823055 
L 159.636102 24.823055 
L 163.267961 24.823055 
L 166.899819 36.144768 
L 170.531678 51.240446 
L 174.163536 62.562195 
L 177.795395 77.657837 
L 181.427253 88.979586 
L 185.059112 100.301336 
L 188.69097 111.623049 
L 192.322829 122.944798 
L 195.954688 138.040476 
L 199.586546 149.36219 
L 203.218405 160.683939 
L 206.850263 168.23176 
L 210.482122 179.553509 
L 214.11398 190.875259 
L 217.745839 198.423079 
L 221.377697 205.9709 
L 225.009556 213.518757 
L 228.641414 224.840471 
L 232.273273 228.614399 
" clip-path="url(#p8a57698d88)" style="fill: none; stroke: #2979ea; stroke-opacity: 0.621622; stroke-width: 2; stroke-linecap: square"/>
   </g>
   <g id="line2d_58">
    <path d="M 86.998931 228.614399 
L 90.63079 228.614399 
L 94.262648 224.769265 
L 97.894507 197.853435 
L 101.526365 178.627837 
L 105.158224 163.247374 
L 108.790082 144.021776 
L 112.421941 136.331544 
L 116.053799 124.796178 
L 119.685658 113.260812 
L 123.317516 105.57058 
L 126.949375 94.035214 
L 130.581234 78.654751 
L 134.213092 63.27425 
L 137.844951 59.429153 
L 141.476809 47.893787 
L 145.108668 40.203555 
L 148.740526 28.668189 
L 152.372385 24.823055 
L 156.004243 24.823055 
" clip-path="url(#p8a57698d88)" style="fill: none; stroke: #c70303; stroke-opacity: 0.648649; stroke-width: 2; stroke-linecap: square"/>
   </g>
   <g id="line2d_59">
    <path d="M 156.004243 24.823055 
L 159.636102 24.823055 
L 163.267961 24.823055 
L 166.899819 28.668189 
L 170.531678 44.048653 
L 174.163536 55.584019 
L 177.795395 70.964482 
L 181.427253 82.499848 
L 185.059112 94.035214 
L 188.69097 105.57058 
L 192.322829 117.105946 
L 195.954688 128.641276 
L 199.586546 140.176642 
L 203.218405 151.712008 
L 206.850263 163.247374 
L 210.482122 167.092471 
L 214.11398 174.78274 
L 217.745839 190.163203 
L 221.377697 194.008338 
L 225.009556 209.388801 
L 228.641414 220.924167 
L 232.273273 236.304631 
L 235.905132 240.149765 
" clip-path="url(#p8a57698d88)" style="fill: none; stroke: #2979ea; stroke-opacity: 0.648649; stroke-width: 2; stroke-linecap: square"/>
   </g>
   <g id="line2d_60">
    <path d="M 90.63079 228.614399 
L 94.262648 228.614399 
L 97.894507 220.924167 
L 101.526365 194.008301 
L 105.158224 170.937606 
L 108.790082 155.557105 
L 112.421941 140.176642 
L 116.053799 124.796178 
L 119.685658 117.10591 
L 123.317516 105.57058 
L 126.949375 94.035214 
L 130.581234 86.344982 
L 134.213092 74.809616 
L 137.844951 63.27425 
L 141.476809 55.584019 
L 145.108668 40.203518 
L 148.740526 32.513287 
L 152.372385 24.823055 
L 156.004243 24.823055 
" clip-path="url(#p8a57698d88)" style="fill: none; stroke: #c70303; stroke-opacity: 0.675676; stroke-width: 2; stroke-linecap: square"/>
   </g>
   <g id="line2d_61">
    <path d="M 156.004243 24.823055 
L 159.636102 24.823055 
L 163.267961 24.823055 
L 166.899819 32.513287 
L 170.531678 44.048653 
L 174.163536 59.429116 
L 177.795395 74.809616 
L 181.427253 86.344982 
L 185.059112 97.880312 
L 188.69097 113.260812 
L 192.322829 124.796178 
L 195.954688 140.176642 
L 199.586546 151.712008 
L 203.218405 163.247374 
L 206.850263 170.937606 
L 210.482122 182.472972 
L 214.11398 194.008301 
L 217.745839 201.698569 
L 221.377697 209.388801 
L 225.009556 220.924167 
L 228.641414 228.614399 
" clip-path="url(#p8a57698d88)" style="fill: none; stroke: #2979ea; stroke-opacity: 0.675676; stroke-width: 2; stroke-linecap: square"/>
   </g>
   <g id="line2d_62">
    <path d="M 83.367072 228.614399 
L 86.998931 228.614399 
L 90.63079 228.614399 
L 94.262648 216.857198 
L 97.894507 193.342796 
L 101.526365 173.747474 
L 105.158224 161.990311 
L 108.790082 150.23311 
L 112.421941 138.475909 
L 116.053799 126.718708 
L 119.685658 114.961507 
L 123.317516 103.204344 
L 126.949375 95.366185 
L 130.581234 83.609022 
L 134.213092 71.851821 
L 137.844951 60.09462 
L 141.476809 52.256498 
L 145.108668 40.499298 
L 148.740526 28.742097 
L 152.372385 24.823055 
L 156.004243 24.823055 
" clip-path="url(#p8a57698d88)" style="fill: none; stroke: #c70303; stroke-opacity: 0.702703; stroke-width: 2; stroke-linecap: square"/>
   </g>
   <g id="line2d_63">
    <path d="M 156.004243 24.823055 
L 159.636102 24.823055 
L 163.267961 28.742097 
L 166.899819 40.499298 
L 170.531678 56.175541 
L 174.163536 67.932741 
L 177.795395 83.609022 
L 181.427253 95.366185 
L 185.059112 111.042465 
L 188.69097 122.799666 
L 192.322829 134.55683 
L 195.954688 146.31403 
L 199.586546 161.990311 
L 203.218405 169.828432 
L 206.850263 185.504675 
L 210.482122 193.342796 
L 214.11398 201.180955 
L 217.745839 212.938119 
L 221.377697 224.69532 
L 225.009556 236.45252 
" clip-path="url(#p8a57698d88)" style="fill: none; stroke: #2979ea; stroke-opacity: 0.702703; stroke-width: 2; stroke-linecap: square"/>
   </g>
   <g id="line2d_64">
    <path d="M 79.735214 228.614399 
L 83.367072 228.614399 
L 86.998931 228.614399 
L 90.63079 217.696999 
L 94.262648 199.501345 
L 97.894507 181.30569 
L 101.526365 159.470926 
L 105.158224 152.192636 
L 108.790082 141.275271 
L 112.421941 130.357872 
L 116.053799 123.079617 
L 119.685658 112.162217 
L 123.317516 101.244818 
L 126.949375 93.966563 
L 130.581234 79.410018 
L 134.213092 72.131763 
L 137.844951 64.853509 
L 141.476809 50.296999 
L 145.108668 39.379599 
L 148.740526 28.4622 
L 152.372385 24.823055 
L 156.004243 24.823055 
" clip-path="url(#p8a57698d88)" style="fill: none; stroke: #c70303; stroke-opacity: 0.72973; stroke-width: 2; stroke-linecap: square"/>
   </g>
   <g id="line2d_65">
    <path d="M 156.004243 24.823055 
L 159.636102 24.823055 
L 163.267961 28.4622 
L 166.899819 43.018709 
L 170.531678 57.575254 
L 174.163536 68.492653 
L 177.795395 79.410018 
L 181.427253 93.966563 
L 185.059112 104.883962 
L 188.69097 119.440472 
L 192.322829 130.357872 
L 195.954688 144.914381 
L 199.586546 155.831781 
L 203.218405 159.470926 
L 206.850263 170.388291 
L 210.482122 181.30569 
L 214.11398 192.22309 
L 217.745839 199.501345 
L 221.377697 210.418745 
L 225.009556 221.336144 
L 228.641414 224.975254 
" clip-path="url(#p8a57698d88)" style="fill: none; stroke: #2979ea; stroke-opacity: 0.72973; stroke-width: 2; stroke-linecap: square"/>
   </g>
   <g id="line2d_66">
    <path d="M 86.998931 228.614399 
L 90.63079 228.614399 
L 94.262648 216.857236 
L 97.894507 197.261913 
L 101.526365 173.747512 
L 105.158224 158.071269 
L 108.790082 142.394988 
L 112.421941 134.556867 
L 116.053799 122.799666 
L 119.685658 114.961545 
L 123.317516 107.123423 
L 126.949375 95.366222 
L 130.581234 87.528101 
L 134.213092 75.7709 
L 137.844951 64.013699 
L 141.476809 52.256498 
L 145.108668 40.499335 
L 148.740526 28.742134 
L 152.372385 24.823055 
L 156.004243 24.823055 
" clip-path="url(#p8a57698d88)" style="fill: none; stroke: #c70303; stroke-opacity: 0.756757; stroke-width: 2; stroke-linecap: square"/>
   </g>
   <g id="line2d_67">
    <path d="M 156.004243 24.823055 
L 159.636102 24.823055 
L 163.267961 28.742134 
L 166.899819 40.499335 
L 170.531678 56.175578 
L 174.163536 71.851821 
L 177.795395 83.609022 
L 181.427253 99.285302 
L 185.059112 114.961545 
L 188.69097 126.718746 
L 192.322829 138.475946 
L 195.954688 150.23311 
L 199.586546 161.990311 
L 203.218405 173.747512 
L 206.850263 181.585633 
L 210.482122 193.342834 
L 214.11398 201.180955 
L 217.745839 212.938156 
L 221.377697 224.695357 
L 225.009556 240.3716 
" clip-path="url(#p8a57698d88)" style="fill: none; stroke: #2979ea; stroke-opacity: 0.756757; stroke-width: 2; stroke-linecap: square"/>
   </g>
   <g id="line2d_68">
    <path d="M 79.735214 228.614399 
L 83.367072 228.614399 
L 86.998931 228.614399 
L 90.63079 209.744829 
L 94.262648 190.875259 
L 97.894507 179.553509 
L 101.526365 160.683939 
L 105.158224 149.362226 
L 108.790082 138.040476 
L 112.421941 130.492655 
L 116.053799 119.170906 
L 119.685658 104.075228 
L 123.317516 96.527407 
L 126.949375 88.979586 
L 130.581234 77.657837 
L 134.213092 70.110016 
L 137.844951 58.788267 
L 141.476809 51.240446 
L 145.108668 43.692625 
L 148.740526 36.144804 
L 152.372385 24.823055 
L 156.004243 24.823055 
" clip-path="url(#p8a57698d88)" style="fill: none; stroke: #c70303; stroke-opacity: 0.783784; stroke-width: 2; stroke-linecap: square"/>
   </g>
   <g id="line2d_69">
    <path d="M 156.004243 24.823055 
L 159.636102 24.823055 
L 163.267961 24.823055 
L 166.899819 32.370876 
L 170.531678 43.692625 
L 174.163536 47.466517 
L 177.795395 58.788267 
L 181.427253 73.883945 
L 185.059112 88.979586 
L 188.69097 100.301336 
L 192.322829 107.849157 
L 195.954688 115.396978 
L 199.586546 130.492655 
L 203.218405 134.266548 
L 206.850263 149.362226 
L 210.482122 168.231796 
L 214.11398 183.327438 
L 217.745839 190.875259 
L 221.377697 198.423079 
L 225.009556 205.970936 
L 228.641414 217.29265 
L 232.273273 228.614399 
" clip-path="url(#p8a57698d88)" style="fill: none; stroke: #2979ea; stroke-opacity: 0.783784; stroke-width: 2; stroke-linecap: square"/>
   </g>
   <g id="line2d_70">
    <path d="M 83.367072 228.614399 
L 86.998931 228.614399 
L 90.63079 228.614399 
L 94.262648 203.140485 
L 97.894507 188.583973 
L 101.526365 170.388316 
L 105.158224 155.831769 
L 108.790082 148.553513 
L 112.421941 141.275256 
L 116.053799 133.997 
L 119.685658 123.079599 
L 123.317516 112.162197 
L 126.949375 101.244796 
L 130.581234 90.327394 
L 134.213092 75.770882 
L 137.844951 64.853481 
L 141.476809 50.296968 
L 145.108668 39.379567 
L 148.740526 32.101311 
L 152.372385 24.823055 
L 156.004243 24.823055 
" clip-path="url(#p8a57698d88)" style="fill: none; stroke: #c70303; stroke-opacity: 0.810811; stroke-width: 2; stroke-linecap: square"/>
   </g>
   <g id="line2d_71">
    <path d="M 156.004243 24.823055 
L 159.636102 24.823055 
L 163.267961 24.823055 
L 166.899819 28.462165 
L 170.531678 39.379567 
L 174.163536 53.936079 
L 177.795395 61.21437 
L 181.427253 75.770882 
L 185.059112 90.327394 
L 188.69097 101.244796 
L 192.322829 119.440453 
L 195.954688 130.357855 
L 199.586546 137.636111 
L 203.218405 152.192658 
L 206.850263 159.470914 
L 210.482122 174.027426 
L 214.11398 184.944828 
L 217.745839 188.583973 
L 221.377697 199.50134 
L 225.009556 210.418741 
L 228.641414 224.975288 
L 232.273273 228.614399 
" clip-path="url(#p8a57698d88)" style="fill: none; stroke: #2979ea; stroke-opacity: 0.810811; stroke-width: 2; stroke-linecap: square"/>
   </g>
   <g id="line2d_72">
    <path d="M 83.367072 228.614399 
L 86.998931 228.614399 
L 90.63079 228.614399 
L 94.262648 209.019077 
L 97.894507 185.504712 
L 101.526365 161.990311 
L 105.158224 146.314068 
L 108.790082 134.556867 
L 112.421941 122.799666 
L 116.053799 114.961545 
L 119.685658 107.123423 
L 123.317516 99.285264 
L 126.949375 91.447143 
L 130.581234 83.609022 
L 134.213092 75.7709 
L 137.844951 64.013699 
L 141.476809 52.256498 
L 145.108668 44.418377 
L 148.740526 32.661176 
L 152.372385 24.823055 
L 156.004243 24.823055 
" clip-path="url(#p8a57698d88)" style="fill: none; stroke: #c70303; stroke-opacity: 0.837838; stroke-width: 2; stroke-linecap: square"/>
   </g>
   <g id="line2d_73">
    <path d="M 156.004243 24.823055 
L 159.636102 24.823055 
L 163.267961 24.823055 
L 166.899819 36.580256 
L 170.531678 48.337456 
L 174.163536 60.09462 
L 177.795395 75.7709 
L 181.427253 91.447143 
L 185.059112 107.123423 
L 188.69097 122.799666 
L 192.322829 138.475909 
L 195.954688 154.152189 
L 199.586546 165.90939 
L 203.218405 177.666554 
L 206.850263 181.585633 
L 210.482122 193.342834 
L 214.11398 205.100035 
L 217.745839 212.938156 
L 221.377697 220.776278 
L 225.009556 232.533478 
L 228.641414 236.45252 
" clip-path="url(#p8a57698d88)" style="fill: none; stroke: #2979ea; stroke-opacity: 0.837838; stroke-width: 2; stroke-linecap: square"/>
   </g>
   <g id="line2d_74">
    <path d="M 83.367072 228.614399 
L 86.998931 228.614399 
L 90.63079 228.614399 
L 94.262648 209.019077 
L 97.894507 193.342834 
L 101.526365 173.747512 
L 105.158224 158.071269 
L 108.790082 150.23311 
L 112.421941 138.475946 
L 116.053799 126.718746 
L 119.685658 114.961545 
L 123.317516 107.123423 
L 126.949375 95.366222 
L 130.581234 87.528101 
L 134.213092 71.851821 
L 137.844951 64.013699 
L 141.476809 52.256498 
L 145.108668 40.499335 
L 148.740526 32.661176 
L 152.372385 24.823055 
L 156.004243 24.823055 
" clip-path="url(#p8a57698d88)" style="fill: none; stroke: #c70303; stroke-opacity: 0.864865; stroke-width: 2; stroke-linecap: square"/>
   </g>
   <g id="line2d_75">
    <path d="M 156.004243 24.823055 
L 159.636102 24.823055 
L 163.267961 24.823055 
L 166.899819 28.742134 
L 170.531678 48.337456 
L 174.163536 64.013699 
L 177.795395 79.68998 
L 181.427253 95.366222 
L 185.059112 107.123423 
L 188.69097 122.799666 
L 192.322829 130.637788 
L 195.954688 138.475946 
L 199.586546 154.152189 
L 203.218405 161.990311 
L 206.850263 169.828432 
L 210.482122 181.585633 
L 214.11398 193.342834 
L 217.745839 201.180955 
L 221.377697 212.938156 
L 225.009556 224.695357 
L 228.641414 232.533478 
" clip-path="url(#p8a57698d88)" style="fill: none; stroke: #2979ea; stroke-opacity: 0.864865; stroke-width: 2; stroke-linecap: square"/>
   </g>
   <g id="line2d_76">
    <path d="M 79.735214 228.614399 
L 83.367072 228.614399 
L 86.998931 228.614399 
L 90.63079 209.019077 
L 94.262648 181.585633 
L 97.894507 158.071231 
L 101.526365 146.31403 
L 105.158224 142.394988 
L 108.790082 134.556867 
L 112.421941 122.799666 
L 116.053799 114.961545 
L 119.685658 107.123386 
L 123.317516 99.285264 
L 126.949375 87.528064 
L 130.581234 75.7709 
L 134.213092 60.09462 
L 137.844951 52.256498 
L 141.476809 40.499298 
L 145.108668 32.661176 
L 148.740526 24.823055 
L 152.372385 24.823055 
L 156.004243 24.823055 
" clip-path="url(#p8a57698d88)" style="fill: none; stroke: #c70303; stroke-opacity: 0.891892; stroke-width: 2; stroke-linecap: square"/>
   </g>
   <g id="line2d_77">
    <path d="M 156.004243 24.823055 
L 159.636102 24.823055 
L 163.267961 24.823055 
L 166.899819 36.580256 
L 170.531678 44.418377 
L 174.163536 64.013699 
L 177.795395 75.7709 
L 181.427253 87.528064 
L 185.059112 99.285264 
L 188.69097 114.961545 
L 192.322829 130.637788 
L 195.954688 142.394988 
L 199.586546 154.152189 
L 203.218405 161.990311 
L 206.850263 173.747512 
L 210.482122 185.504675 
L 214.11398 197.261876 
L 217.745839 205.099997 
L 221.377697 212.938156 
L 225.009556 220.776278 
" clip-path="url(#p8a57698d88)" style="fill: none; stroke: #2979ea; stroke-opacity: 0.891892; stroke-width: 2; stroke-linecap: square"/>
   </g>
   <g id="line2d_78">
    <path d="M 86.998931 228.614399 
L 90.63079 228.614399 
L 94.262648 228.614399 
L 97.894507 212.311068 
L 101.526365 196.007776 
L 105.158224 179.704484 
L 108.790082 167.476996 
L 112.421941 155.249507 
L 116.053799 143.022019 
L 119.685658 134.870373 
L 123.317516 122.642884 
L 126.949375 106.339592 
L 130.581234 94.112104 
L 134.213092 85.960458 
L 137.844951 69.657127 
L 141.476809 53.353835 
L 145.108668 41.126347 
L 148.740526 28.898858 
L 152.372385 24.823055 
L 156.004243 24.823055 
" clip-path="url(#p8a57698d88)" style="fill: none; stroke: #c70303; stroke-opacity: 0.918919; stroke-width: 2; stroke-linecap: square"/>
   </g>
   <g id="line2d_79">
    <path d="M 156.004243 24.823055 
L 159.636102 24.823055 
L 163.267961 28.898858 
L 166.899819 41.126347 
L 170.531678 57.429678 
L 174.163536 69.657127 
L 177.795395 85.960458 
L 181.427253 98.187946 
L 185.059112 110.415396 
L 188.69097 126.718727 
L 192.322829 138.946215 
L 195.954688 151.173665 
L 199.586546 163.401153 
L 203.218405 175.628642 
L 206.850263 183.780288 
L 210.482122 196.007776 
L 214.11398 204.159422 
L 217.745839 212.311068 
L 221.377697 224.538557 
L 225.009556 236.766045 
L 228.641414 240.841868 
" clip-path="url(#p8a57698d88)" style="fill: none; stroke: #2979ea; stroke-opacity: 0.918919; stroke-width: 2; stroke-linecap: square"/>
   </g>
   <g id="line2d_80">
    <path d="M 86.998931 228.614399 
L 90.63079 228.614399 
L 94.262648 224.695339 
L 97.894507 205.100018 
L 101.526365 185.504698 
L 105.158224 165.909377 
L 108.790082 154.152177 
L 112.421941 138.475936 
L 116.053799 126.718736 
L 119.685658 114.961536 
L 123.317516 99.285295 
L 126.949375 87.528095 
L 130.581234 79.689975 
L 134.213092 64.013696 
L 137.844951 56.175575 
L 141.476809 52.256533 
L 145.108668 44.418375 
L 148.740526 36.580255 
L 152.372385 24.823055 
L 156.004243 24.823055 
" clip-path="url(#p8a57698d88)" style="fill: none; stroke: #c70303; stroke-opacity: 0.945946; stroke-width: 2; stroke-linecap: square"/>
   </g>
   <g id="line2d_81">
    <path d="M 156.004243 24.823055 
L 159.636102 24.823055 
L 163.267961 24.823055 
L 166.899819 32.661213 
L 170.531678 48.337454 
L 174.163536 60.094654 
L 177.795395 75.770896 
L 181.427253 91.447174 
L 185.059112 103.204337 
L 188.69097 114.961536 
L 192.322829 126.718736 
L 195.954688 138.475936 
L 199.586546 150.233136 
L 203.218405 158.071256 
L 206.850263 165.909377 
L 210.482122 177.666577 
L 214.11398 193.342818 
L 217.745839 197.261897 
L 221.377697 209.019097 
L 225.009556 212.938139 
" clip-path="url(#p8a57698d88)" style="fill: none; stroke: #2979ea; stroke-opacity: 0.945946; stroke-width: 2; stroke-linecap: square"/>
   </g>
   <g id="patch_3">
    <path d="M 47.048487 228.614399 
L 47.048487 24.823055 
" style="fill: none; stroke: #000000; stroke-width: 0.6; stroke-linejoin: miter; stroke-linecap: square"/>
   </g>
   <g id="patch_4">
    <path d="M 47.048487 228.614399 
L 264.96 228.614399 
" style="fill: none; stroke: #000000; stroke-width: 0.6; stroke-linejoin: miter; stroke-linecap: square"/>
   </g>
   <g id="text_12">
    <!-- 25 minutes 15 sec -->
    <g transform="translate(92.863496 18.823055) scale(0.168 -0.168)">
     <defs>
      <path id="CMR17-35" d="M 730 3692 
C 794 3666 1056 3584 1325 3584 
C 1920 3584 2246 3911 2432 4100 
C 2432 4157 2432 4192 2394 4192 
C 2387 4192 2374 4192 2323 4163 
C 2099 4058 1837 3973 1517 3973 
C 1325 3973 1037 3999 723 4139 
C 653 4171 640 4171 634 4171 
C 602 4171 595 4164 595 4037 
L 595 2203 
C 595 2089 595 2057 659 2057 
C 691 2057 704 2070 736 2114 
C 941 2401 1222 2522 1542 2522 
C 1766 2522 2246 2382 2246 1289 
C 2246 1085 2246 715 2054 421 
C 1894 159 1645 25 1370 25 
C 947 25 518 320 403 814 
C 429 807 480 795 506 795 
C 589 795 749 840 749 1038 
C 749 1210 627 1280 506 1280 
C 358 1280 262 1190 262 1011 
C 262 454 704 -128 1382 -128 
C 2042 -128 2669 440 2669 1264 
C 2669 2030 2170 2624 1549 2624 
C 1222 2624 947 2503 730 2274 
L 730 3692 
z
" transform="scale(0.015625)"/>
      <path id="CMR17-75" d="M 1882 2693 
L 1882 2528 
C 2259 2528 2317 2489 2317 2186 
L 2317 1032 
C 2317 500 2029 38 1555 38 
C 1030 38 986 348 986 678 
L 986 2763 
L 211 2693 
L 211 2528 
C 467 2528 640 2528 646 2274 
L 646 1058 
C 646 633 646 361 813 183 
C 896 101 1056 -64 1517 -64 
C 2061 -64 2272 377 2323 506 
L 2330 506 
L 2330 -63 
L 3091 -63 
L 3091 128 
C 2714 128 2656 166 2656 473 
L 2656 2763 
L 1882 2693 
z
" transform="scale(0.015625)"/>
      <path id="CMR17-63" d="M 2234 2240 
C 2112 2240 1933 2240 1933 2017 
C 1933 1838 2080 1787 2163 1787 
C 2208 1787 2394 1807 2394 2024 
C 2394 2467 1958 2803 1466 2803 
C 787 2803 211 2178 211 1363 
C 211 516 813 -64 1466 -64 
C 2259 -64 2458 677 2458 748 
C 2458 774 2451 793 2406 793 
C 2362 793 2355 787 2330 703 
C 2163 180 1798 51 1523 51 
C 1114 51 621 427 621 1369 
C 621 2338 1094 2688 1472 2688 
C 1722 2688 2093 2573 2234 2240 
z
" transform="scale(0.015625)"/>
     </defs>
     <use xlink:href="#CMR17-32" transform="scale(0.996264)"/>
     <use xlink:href="#CMR17-35" transform="translate(45.690477 0) scale(0.996264)"/>
     <use xlink:href="#CMR17-6d" transform="translate(121.456921 0) scale(0.996264)"/>
     <use xlink:href="#CMR17-69" transform="translate(198.37651 0) scale(0.996264)"/>
     <use xlink:href="#CMR17-6e" transform="translate(223.247569 0) scale(0.996264)"/>
     <use xlink:href="#CMR17-75" transform="translate(271.540485 0) scale(0.996264)"/>
     <use xlink:href="#CMR17-74" transform="translate(322.435855 0) scale(0.996264)"/>
     <use xlink:href="#CMR17-65" transform="translate(357.716622 0) scale(0.996264)"/>
     <use xlink:href="#CMR17-73" transform="translate(398.202283 0) scale(0.996264)"/>
     <use xlink:href="#CMR17-31" transform="translate(464.079587 0) scale(0.996264)"/>
     <use xlink:href="#CMR17-35" transform="translate(509.770064 0) scale(0.996264)"/>
     <use xlink:href="#CMR17-73" transform="translate(585.536507 0) scale(0.996264)"/>
     <use xlink:href="#CMR17-65" transform="translate(621.337845 0) scale(0.996264)"/>
     <use xlink:href="#CMR17-63" transform="translate(661.823505 0) scale(0.996264)"/>
    </g>
   </g>
  </g>
 </g>
 <defs>
  <clipPath id="p8a57698d88">
   <rect x="47.048487" y="24.823055" width="217.911513" height="203.791344"/>
  </clipPath>
 </defs>
</svg>
