<?xml version="1.0" encoding="utf-8" standalone="no"?>
<!DOCTYPE svg PUBLIC "-//W3C//DTD SVG 1.1//EN"
  "http://www.w3.org/Graphics/SVG/1.1/DTD/svg11.dtd">
<svg xmlns:xlink="http://www.w3.org/1999/xlink" width="272.16pt" height="272.16pt" viewBox="0 0 272.16 272.16" xmlns="http://www.w3.org/2000/svg" version="1.1">
 <metadata>
  <rdf:RDF xmlns:dc="http://purl.org/dc/elements/1.1/" xmlns:cc="http://creativecommons.org/ns#" xmlns:rdf="http://www.w3.org/1999/02/22-rdf-syntax-ns#">
   <cc:Work>
    <dc:type rdf:resource="http://purl.org/dc/dcmitype/StillImage"/>
    <dc:date>2025-12-22T10:03:11.208190</dc:date>
    <dc:format>image/svg+xml</dc:format>
    <dc:creator>
     <cc:Agent>
      <dc:title>Matplotlib v3.10.3, https://matplotlib.org/</dc:title>
     </cc:Agent>
    </dc:creator>
   </cc:Work>
  </rdf:RDF>
 </metadata>
 <defs>
  <style type="text/css">*{stroke-linejoin: round; stroke-linecap: butt}</style>
 </defs>
 <g id="figure_1">
  <g id="patch_1">
   <path d="M 0 272.16 
L 272.16 272.16 
L 272.16 0 
L 0 0 
L 0 272.16 
z
" style="fill: none"/>
  </g>
  <g id="axes_1">
   <g id="patch_2">
    <path d="M 47.048487 228.614399 
L 264.96 228.614399 
L 264.96 24.823055 
L 47.048487 24.823055 
L 47.048487 228.614399 
z
" style="fill: none"/>
   </g>
   <g id="matplotlib.axis_1">
    <g id="xtick_1">
     <g id="line2d_1">
      <defs>
       <path id="m4cd371f86f" d="M 0 0 
L 0 2.5 
" style="stroke: #000000; stroke-width: 0.6"/>
      </defs>
      <g>
       <use xlink:href="#m4cd371f86f" x="83.367072" y="228.614399" style="stroke: #000000; stroke-width: 0.6"/>
      </g>
     </g>
     <g id="text_1">
      <!-- $\mathdefault{-20}$ -->
      <g transform="translate(71.114466 244.300275) scale(0.14 -0.14)">
       <defs>
        <path id="CMSY10-0" d="M 4218 1472 
C 4326 1472 4442 1472 4442 1600 
C 4442 1728 4326 1728 4218 1728 
L 755 1728 
C 646 1728 531 1728 531 1600 
C 531 1472 646 1472 755 1472 
L 4218 1472 
z
" transform="scale(0.015625)"/>
        <path id="CMR17-32" d="M 2669 989 
L 2554 989 
C 2490 536 2438 459 2413 420 
C 2381 369 1920 369 1830 369 
L 602 369 
C 832 619 1280 1072 1824 1597 
C 2214 1967 2669 2402 2669 3035 
C 2669 3790 2067 4224 1395 4224 
C 691 4224 262 3604 262 3030 
C 262 2780 448 2748 525 2748 
C 589 2748 781 2787 781 3010 
C 781 3207 614 3264 525 3264 
C 486 3264 448 3258 422 3245 
C 544 3790 915 4058 1306 4058 
C 1862 4058 2227 3617 2227 3035 
C 2227 2479 1901 2000 1536 1584 
L 262 146 
L 262 0 
L 2515 0 
L 2669 989 
z
" transform="scale(0.015625)"/>
        <path id="CMR17-30" d="M 2688 2025 
C 2688 2416 2682 3080 2413 3591 
C 2176 4039 1798 4198 1466 4198 
C 1158 4198 768 4058 525 3597 
C 269 3118 243 2524 243 2025 
C 243 1661 250 1106 448 619 
C 723 -39 1216 -128 1466 -128 
C 1760 -128 2208 -7 2470 600 
C 2662 1042 2688 1559 2688 2025 
z
M 1466 -26 
C 1056 -26 813 325 723 812 
C 653 1188 653 1738 653 2096 
C 653 2588 653 2997 736 3387 
C 858 3929 1216 4096 1466 4096 
C 1728 4096 2067 3923 2189 3400 
C 2272 3036 2278 2607 2278 2096 
C 2278 1680 2278 1169 2202 792 
C 2067 95 1690 -26 1466 -26 
z
" transform="scale(0.015625)"/>
       </defs>
       <use xlink:href="#CMSY10-0" transform="scale(0.996264)"/>
       <use xlink:href="#CMR17-32" transform="translate(77.487468 0) scale(0.996264)"/>
       <use xlink:href="#CMR17-30" transform="translate(123.177945 0) scale(0.996264)"/>
      </g>
     </g>
    </g>
    <g id="xtick_2">
     <g id="line2d_2">
      <g>
       <use xlink:href="#m4cd371f86f" x="156.004243" y="228.614399" style="stroke: #000000; stroke-width: 0.6"/>
      </g>
     </g>
     <g id="text_2">
      <!-- $\mathdefault{0}$ -->
      <g transform="translate(152.589999 244.300275) scale(0.14 -0.14)">
       <use xlink:href="#CMR17-30" transform="scale(0.996264)"/>
      </g>
     </g>
    </g>
    <g id="xtick_3">
     <g id="line2d_3">
      <g>
       <use xlink:href="#m4cd371f86f" x="228.641414" y="228.614399" style="stroke: #000000; stroke-width: 0.6"/>
      </g>
     </g>
     <g id="text_3">
      <!-- $\mathdefault{20}$ -->
      <g transform="translate(221.812926 244.300275) scale(0.14 -0.14)">
       <use xlink:href="#CMR17-32" transform="scale(0.996264)"/>
       <use xlink:href="#CMR17-30" transform="translate(45.690477 0) scale(0.996264)"/>
      </g>
     </g>
    </g>
    <g id="text_4">
     <!-- $t$(s) -->
     <g transform="translate(145.533894 261.473076) scale(0.14 -0.14)">
      <defs>
       <path id="CMMI12-74" d="M 1286 2566 
L 1875 2566 
C 1997 2566 2061 2566 2061 2681 
C 2061 2752 2022 2752 1894 2752 
L 1331 2752 
L 1568 3692 
C 1594 3781 1594 3794 1594 3840 
C 1594 3943 1510 4000 1427 4000 
C 1376 4000 1229 3981 1178 3775 
L 928 2752 
L 326 2752 
C 198 2752 141 2752 141 2630 
C 141 2566 186 2566 307 2566 
L 877 2566 
L 454 881 
C 403 658 384 594 384 511 
C 384 211 595 -64 954 -64 
C 1600 -64 1946 868 1946 912 
C 1946 951 1920 970 1882 970 
C 1869 970 1843 970 1830 944 
C 1824 938 1818 931 1773 829 
C 1638 511 1344 64 973 64 
C 781 64 768 224 768 364 
C 768 370 768 492 787 568 
L 1286 2566 
z
" transform="scale(0.015625)"/>
       <path id="CMR17-28" d="M 1958 -1561 
C 1958 -1555 1958 -1542 1939 -1523 
C 1645 -1224 858 -407 858 1581 
C 858 3569 1632 4379 1946 4697 
C 1946 4704 1958 4717 1958 4736 
C 1958 4755 1939 4768 1914 4768 
C 1843 4768 1299 4296 986 3594 
C 666 2887 576 2199 576 1588 
C 576 1128 621 351 1005 -471 
C 1312 -1135 1837 -1600 1914 -1600 
C 1946 -1600 1958 -1587 1958 -1561 
z
" transform="scale(0.015625)"/>
       <path id="CMR17-73" d="M 1978 2697 
C 1978 2813 1971 2819 1933 2819 
C 1907 2819 1901 2813 1824 2717 
C 1805 2691 1747 2626 1728 2601 
C 1523 2819 1235 2819 1126 2819 
C 416 2819 160 2447 160 2076 
C 160 1498 813 1365 998 1325 
C 1402 1243 1542 1217 1677 1101 
C 1760 1025 1901 884 1901 654 
C 1901 384 1747 38 1158 38 
C 602 38 403 460 288 1021 
C 269 1110 269 1117 218 1117 
C 166 1117 160 1110 160 983 
L 160 63 
C 160 -51 166 -58 205 -58 
C 237 -58 243 -51 275 0 
C 314 57 410 211 448 276 
C 576 103 800 -64 1158 -64 
C 1792 -64 2131 283 2131 784 
C 2131 1112 1958 1285 1875 1362 
C 1683 1561 1459 1606 1190 1657 
C 838 1735 390 1825 390 2217 
C 390 2383 480 2737 1126 2737 
C 1811 2737 1850 2094 1862 1888 
C 1869 1856 1901 1849 1920 1849 
C 1978 1849 1978 1869 1978 1978 
L 1978 2697 
z
" transform="scale(0.015625)"/>
       <path id="CMR17-29" d="M 1683 1581 
C 1683 2040 1638 2817 1254 3639 
C 947 4303 422 4768 346 4768 
C 326 4768 301 4761 301 4729 
C 301 4717 307 4710 314 4697 
C 621 4378 1402 3568 1402 1584 
C 1402 -407 627 -1217 314 -1537 
C 307 -1549 301 -1556 301 -1568 
C 301 -1600 326 -1600 346 -1600 
C 416 -1600 960 -1128 1274 -426 
C 1594 281 1683 969 1683 1581 
z
" transform="scale(0.015625)"/>
      </defs>
      <use xlink:href="#CMMI12-74" transform="scale(0.996264)"/>
      <use xlink:href="#CMR17-28" transform="translate(35.22633 0) scale(0.996264)"/>
      <use xlink:href="#CMR17-73" transform="translate(70.507098 0) scale(0.996264)"/>
      <use xlink:href="#CMR17-29" transform="translate(106.308436 0) scale(0.996264)"/>
     </g>
    </g>
   </g>
   <g id="matplotlib.axis_2">
    <g id="ytick_1">
     <g id="line2d_4">
      <defs>
       <path id="m56f3a9ced1" d="M 0 0 
L -2.5 0 
" style="stroke: #000000; stroke-width: 0.6"/>
      </defs>
      <g>
       <use xlink:href="#m56f3a9ced1" x="47.048487" y="228.614399" style="stroke: #000000; stroke-width: 0.6"/>
      </g>
     </g>
     <g id="text_5">
      <!-- $\mathdefault{0.0}$ -->
      <g transform="translate(23.597905 233.457337) scale(0.14 -0.14)">
       <defs>
        <path id="CMMI12-3a" d="M 1178 307 
C 1178 492 1024 619 870 619 
C 685 619 557 466 557 313 
C 557 128 710 0 864 0 
C 1050 0 1178 153 1178 307 
z
" transform="scale(0.015625)"/>
       </defs>
       <use xlink:href="#CMR17-30" transform="scale(0.996264)"/>
       <use xlink:href="#CMMI12-3a" transform="translate(45.690477 0) scale(0.996264)"/>
       <use xlink:href="#CMR17-30" transform="translate(72.787654 0) scale(0.996264)"/>
      </g>
     </g>
    </g>
    <g id="ytick_2">
     <g id="line2d_5">
      <g>
       <use xlink:href="#m56f3a9ced1" x="47.048487" y="187.85613" style="stroke: #000000; stroke-width: 0.6"/>
      </g>
     </g>
     <g id="text_6">
      <!-- $\mathdefault{0.2}$ -->
      <g transform="translate(23.597905 192.699068) scale(0.14 -0.14)">
       <use xlink:href="#CMR17-30" transform="scale(0.996264)"/>
       <use xlink:href="#CMMI12-3a" transform="translate(45.690477 0) scale(0.996264)"/>
       <use xlink:href="#CMR17-32" transform="translate(72.787654 0) scale(0.996264)"/>
      </g>
     </g>
    </g>
    <g id="ytick_3">
     <g id="line2d_6">
      <g>
       <use xlink:href="#m56f3a9ced1" x="47.048487" y="147.097861" style="stroke: #000000; stroke-width: 0.6"/>
      </g>
     </g>
     <g id="text_7">
      <!-- $\mathdefault{0.4}$ -->
      <g transform="translate(23.597905 151.9408) scale(0.14 -0.14)">
       <defs>
        <path id="CMR17-34" d="M 2150 4122 
C 2150 4256 2144 4256 2029 4256 
L 128 1254 
L 128 1088 
L 1779 1088 
L 1779 457 
C 1779 224 1766 160 1318 160 
L 1197 160 
L 1197 0 
C 1402 0 1747 0 1965 0 
C 2182 0 2528 0 2733 0 
L 2733 160 
L 2611 160 
C 2163 160 2150 224 2150 457 
L 2150 1088 
L 2803 1088 
L 2803 1254 
L 2150 1254 
L 2150 4122 
z
M 1798 3703 
L 1798 1254 
L 256 1254 
L 1798 3703 
z
" transform="scale(0.015625)"/>
       </defs>
       <use xlink:href="#CMR17-30" transform="scale(0.996264)"/>
       <use xlink:href="#CMMI12-3a" transform="translate(45.690477 0) scale(0.996264)"/>
       <use xlink:href="#CMR17-34" transform="translate(72.787654 0) scale(0.996264)"/>
      </g>
     </g>
    </g>
    <g id="ytick_4">
     <g id="line2d_7">
      <g>
       <use xlink:href="#m56f3a9ced1" x="47.048487" y="106.339592" style="stroke: #000000; stroke-width: 0.6"/>
      </g>
     </g>
     <g id="text_8">
      <!-- $\mathdefault{0.6}$ -->
      <g transform="translate(23.597905 111.182531) scale(0.14 -0.14)">
       <defs>
        <path id="CMR17-36" d="M 678 2176 
C 678 3690 1395 4032 1811 4032 
C 1946 4032 2272 4009 2400 3776 
C 2298 3776 2106 3776 2106 3553 
C 2106 3381 2246 3323 2336 3323 
C 2394 3323 2566 3348 2566 3560 
C 2566 3954 2246 4179 1805 4179 
C 1043 4179 243 3390 243 1984 
C 243 253 966 -128 1478 -128 
C 2099 -128 2688 427 2688 1283 
C 2688 2081 2170 2662 1517 2662 
C 1126 2662 838 2407 678 1960 
L 678 2176 
z
M 1478 25 
C 691 25 691 1200 691 1436 
C 691 1896 909 2560 1504 2560 
C 1613 2560 1926 2560 2138 2120 
C 2253 1870 2253 1609 2253 1289 
C 2253 944 2253 690 2118 434 
C 1978 171 1773 25 1478 25 
z
" transform="scale(0.015625)"/>
       </defs>
       <use xlink:href="#CMR17-30" transform="scale(0.996264)"/>
       <use xlink:href="#CMMI12-3a" transform="translate(45.690477 0) scale(0.996264)"/>
       <use xlink:href="#CMR17-36" transform="translate(72.787654 0) scale(0.996264)"/>
      </g>
     </g>
    </g>
    <g id="ytick_5">
     <g id="line2d_8">
      <g>
       <use xlink:href="#m56f3a9ced1" x="47.048487" y="65.581324" style="stroke: #000000; stroke-width: 0.6"/>
      </g>
     </g>
     <g id="text_9">
      <!-- $\mathdefault{0.8}$ -->
      <g transform="translate(23.597905 70.424262) scale(0.14 -0.14)">
       <defs>
        <path id="CMR17-38" d="M 1741 2264 
C 2144 2467 2554 2773 2554 3263 
C 2554 3841 1990 4179 1472 4179 
C 890 4179 378 3759 378 3180 
C 378 3021 416 2747 666 2505 
C 730 2442 998 2251 1171 2130 
C 883 1983 211 1634 211 934 
C 211 279 838 -128 1459 -128 
C 2144 -128 2720 362 2720 1010 
C 2720 1590 2330 1857 2074 2029 
L 1741 2264 
z
M 902 2822 
C 851 2854 595 3051 595 3351 
C 595 3739 998 4032 1459 4032 
C 1965 4032 2336 3676 2336 3262 
C 2336 2669 1670 2331 1638 2331 
C 1632 2331 1626 2331 1574 2370 
L 902 2822 
z
M 2080 1519 
C 2176 1449 2483 1240 2483 851 
C 2483 381 2010 25 1472 25 
C 890 25 448 438 448 940 
C 448 1443 838 1862 1280 2060 
L 2080 1519 
z
" transform="scale(0.015625)"/>
       </defs>
       <use xlink:href="#CMR17-30" transform="scale(0.996264)"/>
       <use xlink:href="#CMMI12-3a" transform="translate(45.690477 0) scale(0.996264)"/>
       <use xlink:href="#CMR17-38" transform="translate(72.787654 0) scale(0.996264)"/>
      </g>
     </g>
    </g>
    <g id="ytick_6">
     <g id="line2d_9">
      <g>
       <use xlink:href="#m56f3a9ced1" x="47.048487" y="24.823055" style="stroke: #000000; stroke-width: 0.6"/>
      </g>
     </g>
     <g id="text_10">
      <!-- $\mathdefault{1.0}$ -->
      <g transform="translate(23.597905 29.665993) scale(0.14 -0.14)">
       <defs>
        <path id="CMR17-31" d="M 1702 4058 
C 1702 4192 1696 4192 1606 4192 
C 1357 3916 979 3827 621 3827 
C 602 3827 570 3827 563 3808 
C 557 3795 557 3782 557 3648 
C 755 3648 1088 3686 1344 3839 
L 1344 461 
C 1344 236 1331 160 781 160 
L 589 160 
L 589 0 
C 896 0 1216 0 1523 0 
C 1830 0 2150 0 2458 0 
L 2458 160 
L 2266 160 
C 1715 160 1702 230 1702 458 
L 1702 4058 
z
" transform="scale(0.015625)"/>
       </defs>
       <use xlink:href="#CMR17-31" transform="scale(0.996264)"/>
       <use xlink:href="#CMMI12-3a" transform="translate(45.690477 0) scale(0.996264)"/>
       <use xlink:href="#CMR17-30" transform="translate(72.787654 0) scale(0.996264)"/>
      </g>
     </g>
    </g>
    <g id="text_11">
     <!-- normalized elevation -->
     <g transform="translate(16.885876 187.985444) rotate(-90) scale(0.14 -0.14)">
      <defs>
       <path id="CMR17-6e" d="M 2656 1933 
C 2656 2259 2592 2790 1837 2790 
C 1331 2790 1069 2400 973 2144 
L 966 2144 
L 966 2790 
L 211 2720 
L 211 2554 
C 589 2554 646 2515 646 2208 
L 646 428 
C 646 184 621 153 211 153 
L 211 -13 
C 365 0 646 0 813 0 
C 979 0 1267 0 1421 -13 
L 1421 153 
C 1011 153 986 178 986 428 
L 986 1658 
C 986 2247 1344 2688 1792 2688 
C 2266 2688 2317 2266 2317 1958 
L 2317 428 
C 2317 184 2291 153 1882 153 
L 1882 -13 
C 2035 0 2317 0 2483 0 
C 2650 0 2938 0 3091 -13 
L 3091 153 
C 2682 153 2656 178 2656 428 
L 2656 1933 
z
" transform="scale(0.015625)"/>
       <path id="CMR17-6f" d="M 2758 1356 
C 2758 2176 2163 2816 1466 2816 
C 768 2816 173 2176 173 1356 
C 173 551 768 -64 1466 -64 
C 2163 -64 2758 551 2758 1356 
z
M 1466 51 
C 1165 51 909 230 762 480 
C 602 767 582 1126 582 1408 
C 582 1677 595 2010 762 2298 
C 890 2509 1139 2714 1466 2714 
C 1754 2714 1997 2554 2150 2330 
C 2349 2029 2349 1607 2349 1408 
C 2349 1158 2336 775 2163 467 
C 1984 173 1709 51 1466 51 
z
" transform="scale(0.015625)"/>
       <path id="CMR17-72" d="M 960 1497 
C 960 2112 1222 2688 1702 2688 
C 1747 2688 1792 2682 1837 2662 
C 1837 2662 1696 2617 1696 2452 
C 1696 2298 1818 2234 1914 2234 
C 1990 2234 2131 2279 2131 2458 
C 2131 2663 1926 2790 1709 2790 
C 1222 2790 1011 2317 947 2093 
L 941 2093 
L 941 2790 
L 198 2720 
L 198 2554 
C 576 2554 634 2515 634 2208 
L 634 428 
C 634 184 608 153 198 153 
L 198 -13 
C 352 0 646 0 813 0 
C 998 0 1325 0 1498 -13 
L 1498 153 
C 1037 153 960 153 960 440 
L 960 1497 
z
" transform="scale(0.015625)"/>
       <path id="CMR17-6d" d="M 4326 1933 
C 4326 2252 4269 2790 3507 2790 
C 3072 2790 2771 2496 2656 2151 
L 2650 2151 
C 2573 2676 2195 2790 1837 2790 
C 1331 2790 1069 2400 973 2144 
L 966 2144 
L 966 2790 
L 211 2720 
L 211 2554 
C 589 2554 646 2515 646 2208 
L 646 428 
C 646 184 621 153 211 153 
L 211 -13 
C 365 0 646 0 813 0 
C 979 0 1267 0 1421 -13 
L 1421 153 
C 1011 153 986 178 986 428 
L 986 1658 
C 986 2247 1344 2688 1792 2688 
C 2266 2688 2317 2266 2317 1958 
L 2317 428 
C 2317 184 2291 153 1882 153 
L 1882 -13 
C 2035 0 2317 0 2483 0 
C 2650 0 2938 0 3091 -13 
L 3091 153 
C 2682 153 2656 178 2656 428 
L 2656 1658 
C 2656 2247 3014 2688 3462 2688 
C 3936 2688 3987 2266 3987 1958 
L 3987 428 
C 3987 184 3962 153 3552 153 
L 3552 -13 
C 3706 0 3987 0 4154 0 
C 4320 0 4608 0 4762 -13 
L 4762 153 
C 4352 153 4326 178 4326 428 
L 4326 1933 
z
" transform="scale(0.015625)"/>
       <path id="CMR17-61" d="M 2304 1653 
C 2304 2072 2304 2294 2035 2543 
C 1798 2752 1523 2816 1306 2816 
C 800 2816 435 2407 435 1971 
C 435 1728 627 1728 666 1728 
C 749 1728 896 1778 896 1954 
C 896 2112 774 2181 666 2181 
C 640 2181 608 2174 589 2168 
C 723 2592 1069 2714 1293 2714 
C 1613 2714 1965 2429 1965 1885 
L 1965 1600 
C 1587 1600 1133 1549 774 1357 
C 371 1133 256 813 256 570 
C 256 77 832 -64 1171 -64 
C 1523 -64 1850 139 1990 511 
C 2003 233 2182 -18 2464 -18 
C 2598 -18 2938 70 2938 567 
L 2938 920 
L 2822 920 
L 2822 562 
C 2822 178 2650 128 2566 128 
C 2304 128 2304 458 2304 738 
L 2304 1653 
z
M 1965 870 
C 1965 317 1568 38 1216 38 
C 896 38 646 275 646 570 
C 646 761 730 1100 1101 1305 
C 1408 1478 1760 1504 1965 1504 
L 1965 870 
z
" transform="scale(0.015625)"/>
       <path id="CMR17-6c" d="M 979 4396 
L 218 4326 
L 218 4160 
C 595 4160 653 4122 653 3817 
L 653 426 
C 653 184 627 153 218 153 
L 218 -13 
C 371 0 653 0 813 0 
C 979 0 1261 0 1414 -13 
L 1414 153 
C 1005 153 979 178 979 426 
L 979 4396 
z
" transform="scale(0.015625)"/>
       <path id="CMR17-69" d="M 992 3909 
C 992 4049 877 4170 730 4170 
C 589 4170 467 4056 467 3909 
C 467 3769 582 3648 730 3648 
C 870 3648 992 3763 992 3909 
z
M 243 2706 
L 243 2541 
C 602 2541 653 2502 653 2197 
L 653 427 
C 653 184 627 153 218 153 
L 218 -13 
C 371 0 646 0 806 0 
C 960 0 1222 0 1370 -13 
L 1370 153 
C 992 153 979 191 979 420 
L 979 2776 
L 243 2706 
z
" transform="scale(0.015625)"/>
       <path id="CMR17-7a" d="M 2310 2605 
C 2362 2670 2362 2682 2362 2695 
C 2362 2752 2336 2752 2221 2752 
L 275 2752 
L 211 1760 
L 326 1760 
C 371 2381 442 2650 1178 2650 
L 1958 2650 
L 128 96 
C 128 0 134 0 269 0 
L 2291 0 
L 2381 1152 
L 2266 1152 
C 2214 442 2131 115 1350 115 
L 531 115 
L 2310 2605 
z
" transform="scale(0.015625)"/>
       <path id="CMR17-65" d="M 2438 1472 
C 2464 1498 2464 1511 2464 1576 
C 2464 2238 2118 2816 1389 2816 
C 710 2816 173 2169 173 1383 
C 173 551 781 -64 1459 -64 
C 2176 -64 2458 607 2458 740 
C 2458 784 2419 784 2406 784 
C 2362 784 2355 771 2330 696 
C 2189 265 1837 51 1504 51 
C 1229 51 954 203 781 480 
C 582 803 582 1176 582 1472 
L 2438 1472 
z
M 589 1568 
C 634 2505 1126 2714 1382 2714 
C 1818 2714 2112 2297 2118 1568 
L 589 1568 
z
" transform="scale(0.015625)"/>
       <path id="CMR17-64" d="M 1869 4326 
L 1869 4160 
C 2246 4160 2304 4122 2304 3820 
L 2304 2345 
C 2278 2377 2016 2790 1498 2790 
C 845 2790 211 2208 211 1364 
C 211 525 806 -64 1434 -64 
C 1978 -64 2259 337 2291 380 
L 2291 -63 
L 3066 -63 
L 3066 128 
C 2688 128 2630 166 2630 473 
L 2630 4396 
L 1869 4326 
z
M 2291 755 
C 2291 563 2176 390 2029 262 
C 1811 70 1594 38 1472 38 
C 1286 38 621 134 621 1356 
C 621 2612 1363 2688 1530 2688 
C 1824 2688 2061 2522 2208 2291 
C 2291 2157 2291 2138 2291 2023 
L 2291 755 
z
" transform="scale(0.015625)"/>
       <path id="CMR17-76" d="M 2502 2163 
C 2560 2304 2662 2560 3034 2560 
L 3034 2726 
C 2912 2726 2752 2726 2630 2726 
C 2496 2726 2285 2726 2157 2732 
L 2157 2566 
C 2317 2553 2406 2477 2406 2311 
C 2406 2253 2406 2240 2368 2151 
L 1664 377 
L 902 2286 
C 864 2369 864 2381 864 2407 
C 864 2560 1075 2560 1171 2560 
L 1171 2732 
C 1018 2726 736 2726 576 2726 
C 403 2726 205 2726 64 2732 
L 64 2560 
C 307 2560 442 2560 518 2362 
L 1446 44 
C 1485 -51 1491 -64 1549 -64 
C 1606 -64 1613 -51 1651 44 
L 2502 2163 
z
" transform="scale(0.015625)"/>
       <path id="CMR17-74" d="M 966 2560 
L 1862 2560 
L 1862 2725 
L 966 2725 
L 966 3904 
L 851 3904 
C 838 3245 614 2668 70 2668 
L 70 2560 
L 627 2560 
L 627 771 
C 627 650 627 -64 1370 -64 
C 1747 -64 1965 306 1965 777 
L 1965 1140 
L 1850 1140 
L 1850 783 
C 1850 344 1677 51 1408 51 
C 1222 51 966 178 966 758 
L 966 2560 
z
" transform="scale(0.015625)"/>
      </defs>
      <use xlink:href="#CMR17-6e" transform="scale(0.996264)"/>
      <use xlink:href="#CMR17-6f" transform="translate(50.89537 0) scale(0.996264)"/>
      <use xlink:href="#CMR17-72" transform="translate(96.585847 0) scale(0.996264)"/>
      <use xlink:href="#CMR17-6d" transform="translate(131.866615 0) scale(0.996264)"/>
      <use xlink:href="#CMR17-61" transform="translate(208.786205 0) scale(0.996264)"/>
      <use xlink:href="#CMR17-6c" transform="translate(254.476682 0) scale(0.996264)"/>
      <use xlink:href="#CMR17-69" transform="translate(279.34774 0) scale(0.996264)"/>
      <use xlink:href="#CMR17-7a" transform="translate(304.218799 0) scale(0.996264)"/>
      <use xlink:href="#CMR17-65" transform="translate(344.704459 0) scale(0.996264)"/>
      <use xlink:href="#CMR17-64" transform="translate(385.19012 0) scale(0.996264)"/>
      <use xlink:href="#CMR17-65" transform="translate(466.161456 0) scale(0.996264)"/>
      <use xlink:href="#CMR17-6c" transform="translate(506.647116 0) scale(0.996264)"/>
      <use xlink:href="#CMR17-65" transform="translate(531.518175 0) scale(0.996264)"/>
      <use xlink:href="#CMR17-76" transform="translate(572.003835 0) scale(0.996264)"/>
      <use xlink:href="#CMR17-61" transform="translate(615.091934 0) scale(0.996264)"/>
      <use xlink:href="#CMR17-74" transform="translate(660.782411 0) scale(0.996264)"/>
      <use xlink:href="#CMR17-69" transform="translate(696.063179 0) scale(0.996264)"/>
      <use xlink:href="#CMR17-6f" transform="translate(720.934238 0) scale(0.996264)"/>
      <use xlink:href="#CMR17-6e" transform="translate(766.624715 0) scale(0.996264)"/>
     </g>
    </g>
   </g>
   <g id="line2d_10">
    <path d="M 72.471497 228.614399 
L 76.103355 228.614399 
L 79.735214 228.614399 
L 83.367072 228.614399 
L 86.998931 228.614399 
L 90.63079 220.924166 
L 94.262648 209.388798 
L 97.894507 194.008331 
L 101.526365 182.472963 
L 105.158224 170.937595 
L 108.790082 155.557129 
L 112.421941 140.176662 
L 116.053799 132.486393 
L 119.685658 117.105926 
L 123.317516 101.72546 
L 126.949375 94.03519 
L 130.581234 82.499859 
L 134.213092 67.119356 
L 137.844951 55.583987 
L 141.476809 44.048656 
L 145.108668 36.358386 
L 148.740526 28.66819 
L 152.372385 28.66819 
L 156.004243 24.823055 
" clip-path="url(#p8a57698d88)" style="fill: none; stroke: #c70303; stroke-opacity: 0; stroke-width: 2; stroke-linecap: square"/>
   </g>
   <g id="line2d_11">
    <path d="M 156.004243 24.823055 
L 159.636102 24.823055 
L 163.267961 28.66819 
L 166.899819 36.358386 
L 170.531678 47.893754 
L 174.163536 59.429122 
L 177.795395 74.809589 
L 181.427253 82.499859 
L 185.059112 97.880325 
L 188.69097 113.260791 
L 192.322829 128.641294 
L 195.954688 144.021761 
L 199.586546 151.711994 
L 203.218405 163.247362 
L 206.850263 174.78273 
L 210.482122 182.472963 
L 214.11398 194.008331 
L 217.745839 205.543699 
L 221.377697 209.388798 
L 225.009556 213.233933 
" clip-path="url(#p8a57698d88)" style="fill: none; stroke: #2979ea; stroke-opacity: 0; stroke-width: 2; stroke-linecap: square"/>
   </g>
   <g id="line2d_12">
    <path d="M 76.103355 228.614399 
L 79.735214 228.614399 
L 83.367072 220.776279 
L 86.998931 212.938159 
L 90.63079 205.100002 
L 94.262648 197.261882 
L 97.894507 181.585642 
L 101.526365 169.828443 
L 105.158224 161.990323 
L 108.790082 146.314046 
L 112.421941 138.475926 
L 116.053799 126.718727 
L 119.685658 118.880607 
L 123.317516 107.123408 
L 126.949375 99.285288 
L 130.581234 83.609048 
L 134.213092 71.85185 
L 137.844951 64.01373 
L 141.476809 52.256531 
L 145.108668 44.418373 
L 148.740526 32.661212 
L 152.372385 28.742133 
L 156.004243 24.823055 
" clip-path="url(#p8a57698d88)" style="fill: none; stroke: #c70303; stroke-opacity: 0.027027; stroke-width: 2; stroke-linecap: square"/>
   </g>
   <g id="line2d_13">
    <path d="M 156.004243 24.823055 
L 159.636102 24.823055 
L 163.267961 32.661212 
L 166.899819 40.49937 
L 170.531678 56.17561 
L 174.163536 67.932771 
L 177.795395 79.68997 
L 181.427253 91.447168 
L 185.059112 111.042487 
L 188.69097 118.880607 
L 192.322829 134.556884 
L 195.954688 146.314046 
L 199.586546 158.071244 
L 203.218405 169.828443 
L 206.850263 181.585642 
L 210.482122 189.423762 
L 214.11398 205.100002 
L 217.745839 216.8572 
L 221.377697 224.69532 
L 225.009556 228.614399 
" clip-path="url(#p8a57698d88)" style="fill: none; stroke: #2979ea; stroke-opacity: 0.027027; stroke-width: 2; stroke-linecap: square"/>
   </g>
   <g id="line2d_14">
    <path d="M 76.103355 228.614399 
L 79.735214 228.614399 
L 83.367072 220.462714 
L 86.998931 216.386911 
L 90.63079 208.235265 
L 94.262648 196.007776 
L 97.894507 183.780288 
L 101.526365 171.552799 
L 105.158224 159.325311 
L 108.790082 147.097861 
L 112.421941 134.870373 
L 116.053799 122.642884 
L 119.685658 114.491238 
L 123.317516 102.26375 
L 126.949375 90.036262 
L 130.581234 81.884616 
L 134.213092 65.581324 
L 137.844951 53.353835 
L 141.476809 41.126347 
L 145.108668 32.974662 
L 148.740526 28.898897 
L 152.372385 24.823055 
L 156.004243 24.823055 
" clip-path="url(#p8a57698d88)" style="fill: none; stroke: #c70303; stroke-opacity: 0.054054; stroke-width: 2; stroke-linecap: square"/>
   </g>
   <g id="line2d_15">
    <path d="M 156.004243 24.823055 
L 159.636102 24.823055 
L 163.267961 28.898897 
L 166.899819 41.126347 
L 170.531678 53.353835 
L 174.163536 65.581324 
L 177.795395 81.884616 
L 181.427253 102.26375 
L 185.059112 110.415396 
L 188.69097 126.718727 
L 192.322829 138.946176 
L 195.954688 151.173665 
L 199.586546 163.401153 
L 203.218405 171.552799 
L 206.850263 183.780288 
L 210.482122 200.08358 
L 214.11398 208.235265 
L 217.745839 216.386911 
L 221.377697 220.462714 
L 225.009556 224.538557 
" clip-path="url(#p8a57698d88)" style="fill: none; stroke: #2979ea; stroke-opacity: 0.054054; stroke-width: 2; stroke-linecap: square"/>
   </g>
   <g id="line2d_16">
    <path d="M 79.735214 228.614399 
L 83.367072 228.614399 
L 86.998931 220.462753 
L 90.63079 208.235265 
L 94.262648 196.007776 
L 97.894507 187.85613 
L 101.526365 175.628642 
L 105.158224 159.32535 
L 108.790082 147.097861 
L 112.421941 138.946215 
L 116.053799 126.718727 
L 119.685658 110.415435 
L 123.317516 106.339592 
L 126.949375 94.112104 
L 130.581234 81.884616 
L 134.213092 73.73297 
L 137.844951 65.581324 
L 141.476809 49.278032 
L 145.108668 41.126347 
L 148.740526 32.97474 
L 152.372385 28.898897 
L 156.004243 24.823055 
" clip-path="url(#p8a57698d88)" style="fill: none; stroke: #c70303; stroke-opacity: 0.081081; stroke-width: 2; stroke-linecap: square"/>
   </g>
   <g id="line2d_17">
    <path d="M 156.004243 24.823055 
L 159.636102 24.823055 
L 163.267961 32.97474 
L 166.899819 45.202189 
L 170.531678 57.429678 
L 174.163536 69.657166 
L 177.795395 81.884616 
L 181.427253 94.112104 
L 185.059112 106.339592 
L 188.69097 122.642884 
L 192.322829 134.870373 
L 195.954688 147.097861 
L 199.586546 159.32535 
L 203.218405 171.552838 
L 206.850263 179.704484 
L 210.482122 191.931973 
L 214.11398 200.083619 
L 217.745839 212.311107 
L 221.377697 224.538557 
L 225.009556 232.690241 
L 228.641414 232.690241 
" clip-path="url(#p8a57698d88)" style="fill: none; stroke: #2979ea; stroke-opacity: 0.081081; stroke-width: 2; stroke-linecap: square"/>
   </g>
   <g id="line2d_18">
    <path d="M 79.735214 228.614399 
L 83.367072 220.622588 
L 86.998931 212.630778 
L 90.63079 204.638967 
L 94.262648 192.651232 
L 97.894507 184.659421 
L 101.526365 172.671686 
L 105.158224 164.679875 
L 108.790082 152.69214 
L 112.421941 136.708481 
L 116.053799 128.71667 
L 119.685658 116.728935 
L 123.317516 104.741238 
L 126.949375 92.753503 
L 130.581234 84.761692 
L 134.213092 72.773957 
L 137.844951 64.782146 
L 141.476809 52.794411 
L 145.108668 40.806676 
L 148.740526 32.814827 
L 152.372385 28.818979 
L 156.004243 24.823055 
" clip-path="url(#p8a57698d88)" style="fill: none; stroke: #c70303; stroke-opacity: 0.108108; stroke-width: 2; stroke-linecap: square"/>
   </g>
   <g id="line2d_19">
    <path d="M 156.004243 24.823055 
L 159.636102 24.823055 
L 163.267961 32.814827 
L 166.899819 36.810752 
L 170.531678 48.798487 
L 174.163536 64.782146 
L 177.795395 76.769843 
L 181.427253 88.757578 
L 185.059112 100.745314 
L 188.69097 112.733049 
L 192.322829 124.720784 
L 195.954688 136.708481 
L 199.586546 148.696216 
L 203.218405 160.683951 
L 206.850263 172.671686 
L 210.482122 184.659421 
L 214.11398 192.651232 
L 217.745839 204.638967 
L 221.377697 208.634853 
L 225.009556 212.630778 
" clip-path="url(#p8a57698d88)" style="fill: none; stroke: #2979ea; stroke-opacity: 0.108108; stroke-width: 2; stroke-linecap: square"/>
   </g>
   <g id="line2d_20">
    <path d="M 79.735214 228.614399 
L 83.367072 228.614399 
L 86.998931 220.296394 
L 90.63079 211.978349 
L 94.262648 199.501361 
L 97.894507 191.183316 
L 101.526365 178.706328 
L 105.158224 162.070279 
L 108.790082 149.593251 
L 112.421941 141.275246 
L 116.053799 132.957241 
L 119.685658 120.480213 
L 123.317516 112.162208 
L 126.949375 99.68518 
L 130.581234 87.208153 
L 134.213092 78.890148 
L 137.844951 66.41312 
L 141.476809 53.936132 
L 145.108668 41.459065 
L 148.740526 33.1411 
L 152.372385 28.982077 
L 156.004243 24.823055 
" clip-path="url(#p8a57698d88)" style="fill: none; stroke: #c70303; stroke-opacity: 0.135135; stroke-width: 2; stroke-linecap: square"/>
   </g>
   <g id="line2d_21">
    <path d="M 156.004243 24.823055 
L 159.636102 24.823055 
L 163.267961 33.1411 
L 166.899819 41.459065 
L 170.531678 53.936132 
L 174.163536 66.41312 
L 177.795395 83.04917 
L 181.427253 91.367175 
L 185.059112 103.844203 
L 188.69097 120.480213 
L 192.322829 132.957241 
L 195.954688 149.593251 
L 199.586546 162.070279 
L 203.218405 170.388284 
L 206.850263 178.706328 
L 210.482122 191.183316 
L 214.11398 203.660344 
L 217.745839 216.137371 
L 221.377697 224.455377 
L 225.009556 232.773382 
L 228.641414 236.932404 
" clip-path="url(#p8a57698d88)" style="fill: none; stroke: #2979ea; stroke-opacity: 0.135135; stroke-width: 2; stroke-linecap: square"/>
   </g>
   <g id="line2d_22">
    <path d="M 72.471497 228.614399 
L 76.103355 228.614399 
L 79.735214 216.626666 
L 83.367072 208.634857 
L 86.998931 204.638933 
L 90.63079 196.647124 
L 94.262648 184.659391 
L 97.894507 176.667582 
L 101.526365 164.679849 
L 105.158224 152.692116 
L 108.790082 140.704383 
L 112.421941 128.716689 
L 116.053799 120.724841 
L 119.685658 104.741223 
L 123.317516 96.749414 
L 126.949375 88.757605 
L 130.581234 76.769872 
L 134.213092 64.782139 
L 137.844951 56.79033 
L 141.476809 40.806673 
L 145.108668 32.814902 
L 148.740526 28.818978 
L 152.372385 28.818978 
L 156.004243 24.823055 
" clip-path="url(#p8a57698d88)" style="fill: none; stroke: #c70303; stroke-opacity: 0.162162; stroke-width: 2; stroke-linecap: square"/>
   </g>
   <g id="line2d_23">
    <path d="M 156.004243 24.823055 
L 159.636102 28.818978 
L 163.267961 40.806673 
L 166.899819 48.79852 
L 170.531678 64.782139 
L 174.163536 76.769872 
L 177.795395 88.757605 
L 181.427253 100.745299 
L 185.059112 116.728956 
L 188.69097 132.712574 
L 192.322829 140.704383 
L 195.954688 156.68804 
L 199.586546 164.679849 
L 203.218405 176.667582 
L 206.850263 188.655315 
L 210.482122 196.647124 
L 214.11398 208.634857 
L 217.745839 216.626666 
L 221.377697 220.622552 
L 225.009556 224.618475 
" clip-path="url(#p8a57698d88)" style="fill: none; stroke: #2979ea; stroke-opacity: 0.162162; stroke-width: 2; stroke-linecap: square"/>
   </g>
   <g id="line2d_24">
    <path d="M 76.103355 228.614399 
L 79.735214 228.614399 
L 83.367072 220.296392 
L 86.998931 207.819362 
L 90.63079 199.501356 
L 94.262648 191.183349 
L 97.894507 174.547296 
L 101.526365 166.229289 
L 105.158224 157.911282 
L 108.790082 145.434252 
L 112.421941 137.116245 
L 116.053799 124.639215 
L 119.685658 112.162185 
L 123.317516 103.844179 
L 126.949375 91.367149 
L 130.581234 78.890119 
L 134.213092 70.572112 
L 137.844951 62.254105 
L 141.476809 45.618092 
L 145.108668 37.300045 
L 148.740526 28.982078 
L 152.372385 28.982078 
L 156.004243 24.823055 
" clip-path="url(#p8a57698d88)" style="fill: none; stroke: #c70303; stroke-opacity: 0.189189; stroke-width: 2; stroke-linecap: square"/>
   </g>
   <g id="line2d_25">
    <path d="M 156.004243 24.823055 
L 159.636102 24.823055 
L 163.267961 33.141022 
L 166.899819 45.618092 
L 170.531678 62.254105 
L 174.163536 74.731135 
L 177.795395 87.208165 
L 181.427253 103.844179 
L 185.059112 116.321209 
L 188.69097 132.957222 
L 192.322829 145.434252 
L 195.954688 157.911282 
L 199.586546 166.229289 
L 203.218405 182.865302 
L 206.850263 191.183349 
L 210.482122 199.501356 
L 214.11398 211.978385 
L 217.745839 220.296392 
L 221.377697 224.455376 
" clip-path="url(#p8a57698d88)" style="fill: none; stroke: #2979ea; stroke-opacity: 0.189189; stroke-width: 2; stroke-linecap: square"/>
   </g>
   <g id="line2d_26">
    <path d="M 72.471497 228.614399 
L 76.103355 228.614399 
L 79.735214 216.626666 
L 83.367072 208.634857 
L 86.998931 204.638933 
L 90.63079 196.647124 
L 94.262648 184.659391 
L 97.894507 172.671697 
L 101.526365 164.679849 
L 105.158224 148.696231 
L 108.790082 140.704422 
L 112.421941 132.712612 
L 116.053799 120.72488 
L 119.685658 108.737147 
L 123.317516 100.745337 
L 126.949375 88.757605 
L 130.581234 76.769872 
L 134.213092 68.778063 
L 137.844951 56.79033 
L 141.476809 44.802597 
L 145.108668 36.810826 
L 148.740526 28.818978 
L 152.372385 28.818978 
L 156.004243 24.823055 
" clip-path="url(#p8a57698d88)" style="fill: none; stroke: #c70303; stroke-opacity: 0.216216; stroke-width: 2; stroke-linecap: square"/>
   </g>
   <g id="line2d_27">
    <path d="M 156.004243 24.823055 
L 159.636102 28.818978 
L 163.267961 40.806673 
L 166.899819 48.79852 
L 170.531678 64.782139 
L 174.163536 76.769872 
L 177.795395 92.753528 
L 181.427253 104.741223 
L 185.059112 112.73307 
L 188.69097 128.716689 
L 192.322829 144.700307 
L 195.954688 156.68804 
L 199.586546 164.679849 
L 203.218405 176.667582 
L 206.850263 188.655315 
L 210.482122 196.647124 
L 214.11398 212.630781 
L 217.745839 220.62259 
L 221.377697 224.618475 
L 225.009556 228.614399 
" clip-path="url(#p8a57698d88)" style="fill: none; stroke: #2979ea; stroke-opacity: 0.216216; stroke-width: 2; stroke-linecap: square"/>
   </g>
   <g id="line2d_28">
    <path d="M 76.103355 228.614399 
L 79.735214 228.614399 
L 83.367072 216.626666 
L 86.998931 204.638933 
L 90.63079 196.647124 
L 94.262648 188.655315 
L 97.894507 176.667582 
L 101.526365 164.679849 
L 105.158224 156.68804 
L 108.790082 144.700307 
L 112.421941 132.712612 
L 116.053799 124.720765 
L 119.685658 112.73307 
L 123.317516 100.745337 
L 126.949375 92.753528 
L 130.581234 80.765795 
L 134.213092 68.778063 
L 137.844951 60.786253 
L 141.476809 48.79852 
L 145.108668 36.810826 
L 148.740526 28.818978 
L 152.372385 24.823055 
L 156.004243 24.823055 
" clip-path="url(#p8a57698d88)" style="fill: none; stroke: #c70303; stroke-opacity: 0.243243; stroke-width: 2; stroke-linecap: square"/>
   </g>
   <g id="line2d_29">
    <path d="M 156.004243 24.823055 
L 159.636102 24.823055 
L 163.267961 32.814902 
L 166.899819 44.802597 
L 170.531678 56.79033 
L 174.163536 68.778063 
L 177.795395 84.761681 
L 181.427253 96.749414 
L 185.059112 112.73307 
L 188.69097 128.716689 
L 192.322829 140.704422 
L 195.954688 152.692154 
L 199.586546 160.683964 
L 203.218405 172.671697 
L 206.850263 188.655315 
L 210.482122 196.647124 
L 214.11398 208.634857 
L 217.745839 220.62259 
L 221.377697 224.618475 
L 225.009556 228.614399 
" clip-path="url(#p8a57698d88)" style="fill: none; stroke: #2979ea; stroke-opacity: 0.243243; stroke-width: 2; stroke-linecap: square"/>
   </g>
   <g id="line2d_30">
    <path d="M 76.103355 228.614399 
L 79.735214 228.614399 
L 83.367072 220.462753 
L 86.998931 212.311107 
L 90.63079 200.083619 
L 94.262648 196.007776 
L 97.894507 183.780288 
L 101.526365 171.552838 
L 105.158224 159.32535 
L 108.790082 151.173704 
L 112.421941 134.870373 
L 116.053799 122.642884 
L 119.685658 114.491238 
L 123.317516 102.26375 
L 126.949375 90.0363 
L 130.581234 77.808812 
L 134.213092 65.581324 
L 137.844951 53.353835 
L 141.476809 45.202189 
L 145.108668 37.050504 
L 148.740526 28.898897 
L 152.372385 24.823055 
L 156.004243 24.823055 
" clip-path="url(#p8a57698d88)" style="fill: none; stroke: #c70303; stroke-opacity: 0.27027; stroke-width: 2; stroke-linecap: square"/>
   </g>
   <g id="line2d_31">
    <path d="M 156.004243 24.823055 
L 159.636102 24.823055 
L 163.267961 32.97474 
L 166.899819 45.202189 
L 170.531678 53.353835 
L 174.163536 65.581324 
L 177.795395 77.808812 
L 181.427253 94.112104 
L 185.059112 114.491238 
L 188.69097 126.718727 
L 192.322829 138.946215 
L 195.954688 151.173704 
L 199.586546 159.32535 
L 203.218405 171.552838 
L 206.850263 183.780288 
L 210.482122 191.931973 
L 214.11398 208.235265 
L 217.745839 216.386911 
L 221.377697 220.462753 
" clip-path="url(#p8a57698d88)" style="fill: none; stroke: #2979ea; stroke-opacity: 0.27027; stroke-width: 2; stroke-linecap: square"/>
   </g>
   <g id="line2d_32">
    <path d="M 76.103355 228.614399 
L 79.735214 228.614399 
L 83.367072 228.614399 
L 86.998931 220.123101 
L 90.63079 211.631763 
L 94.262648 198.894837 
L 97.894507 190.403499 
L 101.526365 177.666573 
L 105.158224 164.929606 
L 108.790082 152.19264 
L 112.421941 143.701342 
L 116.053799 130.964376 
L 119.685658 113.981781 
L 123.317516 109.736112 
L 126.949375 96.999145 
L 130.581234 84.262178 
L 134.213092 71.525252 
L 137.844951 63.033914 
L 141.476809 46.051319 
L 145.108668 37.559981 
L 148.740526 29.068724 
L 152.372385 24.823055 
L 156.004243 24.823055 
" clip-path="url(#p8a57698d88)" style="fill: none; stroke: #c70303; stroke-opacity: 0.297297; stroke-width: 2; stroke-linecap: square"/>
   </g>
   <g id="line2d_33">
    <path d="M 156.004243 24.823055 
L 159.636102 24.823055 
L 163.267961 29.068724 
L 166.899819 37.559981 
L 170.531678 50.296988 
L 174.163536 63.033914 
L 177.795395 75.770881 
L 181.427253 88.507847 
L 185.059112 105.490442 
L 188.69097 118.227409 
L 192.322829 135.210045 
L 195.954688 147.946971 
L 199.586546 156.438309 
L 203.218405 169.175235 
L 206.850263 181.912202 
L 210.482122 190.403499 
L 214.11398 198.894837 
L 217.745839 211.631763 
L 221.377697 224.36873 
L 225.009556 232.860028 
L 228.641414 232.860028 
" clip-path="url(#p8a57698d88)" style="fill: none; stroke: #2979ea; stroke-opacity: 0.297297; stroke-width: 2; stroke-linecap: square"/>
   </g>
   <g id="line2d_34">
    <path d="M 76.103355 228.614399 
L 79.735214 224.538557 
L 83.367072 212.311107 
L 86.998931 204.159422 
L 90.63079 196.007776 
L 94.262648 183.780288 
L 97.894507 175.628642 
L 101.526365 167.476996 
L 105.158224 151.173704 
L 108.790082 143.022019 
L 112.421941 130.794569 
L 116.053799 114.491238 
L 119.685658 106.339592 
L 123.317516 98.187946 
L 126.949375 85.960458 
L 130.581234 73.73297 
L 134.213092 65.581324 
L 137.844951 53.353835 
L 141.476809 45.202189 
L 145.108668 37.050504 
L 148.740526 28.898897 
L 152.372385 24.823055 
L 156.004243 24.823055 
" clip-path="url(#p8a57698d88)" style="fill: none; stroke: #c70303; stroke-opacity: 0.324324; stroke-width: 2; stroke-linecap: square"/>
   </g>
   <g id="line2d_35">
    <path d="M 156.004243 24.823055 
L 159.636102 24.823055 
L 163.267961 28.898897 
L 166.899819 37.050504 
L 170.531678 49.278032 
L 174.163536 65.581324 
L 177.795395 77.808812 
L 181.427253 90.0363 
L 185.059112 106.339592 
L 188.69097 118.567081 
L 192.322829 130.794569 
L 195.954688 147.097861 
L 199.586546 155.249507 
L 203.218405 163.401153 
L 206.850263 175.628642 
L 210.482122 187.85613 
L 214.11398 200.083619 
L 217.745839 208.235265 
L 221.377697 216.386911 
" clip-path="url(#p8a57698d88)" style="fill: none; stroke: #2979ea; stroke-opacity: 0.324324; stroke-width: 2; stroke-linecap: square"/>
   </g>
   <g id="line2d_36">
    <path d="M 72.471497 228.614399 
L 76.103355 228.614399 
L 79.735214 228.614399 
L 83.367072 224.455416 
L 86.998931 216.137371 
L 90.63079 207.819366 
L 94.262648 195.342339 
L 97.894507 187.024334 
L 101.526365 178.706328 
L 105.158224 166.229301 
L 108.790082 153.752273 
L 112.421941 145.434268 
L 116.053799 132.957241 
L 119.685658 120.480253 
L 123.317516 112.162208 
L 126.949375 103.844203 
L 130.581234 91.367175 
L 134.213092 83.04917 
L 137.844951 66.41316 
L 141.476809 53.936132 
L 145.108668 49.77711 
L 148.740526 37.300122 
L 152.372385 28.982077 
L 156.004243 24.823055 
" clip-path="url(#p8a57698d88)" style="fill: none; stroke: #c70303; stroke-opacity: 0.351351; stroke-width: 2; stroke-linecap: square"/>
   </g>
   <g id="line2d_37">
    <path d="M 156.004243 24.823055 
L 159.636102 24.823055 
L 163.267961 33.1411 
L 166.899819 41.459144 
L 170.531678 53.936132 
L 174.163536 66.41316 
L 177.795395 83.04917 
L 181.427253 95.526198 
L 185.059112 112.162208 
L 188.69097 124.639236 
L 192.322829 141.275285 
L 195.954688 153.752273 
L 199.586546 166.229301 
L 203.218405 178.706328 
L 206.850263 191.183356 
L 210.482122 199.501361 
L 214.11398 207.819366 
L 217.745839 220.296394 
L 221.377697 228.614399 
L 225.009556 232.773421 
" clip-path="url(#p8a57698d88)" style="fill: none; stroke: #2979ea; stroke-opacity: 0.351351; stroke-width: 2; stroke-linecap: square"/>
   </g>
   <g id="line2d_38">
    <path d="M 76.103355 228.614399 
L 79.735214 228.614399 
L 83.367072 228.614399 
L 86.998931 220.296394 
L 90.63079 211.978349 
L 94.262648 195.342339 
L 97.894507 182.865311 
L 101.526365 178.706328 
L 105.158224 166.229301 
L 108.790082 153.752273 
L 112.421941 141.275246 
L 116.053799 128.798218 
L 119.685658 120.480213 
L 123.317516 108.003186 
L 126.949375 99.68518 
L 130.581234 87.208153 
L 134.213092 70.572143 
L 137.844951 62.254137 
L 141.476809 49.77711 
L 145.108668 41.459065 
L 148.740526 28.982077 
L 152.372385 24.823055 
L 156.004243 24.823055 
" clip-path="url(#p8a57698d88)" style="fill: none; stroke: #c70303; stroke-opacity: 0.378378; stroke-width: 2; stroke-linecap: square"/>
   </g>
   <g id="line2d_39">
    <path d="M 156.004243 24.823055 
L 159.636102 24.823055 
L 163.267961 24.823055 
L 166.899819 33.1411 
L 170.531678 45.618087 
L 174.163536 58.095115 
L 177.795395 70.572143 
L 181.427253 83.04917 
L 185.059112 99.68518 
L 188.69097 116.32123 
L 192.322829 128.798218 
L 195.954688 141.275246 
L 199.586546 153.752273 
L 203.218405 166.229301 
L 206.850263 178.706328 
L 210.482122 191.183316 
L 214.11398 203.660344 
L 217.745839 216.137371 
L 221.377697 220.296394 
L 225.009556 224.455377 
" clip-path="url(#p8a57698d88)" style="fill: none; stroke: #2979ea; stroke-opacity: 0.378378; stroke-width: 2; stroke-linecap: square"/>
   </g>
   <g id="line2d_40">
    <path d="M 72.471497 228.614399 
L 76.103355 224.69532 
L 79.735214 220.776278 
L 83.367072 212.938119 
L 86.998931 205.099997 
L 90.63079 193.342796 
L 94.262648 185.504675 
L 97.894507 177.666554 
L 101.526365 165.909353 
L 105.158224 154.152152 
L 108.790082 146.31403 
L 112.421941 130.637788 
L 116.053799 118.880587 
L 119.685658 111.042465 
L 123.317516 99.285264 
L 126.949375 87.528064 
L 130.581234 75.770863 
L 134.213092 67.932741 
L 137.844951 56.175541 
L 141.476809 48.337456 
L 145.108668 36.580218 
L 148.740526 28.742134 
L 152.372385 28.742134 
L 156.004243 24.823055 
" clip-path="url(#p8a57698d88)" style="fill: none; stroke: #c70303; stroke-opacity: 0.405405; stroke-width: 2; stroke-linecap: square"/>
   </g>
   <g id="line2d_41">
    <path d="M 156.004243 24.823055 
L 159.636102 32.661139 
L 163.267961 44.418377 
L 166.899819 52.256461 
L 170.531678 60.09462 
L 174.163536 75.770863 
L 177.795395 87.528064 
L 181.427253 103.204344 
L 185.059112 114.961507 
L 188.69097 130.637788 
L 192.322829 142.394988 
L 195.954688 154.152152 
L 199.586546 161.990311 
L 203.218405 177.666554 
L 206.850263 185.504675 
L 210.482122 197.261876 
L 214.11398 209.019077 
L 217.745839 220.776278 
L 221.377697 224.69532 
" clip-path="url(#p8a57698d88)" style="fill: none; stroke: #2979ea; stroke-opacity: 0.405405; stroke-width: 2; stroke-linecap: square"/>
   </g>
   <g id="line2d_42">
    <path d="M 72.471497 228.614399 
L 76.103355 228.614399 
L 79.735214 224.618475 
L 83.367072 216.626664 
L 86.998931 208.634853 
L 90.63079 196.647118 
L 94.262648 184.659383 
L 97.894507 176.667572 
L 101.526365 164.679837 
L 105.158224 152.692102 
L 108.790082 144.700291 
L 112.421941 132.712556 
L 116.053799 120.724859 
L 119.685658 112.733011 
L 123.317516 100.745314 
L 126.949375 88.757578 
L 130.581234 76.769843 
L 134.213092 68.778033 
L 137.844951 56.790298 
L 141.476809 44.802601 
L 145.108668 36.810752 
L 148.740526 28.818903 
L 152.372385 24.823055 
L 156.004243 24.823055 
" clip-path="url(#p8a57698d88)" style="fill: none; stroke: #c70303; stroke-opacity: 0.432432; stroke-width: 2; stroke-linecap: square"/>
   </g>
   <g id="line2d_43">
    <path d="M 156.004243 24.823055 
L 159.636102 24.823055 
L 163.267961 32.814827 
L 166.899819 40.806676 
L 170.531678 52.794373 
L 174.163536 68.778033 
L 177.795395 84.761654 
L 181.427253 96.749389 
L 185.059112 108.737124 
L 188.69097 124.720746 
L 192.322829 140.704405 
L 195.954688 152.692102 
L 199.586546 160.683951 
L 203.218405 168.675762 
L 206.850263 184.659383 
L 210.482122 192.651194 
L 214.11398 204.638929 
L 217.745839 212.63074 
L 221.377697 216.626664 
L 225.009556 220.622588 
" clip-path="url(#p8a57698d88)" style="fill: none; stroke: #2979ea; stroke-opacity: 0.432432; stroke-width: 2; stroke-linecap: square"/>
   </g>
   <g id="line2d_44">
    <path d="M 79.735214 228.614399 
L 83.367072 228.614399 
L 86.998931 219.753873 
L 90.63079 206.463168 
L 94.262648 193.172421 
L 97.894507 184.311937 
L 101.526365 171.021189 
L 105.158224 162.160705 
L 108.790082 148.869958 
L 112.421941 135.579211 
L 116.053799 122.288464 
L 119.685658 108.997717 
L 123.317516 100.137233 
L 126.949375 86.846485 
L 130.581234 73.55578 
L 134.213092 64.695254 
L 137.844951 51.404549 
L 141.476809 38.11376 
L 145.108668 33.683581 
L 148.740526 29.253318 
L 152.372385 24.823055 
L 156.004243 24.823055 
" clip-path="url(#p8a57698d88)" style="fill: none; stroke: #c70303; stroke-opacity: 0.459459; stroke-width: 2; stroke-linecap: square"/>
   </g>
   <g id="line2d_45">
    <path d="M 156.004243 24.823055 
L 159.636102 24.823055 
L 163.267961 29.253318 
L 166.899819 42.544023 
L 170.531678 55.83477 
L 174.163536 69.125517 
L 177.795395 82.416264 
L 181.427253 95.707012 
L 185.059112 113.42798 
L 188.69097 126.718727 
L 192.322829 140.009474 
L 195.954688 153.300179 
L 199.586546 166.590926 
L 203.218405 179.881673 
L 206.850263 188.742157 
L 210.482122 202.032905 
L 214.11398 210.893389 
L 217.745839 224.184136 
L 221.377697 233.04462 
L 225.009556 233.04462 
" clip-path="url(#p8a57698d88)" style="fill: none; stroke: #2979ea; stroke-opacity: 0.459459; stroke-width: 2; stroke-linecap: square"/>
   </g>
   <g id="line2d_46">
    <path d="M 68.839638 228.614399 
L 72.471497 224.618475 
L 76.103355 220.622588 
L 79.735214 216.626664 
L 83.367072 208.634853 
L 86.998931 196.647118 
L 90.63079 188.655307 
L 94.262648 176.667572 
L 97.894507 164.679837 
L 101.526365 156.688027 
L 105.158224 148.696216 
L 108.790082 136.708481 
L 112.421941 124.720746 
L 116.053799 116.728935 
L 119.685658 100.745314 
L 123.317516 92.753465 
L 126.949375 84.761654 
L 130.581234 72.773919 
L 134.213092 64.782108 
L 137.844951 48.798449 
L 141.476809 40.806676 
L 145.108668 32.814827 
L 148.740526 28.818903 
L 152.372385 28.818903 
L 156.004243 24.823055 
" clip-path="url(#p8a57698d88)" style="fill: none; stroke: #c70303; stroke-opacity: 0.486486; stroke-width: 2; stroke-linecap: square"/>
   </g>
   <g id="line2d_47">
    <path d="M 156.004243 24.823055 
L 159.636102 36.810752 
L 163.267961 44.802601 
L 166.899819 52.794373 
L 170.531678 68.778033 
L 174.163536 76.769843 
L 177.795395 92.753465 
L 181.427253 104.7412 
L 185.059112 120.724859 
L 188.69097 136.708481 
L 192.322829 148.696216 
L 195.954688 164.679837 
L 199.586546 172.671648 
L 203.218405 180.663497 
L 206.850263 188.655307 
L 210.482122 204.638929 
L 214.11398 216.626664 
L 217.745839 224.618475 
L 221.377697 224.618475 
" clip-path="url(#p8a57698d88)" style="fill: none; stroke: #2979ea; stroke-opacity: 0.486486; stroke-width: 2; stroke-linecap: square"/>
   </g>
   <g id="line2d_48">
    <path d="M 76.103355 228.614399 
L 79.735214 228.614399 
L 83.367072 224.69532 
L 86.998931 216.857198 
L 90.63079 205.099997 
L 94.262648 193.342796 
L 97.894507 185.504675 
L 101.526365 177.666554 
L 105.158224 161.990311 
L 108.790082 154.152152 
L 112.421941 142.394988 
L 116.053799 126.718708 
L 119.685658 118.880587 
L 123.317516 111.042465 
L 126.949375 95.366185 
L 130.581234 83.609022 
L 134.213092 75.770863 
L 137.844951 64.013699 
L 141.476809 52.256461 
L 145.108668 44.418377 
L 148.740526 32.661139 
L 152.372385 28.742134 
L 156.004243 24.823055 
" clip-path="url(#p8a57698d88)" style="fill: none; stroke: #c70303; stroke-opacity: 0.513514; stroke-width: 2; stroke-linecap: square"/>
   </g>
   <g id="line2d_49">
    <path d="M 156.004243 24.823055 
L 159.636102 24.823055 
L 163.267961 32.661139 
L 166.899819 36.580218 
L 170.531678 52.256461 
L 174.163536 67.932741 
L 177.795395 83.609022 
L 181.427253 99.285264 
L 185.059112 114.961507 
L 188.69097 126.718708 
L 192.322829 138.475909 
L 195.954688 150.23311 
L 199.586546 158.071231 
L 203.218405 169.828432 
L 206.850263 181.585633 
L 210.482122 185.504675 
L 214.11398 197.261876 
L 217.745839 209.019077 
L 221.377697 216.857198 
L 225.009556 220.776278 
" clip-path="url(#p8a57698d88)" style="fill: none; stroke: #2979ea; stroke-opacity: 0.513514; stroke-width: 2; stroke-linecap: square"/>
   </g>
   <g id="line2d_50">
    <path d="M 76.103355 228.614399 
L 79.735214 228.614399 
L 83.367072 220.776278 
L 86.998931 212.938156 
L 90.63079 205.100035 
L 94.262648 193.342834 
L 97.894507 177.666554 
L 101.526365 165.90939 
L 105.158224 158.071231 
L 108.790082 146.314068 
L 112.421941 134.556867 
L 116.053799 126.718746 
L 119.685658 114.961545 
L 123.317516 99.285264 
L 126.949375 91.447143 
L 130.581234 83.609022 
L 134.213092 71.851821 
L 137.844951 60.09462 
L 141.476809 52.256536 
L 145.108668 36.580218 
L 148.740526 32.661214 
L 152.372385 28.742134 
L 156.004243 24.823055 
" clip-path="url(#p8a57698d88)" style="fill: none; stroke: #c70303; stroke-opacity: 0.540541; stroke-width: 2; stroke-linecap: square"/>
   </g>
   <g id="line2d_51">
    <path d="M 156.004243 24.823055 
L 159.636102 28.742134 
L 163.267961 36.580218 
L 166.899819 48.337456 
L 170.531678 60.09462 
L 174.163536 75.7709 
L 177.795395 91.447143 
L 181.427253 103.204344 
L 185.059112 114.961545 
L 188.69097 130.637788 
L 192.322829 146.314068 
L 195.954688 154.152189 
L 199.586546 165.90939 
L 203.218405 181.585633 
L 206.850263 189.423754 
L 210.482122 201.180955 
L 214.11398 212.938156 
L 217.745839 220.776278 
L 221.377697 220.776278 
" clip-path="url(#p8a57698d88)" style="fill: none; stroke: #2979ea; stroke-opacity: 0.540541; stroke-width: 2; stroke-linecap: square"/>
   </g>
   <g id="line2d_52">
    <path d="M 72.471497 228.614399 
L 76.103355 228.614399 
L 79.735214 224.618475 
L 83.367072 216.626666 
L 86.998931 208.634857 
L 90.63079 196.647124 
L 94.262648 188.655315 
L 97.894507 176.667582 
L 101.526365 164.679849 
L 105.158224 152.692116 
L 108.790082 148.696231 
L 112.421941 132.712574 
L 116.053799 124.720765 
L 119.685658 116.728956 
L 123.317516 104.741223 
L 126.949375 92.75349 
L 130.581234 76.769872 
L 134.213092 68.778063 
L 137.844951 56.790292 
L 141.476809 44.802597 
L 145.108668 36.81075 
L 148.740526 28.818978 
L 152.372385 28.818978 
L 156.004243 24.823055 
" clip-path="url(#p8a57698d88)" style="fill: none; stroke: #c70303; stroke-opacity: 0.567568; stroke-width: 2; stroke-linecap: square"/>
   </g>
   <g id="line2d_53">
    <path d="M 156.004243 24.823055 
L 159.636102 28.818978 
L 163.267961 44.802597 
L 166.899819 56.790292 
L 170.531678 68.778063 
L 174.163536 84.761681 
L 177.795395 92.75349 
L 181.427253 108.737147 
L 185.059112 120.724841 
L 188.69097 132.712574 
L 192.322829 148.696231 
L 195.954688 160.683926 
L 199.586546 168.675773 
L 203.218405 180.663468 
L 206.850263 192.6512 
L 210.482122 200.64301 
L 214.11398 212.630743 
L 217.745839 220.622552 
L 221.377697 228.614399 
" clip-path="url(#p8a57698d88)" style="fill: none; stroke: #2979ea; stroke-opacity: 0.567568; stroke-width: 2; stroke-linecap: square"/>
   </g>
   <g id="line2d_54">
    <path d="M 72.471497 228.614399 
L 76.103355 228.614399 
L 79.735214 220.776278 
L 83.367072 212.938156 
L 86.998931 205.100035 
L 90.63079 189.423754 
L 94.262648 177.666554 
L 97.894507 169.828432 
L 101.526365 161.990311 
L 105.158224 150.23311 
L 108.790082 142.394988 
L 112.421941 130.637788 
L 116.053799 118.880587 
L 119.685658 111.042465 
L 123.317516 103.204344 
L 126.949375 87.528101 
L 130.581234 79.689942 
L 134.213092 67.932779 
L 137.844951 56.175541 
L 141.476809 44.418377 
L 145.108668 36.580218 
L 148.740526 28.742134 
L 152.372385 28.742134 
L 156.004243 24.823055 
" clip-path="url(#p8a57698d88)" style="fill: none; stroke: #c70303; stroke-opacity: 0.594595; stroke-width: 2; stroke-linecap: square"/>
   </g>
   <g id="line2d_55">
    <path d="M 156.004243 24.823055 
L 159.636102 32.661214 
L 163.267961 40.499298 
L 166.899819 52.256536 
L 170.531678 64.013699 
L 174.163536 79.689942 
L 177.795395 95.366222 
L 181.427253 107.123423 
L 185.059112 114.961545 
L 188.69097 130.637788 
L 192.322829 146.314068 
L 195.954688 158.071231 
L 199.586546 169.828432 
L 203.218405 181.585633 
L 206.850263 189.423754 
L 210.482122 201.180955 
L 214.11398 212.938156 
L 217.745839 216.857198 
L 221.377697 220.776278 
" clip-path="url(#p8a57698d88)" style="fill: none; stroke: #2979ea; stroke-opacity: 0.594595; stroke-width: 2; stroke-linecap: square"/>
   </g>
   <g id="line2d_56">
    <path d="M 79.735214 228.614399 
L 83.367072 224.69532 
L 86.998931 216.8572 
L 90.63079 205.100002 
L 94.262648 201.180923 
L 97.894507 185.504683 
L 101.526365 173.747484 
L 105.158224 165.909364 
L 108.790082 158.071244 
L 112.421941 142.394967 
L 116.053799 130.637806 
L 119.685658 122.799648 
L 123.317516 114.961528 
L 126.949375 103.20433 
L 130.581234 91.447168 
L 134.213092 79.68997 
L 137.844951 67.932771 
L 141.476809 60.094613 
L 145.108668 48.337452 
L 148.740526 36.580291 
L 152.372385 28.742133 
L 156.004243 24.823055 
" clip-path="url(#p8a57698d88)" style="fill: none; stroke: #c70303; stroke-opacity: 0.621622; stroke-width: 2; stroke-linecap: square"/>
   </g>
   <g id="line2d_57">
    <path d="M 156.004243 24.823055 
L 159.636102 24.823055 
L 163.267961 28.742133 
L 166.899819 36.580291 
L 170.531678 48.337452 
L 174.163536 60.094613 
L 177.795395 75.770891 
L 181.427253 91.447168 
L 185.059112 107.123408 
L 188.69097 118.880607 
L 192.322829 130.637806 
L 195.954688 146.314046 
L 199.586546 158.071244 
L 203.218405 169.828443 
L 206.850263 181.585604 
L 210.482122 189.423762 
L 214.11398 201.180923 
L 217.745839 212.938122 
L 221.377697 220.776242 
L 225.009556 220.776242 
" clip-path="url(#p8a57698d88)" style="fill: none; stroke: #2979ea; stroke-opacity: 0.621622; stroke-width: 2; stroke-linecap: square"/>
   </g>
   <g id="line2d_58">
    <path d="M 72.471497 228.614399 
L 76.103355 228.614399 
L 79.735214 224.538557 
L 83.367072 220.462753 
L 86.998931 212.311107 
L 90.63079 196.007776 
L 94.262648 183.780288 
L 97.894507 175.628642 
L 101.526365 163.401153 
L 105.158224 151.173704 
L 108.790082 143.022019 
L 112.421941 130.794569 
L 116.053799 118.567081 
L 119.685658 110.415435 
L 123.317516 98.187946 
L 126.949375 85.960458 
L 130.581234 77.808812 
L 134.213092 65.581324 
L 137.844951 53.353874 
L 141.476809 45.202189 
L 145.108668 37.050504 
L 148.740526 28.898897 
L 152.372385 28.898897 
L 156.004243 24.823055 
" clip-path="url(#p8a57698d88)" style="fill: none; stroke: #c70303; stroke-opacity: 0.648649; stroke-width: 2; stroke-linecap: square"/>
   </g>
   <g id="line2d_59">
    <path d="M 156.004243 24.823055 
L 159.636102 32.97474 
L 163.267961 45.202189 
L 166.899819 61.505481 
L 170.531678 69.657166 
L 174.163536 85.960458 
L 177.795395 98.187946 
L 181.427253 114.491238 
L 185.059112 126.718727 
L 188.69097 143.022019 
L 192.322829 155.249507 
L 195.954688 167.476996 
L 199.586546 179.704484 
L 203.218405 191.931973 
L 206.850263 204.159422 
L 210.482122 216.386911 
L 214.11398 220.462753 
L 217.745839 224.538557 
" clip-path="url(#p8a57698d88)" style="fill: none; stroke: #2979ea; stroke-opacity: 0.648649; stroke-width: 2; stroke-linecap: square"/>
   </g>
   <g id="line2d_60">
    <path d="M 72.471497 228.614399 
L 76.103355 228.614399 
L 79.735214 224.538595 
L 83.367072 220.462753 
L 86.998931 212.311107 
L 90.63079 200.083619 
L 94.262648 196.007815 
L 97.894507 183.780327 
L 101.526365 171.552838 
L 105.158224 159.32535 
L 108.790082 151.173704 
L 112.421941 134.870412 
L 116.053799 122.642923 
L 119.685658 114.491277 
L 123.317516 102.263789 
L 126.949375 90.0363 
L 130.581234 81.884654 
L 134.213092 65.581324 
L 137.844951 53.353874 
L 141.476809 45.202189 
L 145.108668 37.050582 
L 148.740526 28.898897 
L 152.372385 28.898897 
L 156.004243 24.823055 
" clip-path="url(#p8a57698d88)" style="fill: none; stroke: #c70303; stroke-opacity: 0.675676; stroke-width: 2; stroke-linecap: square"/>
   </g>
   <g id="line2d_61">
    <path d="M 156.004243 24.823055 
L 159.636102 32.97474 
L 163.267961 45.202189 
L 166.899819 57.429717 
L 170.531678 69.657166 
L 174.163536 85.960458 
L 177.795395 102.263789 
L 181.427253 114.491277 
L 185.059112 126.718727 
L 188.69097 143.022058 
L 192.322829 155.249546 
L 195.954688 167.476996 
L 199.586546 175.628681 
L 203.218405 191.931973 
L 206.850263 200.083619 
L 210.482122 212.311107 
L 214.11398 224.538595 
L 217.745839 228.614399 
L 221.377697 232.690241 
" clip-path="url(#p8a57698d88)" style="fill: none; stroke: #2979ea; stroke-opacity: 0.675676; stroke-width: 2; stroke-linecap: square"/>
   </g>
   <g id="line2d_62">
    <path d="M 79.735214 228.614399 
L 83.367072 228.614399 
L 86.998931 220.622552 
L 90.63079 212.630743 
L 94.262648 200.64301 
L 97.894507 188.655315 
L 101.526365 180.663468 
L 105.158224 168.675773 
L 108.790082 160.683926 
L 112.421941 144.700307 
L 116.053799 136.708498 
L 119.685658 128.716689 
L 123.317516 112.733032 
L 126.949375 100.745299 
L 130.581234 92.75349 
L 134.213092 80.765757 
L 137.844951 68.778063 
L 141.476809 60.786215 
L 145.108668 44.802597 
L 148.740526 32.814902 
L 152.372385 28.818978 
L 156.004243 24.823055 
" clip-path="url(#p8a57698d88)" style="fill: none; stroke: #c70303; stroke-opacity: 0.702703; stroke-width: 2; stroke-linecap: square"/>
   </g>
   <g id="line2d_63">
    <path d="M 156.004243 24.823055 
L 159.636102 24.823055 
L 163.267961 28.818978 
L 166.899819 40.806673 
L 170.531678 56.790292 
L 174.163536 68.778063 
L 177.795395 84.761681 
L 181.427253 104.741223 
L 185.059112 112.733032 
L 188.69097 128.716689 
L 192.322829 144.700307 
L 195.954688 160.683926 
L 199.586546 168.675773 
L 203.218405 176.667582 
L 206.850263 184.659391 
L 210.482122 196.647124 
L 214.11398 208.634857 
L 217.745839 216.626666 
L 221.377697 220.622552 
" clip-path="url(#p8a57698d88)" style="fill: none; stroke: #2979ea; stroke-opacity: 0.702703; stroke-width: 2; stroke-linecap: square"/>
   </g>
   <g id="line2d_64">
    <path d="M 72.471497 228.614399 
L 76.103355 228.614399 
L 79.735214 224.618475 
L 83.367072 220.62259 
L 86.998931 216.626666 
L 90.63079 204.638933 
L 94.262648 192.651239 
L 97.894507 184.659391 
L 101.526365 172.671697 
L 105.158224 160.683964 
L 108.790082 148.696231 
L 112.421941 140.704422 
L 116.053799 128.716689 
L 119.685658 116.728956 
L 123.317516 108.737147 
L 126.949375 96.749414 
L 130.581234 88.757605 
L 134.213092 76.769872 
L 137.844951 64.782139 
L 141.476809 56.790368 
L 145.108668 48.79852 
L 148.740526 36.810826 
L 152.372385 28.818978 
L 156.004243 24.823055 
" clip-path="url(#p8a57698d88)" style="fill: none; stroke: #c70303; stroke-opacity: 0.72973; stroke-width: 2; stroke-linecap: square"/>
   </g>
   <g id="line2d_65">
    <path d="M 156.004243 24.823055 
L 159.636102 24.823055 
L 163.267961 28.818978 
L 166.899819 40.806673 
L 170.531678 52.794444 
L 174.163536 64.782139 
L 177.795395 80.765795 
L 181.427253 92.753528 
L 185.059112 104.741223 
L 188.69097 124.720765 
L 192.322829 136.708498 
L 195.954688 148.696231 
L 199.586546 160.683964 
L 203.218405 176.667582 
L 206.850263 188.655315 
L 210.482122 192.651239 
L 214.11398 200.643048 
L 217.745839 208.634857 
L 221.377697 220.62259 
L 225.009556 228.614399 
" clip-path="url(#p8a57698d88)" style="fill: none; stroke: #2979ea; stroke-opacity: 0.72973; stroke-width: 2; stroke-linecap: square"/>
   </g>
   <g id="line2d_66">
    <path d="M 68.839638 228.614399 
L 72.471497 228.614399 
L 76.103355 224.538557 
L 79.735214 220.462714 
L 83.367072 216.386911 
L 86.998931 204.159422 
L 90.63079 196.007776 
L 94.262648 187.85613 
L 97.894507 179.704445 
L 101.526365 167.476996 
L 105.158224 159.325311 
L 108.790082 147.097861 
L 112.421941 130.79453 
L 116.053799 126.718727 
L 119.685658 110.415396 
L 123.317516 98.187908 
L 126.949375 90.036262 
L 130.581234 77.808773 
L 134.213092 69.657127 
L 137.844951 61.505481 
L 141.476809 45.202189 
L 145.108668 41.126347 
L 148.740526 32.974662 
L 152.372385 28.898897 
L 156.004243 24.823055 
" clip-path="url(#p8a57698d88)" style="fill: none; stroke: #c70303; stroke-opacity: 0.756757; stroke-width: 2; stroke-linecap: square"/>
   </g>
   <g id="line2d_67">
    <path d="M 156.004243 24.823055 
L 159.636102 24.823055 
L 163.267961 32.974662 
L 166.899819 45.202189 
L 170.531678 53.353796 
L 174.163536 69.657127 
L 177.795395 85.960458 
L 181.427253 102.26375 
L 185.059112 114.491238 
L 188.69097 126.718727 
L 192.322829 143.022019 
L 195.954688 155.249507 
L 199.586546 163.401153 
L 203.218405 175.628642 
L 206.850263 187.85613 
L 210.482122 196.007776 
L 214.11398 212.311068 
L 217.745839 216.386911 
L 221.377697 220.462714 
" clip-path="url(#p8a57698d88)" style="fill: none; stroke: #2979ea; stroke-opacity: 0.756757; stroke-width: 2; stroke-linecap: square"/>
   </g>
   <g id="line2d_68">
    <path d="M 79.735214 228.614399 
L 83.367072 228.614399 
L 86.998931 220.776279 
L 90.63079 212.938159 
L 94.262648 205.100002 
L 97.894507 193.34284 
L 101.526365 181.585642 
L 105.158224 169.828443 
L 108.790082 158.071244 
L 112.421941 146.314046 
L 116.053799 130.637806 
L 119.685658 122.799686 
L 123.317516 114.961566 
L 126.949375 99.285288 
L 130.581234 87.52809 
L 134.213092 79.68997 
L 137.844951 67.932771 
L 141.476809 52.256531 
L 145.108668 48.337452 
L 148.740526 32.661212 
L 152.372385 28.742133 
L 156.004243 24.823055 
" clip-path="url(#p8a57698d88)" style="fill: none; stroke: #c70303; stroke-opacity: 0.783784; stroke-width: 2; stroke-linecap: square"/>
   </g>
   <g id="line2d_69">
    <path d="M 156.004243 24.823055 
L 159.636102 24.823055 
L 163.267961 28.742133 
L 166.899819 40.49937 
L 170.531678 52.256531 
L 174.163536 64.013692 
L 177.795395 75.770928 
L 181.427253 91.447168 
L 185.059112 103.204367 
L 188.69097 118.880607 
L 192.322829 130.637806 
L 195.954688 142.395004 
L 199.586546 154.152203 
L 203.218405 161.990323 
L 206.850263 169.828443 
L 210.482122 181.585642 
L 214.11398 193.34284 
L 217.745839 201.18096 
L 221.377697 216.8572 
L 225.009556 224.69532 
L 228.641414 228.614399 
" clip-path="url(#p8a57698d88)" style="fill: none; stroke: #2979ea; stroke-opacity: 0.783784; stroke-width: 2; stroke-linecap: square"/>
   </g>
   <g id="line2d_70">
    <path d="M 68.839638 228.614399 
L 72.471497 228.614399 
L 76.103355 224.769265 
L 79.735214 213.233902 
L 83.367072 201.698538 
L 86.998931 194.008307 
L 90.63079 186.318077 
L 94.262648 174.782713 
L 97.894507 167.092482 
L 101.526365 155.557118 
L 105.158224 144.021754 
L 108.790082 136.331524 
L 112.421941 128.641294 
L 116.053799 113.260833 
L 119.685658 105.570566 
L 123.317516 94.035238 
L 126.949375 82.499875 
L 130.581234 74.809644 
L 134.213092 63.274244 
L 137.844951 51.738916 
L 141.476809 44.048649 
L 145.108668 32.513322 
L 148.740526 28.668188 
L 152.372385 28.668188 
L 156.004243 24.823055 
" clip-path="url(#p8a57698d88)" style="fill: none; stroke: #c70303; stroke-opacity: 0.810811; stroke-width: 2; stroke-linecap: square"/>
   </g>
   <g id="line2d_71">
    <path d="M 156.004243 24.823055 
L 159.636102 32.513322 
L 163.267961 44.048649 
L 166.899819 51.738916 
L 170.531678 67.119377 
L 174.163536 82.499875 
L 177.795395 97.880335 
L 181.427253 113.260833 
L 185.059112 128.641294 
L 188.69097 140.176658 
L 192.322829 147.866888 
L 195.954688 159.402252 
L 199.586546 170.937616 
L 203.218405 182.472943 
L 206.850263 190.16321 
L 210.482122 201.698538 
L 214.11398 213.233902 
L 217.745839 217.079035 
L 221.377697 220.924132 
" clip-path="url(#p8a57698d88)" style="fill: none; stroke: #2979ea; stroke-opacity: 0.810811; stroke-width: 2; stroke-linecap: square"/>
   </g>
   <g id="line2d_72">
    <path d="M 72.471497 228.614399 
L 76.103355 228.614399 
L 79.735214 220.62259 
L 83.367072 216.626704 
L 86.998931 208.634857 
L 90.63079 204.638971 
L 94.262648 192.651239 
L 97.894507 184.659429 
L 101.526365 168.675773 
L 105.158224 160.683964 
L 108.790082 148.696231 
L 112.421941 136.708536 
L 116.053799 128.716689 
L 119.685658 116.728994 
L 123.317516 100.745337 
L 126.949375 92.753528 
L 130.581234 84.761719 
L 134.213092 68.778063 
L 137.844951 60.786291 
L 141.476809 48.79852 
L 145.108668 36.810826 
L 148.740526 28.818978 
L 152.372385 24.823055 
L 156.004243 24.823055 
" clip-path="url(#p8a57698d88)" style="fill: none; stroke: #c70303; stroke-opacity: 0.837838; stroke-width: 2; stroke-linecap: square"/>
   </g>
   <g id="line2d_73">
    <path d="M 156.004243 24.823055 
L 159.636102 24.823055 
L 163.267961 28.818978 
L 166.899819 40.806749 
L 170.531678 52.794444 
L 174.163536 68.778063 
L 177.795395 80.765795 
L 181.427253 92.753528 
L 185.059112 108.737147 
L 188.69097 120.72488 
L 192.322829 136.708536 
L 195.954688 144.700345 
L 199.586546 160.683964 
L 203.218405 172.671697 
L 206.850263 180.663506 
L 210.482122 188.655315 
L 214.11398 196.647162 
L 217.745839 212.630781 
L 221.377697 220.62259 
L 225.009556 224.618513 
" clip-path="url(#p8a57698d88)" style="fill: none; stroke: #2979ea; stroke-opacity: 0.837838; stroke-width: 2; stroke-linecap: square"/>
   </g>
   <g id="line2d_74">
    <path d="M 72.471497 228.614399 
L 76.103355 228.614399 
L 79.735214 228.614399 
L 83.367072 220.462755 
L 86.998931 208.235268 
L 90.63079 204.159427 
L 94.262648 191.931941 
L 97.894507 179.704494 
L 101.526365 171.55281 
L 105.158224 159.325363 
L 108.790082 147.097877 
L 112.421941 138.946232 
L 116.053799 130.794549 
L 119.685658 118.567102 
L 123.317516 110.415419 
L 126.949375 102.263774 
L 130.581234 90.036288 
L 134.213092 77.808841 
L 137.844951 65.581316 
L 141.476809 53.353869 
L 145.108668 45.202185 
L 148.740526 32.974738 
L 152.372385 28.898896 
L 156.004243 24.823055 
" clip-path="url(#p8a57698d88)" style="fill: none; stroke: #c70303; stroke-opacity: 0.864865; stroke-width: 2; stroke-linecap: square"/>
   </g>
   <g id="line2d_75">
    <path d="M 156.004243 24.823055 
L 159.636102 24.823055 
L 163.267961 28.898896 
L 166.899819 32.974738 
L 170.531678 45.202185 
L 174.163536 61.505552 
L 177.795395 77.808841 
L 181.427253 90.036288 
L 185.059112 106.339616 
L 188.69097 118.567102 
L 192.322829 134.870391 
L 195.954688 147.097877 
L 199.586546 159.325363 
L 203.218405 171.55281 
L 206.850263 179.704494 
L 210.482122 191.931941 
L 214.11398 200.083624 
L 217.745839 212.311071 
L 221.377697 224.538557 
L 225.009556 228.614399 
L 228.641414 232.690202 
L 232.273273 232.690202 
" clip-path="url(#p8a57698d88)" style="fill: none; stroke: #2979ea; stroke-opacity: 0.864865; stroke-width: 2; stroke-linecap: square"/>
   </g>
   <g id="line2d_76">
    <path d="M 79.735214 228.614399 
L 83.367072 220.776279 
L 86.998931 212.938159 
L 90.63079 201.18096 
L 94.262648 189.423762 
L 97.894507 181.585642 
L 101.526365 173.747522 
L 105.158224 158.071244 
L 108.790082 150.233124 
L 112.421941 138.475926 
L 116.053799 126.718727 
L 119.685658 114.961566 
L 123.317516 107.123408 
L 126.949375 91.447168 
L 130.581234 83.609048 
L 134.213092 75.770928 
L 137.844951 60.094688 
L 141.476809 52.256531 
L 145.108668 44.418373 
L 148.740526 32.661212 
L 152.372385 28.742133 
L 156.004243 24.823055 
" clip-path="url(#p8a57698d88)" style="fill: none; stroke: #c70303; stroke-opacity: 0.891892; stroke-width: 2; stroke-linecap: square"/>
   </g>
   <g id="line2d_77">
    <path d="M 156.004243 24.823055 
L 159.636102 24.823055 
L 163.267961 32.661212 
L 166.899819 44.418373 
L 170.531678 52.256531 
L 174.163536 64.013692 
L 177.795395 79.68997 
L 181.427253 95.366247 
L 185.059112 107.123408 
L 188.69097 118.880607 
L 192.322829 130.637806 
L 195.954688 142.395004 
L 199.586546 154.152203 
L 203.218405 161.990323 
L 206.850263 169.828443 
L 210.482122 181.585642 
L 214.11398 193.34284 
L 217.745839 201.18096 
L 221.377697 205.100002 
" clip-path="url(#p8a57698d88)" style="fill: none; stroke: #2979ea; stroke-opacity: 0.891892; stroke-width: 2; stroke-linecap: square"/>
   </g>
   <g id="line2d_78">
    <path d="M 83.367072 228.614399 
L 86.998931 228.614399 
L 90.63079 224.184178 
L 94.262648 206.463168 
L 97.894507 202.032947 
L 101.526365 188.7422 
L 105.158224 175.451453 
L 108.790082 166.590968 
L 112.421941 153.300221 
L 116.053799 140.009474 
L 119.685658 135.579253 
L 123.317516 122.288506 
L 126.949375 108.997759 
L 130.581234 100.137275 
L 134.213092 86.846528 
L 137.844951 73.55578 
L 141.476809 55.834812 
L 145.108668 46.974286 
L 148.740526 33.683581 
L 152.372385 29.253318 
L 156.004243 24.823055 
" clip-path="url(#p8a57698d88)" style="fill: none; stroke: #c70303; stroke-opacity: 0.918919; stroke-width: 2; stroke-linecap: square"/>
   </g>
   <g id="line2d_79">
    <path d="M 156.004243 24.823055 
L 159.636102 24.823055 
L 163.267961 29.253318 
L 166.899819 38.113844 
L 170.531678 46.974286 
L 174.163536 60.265075 
L 177.795395 77.986044 
L 181.427253 95.707012 
L 185.059112 104.567538 
L 188.69097 117.858243 
L 192.322829 131.14899 
L 195.954688 148.87 
L 199.586546 162.160705 
L 203.218405 175.451453 
L 206.850263 188.7422 
L 210.482122 197.602684 
L 214.11398 210.893431 
L 217.745839 224.184178 
L 221.377697 228.614399 
L 225.009556 233.044662 
" clip-path="url(#p8a57698d88)" style="fill: none; stroke: #2979ea; stroke-opacity: 0.918919; stroke-width: 2; stroke-linecap: square"/>
   </g>
   <g id="line2d_80">
    <path d="M 79.735214 228.614399 
L 83.367072 228.614399 
L 86.998931 220.296392 
L 90.63079 207.819362 
L 94.262648 203.660339 
L 97.894507 187.024326 
L 101.526365 170.388312 
L 105.158224 157.911282 
L 108.790082 149.593275 
L 112.421941 137.116245 
L 116.053799 124.639215 
L 119.685658 116.321209 
L 123.317516 103.844179 
L 126.949375 95.526172 
L 130.581234 83.049142 
L 134.213092 70.572151 
L 137.844951 62.254105 
L 141.476809 49.777115 
L 145.108668 37.300045 
L 148.740526 33.141022 
L 152.372385 28.982078 
L 156.004243 24.823055 
" clip-path="url(#p8a57698d88)" style="fill: none; stroke: #c70303; stroke-opacity: 0.945946; stroke-width: 2; stroke-linecap: square"/>
   </g>
   <g id="line2d_81">
    <path d="M 156.004243 24.823055 
L 159.636102 33.141022 
L 163.267961 37.300045 
L 166.899819 49.777115 
L 170.531678 66.413128 
L 174.163536 83.049142 
L 177.795395 95.526172 
L 181.427253 112.162185 
L 185.059112 128.798239 
L 188.69097 141.275229 
L 192.322829 157.911282 
L 195.954688 170.388312 
L 199.586546 182.865302 
L 203.218405 195.342332 
L 206.850263 203.660339 
L 210.482122 211.978385 
L 214.11398 216.137369 
" clip-path="url(#p8a57698d88)" style="fill: none; stroke: #2979ea; stroke-opacity: 0.945946; stroke-width: 2; stroke-linecap: square"/>
   </g>
   <g id="patch_3">
    <path d="M 47.048487 228.614399 
L 47.048487 24.823055 
" style="fill: none; stroke: #000000; stroke-width: 0.6; stroke-linejoin: miter; stroke-linecap: square"/>
   </g>
   <g id="patch_4">
    <path d="M 47.048487 228.614399 
L 264.96 228.614399 
" style="fill: none; stroke: #000000; stroke-width: 0.6; stroke-linejoin: miter; stroke-linecap: square"/>
   </g>
   <g id="text_12">
    <!-- 25 minutes 18 sec -->
    <g transform="translate(92.863496 18.823055) scale(0.168 -0.168)">
     <defs>
      <path id="CMR17-35" d="M 730 3692 
C 794 3666 1056 3584 1325 3584 
C 1920 3584 2246 3911 2432 4100 
C 2432 4157 2432 4192 2394 4192 
C 2387 4192 2374 4192 2323 4163 
C 2099 4058 1837 3973 1517 3973 
C 1325 3973 1037 3999 723 4139 
C 653 4171 640 4171 634 4171 
C 602 4171 595 4164 595 4037 
L 595 2203 
C 595 2089 595 2057 659 2057 
C 691 2057 704 2070 736 2114 
C 941 2401 1222 2522 1542 2522 
C 1766 2522 2246 2382 2246 1289 
C 2246 1085 2246 715 2054 421 
C 1894 159 1645 25 1370 25 
C 947 25 518 320 403 814 
C 429 807 480 795 506 795 
C 589 795 749 840 749 1038 
C 749 1210 627 1280 506 1280 
C 358 1280 262 1190 262 1011 
C 262 454 704 -128 1382 -128 
C 2042 -128 2669 440 2669 1264 
C 2669 2030 2170 2624 1549 2624 
C 1222 2624 947 2503 730 2274 
L 730 3692 
z
" transform="scale(0.015625)"/>
      <path id="CMR17-75" d="M 1882 2693 
L 1882 2528 
C 2259 2528 2317 2489 2317 2186 
L 2317 1032 
C 2317 500 2029 38 1555 38 
C 1030 38 986 348 986 678 
L 986 2763 
L 211 2693 
L 211 2528 
C 467 2528 640 2528 646 2274 
L 646 1058 
C 646 633 646 361 813 183 
C 896 101 1056 -64 1517 -64 
C 2061 -64 2272 377 2323 506 
L 2330 506 
L 2330 -63 
L 3091 -63 
L 3091 128 
C 2714 128 2656 166 2656 473 
L 2656 2763 
L 1882 2693 
z
" transform="scale(0.015625)"/>
      <path id="CMR17-63" d="M 2234 2240 
C 2112 2240 1933 2240 1933 2017 
C 1933 1838 2080 1787 2163 1787 
C 2208 1787 2394 1807 2394 2024 
C 2394 2467 1958 2803 1466 2803 
C 787 2803 211 2178 211 1363 
C 211 516 813 -64 1466 -64 
C 2259 -64 2458 677 2458 748 
C 2458 774 2451 793 2406 793 
C 2362 793 2355 787 2330 703 
C 2163 180 1798 51 1523 51 
C 1114 51 621 427 621 1369 
C 621 2338 1094 2688 1472 2688 
C 1722 2688 2093 2573 2234 2240 
z
" transform="scale(0.015625)"/>
     </defs>
     <use xlink:href="#CMR17-32" transform="scale(0.996264)"/>
     <use xlink:href="#CMR17-35" transform="translate(45.690477 0) scale(0.996264)"/>
     <use xlink:href="#CMR17-6d" transform="translate(121.456921 0) scale(0.996264)"/>
     <use xlink:href="#CMR17-69" transform="translate(198.37651 0) scale(0.996264)"/>
     <use xlink:href="#CMR17-6e" transform="translate(223.247569 0) scale(0.996264)"/>
     <use xlink:href="#CMR17-75" transform="translate(271.540485 0) scale(0.996264)"/>
     <use xlink:href="#CMR17-74" transform="translate(322.435855 0) scale(0.996264)"/>
     <use xlink:href="#CMR17-65" transform="translate(357.716622 0) scale(0.996264)"/>
     <use xlink:href="#CMR17-73" transform="translate(398.202283 0) scale(0.996264)"/>
     <use xlink:href="#CMR17-31" transform="translate(464.079587 0) scale(0.996264)"/>
     <use xlink:href="#CMR17-38" transform="translate(509.770064 0) scale(0.996264)"/>
     <use xlink:href="#CMR17-73" transform="translate(585.536507 0) scale(0.996264)"/>
     <use xlink:href="#CMR17-65" transform="translate(621.337845 0) scale(0.996264)"/>
     <use xlink:href="#CMR17-63" transform="translate(661.823505 0) scale(0.996264)"/>
    </g>
   </g>
  </g>
 </g>
 <defs>
  <clipPath id="p8a57698d88">
   <rect x="47.048487" y="24.823055" width="217.911513" height="203.791344"/>
  </clipPath>
 </defs>
</svg>
