<?xml version="1.0" encoding="utf-8" standalone="no"?>
<!DOCTYPE svg PUBLIC "-//W3C//DTD SVG 1.1//EN"
  "http://www.w3.org/Graphics/SVG/1.1/DTD/svg11.dtd">
<svg xmlns:xlink="http://www.w3.org/1999/xlink" width="206.988489pt" height="200.16pt" viewBox="0 0 206.988489 200.16" xmlns="http://www.w3.org/2000/svg" version="1.1">
 <metadata>
  <rdf:RDF xmlns:dc="http://purl.org/dc/elements/1.1/" xmlns:cc="http://creativecommons.org/ns#" xmlns:rdf="http://www.w3.org/1999/02/22-rdf-syntax-ns#">
   <cc:Work>
    <dc:type rdf:resource="http://purl.org/dc/dcmitype/StillImage"/>
    <dc:date>2025-12-21T11:21:43.846939</dc:date>
    <dc:format>image/svg+xml</dc:format>
    <dc:creator>
     <cc:Agent>
      <dc:title>Matplotlib v3.8.4, https://matplotlib.org/</dc:title>
     </cc:Agent>
    </dc:creator>
   </cc:Work>
  </rdf:RDF>
 </metadata>
 <defs>
  <style type="text/css">*{stroke-linejoin: round; stroke-linecap: butt}</style>
 </defs>
 <g id="figure_1">
  <g id="patch_1">
   <path d="M 0 200.16 
L 206.988489 200.16 
L 206.988489 0 
L 0 0 
L 0 200.16 
z
" style="fill: none"/>
  </g>
  <g id="axes_1">
   <g id="patch_2">
    <path d="M 53.876976 156.614399 
L 199.788489 156.614399 
L 199.788489 24.823055 
L 53.876976 24.823055 
L 53.876976 156.614399 
z
" style="fill: none"/>
   </g>
   <g id="matplotlib.axis_1">
    <g id="xtick_1">
     <g id="line2d_1">
      <defs>
       <path id="m4cd371f86f" d="M 0 0 
L 0 2.5 
" style="stroke: #000000; stroke-width: 0.6"/>
      </defs>
      <g>
       <use xlink:href="#m4cd371f86f" x="66.036268" y="156.614399" style="stroke: #000000; stroke-width: 0.6"/>
      </g>
     </g>
     <g id="text_1">
      <!-- $\mathdefault{-25}$ -->
      <g transform="translate(53.783662 172.300275) scale(0.14 -0.14)">
       <defs>
        <path id="CMSY10-0" d="M 4218 1472 
C 4326 1472 4442 1472 4442 1600 
C 4442 1728 4326 1728 4218 1728 
L 755 1728 
C 646 1728 531 1728 531 1600 
C 531 1472 646 1472 755 1472 
L 4218 1472 
z
" transform="scale(0.015625)"/>
        <path id="CMR17-32" d="M 2669 989 
L 2554 989 
C 2490 536 2438 459 2413 420 
C 2381 369 1920 369 1830 369 
L 602 369 
C 832 619 1280 1072 1824 1597 
C 2214 1967 2669 2402 2669 3035 
C 2669 3790 2067 4224 1395 4224 
C 691 4224 262 3604 262 3030 
C 262 2780 448 2748 525 2748 
C 589 2748 781 2787 781 3010 
C 781 3207 614 3264 525 3264 
C 486 3264 448 3258 422 3245 
C 544 3790 915 4058 1306 4058 
C 1862 4058 2227 3617 2227 3035 
C 2227 2479 1901 2000 1536 1584 
L 262 146 
L 262 0 
L 2515 0 
L 2669 989 
z
" transform="scale(0.015625)"/>
        <path id="CMR17-35" d="M 730 3692 
C 794 3666 1056 3584 1325 3584 
C 1920 3584 2246 3911 2432 4100 
C 2432 4157 2432 4192 2394 4192 
C 2387 4192 2374 4192 2323 4163 
C 2099 4058 1837 3973 1517 3973 
C 1325 3973 1037 3999 723 4139 
C 653 4171 640 4171 634 4171 
C 602 4171 595 4164 595 4037 
L 595 2203 
C 595 2089 595 2057 659 2057 
C 691 2057 704 2070 736 2114 
C 941 2401 1222 2522 1542 2522 
C 1766 2522 2246 2382 2246 1289 
C 2246 1085 2246 715 2054 421 
C 1894 159 1645 25 1370 25 
C 947 25 518 320 403 814 
C 429 807 480 795 506 795 
C 589 795 749 840 749 1038 
C 749 1210 627 1280 506 1280 
C 358 1280 262 1190 262 1011 
C 262 454 704 -128 1382 -128 
C 2042 -128 2669 440 2669 1264 
C 2669 2030 2170 2624 1549 2624 
C 1222 2624 947 2503 730 2274 
L 730 3692 
z
" transform="scale(0.015625)"/>
       </defs>
       <use xlink:href="#CMSY10-0" transform="scale(0.996264)"/>
       <use xlink:href="#CMR17-32" transform="translate(77.487468 0) scale(0.996264)"/>
       <use xlink:href="#CMR17-35" transform="translate(123.177945 0) scale(0.996264)"/>
      </g>
     </g>
    </g>
    <g id="xtick_2">
     <g id="line2d_2">
      <g>
       <use xlink:href="#m4cd371f86f" x="126.832732" y="156.614399" style="stroke: #000000; stroke-width: 0.6"/>
      </g>
     </g>
     <g id="text_2">
      <!-- $\mathdefault{0}$ -->
      <g transform="translate(123.418488 172.300275) scale(0.14 -0.14)">
       <defs>
        <path id="CMR17-30" d="M 2688 2025 
C 2688 2416 2682 3080 2413 3591 
C 2176 4039 1798 4198 1466 4198 
C 1158 4198 768 4058 525 3597 
C 269 3118 243 2524 243 2025 
C 243 1661 250 1106 448 619 
C 723 -39 1216 -128 1466 -128 
C 1760 -128 2208 -7 2470 600 
C 2662 1042 2688 1559 2688 2025 
z
M 1466 -26 
C 1056 -26 813 325 723 812 
C 653 1188 653 1738 653 2096 
C 653 2588 653 2997 736 3387 
C 858 3929 1216 4096 1466 4096 
C 1728 4096 2067 3923 2189 3400 
C 2272 3036 2278 2607 2278 2096 
C 2278 1680 2278 1169 2202 792 
C 2067 95 1690 -26 1466 -26 
z
" transform="scale(0.015625)"/>
       </defs>
       <use xlink:href="#CMR17-30" transform="scale(0.996264)"/>
      </g>
     </g>
    </g>
    <g id="xtick_3">
     <g id="line2d_3">
      <g>
       <use xlink:href="#m4cd371f86f" x="187.629196" y="156.614399" style="stroke: #000000; stroke-width: 0.6"/>
      </g>
     </g>
     <g id="text_3">
      <!-- $\mathdefault{25}$ -->
      <g transform="translate(180.800707 172.300275) scale(0.14 -0.14)">
       <use xlink:href="#CMR17-32" transform="scale(0.996264)"/>
       <use xlink:href="#CMR17-35" transform="translate(45.690477 0) scale(0.996264)"/>
      </g>
     </g>
    </g>
    <g id="text_4">
     <!-- $t$(s) -->
     <g transform="translate(116.362383 189.473076) scale(0.14 -0.14)">
      <defs>
       <path id="CMMI12-74" d="M 1286 2566 
L 1875 2566 
C 1997 2566 2061 2566 2061 2681 
C 2061 2752 2022 2752 1894 2752 
L 1331 2752 
L 1568 3692 
C 1594 3781 1594 3794 1594 3840 
C 1594 3943 1510 4000 1427 4000 
C 1376 4000 1229 3981 1178 3775 
L 928 2752 
L 326 2752 
C 198 2752 141 2752 141 2630 
C 141 2566 186 2566 307 2566 
L 877 2566 
L 454 881 
C 403 658 384 594 384 511 
C 384 211 595 -64 954 -64 
C 1600 -64 1946 868 1946 912 
C 1946 951 1920 970 1882 970 
C 1869 970 1843 970 1830 944 
C 1824 938 1818 931 1773 829 
C 1638 511 1344 64 973 64 
C 781 64 768 224 768 364 
C 768 370 768 492 787 568 
L 1286 2566 
z
" transform="scale(0.015625)"/>
       <path id="CMR17-28" d="M 1958 -1561 
C 1958 -1555 1958 -1542 1939 -1523 
C 1645 -1224 858 -407 858 1581 
C 858 3569 1632 4379 1946 4697 
C 1946 4704 1958 4717 1958 4736 
C 1958 4755 1939 4768 1914 4768 
C 1843 4768 1299 4296 986 3594 
C 666 2887 576 2199 576 1588 
C 576 1128 621 351 1005 -471 
C 1312 -1135 1837 -1600 1914 -1600 
C 1946 -1600 1958 -1587 1958 -1561 
z
" transform="scale(0.015625)"/>
       <path id="CMR17-73" d="M 1978 2697 
C 1978 2813 1971 2819 1933 2819 
C 1907 2819 1901 2813 1824 2717 
C 1805 2691 1747 2626 1728 2601 
C 1523 2819 1235 2819 1126 2819 
C 416 2819 160 2447 160 2076 
C 160 1498 813 1365 998 1325 
C 1402 1243 1542 1217 1677 1101 
C 1760 1025 1901 884 1901 654 
C 1901 384 1747 38 1158 38 
C 602 38 403 460 288 1021 
C 269 1110 269 1117 218 1117 
C 166 1117 160 1110 160 983 
L 160 63 
C 160 -51 166 -58 205 -58 
C 237 -58 243 -51 275 0 
C 314 57 410 211 448 276 
C 576 103 800 -64 1158 -64 
C 1792 -64 2131 283 2131 784 
C 2131 1112 1958 1285 1875 1362 
C 1683 1561 1459 1606 1190 1657 
C 838 1735 390 1825 390 2217 
C 390 2383 480 2737 1126 2737 
C 1811 2737 1850 2094 1862 1888 
C 1869 1856 1901 1849 1920 1849 
C 1978 1849 1978 1869 1978 1978 
L 1978 2697 
z
" transform="scale(0.015625)"/>
       <path id="CMR17-29" d="M 1683 1581 
C 1683 2040 1638 2817 1254 3639 
C 947 4303 422 4768 346 4768 
C 326 4768 301 4761 301 4729 
C 301 4717 307 4710 314 4697 
C 621 4378 1402 3568 1402 1584 
C 1402 -407 627 -1217 314 -1537 
C 307 -1549 301 -1556 301 -1568 
C 301 -1600 326 -1600 346 -1600 
C 416 -1600 960 -1128 1274 -426 
C 1594 281 1683 969 1683 1581 
z
" transform="scale(0.015625)"/>
      </defs>
      <use xlink:href="#CMMI12-74" transform="scale(0.996264)"/>
      <use xlink:href="#CMR17-28" transform="translate(35.22633 0) scale(0.996264)"/>
      <use xlink:href="#CMR17-73" transform="translate(70.507098 0) scale(0.996264)"/>
      <use xlink:href="#CMR17-29" transform="translate(106.308436 0) scale(0.996264)"/>
     </g>
    </g>
   </g>
   <g id="matplotlib.axis_2">
    <g id="ytick_1">
     <g id="line2d_4">
      <defs>
       <path id="m56f3a9ced1" d="M 0 0 
L -2.5 0 
" style="stroke: #000000; stroke-width: 0.6"/>
      </defs>
      <g>
       <use xlink:href="#m56f3a9ced1" x="53.876976" y="156.614399" style="stroke: #000000; stroke-width: 0.6"/>
      </g>
     </g>
     <g id="text_5">
      <!-- $\mathdefault{0.00}$ -->
      <g transform="translate(23.597905 161.457337) scale(0.14 -0.14)">
       <defs>
        <path id="CMMI12-3a" d="M 1178 307 
C 1178 492 1024 619 870 619 
C 685 619 557 466 557 313 
C 557 128 710 0 864 0 
C 1050 0 1178 153 1178 307 
z
" transform="scale(0.015625)"/>
       </defs>
       <use xlink:href="#CMR17-30" transform="scale(0.996264)"/>
       <use xlink:href="#CMMI12-3a" transform="translate(45.690477 0) scale(0.996264)"/>
       <use xlink:href="#CMR17-30" transform="translate(72.787654 0) scale(0.996264)"/>
       <use xlink:href="#CMR17-30" transform="translate(118.478131 0) scale(0.996264)"/>
      </g>
     </g>
    </g>
    <g id="ytick_2">
     <g id="line2d_5">
      <g>
       <use xlink:href="#m56f3a9ced1" x="53.876976" y="123.666563" style="stroke: #000000; stroke-width: 0.6"/>
      </g>
     </g>
     <g id="text_6">
      <!-- $\mathdefault{0.25}$ -->
      <g transform="translate(23.597905 128.509501) scale(0.14 -0.14)">
       <use xlink:href="#CMR17-30" transform="scale(0.996264)"/>
       <use xlink:href="#CMMI12-3a" transform="translate(45.690477 0) scale(0.996264)"/>
       <use xlink:href="#CMR17-32" transform="translate(72.787654 0) scale(0.996264)"/>
       <use xlink:href="#CMR17-35" transform="translate(118.478131 0) scale(0.996264)"/>
      </g>
     </g>
    </g>
    <g id="ytick_3">
     <g id="line2d_6">
      <g>
       <use xlink:href="#m56f3a9ced1" x="53.876976" y="90.718727" style="stroke: #000000; stroke-width: 0.6"/>
      </g>
     </g>
     <g id="text_7">
      <!-- $\mathdefault{0.50}$ -->
      <g transform="translate(23.597905 95.561665) scale(0.14 -0.14)">
       <use xlink:href="#CMR17-30" transform="scale(0.996264)"/>
       <use xlink:href="#CMMI12-3a" transform="translate(45.690477 0) scale(0.996264)"/>
       <use xlink:href="#CMR17-35" transform="translate(72.787654 0) scale(0.996264)"/>
       <use xlink:href="#CMR17-30" transform="translate(118.478131 0) scale(0.996264)"/>
      </g>
     </g>
    </g>
    <g id="ytick_4">
     <g id="line2d_7">
      <g>
       <use xlink:href="#m56f3a9ced1" x="53.876976" y="57.770891" style="stroke: #000000; stroke-width: 0.6"/>
      </g>
     </g>
     <g id="text_8">
      <!-- $\mathdefault{0.75}$ -->
      <g transform="translate(23.597905 62.613829) scale(0.14 -0.14)">
       <defs>
        <path id="CMR17-37" d="M 2886 3941 
L 2886 4081 
L 1382 4081 
C 634 4081 621 4165 595 4288 
L 480 4288 
L 294 3094 
L 410 3094 
C 429 3215 474 3540 550 3661 
C 589 3712 1062 3712 1171 3712 
L 2579 3712 
L 1869 2661 
C 1395 1954 1069 999 1069 165 
C 1069 89 1069 -128 1299 -128 
C 1530 -128 1530 89 1530 171 
L 1530 465 
C 1530 1508 1709 2196 2003 2636 
L 2886 3941 
z
" transform="scale(0.015625)"/>
       </defs>
       <use xlink:href="#CMR17-30" transform="scale(0.996264)"/>
       <use xlink:href="#CMMI12-3a" transform="translate(45.690477 0) scale(0.996264)"/>
       <use xlink:href="#CMR17-37" transform="translate(72.787654 0) scale(0.996264)"/>
       <use xlink:href="#CMR17-35" transform="translate(118.478131 0) scale(0.996264)"/>
      </g>
     </g>
    </g>
    <g id="ytick_5">
     <g id="line2d_8">
      <g>
       <use xlink:href="#m56f3a9ced1" x="53.876976" y="24.823055" style="stroke: #000000; stroke-width: 0.6"/>
      </g>
     </g>
     <g id="text_9">
      <!-- $\mathdefault{1.00}$ -->
      <g transform="translate(23.597905 29.665993) scale(0.14 -0.14)">
       <defs>
        <path id="CMR17-31" d="M 1702 4058 
C 1702 4192 1696 4192 1606 4192 
C 1357 3916 979 3827 621 3827 
C 602 3827 570 3827 563 3808 
C 557 3795 557 3782 557 3648 
C 755 3648 1088 3686 1344 3839 
L 1344 461 
C 1344 236 1331 160 781 160 
L 589 160 
L 589 0 
C 896 0 1216 0 1523 0 
C 1830 0 2150 0 2458 0 
L 2458 160 
L 2266 160 
C 1715 160 1702 230 1702 458 
L 1702 4058 
z
" transform="scale(0.015625)"/>
       </defs>
       <use xlink:href="#CMR17-31" transform="scale(0.996264)"/>
       <use xlink:href="#CMMI12-3a" transform="translate(45.690477 0) scale(0.996264)"/>
       <use xlink:href="#CMR17-30" transform="translate(72.787654 0) scale(0.996264)"/>
       <use xlink:href="#CMR17-30" transform="translate(118.478131 0) scale(0.996264)"/>
      </g>
     </g>
    </g>
    <g id="text_10">
     <!-- normalized elevation -->
     <g transform="translate(16.885876 151.985444) rotate(-90) scale(0.14 -0.14)">
      <defs>
       <path id="CMR17-6e" d="M 2656 1933 
C 2656 2259 2592 2790 1837 2790 
C 1331 2790 1069 2400 973 2144 
L 966 2144 
L 966 2790 
L 211 2720 
L 211 2554 
C 589 2554 646 2515 646 2208 
L 646 428 
C 646 184 621 153 211 153 
L 211 -13 
C 365 0 646 0 813 0 
C 979 0 1267 0 1421 -13 
L 1421 153 
C 1011 153 986 178 986 428 
L 986 1658 
C 986 2247 1344 2688 1792 2688 
C 2266 2688 2317 2266 2317 1958 
L 2317 428 
C 2317 184 2291 153 1882 153 
L 1882 -13 
C 2035 0 2317 0 2483 0 
C 2650 0 2938 0 3091 -13 
L 3091 153 
C 2682 153 2656 178 2656 428 
L 2656 1933 
z
" transform="scale(0.015625)"/>
       <path id="CMR17-6f" d="M 2758 1356 
C 2758 2176 2163 2816 1466 2816 
C 768 2816 173 2176 173 1356 
C 173 551 768 -64 1466 -64 
C 2163 -64 2758 551 2758 1356 
z
M 1466 51 
C 1165 51 909 230 762 480 
C 602 767 582 1126 582 1408 
C 582 1677 595 2010 762 2298 
C 890 2509 1139 2714 1466 2714 
C 1754 2714 1997 2554 2150 2330 
C 2349 2029 2349 1607 2349 1408 
C 2349 1158 2336 775 2163 467 
C 1984 173 1709 51 1466 51 
z
" transform="scale(0.015625)"/>
       <path id="CMR17-72" d="M 960 1497 
C 960 2112 1222 2688 1702 2688 
C 1747 2688 1792 2682 1837 2662 
C 1837 2662 1696 2617 1696 2452 
C 1696 2298 1818 2234 1914 2234 
C 1990 2234 2131 2279 2131 2458 
C 2131 2663 1926 2790 1709 2790 
C 1222 2790 1011 2317 947 2093 
L 941 2093 
L 941 2790 
L 198 2720 
L 198 2554 
C 576 2554 634 2515 634 2208 
L 634 428 
C 634 184 608 153 198 153 
L 198 -13 
C 352 0 646 0 813 0 
C 998 0 1325 0 1498 -13 
L 1498 153 
C 1037 153 960 153 960 440 
L 960 1497 
z
" transform="scale(0.015625)"/>
       <path id="CMR17-6d" d="M 4326 1933 
C 4326 2252 4269 2790 3507 2790 
C 3072 2790 2771 2496 2656 2151 
L 2650 2151 
C 2573 2676 2195 2790 1837 2790 
C 1331 2790 1069 2400 973 2144 
L 966 2144 
L 966 2790 
L 211 2720 
L 211 2554 
C 589 2554 646 2515 646 2208 
L 646 428 
C 646 184 621 153 211 153 
L 211 -13 
C 365 0 646 0 813 0 
C 979 0 1267 0 1421 -13 
L 1421 153 
C 1011 153 986 178 986 428 
L 986 1658 
C 986 2247 1344 2688 1792 2688 
C 2266 2688 2317 2266 2317 1958 
L 2317 428 
C 2317 184 2291 153 1882 153 
L 1882 -13 
C 2035 0 2317 0 2483 0 
C 2650 0 2938 0 3091 -13 
L 3091 153 
C 2682 153 2656 178 2656 428 
L 2656 1658 
C 2656 2247 3014 2688 3462 2688 
C 3936 2688 3987 2266 3987 1958 
L 3987 428 
C 3987 184 3962 153 3552 153 
L 3552 -13 
C 3706 0 3987 0 4154 0 
C 4320 0 4608 0 4762 -13 
L 4762 153 
C 4352 153 4326 178 4326 428 
L 4326 1933 
z
" transform="scale(0.015625)"/>
       <path id="CMR17-61" d="M 2304 1653 
C 2304 2072 2304 2294 2035 2543 
C 1798 2752 1523 2816 1306 2816 
C 800 2816 435 2407 435 1971 
C 435 1728 627 1728 666 1728 
C 749 1728 896 1778 896 1954 
C 896 2112 774 2181 666 2181 
C 640 2181 608 2174 589 2168 
C 723 2592 1069 2714 1293 2714 
C 1613 2714 1965 2429 1965 1885 
L 1965 1600 
C 1587 1600 1133 1549 774 1357 
C 371 1133 256 813 256 570 
C 256 77 832 -64 1171 -64 
C 1523 -64 1850 139 1990 511 
C 2003 233 2182 -18 2464 -18 
C 2598 -18 2938 70 2938 567 
L 2938 920 
L 2822 920 
L 2822 562 
C 2822 178 2650 128 2566 128 
C 2304 128 2304 458 2304 738 
L 2304 1653 
z
M 1965 870 
C 1965 317 1568 38 1216 38 
C 896 38 646 275 646 570 
C 646 761 730 1100 1101 1305 
C 1408 1478 1760 1504 1965 1504 
L 1965 870 
z
" transform="scale(0.015625)"/>
       <path id="CMR17-6c" d="M 979 4396 
L 218 4326 
L 218 4160 
C 595 4160 653 4122 653 3817 
L 653 426 
C 653 184 627 153 218 153 
L 218 -13 
C 371 0 653 0 813 0 
C 979 0 1261 0 1414 -13 
L 1414 153 
C 1005 153 979 178 979 426 
L 979 4396 
z
" transform="scale(0.015625)"/>
       <path id="CMR17-69" d="M 992 3909 
C 992 4049 877 4170 730 4170 
C 589 4170 467 4056 467 3909 
C 467 3769 582 3648 730 3648 
C 870 3648 992 3763 992 3909 
z
M 243 2706 
L 243 2541 
C 602 2541 653 2502 653 2197 
L 653 427 
C 653 184 627 153 218 153 
L 218 -13 
C 371 0 646 0 806 0 
C 960 0 1222 0 1370 -13 
L 1370 153 
C 992 153 979 191 979 420 
L 979 2776 
L 243 2706 
z
" transform="scale(0.015625)"/>
       <path id="CMR17-7a" d="M 2310 2605 
C 2362 2670 2362 2682 2362 2695 
C 2362 2752 2336 2752 2221 2752 
L 275 2752 
L 211 1760 
L 326 1760 
C 371 2381 442 2650 1178 2650 
L 1958 2650 
L 128 96 
C 128 0 134 0 269 0 
L 2291 0 
L 2381 1152 
L 2266 1152 
C 2214 442 2131 115 1350 115 
L 531 115 
L 2310 2605 
z
" transform="scale(0.015625)"/>
       <path id="CMR17-65" d="M 2438 1472 
C 2464 1498 2464 1511 2464 1576 
C 2464 2238 2118 2816 1389 2816 
C 710 2816 173 2169 173 1383 
C 173 551 781 -64 1459 -64 
C 2176 -64 2458 607 2458 740 
C 2458 784 2419 784 2406 784 
C 2362 784 2355 771 2330 696 
C 2189 265 1837 51 1504 51 
C 1229 51 954 203 781 480 
C 582 803 582 1176 582 1472 
L 2438 1472 
z
M 589 1568 
C 634 2505 1126 2714 1382 2714 
C 1818 2714 2112 2297 2118 1568 
L 589 1568 
z
" transform="scale(0.015625)"/>
       <path id="CMR17-64" d="M 1869 4326 
L 1869 4160 
C 2246 4160 2304 4122 2304 3820 
L 2304 2345 
C 2278 2377 2016 2790 1498 2790 
C 845 2790 211 2208 211 1364 
C 211 525 806 -64 1434 -64 
C 1978 -64 2259 337 2291 380 
L 2291 -63 
L 3066 -63 
L 3066 128 
C 2688 128 2630 166 2630 473 
L 2630 4396 
L 1869 4326 
z
M 2291 755 
C 2291 563 2176 390 2029 262 
C 1811 70 1594 38 1472 38 
C 1286 38 621 134 621 1356 
C 621 2612 1363 2688 1530 2688 
C 1824 2688 2061 2522 2208 2291 
C 2291 2157 2291 2138 2291 2023 
L 2291 755 
z
" transform="scale(0.015625)"/>
       <path id="CMR17-76" d="M 2502 2163 
C 2560 2304 2662 2560 3034 2560 
L 3034 2726 
C 2912 2726 2752 2726 2630 2726 
C 2496 2726 2285 2726 2157 2732 
L 2157 2566 
C 2317 2553 2406 2477 2406 2311 
C 2406 2253 2406 2240 2368 2151 
L 1664 377 
L 902 2286 
C 864 2369 864 2381 864 2407 
C 864 2560 1075 2560 1171 2560 
L 1171 2732 
C 1018 2726 736 2726 576 2726 
C 403 2726 205 2726 64 2732 
L 64 2560 
C 307 2560 442 2560 518 2362 
L 1446 44 
C 1485 -51 1491 -64 1549 -64 
C 1606 -64 1613 -51 1651 44 
L 2502 2163 
z
" transform="scale(0.015625)"/>
       <path id="CMR17-74" d="M 966 2560 
L 1862 2560 
L 1862 2725 
L 966 2725 
L 966 3904 
L 851 3904 
C 838 3245 614 2668 70 2668 
L 70 2560 
L 627 2560 
L 627 771 
C 627 650 627 -64 1370 -64 
C 1747 -64 1965 306 1965 777 
L 1965 1140 
L 1850 1140 
L 1850 783 
C 1850 344 1677 51 1408 51 
C 1222 51 966 178 966 758 
L 966 2560 
z
" transform="scale(0.015625)"/>
      </defs>
      <use xlink:href="#CMR17-6e" transform="scale(0.996264)"/>
      <use xlink:href="#CMR17-6f" transform="translate(50.89537 0) scale(0.996264)"/>
      <use xlink:href="#CMR17-72" transform="translate(96.585847 0) scale(0.996264)"/>
      <use xlink:href="#CMR17-6d" transform="translate(131.866615 0) scale(0.996264)"/>
      <use xlink:href="#CMR17-61" transform="translate(208.786205 0) scale(0.996264)"/>
      <use xlink:href="#CMR17-6c" transform="translate(254.476682 0) scale(0.996264)"/>
      <use xlink:href="#CMR17-69" transform="translate(279.34774 0) scale(0.996264)"/>
      <use xlink:href="#CMR17-7a" transform="translate(304.218799 0) scale(0.996264)"/>
      <use xlink:href="#CMR17-65" transform="translate(344.704459 0) scale(0.996264)"/>
      <use xlink:href="#CMR17-64" transform="translate(385.19012 0) scale(0.996264)"/>
      <use xlink:href="#CMR17-65" transform="translate(466.161456 0) scale(0.996264)"/>
      <use xlink:href="#CMR17-6c" transform="translate(506.647116 0) scale(0.996264)"/>
      <use xlink:href="#CMR17-65" transform="translate(531.518175 0) scale(0.996264)"/>
      <use xlink:href="#CMR17-76" transform="translate(572.003835 0) scale(0.996264)"/>
      <use xlink:href="#CMR17-61" transform="translate(615.091934 0) scale(0.996264)"/>
      <use xlink:href="#CMR17-74" transform="translate(660.782411 0) scale(0.996264)"/>
      <use xlink:href="#CMR17-69" transform="translate(696.063179 0) scale(0.996264)"/>
      <use xlink:href="#CMR17-6f" transform="translate(720.934238 0) scale(0.996264)"/>
      <use xlink:href="#CMR17-6e" transform="translate(766.624715 0) scale(0.996264)"/>
     </g>
    </g>
   </g>
   <g id="line2d_9">
    <path d="M 70.899985 156.614399 
L 73.331844 156.614399 
L 75.763702 156.614399 
L 78.195561 156.614399 
L 80.62742 156.614399 
L 83.059278 151.641145 
L 85.491137 144.181252 
L 87.922995 134.234743 
L 90.354854 126.77485 
L 92.786712 119.314957 
L 95.218571 109.368448 
L 97.650429 99.42194 
L 100.082288 94.448662 
L 102.514147 84.502153 
L 104.946005 74.555645 
L 107.377864 69.582367 
L 109.809722 62.122497 
L 112.241581 52.175965 
L 114.673439 44.716072 
L 117.105298 37.256202 
L 119.537156 32.282924 
L 121.969015 27.309694 
L 124.400874 27.309694 
L 126.832732 24.823055 
" clip-path="url(#p70e88dc408)" style="fill: none; stroke: #c70303; stroke-opacity: 0; stroke-width: 2; stroke-linecap: square"/>
   </g>
   <g id="line2d_10">
    <path d="M 126.832732 24.823055 
L 129.264591 24.823055 
L 131.696449 27.309694 
L 134.128308 32.282924 
L 136.560166 39.742818 
L 138.992025 47.202711 
L 141.423883 57.149219 
L 143.855742 62.122497 
L 146.2876 72.069006 
L 148.719459 82.015514 
L 151.151318 91.962046 
L 153.583176 101.908555 
L 156.015035 106.881809 
L 158.446893 114.341702 
L 160.878752 121.801596 
L 163.31061 126.77485 
L 165.742469 134.234743 
L 168.174327 141.694636 
L 170.606186 144.181252 
L 173.038045 146.667891 
" clip-path="url(#p70e88dc408)" style="fill: none; stroke: #2979ea; stroke-opacity: 0; stroke-width: 2; stroke-linecap: square"/>
   </g>
   <g id="line2d_11">
    <path d="M 73.331844 156.614399 
L 75.763702 156.614399 
L 78.195561 151.545507 
L 80.62742 146.476614 
L 83.059278 141.407698 
L 85.491137 136.338806 
L 87.922995 126.201021 
L 90.354854 118.597671 
L 92.786712 113.528778 
L 95.218571 103.39097 
L 97.650429 98.322077 
L 100.082288 90.718727 
L 102.514147 85.649835 
L 104.946005 78.046484 
L 107.377864 72.977592 
L 109.809722 62.839807 
L 112.241581 55.236457 
L 114.673439 50.167565 
L 117.105298 42.564214 
L 119.537156 37.495298 
L 121.969015 29.891971 
L 124.400874 27.357513 
L 126.832732 24.823055 
" clip-path="url(#p70e88dc408)" style="fill: none; stroke: #c70303; stroke-opacity: 0.027027; stroke-width: 2; stroke-linecap: square"/>
   </g>
   <g id="line2d_12">
    <path d="M 126.832732 24.823055 
L 129.264591 24.823055 
L 131.696449 29.891971 
L 134.128308 34.960888 
L 136.560166 45.098672 
L 138.992025 52.701999 
L 141.423883 60.305349 
L 143.855742 67.9087 
L 146.2876 80.580942 
L 148.719459 85.649835 
L 151.151318 95.787643 
L 153.583176 103.39097 
L 156.015035 110.99432 
L 158.446893 118.597671 
L 160.878752 126.201021 
L 163.31061 131.269913 
L 165.742469 141.407698 
L 168.174327 149.011049 
L 170.606186 154.079941 
L 173.038045 156.614399 
" clip-path="url(#p70e88dc408)" style="fill: none; stroke: #2979ea; stroke-opacity: 0.027027; stroke-width: 2; stroke-linecap: square"/>
   </g>
   <g id="line2d_13">
    <path d="M 73.331844 156.614399 
L 75.763702 156.614399 
L 78.195561 151.342725 
L 80.62742 148.706913 
L 83.059278 143.435265 
L 85.491137 135.527779 
L 87.922995 127.620293 
L 90.354854 119.712808 
L 92.786712 111.805322 
L 95.218571 103.897861 
L 97.650429 95.990376 
L 100.082288 88.08289 
L 102.514147 82.811241 
L 104.946005 74.903756 
L 107.377864 66.99627 
L 109.809722 61.724621 
L 112.241581 51.181324 
L 114.673439 43.273838 
L 117.105298 35.366352 
L 119.537156 30.094678 
L 121.969015 27.458892 
L 124.400874 24.823055 
L 126.832732 24.823055 
" clip-path="url(#p70e88dc408)" style="fill: none; stroke: #c70303; stroke-opacity: 0.054054; stroke-width: 2; stroke-linecap: square"/>
   </g>
   <g id="line2d_14">
    <path d="M 126.832732 24.823055 
L 129.264591 24.823055 
L 131.696449 27.458892 
L 134.128308 35.366352 
L 136.560166 43.273838 
L 138.992025 51.181324 
L 141.423883 61.724621 
L 143.855742 74.903756 
L 146.2876 80.175404 
L 148.719459 90.718727 
L 151.151318 98.626187 
L 153.583176 106.533673 
L 156.015035 114.441159 
L 158.446893 119.712808 
L 160.878752 127.620293 
L 163.31061 138.163591 
L 165.742469 143.435265 
L 168.174327 148.706913 
L 170.606186 151.342725 
L 173.038045 153.978562 
" clip-path="url(#p70e88dc408)" style="fill: none; stroke: #2979ea; stroke-opacity: 0.054054; stroke-width: 2; stroke-linecap: square"/>
   </g>
   <g id="line2d_15">
    <path d="M 75.763702 156.614399 
L 78.195561 156.614399 
L 80.62742 151.34275 
L 83.059278 143.435265 
L 85.491137 135.527779 
L 87.922995 130.25613 
L 90.354854 122.348644 
L 92.786712 111.805347 
L 95.218571 103.897861 
L 97.650429 98.626213 
L 100.082288 90.718727 
L 102.514147 80.175429 
L 104.946005 77.539592 
L 107.377864 69.632107 
L 109.809722 61.724621 
L 112.241581 56.452972 
L 114.673439 51.181324 
L 117.105298 40.638026 
L 119.537156 35.366352 
L 121.969015 30.094729 
L 124.400874 27.458892 
L 126.832732 24.823055 
" clip-path="url(#p70e88dc408)" style="fill: none; stroke: #c70303; stroke-opacity: 0.081081; stroke-width: 2; stroke-linecap: square"/>
   </g>
   <g id="line2d_16">
    <path d="M 126.832732 24.823055 
L 129.264591 24.823055 
L 131.696449 30.094729 
L 134.128308 38.002189 
L 136.560166 45.909675 
L 138.992025 53.817161 
L 141.423883 61.724621 
L 143.855742 69.632107 
L 146.2876 77.539592 
L 148.719459 88.08289 
L 151.151318 95.990376 
L 153.583176 103.897861 
L 156.015035 111.805347 
L 158.446893 119.712833 
L 160.878752 124.984481 
L 163.31061 132.891967 
L 165.742469 138.163616 
L 168.174327 146.071102 
L 170.606186 153.978562 
L 173.038045 159.250236 
L 175.469903 159.250236 
" clip-path="url(#p70e88dc408)" style="fill: none; stroke: #2979ea; stroke-opacity: 0.081081; stroke-width: 2; stroke-linecap: square"/>
   </g>
   <g id="line2d_17">
    <path d="M 75.763702 156.614399 
L 78.195561 151.446115 
L 80.62742 146.277832 
L 83.059278 141.109548 
L 85.491137 133.35711 
L 87.922995 128.188827 
L 90.354854 120.436389 
L 92.786712 115.268105 
L 95.218571 107.515667 
L 97.650429 97.179075 
L 100.082288 92.010792 
L 102.514147 84.258354 
L 104.946005 76.505941 
L 107.377864 68.753503 
L 109.809722 63.585219 
L 112.241581 55.832781 
L 114.673439 50.664498 
L 117.105298 42.91206 
L 119.537156 35.159622 
L 121.969015 29.991314 
L 124.400874 27.407209 
L 126.832732 24.823055 
" clip-path="url(#p70e88dc408)" style="fill: none; stroke: #c70303; stroke-opacity: 0.108108; stroke-width: 2; stroke-linecap: square"/>
   </g>
   <g id="line2d_18">
    <path d="M 126.832732 24.823055 
L 129.264591 24.823055 
L 131.696449 29.991314 
L 134.128308 32.575468 
L 136.560166 40.327906 
L 138.992025 50.664498 
L 141.423883 58.416911 
L 143.855742 66.169349 
L 146.2876 73.921787 
L 148.719459 81.674224 
L 151.151318 89.426662 
L 153.583176 97.179075 
L 156.015035 104.931513 
L 158.446893 112.683951 
L 160.878752 120.436389 
L 163.31061 128.188827 
L 165.742469 133.35711 
L 168.174327 141.109548 
L 170.606186 143.693678 
L 173.038045 146.277832 
" clip-path="url(#p70e88dc408)" style="fill: none; stroke: #2979ea; stroke-opacity: 0.108108; stroke-width: 2; stroke-linecap: square"/>
   </g>
   <g id="line2d_19">
    <path d="M 75.763702 156.614399 
L 78.195561 156.614399 
L 80.62742 151.235166 
L 83.059278 145.855908 
L 85.491137 137.787071 
L 87.922995 132.407813 
L 90.354854 124.338977 
L 92.786712 113.580485 
L 95.218571 105.511623 
L 97.650429 100.132391 
L 100.082288 94.753158 
L 102.514147 86.684296 
L 104.946005 81.305063 
L 107.377864 73.236201 
L 109.809722 65.167339 
L 112.241581 59.788106 
L 114.673439 51.719244 
L 117.105298 43.650408 
L 119.537156 35.58152 
L 121.969015 30.202313 
L 124.400874 27.512684 
L 126.832732 24.823055 
" clip-path="url(#p70e88dc408)" style="fill: none; stroke: #c70303; stroke-opacity: 0.135135; stroke-width: 2; stroke-linecap: square"/>
   </g>
   <g id="line2d_20">
    <path d="M 126.832732 24.823055 
L 129.264591 24.823055 
L 131.696449 30.202313 
L 134.128308 35.58152 
L 136.560166 43.650408 
L 138.992025 51.719244 
L 141.423883 62.477736 
L 143.855742 67.856968 
L 146.2876 75.92583 
L 148.719459 86.684296 
L 151.151318 94.753158 
L 153.583176 105.511623 
L 156.015035 113.580485 
L 158.446893 118.959718 
L 160.878752 124.338977 
L 163.31061 132.407813 
L 165.742469 140.476675 
L 168.174327 148.545537 
L 170.606186 153.92477 
L 173.038045 159.304003 
L 175.469903 161.993632 
" clip-path="url(#p70e88dc408)" style="fill: none; stroke: #2979ea; stroke-opacity: 0.135135; stroke-width: 2; stroke-linecap: square"/>
   </g>
   <g id="line2d_21">
    <path d="M 70.899985 156.614399 
L 73.331844 156.614399 
L 75.763702 148.861963 
L 78.195561 143.69368 
L 80.62742 141.109526 
L 83.059278 135.941244 
L 85.491137 128.188807 
L 87.922995 123.020525 
L 90.354854 115.268088 
L 92.786712 107.515652 
L 95.218571 99.763215 
L 97.650429 92.010804 
L 100.082288 86.842496 
L 102.514147 76.505931 
L 104.946005 71.337648 
L 107.377864 66.169366 
L 109.809722 58.416929 
L 112.241581 50.664493 
L 114.673439 45.49621 
L 117.105298 35.15962 
L 119.537156 29.991362 
L 121.969015 27.407208 
L 124.400874 27.407208 
L 126.832732 24.823055 
" clip-path="url(#p70e88dc408)" style="fill: none; stroke: #c70303; stroke-opacity: 0.162162; stroke-width: 2; stroke-linecap: square"/>
   </g>
   <g id="line2d_22">
    <path d="M 126.832732 24.823055 
L 129.264591 27.407208 
L 131.696449 35.15962 
L 134.128308 40.327928 
L 136.560166 50.664493 
L 138.992025 58.416929 
L 141.423883 66.169366 
L 143.855742 73.921777 
L 146.2876 84.258367 
L 148.719459 94.594933 
L 151.151318 99.763215 
L 153.583176 110.099805 
L 156.015035 115.268088 
L 158.446893 123.020525 
L 160.878752 130.772961 
L 163.31061 135.941244 
L 165.742469 143.69368 
L 168.174327 148.861963 
L 170.606186 151.446092 
L 173.038045 154.030245 
" clip-path="url(#p70e88dc408)" style="fill: none; stroke: #2979ea; stroke-opacity: 0.162162; stroke-width: 2; stroke-linecap: square"/>
   </g>
   <g id="line2d_23">
    <path d="M 73.331844 156.614399 
L 75.763702 156.614399 
L 78.195561 151.235165 
L 80.62742 143.166302 
L 83.059278 137.787068 
L 85.491137 132.407834 
L 87.922995 121.649341 
L 90.354854 116.270107 
L 92.786712 110.890873 
L 95.218571 102.822009 
L 97.650429 97.442776 
L 100.082288 89.373912 
L 102.514147 81.305048 
L 104.946005 75.925815 
L 107.377864 67.856951 
L 109.809722 59.788087 
L 112.241581 54.408854 
L 114.673439 49.02962 
L 117.105298 38.271152 
L 119.537156 32.891893 
L 121.969015 27.512685 
L 124.400874 27.512685 
L 126.832732 24.823055 
" clip-path="url(#p70e88dc408)" style="fill: none; stroke: #c70303; stroke-opacity: 0.189189; stroke-width: 2; stroke-linecap: square"/>
   </g>
   <g id="line2d_24">
    <path d="M 126.832732 24.823055 
L 129.264591 24.823055 
L 131.696449 30.202263 
L 134.128308 38.271152 
L 136.560166 49.02962 
L 138.992025 57.098483 
L 141.423883 65.167347 
L 143.855742 75.925815 
L 146.2876 83.994678 
L 148.719459 94.753146 
L 151.151318 102.822009 
L 153.583176 110.890873 
L 156.015035 116.270107 
L 158.446893 127.028574 
L 160.878752 132.407834 
L 163.31061 137.787068 
L 165.742469 145.855931 
L 168.174327 151.235165 
L 170.606186 153.924769 
" clip-path="url(#p70e88dc408)" style="fill: none; stroke: #2979ea; stroke-opacity: 0.189189; stroke-width: 2; stroke-linecap: square"/>
   </g>
   <g id="line2d_25">
    <path d="M 70.899985 156.614399 
L 73.331844 156.614399 
L 75.763702 148.861963 
L 78.195561 143.69368 
L 80.62742 141.109526 
L 83.059278 135.941244 
L 85.491137 128.188807 
L 87.922995 120.436396 
L 90.354854 115.268088 
L 92.786712 104.931523 
L 95.218571 99.76324 
L 97.650429 94.594957 
L 100.082288 86.842521 
L 102.514147 79.090085 
L 104.946005 73.921802 
L 107.377864 66.169366 
L 109.809722 58.416929 
L 112.241581 53.248647 
L 114.673439 45.49621 
L 117.105298 37.743774 
L 119.537156 32.575516 
L 121.969015 27.407208 
L 124.400874 27.407208 
L 126.832732 24.823055 
" clip-path="url(#p70e88dc408)" style="fill: none; stroke: #c70303; stroke-opacity: 0.216216; stroke-width: 2; stroke-linecap: square"/>
   </g>
   <g id="line2d_26">
    <path d="M 126.832732 24.823055 
L 129.264591 27.407208 
L 131.696449 35.15962 
L 134.128308 40.327928 
L 136.560166 50.664493 
L 138.992025 58.416929 
L 141.423883 68.753519 
L 143.855742 76.505931 
L 146.2876 81.674238 
L 148.719459 92.010804 
L 151.151318 102.347369 
L 153.583176 110.099805 
L 156.015035 115.268088 
L 158.446893 123.020525 
L 160.878752 130.772961 
L 163.31061 135.941244 
L 165.742469 146.277834 
L 168.174327 151.446116 
L 170.606186 154.030245 
L 173.038045 156.614399 
" clip-path="url(#p70e88dc408)" style="fill: none; stroke: #2979ea; stroke-opacity: 0.216216; stroke-width: 2; stroke-linecap: square"/>
   </g>
   <g id="line2d_27">
    <path d="M 73.331844 156.614399 
L 75.763702 156.614399 
L 78.195561 148.861963 
L 80.62742 141.109526 
L 83.059278 135.941244 
L 85.491137 130.772961 
L 87.922995 123.020525 
L 90.354854 115.268088 
L 92.786712 110.099805 
L 95.218571 102.347369 
L 97.650429 94.594957 
L 100.082288 89.42665 
L 102.514147 81.674238 
L 104.946005 73.921802 
L 107.377864 68.753519 
L 109.809722 61.001083 
L 112.241581 53.248647 
L 114.673439 48.080364 
L 117.105298 40.327928 
L 119.537156 32.575516 
L 121.969015 27.407208 
L 124.400874 24.823055 
L 126.832732 24.823055 
" clip-path="url(#p70e88dc408)" style="fill: none; stroke: #c70303; stroke-opacity: 0.243243; stroke-width: 2; stroke-linecap: square"/>
   </g>
   <g id="line2d_28">
    <path d="M 126.832732 24.823055 
L 129.264591 24.823055 
L 131.696449 29.991362 
L 134.128308 37.743774 
L 136.560166 45.49621 
L 138.992025 53.248647 
L 141.423883 63.585212 
L 143.855742 71.337648 
L 146.2876 81.674238 
L 148.719459 92.010804 
L 151.151318 99.76324 
L 153.583176 107.515676 
L 156.015035 112.683959 
L 158.446893 120.436396 
L 160.878752 130.772961 
L 163.31061 135.941244 
L 165.742469 143.69368 
L 168.174327 151.446116 
L 170.606186 154.030245 
L 173.038045 156.614399 
" clip-path="url(#p70e88dc408)" style="fill: none; stroke: #2979ea; stroke-opacity: 0.243243; stroke-width: 2; stroke-linecap: square"/>
   </g>
   <g id="line2d_29">
    <path d="M 73.331844 156.614399 
L 75.763702 156.614399 
L 78.195561 151.34275 
L 80.62742 146.071102 
L 83.059278 138.163616 
L 85.491137 135.527779 
L 87.922995 127.620293 
L 90.354854 119.712833 
L 92.786712 111.805347 
L 95.218571 106.533698 
L 97.650429 95.990376 
L 100.082288 88.08289 
L 102.514147 82.811241 
L 104.946005 74.903756 
L 107.377864 66.996295 
L 109.809722 59.088809 
L 112.241581 51.181324 
L 114.673439 43.273838 
L 117.105298 38.002189 
L 119.537156 32.730515 
L 121.969015 27.458892 
L 124.400874 24.823055 
L 126.832732 24.823055 
" clip-path="url(#p70e88dc408)" style="fill: none; stroke: #c70303; stroke-opacity: 0.27027; stroke-width: 2; stroke-linecap: square"/>
   </g>
   <g id="line2d_30">
    <path d="M 126.832732 24.823055 
L 129.264591 24.823055 
L 131.696449 30.094729 
L 134.128308 38.002189 
L 136.560166 43.273838 
L 138.992025 51.181324 
L 141.423883 59.088809 
L 143.855742 69.632107 
L 146.2876 82.811241 
L 148.719459 90.718727 
L 151.151318 98.626213 
L 153.583176 106.533698 
L 156.015035 111.805347 
L 158.446893 119.712833 
L 160.878752 127.620293 
L 163.31061 132.891967 
L 165.742469 143.435265 
L 168.174327 148.706913 
L 170.606186 151.34275 
" clip-path="url(#p70e88dc408)" style="fill: none; stroke: #2979ea; stroke-opacity: 0.27027; stroke-width: 2; stroke-linecap: square"/>
   </g>
   <g id="line2d_31">
    <path d="M 73.331844 156.614399 
L 75.763702 156.614399 
L 78.195561 156.614399 
L 80.62742 151.123098 
L 83.059278 145.631772 
L 85.491137 137.394834 
L 87.922995 131.903507 
L 90.354854 123.66657 
L 92.786712 115.429606 
L 95.218571 107.192642 
L 97.650429 101.701341 
L 100.082288 93.464377 
L 102.514147 82.481776 
L 104.946005 79.736113 
L 107.377864 71.499149 
L 109.809722 63.262185 
L 112.241581 55.025247 
L 114.673439 49.53392 
L 117.105298 38.551319 
L 119.537156 33.059993 
L 121.969015 27.568718 
L 124.400874 24.823055 
L 126.832732 24.823055 
" clip-path="url(#p70e88dc408)" style="fill: none; stroke: #c70303; stroke-opacity: 0.297297; stroke-width: 2; stroke-linecap: square"/>
   </g>
   <g id="line2d_32">
    <path d="M 126.832732 24.823055 
L 129.264591 24.823055 
L 131.696449 27.568718 
L 134.128308 33.059993 
L 136.560166 41.296983 
L 138.992025 49.53392 
L 141.423883 57.770884 
L 143.855742 66.007848 
L 146.2876 76.990449 
L 148.719459 85.227413 
L 151.151318 96.210041 
L 153.583176 104.446978 
L 156.015035 109.938305 
L 158.446893 118.175243 
L 160.878752 126.412207 
L 163.31061 131.903507 
L 165.742469 137.394834 
L 168.174327 145.631772 
L 170.606186 153.868736 
L 173.038045 159.360036 
L 175.469903 159.360036 
" clip-path="url(#p70e88dc408)" style="fill: none; stroke: #2979ea; stroke-opacity: 0.297297; stroke-width: 2; stroke-linecap: square"/>
   </g>
   <g id="line2d_33">
    <path d="M 73.331844 156.614399 
L 75.763702 153.978562 
L 78.195561 146.071102 
L 80.62742 140.799428 
L 83.059278 135.527779 
L 85.491137 127.620293 
L 87.922995 122.348644 
L 90.354854 117.076996 
L 92.786712 106.533698 
L 95.218571 101.262024 
L 97.650429 93.354564 
L 100.082288 82.811241 
L 102.514147 77.539592 
L 104.946005 72.267944 
L 107.377864 64.360458 
L 109.809722 56.452972 
L 112.241581 51.181324 
L 114.673439 43.273838 
L 117.105298 38.002189 
L 119.537156 32.730515 
L 121.969015 27.458892 
L 124.400874 24.823055 
L 126.832732 24.823055 
" clip-path="url(#p70e88dc408)" style="fill: none; stroke: #c70303; stroke-opacity: 0.324324; stroke-width: 2; stroke-linecap: square"/>
   </g>
   <g id="line2d_34">
    <path d="M 126.832732 24.823055 
L 129.264591 24.823055 
L 131.696449 27.458892 
L 134.128308 32.730515 
L 136.560166 40.638026 
L 138.992025 51.181324 
L 141.423883 59.088809 
L 143.855742 66.996295 
L 146.2876 77.539592 
L 148.719459 85.447078 
L 151.151318 93.354564 
L 153.583176 103.897861 
L 156.015035 109.16951 
L 158.446893 114.441159 
L 160.878752 122.348644 
L 163.31061 130.25613 
L 165.742469 138.163616 
L 168.174327 143.435265 
L 170.606186 148.706913 
" clip-path="url(#p70e88dc408)" style="fill: none; stroke: #2979ea; stroke-opacity: 0.324324; stroke-width: 2; stroke-linecap: square"/>
   </g>
   <g id="line2d_35">
    <path d="M 70.899985 156.614399 
L 73.331844 156.614399 
L 75.763702 156.614399 
L 78.195561 153.924795 
L 80.62742 148.545537 
L 83.059278 143.166304 
L 85.491137 135.097442 
L 87.922995 129.718209 
L 90.354854 124.338977 
L 92.786712 116.270115 
L 95.218571 108.201253 
L 97.650429 102.82202 
L 100.082288 94.753158 
L 102.514147 86.684322 
L 104.946005 81.305063 
L 107.377864 75.92583 
L 109.809722 67.856968 
L 112.241581 62.477736 
L 114.673439 51.71927 
L 117.105298 43.650408 
L 119.537156 40.960779 
L 121.969015 32.891942 
L 124.400874 27.512684 
L 126.832732 24.823055 
" clip-path="url(#p70e88dc408)" style="fill: none; stroke: #c70303; stroke-opacity: 0.351351; stroke-width: 2; stroke-linecap: square"/>
   </g>
   <g id="line2d_36">
    <path d="M 126.832732 24.823055 
L 129.264591 24.823055 
L 131.696449 30.202313 
L 134.128308 35.581572 
L 136.560166 43.650408 
L 138.992025 51.71927 
L 141.423883 62.477736 
L 143.855742 70.546598 
L 146.2876 81.305063 
L 148.719459 89.373925 
L 151.151318 100.132416 
L 153.583176 108.201253 
L 156.015035 116.270115 
L 158.446893 124.338977 
L 160.878752 132.407839 
L 163.31061 137.787071 
L 165.742469 143.166304 
L 168.174327 151.235166 
L 170.606186 156.614399 
L 173.038045 159.304028 
" clip-path="url(#p70e88dc408)" style="fill: none; stroke: #2979ea; stroke-opacity: 0.351351; stroke-width: 2; stroke-linecap: square"/>
   </g>
   <g id="line2d_37">
    <path d="M 73.331844 156.614399 
L 75.763702 156.614399 
L 78.195561 156.614399 
L 80.62742 151.235166 
L 83.059278 145.855908 
L 85.491137 135.097442 
L 87.922995 127.02858 
L 90.354854 124.338977 
L 92.786712 116.270115 
L 95.218571 108.201253 
L 97.650429 100.132391 
L 100.082288 92.063529 
L 102.514147 86.684296 
L 104.946005 78.615434 
L 107.377864 73.236201 
L 109.809722 65.167339 
L 112.241581 54.408874 
L 114.673439 49.029641 
L 117.105298 40.960779 
L 119.537156 35.58152 
L 121.969015 27.512684 
L 124.400874 24.823055 
L 126.832732 24.823055 
" clip-path="url(#p70e88dc408)" style="fill: none; stroke: #c70303; stroke-opacity: 0.378378; stroke-width: 2; stroke-linecap: square"/>
   </g>
   <g id="line2d_38">
    <path d="M 126.832732 24.823055 
L 129.264591 24.823055 
L 131.696449 24.823055 
L 134.128308 30.202313 
L 136.560166 38.27115 
L 138.992025 46.340012 
L 141.423883 54.408874 
L 143.855742 62.477736 
L 146.2876 73.236201 
L 148.719459 83.994692 
L 151.151318 92.063529 
L 153.583176 100.132391 
L 156.015035 108.201253 
L 158.446893 116.270115 
L 160.878752 124.338977 
L 163.31061 132.407813 
L 165.742469 140.476675 
L 168.174327 148.545537 
L 170.606186 151.235166 
L 173.038045 153.92477 
" clip-path="url(#p70e88dc408)" style="fill: none; stroke: #2979ea; stroke-opacity: 0.378378; stroke-width: 2; stroke-linecap: square"/>
   </g>
   <g id="line2d_39">
    <path d="M 70.899985 156.614399 
L 73.331844 154.07994 
L 75.763702 151.545506 
L 78.195561 146.476588 
L 80.62742 141.407695 
L 83.059278 133.804343 
L 85.491137 128.73545 
L 87.922995 123.666557 
L 90.354854 116.063205 
L 92.786712 108.459853 
L 95.218571 103.39096 
L 97.650429 93.253174 
L 100.082288 85.649822 
L 102.514147 80.580928 
L 104.946005 72.977577 
L 107.377864 65.374225 
L 109.809722 57.770873 
L 112.241581 52.70198 
L 114.673439 45.098628 
L 117.105298 40.029759 
L 119.537156 32.426383 
L 121.969015 27.357513 
L 124.400874 27.357513 
L 126.832732 24.823055 
" clip-path="url(#p70e88dc408)" style="fill: none; stroke: #c70303; stroke-opacity: 0.405405; stroke-width: 2; stroke-linecap: square"/>
   </g>
   <g id="line2d_40">
    <path d="M 126.832732 24.823055 
L 129.264591 29.891924 
L 131.696449 37.4953 
L 134.128308 42.564169 
L 136.560166 47.633086 
L 138.992025 57.770873 
L 141.423883 65.374225 
L 143.855742 75.512035 
L 146.2876 83.115363 
L 148.719459 93.253174 
L 151.151318 100.856525 
L 153.583176 108.459853 
L 156.015035 113.528771 
L 158.446893 123.666557 
L 160.878752 128.73545 
L 163.31061 136.338802 
L 165.742469 143.942154 
L 168.174327 151.545506 
L 170.606186 154.07994 
" clip-path="url(#p70e88dc408)" style="fill: none; stroke: #2979ea; stroke-opacity: 0.405405; stroke-width: 2; stroke-linecap: square"/>
   </g>
   <g id="line2d_41">
    <path d="M 70.899985 156.614399 
L 73.331844 156.614399 
L 75.763702 154.030245 
L 78.195561 148.861961 
L 80.62742 143.693678 
L 83.059278 135.94124 
L 85.491137 128.188802 
L 87.922995 123.020518 
L 90.354854 115.26808 
L 92.786712 107.515643 
L 95.218571 102.347359 
L 97.650429 94.594921 
L 100.082288 86.842508 
L 102.514147 81.6742 
L 104.946005 73.921787 
L 107.377864 66.169349 
L 109.809722 58.416911 
L 112.241581 53.248627 
L 114.673439 45.496189 
L 117.105298 37.743776 
L 119.537156 32.575468 
L 121.969015 27.40716 
L 124.400874 24.823055 
L 126.832732 24.823055 
" clip-path="url(#p70e88dc408)" style="fill: none; stroke: #c70303; stroke-opacity: 0.432432; stroke-width: 2; stroke-linecap: square"/>
   </g>
   <g id="line2d_42">
    <path d="M 126.832732 24.823055 
L 129.264591 24.823055 
L 131.696449 29.991314 
L 134.128308 35.159622 
L 136.560166 42.912035 
L 138.992025 53.248627 
L 141.423883 63.585195 
L 143.855742 71.337632 
L 146.2876 79.09007 
L 148.719459 89.426638 
L 151.151318 99.763229 
L 153.583176 107.515643 
L 156.015035 112.683951 
L 158.446893 117.852235 
L 160.878752 128.188802 
L 163.31061 133.357086 
L 165.742469 141.109523 
L 168.174327 146.277807 
L 170.606186 148.861961 
L 173.038045 151.446115 
" clip-path="url(#p70e88dc408)" style="fill: none; stroke: #2979ea; stroke-opacity: 0.432432; stroke-width: 2; stroke-linecap: square"/>
   </g>
   <g id="line2d_43">
    <path d="M 75.763702 156.614399 
L 78.195561 156.614399 
L 80.62742 150.884319 
L 83.059278 142.289254 
L 85.491137 133.694162 
L 87.922995 127.964109 
L 90.354854 119.369017 
L 92.786712 113.638964 
L 95.218571 105.043872 
L 97.650429 96.448779 
L 100.082288 87.853687 
L 102.514147 79.258595 
L 104.946005 73.528542 
L 107.377864 64.93345 
L 109.809722 56.338385 
L 112.241581 50.608305 
L 114.673439 42.01324 
L 117.105298 33.41812 
L 119.537156 30.553135 
L 121.969015 27.688095 
L 124.400874 24.823055 
L 126.832732 24.823055 
" clip-path="url(#p70e88dc408)" style="fill: none; stroke: #c70303; stroke-opacity: 0.459459; stroke-width: 2; stroke-linecap: square"/>
   </g>
   <g id="line2d_44">
    <path d="M 126.832732 24.823055 
L 129.264591 24.823055 
L 131.696449 27.688095 
L 134.128308 36.28316 
L 136.560166 44.878252 
L 138.992025 53.473345 
L 141.423883 62.068437 
L 143.855742 70.663529 
L 146.2876 82.123634 
L 148.719459 90.718727 
L 151.151318 99.313819 
L 153.583176 107.908884 
L 156.015035 116.503977 
L 158.446893 125.099069 
L 160.878752 130.829122 
L 163.31061 139.424214 
L 165.742469 145.154267 
L 168.174327 153.749359 
L 170.606186 159.479412 
L 173.038045 159.479412 
" clip-path="url(#p70e88dc408)" style="fill: none; stroke: #2979ea; stroke-opacity: 0.459459; stroke-width: 2; stroke-linecap: square"/>
   </g>
   <g id="line2d_45">
    <path d="M 68.468127 156.614399 
L 70.899985 154.030245 
L 73.331844 151.446115 
L 75.763702 148.861961 
L 78.195561 143.693678 
L 80.62742 135.94124 
L 83.059278 130.772956 
L 85.491137 123.020518 
L 87.922995 115.26808 
L 90.354854 110.099797 
L 92.786712 104.931513 
L 95.218571 97.179075 
L 97.650429 89.426638 
L 100.082288 84.258354 
L 102.514147 73.921787 
L 104.946005 68.753478 
L 107.377864 63.585195 
L 109.809722 55.832757 
L 112.241581 50.664473 
L 114.673439 40.327881 
L 117.105298 35.159622 
L 119.537156 29.991314 
L 121.969015 27.40716 
L 124.400874 27.40716 
L 126.832732 24.823055 
" clip-path="url(#p70e88dc408)" style="fill: none; stroke: #c70303; stroke-opacity: 0.486486; stroke-width: 2; stroke-linecap: square"/>
   </g>
   <g id="line2d_46">
    <path d="M 126.832732 24.823055 
L 129.264591 32.575468 
L 131.696449 37.743776 
L 134.128308 42.912035 
L 136.560166 53.248627 
L 138.992025 58.416911 
L 141.423883 68.753478 
L 143.855742 76.505916 
L 146.2876 86.842508 
L 148.719459 97.179075 
L 151.151318 104.931513 
L 153.583176 115.26808 
L 156.015035 120.436364 
L 158.446893 125.604672 
L 160.878752 130.772956 
L 163.31061 141.109523 
L 165.742469 148.861961 
L 168.174327 154.030245 
L 170.606186 154.030245 
" clip-path="url(#p70e88dc408)" style="fill: none; stroke: #2979ea; stroke-opacity: 0.486486; stroke-width: 2; stroke-linecap: square"/>
   </g>
   <g id="line2d_47">
    <path d="M 73.331844 156.614399 
L 75.763702 156.614399 
L 78.195561 154.07994 
L 80.62742 149.011047 
L 83.059278 141.407695 
L 85.491137 133.804343 
L 87.922995 128.73545 
L 90.354854 123.666557 
L 92.786712 113.528771 
L 95.218571 108.459853 
L 97.650429 100.856525 
L 100.082288 90.718715 
L 102.514147 85.649822 
L 104.946005 80.580928 
L 107.377864 70.443118 
L 109.809722 62.83979 
L 112.241581 57.770873 
L 114.673439 50.167545 
L 117.105298 42.564169 
L 119.537156 37.4953 
L 121.969015 29.891924 
L 124.400874 27.357513 
L 126.832732 24.823055 
" clip-path="url(#p70e88dc408)" style="fill: none; stroke: #c70303; stroke-opacity: 0.513514; stroke-width: 2; stroke-linecap: square"/>
   </g>
   <g id="line2d_48">
    <path d="M 126.832732 24.823055 
L 129.264591 24.823055 
L 131.696449 29.891924 
L 134.128308 32.426383 
L 136.560166 42.564169 
L 138.992025 52.70198 
L 141.423883 62.83979 
L 143.855742 72.977577 
L 146.2876 83.115363 
L 148.719459 90.718715 
L 151.151318 98.322067 
L 153.583176 105.925419 
L 156.015035 110.994312 
L 158.446893 118.597664 
L 160.878752 126.201016 
L 163.31061 128.73545 
L 165.742469 136.338802 
L 168.174327 143.942154 
L 170.606186 149.011047 
L 173.038045 151.545506 
" clip-path="url(#p70e88dc408)" style="fill: none; stroke: #2979ea; stroke-opacity: 0.513514; stroke-width: 2; stroke-linecap: square"/>
   </g>
   <g id="line2d_49">
    <path d="M 73.331844 156.614399 
L 75.763702 156.614399 
L 78.195561 151.545506 
L 80.62742 146.476613 
L 83.059278 141.407719 
L 85.491137 133.804368 
L 87.922995 123.666557 
L 90.354854 116.063229 
L 92.786712 110.994312 
L 95.218571 103.390984 
L 97.650429 95.787632 
L 100.082288 90.718739 
L 102.514147 83.115387 
L 104.946005 72.977577 
L 107.377864 67.908683 
L 109.809722 62.83979 
L 112.241581 55.236438 
L 114.673439 47.633086 
L 117.105298 42.564217 
L 119.537156 32.426383 
L 121.969015 29.891972 
L 124.400874 27.357513 
L 126.832732 24.823055 
" clip-path="url(#p70e88dc408)" style="fill: none; stroke: #c70303; stroke-opacity: 0.540541; stroke-width: 2; stroke-linecap: square"/>
   </g>
   <g id="line2d_50">
    <path d="M 126.832732 24.823055 
L 129.264591 27.357513 
L 131.696449 32.426383 
L 134.128308 40.029759 
L 136.560166 47.633086 
L 138.992025 57.770897 
L 141.423883 67.908683 
L 143.855742 75.512035 
L 146.2876 83.115387 
L 148.719459 93.253174 
L 151.151318 103.390984 
L 153.583176 108.459877 
L 156.015035 116.063229 
L 158.446893 126.201016 
L 160.878752 131.269909 
L 163.31061 138.873261 
L 165.742469 146.476613 
L 168.174327 151.545506 
L 170.606186 151.545506 
" clip-path="url(#p70e88dc408)" style="fill: none; stroke: #2979ea; stroke-opacity: 0.540541; stroke-width: 2; stroke-linecap: square"/>
   </g>
   <g id="line2d_51">
    <path d="M 70.899985 156.614399 
L 73.331844 156.614399 
L 75.763702 154.030245 
L 78.195561 148.861963 
L 80.62742 143.69368 
L 83.059278 135.941244 
L 85.491137 130.772961 
L 87.922995 123.020525 
L 90.354854 115.268088 
L 92.786712 107.515652 
L 95.218571 104.931523 
L 97.650429 94.594933 
L 100.082288 89.42665 
L 102.514147 84.258367 
L 104.946005 76.505931 
L 107.377864 68.753495 
L 109.809722 58.416929 
L 112.241581 53.248647 
L 114.673439 45.496186 
L 117.105298 37.743774 
L 119.537156 32.575466 
L 121.969015 27.407208 
L 124.400874 27.407208 
L 126.832732 24.823055 
" clip-path="url(#p70e88dc408)" style="fill: none; stroke: #c70303; stroke-opacity: 0.567568; stroke-width: 2; stroke-linecap: square"/>
   </g>
   <g id="line2d_52">
    <path d="M 126.832732 24.823055 
L 129.264591 27.407208 
L 131.696449 37.743774 
L 134.128308 45.496186 
L 136.560166 53.248647 
L 138.992025 63.585212 
L 141.423883 68.753495 
L 143.855742 79.090085 
L 146.2876 86.842496 
L 148.719459 94.594933 
L 151.151318 104.931523 
L 153.583176 112.683935 
L 156.015035 117.852242 
L 158.446893 125.604654 
L 160.878752 133.35709 
L 163.31061 138.525373 
L 165.742469 146.277809 
L 168.174327 151.446092 
L 170.606186 156.614399 
" clip-path="url(#p70e88dc408)" style="fill: none; stroke: #2979ea; stroke-opacity: 0.567568; stroke-width: 2; stroke-linecap: square"/>
   </g>
   <g id="line2d_53">
    <path d="M 70.899985 156.614399 
L 73.331844 156.614399 
L 75.763702 151.545506 
L 78.195561 146.476613 
L 80.62742 141.407719 
L 83.059278 131.269909 
L 85.491137 123.666557 
L 87.922995 118.597664 
L 90.354854 113.528771 
L 92.786712 105.925419 
L 95.218571 100.856525 
L 97.650429 93.253174 
L 100.082288 85.649822 
L 102.514147 80.580928 
L 104.946005 75.512035 
L 107.377864 65.374249 
L 109.809722 60.305331 
L 112.241581 52.702004 
L 114.673439 45.098628 
L 117.105298 37.4953 
L 119.537156 32.426383 
L 121.969015 27.357513 
L 124.400874 27.357513 
L 126.832732 24.823055 
" clip-path="url(#p70e88dc408)" style="fill: none; stroke: #c70303; stroke-opacity: 0.594595; stroke-width: 2; stroke-linecap: square"/>
   </g>
   <g id="line2d_54">
    <path d="M 126.832732 24.823055 
L 129.264591 29.891972 
L 131.696449 34.960841 
L 134.128308 42.564217 
L 136.560166 50.167545 
L 138.992025 60.305331 
L 141.423883 70.443142 
L 143.855742 78.046494 
L 146.2876 83.115387 
L 148.719459 93.253174 
L 151.151318 103.390984 
L 153.583176 110.994312 
L 156.015035 118.597664 
L 158.446893 126.201016 
L 160.878752 131.269909 
L 163.31061 138.873261 
L 165.742469 146.476613 
L 168.174327 149.011047 
L 170.606186 151.545506 
" clip-path="url(#p70e88dc408)" style="fill: none; stroke: #2979ea; stroke-opacity: 0.594595; stroke-width: 2; stroke-linecap: square"/>
   </g>
   <g id="line2d_55">
    <path d="M 75.763702 156.614399 
L 78.195561 154.079941 
L 80.62742 149.011049 
L 83.059278 141.407698 
L 85.491137 138.87324 
L 87.922995 128.735455 
L 90.354854 121.132105 
L 92.786712 116.063212 
L 95.218571 110.99432 
L 97.650429 100.856511 
L 100.082288 93.253185 
L 102.514147 88.184269 
L 104.946005 83.115376 
L 107.377864 75.512026 
L 109.809722 67.9087 
L 112.241581 60.305349 
L 114.673439 52.701999 
L 117.105298 47.633082 
L 119.537156 40.029756 
L 121.969015 32.426429 
L 124.400874 27.357513 
L 126.832732 24.823055 
" clip-path="url(#p70e88dc408)" style="fill: none; stroke: #c70303; stroke-opacity: 0.621622; stroke-width: 2; stroke-linecap: square"/>
   </g>
   <g id="line2d_56">
    <path d="M 126.832732 24.823055 
L 129.264591 24.823055 
L 131.696449 27.357513 
L 134.128308 32.426429 
L 136.560166 40.029756 
L 138.992025 47.633082 
L 141.423883 57.770891 
L 143.855742 67.9087 
L 146.2876 78.046484 
L 148.719459 85.649835 
L 151.151318 93.253185 
L 153.583176 103.39097 
L 156.015035 110.99432 
L 158.446893 118.597671 
L 160.878752 126.200997 
L 163.31061 131.269913 
L 165.742469 138.87324 
L 168.174327 146.47659 
L 170.606186 151.545483 
L 173.038045 151.545483 
" clip-path="url(#p70e88dc408)" style="fill: none; stroke: #2979ea; stroke-opacity: 0.621622; stroke-width: 2; stroke-linecap: square"/>
   </g>
   <g id="line2d_57">
    <path d="M 70.899985 156.614399 
L 73.331844 156.614399 
L 75.763702 153.978562 
L 78.195561 151.34275 
L 80.62742 146.071102 
L 83.059278 135.527779 
L 85.491137 127.620293 
L 87.922995 122.348644 
L 90.354854 114.441159 
L 92.786712 106.533698 
L 95.218571 101.262024 
L 97.650429 93.354564 
L 100.082288 85.447078 
L 102.514147 80.175429 
L 104.946005 72.267944 
L 107.377864 64.360458 
L 109.809722 59.088809 
L 112.241581 51.181324 
L 114.673439 43.273863 
L 117.105298 38.002189 
L 119.537156 32.730515 
L 121.969015 27.458892 
L 124.400874 27.458892 
L 126.832732 24.823055 
" clip-path="url(#p70e88dc408)" style="fill: none; stroke: #c70303; stroke-opacity: 0.648649; stroke-width: 2; stroke-linecap: square"/>
   </g>
   <g id="line2d_58">
    <path d="M 126.832732 24.823055 
L 129.264591 30.094729 
L 131.696449 38.002189 
L 134.128308 48.545487 
L 136.560166 53.817161 
L 138.992025 64.360458 
L 141.423883 72.267944 
L 143.855742 82.811241 
L 146.2876 90.718727 
L 148.719459 101.262024 
L 151.151318 109.16951 
L 153.583176 117.076996 
L 156.015035 124.984481 
L 158.446893 132.891967 
L 160.878752 140.799428 
L 163.31061 148.706913 
L 165.742469 151.34275 
L 168.174327 153.978562 
" clip-path="url(#p70e88dc408)" style="fill: none; stroke: #2979ea; stroke-opacity: 0.648649; stroke-width: 2; stroke-linecap: square"/>
   </g>
   <g id="line2d_59">
    <path d="M 70.899985 156.614399 
L 73.331844 156.614399 
L 75.763702 153.978587 
L 78.195561 151.34275 
L 80.62742 146.071102 
L 83.059278 138.163616 
L 85.491137 135.527804 
L 87.922995 127.620318 
L 90.354854 119.712833 
L 92.786712 111.805347 
L 95.218571 106.533698 
L 97.650429 95.990401 
L 100.082288 88.082915 
L 102.514147 82.811266 
L 104.946005 74.903781 
L 107.377864 66.996295 
L 109.809722 61.724646 
L 112.241581 51.181324 
L 114.673439 43.273863 
L 117.105298 38.002189 
L 119.537156 32.730566 
L 121.969015 27.458892 
L 124.400874 27.458892 
L 126.832732 24.823055 
" clip-path="url(#p70e88dc408)" style="fill: none; stroke: #c70303; stroke-opacity: 0.675676; stroke-width: 2; stroke-linecap: square"/>
   </g>
   <g id="line2d_60">
    <path d="M 126.832732 24.823055 
L 129.264591 30.094729 
L 131.696449 38.002189 
L 134.128308 45.9097 
L 136.560166 53.817161 
L 138.992025 64.360458 
L 141.423883 74.903781 
L 143.855742 82.811266 
L 146.2876 90.718727 
L 148.719459 101.26205 
L 151.151318 109.169535 
L 153.583176 117.076996 
L 156.015035 122.34867 
L 158.446893 132.891967 
L 160.878752 138.163616 
L 163.31061 146.071102 
L 165.742469 153.978587 
L 168.174327 156.614399 
L 170.606186 159.250236 
" clip-path="url(#p70e88dc408)" style="fill: none; stroke: #2979ea; stroke-opacity: 0.675676; stroke-width: 2; stroke-linecap: square"/>
   </g>
   <g id="line2d_61">
    <path d="M 75.763702 156.614399 
L 78.195561 156.614399 
L 80.62742 151.446092 
L 83.059278 146.277809 
L 85.491137 138.525373 
L 87.922995 130.772961 
L 90.354854 125.604654 
L 92.786712 117.852242 
L 95.218571 112.683935 
L 97.650429 102.347369 
L 100.082288 97.179086 
L 102.514147 92.010804 
L 104.946005 81.674214 
L 107.377864 73.921777 
L 109.809722 68.753495 
L 112.241581 61.001058 
L 114.673439 53.248647 
L 117.105298 48.080339 
L 119.537156 37.743774 
L 121.969015 29.991362 
L 124.400874 27.407208 
L 126.832732 24.823055 
" clip-path="url(#p70e88dc408)" style="fill: none; stroke: #c70303; stroke-opacity: 0.702703; stroke-width: 2; stroke-linecap: square"/>
   </g>
   <g id="line2d_62">
    <path d="M 126.832732 24.823055 
L 129.264591 24.823055 
L 131.696449 27.407208 
L 134.128308 35.15962 
L 136.560166 45.496186 
L 138.992025 53.248647 
L 141.423883 63.585212 
L 143.855742 76.505931 
L 146.2876 81.674214 
L 148.719459 92.010804 
L 151.151318 102.347369 
L 153.583176 112.683935 
L 156.015035 117.852242 
L 158.446893 123.020525 
L 160.878752 128.188807 
L 163.31061 135.941244 
L 165.742469 143.69368 
L 168.174327 148.861963 
L 170.606186 151.446092 
" clip-path="url(#p70e88dc408)" style="fill: none; stroke: #2979ea; stroke-opacity: 0.702703; stroke-width: 2; stroke-linecap: square"/>
   </g>
   <g id="line2d_63">
    <path d="M 70.899985 156.614399 
L 73.331844 156.614399 
L 75.763702 154.030245 
L 78.195561 151.446116 
L 80.62742 148.861963 
L 83.059278 141.109526 
L 85.491137 133.357115 
L 87.922995 128.188807 
L 90.354854 120.436396 
L 92.786712 112.683959 
L 95.218571 104.931523 
L 97.650429 99.76324 
L 100.082288 92.010804 
L 102.514147 84.258367 
L 104.946005 79.090085 
L 107.377864 71.337648 
L 109.809722 66.169366 
L 112.241581 58.416929 
L 114.673439 50.664493 
L 117.105298 45.496235 
L 119.537156 40.327928 
L 121.969015 32.575516 
L 124.400874 27.407208 
L 126.832732 24.823055 
" clip-path="url(#p70e88dc408)" style="fill: none; stroke: #c70303; stroke-opacity: 0.72973; stroke-width: 2; stroke-linecap: square"/>
   </g>
   <g id="line2d_64">
    <path d="M 126.832732 24.823055 
L 129.264591 24.823055 
L 131.696449 27.407208 
L 134.128308 35.15962 
L 136.560166 42.912081 
L 138.992025 50.664493 
L 141.423883 61.001083 
L 143.855742 68.753519 
L 146.2876 76.505931 
L 148.719459 89.42665 
L 151.151318 97.179086 
L 153.583176 104.931523 
L 156.015035 112.683959 
L 158.446893 123.020525 
L 160.878752 130.772961 
L 163.31061 133.357115 
L 165.742469 138.525397 
L 168.174327 143.69368 
L 170.606186 151.446116 
L 173.038045 156.614399 
" clip-path="url(#p70e88dc408)" style="fill: none; stroke: #2979ea; stroke-opacity: 0.72973; stroke-width: 2; stroke-linecap: square"/>
   </g>
   <g id="line2d_65">
    <path d="M 68.468127 156.614399 
L 70.899985 156.614399 
L 73.331844 153.978562 
L 75.763702 151.342725 
L 78.195561 148.706913 
L 80.62742 140.799428 
L 83.059278 135.527779 
L 85.491137 130.25613 
L 87.922995 124.984456 
L 90.354854 117.076996 
L 92.786712 111.805322 
L 95.218571 103.897861 
L 97.650429 93.354539 
L 100.082288 90.718727 
L 102.514147 80.175404 
L 104.946005 72.267919 
L 107.377864 66.99627 
L 109.809722 59.088784 
L 112.241581 53.817135 
L 114.673439 48.545487 
L 117.105298 38.002189 
L 119.537156 35.366352 
L 121.969015 30.094678 
L 124.400874 27.458892 
L 126.832732 24.823055 
" clip-path="url(#p70e88dc408)" style="fill: none; stroke: #c70303; stroke-opacity: 0.756757; stroke-width: 2; stroke-linecap: square"/>
   </g>
   <g id="line2d_66">
    <path d="M 126.832732 24.823055 
L 129.264591 24.823055 
L 131.696449 30.094678 
L 134.128308 38.002189 
L 136.560166 43.273813 
L 138.992025 53.817135 
L 141.423883 64.360458 
L 143.855742 74.903756 
L 146.2876 82.811241 
L 148.719459 90.718727 
L 151.151318 101.262024 
L 153.583176 109.16951 
L 156.015035 114.441159 
L 158.446893 122.348644 
L 160.878752 130.25613 
L 163.31061 135.527779 
L 165.742469 146.071076 
L 168.174327 148.706913 
L 170.606186 151.342725 
" clip-path="url(#p70e88dc408)" style="fill: none; stroke: #2979ea; stroke-opacity: 0.756757; stroke-width: 2; stroke-linecap: square"/>
   </g>
   <g id="line2d_67">
    <path d="M 75.763702 156.614399 
L 78.195561 156.614399 
L 80.62742 151.545507 
L 83.059278 146.476614 
L 85.491137 141.407698 
L 87.922995 133.804372 
L 90.354854 126.201021 
L 92.786712 118.597671 
L 95.218571 110.99432 
L 97.650429 103.39097 
L 100.082288 93.253185 
L 102.514147 88.184293 
L 104.946005 83.115401 
L 107.377864 72.977592 
L 109.809722 65.374241 
L 112.241581 60.305349 
L 114.673439 52.701999 
L 117.105298 42.564214 
L 119.537156 40.029756 
L 121.969015 29.891971 
L 124.400874 27.357513 
L 126.832732 24.823055 
" clip-path="url(#p70e88dc408)" style="fill: none; stroke: #c70303; stroke-opacity: 0.783784; stroke-width: 2; stroke-linecap: square"/>
   </g>
   <g id="line2d_68">
    <path d="M 126.832732 24.823055 
L 129.264591 24.823055 
L 131.696449 27.357513 
L 134.128308 34.960888 
L 136.560166 42.564214 
L 138.992025 50.16754 
L 141.423883 57.770915 
L 143.855742 67.9087 
L 146.2876 75.51205 
L 148.719459 85.649835 
L 151.151318 93.253185 
L 153.583176 100.856536 
L 156.015035 108.459886 
L 158.446893 113.528778 
L 160.878752 118.597671 
L 163.31061 126.201021 
L 165.742469 133.804372 
L 168.174327 138.873264 
L 170.606186 149.011049 
L 173.038045 154.079941 
L 175.469903 156.614399 
" clip-path="url(#p70e88dc408)" style="fill: none; stroke: #2979ea; stroke-opacity: 0.783784; stroke-width: 2; stroke-linecap: square"/>
   </g>
   <g id="line2d_69">
    <path d="M 68.468127 156.614399 
L 70.899985 156.614399 
L 73.331844 154.127761 
L 75.763702 146.66787 
L 78.195561 139.20798 
L 80.62742 134.234727 
L 83.059278 129.261475 
L 85.491137 121.801584 
L 87.922995 116.828332 
L 90.354854 109.368441 
L 92.786712 101.908551 
L 95.218571 96.935298 
L 97.650429 91.962046 
L 100.082288 82.015541 
L 102.514147 77.042265 
L 104.946005 69.582398 
L 107.377864 62.122507 
L 109.809722 57.149255 
L 112.241581 49.689341 
L 114.673439 42.229474 
L 117.105298 37.256198 
L 119.537156 29.796331 
L 121.969015 27.309693 
L 124.400874 27.309693 
L 126.832732 24.823055 
" clip-path="url(#p70e88dc408)" style="fill: none; stroke: #c70303; stroke-opacity: 0.810811; stroke-width: 2; stroke-linecap: square"/>
   </g>
   <g id="line2d_70">
    <path d="M 126.832732 24.823055 
L 129.264591 29.796331 
L 131.696449 37.256198 
L 134.128308 42.229474 
L 136.560166 52.175979 
L 138.992025 62.122507 
L 141.423883 72.069012 
L 143.855742 82.015541 
L 146.2876 91.962046 
L 148.719459 99.421936 
L 151.151318 104.395189 
L 153.583176 111.855079 
L 156.015035 119.31497 
L 158.446893 126.774837 
L 160.878752 131.748113 
L 163.31061 139.20798 
L 165.742469 146.66787 
L 168.174327 149.154508 
L 170.606186 151.641123 
" clip-path="url(#p70e88dc408)" style="fill: none; stroke: #2979ea; stroke-opacity: 0.810811; stroke-width: 2; stroke-linecap: square"/>
   </g>
   <g id="line2d_71">
    <path d="M 70.899985 156.614399 
L 73.331844 156.614399 
L 75.763702 151.446116 
L 78.195561 148.861987 
L 80.62742 143.69368 
L 83.059278 141.109551 
L 85.491137 133.357115 
L 87.922995 128.188832 
L 90.354854 117.852242 
L 92.786712 112.683959 
L 95.218571 104.931523 
L 97.650429 97.179111 
L 100.082288 92.010804 
L 102.514147 84.258392 
L 104.946005 73.921802 
L 107.377864 68.753519 
L 109.809722 63.585237 
L 112.241581 53.248647 
L 114.673439 48.080389 
L 117.105298 40.327928 
L 119.537156 32.575516 
L 121.969015 27.407208 
L 124.400874 24.823055 
L 126.832732 24.823055 
" clip-path="url(#p70e88dc408)" style="fill: none; stroke: #c70303; stroke-opacity: 0.837838; stroke-width: 2; stroke-linecap: square"/>
   </g>
   <g id="line2d_72">
    <path d="M 126.832732 24.823055 
L 129.264591 24.823055 
L 131.696449 27.407208 
L 134.128308 35.159669 
L 136.560166 42.912081 
L 138.992025 53.248647 
L 141.423883 61.001083 
L 143.855742 68.753519 
L 146.2876 79.090085 
L 148.719459 86.842521 
L 151.151318 97.179111 
L 153.583176 102.347394 
L 156.015035 112.683959 
L 158.446893 120.436396 
L 160.878752 125.604678 
L 163.31061 130.772961 
L 165.742469 135.941268 
L 168.174327 146.277834 
L 170.606186 151.446116 
L 173.038045 154.03027 
" clip-path="url(#p70e88dc408)" style="fill: none; stroke: #2979ea; stroke-opacity: 0.837838; stroke-width: 2; stroke-linecap: square"/>
   </g>
   <g id="line2d_73">
    <path d="M 70.899985 156.614399 
L 73.331844 156.614399 
L 75.763702 156.614399 
L 78.195561 151.342751 
L 80.62742 143.435267 
L 83.059278 140.799431 
L 85.491137 132.891947 
L 87.922995 124.984487 
L 90.354854 119.712815 
L 92.786712 111.805356 
L 95.218571 103.897871 
L 97.650429 98.626224 
L 100.082288 93.354551 
L 102.514147 85.447092 
L 104.946005 80.175419 
L 107.377864 74.903771 
L 109.809722 66.996287 
L 112.241581 59.088828 
L 114.673439 51.181319 
L 117.105298 43.27386 
L 119.537156 38.002187 
L 121.969015 30.094728 
L 124.400874 27.458891 
L 126.832732 24.823055 
" clip-path="url(#p70e88dc408)" style="fill: none; stroke: #c70303; stroke-opacity: 0.864865; stroke-width: 2; stroke-linecap: square"/>
   </g>
   <g id="line2d_74">
    <path d="M 126.832732 24.823055 
L 129.264591 24.823055 
L 131.696449 27.458891 
L 134.128308 30.094728 
L 136.560166 38.002187 
L 138.992025 48.545532 
L 141.423883 59.088828 
L 143.855742 66.996287 
L 146.2876 77.539608 
L 148.719459 85.447092 
L 151.151318 95.990387 
L 153.583176 103.897871 
L 156.015035 111.805356 
L 158.446893 119.712815 
L 160.878752 124.984487 
L 163.31061 132.891947 
L 165.742469 138.163619 
L 168.174327 146.071078 
L 170.606186 153.978563 
L 173.038045 156.614399 
L 175.469903 159.25021 
L 177.901762 159.25021 
" clip-path="url(#p70e88dc408)" style="fill: none; stroke: #2979ea; stroke-opacity: 0.864865; stroke-width: 2; stroke-linecap: square"/>
   </g>
   <g id="line2d_75">
    <path d="M 75.763702 156.614399 
L 78.195561 151.545507 
L 80.62742 146.476614 
L 83.059278 138.873264 
L 85.491137 131.269913 
L 87.922995 126.201021 
L 90.354854 121.132129 
L 92.786712 110.99432 
L 95.218571 105.925428 
L 97.650429 98.322077 
L 100.082288 90.718727 
L 102.514147 83.115401 
L 104.946005 78.046484 
L 107.377864 67.9087 
L 109.809722 62.839807 
L 112.241581 57.770915 
L 114.673439 47.63313 
L 117.105298 42.564214 
L 119.537156 37.495298 
L 121.969015 29.891971 
L 124.400874 27.357513 
L 126.832732 24.823055 
" clip-path="url(#p70e88dc408)" style="fill: none; stroke: #c70303; stroke-opacity: 0.891892; stroke-width: 2; stroke-linecap: square"/>
   </g>
   <g id="line2d_76">
    <path d="M 126.832732 24.823055 
L 129.264591 24.823055 
L 131.696449 29.891971 
L 134.128308 37.495298 
L 136.560166 42.564214 
L 138.992025 50.16754 
L 141.423883 60.305349 
L 143.855742 70.443158 
L 146.2876 78.046484 
L 148.719459 85.649835 
L 151.151318 93.253185 
L 153.583176 100.856536 
L 156.015035 108.459886 
L 158.446893 113.528778 
L 160.878752 118.597671 
L 163.31061 126.201021 
L 165.742469 133.804372 
L 168.174327 138.873264 
L 170.606186 141.407698 
" clip-path="url(#p70e88dc408)" style="fill: none; stroke: #2979ea; stroke-opacity: 0.891892; stroke-width: 2; stroke-linecap: square"/>
   </g>
   <g id="line2d_77">
    <path d="M 78.195561 156.614399 
L 80.62742 156.614399 
L 83.059278 153.749386 
L 85.491137 142.289254 
L 87.922995 139.424242 
L 90.354854 130.829149 
L 92.786712 122.234057 
L 95.218571 116.504004 
L 97.650429 107.908912 
L 100.082288 99.313819 
L 102.514147 96.448807 
L 104.946005 87.853714 
L 107.377864 79.258622 
L 109.809722 73.528569 
L 112.241581 64.933477 
L 114.673439 56.338385 
L 117.105298 44.87828 
L 119.537156 39.1482 
L 121.969015 30.553135 
L 124.400874 27.688095 
L 126.832732 24.823055 
" clip-path="url(#p70e88dc408)" style="fill: none; stroke: #c70303; stroke-opacity: 0.918919; stroke-width: 2; stroke-linecap: square"/>
   </g>
   <g id="line2d_78">
    <path d="M 126.832732 24.823055 
L 129.264591 24.823055 
L 131.696449 27.688095 
L 134.128308 33.418175 
L 136.560166 39.1482 
L 138.992025 47.743319 
L 141.423883 59.203424 
L 143.855742 70.663529 
L 146.2876 76.393609 
L 148.719459 84.988674 
L 151.151318 93.583767 
L 153.583176 105.043899 
L 156.015035 113.638964 
L 158.446893 122.234057 
L 160.878752 130.829149 
L 163.31061 136.559202 
L 165.742469 145.154294 
L 168.174327 153.749386 
L 170.606186 156.614399 
L 173.038045 159.479439 
" clip-path="url(#p70e88dc408)" style="fill: none; stroke: #2979ea; stroke-opacity: 0.918919; stroke-width: 2; stroke-linecap: square"/>
   </g>
   <g id="line2d_79">
    <path d="M 75.763702 156.614399 
L 78.195561 156.614399 
L 80.62742 151.235165 
L 83.059278 143.166302 
L 85.491137 140.476672 
L 87.922995 129.718204 
L 90.354854 118.959737 
L 92.786712 110.890873 
L 95.218571 105.511639 
L 97.650429 97.442776 
L 100.082288 89.373912 
L 102.514147 83.994678 
L 104.946005 75.925815 
L 107.377864 70.546581 
L 109.809722 62.477717 
L 112.241581 54.408879 
L 114.673439 49.02962 
L 117.105298 40.960782 
L 119.537156 32.891893 
L 121.969015 30.202263 
L 124.400874 27.512685 
L 126.832732 24.823055 
" clip-path="url(#p70e88dc408)" style="fill: none; stroke: #c70303; stroke-opacity: 0.945946; stroke-width: 2; stroke-linecap: square"/>
   </g>
   <g id="line2d_80">
    <path d="M 126.832732 24.823055 
L 129.264591 30.202263 
L 131.696449 32.891893 
L 134.128308 40.960782 
L 136.560166 51.71925 
L 138.992025 62.477717 
L 141.423883 70.546581 
L 143.855742 81.305048 
L 146.2876 92.063542 
L 148.719459 100.13238 
L 151.151318 110.890873 
L 153.583176 118.959737 
L 156.015035 127.028574 
L 158.446893 135.097438 
L 160.878752 140.476672 
L 163.31061 145.855931 
L 165.742469 148.545535 
" clip-path="url(#p70e88dc408)" style="fill: none; stroke: #2979ea; stroke-opacity: 0.945946; stroke-width: 2; stroke-linecap: square"/>
   </g>
   <g id="patch_3">
    <path d="M 53.876976 156.614399 
L 53.876976 24.823055 
" style="fill: none; stroke: #000000; stroke-width: 0.6; stroke-linejoin: miter; stroke-linecap: square"/>
   </g>
   <g id="patch_4">
    <path d="M 53.876976 156.614399 
L 199.788489 156.614399 
" style="fill: none; stroke: #000000; stroke-width: 0.6; stroke-linejoin: miter; stroke-linecap: square"/>
   </g>
   <g id="text_11">
    <!-- 25 minutes 18 sec -->
    <g transform="translate(63.691985 18.823055) scale(0.168 -0.168)">
     <defs>
      <path id="CMR17-75" d="M 1882 2693 
L 1882 2528 
C 2259 2528 2317 2489 2317 2186 
L 2317 1032 
C 2317 500 2029 38 1555 38 
C 1030 38 986 348 986 678 
L 986 2763 
L 211 2693 
L 211 2528 
C 467 2528 640 2528 646 2274 
L 646 1058 
C 646 633 646 361 813 183 
C 896 101 1056 -64 1517 -64 
C 2061 -64 2272 377 2323 506 
L 2330 506 
L 2330 -63 
L 3091 -63 
L 3091 128 
C 2714 128 2656 166 2656 473 
L 2656 2763 
L 1882 2693 
z
" transform="scale(0.015625)"/>
      <path id="CMR17-38" d="M 1741 2264 
C 2144 2467 2554 2773 2554 3263 
C 2554 3841 1990 4179 1472 4179 
C 890 4179 378 3759 378 3180 
C 378 3021 416 2747 666 2505 
C 730 2442 998 2251 1171 2130 
C 883 1983 211 1634 211 934 
C 211 279 838 -128 1459 -128 
C 2144 -128 2720 362 2720 1010 
C 2720 1590 2330 1857 2074 2029 
L 1741 2264 
z
M 902 2822 
C 851 2854 595 3051 595 3351 
C 595 3739 998 4032 1459 4032 
C 1965 4032 2336 3676 2336 3262 
C 2336 2669 1670 2331 1638 2331 
C 1632 2331 1626 2331 1574 2370 
L 902 2822 
z
M 2080 1519 
C 2176 1449 2483 1240 2483 851 
C 2483 381 2010 25 1472 25 
C 890 25 448 438 448 940 
C 448 1443 838 1862 1280 2060 
L 2080 1519 
z
" transform="scale(0.015625)"/>
      <path id="CMR17-63" d="M 2234 2240 
C 2112 2240 1933 2240 1933 2017 
C 1933 1838 2080 1787 2163 1787 
C 2208 1787 2394 1807 2394 2024 
C 2394 2467 1958 2803 1466 2803 
C 787 2803 211 2178 211 1363 
C 211 516 813 -64 1466 -64 
C 2259 -64 2458 677 2458 748 
C 2458 774 2451 793 2406 793 
C 2362 793 2355 787 2330 703 
C 2163 180 1798 51 1523 51 
C 1114 51 621 427 621 1369 
C 621 2338 1094 2688 1472 2688 
C 1722 2688 2093 2573 2234 2240 
z
" transform="scale(0.015625)"/>
     </defs>
     <use xlink:href="#CMR17-32" transform="scale(0.996264)"/>
     <use xlink:href="#CMR17-35" transform="translate(45.690477 0) scale(0.996264)"/>
     <use xlink:href="#CMR17-6d" transform="translate(121.456921 0) scale(0.996264)"/>
     <use xlink:href="#CMR17-69" transform="translate(198.37651 0) scale(0.996264)"/>
     <use xlink:href="#CMR17-6e" transform="translate(223.247569 0) scale(0.996264)"/>
     <use xlink:href="#CMR17-75" transform="translate(271.540485 0) scale(0.996264)"/>
     <use xlink:href="#CMR17-74" transform="translate(322.435855 0) scale(0.996264)"/>
     <use xlink:href="#CMR17-65" transform="translate(357.716622 0) scale(0.996264)"/>
     <use xlink:href="#CMR17-73" transform="translate(398.202283 0) scale(0.996264)"/>
     <use xlink:href="#CMR17-31" transform="translate(464.079587 0) scale(0.996264)"/>
     <use xlink:href="#CMR17-38" transform="translate(509.770064 0) scale(0.996264)"/>
     <use xlink:href="#CMR17-73" transform="translate(585.536507 0) scale(0.996264)"/>
     <use xlink:href="#CMR17-65" transform="translate(621.337845 0) scale(0.996264)"/>
     <use xlink:href="#CMR17-63" transform="translate(661.823505 0) scale(0.996264)"/>
    </g>
   </g>
  </g>
 </g>
 <defs>
  <clipPath id="p70e88dc408">
   <rect x="53.876976" y="24.823055" width="145.911513" height="131.791344"/>
  </clipPath>
 </defs>
</svg>
