<?xml version="1.0" encoding="utf-8" standalone="no"?>
<!DOCTYPE svg PUBLIC "-//W3C//DTD SVG 1.1//EN"
  "http://www.w3.org/Graphics/SVG/1.1/DTD/svg11.dtd">
<svg xmlns:xlink="http://www.w3.org/1999/xlink" width="560.16pt" height="416.16pt" viewBox="0 0 560.16 416.16" xmlns="http://www.w3.org/2000/svg" version="1.1">
 <metadata>
  <rdf:RDF xmlns:dc="http://purl.org/dc/elements/1.1/" xmlns:cc="http://creativecommons.org/ns#" xmlns:rdf="http://www.w3.org/1999/02/22-rdf-syntax-ns#">
   <cc:Work>
    <dc:type rdf:resource="http://purl.org/dc/dcmitype/StillImage"/>
    <dc:date>2025-12-21T11:21:40.909265</dc:date>
    <dc:format>image/svg+xml</dc:format>
    <dc:creator>
     <cc:Agent>
      <dc:title>Matplotlib v3.8.4, https://matplotlib.org/</dc:title>
     </cc:Agent>
    </dc:creator>
   </cc:Work>
  </rdf:RDF>
 </metadata>
 <defs>
  <style type="text/css">*{stroke-linejoin: round; stroke-linecap: butt}</style>
 </defs>
 <g id="figure_1">
  <g id="patch_1">
   <path d="M 0 416.16 
L 560.16 416.16 
L 560.16 0 
L 0 0 
L 0 416.16 
z
" style="fill: none"/>
  </g>
  <g id="axes_1">
   <g id="patch_2">
    <path d="M 55.426767 374.16419 
L 552.96 374.16419 
L 552.96 12.042938 
L 55.426767 12.042938 
L 55.426767 374.16419 
z
" style="fill: none"/>
   </g>
   <g id="matplotlib.axis_1">
    <g id="xtick_1">
     <g id="line2d_1">
      <defs>
       <path id="m4cd371f86f" d="M 0 0 
L 0 2.5 
" style="stroke: #000000; stroke-width: 0.6"/>
      </defs>
      <g>
       <use xlink:href="#m4cd371f86f" x="55.426767" y="374.16419" style="stroke: #000000; stroke-width: 0.6"/>
      </g>
     </g>
     <g id="text_1">
      <!-- $\mathdefault{0}$ -->
      <g transform="translate(52.012522 389.850067) scale(0.14 -0.14)">
       <defs>
        <path id="CMR17-30" d="M 2688 2025 
C 2688 2416 2682 3080 2413 3591 
C 2176 4039 1798 4198 1466 4198 
C 1158 4198 768 4058 525 3597 
C 269 3118 243 2524 243 2025 
C 243 1661 250 1106 448 619 
C 723 -39 1216 -128 1466 -128 
C 1760 -128 2208 -7 2470 600 
C 2662 1042 2688 1559 2688 2025 
z
M 1466 -26 
C 1056 -26 813 325 723 812 
C 653 1188 653 1738 653 2096 
C 653 2588 653 2997 736 3387 
C 858 3929 1216 4096 1466 4096 
C 1728 4096 2067 3923 2189 3400 
C 2272 3036 2278 2607 2278 2096 
C 2278 1680 2278 1169 2202 792 
C 2067 95 1690 -26 1466 -26 
z
" transform="scale(0.015625)"/>
       </defs>
       <use xlink:href="#CMR17-30" transform="scale(0.996264)"/>
      </g>
     </g>
    </g>
    <g id="xtick_2">
     <g id="line2d_2">
      <g>
       <use xlink:href="#m4cd371f86f" x="122.660988" y="374.16419" style="stroke: #000000; stroke-width: 0.6"/>
      </g>
     </g>
     <g id="text_2">
      <!-- $\mathdefault{5}$ -->
      <g transform="translate(119.246743 389.850067) scale(0.14 -0.14)">
       <defs>
        <path id="CMR17-35" d="M 730 3692 
C 794 3666 1056 3584 1325 3584 
C 1920 3584 2246 3911 2432 4100 
C 2432 4157 2432 4192 2394 4192 
C 2387 4192 2374 4192 2323 4163 
C 2099 4058 1837 3973 1517 3973 
C 1325 3973 1037 3999 723 4139 
C 653 4171 640 4171 634 4171 
C 602 4171 595 4164 595 4037 
L 595 2203 
C 595 2089 595 2057 659 2057 
C 691 2057 704 2070 736 2114 
C 941 2401 1222 2522 1542 2522 
C 1766 2522 2246 2382 2246 1289 
C 2246 1085 2246 715 2054 421 
C 1894 159 1645 25 1370 25 
C 947 25 518 320 403 814 
C 429 807 480 795 506 795 
C 589 795 749 840 749 1038 
C 749 1210 627 1280 506 1280 
C 358 1280 262 1190 262 1011 
C 262 454 704 -128 1382 -128 
C 2042 -128 2669 440 2669 1264 
C 2669 2030 2170 2624 1549 2624 
C 1222 2624 947 2503 730 2274 
L 730 3692 
z
" transform="scale(0.015625)"/>
       </defs>
       <use xlink:href="#CMR17-35" transform="scale(0.996264)"/>
      </g>
     </g>
    </g>
    <g id="xtick_3">
     <g id="line2d_3">
      <g>
       <use xlink:href="#m4cd371f86f" x="189.895208" y="374.16419" style="stroke: #000000; stroke-width: 0.6"/>
      </g>
     </g>
     <g id="text_3">
      <!-- $\mathdefault{10}$ -->
      <g transform="translate(183.06672 389.850067) scale(0.14 -0.14)">
       <defs>
        <path id="CMR17-31" d="M 1702 4058 
C 1702 4192 1696 4192 1606 4192 
C 1357 3916 979 3827 621 3827 
C 602 3827 570 3827 563 3808 
C 557 3795 557 3782 557 3648 
C 755 3648 1088 3686 1344 3839 
L 1344 461 
C 1344 236 1331 160 781 160 
L 589 160 
L 589 0 
C 896 0 1216 0 1523 0 
C 1830 0 2150 0 2458 0 
L 2458 160 
L 2266 160 
C 1715 160 1702 230 1702 458 
L 1702 4058 
z
" transform="scale(0.015625)"/>
       </defs>
       <use xlink:href="#CMR17-31" transform="scale(0.996264)"/>
       <use xlink:href="#CMR17-30" transform="translate(45.690477 0) scale(0.996264)"/>
      </g>
     </g>
    </g>
    <g id="xtick_4">
     <g id="line2d_4">
      <g>
       <use xlink:href="#m4cd371f86f" x="257.129429" y="374.16419" style="stroke: #000000; stroke-width: 0.6"/>
      </g>
     </g>
     <g id="text_4">
      <!-- $\mathdefault{15}$ -->
      <g transform="translate(250.30094 389.850067) scale(0.14 -0.14)">
       <use xlink:href="#CMR17-31" transform="scale(0.996264)"/>
       <use xlink:href="#CMR17-35" transform="translate(45.690477 0) scale(0.996264)"/>
      </g>
     </g>
    </g>
    <g id="xtick_5">
     <g id="line2d_5">
      <g>
       <use xlink:href="#m4cd371f86f" x="324.36365" y="374.16419" style="stroke: #000000; stroke-width: 0.6"/>
      </g>
     </g>
     <g id="text_5">
      <!-- $\mathdefault{20}$ -->
      <g transform="translate(317.535161 389.850067) scale(0.14 -0.14)">
       <defs>
        <path id="CMR17-32" d="M 2669 989 
L 2554 989 
C 2490 536 2438 459 2413 420 
C 2381 369 1920 369 1830 369 
L 602 369 
C 832 619 1280 1072 1824 1597 
C 2214 1967 2669 2402 2669 3035 
C 2669 3790 2067 4224 1395 4224 
C 691 4224 262 3604 262 3030 
C 262 2780 448 2748 525 2748 
C 589 2748 781 2787 781 3010 
C 781 3207 614 3264 525 3264 
C 486 3264 448 3258 422 3245 
C 544 3790 915 4058 1306 4058 
C 1862 4058 2227 3617 2227 3035 
C 2227 2479 1901 2000 1536 1584 
L 262 146 
L 262 0 
L 2515 0 
L 2669 989 
z
" transform="scale(0.015625)"/>
       </defs>
       <use xlink:href="#CMR17-32" transform="scale(0.996264)"/>
       <use xlink:href="#CMR17-30" transform="translate(45.690477 0) scale(0.996264)"/>
      </g>
     </g>
    </g>
    <g id="xtick_6">
     <g id="line2d_6">
      <g>
       <use xlink:href="#m4cd371f86f" x="391.59787" y="374.16419" style="stroke: #000000; stroke-width: 0.6"/>
      </g>
     </g>
     <g id="text_6">
      <!-- $\mathdefault{25}$ -->
      <g transform="translate(384.769382 389.850067) scale(0.14 -0.14)">
       <use xlink:href="#CMR17-32" transform="scale(0.996264)"/>
       <use xlink:href="#CMR17-35" transform="translate(45.690477 0) scale(0.996264)"/>
      </g>
     </g>
    </g>
    <g id="xtick_7">
     <g id="line2d_7">
      <g>
       <use xlink:href="#m4cd371f86f" x="458.832091" y="374.16419" style="stroke: #000000; stroke-width: 0.6"/>
      </g>
     </g>
     <g id="text_7">
      <!-- $\mathdefault{30}$ -->
      <g transform="translate(452.003602 389.850067) scale(0.14 -0.14)">
       <defs>
        <path id="CMR17-33" d="M 1414 2157 
C 1984 2157 2234 1662 2234 1090 
C 2234 320 1824 25 1453 25 
C 1114 25 563 194 390 693 
C 422 680 454 680 486 680 
C 640 680 755 782 755 948 
C 755 1133 614 1216 486 1216 
C 378 1216 211 1165 211 926 
C 211 335 787 -128 1466 -128 
C 2176 -128 2720 430 2720 1085 
C 2720 1707 2208 2157 1600 2227 
C 2086 2328 2554 2756 2554 3329 
C 2554 3820 2048 4179 1472 4179 
C 890 4179 378 3829 378 3329 
C 378 3110 544 3072 627 3072 
C 762 3072 877 3155 877 3321 
C 877 3486 762 3569 627 3569 
C 602 3569 570 3569 544 3557 
C 730 3959 1235 4032 1459 4032 
C 1683 4032 2106 3925 2106 3320 
C 2106 3143 2080 2828 1862 2550 
C 1670 2304 1453 2304 1242 2284 
C 1210 2284 1062 2269 1037 2269 
C 992 2263 966 2257 966 2208 
C 966 2163 973 2157 1101 2157 
L 1414 2157 
z
" transform="scale(0.015625)"/>
       </defs>
       <use xlink:href="#CMR17-33" transform="scale(0.996264)"/>
       <use xlink:href="#CMR17-30" transform="translate(45.690477 0) scale(0.996264)"/>
      </g>
     </g>
    </g>
    <g id="xtick_8">
     <g id="line2d_8">
      <g>
       <use xlink:href="#m4cd371f86f" x="526.066312" y="374.16419" style="stroke: #000000; stroke-width: 0.6"/>
      </g>
     </g>
     <g id="text_8">
      <!-- $\mathdefault{35}$ -->
      <g transform="translate(519.237823 389.850067) scale(0.14 -0.14)">
       <use xlink:href="#CMR17-33" transform="scale(0.996264)"/>
       <use xlink:href="#CMR17-35" transform="translate(45.690477 0) scale(0.996264)"/>
      </g>
     </g>
    </g>
    <g id="text_9">
     <!-- row number -->
     <g transform="translate(268.533498 406.247972) scale(0.14 -0.14)">
      <defs>
       <path id="CMR17-72" d="M 960 1497 
C 960 2112 1222 2688 1702 2688 
C 1747 2688 1792 2682 1837 2662 
C 1837 2662 1696 2617 1696 2452 
C 1696 2298 1818 2234 1914 2234 
C 1990 2234 2131 2279 2131 2458 
C 2131 2663 1926 2790 1709 2790 
C 1222 2790 1011 2317 947 2093 
L 941 2093 
L 941 2790 
L 198 2720 
L 198 2554 
C 576 2554 634 2515 634 2208 
L 634 428 
C 634 184 608 153 198 153 
L 198 -13 
C 352 0 646 0 813 0 
C 998 0 1325 0 1498 -13 
L 1498 153 
C 1037 153 960 153 960 440 
L 960 1497 
z
" transform="scale(0.015625)"/>
       <path id="CMR17-6f" d="M 2758 1356 
C 2758 2176 2163 2816 1466 2816 
C 768 2816 173 2176 173 1356 
C 173 551 768 -64 1466 -64 
C 2163 -64 2758 551 2758 1356 
z
M 1466 51 
C 1165 51 909 230 762 480 
C 602 767 582 1126 582 1408 
C 582 1677 595 2010 762 2298 
C 890 2509 1139 2714 1466 2714 
C 1754 2714 1997 2554 2150 2330 
C 2349 2029 2349 1607 2349 1408 
C 2349 1158 2336 775 2163 467 
C 1984 173 1709 51 1466 51 
z
" transform="scale(0.015625)"/>
       <path id="CMR17-77" d="M 3725 2183 
C 3853 2560 4109 2560 4205 2560 
L 4205 2732 
C 4077 2732 3949 2732 3821 2732 
C 3699 2732 3424 2732 3315 2738 
L 3315 2560 
C 3514 2560 3622 2445 3622 2286 
C 3622 2241 3610 2184 3597 2140 
L 2995 407 
L 2342 2275 
C 2330 2319 2310 2370 2310 2395 
C 2310 2560 2528 2560 2630 2560 
L 2630 2738 
C 2483 2732 2214 2732 2061 2732 
C 1901 2732 1734 2732 1587 2738 
L 1587 2560 
C 1939 2560 1939 2547 2074 2149 
L 1485 451 
L 851 2281 
C 819 2363 819 2376 819 2395 
C 819 2560 1037 2560 1139 2560 
L 1139 2738 
C 986 2732 717 2732 557 2732 
C 416 2732 198 2732 64 2738 
L 64 2560 
C 346 2560 416 2541 486 2331 
L 1274 49 
C 1299 -33 1318 -52 1370 -52 
C 1414 -52 1440 -39 1472 56 
L 2131 1980 
L 2797 56 
C 2829 -39 2854 -52 2899 -52 
C 2950 -52 2970 -33 2995 50 
L 3725 2183 
z
" transform="scale(0.015625)"/>
       <path id="CMR17-6e" d="M 2656 1933 
C 2656 2259 2592 2790 1837 2790 
C 1331 2790 1069 2400 973 2144 
L 966 2144 
L 966 2790 
L 211 2720 
L 211 2554 
C 589 2554 646 2515 646 2208 
L 646 428 
C 646 184 621 153 211 153 
L 211 -13 
C 365 0 646 0 813 0 
C 979 0 1267 0 1421 -13 
L 1421 153 
C 1011 153 986 178 986 428 
L 986 1658 
C 986 2247 1344 2688 1792 2688 
C 2266 2688 2317 2266 2317 1958 
L 2317 428 
C 2317 184 2291 153 1882 153 
L 1882 -13 
C 2035 0 2317 0 2483 0 
C 2650 0 2938 0 3091 -13 
L 3091 153 
C 2682 153 2656 178 2656 428 
L 2656 1933 
z
" transform="scale(0.015625)"/>
       <path id="CMR17-75" d="M 1882 2693 
L 1882 2528 
C 2259 2528 2317 2489 2317 2186 
L 2317 1032 
C 2317 500 2029 38 1555 38 
C 1030 38 986 348 986 678 
L 986 2763 
L 211 2693 
L 211 2528 
C 467 2528 640 2528 646 2274 
L 646 1058 
C 646 633 646 361 813 183 
C 896 101 1056 -64 1517 -64 
C 2061 -64 2272 377 2323 506 
L 2330 506 
L 2330 -63 
L 3091 -63 
L 3091 128 
C 2714 128 2656 166 2656 473 
L 2656 2763 
L 1882 2693 
z
" transform="scale(0.015625)"/>
       <path id="CMR17-6d" d="M 4326 1933 
C 4326 2252 4269 2790 3507 2790 
C 3072 2790 2771 2496 2656 2151 
L 2650 2151 
C 2573 2676 2195 2790 1837 2790 
C 1331 2790 1069 2400 973 2144 
L 966 2144 
L 966 2790 
L 211 2720 
L 211 2554 
C 589 2554 646 2515 646 2208 
L 646 428 
C 646 184 621 153 211 153 
L 211 -13 
C 365 0 646 0 813 0 
C 979 0 1267 0 1421 -13 
L 1421 153 
C 1011 153 986 178 986 428 
L 986 1658 
C 986 2247 1344 2688 1792 2688 
C 2266 2688 2317 2266 2317 1958 
L 2317 428 
C 2317 184 2291 153 1882 153 
L 1882 -13 
C 2035 0 2317 0 2483 0 
C 2650 0 2938 0 3091 -13 
L 3091 153 
C 2682 153 2656 178 2656 428 
L 2656 1658 
C 2656 2247 3014 2688 3462 2688 
C 3936 2688 3987 2266 3987 1958 
L 3987 428 
C 3987 184 3962 153 3552 153 
L 3552 -13 
C 3706 0 3987 0 4154 0 
C 4320 0 4608 0 4762 -13 
L 4762 153 
C 4352 153 4326 178 4326 428 
L 4326 1933 
z
" transform="scale(0.015625)"/>
       <path id="CMR17-62" d="M 960 4396 
L 198 4326 
L 198 4160 
C 576 4160 634 4122 634 3817 
L 634 -13 
L 749 -13 
L 934 441 
C 1120 141 1395 -64 1766 -64 
C 2406 -64 3053 500 3053 1370 
C 3053 2188 2477 2790 1830 2790 
C 1434 2790 1152 2579 960 2330 
L 960 4396 
z
M 973 2004 
C 973 2118 973 2138 1062 2272 
C 1312 2657 1670 2688 1792 2688 
C 1984 2688 2643 2585 2643 1376 
C 2643 108 1888 38 1734 38 
C 1536 38 1248 114 1043 486 
C 973 608 973 621 973 735 
L 973 2004 
z
" transform="scale(0.015625)"/>
       <path id="CMR17-65" d="M 2438 1472 
C 2464 1498 2464 1511 2464 1576 
C 2464 2238 2118 2816 1389 2816 
C 710 2816 173 2169 173 1383 
C 173 551 781 -64 1459 -64 
C 2176 -64 2458 607 2458 740 
C 2458 784 2419 784 2406 784 
C 2362 784 2355 771 2330 696 
C 2189 265 1837 51 1504 51 
C 1229 51 954 203 781 480 
C 582 803 582 1176 582 1472 
L 2438 1472 
z
M 589 1568 
C 634 2505 1126 2714 1382 2714 
C 1818 2714 2112 2297 2118 1568 
L 589 1568 
z
" transform="scale(0.015625)"/>
      </defs>
      <use xlink:href="#CMR17-72" transform="scale(0.996264)"/>
      <use xlink:href="#CMR17-6f" transform="translate(35.280768 0) scale(0.996264)"/>
      <use xlink:href="#CMR17-77" transform="translate(78.368791 0) scale(0.996264)"/>
      <use xlink:href="#CMR17-6e" transform="translate(174.954638 0) scale(0.996264)"/>
      <use xlink:href="#CMR17-75" transform="translate(223.247554 0) scale(0.996264)"/>
      <use xlink:href="#CMR17-6d" transform="translate(274.142924 0) scale(0.996264)"/>
      <use xlink:href="#CMR17-62" transform="translate(348.460059 0) scale(0.996264)"/>
      <use xlink:href="#CMR17-65" transform="translate(401.957868 0) scale(0.996264)"/>
      <use xlink:href="#CMR17-72" transform="translate(442.443528 0) scale(0.996264)"/>
     </g>
    </g>
   </g>
   <g id="matplotlib.axis_2">
    <g id="ytick_1">
     <g id="line2d_9">
      <defs>
       <path id="m56f3a9ced1" d="M 0 0 
L -2.5 0 
" style="stroke: #000000; stroke-width: 0.6"/>
      </defs>
      <g>
       <use xlink:href="#m56f3a9ced1" x="55.426767" y="374.16419" style="stroke: #000000; stroke-width: 0.6"/>
      </g>
     </g>
     <g id="text_10">
      <!-- $\mathdefault{25.0}$ -->
      <g transform="translate(25.147696 379.007129) scale(0.14 -0.14)">
       <defs>
        <path id="CMMI12-3a" d="M 1178 307 
C 1178 492 1024 619 870 619 
C 685 619 557 466 557 313 
C 557 128 710 0 864 0 
C 1050 0 1178 153 1178 307 
z
" transform="scale(0.015625)"/>
       </defs>
       <use xlink:href="#CMR17-32" transform="scale(0.996264)"/>
       <use xlink:href="#CMR17-35" transform="translate(45.690477 0) scale(0.996264)"/>
       <use xlink:href="#CMMI12-3a" transform="translate(91.380954 0) scale(0.996264)"/>
       <use xlink:href="#CMR17-30" transform="translate(118.478131 0) scale(0.996264)"/>
      </g>
     </g>
    </g>
    <g id="ytick_2">
     <g id="line2d_10">
      <g>
       <use xlink:href="#m56f3a9ced1" x="55.426767" y="333.928496" style="stroke: #000000; stroke-width: 0.6"/>
      </g>
     </g>
     <g id="text_11">
      <!-- $\mathdefault{27.5}$ -->
      <g transform="translate(25.147696 338.771434) scale(0.14 -0.14)">
       <defs>
        <path id="CMR17-37" d="M 2886 3941 
L 2886 4081 
L 1382 4081 
C 634 4081 621 4165 595 4288 
L 480 4288 
L 294 3094 
L 410 3094 
C 429 3215 474 3540 550 3661 
C 589 3712 1062 3712 1171 3712 
L 2579 3712 
L 1869 2661 
C 1395 1954 1069 999 1069 165 
C 1069 89 1069 -128 1299 -128 
C 1530 -128 1530 89 1530 171 
L 1530 465 
C 1530 1508 1709 2196 2003 2636 
L 2886 3941 
z
" transform="scale(0.015625)"/>
       </defs>
       <use xlink:href="#CMR17-32" transform="scale(0.996264)"/>
       <use xlink:href="#CMR17-37" transform="translate(45.690477 0) scale(0.996264)"/>
       <use xlink:href="#CMMI12-3a" transform="translate(91.380954 0) scale(0.996264)"/>
       <use xlink:href="#CMR17-35" transform="translate(118.478131 0) scale(0.996264)"/>
      </g>
     </g>
    </g>
    <g id="ytick_3">
     <g id="line2d_11">
      <g>
       <use xlink:href="#m56f3a9ced1" x="55.426767" y="293.692801" style="stroke: #000000; stroke-width: 0.6"/>
      </g>
     </g>
     <g id="text_12">
      <!-- $\mathdefault{30.0}$ -->
      <g transform="translate(25.147696 298.535739) scale(0.14 -0.14)">
       <use xlink:href="#CMR17-33" transform="scale(0.996264)"/>
       <use xlink:href="#CMR17-30" transform="translate(45.690477 0) scale(0.996264)"/>
       <use xlink:href="#CMMI12-3a" transform="translate(91.380954 0) scale(0.996264)"/>
       <use xlink:href="#CMR17-30" transform="translate(118.478131 0) scale(0.996264)"/>
      </g>
     </g>
    </g>
    <g id="ytick_4">
     <g id="line2d_12">
      <g>
       <use xlink:href="#m56f3a9ced1" x="55.426767" y="253.457106" style="stroke: #000000; stroke-width: 0.6"/>
      </g>
     </g>
     <g id="text_13">
      <!-- $\mathdefault{32.5}$ -->
      <g transform="translate(25.147696 258.300045) scale(0.14 -0.14)">
       <use xlink:href="#CMR17-33" transform="scale(0.996264)"/>
       <use xlink:href="#CMR17-32" transform="translate(45.690477 0) scale(0.996264)"/>
       <use xlink:href="#CMMI12-3a" transform="translate(91.380954 0) scale(0.996264)"/>
       <use xlink:href="#CMR17-35" transform="translate(118.478131 0) scale(0.996264)"/>
      </g>
     </g>
    </g>
    <g id="ytick_5">
     <g id="line2d_13">
      <g>
       <use xlink:href="#m56f3a9ced1" x="55.426767" y="213.221412" style="stroke: #000000; stroke-width: 0.6"/>
      </g>
     </g>
     <g id="text_14">
      <!-- $\mathdefault{35.0}$ -->
      <g transform="translate(25.147696 218.06435) scale(0.14 -0.14)">
       <use xlink:href="#CMR17-33" transform="scale(0.996264)"/>
       <use xlink:href="#CMR17-35" transform="translate(45.690477 0) scale(0.996264)"/>
       <use xlink:href="#CMMI12-3a" transform="translate(91.380954 0) scale(0.996264)"/>
       <use xlink:href="#CMR17-30" transform="translate(118.478131 0) scale(0.996264)"/>
      </g>
     </g>
    </g>
    <g id="ytick_6">
     <g id="line2d_14">
      <g>
       <use xlink:href="#m56f3a9ced1" x="55.426767" y="172.985717" style="stroke: #000000; stroke-width: 0.6"/>
      </g>
     </g>
     <g id="text_15">
      <!-- $\mathdefault{37.5}$ -->
      <g transform="translate(25.147696 177.828655) scale(0.14 -0.14)">
       <use xlink:href="#CMR17-33" transform="scale(0.996264)"/>
       <use xlink:href="#CMR17-37" transform="translate(45.690477 0) scale(0.996264)"/>
       <use xlink:href="#CMMI12-3a" transform="translate(91.380954 0) scale(0.996264)"/>
       <use xlink:href="#CMR17-35" transform="translate(118.478131 0) scale(0.996264)"/>
      </g>
     </g>
    </g>
    <g id="ytick_7">
     <g id="line2d_15">
      <g>
       <use xlink:href="#m56f3a9ced1" x="55.426767" y="132.750022" style="stroke: #000000; stroke-width: 0.6"/>
      </g>
     </g>
     <g id="text_16">
      <!-- $\mathdefault{40.0}$ -->
      <g transform="translate(25.147696 137.59296) scale(0.14 -0.14)">
       <defs>
        <path id="CMR17-34" d="M 2150 4122 
C 2150 4256 2144 4256 2029 4256 
L 128 1254 
L 128 1088 
L 1779 1088 
L 1779 457 
C 1779 224 1766 160 1318 160 
L 1197 160 
L 1197 0 
C 1402 0 1747 0 1965 0 
C 2182 0 2528 0 2733 0 
L 2733 160 
L 2611 160 
C 2163 160 2150 224 2150 457 
L 2150 1088 
L 2803 1088 
L 2803 1254 
L 2150 1254 
L 2150 4122 
z
M 1798 3703 
L 1798 1254 
L 256 1254 
L 1798 3703 
z
" transform="scale(0.015625)"/>
       </defs>
       <use xlink:href="#CMR17-34" transform="scale(0.996264)"/>
       <use xlink:href="#CMR17-30" transform="translate(45.690477 0) scale(0.996264)"/>
       <use xlink:href="#CMMI12-3a" transform="translate(91.380954 0) scale(0.996264)"/>
       <use xlink:href="#CMR17-30" transform="translate(118.478131 0) scale(0.996264)"/>
      </g>
     </g>
    </g>
    <g id="ytick_8">
     <g id="line2d_16">
      <g>
       <use xlink:href="#m56f3a9ced1" x="55.426767" y="92.514328" style="stroke: #000000; stroke-width: 0.6"/>
      </g>
     </g>
     <g id="text_17">
      <!-- $\mathdefault{42.5}$ -->
      <g transform="translate(25.147696 97.357266) scale(0.14 -0.14)">
       <use xlink:href="#CMR17-34" transform="scale(0.996264)"/>
       <use xlink:href="#CMR17-32" transform="translate(45.690477 0) scale(0.996264)"/>
       <use xlink:href="#CMMI12-3a" transform="translate(91.380954 0) scale(0.996264)"/>
       <use xlink:href="#CMR17-35" transform="translate(118.478131 0) scale(0.996264)"/>
      </g>
     </g>
    </g>
    <g id="ytick_9">
     <g id="line2d_17">
      <g>
       <use xlink:href="#m56f3a9ced1" x="55.426767" y="52.278633" style="stroke: #000000; stroke-width: 0.6"/>
      </g>
     </g>
     <g id="text_18">
      <!-- $\mathdefault{45.0}$ -->
      <g transform="translate(25.147696 57.121571) scale(0.14 -0.14)">
       <use xlink:href="#CMR17-34" transform="scale(0.996264)"/>
       <use xlink:href="#CMR17-35" transform="translate(45.690477 0) scale(0.996264)"/>
       <use xlink:href="#CMMI12-3a" transform="translate(91.380954 0) scale(0.996264)"/>
       <use xlink:href="#CMR17-30" transform="translate(118.478131 0) scale(0.996264)"/>
      </g>
     </g>
    </g>
    <g id="ytick_10">
     <g id="line2d_18">
      <g>
       <use xlink:href="#m56f3a9ced1" x="55.426767" y="12.042938" style="stroke: #000000; stroke-width: 0.6"/>
      </g>
     </g>
     <g id="text_19">
      <!-- $\mathdefault{47.5}$ -->
      <g transform="translate(25.147696 16.885876) scale(0.14 -0.14)">
       <use xlink:href="#CMR17-34" transform="scale(0.996264)"/>
       <use xlink:href="#CMR17-37" transform="translate(45.690477 0) scale(0.996264)"/>
       <use xlink:href="#CMMI12-3a" transform="translate(91.380954 0) scale(0.996264)"/>
       <use xlink:href="#CMR17-35" transform="translate(118.478131 0) scale(0.996264)"/>
      </g>
     </g>
    </g>
    <g id="text_20">
     <!-- time between two tops (s) -->
     <g transform="translate(17.660772 270.758654) rotate(-90) scale(0.14 -0.14)">
      <defs>
       <path id="CMR17-74" d="M 966 2560 
L 1862 2560 
L 1862 2725 
L 966 2725 
L 966 3904 
L 851 3904 
C 838 3245 614 2668 70 2668 
L 70 2560 
L 627 2560 
L 627 771 
C 627 650 627 -64 1370 -64 
C 1747 -64 1965 306 1965 777 
L 1965 1140 
L 1850 1140 
L 1850 783 
C 1850 344 1677 51 1408 51 
C 1222 51 966 178 966 758 
L 966 2560 
z
" transform="scale(0.015625)"/>
       <path id="CMR17-69" d="M 992 3909 
C 992 4049 877 4170 730 4170 
C 589 4170 467 4056 467 3909 
C 467 3769 582 3648 730 3648 
C 870 3648 992 3763 992 3909 
z
M 243 2706 
L 243 2541 
C 602 2541 653 2502 653 2197 
L 653 427 
C 653 184 627 153 218 153 
L 218 -13 
C 371 0 646 0 806 0 
C 960 0 1222 0 1370 -13 
L 1370 153 
C 992 153 979 191 979 420 
L 979 2776 
L 243 2706 
z
" transform="scale(0.015625)"/>
       <path id="CMR17-70" d="M 1408 -1063 
C 998 -1063 973 -1037 973 -789 
L 973 402 
C 1158 134 1427 -38 1766 -38 
C 2406 -38 3053 523 3053 1388 
C 3053 2191 2496 2802 1837 2802 
C 1453 2802 1139 2592 960 2338 
L 960 2802 
L 198 2732 
L 198 2567 
C 576 2567 634 2528 634 2223 
L 634 -789 
C 634 -1031 608 -1063 198 -1063 
L 198 -1228 
C 352 -1216 634 -1216 800 -1216 
C 966 -1216 1254 -1216 1408 -1228 
L 1408 -1063 
z
M 973 2012 
C 973 2102 973 2235 1222 2471 
C 1254 2497 1472 2688 1792 2688 
C 2259 2688 2643 2108 2643 1382 
C 2643 656 2234 64 1728 64 
C 1498 64 1248 172 1056 472 
C 973 612 973 650 973 752 
L 973 2012 
z
" transform="scale(0.015625)"/>
       <path id="CMR17-73" d="M 1978 2697 
C 1978 2813 1971 2819 1933 2819 
C 1907 2819 1901 2813 1824 2717 
C 1805 2691 1747 2626 1728 2601 
C 1523 2819 1235 2819 1126 2819 
C 416 2819 160 2447 160 2076 
C 160 1498 813 1365 998 1325 
C 1402 1243 1542 1217 1677 1101 
C 1760 1025 1901 884 1901 654 
C 1901 384 1747 38 1158 38 
C 602 38 403 460 288 1021 
C 269 1110 269 1117 218 1117 
C 166 1117 160 1110 160 983 
L 160 63 
C 160 -51 166 -58 205 -58 
C 237 -58 243 -51 275 0 
C 314 57 410 211 448 276 
C 576 103 800 -64 1158 -64 
C 1792 -64 2131 283 2131 784 
C 2131 1112 1958 1285 1875 1362 
C 1683 1561 1459 1606 1190 1657 
C 838 1735 390 1825 390 2217 
C 390 2383 480 2737 1126 2737 
C 1811 2737 1850 2094 1862 1888 
C 1869 1856 1901 1849 1920 1849 
C 1978 1849 1978 1869 1978 1978 
L 1978 2697 
z
" transform="scale(0.015625)"/>
       <path id="CMR17-28" d="M 1958 -1561 
C 1958 -1555 1958 -1542 1939 -1523 
C 1645 -1224 858 -407 858 1581 
C 858 3569 1632 4379 1946 4697 
C 1946 4704 1958 4717 1958 4736 
C 1958 4755 1939 4768 1914 4768 
C 1843 4768 1299 4296 986 3594 
C 666 2887 576 2199 576 1588 
C 576 1128 621 351 1005 -471 
C 1312 -1135 1837 -1600 1914 -1600 
C 1946 -1600 1958 -1587 1958 -1561 
z
" transform="scale(0.015625)"/>
       <path id="CMR17-29" d="M 1683 1581 
C 1683 2040 1638 2817 1254 3639 
C 947 4303 422 4768 346 4768 
C 326 4768 301 4761 301 4729 
C 301 4717 307 4710 314 4697 
C 621 4378 1402 3568 1402 1584 
C 1402 -407 627 -1217 314 -1537 
C 307 -1549 301 -1556 301 -1568 
C 301 -1600 326 -1600 346 -1600 
C 416 -1600 960 -1128 1274 -426 
C 1594 281 1683 969 1683 1581 
z
" transform="scale(0.015625)"/>
      </defs>
      <use xlink:href="#CMR17-74" transform="scale(0.996264)"/>
      <use xlink:href="#CMR17-69" transform="translate(35.280768 0) scale(0.996264)"/>
      <use xlink:href="#CMR17-6d" transform="translate(60.151826 0) scale(0.996264)"/>
      <use xlink:href="#CMR17-65" transform="translate(137.071416 0) scale(0.996264)"/>
      <use xlink:href="#CMR17-62" transform="translate(207.633043 0) scale(0.996264)"/>
      <use xlink:href="#CMR17-65" transform="translate(261.130851 0) scale(0.996264)"/>
      <use xlink:href="#CMR17-74" transform="translate(301.616512 0) scale(0.996264)"/>
      <use xlink:href="#CMR17-77" transform="translate(334.294826 0) scale(0.996264)"/>
      <use xlink:href="#CMR17-65" transform="translate(398.202252 0) scale(0.996264)"/>
      <use xlink:href="#CMR17-65" transform="translate(438.687913 0) scale(0.996264)"/>
      <use xlink:href="#CMR17-6e" transform="translate(479.173573 0) scale(0.996264)"/>
      <use xlink:href="#CMR17-74" transform="translate(560.144909 0) scale(0.996264)"/>
      <use xlink:href="#CMR17-77" transform="translate(592.823223 0) scale(0.996264)"/>
      <use xlink:href="#CMR17-6f" transform="translate(656.73065 0) scale(0.996264)"/>
      <use xlink:href="#CMR17-74" transform="translate(732.497093 0) scale(0.996264)"/>
      <use xlink:href="#CMR17-6f" transform="translate(767.777861 0) scale(0.996264)"/>
      <use xlink:href="#CMR17-70" transform="translate(813.468338 0) scale(0.996264)"/>
      <use xlink:href="#CMR17-73" transform="translate(864.363708 0) scale(0.996264)"/>
      <use xlink:href="#CMR17-28" transform="translate(930.241012 0) scale(0.996264)"/>
      <use xlink:href="#CMR17-73" transform="translate(965.52178 0) scale(0.996264)"/>
      <use xlink:href="#CMR17-29" transform="translate(1001.323118 0) scale(0.996264)"/>
     </g>
    </g>
   </g>
   <g id="LineCollection_1">
    <path d="M 68.873611 229.315689 
L 68.873611 100.561467 
" style="fill: none; stroke: #c70303; stroke-width: 2"/>
    <path d="M 82.320455 197.127134 
L 82.320455 100.561467 
" style="fill: none; stroke: #c70303; stroke-width: 2"/>
    <path d="M 95.767299 202.760131 
L 95.767299 46.645636 
" style="fill: none; stroke: #c70303; stroke-width: 2"/>
    <path d="M 109.214143 197.127134 
L 109.214143 73.201194 
" style="fill: none; stroke: #c70303; stroke-width: 2"/>
    <path d="M 122.660988 181.032856 
L 122.660988 68.372911 
" style="fill: none; stroke: #c70303; stroke-width: 2"/>
    <path d="M 136.107832 181.032856 
L 136.107832 68.372911 
" style="fill: none; stroke: #c70303; stroke-width: 2"/>
    <path d="M 149.554676 181.032856 
L 149.554676 62.739914 
" style="fill: none; stroke: #c70303; stroke-width: 2"/>
    <path d="M 163.00152 181.032856 
L 163.00152 35.379641 
" style="fill: none; stroke: #c70303; stroke-width: 2"/>
    <path d="M 176.448364 164.938578 
L 176.448364 73.201194 
" style="fill: none; stroke: #c70303; stroke-width: 2"/>
    <path d="M 189.895208 170.571575 
L 189.895208 67.568197 
" style="fill: none; stroke: #c70303; stroke-width: 2"/>
    <path d="M 203.342052 164.938578 
L 203.342052 67.568197 
" style="fill: none; stroke: #c70303; stroke-width: 2"/>
    <path d="M 216.788896 170.571575 
L 216.788896 67.568197 
" style="fill: none; stroke: #c70303; stroke-width: 2"/>
    <path d="M 230.235741 164.938578 
L 230.235741 78.834191 
" style="fill: none; stroke: #c70303; stroke-width: 2"/>
    <path d="M 243.682585 164.938578 
L 243.682585 73.201194 
" style="fill: none; stroke: #c70303; stroke-width: 2"/>
    <path d="M 257.129429 164.938578 
L 257.129429 78.834191 
" style="fill: none; stroke: #c70303; stroke-width: 2"/>
    <path d="M 270.576273 164.938578 
L 270.576273 73.201194 
" style="fill: none; stroke: #c70303; stroke-width: 2"/>
    <path d="M 284.023117 181.032856 
L 284.023117 68.372911 
" style="fill: none; stroke: #c70303; stroke-width: 2"/>
    <path d="M 297.469961 164.938578 
L 297.469961 46.645636 
" style="fill: none; stroke: #c70303; stroke-width: 2"/>
    <path d="M 310.916805 164.938578 
L 310.916805 52.278633 
" style="fill: none; stroke: #c70303; stroke-width: 2"/>
    <path d="M 324.36365 170.571575 
L 324.36365 68.372911 
" style="fill: none; stroke: #c70303; stroke-width: 2"/>
    <path d="M 337.810494 164.938578 
L 337.810494 68.372911 
" style="fill: none; stroke: #c70303; stroke-width: 2"/>
    <path d="M 351.257338 154.477297 
L 351.257338 68.372911 
" style="fill: none; stroke: #c70303; stroke-width: 2"/>
    <path d="M 364.704182 164.938578 
L 364.704182 68.372911 
" style="fill: none; stroke: #c70303; stroke-width: 2"/>
    <path d="M 378.151026 164.938578 
L 378.151026 62.739914 
" style="fill: none; stroke: #c70303; stroke-width: 2"/>
    <path d="M 391.59787 148.8443 
L 391.59787 62.739914 
" style="fill: none; stroke: #c70303; stroke-width: 2"/>
    <path d="M 405.044714 154.477297 
L 405.044714 62.739914 
" style="fill: none; stroke: #c70303; stroke-width: 2"/>
    <path d="M 418.491559 154.477297 
L 418.491559 46.645636 
" style="fill: none; stroke: #c70303; stroke-width: 2"/>
    <path d="M 431.938403 148.8443 
L 431.938403 52.278633 
" style="fill: none; stroke: #c70303; stroke-width: 2"/>
    <path d="M 445.385247 154.477297 
L 445.385247 46.645636 
" style="fill: none; stroke: #c70303; stroke-width: 2"/>
    <path d="M 458.832091 148.8443 
L 458.832091 52.278633 
" style="fill: none; stroke: #c70303; stroke-width: 2"/>
    <path d="M 472.278935 148.8443 
L 472.278935 62.739914 
" style="fill: none; stroke: #c70303; stroke-width: 2"/>
    <path d="M 485.725779 148.8443 
L 485.725779 46.645636 
" style="fill: none; stroke: #c70303; stroke-width: 2"/>
    <path d="M 499.172623 148.8443 
L 499.172623 46.645636 
" style="fill: none; stroke: #c70303; stroke-width: 2"/>
    <path d="M 512.619468 181.032856 
L 512.619468 100.561467 
" style="fill: none; stroke: #c70303; stroke-width: 2"/>
    <path d="M 526.066312 202.760131 
L 526.066312 94.928469 
" style="fill: none; stroke: #c70303; stroke-width: 2"/>
    <path d="M 539.513156 341.975635 
L 539.513156 207.588414 
" style="fill: none; stroke: #c70303; stroke-width: 2"/>
   </g>
   <g id="line2d_19">
    <defs>
     <path id="m54f220f7c8" d="M 5 0 
L -5 -0 
" style="stroke: #c70303"/>
    </defs>
    <g>
     <use xlink:href="#m54f220f7c8" x="68.873611" y="229.315689" style="fill: #c70303; stroke: #c70303"/>
     <use xlink:href="#m54f220f7c8" x="82.320455" y="197.127134" style="fill: #c70303; stroke: #c70303"/>
     <use xlink:href="#m54f220f7c8" x="95.767299" y="202.760131" style="fill: #c70303; stroke: #c70303"/>
     <use xlink:href="#m54f220f7c8" x="109.214143" y="197.127134" style="fill: #c70303; stroke: #c70303"/>
     <use xlink:href="#m54f220f7c8" x="122.660988" y="181.032856" style="fill: #c70303; stroke: #c70303"/>
     <use xlink:href="#m54f220f7c8" x="136.107832" y="181.032856" style="fill: #c70303; stroke: #c70303"/>
     <use xlink:href="#m54f220f7c8" x="149.554676" y="181.032856" style="fill: #c70303; stroke: #c70303"/>
     <use xlink:href="#m54f220f7c8" x="163.00152" y="181.032856" style="fill: #c70303; stroke: #c70303"/>
     <use xlink:href="#m54f220f7c8" x="176.448364" y="164.938578" style="fill: #c70303; stroke: #c70303"/>
     <use xlink:href="#m54f220f7c8" x="189.895208" y="170.571575" style="fill: #c70303; stroke: #c70303"/>
     <use xlink:href="#m54f220f7c8" x="203.342052" y="164.938578" style="fill: #c70303; stroke: #c70303"/>
     <use xlink:href="#m54f220f7c8" x="216.788896" y="170.571575" style="fill: #c70303; stroke: #c70303"/>
     <use xlink:href="#m54f220f7c8" x="230.235741" y="164.938578" style="fill: #c70303; stroke: #c70303"/>
     <use xlink:href="#m54f220f7c8" x="243.682585" y="164.938578" style="fill: #c70303; stroke: #c70303"/>
     <use xlink:href="#m54f220f7c8" x="257.129429" y="164.938578" style="fill: #c70303; stroke: #c70303"/>
     <use xlink:href="#m54f220f7c8" x="270.576273" y="164.938578" style="fill: #c70303; stroke: #c70303"/>
     <use xlink:href="#m54f220f7c8" x="284.023117" y="181.032856" style="fill: #c70303; stroke: #c70303"/>
     <use xlink:href="#m54f220f7c8" x="297.469961" y="164.938578" style="fill: #c70303; stroke: #c70303"/>
     <use xlink:href="#m54f220f7c8" x="310.916805" y="164.938578" style="fill: #c70303; stroke: #c70303"/>
     <use xlink:href="#m54f220f7c8" x="324.36365" y="170.571575" style="fill: #c70303; stroke: #c70303"/>
     <use xlink:href="#m54f220f7c8" x="337.810494" y="164.938578" style="fill: #c70303; stroke: #c70303"/>
     <use xlink:href="#m54f220f7c8" x="351.257338" y="154.477297" style="fill: #c70303; stroke: #c70303"/>
     <use xlink:href="#m54f220f7c8" x="364.704182" y="164.938578" style="fill: #c70303; stroke: #c70303"/>
     <use xlink:href="#m54f220f7c8" x="378.151026" y="164.938578" style="fill: #c70303; stroke: #c70303"/>
     <use xlink:href="#m54f220f7c8" x="391.59787" y="148.8443" style="fill: #c70303; stroke: #c70303"/>
     <use xlink:href="#m54f220f7c8" x="405.044714" y="154.477297" style="fill: #c70303; stroke: #c70303"/>
     <use xlink:href="#m54f220f7c8" x="418.491559" y="154.477297" style="fill: #c70303; stroke: #c70303"/>
     <use xlink:href="#m54f220f7c8" x="431.938403" y="148.8443" style="fill: #c70303; stroke: #c70303"/>
     <use xlink:href="#m54f220f7c8" x="445.385247" y="154.477297" style="fill: #c70303; stroke: #c70303"/>
     <use xlink:href="#m54f220f7c8" x="458.832091" y="148.8443" style="fill: #c70303; stroke: #c70303"/>
     <use xlink:href="#m54f220f7c8" x="472.278935" y="148.8443" style="fill: #c70303; stroke: #c70303"/>
     <use xlink:href="#m54f220f7c8" x="485.725779" y="148.8443" style="fill: #c70303; stroke: #c70303"/>
     <use xlink:href="#m54f220f7c8" x="499.172623" y="148.8443" style="fill: #c70303; stroke: #c70303"/>
     <use xlink:href="#m54f220f7c8" x="512.619468" y="181.032856" style="fill: #c70303; stroke: #c70303"/>
     <use xlink:href="#m54f220f7c8" x="526.066312" y="202.760131" style="fill: #c70303; stroke: #c70303"/>
     <use xlink:href="#m54f220f7c8" x="539.513156" y="341.975635" style="fill: #c70303; stroke: #c70303"/>
    </g>
   </g>
   <g id="line2d_20">
    <g>
     <use xlink:href="#m54f220f7c8" x="68.873611" y="100.561467" style="fill: #c70303; stroke: #c70303"/>
     <use xlink:href="#m54f220f7c8" x="82.320455" y="100.561467" style="fill: #c70303; stroke: #c70303"/>
     <use xlink:href="#m54f220f7c8" x="95.767299" y="46.645636" style="fill: #c70303; stroke: #c70303"/>
     <use xlink:href="#m54f220f7c8" x="109.214143" y="73.201194" style="fill: #c70303; stroke: #c70303"/>
     <use xlink:href="#m54f220f7c8" x="122.660988" y="68.372911" style="fill: #c70303; stroke: #c70303"/>
     <use xlink:href="#m54f220f7c8" x="136.107832" y="68.372911" style="fill: #c70303; stroke: #c70303"/>
     <use xlink:href="#m54f220f7c8" x="149.554676" y="62.739914" style="fill: #c70303; stroke: #c70303"/>
     <use xlink:href="#m54f220f7c8" x="163.00152" y="35.379641" style="fill: #c70303; stroke: #c70303"/>
     <use xlink:href="#m54f220f7c8" x="176.448364" y="73.201194" style="fill: #c70303; stroke: #c70303"/>
     <use xlink:href="#m54f220f7c8" x="189.895208" y="67.568197" style="fill: #c70303; stroke: #c70303"/>
     <use xlink:href="#m54f220f7c8" x="203.342052" y="67.568197" style="fill: #c70303; stroke: #c70303"/>
     <use xlink:href="#m54f220f7c8" x="216.788896" y="67.568197" style="fill: #c70303; stroke: #c70303"/>
     <use xlink:href="#m54f220f7c8" x="230.235741" y="78.834191" style="fill: #c70303; stroke: #c70303"/>
     <use xlink:href="#m54f220f7c8" x="243.682585" y="73.201194" style="fill: #c70303; stroke: #c70303"/>
     <use xlink:href="#m54f220f7c8" x="257.129429" y="78.834191" style="fill: #c70303; stroke: #c70303"/>
     <use xlink:href="#m54f220f7c8" x="270.576273" y="73.201194" style="fill: #c70303; stroke: #c70303"/>
     <use xlink:href="#m54f220f7c8" x="284.023117" y="68.372911" style="fill: #c70303; stroke: #c70303"/>
     <use xlink:href="#m54f220f7c8" x="297.469961" y="46.645636" style="fill: #c70303; stroke: #c70303"/>
     <use xlink:href="#m54f220f7c8" x="310.916805" y="52.278633" style="fill: #c70303; stroke: #c70303"/>
     <use xlink:href="#m54f220f7c8" x="324.36365" y="68.372911" style="fill: #c70303; stroke: #c70303"/>
     <use xlink:href="#m54f220f7c8" x="337.810494" y="68.372911" style="fill: #c70303; stroke: #c70303"/>
     <use xlink:href="#m54f220f7c8" x="351.257338" y="68.372911" style="fill: #c70303; stroke: #c70303"/>
     <use xlink:href="#m54f220f7c8" x="364.704182" y="68.372911" style="fill: #c70303; stroke: #c70303"/>
     <use xlink:href="#m54f220f7c8" x="378.151026" y="62.739914" style="fill: #c70303; stroke: #c70303"/>
     <use xlink:href="#m54f220f7c8" x="391.59787" y="62.739914" style="fill: #c70303; stroke: #c70303"/>
     <use xlink:href="#m54f220f7c8" x="405.044714" y="62.739914" style="fill: #c70303; stroke: #c70303"/>
     <use xlink:href="#m54f220f7c8" x="418.491559" y="46.645636" style="fill: #c70303; stroke: #c70303"/>
     <use xlink:href="#m54f220f7c8" x="431.938403" y="52.278633" style="fill: #c70303; stroke: #c70303"/>
     <use xlink:href="#m54f220f7c8" x="445.385247" y="46.645636" style="fill: #c70303; stroke: #c70303"/>
     <use xlink:href="#m54f220f7c8" x="458.832091" y="52.278633" style="fill: #c70303; stroke: #c70303"/>
     <use xlink:href="#m54f220f7c8" x="472.278935" y="62.739914" style="fill: #c70303; stroke: #c70303"/>
     <use xlink:href="#m54f220f7c8" x="485.725779" y="46.645636" style="fill: #c70303; stroke: #c70303"/>
     <use xlink:href="#m54f220f7c8" x="499.172623" y="46.645636" style="fill: #c70303; stroke: #c70303"/>
     <use xlink:href="#m54f220f7c8" x="512.619468" y="100.561467" style="fill: #c70303; stroke: #c70303"/>
     <use xlink:href="#m54f220f7c8" x="526.066312" y="94.928469" style="fill: #c70303; stroke: #c70303"/>
     <use xlink:href="#m54f220f7c8" x="539.513156" y="207.588414" style="fill: #c70303; stroke: #c70303"/>
    </g>
   </g>
   <g id="line2d_21">
    <path d="M 68.873611 214.830839 
L 82.320455 187.470567 
L 95.767299 187.470567 
L 109.214143 182.642284 
L 122.660988 174.595145 
L 136.107832 174.595145 
L 149.554676 169.766861 
L 163.00152 168.157434 
L 176.448364 164.938578 
L 189.895208 160.110295 
L 203.342052 160.110295 
L 216.788896 168.157434 
L 230.235741 158.500867 
L 243.682585 160.110295 
L 257.129429 152.063156 
L 270.576273 153.672583 
L 284.023117 164.938578 
L 297.469961 155.282011 
L 310.916805 153.672583 
L 324.36365 160.110295 
L 337.810494 152.063156 
L 351.257338 144.016017 
L 364.704182 150.453728 
L 378.151026 145.625445 
L 391.59787 144.016017 
L 405.044714 142.406589 
L 418.491559 137.578306 
L 431.938403 140.797161 
L 445.385247 140.797161 
L 458.832091 137.578306 
L 472.278935 137.578306 
L 485.725779 145.625445 
L 499.172623 147.234872 
L 512.619468 172.985717 
L 526.066312 187.470567 
L 539.513156 309.787079 
" clip-path="url(#p92093375eb)" style="fill: none; stroke: #2979ea; stroke-width: 2; stroke-linecap: square"/>
    <defs>
     <path id="mb6790933b4" d="M 0 3.5 
C 0.928211 3.5 1.81853 3.131218 2.474874 2.474874 
C 3.131218 1.81853 3.5 0.928211 3.5 0 
C 3.5 -0.928211 3.131218 -1.81853 2.474874 -2.474874 
C 1.81853 -3.131218 0.928211 -3.5 0 -3.5 
C -0.928211 -3.5 -1.81853 -3.131218 -2.474874 -2.474874 
C -3.131218 -1.81853 -3.5 -0.928211 -3.5 0 
C -3.5 0.928211 -3.131218 1.81853 -2.474874 2.474874 
C -1.81853 3.131218 -0.928211 3.5 0 3.5 
z
" style="stroke: #2979ea"/>
    </defs>
    <g clip-path="url(#p92093375eb)">
     <use xlink:href="#mb6790933b4" x="68.873611" y="214.830839" style="fill: #2979ea; stroke: #2979ea"/>
     <use xlink:href="#mb6790933b4" x="82.320455" y="187.470567" style="fill: #2979ea; stroke: #2979ea"/>
     <use xlink:href="#mb6790933b4" x="95.767299" y="187.470567" style="fill: #2979ea; stroke: #2979ea"/>
     <use xlink:href="#mb6790933b4" x="109.214143" y="182.642284" style="fill: #2979ea; stroke: #2979ea"/>
     <use xlink:href="#mb6790933b4" x="122.660988" y="174.595145" style="fill: #2979ea; stroke: #2979ea"/>
     <use xlink:href="#mb6790933b4" x="136.107832" y="174.595145" style="fill: #2979ea; stroke: #2979ea"/>
     <use xlink:href="#mb6790933b4" x="149.554676" y="169.766861" style="fill: #2979ea; stroke: #2979ea"/>
     <use xlink:href="#mb6790933b4" x="163.00152" y="168.157434" style="fill: #2979ea; stroke: #2979ea"/>
     <use xlink:href="#mb6790933b4" x="176.448364" y="164.938578" style="fill: #2979ea; stroke: #2979ea"/>
     <use xlink:href="#mb6790933b4" x="189.895208" y="160.110295" style="fill: #2979ea; stroke: #2979ea"/>
     <use xlink:href="#mb6790933b4" x="203.342052" y="160.110295" style="fill: #2979ea; stroke: #2979ea"/>
     <use xlink:href="#mb6790933b4" x="216.788896" y="168.157434" style="fill: #2979ea; stroke: #2979ea"/>
     <use xlink:href="#mb6790933b4" x="230.235741" y="158.500867" style="fill: #2979ea; stroke: #2979ea"/>
     <use xlink:href="#mb6790933b4" x="243.682585" y="160.110295" style="fill: #2979ea; stroke: #2979ea"/>
     <use xlink:href="#mb6790933b4" x="257.129429" y="152.063156" style="fill: #2979ea; stroke: #2979ea"/>
     <use xlink:href="#mb6790933b4" x="270.576273" y="153.672583" style="fill: #2979ea; stroke: #2979ea"/>
     <use xlink:href="#mb6790933b4" x="284.023117" y="164.938578" style="fill: #2979ea; stroke: #2979ea"/>
     <use xlink:href="#mb6790933b4" x="297.469961" y="155.282011" style="fill: #2979ea; stroke: #2979ea"/>
     <use xlink:href="#mb6790933b4" x="310.916805" y="153.672583" style="fill: #2979ea; stroke: #2979ea"/>
     <use xlink:href="#mb6790933b4" x="324.36365" y="160.110295" style="fill: #2979ea; stroke: #2979ea"/>
     <use xlink:href="#mb6790933b4" x="337.810494" y="152.063156" style="fill: #2979ea; stroke: #2979ea"/>
     <use xlink:href="#mb6790933b4" x="351.257338" y="144.016017" style="fill: #2979ea; stroke: #2979ea"/>
     <use xlink:href="#mb6790933b4" x="364.704182" y="150.453728" style="fill: #2979ea; stroke: #2979ea"/>
     <use xlink:href="#mb6790933b4" x="378.151026" y="145.625445" style="fill: #2979ea; stroke: #2979ea"/>
     <use xlink:href="#mb6790933b4" x="391.59787" y="144.016017" style="fill: #2979ea; stroke: #2979ea"/>
     <use xlink:href="#mb6790933b4" x="405.044714" y="142.406589" style="fill: #2979ea; stroke: #2979ea"/>
     <use xlink:href="#mb6790933b4" x="418.491559" y="137.578306" style="fill: #2979ea; stroke: #2979ea"/>
     <use xlink:href="#mb6790933b4" x="431.938403" y="140.797161" style="fill: #2979ea; stroke: #2979ea"/>
     <use xlink:href="#mb6790933b4" x="445.385247" y="140.797161" style="fill: #2979ea; stroke: #2979ea"/>
     <use xlink:href="#mb6790933b4" x="458.832091" y="137.578306" style="fill: #2979ea; stroke: #2979ea"/>
     <use xlink:href="#mb6790933b4" x="472.278935" y="137.578306" style="fill: #2979ea; stroke: #2979ea"/>
     <use xlink:href="#mb6790933b4" x="485.725779" y="145.625445" style="fill: #2979ea; stroke: #2979ea"/>
     <use xlink:href="#mb6790933b4" x="499.172623" y="147.234872" style="fill: #2979ea; stroke: #2979ea"/>
     <use xlink:href="#mb6790933b4" x="512.619468" y="172.985717" style="fill: #2979ea; stroke: #2979ea"/>
     <use xlink:href="#mb6790933b4" x="526.066312" y="187.470567" style="fill: #2979ea; stroke: #2979ea"/>
     <use xlink:href="#mb6790933b4" x="539.513156" y="309.787079" style="fill: #2979ea; stroke: #2979ea"/>
    </g>
   </g>
   <g id="line2d_22">
    <defs>
     <path id="m03bfa6e1ac" d="M 0 2 
C 0.530406 2 1.03916 1.789267 1.414214 1.414214 
C 1.789267 1.03916 2 0.530406 2 0 
C 2 -0.530406 1.789267 -1.03916 1.414214 -1.414214 
C 1.03916 -1.789267 0.530406 -2 0 -2 
C -0.530406 -2 -1.03916 -1.789267 -1.414214 -1.414214 
C -1.789267 -1.03916 -2 -0.530406 -2 0 
C -2 0.530406 -1.789267 1.03916 -1.414214 1.414214 
C -1.03916 1.789267 -0.530406 2 0 2 
z
" style="stroke: #c70303"/>
    </defs>
    <g>
     <use xlink:href="#m03bfa6e1ac" x="68.873611" y="179.945405" style="fill: #c70303; stroke: #c70303"/>
     <use xlink:href="#m03bfa6e1ac" x="82.320455" y="156.238968" style="fill: #c70303; stroke: #c70303"/>
     <use xlink:href="#m03bfa6e1ac" x="95.767299" y="151.019203" style="fill: #c70303; stroke: #c70303"/>
     <use xlink:href="#m03bfa6e1ac" x="109.214143" y="147.974339" style="fill: #c70303; stroke: #c70303"/>
     <use xlink:href="#m03bfa6e1ac" x="122.660988" y="139.49222" style="fill: #c70303; stroke: #c70303"/>
     <use xlink:href="#m03bfa6e1ac" x="136.107832" y="142.102103" style="fill: #c70303; stroke: #c70303"/>
     <use xlink:href="#m03bfa6e1ac" x="149.554676" y="137.317317" style="fill: #c70303; stroke: #c70303"/>
     <use xlink:href="#m03bfa6e1ac" x="163.00152" y="133.185003" style="fill: #c70303; stroke: #c70303"/>
     <use xlink:href="#m03bfa6e1ac" x="176.448364" y="133.402493" style="fill: #c70303; stroke: #c70303"/>
     <use xlink:href="#m03bfa6e1ac" x="189.895208" y="132.750022" style="fill: #c70303; stroke: #c70303"/>
     <use xlink:href="#m03bfa6e1ac" x="203.342052" y="131.227591" style="fill: #c70303; stroke: #c70303"/>
     <use xlink:href="#m03bfa6e1ac" x="216.788896" y="130.140139" style="fill: #c70303; stroke: #c70303"/>
     <use xlink:href="#m03bfa6e1ac" x="230.235741" y="127.747747" style="fill: #c70303; stroke: #c70303"/>
     <use xlink:href="#m03bfa6e1ac" x="243.682585" y="128.835198" style="fill: #c70303; stroke: #c70303"/>
     <use xlink:href="#m03bfa6e1ac" x="257.129429" y="127.095276" style="fill: #c70303; stroke: #c70303"/>
     <use xlink:href="#m03bfa6e1ac" x="270.576273" y="126.225315" style="fill: #c70303; stroke: #c70303"/>
     <use xlink:href="#m03bfa6e1ac" x="284.023117" y="133.402493" style="fill: #c70303; stroke: #c70303"/>
     <use xlink:href="#m03bfa6e1ac" x="297.469961" y="116.003274" style="fill: #c70303; stroke: #c70303"/>
     <use xlink:href="#m03bfa6e1ac" x="310.916805" y="124.920374" style="fill: #c70303; stroke: #c70303"/>
     <use xlink:href="#m03bfa6e1ac" x="324.36365" y="127.747747" style="fill: #c70303; stroke: #c70303"/>
     <use xlink:href="#m03bfa6e1ac" x="337.810494" y="121.65802" style="fill: #c70303; stroke: #c70303"/>
     <use xlink:href="#m03bfa6e1ac" x="351.257338" y="120.570569" style="fill: #c70303; stroke: #c70303"/>
     <use xlink:href="#m03bfa6e1ac" x="364.704182" y="119.048137" style="fill: #c70303; stroke: #c70303"/>
     <use xlink:href="#m03bfa6e1ac" x="378.151026" y="118.830647" style="fill: #c70303; stroke: #c70303"/>
     <use xlink:href="#m03bfa6e1ac" x="391.59787" y="115.133313" style="fill: #c70303; stroke: #c70303"/>
     <use xlink:href="#m03bfa6e1ac" x="405.044714" y="112.52343" style="fill: #c70303; stroke: #c70303"/>
     <use xlink:href="#m03bfa6e1ac" x="418.491559" y="109.261076" style="fill: #c70303; stroke: #c70303"/>
     <use xlink:href="#m03bfa6e1ac" x="431.938403" y="111.435979" style="fill: #c70303; stroke: #c70303"/>
     <use xlink:href="#m03bfa6e1ac" x="445.385247" y="106.216213" style="fill: #c70303; stroke: #c70303"/>
     <use xlink:href="#m03bfa6e1ac" x="458.832091" y="106.651193" style="fill: #c70303; stroke: #c70303"/>
     <use xlink:href="#m03bfa6e1ac" x="472.278935" y="111.000998" style="fill: #c70303; stroke: #c70303"/>
     <use xlink:href="#m03bfa6e1ac" x="485.725779" y="107.086174" style="fill: #c70303; stroke: #c70303"/>
     <use xlink:href="#m03bfa6e1ac" x="499.172623" y="111.435979" style="fill: #c70303; stroke: #c70303"/>
     <use xlink:href="#m03bfa6e1ac" x="512.619468" y="143.842025" style="fill: #c70303; stroke: #c70303"/>
     <use xlink:href="#m03bfa6e1ac" x="526.066312" y="156.021478" style="fill: #c70303; stroke: #c70303"/>
     <use xlink:href="#m03bfa6e1ac" x="539.513156" y="283.68825" style="fill: #c70303; stroke: #c70303"/>
    </g>
   </g>
   <g id="patch_3">
    <path d="M 55.426767 374.16419 
L 55.426767 12.042938 
" style="fill: none; stroke: #000000; stroke-width: 0.6; stroke-linejoin: miter; stroke-linecap: square"/>
   </g>
   <g id="patch_4">
    <path d="M 55.426767 374.16419 
L 552.96 374.16419 
" style="fill: none; stroke: #000000; stroke-width: 0.6; stroke-linejoin: miter; stroke-linecap: square"/>
   </g>
  </g>
 </g>
 <defs>
  <clipPath id="p92093375eb">
   <rect x="55.426767" y="12.042938" width="497.533233" height="362.121252"/>
  </clipPath>
 </defs>
</svg>
