<?xml version="1.0" encoding="utf-8" standalone="no"?>
<!DOCTYPE svg PUBLIC "-//W3C//DTD SVG 1.1//EN"
  "http://www.w3.org/Graphics/SVG/1.1/DTD/svg11.dtd">
<svg xmlns:xlink="http://www.w3.org/1999/xlink" width="560.16pt" height="416.16pt" viewBox="0 0 560.16 416.16" xmlns="http://www.w3.org/2000/svg" version="1.1">
 <metadata>
  <rdf:RDF xmlns:dc="http://purl.org/dc/elements/1.1/" xmlns:cc="http://creativecommons.org/ns#" xmlns:rdf="http://www.w3.org/1999/02/22-rdf-syntax-ns#">
   <cc:Work>
    <dc:type rdf:resource="http://purl.org/dc/dcmitype/StillImage"/>
    <dc:date>2025-12-19T21:03:13.043294</dc:date>
    <dc:format>image/svg+xml</dc:format>
    <dc:creator>
     <cc:Agent>
      <dc:title>Matplotlib v3.10.3, https://matplotlib.org/</dc:title>
     </cc:Agent>
    </dc:creator>
   </cc:Work>
  </rdf:RDF>
 </metadata>
 <defs>
  <style type="text/css">*{stroke-linejoin: round; stroke-linecap: butt}</style>
 </defs>
 <g id="figure_1">
  <g id="patch_1">
   <path d="M 0 416.16 
L 560.16 416.16 
L 560.16 0 
L 0 0 
L 0 416.16 
z
" style="fill: none"/>
  </g>
  <g id="axes_1">
   <g id="patch_2">
    <path d="M 44.804673 372.614399 
L 549.545756 372.614399 
L 549.545756 12.042938 
L 44.804673 12.042938 
L 44.804673 372.614399 
z
" style="fill: none"/>
   </g>
   <g id="matplotlib.axis_1">
    <g id="xtick_1">
     <g id="line2d_1">
      <defs>
       <path id="m4cd371f86f" d="M 0 0 
L 0 2.5 
" style="stroke: #000000; stroke-width: 0.6"/>
      </defs>
      <g>
       <use xlink:href="#m4cd371f86f" x="44.804673" y="372.614399" style="stroke: #000000; stroke-width: 0.6"/>
      </g>
     </g>
     <g id="text_1">
      <!-- $\mathdefault{0}$ -->
      <g transform="translate(41.390429 388.300275) scale(0.14 -0.14)">
       <defs>
        <path id="CMR17-30" d="M 2688 2025 
C 2688 2416 2682 3080 2413 3591 
C 2176 4039 1798 4198 1466 4198 
C 1158 4198 768 4058 525 3597 
C 269 3118 243 2524 243 2025 
C 243 1661 250 1106 448 619 
C 723 -39 1216 -128 1466 -128 
C 1760 -128 2208 -7 2470 600 
C 2662 1042 2688 1559 2688 2025 
z
M 1466 -26 
C 1056 -26 813 325 723 812 
C 653 1188 653 1738 653 2096 
C 653 2588 653 2997 736 3387 
C 858 3929 1216 4096 1466 4096 
C 1728 4096 2067 3923 2189 3400 
C 2272 3036 2278 2607 2278 2096 
C 2278 1680 2278 1169 2202 792 
C 2067 95 1690 -26 1466 -26 
z
" transform="scale(0.015625)"/>
       </defs>
       <use xlink:href="#CMR17-30" transform="scale(0.996264)"/>
      </g>
     </g>
    </g>
    <g id="xtick_2">
     <g id="line2d_2">
      <g>
       <use xlink:href="#m4cd371f86f" x="145.75289" y="372.614399" style="stroke: #000000; stroke-width: 0.6"/>
      </g>
     </g>
     <g id="text_2">
      <!-- $\mathdefault{1}$ -->
      <g transform="translate(142.338646 388.300275) scale(0.14 -0.14)">
       <defs>
        <path id="CMR17-31" d="M 1702 4058 
C 1702 4192 1696 4192 1606 4192 
C 1357 3916 979 3827 621 3827 
C 602 3827 570 3827 563 3808 
C 557 3795 557 3782 557 3648 
C 755 3648 1088 3686 1344 3839 
L 1344 461 
C 1344 236 1331 160 781 160 
L 589 160 
L 589 0 
C 896 0 1216 0 1523 0 
C 1830 0 2150 0 2458 0 
L 2458 160 
L 2266 160 
C 1715 160 1702 230 1702 458 
L 1702 4058 
z
" transform="scale(0.015625)"/>
       </defs>
       <use xlink:href="#CMR17-31" transform="scale(0.996264)"/>
      </g>
     </g>
    </g>
    <g id="xtick_3">
     <g id="line2d_3">
      <g>
       <use xlink:href="#m4cd371f86f" x="246.701106" y="372.614399" style="stroke: #000000; stroke-width: 0.6"/>
      </g>
     </g>
     <g id="text_3">
      <!-- $\mathdefault{2}$ -->
      <g transform="translate(243.286862 388.300275) scale(0.14 -0.14)">
       <defs>
        <path id="CMR17-32" d="M 2669 989 
L 2554 989 
C 2490 536 2438 459 2413 420 
C 2381 369 1920 369 1830 369 
L 602 369 
C 832 619 1280 1072 1824 1597 
C 2214 1967 2669 2402 2669 3035 
C 2669 3790 2067 4224 1395 4224 
C 691 4224 262 3604 262 3030 
C 262 2780 448 2748 525 2748 
C 589 2748 781 2787 781 3010 
C 781 3207 614 3264 525 3264 
C 486 3264 448 3258 422 3245 
C 544 3790 915 4058 1306 4058 
C 1862 4058 2227 3617 2227 3035 
C 2227 2479 1901 2000 1536 1584 
L 262 146 
L 262 0 
L 2515 0 
L 2669 989 
z
" transform="scale(0.015625)"/>
       </defs>
       <use xlink:href="#CMR17-32" transform="scale(0.996264)"/>
      </g>
     </g>
    </g>
    <g id="xtick_4">
     <g id="line2d_4">
      <g>
       <use xlink:href="#m4cd371f86f" x="347.649323" y="372.614399" style="stroke: #000000; stroke-width: 0.6"/>
      </g>
     </g>
     <g id="text_4">
      <!-- $\mathdefault{3}$ -->
      <g transform="translate(344.235078 388.300275) scale(0.14 -0.14)">
       <defs>
        <path id="CMR17-33" d="M 1414 2157 
C 1984 2157 2234 1662 2234 1090 
C 2234 320 1824 25 1453 25 
C 1114 25 563 194 390 693 
C 422 680 454 680 486 680 
C 640 680 755 782 755 948 
C 755 1133 614 1216 486 1216 
C 378 1216 211 1165 211 926 
C 211 335 787 -128 1466 -128 
C 2176 -128 2720 430 2720 1085 
C 2720 1707 2208 2157 1600 2227 
C 2086 2328 2554 2756 2554 3329 
C 2554 3820 2048 4179 1472 4179 
C 890 4179 378 3829 378 3329 
C 378 3110 544 3072 627 3072 
C 762 3072 877 3155 877 3321 
C 877 3486 762 3569 627 3569 
C 602 3569 570 3569 544 3557 
C 730 3959 1235 4032 1459 4032 
C 1683 4032 2106 3925 2106 3320 
C 2106 3143 2080 2828 1862 2550 
C 1670 2304 1453 2304 1242 2284 
C 1210 2284 1062 2269 1037 2269 
C 992 2263 966 2257 966 2208 
C 966 2163 973 2157 1101 2157 
L 1414 2157 
z
" transform="scale(0.015625)"/>
       </defs>
       <use xlink:href="#CMR17-33" transform="scale(0.996264)"/>
      </g>
     </g>
    </g>
    <g id="xtick_5">
     <g id="line2d_5">
      <g>
       <use xlink:href="#m4cd371f86f" x="448.597539" y="372.614399" style="stroke: #000000; stroke-width: 0.6"/>
      </g>
     </g>
     <g id="text_5">
      <!-- $\mathdefault{4}$ -->
      <g transform="translate(445.183295 388.300275) scale(0.14 -0.14)">
       <defs>
        <path id="CMR17-34" d="M 2150 4122 
C 2150 4256 2144 4256 2029 4256 
L 128 1254 
L 128 1088 
L 1779 1088 
L 1779 457 
C 1779 224 1766 160 1318 160 
L 1197 160 
L 1197 0 
C 1402 0 1747 0 1965 0 
C 2182 0 2528 0 2733 0 
L 2733 160 
L 2611 160 
C 2163 160 2150 224 2150 457 
L 2150 1088 
L 2803 1088 
L 2803 1254 
L 2150 1254 
L 2150 4122 
z
M 1798 3703 
L 1798 1254 
L 256 1254 
L 1798 3703 
z
" transform="scale(0.015625)"/>
       </defs>
       <use xlink:href="#CMR17-34" transform="scale(0.996264)"/>
      </g>
     </g>
    </g>
    <g id="xtick_6">
     <g id="line2d_6">
      <g>
       <use xlink:href="#m4cd371f86f" x="549.545756" y="372.614399" style="stroke: #000000; stroke-width: 0.6"/>
      </g>
     </g>
     <g id="text_6">
      <!-- $\mathdefault{5}$ -->
      <g transform="translate(546.131511 388.300275) scale(0.14 -0.14)">
       <defs>
        <path id="CMR17-35" d="M 730 3692 
C 794 3666 1056 3584 1325 3584 
C 1920 3584 2246 3911 2432 4100 
C 2432 4157 2432 4192 2394 4192 
C 2387 4192 2374 4192 2323 4163 
C 2099 4058 1837 3973 1517 3973 
C 1325 3973 1037 3999 723 4139 
C 653 4171 640 4171 634 4171 
C 602 4171 595 4164 595 4037 
L 595 2203 
C 595 2089 595 2057 659 2057 
C 691 2057 704 2070 736 2114 
C 941 2401 1222 2522 1542 2522 
C 1766 2522 2246 2382 2246 1289 
C 2246 1085 2246 715 2054 421 
C 1894 159 1645 25 1370 25 
C 947 25 518 320 403 814 
C 429 807 480 795 506 795 
C 589 795 749 840 749 1038 
C 749 1210 627 1280 506 1280 
C 358 1280 262 1190 262 1011 
C 262 454 704 -128 1382 -128 
C 2042 -128 2669 440 2669 1264 
C 2669 2030 2170 2624 1549 2624 
C 1222 2624 947 2503 730 2274 
L 730 3692 
z
" transform="scale(0.015625)"/>
       </defs>
       <use xlink:href="#CMR17-35" transform="scale(0.996264)"/>
      </g>
     </g>
    </g>
    <g id="text_7">
     <!-- duration (min) -->
     <g transform="translate(252.790038 405.473076) scale(0.14 -0.14)">
      <defs>
       <path id="CMR17-64" d="M 1869 4326 
L 1869 4160 
C 2246 4160 2304 4122 2304 3820 
L 2304 2345 
C 2278 2377 2016 2790 1498 2790 
C 845 2790 211 2208 211 1364 
C 211 525 806 -64 1434 -64 
C 1978 -64 2259 337 2291 380 
L 2291 -63 
L 3066 -63 
L 3066 128 
C 2688 128 2630 166 2630 473 
L 2630 4396 
L 1869 4326 
z
M 2291 755 
C 2291 563 2176 390 2029 262 
C 1811 70 1594 38 1472 38 
C 1286 38 621 134 621 1356 
C 621 2612 1363 2688 1530 2688 
C 1824 2688 2061 2522 2208 2291 
C 2291 2157 2291 2138 2291 2023 
L 2291 755 
z
" transform="scale(0.015625)"/>
       <path id="CMR17-75" d="M 1882 2693 
L 1882 2528 
C 2259 2528 2317 2489 2317 2186 
L 2317 1032 
C 2317 500 2029 38 1555 38 
C 1030 38 986 348 986 678 
L 986 2763 
L 211 2693 
L 211 2528 
C 467 2528 640 2528 646 2274 
L 646 1058 
C 646 633 646 361 813 183 
C 896 101 1056 -64 1517 -64 
C 2061 -64 2272 377 2323 506 
L 2330 506 
L 2330 -63 
L 3091 -63 
L 3091 128 
C 2714 128 2656 166 2656 473 
L 2656 2763 
L 1882 2693 
z
" transform="scale(0.015625)"/>
       <path id="CMR17-72" d="M 960 1497 
C 960 2112 1222 2688 1702 2688 
C 1747 2688 1792 2682 1837 2662 
C 1837 2662 1696 2617 1696 2452 
C 1696 2298 1818 2234 1914 2234 
C 1990 2234 2131 2279 2131 2458 
C 2131 2663 1926 2790 1709 2790 
C 1222 2790 1011 2317 947 2093 
L 941 2093 
L 941 2790 
L 198 2720 
L 198 2554 
C 576 2554 634 2515 634 2208 
L 634 428 
C 634 184 608 153 198 153 
L 198 -13 
C 352 0 646 0 813 0 
C 998 0 1325 0 1498 -13 
L 1498 153 
C 1037 153 960 153 960 440 
L 960 1497 
z
" transform="scale(0.015625)"/>
       <path id="CMR17-61" d="M 2304 1653 
C 2304 2072 2304 2294 2035 2543 
C 1798 2752 1523 2816 1306 2816 
C 800 2816 435 2407 435 1971 
C 435 1728 627 1728 666 1728 
C 749 1728 896 1778 896 1954 
C 896 2112 774 2181 666 2181 
C 640 2181 608 2174 589 2168 
C 723 2592 1069 2714 1293 2714 
C 1613 2714 1965 2429 1965 1885 
L 1965 1600 
C 1587 1600 1133 1549 774 1357 
C 371 1133 256 813 256 570 
C 256 77 832 -64 1171 -64 
C 1523 -64 1850 139 1990 511 
C 2003 233 2182 -18 2464 -18 
C 2598 -18 2938 70 2938 567 
L 2938 920 
L 2822 920 
L 2822 562 
C 2822 178 2650 128 2566 128 
C 2304 128 2304 458 2304 738 
L 2304 1653 
z
M 1965 870 
C 1965 317 1568 38 1216 38 
C 896 38 646 275 646 570 
C 646 761 730 1100 1101 1305 
C 1408 1478 1760 1504 1965 1504 
L 1965 870 
z
" transform="scale(0.015625)"/>
       <path id="CMR17-74" d="M 966 2560 
L 1862 2560 
L 1862 2725 
L 966 2725 
L 966 3904 
L 851 3904 
C 838 3245 614 2668 70 2668 
L 70 2560 
L 627 2560 
L 627 771 
C 627 650 627 -64 1370 -64 
C 1747 -64 1965 306 1965 777 
L 1965 1140 
L 1850 1140 
L 1850 783 
C 1850 344 1677 51 1408 51 
C 1222 51 966 178 966 758 
L 966 2560 
z
" transform="scale(0.015625)"/>
       <path id="CMR17-69" d="M 992 3909 
C 992 4049 877 4170 730 4170 
C 589 4170 467 4056 467 3909 
C 467 3769 582 3648 730 3648 
C 870 3648 992 3763 992 3909 
z
M 243 2706 
L 243 2541 
C 602 2541 653 2502 653 2197 
L 653 427 
C 653 184 627 153 218 153 
L 218 -13 
C 371 0 646 0 806 0 
C 960 0 1222 0 1370 -13 
L 1370 153 
C 992 153 979 191 979 420 
L 979 2776 
L 243 2706 
z
" transform="scale(0.015625)"/>
       <path id="CMR17-6f" d="M 2758 1356 
C 2758 2176 2163 2816 1466 2816 
C 768 2816 173 2176 173 1356 
C 173 551 768 -64 1466 -64 
C 2163 -64 2758 551 2758 1356 
z
M 1466 51 
C 1165 51 909 230 762 480 
C 602 767 582 1126 582 1408 
C 582 1677 595 2010 762 2298 
C 890 2509 1139 2714 1466 2714 
C 1754 2714 1997 2554 2150 2330 
C 2349 2029 2349 1607 2349 1408 
C 2349 1158 2336 775 2163 467 
C 1984 173 1709 51 1466 51 
z
" transform="scale(0.015625)"/>
       <path id="CMR17-6e" d="M 2656 1933 
C 2656 2259 2592 2790 1837 2790 
C 1331 2790 1069 2400 973 2144 
L 966 2144 
L 966 2790 
L 211 2720 
L 211 2554 
C 589 2554 646 2515 646 2208 
L 646 428 
C 646 184 621 153 211 153 
L 211 -13 
C 365 0 646 0 813 0 
C 979 0 1267 0 1421 -13 
L 1421 153 
C 1011 153 986 178 986 428 
L 986 1658 
C 986 2247 1344 2688 1792 2688 
C 2266 2688 2317 2266 2317 1958 
L 2317 428 
C 2317 184 2291 153 1882 153 
L 1882 -13 
C 2035 0 2317 0 2483 0 
C 2650 0 2938 0 3091 -13 
L 3091 153 
C 2682 153 2656 178 2656 428 
L 2656 1933 
z
" transform="scale(0.015625)"/>
       <path id="CMR17-28" d="M 1958 -1561 
C 1958 -1555 1958 -1542 1939 -1523 
C 1645 -1224 858 -407 858 1581 
C 858 3569 1632 4379 1946 4697 
C 1946 4704 1958 4717 1958 4736 
C 1958 4755 1939 4768 1914 4768 
C 1843 4768 1299 4296 986 3594 
C 666 2887 576 2199 576 1588 
C 576 1128 621 351 1005 -471 
C 1312 -1135 1837 -1600 1914 -1600 
C 1946 -1600 1958 -1587 1958 -1561 
z
" transform="scale(0.015625)"/>
       <path id="CMR17-6d" d="M 4326 1933 
C 4326 2252 4269 2790 3507 2790 
C 3072 2790 2771 2496 2656 2151 
L 2650 2151 
C 2573 2676 2195 2790 1837 2790 
C 1331 2790 1069 2400 973 2144 
L 966 2144 
L 966 2790 
L 211 2720 
L 211 2554 
C 589 2554 646 2515 646 2208 
L 646 428 
C 646 184 621 153 211 153 
L 211 -13 
C 365 0 646 0 813 0 
C 979 0 1267 0 1421 -13 
L 1421 153 
C 1011 153 986 178 986 428 
L 986 1658 
C 986 2247 1344 2688 1792 2688 
C 2266 2688 2317 2266 2317 1958 
L 2317 428 
C 2317 184 2291 153 1882 153 
L 1882 -13 
C 2035 0 2317 0 2483 0 
C 2650 0 2938 0 3091 -13 
L 3091 153 
C 2682 153 2656 178 2656 428 
L 2656 1658 
C 2656 2247 3014 2688 3462 2688 
C 3936 2688 3987 2266 3987 1958 
L 3987 428 
C 3987 184 3962 153 3552 153 
L 3552 -13 
C 3706 0 3987 0 4154 0 
C 4320 0 4608 0 4762 -13 
L 4762 153 
C 4352 153 4326 178 4326 428 
L 4326 1933 
z
" transform="scale(0.015625)"/>
       <path id="CMR17-29" d="M 1683 1581 
C 1683 2040 1638 2817 1254 3639 
C 947 4303 422 4768 346 4768 
C 326 4768 301 4761 301 4729 
C 301 4717 307 4710 314 4697 
C 621 4378 1402 3568 1402 1584 
C 1402 -407 627 -1217 314 -1537 
C 307 -1549 301 -1556 301 -1568 
C 301 -1600 326 -1600 346 -1600 
C 416 -1600 960 -1128 1274 -426 
C 1594 281 1683 969 1683 1581 
z
" transform="scale(0.015625)"/>
      </defs>
      <use xlink:href="#CMR17-64" transform="scale(0.996264)"/>
      <use xlink:href="#CMR17-75" transform="translate(50.89537 0) scale(0.996264)"/>
      <use xlink:href="#CMR17-72" transform="translate(101.79074 0) scale(0.996264)"/>
      <use xlink:href="#CMR17-61" transform="translate(137.071507 0) scale(0.996264)"/>
      <use xlink:href="#CMR17-74" transform="translate(182.761984 0) scale(0.996264)"/>
      <use xlink:href="#CMR17-69" transform="translate(218.042752 0) scale(0.996264)"/>
      <use xlink:href="#CMR17-6f" transform="translate(242.913811 0) scale(0.996264)"/>
      <use xlink:href="#CMR17-6e" transform="translate(288.604288 0) scale(0.996264)"/>
      <use xlink:href="#CMR17-28" transform="translate(369.575624 0) scale(0.996264)"/>
      <use xlink:href="#CMR17-6d" transform="translate(404.856392 0) scale(0.996264)"/>
      <use xlink:href="#CMR17-69" transform="translate(481.775982 0) scale(0.996264)"/>
      <use xlink:href="#CMR17-6e" transform="translate(506.64704 0) scale(0.996264)"/>
      <use xlink:href="#CMR17-29" transform="translate(557.54241 0) scale(0.996264)"/>
     </g>
    </g>
   </g>
   <g id="matplotlib.axis_2">
    <g id="ytick_1">
     <g id="line2d_7">
      <defs>
       <path id="m56f3a9ced1" d="M 0 0 
L -2.5 0 
" style="stroke: #000000; stroke-width: 0.6"/>
      </defs>
      <g>
       <use xlink:href="#m56f3a9ced1" x="44.804673" y="372.614399" style="stroke: #000000; stroke-width: 0.6"/>
      </g>
     </g>
     <g id="text_8">
      <!-- $\mathdefault{0}$ -->
      <g transform="translate(31.976185 377.457337) scale(0.14 -0.14)">
       <use xlink:href="#CMR17-30" transform="scale(0.996264)"/>
      </g>
     </g>
    </g>
    <g id="ytick_2">
     <g id="line2d_8">
      <g>
       <use xlink:href="#m56f3a9ced1" x="44.804673" y="321.10419" style="stroke: #000000; stroke-width: 0.6"/>
      </g>
     </g>
     <g id="text_9">
      <!-- $\mathdefault{5}$ -->
      <g transform="translate(31.976185 325.947129) scale(0.14 -0.14)">
       <use xlink:href="#CMR17-35" transform="scale(0.996264)"/>
      </g>
     </g>
    </g>
    <g id="ytick_3">
     <g id="line2d_9">
      <g>
       <use xlink:href="#m56f3a9ced1" x="44.804673" y="269.593982" style="stroke: #000000; stroke-width: 0.6"/>
      </g>
     </g>
     <g id="text_10">
      <!-- $\mathdefault{10}$ -->
      <g transform="translate(25.147696 274.43692) scale(0.14 -0.14)">
       <use xlink:href="#CMR17-31" transform="scale(0.996264)"/>
       <use xlink:href="#CMR17-30" transform="translate(45.690477 0) scale(0.996264)"/>
      </g>
     </g>
    </g>
    <g id="ytick_4">
     <g id="line2d_10">
      <g>
       <use xlink:href="#m56f3a9ced1" x="44.804673" y="218.083773" style="stroke: #000000; stroke-width: 0.6"/>
      </g>
     </g>
     <g id="text_11">
      <!-- $\mathdefault{15}$ -->
      <g transform="translate(25.147696 222.926711) scale(0.14 -0.14)">
       <use xlink:href="#CMR17-31" transform="scale(0.996264)"/>
       <use xlink:href="#CMR17-35" transform="translate(45.690477 0) scale(0.996264)"/>
      </g>
     </g>
    </g>
    <g id="ytick_5">
     <g id="line2d_11">
      <g>
       <use xlink:href="#m56f3a9ced1" x="44.804673" y="166.573564" style="stroke: #000000; stroke-width: 0.6"/>
      </g>
     </g>
     <g id="text_12">
      <!-- $\mathdefault{20}$ -->
      <g transform="translate(25.147696 171.416503) scale(0.14 -0.14)">
       <use xlink:href="#CMR17-32" transform="scale(0.996264)"/>
       <use xlink:href="#CMR17-30" transform="translate(45.690477 0) scale(0.996264)"/>
      </g>
     </g>
    </g>
    <g id="ytick_6">
     <g id="line2d_12">
      <g>
       <use xlink:href="#m56f3a9ced1" x="44.804673" y="115.063356" style="stroke: #000000; stroke-width: 0.6"/>
      </g>
     </g>
     <g id="text_13">
      <!-- $\mathdefault{25}$ -->
      <g transform="translate(25.147696 119.906294) scale(0.14 -0.14)">
       <use xlink:href="#CMR17-32" transform="scale(0.996264)"/>
       <use xlink:href="#CMR17-35" transform="translate(45.690477 0) scale(0.996264)"/>
      </g>
     </g>
    </g>
    <g id="ytick_7">
     <g id="line2d_13">
      <g>
       <use xlink:href="#m56f3a9ced1" x="44.804673" y="63.553147" style="stroke: #000000; stroke-width: 0.6"/>
      </g>
     </g>
     <g id="text_14">
      <!-- $\mathdefault{30}$ -->
      <g transform="translate(25.147696 68.396085) scale(0.14 -0.14)">
       <use xlink:href="#CMR17-33" transform="scale(0.996264)"/>
       <use xlink:href="#CMR17-30" transform="translate(45.690477 0) scale(0.996264)"/>
      </g>
     </g>
    </g>
    <g id="ytick_8">
     <g id="line2d_14">
      <g>
       <use xlink:href="#m56f3a9ced1" x="44.804673" y="12.042938" style="stroke: #000000; stroke-width: 0.6"/>
      </g>
     </g>
     <g id="text_15">
      <!-- $\mathdefault{35}$ -->
      <g transform="translate(25.147696 16.885876) scale(0.14 -0.14)">
       <use xlink:href="#CMR17-33" transform="scale(0.996264)"/>
       <use xlink:href="#CMR17-35" transform="translate(45.690477 0) scale(0.996264)"/>
      </g>
     </g>
    </g>
    <g id="text_16">
     <!-- elevation (m) -->
     <g transform="translate(17.660772 231.971839) rotate(-90) scale(0.14 -0.14)">
      <defs>
       <path id="CMR17-65" d="M 2438 1472 
C 2464 1498 2464 1511 2464 1576 
C 2464 2238 2118 2816 1389 2816 
C 710 2816 173 2169 173 1383 
C 173 551 781 -64 1459 -64 
C 2176 -64 2458 607 2458 740 
C 2458 784 2419 784 2406 784 
C 2362 784 2355 771 2330 696 
C 2189 265 1837 51 1504 51 
C 1229 51 954 203 781 480 
C 582 803 582 1176 582 1472 
L 2438 1472 
z
M 589 1568 
C 634 2505 1126 2714 1382 2714 
C 1818 2714 2112 2297 2118 1568 
L 589 1568 
z
" transform="scale(0.015625)"/>
       <path id="CMR17-6c" d="M 979 4396 
L 218 4326 
L 218 4160 
C 595 4160 653 4122 653 3817 
L 653 426 
C 653 184 627 153 218 153 
L 218 -13 
C 371 0 653 0 813 0 
C 979 0 1261 0 1414 -13 
L 1414 153 
C 1005 153 979 178 979 426 
L 979 4396 
z
" transform="scale(0.015625)"/>
       <path id="CMR17-76" d="M 2502 2163 
C 2560 2304 2662 2560 3034 2560 
L 3034 2726 
C 2912 2726 2752 2726 2630 2726 
C 2496 2726 2285 2726 2157 2732 
L 2157 2566 
C 2317 2553 2406 2477 2406 2311 
C 2406 2253 2406 2240 2368 2151 
L 1664 377 
L 902 2286 
C 864 2369 864 2381 864 2407 
C 864 2560 1075 2560 1171 2560 
L 1171 2732 
C 1018 2726 736 2726 576 2726 
C 403 2726 205 2726 64 2732 
L 64 2560 
C 307 2560 442 2560 518 2362 
L 1446 44 
C 1485 -51 1491 -64 1549 -64 
C 1606 -64 1613 -51 1651 44 
L 2502 2163 
z
" transform="scale(0.015625)"/>
      </defs>
      <use xlink:href="#CMR17-65" transform="scale(0.996264)"/>
      <use xlink:href="#CMR17-6c" transform="translate(40.48566 0) scale(0.996264)"/>
      <use xlink:href="#CMR17-65" transform="translate(65.356719 0) scale(0.996264)"/>
      <use xlink:href="#CMR17-76" transform="translate(105.842379 0) scale(0.996264)"/>
      <use xlink:href="#CMR17-61" transform="translate(148.930479 0) scale(0.996264)"/>
      <use xlink:href="#CMR17-74" transform="translate(194.620956 0) scale(0.996264)"/>
      <use xlink:href="#CMR17-69" transform="translate(229.901724 0) scale(0.996264)"/>
      <use xlink:href="#CMR17-6f" transform="translate(254.772782 0) scale(0.996264)"/>
      <use xlink:href="#CMR17-6e" transform="translate(300.463259 0) scale(0.996264)"/>
      <use xlink:href="#CMR17-28" transform="translate(381.434595 0) scale(0.996264)"/>
      <use xlink:href="#CMR17-6d" transform="translate(416.715363 0) scale(0.996264)"/>
      <use xlink:href="#CMR17-29" transform="translate(493.634953 0) scale(0.996264)"/>
     </g>
    </g>
   </g>
   <g id="line2d_15">
    <path d="M 44.804673 263.412753 
L 51.534554 263.412753 
L 53.217025 257.231534 
L 54.899495 246.929492 
L 58.264436 222.204586 
L 59.946906 211.902544 
L 63.311846 195.419273 
L 64.994317 189.238064 
L 66.676787 180.996419 
L 71.724198 162.452752 
L 73.406668 154.211106 
L 76.771609 141.848668 
L 78.454079 139.788252 
L 81.819019 139.788252 
L 83.50149 143.909065 
L 90.231371 176.875606 
L 91.913841 187.177648 
L 93.596311 193.358877 
L 96.961252 209.842138 
L 98.643722 216.023367 
L 100.326192 224.265002 
L 107.056074 248.989898 
L 108.738544 253.110711 
L 112.103484 253.110711 
L 113.785955 251.050305 
L 117.150895 230.446221 
L 118.833365 218.083773 
L 122.198306 201.600502 
L 123.880776 195.419273 
L 125.563247 191.298461 
L 132.293128 166.573564 
L 133.975598 158.331939 
L 135.658068 154.211106 
L 139.023009 141.848668 
L 140.705479 139.788252 
L 144.07042 139.788252 
L 145.75289 141.848668 
L 147.43536 148.029897 
L 149.11783 156.271523 
L 150.800301 162.452752 
L 159.212652 203.660918 
L 160.895122 209.842138 
L 162.577593 218.083773 
L 164.260063 222.204586 
L 165.942533 230.446221 
L 167.625003 234.567044 
L 169.307474 242.808669 
L 170.989944 248.989898 
L 176.037355 248.989898 
L 177.719825 244.869085 
L 184.449706 211.902544 
L 186.132176 207.781731 
L 204.639349 139.788252 
L 206.32182 137.727855 
L 211.369231 137.727855 
L 213.051701 143.909065 
L 223.146522 193.358877 
L 224.828993 199.540106 
L 226.511463 207.781731 
L 228.193933 211.902544 
L 229.876404 220.144179 
L 234.923814 238.687856 
L 236.606285 246.929492 
L 238.288755 248.989898 
L 243.336166 248.989898 
L 246.701106 228.385815 
L 248.383577 220.144179 
L 250.066047 213.96296 
L 251.748517 205.721315 
L 253.430987 201.600502 
L 260.160869 176.875606 
L 261.843339 168.63398 
L 270.25569 137.727855 
L 271.93816 135.667439 
L 276.985571 135.667439 
L 278.668042 141.848668 
L 292.127804 207.781731 
L 293.810274 213.96296 
L 295.492744 218.083773 
L 297.175215 226.325408 
L 302.222625 244.869085 
L 307.270036 244.869085 
L 308.952506 242.808669 
L 312.317447 222.204586 
L 315.682388 205.721315 
L 317.364858 199.540106 
L 320.729798 191.298461 
L 322.412269 183.056835 
L 324.094739 178.936022 
L 325.777209 170.694377 
L 327.459679 164.513148 
L 329.14215 160.392335 
L 330.82462 152.15071 
L 332.50709 145.969481 
L 334.189561 141.848668 
L 335.872031 135.667439 
L 340.919442 135.667439 
L 342.601912 137.727855 
L 345.966852 154.211106 
L 347.649323 160.392335 
L 357.744144 209.842138 
L 359.426615 216.023367 
L 361.109085 220.144179 
L 366.156496 238.687856 
L 367.838966 246.929492 
L 369.521436 248.989898 
L 372.886377 248.989898 
L 374.568847 244.869085 
L 376.251317 232.506627 
L 377.933788 222.204586 
L 381.298728 205.721315 
L 382.981199 201.600502 
L 388.028609 183.056835 
L 389.71108 178.936022 
L 391.39355 172.754793 
L 393.07602 164.513148 
L 394.75849 160.392335 
L 396.440961 154.211106 
L 398.123431 145.969481 
L 399.805901 141.848668 
L 401.488372 135.667439 
L 403.170842 131.546626 
L 406.535782 131.546626 
L 408.218253 133.607023 
L 411.583193 145.969481 
L 414.948134 162.452752 
L 416.630604 168.63398 
L 423.360485 201.600502 
L 426.725426 213.96296 
L 428.407896 222.204586 
L 430.090366 228.385815 
L 431.772836 232.506627 
L 433.455307 238.687856 
L 435.137777 246.929492 
L 440.185188 246.929492 
L 441.867658 242.808669 
L 443.550128 232.506627 
L 446.915069 207.781731 
L 451.96248 189.238064 
L 453.64495 185.117232 
L 460.374831 160.392335 
L 462.057301 152.15071 
L 463.739772 145.969481 
L 465.422242 141.848668 
L 467.104712 133.607023 
L 468.787183 131.546626 
L 473.834593 131.546626 
L 475.517064 135.667439 
L 477.199534 141.848668 
L 480.564474 158.331939 
L 482.246945 164.513148 
L 483.929415 172.754793 
L 487.294356 185.117232 
L 490.659296 201.600502 
L 492.341766 207.781731 
L 494.024237 211.902544 
L 495.706707 220.144179 
L 499.071647 232.506627 
L 500.754118 240.748263 
L 502.436588 242.808669 
L 505.801529 242.808669 
L 507.483999 240.748263 
L 510.848939 224.265002 
L 512.53141 211.902544 
L 514.21388 203.660918 
L 515.89635 197.479689 
L 517.57882 193.358877 
L 519.261291 187.177648 
L 520.943761 178.936022 
L 522.626231 174.81519 
L 524.308702 168.63398 
L 525.991172 164.513148 
L 529.356112 152.15071 
L 532.721053 143.909065 
L 534.403523 135.667439 
L 536.085993 133.607023 
L 541.133404 133.607023 
L 542.815875 141.848668 
L 544.498345 148.029897 
L 546.180815 156.271523 
L 547.863285 162.452752 
L 549.545756 170.694377 
L 551.228226 176.875606 
L 551.228226 176.875606 
" clip-path="url(#p2ff7e9dde6)" style="fill: none; stroke: #c70303; stroke-width: 2; stroke-linecap: square"/>
   </g>
   <g id="line2d_16">
    <defs>
     <path id="m1945a5daba" d="M 0 5 
C 1.326016 5 2.597899 4.473168 3.535534 3.535534 
C 4.473168 2.597899 5 1.326016 5 0 
C 5 -1.326016 4.473168 -2.597899 3.535534 -3.535534 
C 2.597899 -4.473168 1.326016 -5 0 -5 
C -1.326016 -5 -2.597899 -4.473168 -3.535534 -3.535534 
C -4.473168 -2.597899 -5 -1.326016 -5 0 
C -5 1.326016 -4.473168 2.597899 -3.535534 3.535534 
C -2.597899 4.473168 -1.326016 5 0 5 
z
" style="stroke: #c70303"/>
    </defs>
    <g clip-path="url(#p2ff7e9dde6)">
     <use xlink:href="#m1945a5daba" x="80.136549" y="139.788252" style="fill: #c70303; stroke: #c70303"/>
     <use xlink:href="#m1945a5daba" x="142.387949" y="139.788252" style="fill: #c70303; stroke: #c70303"/>
     <use xlink:href="#m1945a5daba" x="208.00429" y="137.727855" style="fill: #c70303; stroke: #c70303"/>
     <use xlink:href="#m1945a5daba" x="273.620631" y="135.667439" style="fill: #c70303; stroke: #c70303"/>
     <use xlink:href="#m1945a5daba" x="337.554501" y="135.667439" style="fill: #c70303; stroke: #c70303"/>
     <use xlink:href="#m1945a5daba" x="404.853312" y="131.546626" style="fill: #c70303; stroke: #c70303"/>
     <use xlink:href="#m1945a5daba" x="470.469653" y="131.546626" style="fill: #c70303; stroke: #c70303"/>
     <use xlink:href="#m1945a5daba" x="537.768464" y="133.607023" style="fill: #c70303; stroke: #c70303"/>
     <use xlink:href="#m1945a5daba" x="605.067275" y="119.184168" style="fill: #c70303; stroke: #c70303"/>
     <use xlink:href="#m1945a5daba" x="669.001145" y="131.546626" style="fill: #c70303; stroke: #c70303"/>
     <use xlink:href="#m1945a5daba" x="734.617486" y="137.727855" style="fill: #c70303; stroke: #c70303"/>
     <use xlink:href="#m1945a5daba" x="803.598767" y="131.546626" style="fill: #c70303; stroke: #c70303"/>
     <use xlink:href="#m1945a5daba" x="872.580048" y="131.546626" style="fill: #c70303; stroke: #c70303"/>
     <use xlink:href="#m1945a5daba" x="941.56133" y="119.184168" style="fill: #c70303; stroke: #c70303"/>
     <use xlink:href="#m1945a5daba" x="1008.860141" y="127.425814" style="fill: #c70303; stroke: #c70303"/>
     <use xlink:href="#m1945a5daba" x="1076.158952" y="123.304981" style="fill: #c70303; stroke: #c70303"/>
     <use xlink:href="#m1945a5daba" x="1141.775292" y="108.882127" style="fill: #c70303; stroke: #c70303"/>
     <use xlink:href="#m1945a5daba" x="1210.756573" y="123.304981" style="fill: #c70303; stroke: #c70303"/>
     <use xlink:href="#m1945a5daba" x="1279.737855" y="119.184168" style="fill: #c70303; stroke: #c70303"/>
     <use xlink:href="#m1945a5daba" x="1347.036666" y="113.002939" style="fill: #c70303; stroke: #c70303"/>
     <use xlink:href="#m1945a5daba" x="1412.653006" y="104.761314" style="fill: #c70303; stroke: #c70303"/>
     <use xlink:href="#m1945a5daba" x="1481.634288" y="110.942543" style="fill: #c70303; stroke: #c70303"/>
     <use xlink:href="#m1945a5daba" x="1552.298039" y="104.761314" style="fill: #c70303; stroke: #c70303"/>
     <use xlink:href="#m1945a5daba" x="1619.59685" y="121.244585" style="fill: #c70303; stroke: #c70303"/>
     <use xlink:href="#m1945a5daba" x="1685.213191" y="121.244585" style="fill: #c70303; stroke: #c70303"/>
     <use xlink:href="#m1945a5daba" x="1752.512002" y="119.184168" style="fill: #c70303; stroke: #c70303"/>
     <use xlink:href="#m1945a5daba" x="1816.445872" y="121.244585" style="fill: #c70303; stroke: #c70303"/>
     <use xlink:href="#m1945a5daba" x="1885.427153" y="125.365397" style="fill: #c70303; stroke: #c70303"/>
     <use xlink:href="#m1945a5daba" x="1951.043494" y="121.244585" style="fill: #c70303; stroke: #c70303"/>
     <use xlink:href="#m1945a5daba" x="2020.024775" y="131.546626" style="fill: #c70303; stroke: #c70303"/>
     <use xlink:href="#m1945a5daba" x="2085.641116" y="117.123772" style="fill: #c70303; stroke: #c70303"/>
     <use xlink:href="#m1945a5daba" x="2154.622397" y="115.063356" style="fill: #c70303; stroke: #c70303"/>
     <use xlink:href="#m1945a5daba" x="2221.921208" y="113.002939" style="fill: #c70303; stroke: #c70303"/>
     <use xlink:href="#m1945a5daba" x="2290.90249" y="106.82173" style="fill: #c70303; stroke: #c70303"/>
     <use xlink:href="#m1945a5daba" x="2354.83636" y="100.640501" style="fill: #c70303; stroke: #c70303"/>
     <use xlink:href="#m1945a5daba" x="2420.452701" y="104.761314" style="fill: #c70303; stroke: #c70303"/>
    </g>
   </g>
   <g id="line2d_17">
    <path d="M 44.804673 145.969481 
L 49.852084 145.969481 
L 51.534554 141.848668 
L 53.217025 133.607023 
L 54.899495 123.304981 
L 56.581965 106.82173 
L 58.264436 92.398856 
L 59.946906 86.217647 
L 61.629376 77.976001 
L 63.311846 73.855189 
L 70.041728 40.888647 
L 73.406668 28.526189 
L 75.089138 20.284564 
L 80.136549 20.284564 
L 83.50149 32.647022 
L 86.86643 49.130292 
L 88.548901 59.432334 
L 90.231371 67.67396 
L 91.913841 80.036418 
L 93.596311 88.278043 
L 95.278782 94.459272 
L 96.961252 102.700898 
L 98.643722 113.002939 
L 100.326192 119.184168 
L 102.008663 127.425814 
L 103.691133 137.727855 
L 105.373603 139.788252 
L 108.738544 139.788252 
L 110.421014 133.607023 
L 112.103484 123.304981 
L 113.785955 115.063356 
L 115.468425 104.761314 
L 117.150895 88.278043 
L 118.833365 77.976001 
L 120.515836 69.734376 
L 122.198306 63.553147 
L 127.245717 38.828231 
L 130.610657 26.465812 
L 132.293128 22.34498 
L 137.340538 22.34498 
L 139.023009 26.465812 
L 140.705479 32.647022 
L 142.387949 42.949063 
L 145.75289 59.432334 
L 147.43536 69.734376 
L 150.800301 86.217647 
L 152.482771 98.580085 
L 154.165241 104.761314 
L 155.847711 106.82173 
L 159.212652 123.304981 
L 162.577593 135.667439 
L 164.260063 137.727855 
L 169.307474 137.727855 
L 170.989944 129.48621 
L 172.672414 117.123772 
L 174.354885 102.700898 
L 176.037355 96.519688 
L 181.084766 71.794772 
L 182.767236 65.613563 
L 184.449706 61.492731 
L 186.132176 53.251105 
L 187.814647 47.069876 
L 189.497117 42.949063 
L 191.179587 34.707438 
L 192.862058 28.526189 
L 194.544528 26.465812 
L 197.909468 26.465812 
L 199.591939 28.526189 
L 209.68676 77.976001 
L 211.369231 88.278043 
L 213.051701 96.519688 
L 214.734171 102.700898 
L 216.416641 113.002939 
L 219.781582 125.365397 
L 223.146522 141.848668 
L 224.828993 143.909065 
L 229.876404 143.909065 
L 233.241344 123.304981 
L 234.923814 106.82173 
L 236.606285 98.580085 
L 246.701106 61.492731 
L 248.383577 53.251105 
L 250.066047 47.069876 
L 251.748517 42.949063 
L 253.430987 36.767854 
L 255.113458 28.526189 
L 256.795928 26.465812 
L 260.160869 26.465812 
L 261.843339 28.526189 
L 266.89075 53.251105 
L 268.57322 59.432334 
L 270.25569 69.734376 
L 273.620631 86.217647 
L 275.303101 92.398856 
L 278.668042 108.882127 
L 280.350512 115.063356 
L 282.032982 123.304981 
L 283.715452 127.425814 
L 287.080393 139.788252 
L 293.810274 139.788252 
L 295.492744 129.48621 
L 297.175215 117.123772 
L 300.540155 100.640501 
L 302.222625 94.459272 
L 303.905096 84.15723 
L 307.270036 71.794772 
L 308.952506 63.553147 
L 310.634977 57.371918 
L 312.317447 53.251105 
L 317.364858 34.707438 
L 319.047328 30.586605 
L 324.094739 30.586605 
L 325.777209 32.647022 
L 327.459679 40.888647 
L 329.14215 47.069876 
L 332.50709 63.553147 
L 335.872031 75.915605 
L 337.554501 86.217647 
L 342.601912 110.942543 
L 344.284382 115.063356 
L 345.966852 123.304981 
L 347.649323 129.48621 
L 349.331793 131.546626 
L 351.014263 141.848668 
L 352.696734 148.029897 
L 357.744144 148.029897 
L 359.426615 135.667439 
L 361.109085 125.365397 
L 362.791555 113.002939 
L 366.156496 96.519688 
L 367.838966 90.338459 
L 369.521436 86.217647 
L 384.663669 30.586605 
L 389.71108 30.586605 
L 391.39355 34.707438 
L 393.07602 42.949063 
L 394.75849 49.130292 
L 396.440961 57.371918 
L 399.805901 69.734376 
L 403.170842 86.217647 
L 404.853312 92.398856 
L 408.218253 108.882127 
L 409.900723 115.063356 
L 411.583193 119.184168 
L 418.313074 143.909065 
L 419.995545 145.969481 
L 423.360485 145.969481 
L 425.042955 139.788252 
L 426.725426 129.48621 
L 428.407896 117.123772 
L 431.772836 104.761314 
L 433.455307 96.519688 
L 441.867658 65.613563 
L 443.550128 61.492731 
L 445.232599 53.251105 
L 448.597539 40.888647 
L 450.28001 36.767854 
L 451.96248 34.707438 
L 457.009891 34.707438 
L 460.374831 51.190689 
L 462.057301 57.371918 
L 465.422242 73.855189 
L 468.787183 94.459272 
L 470.469653 100.640501 
L 472.152123 108.882127 
L 477.199534 127.425814 
L 478.882004 129.48621 
L 480.564474 137.727855 
L 482.246945 150.090294 
L 483.929415 154.211106 
L 487.294356 154.211106 
L 488.976826 152.15071 
L 492.341766 131.546626 
L 497.389177 106.82173 
L 499.071647 96.519688 
L 500.754118 90.338459 
L 502.436588 86.217647 
L 509.166469 61.492731 
L 510.848939 53.251105 
L 512.53141 47.069876 
L 514.21388 38.828231 
L 515.89635 32.647022 
L 517.57882 30.586605 
L 520.943761 30.586605 
L 522.626231 32.647022 
L 536.085993 98.580085 
L 537.768464 104.761314 
L 541.133404 121.244585 
L 546.180815 139.788252 
L 547.863285 150.090294 
L 549.545756 152.15071 
L 551.228226 152.15071 
L 551.228226 152.15071 
" clip-path="url(#p2ff7e9dde6)" style="fill: none; stroke: #2979ea; stroke-width: 2; stroke-linecap: square"/>
   </g>
   <g id="line2d_18">
    <defs>
     <path id="m6a778122df" d="M 0 5 
C 1.326016 5 2.597899 4.473168 3.535534 3.535534 
C 4.473168 2.597899 5 1.326016 5 0 
C 5 -1.326016 4.473168 -2.597899 3.535534 -3.535534 
C 2.597899 -4.473168 1.326016 -5 0 -5 
C -1.326016 -5 -2.597899 -4.473168 -3.535534 -3.535534 
C -4.473168 -2.597899 -5 -1.326016 -5 0 
C -5 1.326016 -4.473168 2.597899 -3.535534 3.535534 
C -2.597899 4.473168 -1.326016 5 0 5 
z
" style="stroke: #2979ea"/>
    </defs>
    <g clip-path="url(#p2ff7e9dde6)">
     <use xlink:href="#m6a778122df" x="76.771609" y="20.284564" style="fill: #2979ea; stroke: #2979ea"/>
     <use xlink:href="#m6a778122df" x="133.975598" y="22.34498" style="fill: #2979ea; stroke: #2979ea"/>
     <use xlink:href="#m6a778122df" x="196.226998" y="26.465812" style="fill: #2979ea; stroke: #2979ea"/>
     <use xlink:href="#m6a778122df" x="258.478398" y="26.465812" style="fill: #2979ea; stroke: #2979ea"/>
     <use xlink:href="#m6a778122df" x="320.729798" y="30.586605" style="fill: #2979ea; stroke: #2979ea"/>
     <use xlink:href="#m6a778122df" x="386.346139" y="30.586605" style="fill: #2979ea; stroke: #2979ea"/>
     <use xlink:href="#m6a778122df" x="453.64495" y="34.707438" style="fill: #2979ea; stroke: #2979ea"/>
     <use xlink:href="#m6a778122df" x="519.261291" y="30.586605" style="fill: #2979ea; stroke: #2979ea"/>
     <use xlink:href="#m6a778122df" x="586.560102" y="32.647022" style="fill: #2979ea; stroke: #2979ea"/>
     <use xlink:href="#m6a778122df" x="652.176442" y="36.767854" style="fill: #2979ea; stroke: #2979ea"/>
     <use xlink:href="#m6a778122df" x="721.157724" y="34.707438" style="fill: #2979ea; stroke: #2979ea"/>
     <use xlink:href="#m6a778122df" x="791.821475" y="30.586605" style="fill: #2979ea; stroke: #2979ea"/>
     <use xlink:href="#m6a778122df" x="860.802756" y="26.465812" style="fill: #2979ea; stroke: #2979ea"/>
     <use xlink:href="#m6a778122df" x="929.784038" y="28.526189" style="fill: #2979ea; stroke: #2979ea"/>
     <use xlink:href="#m6a778122df" x="1000.447789" y="28.526189" style="fill: #2979ea; stroke: #2979ea"/>
     <use xlink:href="#m6a778122df" x="1069.42907" y="30.586605" style="fill: #2979ea; stroke: #2979ea"/>
     <use xlink:href="#m6a778122df" x="1141.775292" y="32.647022" style="fill: #2979ea; stroke: #2979ea"/>
     <use xlink:href="#m6a778122df" x="1210.756573" y="36.767854" style="fill: #2979ea; stroke: #2979ea"/>
     <use xlink:href="#m6a778122df" x="1284.785266" y="28.526189" style="fill: #2979ea; stroke: #2979ea"/>
     <use xlink:href="#m6a778122df" x="1353.766547" y="42.949063" style="fill: #2979ea; stroke: #2979ea"/>
     <use xlink:href="#m6a778122df" x="1424.430298" y="36.767854" style="fill: #2979ea; stroke: #2979ea"/>
     <use xlink:href="#m6a778122df" x="1495.09405" y="36.767854" style="fill: #2979ea; stroke: #2979ea"/>
     <use xlink:href="#m6a778122df" x="1564.075331" y="40.888647" style="fill: #2979ea; stroke: #2979ea"/>
     <use xlink:href="#m6a778122df" x="1634.739083" y="53.251105" style="fill: #2979ea; stroke: #2979ea"/>
     <use xlink:href="#m6a778122df" x="1707.085304" y="38.828231" style="fill: #2979ea; stroke: #2979ea"/>
     <use xlink:href="#m6a778122df" x="1776.066586" y="45.00948" style="fill: #2979ea; stroke: #2979ea"/>
     <use xlink:href="#m6a778122df" x="1848.412807" y="45.00948" style="fill: #2979ea; stroke: #2979ea"/>
     <use xlink:href="#m6a778122df" x="1919.076559" y="53.251105" style="fill: #2979ea; stroke: #2979ea"/>
     <use xlink:href="#m6a778122df" x="1993.105251" y="59.432334" style="fill: #2979ea; stroke: #2979ea"/>
     <use xlink:href="#m6a778122df" x="2062.086532" y="65.613563" style="fill: #2979ea; stroke: #2979ea"/>
     <use xlink:href="#m6a778122df" x="2136.115224" y="57.371918" style="fill: #2979ea; stroke: #2979ea"/>
     <use xlink:href="#m6a778122df" x="2208.461446" y="63.553147" style="fill: #2979ea; stroke: #2979ea"/>
     <use xlink:href="#m6a778122df" x="2280.807668" y="73.855189" style="fill: #2979ea; stroke: #2979ea"/>
     <use xlink:href="#m6a778122df" x="2351.471419" y="75.915605" style="fill: #2979ea; stroke: #2979ea"/>
     <use xlink:href="#m6a778122df" x="2420.452701" y="77.976001" style="fill: #2979ea; stroke: #2979ea"/>
     <use xlink:href="#m6a778122df" x="2489.433982" y="73.855189" style="fill: #2979ea; stroke: #2979ea"/>
    </g>
   </g>
   <g id="line2d_19">
    <path d="M 44.804673 199.540106 
L 46.487144 197.479689 
L 48.169614 197.479689 
L 49.852084 193.358877 
L 53.217025 180.996419 
L 54.899495 168.63398 
L 56.581965 154.211106 
L 58.264436 143.909065 
L 59.946906 131.546626 
L 61.629376 121.244585 
L 64.994317 104.761314 
L 68.359257 92.398856 
L 73.406668 67.67396 
L 75.089138 65.613563 
L 78.454079 65.613563 
L 80.136549 69.734376 
L 81.819019 77.976001 
L 83.50149 88.278043 
L 85.18396 102.700898 
L 86.86643 113.002939 
L 88.548901 121.244585 
L 90.231371 133.607023 
L 91.913841 141.848668 
L 93.596311 152.15071 
L 95.278782 160.392335 
L 96.961252 162.452752 
L 98.643722 166.573564 
L 100.326192 172.754793 
L 103.691133 189.238064 
L 108.738544 189.238064 
L 110.421014 178.936022 
L 115.468425 141.848668 
L 117.150895 135.667439 
L 118.833365 127.425814 
L 122.198306 115.063356 
L 123.880776 110.942543 
L 125.563247 102.700898 
L 130.610657 84.15723 
L 132.293128 75.915605 
L 133.975598 69.734376 
L 135.658068 65.613563 
L 140.705479 65.613563 
L 144.07042 73.855189 
L 145.75289 82.096814 
L 147.43536 92.398856 
L 149.11783 104.761314 
L 152.482771 121.244585 
L 154.165241 127.425814 
L 155.847711 135.667439 
L 159.212652 148.029897 
L 160.895122 152.15071 
L 162.577593 154.211106 
L 164.260063 160.392335 
L 165.942533 170.694377 
L 167.625003 178.936022 
L 172.672414 178.936022 
L 176.037355 162.452752 
L 179.402295 141.848668 
L 181.084766 135.667439 
L 184.449706 119.184168 
L 186.132176 113.002939 
L 187.814647 104.761314 
L 189.497117 98.580085 
L 191.179587 90.338459 
L 192.862058 84.15723 
L 194.544528 75.915605 
L 199.591939 57.371918 
L 201.274409 55.311521 
L 206.32182 55.311521 
L 208.00429 63.553147 
L 209.68676 73.855189 
L 211.369231 80.036418 
L 213.051701 88.278043 
L 214.734171 100.640501 
L 216.416641 108.882127 
L 218.099112 119.184168 
L 221.464052 135.667439 
L 223.146522 141.848668 
L 224.828993 145.969481 
L 226.511463 148.029897 
L 228.193933 152.15071 
L 229.876404 160.392335 
L 231.558874 164.513148 
L 236.606285 164.513148 
L 238.288755 158.331939 
L 239.971225 154.211106 
L 241.653695 145.969481 
L 243.336166 123.304981 
L 245.018636 110.942543 
L 246.701106 102.700898 
L 251.748517 90.338459 
L 253.430987 80.036418 
L 261.843339 69.734376 
L 263.525809 65.613563 
L 268.57322 65.613563 
L 270.25569 67.67396 
L 278.668042 98.580085 
L 280.350512 102.700898 
L 285.397923 121.244585 
L 287.080393 131.546626 
L 288.762863 137.727855 
L 290.445333 141.848668 
L 292.127804 148.029897 
L 293.810274 152.15071 
L 297.175215 164.513148 
L 298.857685 168.63398 
L 303.905096 168.63398 
L 305.587566 162.452752 
L 308.952506 141.848668 
L 310.634977 133.607023 
L 312.317447 127.425814 
L 313.999917 119.184168 
L 317.364858 106.82173 
L 320.729798 90.338459 
L 322.412269 84.15723 
L 325.777209 75.915605 
L 329.14215 63.553147 
L 334.189561 63.553147 
L 335.872031 65.613563 
L 337.554501 69.734376 
L 339.236971 80.036418 
L 340.919442 88.278043 
L 342.601912 94.459272 
L 344.284382 98.580085 
L 345.966852 104.761314 
L 347.649323 108.882127 
L 349.331793 115.063356 
L 351.014263 129.48621 
L 352.696734 139.788252 
L 356.061674 148.029897 
L 357.744144 148.029897 
L 359.426615 150.090294 
L 361.109085 156.271523 
L 362.791555 166.573564 
L 364.474026 170.694377 
L 369.521436 170.694377 
L 371.203907 158.331939 
L 372.886377 143.909065 
L 374.568847 131.546626 
L 377.933788 123.304981 
L 379.616258 115.063356 
L 384.663669 96.519688 
L 388.028609 80.036418 
L 391.39355 67.67396 
L 393.07602 59.432334 
L 394.75849 53.251105 
L 399.805901 53.251105 
L 403.170842 61.492731 
L 404.853312 69.734376 
L 406.535782 80.036418 
L 409.900723 92.398856 
L 413.265663 108.882127 
L 414.948134 119.184168 
L 418.313074 131.546626 
L 426.725426 152.15071 
L 428.407896 154.211106 
L 430.090366 162.452752 
L 431.772836 164.513148 
L 435.137777 164.513148 
L 436.820247 162.452752 
L 438.502718 152.15071 
L 440.185188 139.788252 
L 441.867658 129.48621 
L 446.915069 110.942543 
L 450.28001 102.700898 
L 457.009891 77.976001 
L 458.692361 75.915605 
L 462.057301 67.67396 
L 463.739772 61.492731 
L 468.787183 61.492731 
L 470.469653 65.613563 
L 478.882004 106.82173 
L 480.564474 113.002939 
L 485.611885 137.727855 
L 488.976826 150.090294 
L 492.341766 158.331939 
L 495.706707 170.694377 
L 497.389177 172.754793 
L 500.754118 172.754793 
L 502.436588 170.694377 
L 504.119058 158.331939 
L 505.801529 143.909065 
L 507.483999 133.607023 
L 509.166469 121.244585 
L 510.848939 110.942543 
L 512.53141 104.761314 
L 515.89635 88.278043 
L 517.57882 82.096814 
L 519.261291 73.855189 
L 520.943761 67.67396 
L 522.626231 59.432334 
L 524.308702 53.251105 
L 525.991172 49.130292 
L 527.673642 47.069876 
L 531.038583 47.069876 
L 532.721053 49.130292 
L 536.085993 65.613563 
L 537.768464 69.734376 
L 539.450934 77.976001 
L 541.133404 90.338459 
L 542.815875 96.519688 
L 544.498345 100.640501 
L 551.228226 125.365397 
L 551.228226 125.365397 
" clip-path="url(#p2ff7e9dde6)" style="fill: none; stroke: #ffc107; stroke-width: 2; stroke-linecap: square"/>
   </g>
   <g id="line2d_20">
    <defs>
     <path id="m2b6cf93302" d="M 0 5 
C 1.326016 5 2.597899 4.473168 3.535534 3.535534 
C 4.473168 2.597899 5 1.326016 5 0 
C 5 -1.326016 4.473168 -2.597899 3.535534 -3.535534 
C 2.597899 -4.473168 1.326016 -5 0 -5 
C -1.326016 -5 -2.597899 -4.473168 -3.535534 -3.535534 
C -4.473168 -2.597899 -5 -1.326016 -5 0 
C -5 1.326016 -4.473168 2.597899 -3.535534 3.535534 
C -2.597899 4.473168 -1.326016 5 0 5 
z
" style="stroke: #ffc107"/>
    </defs>
    <g clip-path="url(#p2ff7e9dde6)">
     <use xlink:href="#m2b6cf93302" x="76.771609" y="65.613563" style="fill: #ffc107; stroke: #ffc107"/>
     <use xlink:href="#m2b6cf93302" x="137.340538" y="65.613563" style="fill: #ffc107; stroke: #ffc107"/>
     <use xlink:href="#m2b6cf93302" x="202.956879" y="55.311521" style="fill: #ffc107; stroke: #ffc107"/>
     <use xlink:href="#m2b6cf93302" x="265.208279" y="65.613563" style="fill: #ffc107; stroke: #ffc107"/>
     <use xlink:href="#m2b6cf93302" x="330.82462" y="63.553147" style="fill: #ffc107; stroke: #ffc107"/>
     <use xlink:href="#m2b6cf93302" x="396.440961" y="53.251105" style="fill: #ffc107; stroke: #ffc107"/>
     <use xlink:href="#m2b6cf93302" x="465.422242" y="61.492731" style="fill: #ffc107; stroke: #ffc107"/>
     <use xlink:href="#m2b6cf93302" x="529.356112" y="47.069876" style="fill: #ffc107; stroke: #ffc107"/>
     <use xlink:href="#m2b6cf93302" x="596.654923" y="55.311521" style="fill: #ffc107; stroke: #ffc107"/>
     <use xlink:href="#m2b6cf93302" x="662.271264" y="47.069876" style="fill: #ffc107; stroke: #ffc107"/>
     <use xlink:href="#m2b6cf93302" x="729.570075" y="57.371918" style="fill: #ffc107; stroke: #ffc107"/>
     <use xlink:href="#m2b6cf93302" x="793.503945" y="51.190689" style="fill: #ffc107; stroke: #ffc107"/>
     <use xlink:href="#m2b6cf93302" x="859.120286" y="42.949063" style="fill: #ffc107; stroke: #ffc107"/>
     <use xlink:href="#m2b6cf93302" x="924.736627" y="53.251105" style="fill: #ffc107; stroke: #ffc107"/>
     <use xlink:href="#m2b6cf93302" x="993.717908" y="36.767854" style="fill: #ffc107; stroke: #ffc107"/>
     <use xlink:href="#m2b6cf93302" x="1059.334249" y="36.767854" style="fill: #ffc107; stroke: #ffc107"/>
     <use xlink:href="#m2b6cf93302" x="1126.63306" y="18.224148" style="fill: #ffc107; stroke: #ffc107"/>
     <use xlink:href="#m2b6cf93302" x="1190.56693" y="36.767854" style="fill: #ffc107; stroke: #ffc107"/>
     <use xlink:href="#m2b6cf93302" x="1259.548211" y="34.707438" style="fill: #ffc107; stroke: #ffc107"/>
     <use xlink:href="#m2b6cf93302" x="1325.164552" y="34.707438" style="fill: #ffc107; stroke: #ffc107"/>
     <use xlink:href="#m2b6cf93302" x="1390.780893" y="28.526189" style="fill: #ffc107; stroke: #ffc107"/>
     <use xlink:href="#m2b6cf93302" x="1456.397234" y="30.586605" style="fill: #ffc107; stroke: #ffc107"/>
     <use xlink:href="#m2b6cf93302" x="1522.013574" y="32.647022" style="fill: #ffc107; stroke: #ffc107"/>
     <use xlink:href="#m2b6cf93302" x="1590.994855" y="36.767854" style="fill: #ffc107; stroke: #ffc107"/>
     <use xlink:href="#m2b6cf93302" x="1656.611196" y="38.828231" style="fill: #ffc107; stroke: #ffc107"/>
     <use xlink:href="#m2b6cf93302" x="1723.910007" y="42.949063" style="fill: #ffc107; stroke: #ffc107"/>
     <use xlink:href="#m2b6cf93302" x="1792.891288" y="45.00948" style="fill: #ffc107; stroke: #ffc107"/>
     <use xlink:href="#m2b6cf93302" x="1863.55504" y="53.251105" style="fill: #ffc107; stroke: #ffc107"/>
     <use xlink:href="#m2b6cf93302" x="1932.536321" y="63.553147" style="fill: #ffc107; stroke: #ffc107"/>
     <use xlink:href="#m2b6cf93302" x="2001.517602" y="71.794772" style="fill: #ffc107; stroke: #ffc107"/>
     <use xlink:href="#m2b6cf93302" x="2070.498884" y="77.976001" style="fill: #ffc107; stroke: #ffc107"/>
     <use xlink:href="#m2b6cf93302" x="2139.480165" y="86.217647" style="fill: #ffc107; stroke: #ffc107"/>
     <use xlink:href="#m2b6cf93302" x="2208.461446" y="88.278043" style="fill: #ffc107; stroke: #ffc107"/>
     <use xlink:href="#m2b6cf93302" x="2275.760257" y="100.640501" style="fill: #ffc107; stroke: #ffc107"/>
     <use xlink:href="#m2b6cf93302" x="2343.059068" y="100.640501" style="fill: #ffc107; stroke: #ffc107"/>
     <use xlink:href="#m2b6cf93302" x="2410.357879" y="110.942543" style="fill: #ffc107; stroke: #ffc107"/>
    </g>
   </g>
   <g id="line2d_21">
    <path d="M 44.804673 288.137659 
L 46.487144 288.137659 
L 48.169614 286.077252 
L 51.534554 286.077252 
L 53.217025 284.016836 
L 54.899495 275.775211 
L 56.581965 265.473169 
L 61.629376 228.385815 
L 63.311846 218.083773 
L 64.994317 211.902544 
L 71.724198 178.936022 
L 73.406668 172.754793 
L 75.089138 164.513148 
L 80.136549 164.513148 
L 81.819019 166.573564 
L 83.50149 176.875606 
L 86.86643 193.358877 
L 88.548901 203.660918 
L 91.913841 220.144179 
L 93.596311 230.446221 
L 95.278782 236.62745 
L 96.961252 246.929492 
L 98.643722 251.050305 
L 102.008663 263.412753 
L 103.691133 267.533575 
L 107.056074 284.016836 
L 112.103484 284.016836 
L 113.785955 279.896023 
L 118.833365 242.808669 
L 122.198306 222.204586 
L 123.880776 216.023367 
L 125.563247 207.781731 
L 127.245717 201.600502 
L 128.928187 193.358877 
L 130.610657 187.177648 
L 132.293128 178.936022 
L 133.975598 172.754793 
L 135.658068 164.513148 
L 137.340538 162.452752 
L 142.387949 162.452752 
L 152.482771 211.902544 
L 154.165241 218.083773 
L 159.212652 242.808669 
L 160.895122 246.929492 
L 162.577593 253.110711 
L 164.260063 261.352346 
L 165.942533 265.473169 
L 167.625003 271.654388 
L 169.307474 279.896023 
L 170.989944 281.95643 
L 174.354885 281.95643 
L 176.037355 279.896023 
L 179.402295 259.29194 
L 181.084766 246.929492 
L 182.767236 238.687856 
L 184.449706 232.506627 
L 186.132176 224.265002 
L 187.814647 218.083773 
L 191.179587 201.600502 
L 194.544528 189.238064 
L 196.226998 180.996419 
L 199.591939 168.63398 
L 201.274409 160.392335 
L 206.32182 160.392335 
L 208.00429 162.452752 
L 209.68676 170.694377 
L 211.369231 176.875606 
L 213.051701 185.117232 
L 214.734171 191.298461 
L 216.416641 201.600502 
L 218.099112 209.842138 
L 219.781582 216.023367 
L 224.828993 240.748263 
L 226.511463 244.869085 
L 229.876404 257.231534 
L 231.558874 261.352346 
L 233.241344 269.593982 
L 234.923814 275.775211 
L 236.606285 279.896023 
L 241.653695 279.896023 
L 243.336166 271.654388 
L 245.018636 259.29194 
L 246.701106 244.869085 
L 248.383577 236.62745 
L 250.066047 226.325408 
L 253.430987 213.96296 
L 256.795928 197.479689 
L 261.843339 178.936022 
L 263.525809 170.694377 
L 265.208279 164.513148 
L 266.89075 156.271523 
L 271.93816 156.271523 
L 273.620631 158.331939 
L 275.303101 164.513148 
L 282.032982 197.479689 
L 283.715452 203.660918 
L 287.080393 220.144179 
L 288.762863 226.325408 
L 290.445333 234.567044 
L 292.127804 240.748263 
L 293.810274 248.989898 
L 295.492744 255.171127 
L 297.175215 259.29194 
L 300.540155 271.654388 
L 302.222625 275.775211 
L 305.587566 275.775211 
L 307.270036 273.714794 
L 310.634977 253.110711 
L 312.317447 240.748263 
L 313.999917 230.446221 
L 315.682388 222.204586 
L 319.047328 209.842138 
L 320.729798 201.600502 
L 324.094739 189.238064 
L 325.777209 180.996419 
L 327.459679 174.81519 
L 329.14215 166.573564 
L 332.50709 154.211106 
L 334.189561 152.15071 
L 337.554501 152.15071 
L 339.236971 154.211106 
L 340.919442 162.452752 
L 342.601912 168.63398 
L 354.379204 226.325408 
L 357.744144 238.687856 
L 359.426615 246.929492 
L 361.109085 253.110711 
L 362.791555 257.231534 
L 364.474026 263.412753 
L 366.156496 271.654388 
L 367.838966 273.714794 
L 371.203907 273.714794 
L 372.886377 269.593982 
L 374.568847 259.29194 
L 376.251317 246.929492 
L 377.933788 236.62745 
L 379.616258 230.446221 
L 381.298728 222.204586 
L 382.981199 218.083773 
L 386.346139 201.600502 
L 393.07602 176.875606 
L 398.123431 152.15071 
L 404.853312 152.15071 
L 409.900723 176.875606 
L 411.583193 183.056835 
L 413.265663 191.298461 
L 414.948134 197.479689 
L 421.678015 230.446221 
L 423.360485 236.62745 
L 425.042955 240.748263 
L 430.090366 259.29194 
L 431.772836 267.533575 
L 433.455307 271.654388 
L 438.502718 271.654388 
L 440.185188 263.412753 
L 441.867658 253.110711 
L 443.550128 240.748263 
L 445.232599 230.446221 
L 448.597539 218.083773 
L 451.96248 201.600502 
L 457.009891 183.056835 
L 458.692361 174.81519 
L 462.057301 162.452752 
L 463.739772 154.211106 
L 465.422242 152.15071 
L 470.469653 152.15071 
L 472.152123 158.331939 
L 480.564474 199.540106 
L 482.246945 205.721315 
L 483.929415 213.96296 
L 485.611885 220.144179 
L 487.294356 228.385815 
L 488.976826 232.506627 
L 490.659296 238.687856 
L 492.341766 246.929492 
L 497.389177 265.473169 
L 499.071647 273.714794 
L 500.754118 275.775211 
L 505.801529 275.775211 
L 507.483999 265.473169 
L 510.848939 240.748263 
L 512.53141 230.446221 
L 515.89635 213.96296 
L 520.943761 195.419273 
L 522.626231 187.177648 
L 525.991172 174.81519 
L 527.673642 166.573564 
L 529.356112 162.452752 
L 531.038583 156.271523 
L 536.085993 156.271523 
L 537.768464 158.331939 
L 546.180815 199.540106 
L 549.545756 211.902544 
L 551.228226 222.204586 
L 551.228226 222.204586 
" clip-path="url(#p2ff7e9dde6)" style="fill: none; stroke: #004d40; stroke-width: 2; stroke-linecap: square"/>
   </g>
   <g id="line2d_22">
    <defs>
     <path id="mba8df94833" d="M 0 5 
C 1.326016 5 2.597899 4.473168 3.535534 3.535534 
C 4.473168 2.597899 5 1.326016 5 0 
C 5 -1.326016 4.473168 -2.597899 3.535534 -3.535534 
C 2.597899 -4.473168 1.326016 -5 0 -5 
C -1.326016 -5 -2.597899 -4.473168 -3.535534 -3.535534 
C -4.473168 -2.597899 -5 -1.326016 -5 0 
C -5 1.326016 -4.473168 2.597899 -3.535534 3.535534 
C -2.597899 4.473168 -1.326016 5 0 5 
z
" style="stroke: #004d40"/>
    </defs>
    <g clip-path="url(#p2ff7e9dde6)">
     <use xlink:href="#mba8df94833" x="76.771609" y="164.513148" style="fill: #004d40; stroke: #004d40"/>
     <use xlink:href="#mba8df94833" x="139.023009" y="162.452752" style="fill: #004d40; stroke: #004d40"/>
     <use xlink:href="#mba8df94833" x="202.956879" y="160.392335" style="fill: #004d40; stroke: #004d40"/>
     <use xlink:href="#mba8df94833" x="268.57322" y="156.271523" style="fill: #004d40; stroke: #004d40"/>
     <use xlink:href="#mba8df94833" x="335.872031" y="152.15071" style="fill: #004d40; stroke: #004d40"/>
     <use xlink:href="#mba8df94833" x="401.488372" y="152.15071" style="fill: #004d40; stroke: #004d40"/>
     <use xlink:href="#mba8df94833" x="467.104712" y="152.15071" style="fill: #004d40; stroke: #004d40"/>
     <use xlink:href="#mba8df94833" x="532.721053" y="156.271523" style="fill: #004d40; stroke: #004d40"/>
     <use xlink:href="#mba8df94833" x="598.337394" y="156.271523" style="fill: #004d40; stroke: #004d40"/>
     <use xlink:href="#mba8df94833" x="663.953734" y="162.452752" style="fill: #004d40; stroke: #004d40"/>
     <use xlink:href="#mba8df94833" x="729.570075" y="164.513148" style="fill: #004d40; stroke: #004d40"/>
     <use xlink:href="#mba8df94833" x="796.868886" y="168.63398" style="fill: #004d40; stroke: #004d40"/>
     <use xlink:href="#mba8df94833" x="864.167697" y="170.694377" style="fill: #004d40; stroke: #004d40"/>
     <use xlink:href="#mba8df94833" x="929.784038" y="172.754793" style="fill: #004d40; stroke: #004d40"/>
     <use xlink:href="#mba8df94833" x="997.082849" y="170.694377" style="fill: #004d40; stroke: #004d40"/>
     <use xlink:href="#mba8df94833" x="1064.38166" y="174.81519" style="fill: #004d40; stroke: #004d40"/>
     <use xlink:href="#mba8df94833" x="1133.362941" y="172.754793" style="fill: #004d40; stroke: #004d40"/>
     <use xlink:href="#mba8df94833" x="1195.614341" y="174.81519" style="fill: #004d40; stroke: #004d40"/>
     <use xlink:href="#mba8df94833" x="1264.595622" y="172.754793" style="fill: #004d40; stroke: #004d40"/>
     <use xlink:href="#mba8df94833" x="1331.894433" y="168.63398" style="fill: #004d40; stroke: #004d40"/>
     <use xlink:href="#mba8df94833" x="1397.510774" y="162.452752" style="fill: #004d40; stroke: #004d40"/>
     <use xlink:href="#mba8df94833" x="1464.809585" y="160.392335" style="fill: #004d40; stroke: #004d40"/>
     <use xlink:href="#mba8df94833" x="1532.108396" y="158.331939" style="fill: #004d40; stroke: #004d40"/>
     <use xlink:href="#mba8df94833" x="1599.407207" y="158.331939" style="fill: #004d40; stroke: #004d40"/>
     <use xlink:href="#mba8df94833" x="1666.706018" y="156.271523" style="fill: #004d40; stroke: #004d40"/>
     <use xlink:href="#mba8df94833" x="1734.004829" y="160.392335" style="fill: #004d40; stroke: #004d40"/>
     <use xlink:href="#mba8df94833" x="1801.30364" y="158.331939" style="fill: #004d40; stroke: #004d40"/>
     <use xlink:href="#mba8df94833" x="1868.602451" y="164.513148" style="fill: #004d40; stroke: #004d40"/>
     <use xlink:href="#mba8df94833" x="1934.218791" y="166.573564" style="fill: #004d40; stroke: #004d40"/>
     <use xlink:href="#mba8df94833" x="2001.517602" y="172.754793" style="fill: #004d40; stroke: #004d40"/>
     <use xlink:href="#mba8df94833" x="2070.498884" y="176.875606" style="fill: #004d40; stroke: #004d40"/>
     <use xlink:href="#mba8df94833" x="2137.797695" y="187.177648" style="fill: #004d40; stroke: #004d40"/>
     <use xlink:href="#mba8df94833" x="2205.096506" y="193.358877" style="fill: #004d40; stroke: #004d40"/>
     <use xlink:href="#mba8df94833" x="2274.077787" y="199.540106" style="fill: #004d40; stroke: #004d40"/>
     <use xlink:href="#mba8df94833" x="2339.694128" y="201.600502" style="fill: #004d40; stroke: #004d40"/>
     <use xlink:href="#mba8df94833" x="2405.310468" y="205.721315" style="fill: #004d40; stroke: #004d40"/>
    </g>
   </g>
   <g id="patch_3">
    <path d="M 44.804673 372.614399 
L 44.804673 12.042938 
" style="fill: none; stroke: #000000; stroke-width: 0.6; stroke-linejoin: miter; stroke-linecap: square"/>
   </g>
   <g id="patch_4">
    <path d="M 44.804673 372.614399 
L 549.545756 372.614399 
" style="fill: none; stroke: #000000; stroke-width: 0.6; stroke-linejoin: miter; stroke-linecap: square"/>
   </g>
  </g>
 </g>
 <defs>
  <clipPath id="p2ff7e9dde6">
   <rect x="44.804673" y="12.042938" width="504.741082" height="360.571461"/>
  </clipPath>
 </defs>
</svg>
