<?xml version="1.0" encoding="utf-8" standalone="no"?>
<!DOCTYPE svg PUBLIC "-//W3C//DTD SVG 1.1//EN"
  "http://www.w3.org/Graphics/SVG/1.1/DTD/svg11.dtd">
<svg xmlns:xlink="http://www.w3.org/1999/xlink" width="560.16pt" height="416.16pt" viewBox="0 0 560.16 416.16" xmlns="http://www.w3.org/2000/svg" version="1.1">
 <metadata>
  <rdf:RDF xmlns:dc="http://purl.org/dc/elements/1.1/" xmlns:cc="http://creativecommons.org/ns#" xmlns:rdf="http://www.w3.org/1999/02/22-rdf-syntax-ns#">
   <cc:Work>
    <dc:type rdf:resource="http://purl.org/dc/dcmitype/StillImage"/>
    <dc:date>2025-12-05T17:40:09.444412</dc:date>
    <dc:format>image/svg+xml</dc:format>
    <dc:creator>
     <cc:Agent>
      <dc:title>Matplotlib v3.8.4, https://matplotlib.org/</dc:title>
     </cc:Agent>
    </dc:creator>
   </cc:Work>
  </rdf:RDF>
 </metadata>
 <defs>
  <style type="text/css">*{stroke-linejoin: round; stroke-linecap: butt}</style>
 </defs>
 <g id="figure_1">
  <g id="patch_1">
   <path d="M 0 416.16 
L 560.16 416.16 
L 560.16 0 
L 0 0 
L 0 416.16 
z
" style="fill: none"/>
  </g>
  <g id="axes_1">
   <g id="patch_2">
    <path d="M 43.254882 374.16419 
L 546.131511 374.16419 
L 546.131511 12.042938 
L 43.254882 12.042938 
L 43.254882 374.16419 
z
" style="fill: none"/>
   </g>
   <g id="matplotlib.axis_1">
    <g id="xtick_1">
     <g id="line2d_1">
      <defs>
       <path id="m4cd371f86f" d="M 0 0 
L 0 2.5 
" style="stroke: #000000; stroke-width: 0.6"/>
      </defs>
      <g>
       <use xlink:href="#m4cd371f86f" x="43.254882" y="374.16419" style="stroke: #000000; stroke-width: 0.6"/>
      </g>
     </g>
     <g id="text_1">
      <!-- $\mathdefault{0}$ -->
      <g transform="translate(39.840638 389.850067) scale(0.14 -0.14)">
       <defs>
        <path id="CMR17-30" d="M 2688 2025 
C 2688 2416 2682 3080 2413 3591 
C 2176 4039 1798 4198 1466 4198 
C 1158 4198 768 4058 525 3597 
C 269 3118 243 2524 243 2025 
C 243 1661 250 1106 448 619 
C 723 -39 1216 -128 1466 -128 
C 1760 -128 2208 -7 2470 600 
C 2662 1042 2688 1559 2688 2025 
z
M 1466 -26 
C 1056 -26 813 325 723 812 
C 653 1188 653 1738 653 2096 
C 653 2588 653 2997 736 3387 
C 858 3929 1216 4096 1466 4096 
C 1728 4096 2067 3923 2189 3400 
C 2272 3036 2278 2607 2278 2096 
C 2278 1680 2278 1169 2202 792 
C 2067 95 1690 -26 1466 -26 
z
" transform="scale(0.015625)"/>
       </defs>
       <use xlink:href="#CMR17-30" transform="scale(0.996264)"/>
      </g>
     </g>
    </g>
    <g id="xtick_2">
     <g id="line2d_2">
      <g>
       <use xlink:href="#m4cd371f86f" x="143.830208" y="374.16419" style="stroke: #000000; stroke-width: 0.6"/>
      </g>
     </g>
     <g id="text_2">
      <!-- $\mathdefault{10}$ -->
      <g transform="translate(137.001719 389.850067) scale(0.14 -0.14)">
       <defs>
        <path id="CMR17-31" d="M 1702 4058 
C 1702 4192 1696 4192 1606 4192 
C 1357 3916 979 3827 621 3827 
C 602 3827 570 3827 563 3808 
C 557 3795 557 3782 557 3648 
C 755 3648 1088 3686 1344 3839 
L 1344 461 
C 1344 236 1331 160 781 160 
L 589 160 
L 589 0 
C 896 0 1216 0 1523 0 
C 1830 0 2150 0 2458 0 
L 2458 160 
L 2266 160 
C 1715 160 1702 230 1702 458 
L 1702 4058 
z
" transform="scale(0.015625)"/>
       </defs>
       <use xlink:href="#CMR17-31" transform="scale(0.996264)"/>
       <use xlink:href="#CMR17-30" transform="translate(45.690477 0) scale(0.996264)"/>
      </g>
     </g>
    </g>
    <g id="xtick_3">
     <g id="line2d_3">
      <g>
       <use xlink:href="#m4cd371f86f" x="244.405534" y="374.16419" style="stroke: #000000; stroke-width: 0.6"/>
      </g>
     </g>
     <g id="text_3">
      <!-- $\mathdefault{20}$ -->
      <g transform="translate(237.577045 389.850067) scale(0.14 -0.14)">
       <defs>
        <path id="CMR17-32" d="M 2669 989 
L 2554 989 
C 2490 536 2438 459 2413 420 
C 2381 369 1920 369 1830 369 
L 602 369 
C 832 619 1280 1072 1824 1597 
C 2214 1967 2669 2402 2669 3035 
C 2669 3790 2067 4224 1395 4224 
C 691 4224 262 3604 262 3030 
C 262 2780 448 2748 525 2748 
C 589 2748 781 2787 781 3010 
C 781 3207 614 3264 525 3264 
C 486 3264 448 3258 422 3245 
C 544 3790 915 4058 1306 4058 
C 1862 4058 2227 3617 2227 3035 
C 2227 2479 1901 2000 1536 1584 
L 262 146 
L 262 0 
L 2515 0 
L 2669 989 
z
" transform="scale(0.015625)"/>
       </defs>
       <use xlink:href="#CMR17-32" transform="scale(0.996264)"/>
       <use xlink:href="#CMR17-30" transform="translate(45.690477 0) scale(0.996264)"/>
      </g>
     </g>
    </g>
    <g id="xtick_4">
     <g id="line2d_4">
      <g>
       <use xlink:href="#m4cd371f86f" x="344.98086" y="374.16419" style="stroke: #000000; stroke-width: 0.6"/>
      </g>
     </g>
     <g id="text_4">
      <!-- $\mathdefault{30}$ -->
      <g transform="translate(338.152371 389.850067) scale(0.14 -0.14)">
       <defs>
        <path id="CMR17-33" d="M 1414 2157 
C 1984 2157 2234 1662 2234 1090 
C 2234 320 1824 25 1453 25 
C 1114 25 563 194 390 693 
C 422 680 454 680 486 680 
C 640 680 755 782 755 948 
C 755 1133 614 1216 486 1216 
C 378 1216 211 1165 211 926 
C 211 335 787 -128 1466 -128 
C 2176 -128 2720 430 2720 1085 
C 2720 1707 2208 2157 1600 2227 
C 2086 2328 2554 2756 2554 3329 
C 2554 3820 2048 4179 1472 4179 
C 890 4179 378 3829 378 3329 
C 378 3110 544 3072 627 3072 
C 762 3072 877 3155 877 3321 
C 877 3486 762 3569 627 3569 
C 602 3569 570 3569 544 3557 
C 730 3959 1235 4032 1459 4032 
C 1683 4032 2106 3925 2106 3320 
C 2106 3143 2080 2828 1862 2550 
C 1670 2304 1453 2304 1242 2284 
C 1210 2284 1062 2269 1037 2269 
C 992 2263 966 2257 966 2208 
C 966 2163 973 2157 1101 2157 
L 1414 2157 
z
" transform="scale(0.015625)"/>
       </defs>
       <use xlink:href="#CMR17-33" transform="scale(0.996264)"/>
       <use xlink:href="#CMR17-30" transform="translate(45.690477 0) scale(0.996264)"/>
      </g>
     </g>
    </g>
    <g id="xtick_5">
     <g id="line2d_5">
      <g>
       <use xlink:href="#m4cd371f86f" x="445.556186" y="374.16419" style="stroke: #000000; stroke-width: 0.6"/>
      </g>
     </g>
     <g id="text_5">
      <!-- $\mathdefault{40}$ -->
      <g transform="translate(438.727697 389.850067) scale(0.14 -0.14)">
       <defs>
        <path id="CMR17-34" d="M 2150 4122 
C 2150 4256 2144 4256 2029 4256 
L 128 1254 
L 128 1088 
L 1779 1088 
L 1779 457 
C 1779 224 1766 160 1318 160 
L 1197 160 
L 1197 0 
C 1402 0 1747 0 1965 0 
C 2182 0 2528 0 2733 0 
L 2733 160 
L 2611 160 
C 2163 160 2150 224 2150 457 
L 2150 1088 
L 2803 1088 
L 2803 1254 
L 2150 1254 
L 2150 4122 
z
M 1798 3703 
L 1798 1254 
L 256 1254 
L 1798 3703 
z
" transform="scale(0.015625)"/>
       </defs>
       <use xlink:href="#CMR17-34" transform="scale(0.996264)"/>
       <use xlink:href="#CMR17-30" transform="translate(45.690477 0) scale(0.996264)"/>
      </g>
     </g>
    </g>
    <g id="xtick_6">
     <g id="line2d_6">
      <g>
       <use xlink:href="#m4cd371f86f" x="546.131511" y="374.16419" style="stroke: #000000; stroke-width: 0.6"/>
      </g>
     </g>
     <g id="text_6">
      <!-- $\mathdefault{50}$ -->
      <g transform="translate(539.303023 389.850067) scale(0.14 -0.14)">
       <defs>
        <path id="CMR17-35" d="M 730 3692 
C 794 3666 1056 3584 1325 3584 
C 1920 3584 2246 3911 2432 4100 
C 2432 4157 2432 4192 2394 4192 
C 2387 4192 2374 4192 2323 4163 
C 2099 4058 1837 3973 1517 3973 
C 1325 3973 1037 3999 723 4139 
C 653 4171 640 4171 634 4171 
C 602 4171 595 4164 595 4037 
L 595 2203 
C 595 2089 595 2057 659 2057 
C 691 2057 704 2070 736 2114 
C 941 2401 1222 2522 1542 2522 
C 1766 2522 2246 2382 2246 1289 
C 2246 1085 2246 715 2054 421 
C 1894 159 1645 25 1370 25 
C 947 25 518 320 403 814 
C 429 807 480 795 506 795 
C 589 795 749 840 749 1038 
C 749 1210 627 1280 506 1280 
C 358 1280 262 1190 262 1011 
C 262 454 704 -128 1382 -128 
C 2042 -128 2669 440 2669 1264 
C 2669 2030 2170 2624 1549 2624 
C 1222 2624 947 2503 730 2274 
L 730 3692 
z
" transform="scale(0.015625)"/>
       </defs>
       <use xlink:href="#CMR17-35" transform="scale(0.996264)"/>
       <use xlink:href="#CMR17-30" transform="translate(45.690477 0) scale(0.996264)"/>
      </g>
     </g>
    </g>
    <g id="text_7">
     <!-- Number of tosses $t$ -->
     <g transform="translate(238.626135 406.247972) scale(0.14 -0.14)">
      <defs>
       <path id="CMR17-4e" d="M 1312 4250 
C 1267 4320 1261 4320 1139 4320 
L 326 4320 
L 326 4160 
L 448 4160 
C 704 4160 819 4129 838 4122 
L 838 610 
C 838 451 838 153 326 153 
L 326 -13 
C 474 0 742 0 902 0 
C 1062 0 1331 0 1478 -13 
L 1478 153 
C 966 153 966 451 966 610 
L 966 4033 
C 1011 3995 1011 3982 1056 3919 
L 3430 76 
C 3475 0 3494 0 3526 0 
C 3590 0 3590 19 3590 139 
L 3590 3705 
C 3590 3863 3590 4160 4102 4160 
L 4102 4326 
C 3955 4320 3686 4320 3526 4320 
C 3366 4320 3098 4320 2950 4326 
L 2950 4160 
C 3462 4160 3462 3862 3462 3703 
L 3462 763 
L 1312 4250 
z
" transform="scale(0.015625)"/>
       <path id="CMR17-75" d="M 1882 2693 
L 1882 2528 
C 2259 2528 2317 2489 2317 2186 
L 2317 1032 
C 2317 500 2029 38 1555 38 
C 1030 38 986 348 986 678 
L 986 2763 
L 211 2693 
L 211 2528 
C 467 2528 640 2528 646 2274 
L 646 1058 
C 646 633 646 361 813 183 
C 896 101 1056 -64 1517 -64 
C 2061 -64 2272 377 2323 506 
L 2330 506 
L 2330 -63 
L 3091 -63 
L 3091 128 
C 2714 128 2656 166 2656 473 
L 2656 2763 
L 1882 2693 
z
" transform="scale(0.015625)"/>
       <path id="CMR17-6d" d="M 4326 1933 
C 4326 2252 4269 2790 3507 2790 
C 3072 2790 2771 2496 2656 2151 
L 2650 2151 
C 2573 2676 2195 2790 1837 2790 
C 1331 2790 1069 2400 973 2144 
L 966 2144 
L 966 2790 
L 211 2720 
L 211 2554 
C 589 2554 646 2515 646 2208 
L 646 428 
C 646 184 621 153 211 153 
L 211 -13 
C 365 0 646 0 813 0 
C 979 0 1267 0 1421 -13 
L 1421 153 
C 1011 153 986 178 986 428 
L 986 1658 
C 986 2247 1344 2688 1792 2688 
C 2266 2688 2317 2266 2317 1958 
L 2317 428 
C 2317 184 2291 153 1882 153 
L 1882 -13 
C 2035 0 2317 0 2483 0 
C 2650 0 2938 0 3091 -13 
L 3091 153 
C 2682 153 2656 178 2656 428 
L 2656 1658 
C 2656 2247 3014 2688 3462 2688 
C 3936 2688 3987 2266 3987 1958 
L 3987 428 
C 3987 184 3962 153 3552 153 
L 3552 -13 
C 3706 0 3987 0 4154 0 
C 4320 0 4608 0 4762 -13 
L 4762 153 
C 4352 153 4326 178 4326 428 
L 4326 1933 
z
" transform="scale(0.015625)"/>
       <path id="CMR17-62" d="M 960 4396 
L 198 4326 
L 198 4160 
C 576 4160 634 4122 634 3817 
L 634 -13 
L 749 -13 
L 934 441 
C 1120 141 1395 -64 1766 -64 
C 2406 -64 3053 500 3053 1370 
C 3053 2188 2477 2790 1830 2790 
C 1434 2790 1152 2579 960 2330 
L 960 4396 
z
M 973 2004 
C 973 2118 973 2138 1062 2272 
C 1312 2657 1670 2688 1792 2688 
C 1984 2688 2643 2585 2643 1376 
C 2643 108 1888 38 1734 38 
C 1536 38 1248 114 1043 486 
C 973 608 973 621 973 735 
L 973 2004 
z
" transform="scale(0.015625)"/>
       <path id="CMR17-65" d="M 2438 1472 
C 2464 1498 2464 1511 2464 1576 
C 2464 2238 2118 2816 1389 2816 
C 710 2816 173 2169 173 1383 
C 173 551 781 -64 1459 -64 
C 2176 -64 2458 607 2458 740 
C 2458 784 2419 784 2406 784 
C 2362 784 2355 771 2330 696 
C 2189 265 1837 51 1504 51 
C 1229 51 954 203 781 480 
C 582 803 582 1176 582 1472 
L 2438 1472 
z
M 589 1568 
C 634 2505 1126 2714 1382 2714 
C 1818 2714 2112 2297 2118 1568 
L 589 1568 
z
" transform="scale(0.015625)"/>
       <path id="CMR17-72" d="M 960 1497 
C 960 2112 1222 2688 1702 2688 
C 1747 2688 1792 2682 1837 2662 
C 1837 2662 1696 2617 1696 2452 
C 1696 2298 1818 2234 1914 2234 
C 1990 2234 2131 2279 2131 2458 
C 2131 2663 1926 2790 1709 2790 
C 1222 2790 1011 2317 947 2093 
L 941 2093 
L 941 2790 
L 198 2720 
L 198 2554 
C 576 2554 634 2515 634 2208 
L 634 428 
C 634 184 608 153 198 153 
L 198 -13 
C 352 0 646 0 813 0 
C 998 0 1325 0 1498 -13 
L 1498 153 
C 1037 153 960 153 960 440 
L 960 1497 
z
" transform="scale(0.015625)"/>
       <path id="CMR17-6f" d="M 2758 1356 
C 2758 2176 2163 2816 1466 2816 
C 768 2816 173 2176 173 1356 
C 173 551 768 -64 1466 -64 
C 2163 -64 2758 551 2758 1356 
z
M 1466 51 
C 1165 51 909 230 762 480 
C 602 767 582 1126 582 1408 
C 582 1677 595 2010 762 2298 
C 890 2509 1139 2714 1466 2714 
C 1754 2714 1997 2554 2150 2330 
C 2349 2029 2349 1607 2349 1408 
C 2349 1158 2336 775 2163 467 
C 1984 173 1709 51 1466 51 
z
" transform="scale(0.015625)"/>
       <path id="CMR17-66" d="M 979 2560 
L 1709 2560 
L 1709 2725 
L 966 2725 
L 966 3494 
C 966 4022 1235 4352 1510 4352 
C 1594 4352 1690 4327 1754 4282 
C 1702 4269 1568 4225 1568 4067 
C 1568 3901 1696 3850 1786 3850 
C 1875 3850 2003 3901 2003 4067 
C 2003 4308 1773 4454 1517 4454 
C 1152 4454 653 4156 653 3481 
L 653 2725 
L 141 2725 
L 141 2560 
L 653 2560 
L 653 427 
C 653 184 627 153 218 153 
L 218 -13 
C 371 0 666 0 832 0 
C 1018 0 1344 0 1517 -13 
L 1517 153 
C 1056 153 979 153 979 439 
L 979 2560 
z
" transform="scale(0.015625)"/>
       <path id="CMR17-74" d="M 966 2560 
L 1862 2560 
L 1862 2725 
L 966 2725 
L 966 3904 
L 851 3904 
C 838 3245 614 2668 70 2668 
L 70 2560 
L 627 2560 
L 627 771 
C 627 650 627 -64 1370 -64 
C 1747 -64 1965 306 1965 777 
L 1965 1140 
L 1850 1140 
L 1850 783 
C 1850 344 1677 51 1408 51 
C 1222 51 966 178 966 758 
L 966 2560 
z
" transform="scale(0.015625)"/>
       <path id="CMR17-73" d="M 1978 2697 
C 1978 2813 1971 2819 1933 2819 
C 1907 2819 1901 2813 1824 2717 
C 1805 2691 1747 2626 1728 2601 
C 1523 2819 1235 2819 1126 2819 
C 416 2819 160 2447 160 2076 
C 160 1498 813 1365 998 1325 
C 1402 1243 1542 1217 1677 1101 
C 1760 1025 1901 884 1901 654 
C 1901 384 1747 38 1158 38 
C 602 38 403 460 288 1021 
C 269 1110 269 1117 218 1117 
C 166 1117 160 1110 160 983 
L 160 63 
C 160 -51 166 -58 205 -58 
C 237 -58 243 -51 275 0 
C 314 57 410 211 448 276 
C 576 103 800 -64 1158 -64 
C 1792 -64 2131 283 2131 784 
C 2131 1112 1958 1285 1875 1362 
C 1683 1561 1459 1606 1190 1657 
C 838 1735 390 1825 390 2217 
C 390 2383 480 2737 1126 2737 
C 1811 2737 1850 2094 1862 1888 
C 1869 1856 1901 1849 1920 1849 
C 1978 1849 1978 1869 1978 1978 
L 1978 2697 
z
" transform="scale(0.015625)"/>
       <path id="CMMI12-74" d="M 1286 2566 
L 1875 2566 
C 1997 2566 2061 2566 2061 2681 
C 2061 2752 2022 2752 1894 2752 
L 1331 2752 
L 1568 3692 
C 1594 3781 1594 3794 1594 3840 
C 1594 3943 1510 4000 1427 4000 
C 1376 4000 1229 3981 1178 3775 
L 928 2752 
L 326 2752 
C 198 2752 141 2752 141 2630 
C 141 2566 186 2566 307 2566 
L 877 2566 
L 454 881 
C 403 658 384 594 384 511 
C 384 211 595 -64 954 -64 
C 1600 -64 1946 868 1946 912 
C 1946 951 1920 970 1882 970 
C 1869 970 1843 970 1830 944 
C 1824 938 1818 931 1773 829 
C 1638 511 1344 64 973 64 
C 781 64 768 224 768 364 
C 768 370 768 492 787 568 
L 1286 2566 
z
" transform="scale(0.015625)"/>
      </defs>
      <use xlink:href="#CMR17-4e" transform="scale(0.996264)"/>
      <use xlink:href="#CMR17-75" transform="translate(69.07243 0) scale(0.996264)"/>
      <use xlink:href="#CMR17-6d" transform="translate(119.9678 0) scale(0.996264)"/>
      <use xlink:href="#CMR17-62" transform="translate(194.284936 0) scale(0.996264)"/>
      <use xlink:href="#CMR17-65" transform="translate(247.782744 0) scale(0.996264)"/>
      <use xlink:href="#CMR17-72" transform="translate(288.268404 0) scale(0.996264)"/>
      <use xlink:href="#CMR17-6f" transform="translate(353.625139 0) scale(0.996264)"/>
      <use xlink:href="#CMR17-66" transform="translate(399.315616 0) scale(0.996264)"/>
      <use xlink:href="#CMR17-74" transform="translate(456.865095 0) scale(0.996264)"/>
      <use xlink:href="#CMR17-6f" transform="translate(492.145862 0) scale(0.996264)"/>
      <use xlink:href="#CMR17-73" transform="translate(537.836339 0) scale(0.996264)"/>
      <use xlink:href="#CMR17-73" transform="translate(573.637677 0) scale(0.996264)"/>
      <use xlink:href="#CMR17-65" transform="translate(609.439015 0) scale(0.996264)"/>
      <use xlink:href="#CMR17-73" transform="translate(649.924675 0) scale(0.996264)"/>
      <use xlink:href="#CMMI12-74" transform="translate(715.801979 0) scale(0.996264)"/>
     </g>
    </g>
   </g>
   <g id="matplotlib.axis_2">
    <g id="ytick_1">
     <g id="line2d_7">
      <defs>
       <path id="m56f3a9ced1" d="M 0 0 
L -2.5 0 
" style="stroke: #000000; stroke-width: 0.6"/>
      </defs>
      <g>
       <use xlink:href="#m56f3a9ced1" x="43.254882" y="374.16419" style="stroke: #000000; stroke-width: 0.6"/>
      </g>
     </g>
     <g id="text_8">
      <!-- $\mathdefault{0}$ -->
      <g transform="translate(30.426393 379.007129) scale(0.14 -0.14)">
       <use xlink:href="#CMR17-30" transform="scale(0.996264)"/>
      </g>
     </g>
    </g>
    <g id="ytick_2">
     <g id="line2d_8">
      <g>
       <use xlink:href="#m56f3a9ced1" x="43.254882" y="328.899034" style="stroke: #000000; stroke-width: 0.6"/>
      </g>
     </g>
     <g id="text_9">
      <!-- $\mathdefault{5}$ -->
      <g transform="translate(30.426393 333.741972) scale(0.14 -0.14)">
       <use xlink:href="#CMR17-35" transform="scale(0.996264)"/>
      </g>
     </g>
    </g>
    <g id="ytick_3">
     <g id="line2d_9">
      <g>
       <use xlink:href="#m56f3a9ced1" x="43.254882" y="283.633877" style="stroke: #000000; stroke-width: 0.6"/>
      </g>
     </g>
     <g id="text_10">
      <!-- $\mathdefault{10}$ -->
      <g transform="translate(23.597905 288.476816) scale(0.14 -0.14)">
       <use xlink:href="#CMR17-31" transform="scale(0.996264)"/>
       <use xlink:href="#CMR17-30" transform="translate(45.690477 0) scale(0.996264)"/>
      </g>
     </g>
    </g>
    <g id="ytick_4">
     <g id="line2d_10">
      <g>
       <use xlink:href="#m56f3a9ced1" x="43.254882" y="238.368721" style="stroke: #000000; stroke-width: 0.6"/>
      </g>
     </g>
     <g id="text_11">
      <!-- $\mathdefault{15}$ -->
      <g transform="translate(23.597905 243.211659) scale(0.14 -0.14)">
       <use xlink:href="#CMR17-31" transform="scale(0.996264)"/>
       <use xlink:href="#CMR17-35" transform="translate(45.690477 0) scale(0.996264)"/>
      </g>
     </g>
    </g>
    <g id="ytick_5">
     <g id="line2d_11">
      <g>
       <use xlink:href="#m56f3a9ced1" x="43.254882" y="193.103564" style="stroke: #000000; stroke-width: 0.6"/>
      </g>
     </g>
     <g id="text_12">
      <!-- $\mathdefault{20}$ -->
      <g transform="translate(23.597905 197.946503) scale(0.14 -0.14)">
       <use xlink:href="#CMR17-32" transform="scale(0.996264)"/>
       <use xlink:href="#CMR17-30" transform="translate(45.690477 0) scale(0.996264)"/>
      </g>
     </g>
    </g>
    <g id="ytick_6">
     <g id="line2d_12">
      <g>
       <use xlink:href="#m56f3a9ced1" x="43.254882" y="147.838408" style="stroke: #000000; stroke-width: 0.6"/>
      </g>
     </g>
     <g id="text_13">
      <!-- $\mathdefault{25}$ -->
      <g transform="translate(23.597905 152.681346) scale(0.14 -0.14)">
       <use xlink:href="#CMR17-32" transform="scale(0.996264)"/>
       <use xlink:href="#CMR17-35" transform="translate(45.690477 0) scale(0.996264)"/>
      </g>
     </g>
    </g>
    <g id="ytick_7">
     <g id="line2d_13">
      <g>
       <use xlink:href="#m56f3a9ced1" x="43.254882" y="102.573251" style="stroke: #000000; stroke-width: 0.6"/>
      </g>
     </g>
     <g id="text_14">
      <!-- $\mathdefault{30}$ -->
      <g transform="translate(23.597905 107.416189) scale(0.14 -0.14)">
       <use xlink:href="#CMR17-33" transform="scale(0.996264)"/>
       <use xlink:href="#CMR17-30" transform="translate(45.690477 0) scale(0.996264)"/>
      </g>
     </g>
    </g>
    <g id="ytick_8">
     <g id="line2d_14">
      <g>
       <use xlink:href="#m56f3a9ced1" x="43.254882" y="57.308095" style="stroke: #000000; stroke-width: 0.6"/>
      </g>
     </g>
     <g id="text_15">
      <!-- $\mathdefault{35}$ -->
      <g transform="translate(23.597905 62.151033) scale(0.14 -0.14)">
       <use xlink:href="#CMR17-33" transform="scale(0.996264)"/>
       <use xlink:href="#CMR17-35" transform="translate(45.690477 0) scale(0.996264)"/>
      </g>
     </g>
    </g>
    <g id="ytick_9">
     <g id="line2d_15">
      <g>
       <use xlink:href="#m56f3a9ced1" x="43.254882" y="12.042938" style="stroke: #000000; stroke-width: 0.6"/>
      </g>
     </g>
     <g id="text_16">
      <!-- $\mathdefault{40}$ -->
      <g transform="translate(23.597905 16.885876) scale(0.14 -0.14)">
       <use xlink:href="#CMR17-34" transform="scale(0.996264)"/>
       <use xlink:href="#CMR17-30" transform="translate(45.690477 0) scale(0.996264)"/>
      </g>
     </g>
    </g>
    <g id="text_17">
     <!-- Number of well cooked potatoes $k$ out of $N=40$ -->
     <g transform="translate(16.885876 339.581957) rotate(-90) scale(0.14 -0.14)">
      <defs>
       <path id="CMR17-77" d="M 3725 2183 
C 3853 2560 4109 2560 4205 2560 
L 4205 2732 
C 4077 2732 3949 2732 3821 2732 
C 3699 2732 3424 2732 3315 2738 
L 3315 2560 
C 3514 2560 3622 2445 3622 2286 
C 3622 2241 3610 2184 3597 2140 
L 2995 407 
L 2342 2275 
C 2330 2319 2310 2370 2310 2395 
C 2310 2560 2528 2560 2630 2560 
L 2630 2738 
C 2483 2732 2214 2732 2061 2732 
C 1901 2732 1734 2732 1587 2738 
L 1587 2560 
C 1939 2560 1939 2547 2074 2149 
L 1485 451 
L 851 2281 
C 819 2363 819 2376 819 2395 
C 819 2560 1037 2560 1139 2560 
L 1139 2738 
C 986 2732 717 2732 557 2732 
C 416 2732 198 2732 64 2738 
L 64 2560 
C 346 2560 416 2541 486 2331 
L 1274 49 
C 1299 -33 1318 -52 1370 -52 
C 1414 -52 1440 -39 1472 56 
L 2131 1980 
L 2797 56 
C 2829 -39 2854 -52 2899 -52 
C 2950 -52 2970 -33 2995 50 
L 3725 2183 
z
" transform="scale(0.015625)"/>
       <path id="CMR17-6c" d="M 979 4396 
L 218 4326 
L 218 4160 
C 595 4160 653 4122 653 3817 
L 653 426 
C 653 184 627 153 218 153 
L 218 -13 
C 371 0 653 0 813 0 
C 979 0 1261 0 1414 -13 
L 1414 153 
C 1005 153 979 178 979 426 
L 979 4396 
z
" transform="scale(0.015625)"/>
       <path id="CMR17-63" d="M 2234 2240 
C 2112 2240 1933 2240 1933 2017 
C 1933 1838 2080 1787 2163 1787 
C 2208 1787 2394 1807 2394 2024 
C 2394 2467 1958 2803 1466 2803 
C 787 2803 211 2178 211 1363 
C 211 516 813 -64 1466 -64 
C 2259 -64 2458 677 2458 748 
C 2458 774 2451 793 2406 793 
C 2362 793 2355 787 2330 703 
C 2163 180 1798 51 1523 51 
C 1114 51 621 427 621 1369 
C 621 2338 1094 2688 1472 2688 
C 1722 2688 2093 2573 2234 2240 
z
" transform="scale(0.015625)"/>
       <path id="CMR17-6b" d="M 1670 1673 
C 1664 1686 1632 1724 1632 1743 
C 1632 1756 2086 2171 2144 2222 
C 2509 2528 2739 2560 2906 2560 
L 2906 2733 
C 2867 2733 2854 2733 2848 2720 
L 2534 2720 
C 2355 2720 2080 2720 1907 2733 
L 1907 2566 
C 1997 2559 2061 2508 2061 2419 
C 2061 2291 1933 2170 1926 2170 
L 960 1289 
L 960 4396 
L 198 4326 
L 198 4160 
C 576 4160 634 4122 634 3817 
L 634 426 
C 634 184 608 153 198 153 
L 198 -13 
C 352 0 634 0 794 0 
C 954 0 1235 0 1389 -13 
L 1389 153 
C 979 153 954 178 954 428 
L 954 1130 
L 1395 1532 
L 2042 574 
C 2118 459 2182 369 2182 286 
C 2182 172 2067 153 1990 153 
L 1990 -13 
C 2144 0 2419 0 2579 0 
C 2694 0 2931 0 3040 0 
L 3040 153 
C 2739 153 2669 210 2477 491 
L 1670 1673 
z
" transform="scale(0.015625)"/>
       <path id="CMR17-64" d="M 1869 4326 
L 1869 4160 
C 2246 4160 2304 4122 2304 3820 
L 2304 2345 
C 2278 2377 2016 2790 1498 2790 
C 845 2790 211 2208 211 1364 
C 211 525 806 -64 1434 -64 
C 1978 -64 2259 337 2291 380 
L 2291 -63 
L 3066 -63 
L 3066 128 
C 2688 128 2630 166 2630 473 
L 2630 4396 
L 1869 4326 
z
M 2291 755 
C 2291 563 2176 390 2029 262 
C 1811 70 1594 38 1472 38 
C 1286 38 621 134 621 1356 
C 621 2612 1363 2688 1530 2688 
C 1824 2688 2061 2522 2208 2291 
C 2291 2157 2291 2138 2291 2023 
L 2291 755 
z
" transform="scale(0.015625)"/>
       <path id="CMR17-70" d="M 1408 -1063 
C 998 -1063 973 -1037 973 -789 
L 973 402 
C 1158 134 1427 -38 1766 -38 
C 2406 -38 3053 523 3053 1388 
C 3053 2191 2496 2802 1837 2802 
C 1453 2802 1139 2592 960 2338 
L 960 2802 
L 198 2732 
L 198 2567 
C 576 2567 634 2528 634 2223 
L 634 -789 
C 634 -1031 608 -1063 198 -1063 
L 198 -1228 
C 352 -1216 634 -1216 800 -1216 
C 966 -1216 1254 -1216 1408 -1228 
L 1408 -1063 
z
M 973 2012 
C 973 2102 973 2235 1222 2471 
C 1254 2497 1472 2688 1792 2688 
C 2259 2688 2643 2108 2643 1382 
C 2643 656 2234 64 1728 64 
C 1498 64 1248 172 1056 472 
C 973 612 973 650 973 752 
L 973 2012 
z
" transform="scale(0.015625)"/>
       <path id="CMR17-61" d="M 2304 1653 
C 2304 2072 2304 2294 2035 2543 
C 1798 2752 1523 2816 1306 2816 
C 800 2816 435 2407 435 1971 
C 435 1728 627 1728 666 1728 
C 749 1728 896 1778 896 1954 
C 896 2112 774 2181 666 2181 
C 640 2181 608 2174 589 2168 
C 723 2592 1069 2714 1293 2714 
C 1613 2714 1965 2429 1965 1885 
L 1965 1600 
C 1587 1600 1133 1549 774 1357 
C 371 1133 256 813 256 570 
C 256 77 832 -64 1171 -64 
C 1523 -64 1850 139 1990 511 
C 2003 233 2182 -18 2464 -18 
C 2598 -18 2938 70 2938 567 
L 2938 920 
L 2822 920 
L 2822 562 
C 2822 178 2650 128 2566 128 
C 2304 128 2304 458 2304 738 
L 2304 1653 
z
M 1965 870 
C 1965 317 1568 38 1216 38 
C 896 38 646 275 646 570 
C 646 761 730 1100 1101 1305 
C 1408 1478 1760 1504 1965 1504 
L 1965 870 
z
" transform="scale(0.015625)"/>
       <path id="CMMI12-6b" d="M 1798 4257 
C 1805 4283 1818 4321 1818 4352 
C 1818 4416 1754 4416 1741 4416 
C 1734 4416 1504 4393 1389 4377 
C 1280 4377 1184 4358 1069 4358 
C 915 4345 870 4339 870 4224 
C 870 4160 934 4160 998 4160 
C 1325 4160 1325 4103 1325 4040 
C 1325 4015 1325 4002 1293 3888 
L 378 248 
C 352 152 352 140 352 101 
C 352 -38 461 -64 525 -64 
C 704 -64 742 77 794 275 
L 1094 1469 
C 1555 1418 1830 1226 1830 920 
C 1830 881 1830 856 1811 760 
C 1786 664 1786 588 1786 556 
C 1786 185 2029 -64 2355 -64 
C 2650 -64 2803 204 2854 294 
C 2989 530 3072 888 3072 913 
C 3072 945 3046 971 3008 971 
C 2950 971 2944 945 2918 843 
C 2829 511 2694 64 2368 64 
C 2240 64 2157 128 2157 370 
C 2157 492 2182 632 2208 728 
C 2234 843 2234 849 2234 926 
C 2234 1303 1894 1514 1306 1590 
C 1536 1731 1766 1980 1856 2076 
C 2221 2484 2470 2689 2765 2689 
C 2912 2689 2950 2650 2995 2612 
C 2758 2586 2669 2420 2669 2293 
C 2669 2139 2790 2088 2880 2088 
C 3053 2088 3206 2235 3206 2440 
C 3206 2625 3059 2816 2771 2816 
C 2419 2816 2131 2567 1677 2056 
C 1613 1980 1376 1737 1139 1648 
L 1798 4257 
z
" transform="scale(0.015625)"/>
       <path id="CMMI12-4e" d="M 4736 3698 
C 4806 3974 4909 4166 5395 4166 
C 5414 4166 5491 4166 5491 4279 
C 5491 4352 5434 4352 5408 4352 
C 5280 4352 4954 4352 4826 4352 
L 4518 4352 
C 4429 4352 4314 4352 4224 4352 
C 4186 4352 4109 4352 4109 4230 
C 4109 4166 4160 4166 4205 4166 
C 4589 4166 4614 4019 4614 3903 
C 4614 3846 4608 3826 4589 3737 
L 3866 850 
L 2496 4249 
C 2451 4352 2445 4352 2304 4352 
L 1523 4352 
C 1395 4352 1338 4352 1338 4230 
C 1338 4166 1382 4166 1504 4166 
C 1536 4166 1914 4166 1914 4115 
C 1914 4102 1901 4051 1894 4032 
L 1043 635 
C 966 320 813 186 390 186 
C 358 186 294 186 294 67 
C 294 0 358 0 378 0 
C 506 0 832 0 960 0 
L 1267 0 
C 1357 0 1466 0 1555 0 
C 1600 0 1670 0 1670 122 
C 1670 180 1606 186 1581 186 
C 1370 186 1165 224 1165 454 
C 1165 505 1178 562 1190 613 
L 2054 4032 
C 2093 3968 2093 3956 2118 3898 
L 3642 115 
C 3674 38 3686 0 3744 0 
C 3808 0 3814 19 3840 128 
L 4736 3698 
z
" transform="scale(0.015625)"/>
       <path id="CMR17-3d" d="M 4115 2017 
C 4211 2017 4307 2017 4307 2125 
C 4307 2240 4198 2240 4090 2240 
L 512 2240 
C 403 2240 294 2240 294 2125 
C 294 2017 390 2017 486 2017 
L 4115 2017 
z
M 4090 896 
C 4198 896 4307 896 4307 1011 
C 4307 1119 4211 1119 4115 1119 
L 486 1119 
C 390 1119 294 1119 294 1011 
C 294 896 403 896 512 896 
L 4090 896 
z
" transform="scale(0.015625)"/>
      </defs>
      <use xlink:href="#CMR17-4e" transform="scale(0.996264)"/>
      <use xlink:href="#CMR17-75" transform="translate(69.07243 0) scale(0.996264)"/>
      <use xlink:href="#CMR17-6d" transform="translate(119.9678 0) scale(0.996264)"/>
      <use xlink:href="#CMR17-62" transform="translate(194.284936 0) scale(0.996264)"/>
      <use xlink:href="#CMR17-65" transform="translate(247.782744 0) scale(0.996264)"/>
      <use xlink:href="#CMR17-72" transform="translate(288.268404 0) scale(0.996264)"/>
      <use xlink:href="#CMR17-6f" transform="translate(353.625139 0) scale(0.996264)"/>
      <use xlink:href="#CMR17-66" transform="translate(399.315616 0) scale(0.996264)"/>
      <use xlink:href="#CMR17-77" transform="translate(456.865095 0) scale(0.996264)"/>
      <use xlink:href="#CMR17-65" transform="translate(520.772521 0) scale(0.996264)"/>
      <use xlink:href="#CMR17-6c" transform="translate(561.258182 0) scale(0.996264)"/>
      <use xlink:href="#CMR17-6c" transform="translate(586.12924 0) scale(0.996264)"/>
      <use xlink:href="#CMR17-63" transform="translate(641.076265 0) scale(0.996264)"/>
      <use xlink:href="#CMR17-6f" transform="translate(681.561925 0) scale(0.996264)"/>
      <use xlink:href="#CMR17-6f" transform="translate(729.854841 0) scale(0.996264)"/>
      <use xlink:href="#CMR17-6b" transform="translate(775.545318 0) scale(0.996264)"/>
      <use xlink:href="#CMR17-65" transform="translate(821.23578 0) scale(0.996264)"/>
      <use xlink:href="#CMR17-64" transform="translate(861.721441 0) scale(0.996264)"/>
      <use xlink:href="#CMR17-70" transform="translate(942.692777 0) scale(0.996264)"/>
      <use xlink:href="#CMR17-6f" transform="translate(996.190585 0) scale(0.996264)"/>
      <use xlink:href="#CMR17-74" transform="translate(1041.881062 0) scale(0.996264)"/>
      <use xlink:href="#CMR17-61" transform="translate(1077.16183 0) scale(0.996264)"/>
      <use xlink:href="#CMR17-74" transform="translate(1122.852307 0) scale(0.996264)"/>
      <use xlink:href="#CMR17-6f" transform="translate(1158.133075 0) scale(0.996264)"/>
      <use xlink:href="#CMR17-65" transform="translate(1206.425991 0) scale(0.996264)"/>
      <use xlink:href="#CMR17-73" transform="translate(1246.911651 0) scale(0.996264)"/>
      <use xlink:href="#CMMI12-6b" transform="translate(1312.788955 0) scale(0.996264)"/>
      <use xlink:href="#CMR17-6f" transform="translate(1396.944123 0) scale(0.996264)"/>
      <use xlink:href="#CMR17-75" transform="translate(1442.6346 0) scale(0.996264)"/>
      <use xlink:href="#CMR17-74" transform="translate(1493.529969 0) scale(0.996264)"/>
      <use xlink:href="#CMR17-6f" transform="translate(1558.886704 0) scale(0.996264)"/>
      <use xlink:href="#CMR17-66" transform="translate(1604.577181 0) scale(0.996264)"/>
      <use xlink:href="#CMMI12-4e" transform="translate(1662.126659 0) scale(0.996264)"/>
      <use xlink:href="#CMR17-3d" transform="translate(1778.322441 0) scale(0.996264)"/>
      <use xlink:href="#CMR17-34" transform="translate(1877.711238 0) scale(0.996264)"/>
      <use xlink:href="#CMR17-30" transform="translate(1923.401715 0) scale(0.996264)"/>
     </g>
    </g>
   </g>
   <g id="LineCollection_1">
    <path d="M 43.254882 374.16419 
L 43.254882 374.16419 
" style="fill: none; stroke: #c70303; stroke-width: 2"/>
    <path d="M 53.312415 374.16419 
L 53.312415 374.16419 
" style="fill: none; stroke: #c70303; stroke-width: 2"/>
    <path d="M 63.369947 374.16419 
L 63.369947 374.16419 
" style="fill: none; stroke: #c70303; stroke-width: 2"/>
    <path d="M 73.42748 374.16419 
L 73.42748 374.16419 
" style="fill: none; stroke: #c70303; stroke-width: 2"/>
    <path d="M 83.485012 374.16419 
L 83.485012 374.16419 
" style="fill: none; stroke: #c70303; stroke-width: 2"/>
    <path d="M 93.542545 374.16419 
L 93.542545 374.16419 
" style="fill: none; stroke: #c70303; stroke-width: 2"/>
    <path d="M 103.600078 374.16419 
L 103.600078 356.058128 
" style="fill: none; stroke: #c70303; stroke-width: 2"/>
    <path d="M 113.65761 374.16419 
L 113.65761 328.899034 
" style="fill: none; stroke: #c70303; stroke-width: 2"/>
    <path d="M 123.715143 356.058128 
L 123.715143 301.73994 
" style="fill: none; stroke: #c70303; stroke-width: 2"/>
    <path d="M 133.772675 337.952065 
L 133.772675 265.527815 
" style="fill: none; stroke: #c70303; stroke-width: 2"/>
    <path d="M 143.830208 319.846003 
L 143.830208 229.315689 
" style="fill: none; stroke: #c70303; stroke-width: 2"/>
    <path d="M 153.887741 292.686909 
L 153.887741 202.156596 
" style="fill: none; stroke: #c70303; stroke-width: 2"/>
    <path d="M 163.945273 265.527815 
L 163.945273 165.94447 
" style="fill: none; stroke: #c70303; stroke-width: 2"/>
    <path d="M 174.002806 238.368721 
L 174.002806 138.785376 
" style="fill: none; stroke: #c70303; stroke-width: 2"/>
    <path d="M 184.060338 211.209627 
L 184.060338 120.679314 
" style="fill: none; stroke: #c70303; stroke-width: 2"/>
    <path d="M 194.117871 184.050533 
L 194.117871 93.52022 
" style="fill: none; stroke: #c70303; stroke-width: 2"/>
    <path d="M 204.175403 165.94447 
L 204.175403 75.414157 
" style="fill: none; stroke: #c70303; stroke-width: 2"/>
    <path d="M 214.232936 147.838408 
L 214.232936 66.361126 
" style="fill: none; stroke: #c70303; stroke-width: 2"/>
    <path d="M 224.290469 129.732345 
L 224.290469 57.308095 
" style="fill: none; stroke: #c70303; stroke-width: 2"/>
    <path d="M 234.348001 111.626283 
L 234.348001 39.202032 
" style="fill: none; stroke: #c70303; stroke-width: 2"/>
    <path d="M 244.405534 102.573251 
L 244.405534 39.202032 
" style="fill: none; stroke: #c70303; stroke-width: 2"/>
    <path d="M 254.463066 93.52022 
L 254.463066 30.149001 
" style="fill: none; stroke: #c70303; stroke-width: 2"/>
    <path d="M 264.520599 84.467189 
L 264.520599 21.09597 
" style="fill: none; stroke: #c70303; stroke-width: 2"/>
    <path d="M 274.578132 75.414157 
L 274.578132 21.09597 
" style="fill: none; stroke: #c70303; stroke-width: 2"/>
    <path d="M 284.635664 66.361126 
L 284.635664 21.09597 
" style="fill: none; stroke: #c70303; stroke-width: 2"/>
    <path d="M 294.693197 57.308095 
L 294.693197 12.042938 
" style="fill: none; stroke: #c70303; stroke-width: 2"/>
    <path d="M 304.750729 57.308095 
L 304.750729 12.042938 
" style="fill: none; stroke: #c70303; stroke-width: 2"/>
    <path d="M 314.808262 48.255063 
L 314.808262 12.042938 
" style="fill: none; stroke: #c70303; stroke-width: 2"/>
    <path d="M 324.865794 48.255063 
L 324.865794 12.042938 
" style="fill: none; stroke: #c70303; stroke-width: 2"/>
    <path d="M 334.923327 39.202032 
L 334.923327 12.042938 
" style="fill: none; stroke: #c70303; stroke-width: 2"/>
    <path d="M 344.98086 39.202032 
L 344.98086 12.042938 
" style="fill: none; stroke: #c70303; stroke-width: 2"/>
    <path d="M 355.038392 39.202032 
L 355.038392 12.042938 
" style="fill: none; stroke: #c70303; stroke-width: 2"/>
    <path d="M 365.095925 30.149001 
L 365.095925 12.042938 
" style="fill: none; stroke: #c70303; stroke-width: 2"/>
    <path d="M 375.153457 30.149001 
L 375.153457 12.042938 
" style="fill: none; stroke: #c70303; stroke-width: 2"/>
    <path d="M 385.21099 30.149001 
L 385.21099 12.042938 
" style="fill: none; stroke: #c70303; stroke-width: 2"/>
    <path d="M 395.268523 30.149001 
L 395.268523 12.042938 
" style="fill: none; stroke: #c70303; stroke-width: 2"/>
    <path d="M 405.326055 21.09597 
L 405.326055 12.042938 
" style="fill: none; stroke: #c70303; stroke-width: 2"/>
    <path d="M 415.383588 21.09597 
L 415.383588 12.042938 
" style="fill: none; stroke: #c70303; stroke-width: 2"/>
    <path d="M 425.44112 21.09597 
L 425.44112 12.042938 
" style="fill: none; stroke: #c70303; stroke-width: 2"/>
    <path d="M 435.498653 21.09597 
L 435.498653 12.042938 
" style="fill: none; stroke: #c70303; stroke-width: 2"/>
    <path d="M 445.556186 21.09597 
L 445.556186 12.042938 
" style="fill: none; stroke: #c70303; stroke-width: 2"/>
    <path d="M 455.613718 21.09597 
L 455.613718 12.042938 
" style="fill: none; stroke: #c70303; stroke-width: 2"/>
    <path d="M 465.671251 21.09597 
L 465.671251 12.042938 
" style="fill: none; stroke: #c70303; stroke-width: 2"/>
    <path d="M 475.728783 21.09597 
L 475.728783 12.042938 
" style="fill: none; stroke: #c70303; stroke-width: 2"/>
    <path d="M 485.786316 21.09597 
L 485.786316 12.042938 
" style="fill: none; stroke: #c70303; stroke-width: 2"/>
    <path d="M 495.843848 21.09597 
L 495.843848 12.042938 
" style="fill: none; stroke: #c70303; stroke-width: 2"/>
    <path d="M 505.901381 21.09597 
L 505.901381 12.042938 
" style="fill: none; stroke: #c70303; stroke-width: 2"/>
    <path d="M 515.958914 12.042938 
L 515.958914 12.042938 
" style="fill: none; stroke: #c70303; stroke-width: 2"/>
    <path d="M 526.016446 12.042938 
L 526.016446 12.042938 
" style="fill: none; stroke: #c70303; stroke-width: 2"/>
    <path d="M 536.073979 12.042938 
L 536.073979 12.042938 
" style="fill: none; stroke: #c70303; stroke-width: 2"/>
   </g>
   <g id="line2d_16">
    <defs>
     <path id="m91d01d1619" d="M 3 0 
L -3 -0 
" style="stroke: #c70303"/>
    </defs>
    <g>
     <use xlink:href="#m91d01d1619" x="43.254882" y="374.16419" style="fill: #c70303; stroke: #c70303"/>
     <use xlink:href="#m91d01d1619" x="53.312415" y="374.16419" style="fill: #c70303; stroke: #c70303"/>
     <use xlink:href="#m91d01d1619" x="63.369947" y="374.16419" style="fill: #c70303; stroke: #c70303"/>
     <use xlink:href="#m91d01d1619" x="73.42748" y="374.16419" style="fill: #c70303; stroke: #c70303"/>
     <use xlink:href="#m91d01d1619" x="83.485012" y="374.16419" style="fill: #c70303; stroke: #c70303"/>
     <use xlink:href="#m91d01d1619" x="93.542545" y="374.16419" style="fill: #c70303; stroke: #c70303"/>
     <use xlink:href="#m91d01d1619" x="103.600078" y="374.16419" style="fill: #c70303; stroke: #c70303"/>
     <use xlink:href="#m91d01d1619" x="113.65761" y="374.16419" style="fill: #c70303; stroke: #c70303"/>
     <use xlink:href="#m91d01d1619" x="123.715143" y="356.058128" style="fill: #c70303; stroke: #c70303"/>
     <use xlink:href="#m91d01d1619" x="133.772675" y="337.952065" style="fill: #c70303; stroke: #c70303"/>
     <use xlink:href="#m91d01d1619" x="143.830208" y="319.846003" style="fill: #c70303; stroke: #c70303"/>
     <use xlink:href="#m91d01d1619" x="153.887741" y="292.686909" style="fill: #c70303; stroke: #c70303"/>
     <use xlink:href="#m91d01d1619" x="163.945273" y="265.527815" style="fill: #c70303; stroke: #c70303"/>
     <use xlink:href="#m91d01d1619" x="174.002806" y="238.368721" style="fill: #c70303; stroke: #c70303"/>
     <use xlink:href="#m91d01d1619" x="184.060338" y="211.209627" style="fill: #c70303; stroke: #c70303"/>
     <use xlink:href="#m91d01d1619" x="194.117871" y="184.050533" style="fill: #c70303; stroke: #c70303"/>
     <use xlink:href="#m91d01d1619" x="204.175403" y="165.94447" style="fill: #c70303; stroke: #c70303"/>
     <use xlink:href="#m91d01d1619" x="214.232936" y="147.838408" style="fill: #c70303; stroke: #c70303"/>
     <use xlink:href="#m91d01d1619" x="224.290469" y="129.732345" style="fill: #c70303; stroke: #c70303"/>
     <use xlink:href="#m91d01d1619" x="234.348001" y="111.626283" style="fill: #c70303; stroke: #c70303"/>
     <use xlink:href="#m91d01d1619" x="244.405534" y="102.573251" style="fill: #c70303; stroke: #c70303"/>
     <use xlink:href="#m91d01d1619" x="254.463066" y="93.52022" style="fill: #c70303; stroke: #c70303"/>
     <use xlink:href="#m91d01d1619" x="264.520599" y="84.467189" style="fill: #c70303; stroke: #c70303"/>
     <use xlink:href="#m91d01d1619" x="274.578132" y="75.414157" style="fill: #c70303; stroke: #c70303"/>
     <use xlink:href="#m91d01d1619" x="284.635664" y="66.361126" style="fill: #c70303; stroke: #c70303"/>
     <use xlink:href="#m91d01d1619" x="294.693197" y="57.308095" style="fill: #c70303; stroke: #c70303"/>
     <use xlink:href="#m91d01d1619" x="304.750729" y="57.308095" style="fill: #c70303; stroke: #c70303"/>
     <use xlink:href="#m91d01d1619" x="314.808262" y="48.255063" style="fill: #c70303; stroke: #c70303"/>
     <use xlink:href="#m91d01d1619" x="324.865794" y="48.255063" style="fill: #c70303; stroke: #c70303"/>
     <use xlink:href="#m91d01d1619" x="334.923327" y="39.202032" style="fill: #c70303; stroke: #c70303"/>
     <use xlink:href="#m91d01d1619" x="344.98086" y="39.202032" style="fill: #c70303; stroke: #c70303"/>
     <use xlink:href="#m91d01d1619" x="355.038392" y="39.202032" style="fill: #c70303; stroke: #c70303"/>
     <use xlink:href="#m91d01d1619" x="365.095925" y="30.149001" style="fill: #c70303; stroke: #c70303"/>
     <use xlink:href="#m91d01d1619" x="375.153457" y="30.149001" style="fill: #c70303; stroke: #c70303"/>
     <use xlink:href="#m91d01d1619" x="385.21099" y="30.149001" style="fill: #c70303; stroke: #c70303"/>
     <use xlink:href="#m91d01d1619" x="395.268523" y="30.149001" style="fill: #c70303; stroke: #c70303"/>
     <use xlink:href="#m91d01d1619" x="405.326055" y="21.09597" style="fill: #c70303; stroke: #c70303"/>
     <use xlink:href="#m91d01d1619" x="415.383588" y="21.09597" style="fill: #c70303; stroke: #c70303"/>
     <use xlink:href="#m91d01d1619" x="425.44112" y="21.09597" style="fill: #c70303; stroke: #c70303"/>
     <use xlink:href="#m91d01d1619" x="435.498653" y="21.09597" style="fill: #c70303; stroke: #c70303"/>
     <use xlink:href="#m91d01d1619" x="445.556186" y="21.09597" style="fill: #c70303; stroke: #c70303"/>
     <use xlink:href="#m91d01d1619" x="455.613718" y="21.09597" style="fill: #c70303; stroke: #c70303"/>
     <use xlink:href="#m91d01d1619" x="465.671251" y="21.09597" style="fill: #c70303; stroke: #c70303"/>
     <use xlink:href="#m91d01d1619" x="475.728783" y="21.09597" style="fill: #c70303; stroke: #c70303"/>
     <use xlink:href="#m91d01d1619" x="485.786316" y="21.09597" style="fill: #c70303; stroke: #c70303"/>
     <use xlink:href="#m91d01d1619" x="495.843848" y="21.09597" style="fill: #c70303; stroke: #c70303"/>
     <use xlink:href="#m91d01d1619" x="505.901381" y="21.09597" style="fill: #c70303; stroke: #c70303"/>
     <use xlink:href="#m91d01d1619" x="515.958914" y="12.042938" style="fill: #c70303; stroke: #c70303"/>
     <use xlink:href="#m91d01d1619" x="526.016446" y="12.042938" style="fill: #c70303; stroke: #c70303"/>
     <use xlink:href="#m91d01d1619" x="536.073979" y="12.042938" style="fill: #c70303; stroke: #c70303"/>
    </g>
   </g>
   <g id="line2d_17">
    <g>
     <use xlink:href="#m91d01d1619" x="43.254882" y="374.16419" style="fill: #c70303; stroke: #c70303"/>
     <use xlink:href="#m91d01d1619" x="53.312415" y="374.16419" style="fill: #c70303; stroke: #c70303"/>
     <use xlink:href="#m91d01d1619" x="63.369947" y="374.16419" style="fill: #c70303; stroke: #c70303"/>
     <use xlink:href="#m91d01d1619" x="73.42748" y="374.16419" style="fill: #c70303; stroke: #c70303"/>
     <use xlink:href="#m91d01d1619" x="83.485012" y="374.16419" style="fill: #c70303; stroke: #c70303"/>
     <use xlink:href="#m91d01d1619" x="93.542545" y="374.16419" style="fill: #c70303; stroke: #c70303"/>
     <use xlink:href="#m91d01d1619" x="103.600078" y="356.058128" style="fill: #c70303; stroke: #c70303"/>
     <use xlink:href="#m91d01d1619" x="113.65761" y="328.899034" style="fill: #c70303; stroke: #c70303"/>
     <use xlink:href="#m91d01d1619" x="123.715143" y="301.73994" style="fill: #c70303; stroke: #c70303"/>
     <use xlink:href="#m91d01d1619" x="133.772675" y="265.527815" style="fill: #c70303; stroke: #c70303"/>
     <use xlink:href="#m91d01d1619" x="143.830208" y="229.315689" style="fill: #c70303; stroke: #c70303"/>
     <use xlink:href="#m91d01d1619" x="153.887741" y="202.156596" style="fill: #c70303; stroke: #c70303"/>
     <use xlink:href="#m91d01d1619" x="163.945273" y="165.94447" style="fill: #c70303; stroke: #c70303"/>
     <use xlink:href="#m91d01d1619" x="174.002806" y="138.785376" style="fill: #c70303; stroke: #c70303"/>
     <use xlink:href="#m91d01d1619" x="184.060338" y="120.679314" style="fill: #c70303; stroke: #c70303"/>
     <use xlink:href="#m91d01d1619" x="194.117871" y="93.52022" style="fill: #c70303; stroke: #c70303"/>
     <use xlink:href="#m91d01d1619" x="204.175403" y="75.414157" style="fill: #c70303; stroke: #c70303"/>
     <use xlink:href="#m91d01d1619" x="214.232936" y="66.361126" style="fill: #c70303; stroke: #c70303"/>
     <use xlink:href="#m91d01d1619" x="224.290469" y="57.308095" style="fill: #c70303; stroke: #c70303"/>
     <use xlink:href="#m91d01d1619" x="234.348001" y="39.202032" style="fill: #c70303; stroke: #c70303"/>
     <use xlink:href="#m91d01d1619" x="244.405534" y="39.202032" style="fill: #c70303; stroke: #c70303"/>
     <use xlink:href="#m91d01d1619" x="254.463066" y="30.149001" style="fill: #c70303; stroke: #c70303"/>
     <use xlink:href="#m91d01d1619" x="264.520599" y="21.09597" style="fill: #c70303; stroke: #c70303"/>
     <use xlink:href="#m91d01d1619" x="274.578132" y="21.09597" style="fill: #c70303; stroke: #c70303"/>
     <use xlink:href="#m91d01d1619" x="284.635664" y="21.09597" style="fill: #c70303; stroke: #c70303"/>
     <use xlink:href="#m91d01d1619" x="294.693197" y="12.042938" style="fill: #c70303; stroke: #c70303"/>
     <use xlink:href="#m91d01d1619" x="304.750729" y="12.042938" style="fill: #c70303; stroke: #c70303"/>
     <use xlink:href="#m91d01d1619" x="314.808262" y="12.042938" style="fill: #c70303; stroke: #c70303"/>
     <use xlink:href="#m91d01d1619" x="324.865794" y="12.042938" style="fill: #c70303; stroke: #c70303"/>
     <use xlink:href="#m91d01d1619" x="334.923327" y="12.042938" style="fill: #c70303; stroke: #c70303"/>
     <use xlink:href="#m91d01d1619" x="344.98086" y="12.042938" style="fill: #c70303; stroke: #c70303"/>
     <use xlink:href="#m91d01d1619" x="355.038392" y="12.042938" style="fill: #c70303; stroke: #c70303"/>
     <use xlink:href="#m91d01d1619" x="365.095925" y="12.042938" style="fill: #c70303; stroke: #c70303"/>
     <use xlink:href="#m91d01d1619" x="375.153457" y="12.042938" style="fill: #c70303; stroke: #c70303"/>
     <use xlink:href="#m91d01d1619" x="385.21099" y="12.042938" style="fill: #c70303; stroke: #c70303"/>
     <use xlink:href="#m91d01d1619" x="395.268523" y="12.042938" style="fill: #c70303; stroke: #c70303"/>
     <use xlink:href="#m91d01d1619" x="405.326055" y="12.042938" style="fill: #c70303; stroke: #c70303"/>
     <use xlink:href="#m91d01d1619" x="415.383588" y="12.042938" style="fill: #c70303; stroke: #c70303"/>
     <use xlink:href="#m91d01d1619" x="425.44112" y="12.042938" style="fill: #c70303; stroke: #c70303"/>
     <use xlink:href="#m91d01d1619" x="435.498653" y="12.042938" style="fill: #c70303; stroke: #c70303"/>
     <use xlink:href="#m91d01d1619" x="445.556186" y="12.042938" style="fill: #c70303; stroke: #c70303"/>
     <use xlink:href="#m91d01d1619" x="455.613718" y="12.042938" style="fill: #c70303; stroke: #c70303"/>
     <use xlink:href="#m91d01d1619" x="465.671251" y="12.042938" style="fill: #c70303; stroke: #c70303"/>
     <use xlink:href="#m91d01d1619" x="475.728783" y="12.042938" style="fill: #c70303; stroke: #c70303"/>
     <use xlink:href="#m91d01d1619" x="485.786316" y="12.042938" style="fill: #c70303; stroke: #c70303"/>
     <use xlink:href="#m91d01d1619" x="495.843848" y="12.042938" style="fill: #c70303; stroke: #c70303"/>
     <use xlink:href="#m91d01d1619" x="505.901381" y="12.042938" style="fill: #c70303; stroke: #c70303"/>
     <use xlink:href="#m91d01d1619" x="515.958914" y="12.042938" style="fill: #c70303; stroke: #c70303"/>
     <use xlink:href="#m91d01d1619" x="526.016446" y="12.042938" style="fill: #c70303; stroke: #c70303"/>
     <use xlink:href="#m91d01d1619" x="536.073979" y="12.042938" style="fill: #c70303; stroke: #c70303"/>
    </g>
   </g>
   <g id="line2d_18">
    <path d="M 43.254882 374.16419 
L 53.312415 374.16419 
L 63.369947 374.16419 
L 73.42748 374.16419 
L 83.485012 374.16419 
L 93.542545 374.16419 
L 103.600078 374.16419 
L 113.65761 356.058128 
L 123.715143 337.952065 
L 133.772675 310.792971 
L 143.830208 274.580846 
L 153.887741 247.421752 
L 163.945273 220.262658 
L 174.002806 184.050533 
L 184.060338 165.94447 
L 194.117871 138.785376 
L 204.175403 120.679314 
L 214.232936 102.573251 
L 224.290469 93.52022 
L 234.348001 75.414157 
L 244.405534 66.361126 
L 254.463066 57.308095 
L 264.520599 48.255063 
L 274.578132 39.202032 
L 284.635664 39.202032 
L 294.693197 30.149001 
L 304.750729 30.149001 
L 314.808262 30.149001 
L 324.865794 21.09597 
L 334.923327 21.09597 
L 344.98086 21.09597 
L 355.038392 21.09597 
L 365.095925 21.09597 
L 375.153457 12.042938 
L 385.21099 12.042938 
L 395.268523 12.042938 
L 405.326055 12.042938 
L 415.383588 12.042938 
L 425.44112 12.042938 
L 435.498653 12.042938 
L 445.556186 12.042938 
L 455.613718 12.042938 
L 465.671251 12.042938 
L 475.728783 12.042938 
L 485.786316 12.042938 
L 495.843848 12.042938 
L 505.901381 12.042938 
L 515.958914 12.042938 
L 526.016446 12.042938 
L 536.073979 12.042938 
" style="fill: none; stroke: #c70303; stroke-width: 2; stroke-linecap: square"/>
    <defs>
     <path id="m03bfa6e1ac" d="M 0 2 
C 0.530406 2 1.03916 1.789267 1.414214 1.414214 
C 1.789267 1.03916 2 0.530406 2 0 
C 2 -0.530406 1.789267 -1.03916 1.414214 -1.414214 
C 1.03916 -1.789267 0.530406 -2 0 -2 
C -0.530406 -2 -1.03916 -1.789267 -1.414214 -1.414214 
C -1.789267 -1.03916 -2 -0.530406 -2 0 
C -2 0.530406 -1.789267 1.03916 -1.414214 1.414214 
C -1.03916 1.789267 -0.530406 2 0 2 
z
" style="stroke: #c70303"/>
    </defs>
    <g>
     <use xlink:href="#m03bfa6e1ac" x="43.254882" y="374.16419" style="fill: #c70303; stroke: #c70303"/>
     <use xlink:href="#m03bfa6e1ac" x="53.312415" y="374.16419" style="fill: #c70303; stroke: #c70303"/>
     <use xlink:href="#m03bfa6e1ac" x="63.369947" y="374.16419" style="fill: #c70303; stroke: #c70303"/>
     <use xlink:href="#m03bfa6e1ac" x="73.42748" y="374.16419" style="fill: #c70303; stroke: #c70303"/>
     <use xlink:href="#m03bfa6e1ac" x="83.485012" y="374.16419" style="fill: #c70303; stroke: #c70303"/>
     <use xlink:href="#m03bfa6e1ac" x="93.542545" y="374.16419" style="fill: #c70303; stroke: #c70303"/>
     <use xlink:href="#m03bfa6e1ac" x="103.600078" y="374.16419" style="fill: #c70303; stroke: #c70303"/>
     <use xlink:href="#m03bfa6e1ac" x="113.65761" y="356.058128" style="fill: #c70303; stroke: #c70303"/>
     <use xlink:href="#m03bfa6e1ac" x="123.715143" y="337.952065" style="fill: #c70303; stroke: #c70303"/>
     <use xlink:href="#m03bfa6e1ac" x="133.772675" y="310.792971" style="fill: #c70303; stroke: #c70303"/>
     <use xlink:href="#m03bfa6e1ac" x="143.830208" y="274.580846" style="fill: #c70303; stroke: #c70303"/>
     <use xlink:href="#m03bfa6e1ac" x="153.887741" y="247.421752" style="fill: #c70303; stroke: #c70303"/>
     <use xlink:href="#m03bfa6e1ac" x="163.945273" y="220.262658" style="fill: #c70303; stroke: #c70303"/>
     <use xlink:href="#m03bfa6e1ac" x="174.002806" y="184.050533" style="fill: #c70303; stroke: #c70303"/>
     <use xlink:href="#m03bfa6e1ac" x="184.060338" y="165.94447" style="fill: #c70303; stroke: #c70303"/>
     <use xlink:href="#m03bfa6e1ac" x="194.117871" y="138.785376" style="fill: #c70303; stroke: #c70303"/>
     <use xlink:href="#m03bfa6e1ac" x="204.175403" y="120.679314" style="fill: #c70303; stroke: #c70303"/>
     <use xlink:href="#m03bfa6e1ac" x="214.232936" y="102.573251" style="fill: #c70303; stroke: #c70303"/>
     <use xlink:href="#m03bfa6e1ac" x="224.290469" y="93.52022" style="fill: #c70303; stroke: #c70303"/>
     <use xlink:href="#m03bfa6e1ac" x="234.348001" y="75.414157" style="fill: #c70303; stroke: #c70303"/>
     <use xlink:href="#m03bfa6e1ac" x="244.405534" y="66.361126" style="fill: #c70303; stroke: #c70303"/>
     <use xlink:href="#m03bfa6e1ac" x="254.463066" y="57.308095" style="fill: #c70303; stroke: #c70303"/>
     <use xlink:href="#m03bfa6e1ac" x="264.520599" y="48.255063" style="fill: #c70303; stroke: #c70303"/>
     <use xlink:href="#m03bfa6e1ac" x="274.578132" y="39.202032" style="fill: #c70303; stroke: #c70303"/>
     <use xlink:href="#m03bfa6e1ac" x="284.635664" y="39.202032" style="fill: #c70303; stroke: #c70303"/>
     <use xlink:href="#m03bfa6e1ac" x="294.693197" y="30.149001" style="fill: #c70303; stroke: #c70303"/>
     <use xlink:href="#m03bfa6e1ac" x="304.750729" y="30.149001" style="fill: #c70303; stroke: #c70303"/>
     <use xlink:href="#m03bfa6e1ac" x="314.808262" y="30.149001" style="fill: #c70303; stroke: #c70303"/>
     <use xlink:href="#m03bfa6e1ac" x="324.865794" y="21.09597" style="fill: #c70303; stroke: #c70303"/>
     <use xlink:href="#m03bfa6e1ac" x="334.923327" y="21.09597" style="fill: #c70303; stroke: #c70303"/>
     <use xlink:href="#m03bfa6e1ac" x="344.98086" y="21.09597" style="fill: #c70303; stroke: #c70303"/>
     <use xlink:href="#m03bfa6e1ac" x="355.038392" y="21.09597" style="fill: #c70303; stroke: #c70303"/>
     <use xlink:href="#m03bfa6e1ac" x="365.095925" y="21.09597" style="fill: #c70303; stroke: #c70303"/>
     <use xlink:href="#m03bfa6e1ac" x="375.153457" y="12.042938" style="fill: #c70303; stroke: #c70303"/>
     <use xlink:href="#m03bfa6e1ac" x="385.21099" y="12.042938" style="fill: #c70303; stroke: #c70303"/>
     <use xlink:href="#m03bfa6e1ac" x="395.268523" y="12.042938" style="fill: #c70303; stroke: #c70303"/>
     <use xlink:href="#m03bfa6e1ac" x="405.326055" y="12.042938" style="fill: #c70303; stroke: #c70303"/>
     <use xlink:href="#m03bfa6e1ac" x="415.383588" y="12.042938" style="fill: #c70303; stroke: #c70303"/>
     <use xlink:href="#m03bfa6e1ac" x="425.44112" y="12.042938" style="fill: #c70303; stroke: #c70303"/>
     <use xlink:href="#m03bfa6e1ac" x="435.498653" y="12.042938" style="fill: #c70303; stroke: #c70303"/>
     <use xlink:href="#m03bfa6e1ac" x="445.556186" y="12.042938" style="fill: #c70303; stroke: #c70303"/>
     <use xlink:href="#m03bfa6e1ac" x="455.613718" y="12.042938" style="fill: #c70303; stroke: #c70303"/>
     <use xlink:href="#m03bfa6e1ac" x="465.671251" y="12.042938" style="fill: #c70303; stroke: #c70303"/>
     <use xlink:href="#m03bfa6e1ac" x="475.728783" y="12.042938" style="fill: #c70303; stroke: #c70303"/>
     <use xlink:href="#m03bfa6e1ac" x="485.786316" y="12.042938" style="fill: #c70303; stroke: #c70303"/>
     <use xlink:href="#m03bfa6e1ac" x="495.843848" y="12.042938" style="fill: #c70303; stroke: #c70303"/>
     <use xlink:href="#m03bfa6e1ac" x="505.901381" y="12.042938" style="fill: #c70303; stroke: #c70303"/>
     <use xlink:href="#m03bfa6e1ac" x="515.958914" y="12.042938" style="fill: #c70303; stroke: #c70303"/>
     <use xlink:href="#m03bfa6e1ac" x="526.016446" y="12.042938" style="fill: #c70303; stroke: #c70303"/>
     <use xlink:href="#m03bfa6e1ac" x="536.073979" y="12.042938" style="fill: #c70303; stroke: #c70303"/>
    </g>
   </g>
   <g id="patch_3">
    <path d="M 43.254882 374.16419 
L 43.254882 12.042938 
" style="fill: none; stroke: #000000; stroke-width: 0.6; stroke-linejoin: miter; stroke-linecap: square"/>
   </g>
   <g id="patch_4">
    <path d="M 43.254882 374.16419 
L 546.131511 374.16419 
" style="fill: none; stroke: #000000; stroke-width: 0.6; stroke-linejoin: miter; stroke-linecap: square"/>
   </g>
  </g>
 </g>
</svg>
