<?xml version="1.0" encoding="utf-8" standalone="no"?>
<!DOCTYPE svg PUBLIC "-//W3C//DTD SVG 1.1//EN"
  "http://www.w3.org/Graphics/SVG/1.1/DTD/svg11.dtd">
<svg xmlns:xlink="http://www.w3.org/1999/xlink" width="560.16pt" height="416.16pt" viewBox="0 0 560.16 416.16" xmlns="http://www.w3.org/2000/svg" version="1.1">
 <metadata>
  <rdf:RDF xmlns:dc="http://purl.org/dc/elements/1.1/" xmlns:cc="http://creativecommons.org/ns#" xmlns:rdf="http://www.w3.org/1999/02/22-rdf-syntax-ns#">
   <cc:Work>
    <dc:type rdf:resource="http://purl.org/dc/dcmitype/StillImage"/>
    <dc:date>2025-12-05T17:40:08.204882</dc:date>
    <dc:format>image/svg+xml</dc:format>
    <dc:creator>
     <cc:Agent>
      <dc:title>Matplotlib v3.8.4, https://matplotlib.org/</dc:title>
     </cc:Agent>
    </dc:creator>
   </cc:Work>
  </rdf:RDF>
 </metadata>
 <defs>
  <style type="text/css">*{stroke-linejoin: round; stroke-linecap: butt}</style>
 </defs>
 <g id="figure_1">
  <g id="patch_1">
   <path d="M 0 416.16 
L 560.16 416.16 
L 560.16 -0 
L 0 -0 
L 0 416.16 
z
" style="fill: none"/>
  </g>
  <g id="axes_1">
   <g id="patch_2">
    <path d="M 48.598278 374.16419 
L 546.131511 374.16419 
L 546.131511 12.042938 
L 48.598278 12.042938 
L 48.598278 374.16419 
z
" style="fill: none"/>
   </g>
   <g id="matplotlib.axis_1">
    <g id="xtick_1">
     <g id="line2d_1">
      <defs>
       <path id="m4cd371f86f" d="M 0 0 
L 0 2.5 
" style="stroke: #000000; stroke-width: 0.6"/>
      </defs>
      <g>
       <use xlink:href="#m4cd371f86f" x="48.598278" y="374.16419" style="stroke: #000000; stroke-width: 0.6"/>
      </g>
     </g>
     <g id="text_1">
      <!-- $\mathdefault{0}$ -->
      <g transform="translate(45.184034 389.850067) scale(0.14 -0.14)">
       <defs>
        <path id="CMR17-30" d="M 2688 2025 
C 2688 2416 2682 3080 2413 3591 
C 2176 4039 1798 4198 1466 4198 
C 1158 4198 768 4058 525 3597 
C 269 3118 243 2524 243 2025 
C 243 1661 250 1106 448 619 
C 723 -39 1216 -128 1466 -128 
C 1760 -128 2208 -7 2470 600 
C 2662 1042 2688 1559 2688 2025 
z
M 1466 -26 
C 1056 -26 813 325 723 812 
C 653 1188 653 1738 653 2096 
C 653 2588 653 2997 736 3387 
C 858 3929 1216 4096 1466 4096 
C 1728 4096 2067 3923 2189 3400 
C 2272 3036 2278 2607 2278 2096 
C 2278 1680 2278 1169 2202 792 
C 2067 95 1690 -26 1466 -26 
z
" transform="scale(0.015625)"/>
       </defs>
       <use xlink:href="#CMR17-30" transform="scale(0.996264)"/>
      </g>
     </g>
    </g>
    <g id="xtick_2">
     <g id="line2d_2">
      <g>
       <use xlink:href="#m4cd371f86f" x="148.104925" y="374.16419" style="stroke: #000000; stroke-width: 0.6"/>
      </g>
     </g>
     <g id="text_2">
      <!-- $\mathdefault{10}$ -->
      <g transform="translate(141.276436 389.850067) scale(0.14 -0.14)">
       <defs>
        <path id="CMR17-31" d="M 1702 4058 
C 1702 4192 1696 4192 1606 4192 
C 1357 3916 979 3827 621 3827 
C 602 3827 570 3827 563 3808 
C 557 3795 557 3782 557 3648 
C 755 3648 1088 3686 1344 3839 
L 1344 461 
C 1344 236 1331 160 781 160 
L 589 160 
L 589 0 
C 896 0 1216 0 1523 0 
C 1830 0 2150 0 2458 0 
L 2458 160 
L 2266 160 
C 1715 160 1702 230 1702 458 
L 1702 4058 
z
" transform="scale(0.015625)"/>
       </defs>
       <use xlink:href="#CMR17-31" transform="scale(0.996264)"/>
       <use xlink:href="#CMR17-30" transform="translate(45.690477 0) scale(0.996264)"/>
      </g>
     </g>
    </g>
    <g id="xtick_3">
     <g id="line2d_3">
      <g>
       <use xlink:href="#m4cd371f86f" x="247.611571" y="374.16419" style="stroke: #000000; stroke-width: 0.6"/>
      </g>
     </g>
     <g id="text_3">
      <!-- $\mathdefault{20}$ -->
      <g transform="translate(240.783083 389.850067) scale(0.14 -0.14)">
       <defs>
        <path id="CMR17-32" d="M 2669 989 
L 2554 989 
C 2490 536 2438 459 2413 420 
C 2381 369 1920 369 1830 369 
L 602 369 
C 832 619 1280 1072 1824 1597 
C 2214 1967 2669 2402 2669 3035 
C 2669 3790 2067 4224 1395 4224 
C 691 4224 262 3604 262 3030 
C 262 2780 448 2748 525 2748 
C 589 2748 781 2787 781 3010 
C 781 3207 614 3264 525 3264 
C 486 3264 448 3258 422 3245 
C 544 3790 915 4058 1306 4058 
C 1862 4058 2227 3617 2227 3035 
C 2227 2479 1901 2000 1536 1584 
L 262 146 
L 262 0 
L 2515 0 
L 2669 989 
z
" transform="scale(0.015625)"/>
       </defs>
       <use xlink:href="#CMR17-32" transform="scale(0.996264)"/>
       <use xlink:href="#CMR17-30" transform="translate(45.690477 0) scale(0.996264)"/>
      </g>
     </g>
    </g>
    <g id="xtick_4">
     <g id="line2d_4">
      <g>
       <use xlink:href="#m4cd371f86f" x="347.118218" y="374.16419" style="stroke: #000000; stroke-width: 0.6"/>
      </g>
     </g>
     <g id="text_4">
      <!-- $\mathdefault{30}$ -->
      <g transform="translate(340.289729 389.850067) scale(0.14 -0.14)">
       <defs>
        <path id="CMR17-33" d="M 1414 2157 
C 1984 2157 2234 1662 2234 1090 
C 2234 320 1824 25 1453 25 
C 1114 25 563 194 390 693 
C 422 680 454 680 486 680 
C 640 680 755 782 755 948 
C 755 1133 614 1216 486 1216 
C 378 1216 211 1165 211 926 
C 211 335 787 -128 1466 -128 
C 2176 -128 2720 430 2720 1085 
C 2720 1707 2208 2157 1600 2227 
C 2086 2328 2554 2756 2554 3329 
C 2554 3820 2048 4179 1472 4179 
C 890 4179 378 3829 378 3329 
C 378 3110 544 3072 627 3072 
C 762 3072 877 3155 877 3321 
C 877 3486 762 3569 627 3569 
C 602 3569 570 3569 544 3557 
C 730 3959 1235 4032 1459 4032 
C 1683 4032 2106 3925 2106 3320 
C 2106 3143 2080 2828 1862 2550 
C 1670 2304 1453 2304 1242 2284 
C 1210 2284 1062 2269 1037 2269 
C 992 2263 966 2257 966 2208 
C 966 2163 973 2157 1101 2157 
L 1414 2157 
z
" transform="scale(0.015625)"/>
       </defs>
       <use xlink:href="#CMR17-33" transform="scale(0.996264)"/>
       <use xlink:href="#CMR17-30" transform="translate(45.690477 0) scale(0.996264)"/>
      </g>
     </g>
    </g>
    <g id="xtick_5">
     <g id="line2d_5">
      <g>
       <use xlink:href="#m4cd371f86f" x="446.624865" y="374.16419" style="stroke: #000000; stroke-width: 0.6"/>
      </g>
     </g>
     <g id="text_5">
      <!-- $\mathdefault{40}$ -->
      <g transform="translate(439.796376 389.850067) scale(0.14 -0.14)">
       <defs>
        <path id="CMR17-34" d="M 2150 4122 
C 2150 4256 2144 4256 2029 4256 
L 128 1254 
L 128 1088 
L 1779 1088 
L 1779 457 
C 1779 224 1766 160 1318 160 
L 1197 160 
L 1197 0 
C 1402 0 1747 0 1965 0 
C 2182 0 2528 0 2733 0 
L 2733 160 
L 2611 160 
C 2163 160 2150 224 2150 457 
L 2150 1088 
L 2803 1088 
L 2803 1254 
L 2150 1254 
L 2150 4122 
z
M 1798 3703 
L 1798 1254 
L 256 1254 
L 1798 3703 
z
" transform="scale(0.015625)"/>
       </defs>
       <use xlink:href="#CMR17-34" transform="scale(0.996264)"/>
       <use xlink:href="#CMR17-30" transform="translate(45.690477 0) scale(0.996264)"/>
      </g>
     </g>
    </g>
    <g id="xtick_6">
     <g id="line2d_6">
      <g>
       <use xlink:href="#m4cd371f86f" x="546.131511" y="374.16419" style="stroke: #000000; stroke-width: 0.6"/>
      </g>
     </g>
     <g id="text_6">
      <!-- $\mathdefault{50}$ -->
      <g transform="translate(539.303023 389.850067) scale(0.14 -0.14)">
       <defs>
        <path id="CMR17-35" d="M 730 3692 
C 794 3666 1056 3584 1325 3584 
C 1920 3584 2246 3911 2432 4100 
C 2432 4157 2432 4192 2394 4192 
C 2387 4192 2374 4192 2323 4163 
C 2099 4058 1837 3973 1517 3973 
C 1325 3973 1037 3999 723 4139 
C 653 4171 640 4171 634 4171 
C 602 4171 595 4164 595 4037 
L 595 2203 
C 595 2089 595 2057 659 2057 
C 691 2057 704 2070 736 2114 
C 941 2401 1222 2522 1542 2522 
C 1766 2522 2246 2382 2246 1289 
C 2246 1085 2246 715 2054 421 
C 1894 159 1645 25 1370 25 
C 947 25 518 320 403 814 
C 429 807 480 795 506 795 
C 589 795 749 840 749 1038 
C 749 1210 627 1280 506 1280 
C 358 1280 262 1190 262 1011 
C 262 454 704 -128 1382 -128 
C 2042 -128 2669 440 2669 1264 
C 2669 2030 2170 2624 1549 2624 
C 1222 2624 947 2503 730 2274 
L 730 3692 
z
" transform="scale(0.015625)"/>
       </defs>
       <use xlink:href="#CMR17-35" transform="scale(0.996264)"/>
       <use xlink:href="#CMR17-30" transform="translate(45.690477 0) scale(0.996264)"/>
      </g>
     </g>
    </g>
    <g id="text_7">
     <!-- $t$ -->
     <g transform="translate(294.899052 406.247972) scale(0.14 -0.14)">
      <defs>
       <path id="CMMI12-74" d="M 1286 2566 
L 1875 2566 
C 1997 2566 2061 2566 2061 2681 
C 2061 2752 2022 2752 1894 2752 
L 1331 2752 
L 1568 3692 
C 1594 3781 1594 3794 1594 3840 
C 1594 3943 1510 4000 1427 4000 
C 1376 4000 1229 3981 1178 3775 
L 928 2752 
L 326 2752 
C 198 2752 141 2752 141 2630 
C 141 2566 186 2566 307 2566 
L 877 2566 
L 454 881 
C 403 658 384 594 384 511 
C 384 211 595 -64 954 -64 
C 1600 -64 1946 868 1946 912 
C 1946 951 1920 970 1882 970 
C 1869 970 1843 970 1830 944 
C 1824 938 1818 931 1773 829 
C 1638 511 1344 64 973 64 
C 781 64 768 224 768 364 
C 768 370 768 492 787 568 
L 1286 2566 
z
" transform="scale(0.015625)"/>
      </defs>
      <use xlink:href="#CMMI12-74" transform="scale(0.996264)"/>
     </g>
    </g>
   </g>
   <g id="matplotlib.axis_2">
    <g id="ytick_1">
     <g id="line2d_7">
      <defs>
       <path id="m56f3a9ced1" d="M 0 0 
L -2.5 0 
" style="stroke: #000000; stroke-width: 0.6"/>
      </defs>
      <g>
       <use xlink:href="#m56f3a9ced1" x="48.598278" y="374.16419" style="stroke: #000000; stroke-width: 0.6"/>
      </g>
     </g>
     <g id="text_8">
      <!-- $\mathdefault{0.0}$ -->
      <g transform="translate(25.147696 379.007129) scale(0.14 -0.14)">
       <defs>
        <path id="CMMI12-3a" d="M 1178 307 
C 1178 492 1024 619 870 619 
C 685 619 557 466 557 313 
C 557 128 710 0 864 0 
C 1050 0 1178 153 1178 307 
z
" transform="scale(0.015625)"/>
       </defs>
       <use xlink:href="#CMR17-30" transform="scale(0.996264)"/>
       <use xlink:href="#CMMI12-3a" transform="translate(45.690477 0) scale(0.996264)"/>
       <use xlink:href="#CMR17-30" transform="translate(72.787654 0) scale(0.996264)"/>
      </g>
     </g>
    </g>
    <g id="ytick_2">
     <g id="line2d_8">
      <g>
       <use xlink:href="#m56f3a9ced1" x="48.598278" y="301.73994" style="stroke: #000000; stroke-width: 0.6"/>
      </g>
     </g>
     <g id="text_9">
      <!-- $\mathdefault{0.2}$ -->
      <g transform="translate(25.147696 306.582878) scale(0.14 -0.14)">
       <use xlink:href="#CMR17-30" transform="scale(0.996264)"/>
       <use xlink:href="#CMMI12-3a" transform="translate(45.690477 0) scale(0.996264)"/>
       <use xlink:href="#CMR17-32" transform="translate(72.787654 0) scale(0.996264)"/>
      </g>
     </g>
    </g>
    <g id="ytick_3">
     <g id="line2d_9">
      <g>
       <use xlink:href="#m56f3a9ced1" x="48.598278" y="229.315689" style="stroke: #000000; stroke-width: 0.6"/>
      </g>
     </g>
     <g id="text_10">
      <!-- $\mathdefault{0.4}$ -->
      <g transform="translate(25.147696 234.158628) scale(0.14 -0.14)">
       <use xlink:href="#CMR17-30" transform="scale(0.996264)"/>
       <use xlink:href="#CMMI12-3a" transform="translate(45.690477 0) scale(0.996264)"/>
       <use xlink:href="#CMR17-34" transform="translate(72.787654 0) scale(0.996264)"/>
      </g>
     </g>
    </g>
    <g id="ytick_4">
     <g id="line2d_10">
      <g>
       <use xlink:href="#m56f3a9ced1" x="48.598278" y="156.891439" style="stroke: #000000; stroke-width: 0.6"/>
      </g>
     </g>
     <g id="text_11">
      <!-- $\mathdefault{0.6}$ -->
      <g transform="translate(25.147696 161.734377) scale(0.14 -0.14)">
       <defs>
        <path id="CMR17-36" d="M 678 2176 
C 678 3690 1395 4032 1811 4032 
C 1946 4032 2272 4009 2400 3776 
C 2298 3776 2106 3776 2106 3553 
C 2106 3381 2246 3323 2336 3323 
C 2394 3323 2566 3348 2566 3560 
C 2566 3954 2246 4179 1805 4179 
C 1043 4179 243 3390 243 1984 
C 243 253 966 -128 1478 -128 
C 2099 -128 2688 427 2688 1283 
C 2688 2081 2170 2662 1517 2662 
C 1126 2662 838 2407 678 1960 
L 678 2176 
z
M 1478 25 
C 691 25 691 1200 691 1436 
C 691 1896 909 2560 1504 2560 
C 1613 2560 1926 2560 2138 2120 
C 2253 1870 2253 1609 2253 1289 
C 2253 944 2253 690 2118 434 
C 1978 171 1773 25 1478 25 
z
" transform="scale(0.015625)"/>
       </defs>
       <use xlink:href="#CMR17-30" transform="scale(0.996264)"/>
       <use xlink:href="#CMMI12-3a" transform="translate(45.690477 0) scale(0.996264)"/>
       <use xlink:href="#CMR17-36" transform="translate(72.787654 0) scale(0.996264)"/>
      </g>
     </g>
    </g>
    <g id="ytick_5">
     <g id="line2d_11">
      <g>
       <use xlink:href="#m56f3a9ced1" x="48.598278" y="84.467189" style="stroke: #000000; stroke-width: 0.6"/>
      </g>
     </g>
     <g id="text_12">
      <!-- $\mathdefault{0.8}$ -->
      <g transform="translate(25.147696 89.310127) scale(0.14 -0.14)">
       <defs>
        <path id="CMR17-38" d="M 1741 2264 
C 2144 2467 2554 2773 2554 3263 
C 2554 3841 1990 4179 1472 4179 
C 890 4179 378 3759 378 3180 
C 378 3021 416 2747 666 2505 
C 730 2442 998 2251 1171 2130 
C 883 1983 211 1634 211 934 
C 211 279 838 -128 1459 -128 
C 2144 -128 2720 362 2720 1010 
C 2720 1590 2330 1857 2074 2029 
L 1741 2264 
z
M 902 2822 
C 851 2854 595 3051 595 3351 
C 595 3739 998 4032 1459 4032 
C 1965 4032 2336 3676 2336 3262 
C 2336 2669 1670 2331 1638 2331 
C 1632 2331 1626 2331 1574 2370 
L 902 2822 
z
M 2080 1519 
C 2176 1449 2483 1240 2483 851 
C 2483 381 2010 25 1472 25 
C 890 25 448 438 448 940 
C 448 1443 838 1862 1280 2060 
L 2080 1519 
z
" transform="scale(0.015625)"/>
       </defs>
       <use xlink:href="#CMR17-30" transform="scale(0.996264)"/>
       <use xlink:href="#CMMI12-3a" transform="translate(45.690477 0) scale(0.996264)"/>
       <use xlink:href="#CMR17-38" transform="translate(72.787654 0) scale(0.996264)"/>
      </g>
     </g>
    </g>
    <g id="ytick_6">
     <g id="line2d_12">
      <g>
       <use xlink:href="#m56f3a9ced1" x="48.598278" y="12.042938" style="stroke: #000000; stroke-width: 0.6"/>
      </g>
     </g>
     <g id="text_13">
      <!-- $\mathdefault{1.0}$ -->
      <g transform="translate(25.147696 16.885876) scale(0.14 -0.14)">
       <use xlink:href="#CMR17-31" transform="scale(0.996264)"/>
       <use xlink:href="#CMMI12-3a" transform="translate(45.690477 0) scale(0.996264)"/>
       <use xlink:href="#CMR17-30" transform="translate(72.787654 0) scale(0.996264)"/>
      </g>
     </g>
    </g>
    <g id="text_14">
     <!-- $P_6(t)$ -->
     <g transform="translate(17.660772 208.039536) rotate(-90) scale(0.14 -0.14)">
      <defs>
       <path id="CMMI12-50" d="M 1894 2023 
L 2970 2023 
C 3853 2023 4736 2673 4736 3401 
C 4736 3898 4314 4352 3507 4352 
L 1530 4352 
C 1408 4352 1350 4352 1350 4231 
C 1350 4167 1408 4167 1504 4167 
C 1894 4167 1894 4116 1894 4046 
C 1894 4034 1894 3995 1869 3899 
L 1005 472 
C 947 249 934 185 486 185 
C 365 185 301 185 301 70 
C 301 0 358 0 397 0 
C 518 0 646 0 768 0 
L 1517 0 
C 1638 0 1773 0 1894 0 
C 1946 0 2016 0 2016 121 
C 2016 185 1958 185 1862 185 
C 1478 185 1472 230 1472 293 
C 1472 325 1478 369 1485 401 
L 1894 2023 
z
M 2355 3930 
C 2413 4167 2438 4167 2688 4167 
L 3322 4167 
C 3802 4167 4198 4013 4198 3535 
C 4198 3369 4115 2827 3821 2534 
C 3712 2419 3405 2176 2822 2176 
L 1920 2176 
L 2355 3930 
z
" transform="scale(0.015625)"/>
       <path id="CMR17-28" d="M 1958 -1561 
C 1958 -1555 1958 -1542 1939 -1523 
C 1645 -1224 858 -407 858 1581 
C 858 3569 1632 4379 1946 4697 
C 1946 4704 1958 4717 1958 4736 
C 1958 4755 1939 4768 1914 4768 
C 1843 4768 1299 4296 986 3594 
C 666 2887 576 2199 576 1588 
C 576 1128 621 351 1005 -471 
C 1312 -1135 1837 -1600 1914 -1600 
C 1946 -1600 1958 -1587 1958 -1561 
z
" transform="scale(0.015625)"/>
       <path id="CMR17-29" d="M 1683 1581 
C 1683 2040 1638 2817 1254 3639 
C 947 4303 422 4768 346 4768 
C 326 4768 301 4761 301 4729 
C 301 4717 307 4710 314 4697 
C 621 4378 1402 3568 1402 1584 
C 1402 -407 627 -1217 314 -1537 
C 307 -1549 301 -1556 301 -1568 
C 301 -1600 326 -1600 346 -1600 
C 416 -1600 960 -1128 1274 -426 
C 1594 281 1683 969 1683 1581 
z
" transform="scale(0.015625)"/>
      </defs>
      <use xlink:href="#CMMI12-50" transform="scale(0.996264)"/>
      <use xlink:href="#CMR17-36" transform="translate(62.877232 -14.943915) scale(0.697382)"/>
      <use xlink:href="#CMR17-28" transform="translate(95.358546 0) scale(0.996264)"/>
      <use xlink:href="#CMMI12-74" transform="translate(130.639314 0) scale(0.996264)"/>
      <use xlink:href="#CMR17-29" transform="translate(165.865644 0) scale(0.996264)"/>
     </g>
    </g>
   </g>
   <g id="line2d_13">
    <path d="M 48.598278 374.16419 
L 58.548943 374.16419 
L 68.499608 374.16419 
L 78.450272 374.16419 
L 88.400937 374.16419 
L 98.351602 374.16419 
L 108.302266 368.575899 
L 118.252931 354.605172 
L 128.203595 332.87293 
L 138.15426 305.707626 
L 148.104925 275.735242 
L 158.055589 245.174276 
L 168.006254 215.621828 
L 177.956919 188.085218 
L 187.907583 163.103503 
L 197.858248 140.881067 
L 207.808913 121.401964 
L 217.759577 104.516954 
L 227.710242 90.005067 
L 237.660907 77.61474 
L 247.611571 67.08988 
L 257.562236 58.185339 
L 267.512901 50.675288 
L 277.463565 44.356988 
L 287.41423 39.051692 
L 297.364895 34.603867 
L 307.315559 30.879492 
L 317.266224 27.763932 
L 327.216889 25.159683 
L 337.167553 22.984172 
L 347.118218 21.167711 
L 357.068883 19.651634 
L 367.019547 18.386665 
L 376.970212 17.331475 
L 386.920877 16.451451 
L 396.871541 15.717631 
L 406.822206 15.105804 
L 416.772871 14.595741 
L 426.723535 14.17055 
L 436.6742 13.816132 
L 446.624865 13.520723 
L 456.575529 13.274507 
L 466.526194 13.0693 
L 476.476859 12.898276 
L 486.427523 12.755744 
L 496.378188 12.636959 
L 506.328853 12.537967 
L 516.279517 12.455469 
L 526.230182 12.386719 
L 536.180847 12.329425 
" style="fill: none; stroke: #c70303; stroke-width: 2; stroke-linecap: square"/>
    <defs>
     <path id="m03bfa6e1ac" d="M 0 2 
C 0.530406 2 1.03916 1.789267 1.414214 1.414214 
C 1.789267 1.03916 2 0.530406 2 0 
C 2 -0.530406 1.789267 -1.03916 1.414214 -1.414214 
C 1.03916 -1.789267 0.530406 -2 0 -2 
C -0.530406 -2 -1.03916 -1.789267 -1.414214 -1.414214 
C -1.789267 -1.03916 -2 -0.530406 -2 0 
C -2 0.530406 -1.789267 1.03916 -1.414214 1.414214 
C -1.03916 1.789267 -0.530406 2 0 2 
z
" style="stroke: #c70303"/>
    </defs>
    <g>
     <use xlink:href="#m03bfa6e1ac" x="48.598278" y="374.16419" style="fill: #c70303; stroke: #c70303"/>
     <use xlink:href="#m03bfa6e1ac" x="58.548943" y="374.16419" style="fill: #c70303; stroke: #c70303"/>
     <use xlink:href="#m03bfa6e1ac" x="68.499608" y="374.16419" style="fill: #c70303; stroke: #c70303"/>
     <use xlink:href="#m03bfa6e1ac" x="78.450272" y="374.16419" style="fill: #c70303; stroke: #c70303"/>
     <use xlink:href="#m03bfa6e1ac" x="88.400937" y="374.16419" style="fill: #c70303; stroke: #c70303"/>
     <use xlink:href="#m03bfa6e1ac" x="98.351602" y="374.16419" style="fill: #c70303; stroke: #c70303"/>
     <use xlink:href="#m03bfa6e1ac" x="108.302266" y="368.575899" style="fill: #c70303; stroke: #c70303"/>
     <use xlink:href="#m03bfa6e1ac" x="118.252931" y="354.605172" style="fill: #c70303; stroke: #c70303"/>
     <use xlink:href="#m03bfa6e1ac" x="128.203595" y="332.87293" style="fill: #c70303; stroke: #c70303"/>
     <use xlink:href="#m03bfa6e1ac" x="138.15426" y="305.707626" style="fill: #c70303; stroke: #c70303"/>
     <use xlink:href="#m03bfa6e1ac" x="148.104925" y="275.735242" style="fill: #c70303; stroke: #c70303"/>
     <use xlink:href="#m03bfa6e1ac" x="158.055589" y="245.174276" style="fill: #c70303; stroke: #c70303"/>
     <use xlink:href="#m03bfa6e1ac" x="168.006254" y="215.621828" style="fill: #c70303; stroke: #c70303"/>
     <use xlink:href="#m03bfa6e1ac" x="177.956919" y="188.085218" style="fill: #c70303; stroke: #c70303"/>
     <use xlink:href="#m03bfa6e1ac" x="187.907583" y="163.103503" style="fill: #c70303; stroke: #c70303"/>
     <use xlink:href="#m03bfa6e1ac" x="197.858248" y="140.881067" style="fill: #c70303; stroke: #c70303"/>
     <use xlink:href="#m03bfa6e1ac" x="207.808913" y="121.401964" style="fill: #c70303; stroke: #c70303"/>
     <use xlink:href="#m03bfa6e1ac" x="217.759577" y="104.516954" style="fill: #c70303; stroke: #c70303"/>
     <use xlink:href="#m03bfa6e1ac" x="227.710242" y="90.005067" style="fill: #c70303; stroke: #c70303"/>
     <use xlink:href="#m03bfa6e1ac" x="237.660907" y="77.61474" style="fill: #c70303; stroke: #c70303"/>
     <use xlink:href="#m03bfa6e1ac" x="247.611571" y="67.08988" style="fill: #c70303; stroke: #c70303"/>
     <use xlink:href="#m03bfa6e1ac" x="257.562236" y="58.185339" style="fill: #c70303; stroke: #c70303"/>
     <use xlink:href="#m03bfa6e1ac" x="267.512901" y="50.675288" style="fill: #c70303; stroke: #c70303"/>
     <use xlink:href="#m03bfa6e1ac" x="277.463565" y="44.356988" style="fill: #c70303; stroke: #c70303"/>
     <use xlink:href="#m03bfa6e1ac" x="287.41423" y="39.051692" style="fill: #c70303; stroke: #c70303"/>
     <use xlink:href="#m03bfa6e1ac" x="297.364895" y="34.603867" style="fill: #c70303; stroke: #c70303"/>
     <use xlink:href="#m03bfa6e1ac" x="307.315559" y="30.879492" style="fill: #c70303; stroke: #c70303"/>
     <use xlink:href="#m03bfa6e1ac" x="317.266224" y="27.763932" style="fill: #c70303; stroke: #c70303"/>
     <use xlink:href="#m03bfa6e1ac" x="327.216889" y="25.159683" style="fill: #c70303; stroke: #c70303"/>
     <use xlink:href="#m03bfa6e1ac" x="337.167553" y="22.984172" style="fill: #c70303; stroke: #c70303"/>
     <use xlink:href="#m03bfa6e1ac" x="347.118218" y="21.167711" style="fill: #c70303; stroke: #c70303"/>
     <use xlink:href="#m03bfa6e1ac" x="357.068883" y="19.651634" style="fill: #c70303; stroke: #c70303"/>
     <use xlink:href="#m03bfa6e1ac" x="367.019547" y="18.386665" style="fill: #c70303; stroke: #c70303"/>
     <use xlink:href="#m03bfa6e1ac" x="376.970212" y="17.331475" style="fill: #c70303; stroke: #c70303"/>
     <use xlink:href="#m03bfa6e1ac" x="386.920877" y="16.451451" style="fill: #c70303; stroke: #c70303"/>
     <use xlink:href="#m03bfa6e1ac" x="396.871541" y="15.717631" style="fill: #c70303; stroke: #c70303"/>
     <use xlink:href="#m03bfa6e1ac" x="406.822206" y="15.105804" style="fill: #c70303; stroke: #c70303"/>
     <use xlink:href="#m03bfa6e1ac" x="416.772871" y="14.595741" style="fill: #c70303; stroke: #c70303"/>
     <use xlink:href="#m03bfa6e1ac" x="426.723535" y="14.17055" style="fill: #c70303; stroke: #c70303"/>
     <use xlink:href="#m03bfa6e1ac" x="436.6742" y="13.816132" style="fill: #c70303; stroke: #c70303"/>
     <use xlink:href="#m03bfa6e1ac" x="446.624865" y="13.520723" style="fill: #c70303; stroke: #c70303"/>
     <use xlink:href="#m03bfa6e1ac" x="456.575529" y="13.274507" style="fill: #c70303; stroke: #c70303"/>
     <use xlink:href="#m03bfa6e1ac" x="466.526194" y="13.0693" style="fill: #c70303; stroke: #c70303"/>
     <use xlink:href="#m03bfa6e1ac" x="476.476859" y="12.898276" style="fill: #c70303; stroke: #c70303"/>
     <use xlink:href="#m03bfa6e1ac" x="486.427523" y="12.755744" style="fill: #c70303; stroke: #c70303"/>
     <use xlink:href="#m03bfa6e1ac" x="496.378188" y="12.636959" style="fill: #c70303; stroke: #c70303"/>
     <use xlink:href="#m03bfa6e1ac" x="506.328853" y="12.537967" style="fill: #c70303; stroke: #c70303"/>
     <use xlink:href="#m03bfa6e1ac" x="516.279517" y="12.455469" style="fill: #c70303; stroke: #c70303"/>
     <use xlink:href="#m03bfa6e1ac" x="526.230182" y="12.386719" style="fill: #c70303; stroke: #c70303"/>
     <use xlink:href="#m03bfa6e1ac" x="536.180847" y="12.329425" style="fill: #c70303; stroke: #c70303"/>
    </g>
   </g>
   <g id="patch_3">
    <path d="M 48.598278 374.16419 
L 48.598278 12.042938 
" style="fill: none; stroke: #000000; stroke-width: 0.6; stroke-linejoin: miter; stroke-linecap: square"/>
   </g>
   <g id="patch_4">
    <path d="M 48.598278 374.16419 
L 546.131511 374.16419 
" style="fill: none; stroke: #000000; stroke-width: 0.6; stroke-linejoin: miter; stroke-linecap: square"/>
   </g>
  </g>
 </g>
</svg>
