<?xml version="1.0" encoding="utf-8" standalone="no"?>
<!DOCTYPE svg PUBLIC "-//W3C//DTD SVG 1.1//EN"
  "http://www.w3.org/Graphics/SVG/1.1/DTD/svg11.dtd">
<svg xmlns:xlink="http://www.w3.org/1999/xlink" width="560.08189pt" height="416.16pt" viewBox="0 0 560.08189 416.16" xmlns="http://www.w3.org/2000/svg" version="1.1">
 <metadata>
  <rdf:RDF xmlns:dc="http://purl.org/dc/elements/1.1/" xmlns:cc="http://creativecommons.org/ns#" xmlns:rdf="http://www.w3.org/1999/02/22-rdf-syntax-ns#">
   <cc:Work>
    <dc:type rdf:resource="http://purl.org/dc/dcmitype/StillImage"/>
    <dc:date>2026-01-06T05:14:15.621195</dc:date>
    <dc:format>image/svg+xml</dc:format>
    <dc:creator>
     <cc:Agent>
      <dc:title>Matplotlib v3.10.3, https://matplotlib.org/</dc:title>
     </cc:Agent>
    </dc:creator>
   </cc:Work>
  </rdf:RDF>
 </metadata>
 <defs>
  <style type="text/css">*{stroke-linejoin: round; stroke-linecap: butt}</style>
 </defs>
 <g id="figure_1">
  <g id="patch_1">
   <path d="M 0 416.16 
L 560.08189 416.16 
L 560.08189 0 
L 0 0 
L 0 416.16 
z
" style="fill: none"/>
  </g>
  <g id="axes_1">
   <g id="patch_2">
    <path d="M 44.804673 374.16419 
L 538.148982 374.16419 
L 538.148982 12.042938 
L 44.804673 12.042938 
L 44.804673 374.16419 
z
" style="fill: none"/>
   </g>
   <g id="matplotlib.axis_1">
    <g id="xtick_1">
     <g id="line2d_1">
      <defs>
       <path id="m4cd371f86f" d="M 0 0 
L 0 2.5 
" style="stroke: #000000; stroke-width: 0.6"/>
      </defs>
      <g>
       <use xlink:href="#m4cd371f86f" x="44.804673" y="374.16419" style="stroke: #000000; stroke-width: 0.6"/>
      </g>
     </g>
     <g id="text_1">
      <!-- 08:00 -->
      <g transform="translate(29.250894 389.850067) scale(0.14 -0.14)">
       <defs>
        <path id="CMR17-30" d="M 2688 2025 
C 2688 2416 2682 3080 2413 3591 
C 2176 4039 1798 4198 1466 4198 
C 1158 4198 768 4058 525 3597 
C 269 3118 243 2524 243 2025 
C 243 1661 250 1106 448 619 
C 723 -39 1216 -128 1466 -128 
C 1760 -128 2208 -7 2470 600 
C 2662 1042 2688 1559 2688 2025 
z
M 1466 -26 
C 1056 -26 813 325 723 812 
C 653 1188 653 1738 653 2096 
C 653 2588 653 2997 736 3387 
C 858 3929 1216 4096 1466 4096 
C 1728 4096 2067 3923 2189 3400 
C 2272 3036 2278 2607 2278 2096 
C 2278 1680 2278 1169 2202 792 
C 2067 95 1690 -26 1466 -26 
z
" transform="scale(0.015625)"/>
        <path id="CMR17-38" d="M 1741 2264 
C 2144 2467 2554 2773 2554 3263 
C 2554 3841 1990 4179 1472 4179 
C 890 4179 378 3759 378 3180 
C 378 3021 416 2747 666 2505 
C 730 2442 998 2251 1171 2130 
C 883 1983 211 1634 211 934 
C 211 279 838 -128 1459 -128 
C 2144 -128 2720 362 2720 1010 
C 2720 1590 2330 1857 2074 2029 
L 1741 2264 
z
M 902 2822 
C 851 2854 595 3051 595 3351 
C 595 3739 998 4032 1459 4032 
C 1965 4032 2336 3676 2336 3262 
C 2336 2669 1670 2331 1638 2331 
C 1632 2331 1626 2331 1574 2370 
L 902 2822 
z
M 2080 1519 
C 2176 1449 2483 1240 2483 851 
C 2483 381 2010 25 1472 25 
C 890 25 448 438 448 940 
C 448 1443 838 1862 1280 2060 
L 2080 1519 
z
" transform="scale(0.015625)"/>
        <path id="CMR17-3a" d="M 1062 2491 
C 1062 2650 934 2752 800 2752 
C 672 2752 538 2650 538 2491 
C 538 2332 666 2230 800 2230 
C 928 2230 1062 2332 1062 2491 
z
M 1062 261 
C 1062 420 934 522 800 522 
C 672 522 538 420 538 261 
C 538 102 666 0 800 0 
C 928 0 1062 102 1062 261 
z
" transform="scale(0.015625)"/>
       </defs>
       <use xlink:href="#CMR17-30" transform="scale(0.996264)"/>
       <use xlink:href="#CMR17-38" transform="translate(45.690477 0) scale(0.996264)"/>
       <use xlink:href="#CMR17-3a" transform="translate(91.380954 0) scale(0.996264)"/>
       <use xlink:href="#CMR17-30" transform="translate(116.252013 0) scale(0.996264)"/>
       <use xlink:href="#CMR17-30" transform="translate(161.94249 0) scale(0.996264)"/>
      </g>
     </g>
    </g>
    <g id="xtick_2">
     <g id="line2d_2">
      <g>
       <use xlink:href="#m4cd371f86f" x="94.057017" y="374.16419" style="stroke: #000000; stroke-width: 0.6"/>
      </g>
     </g>
     <g id="text_2">
      <!-- 09:00 -->
      <g transform="translate(78.503237 389.850067) scale(0.14 -0.14)">
       <defs>
        <path id="CMR17-39" d="M 2253 1864 
C 2253 464 1670 31 1190 31 
C 1043 31 685 31 538 294 
C 704 268 826 357 826 518 
C 826 692 685 749 595 749 
C 538 749 365 723 365 506 
C 365 71 742 -128 1203 -128 
C 1939 -128 2688 674 2688 2073 
C 2688 3817 1971 4179 1485 4179 
C 851 4179 243 3628 243 2778 
C 243 1991 762 1408 1414 1408 
C 1952 1408 2189 1903 2253 2112 
L 2253 1864 
z
M 1427 1510 
C 1254 1510 1011 1542 813 1922 
C 678 2169 678 2461 678 2771 
C 678 3146 678 3405 858 3684 
C 947 3817 1114 4032 1485 4032 
C 2240 4032 2240 2885 2240 2632 
C 2240 2182 2035 1510 1427 1510 
z
" transform="scale(0.015625)"/>
       </defs>
       <use xlink:href="#CMR17-30" transform="scale(0.996264)"/>
       <use xlink:href="#CMR17-39" transform="translate(45.690477 0) scale(0.996264)"/>
       <use xlink:href="#CMR17-3a" transform="translate(91.380954 0) scale(0.996264)"/>
       <use xlink:href="#CMR17-30" transform="translate(116.252013 0) scale(0.996264)"/>
       <use xlink:href="#CMR17-30" transform="translate(161.94249 0) scale(0.996264)"/>
      </g>
     </g>
    </g>
    <g id="xtick_3">
     <g id="line2d_3">
      <g>
       <use xlink:href="#m4cd371f86f" x="143.309361" y="374.16419" style="stroke: #000000; stroke-width: 0.6"/>
      </g>
     </g>
     <g id="text_3">
      <!-- 10:00 -->
      <g transform="translate(127.755581 389.850067) scale(0.14 -0.14)">
       <defs>
        <path id="CMR17-31" d="M 1702 4058 
C 1702 4192 1696 4192 1606 4192 
C 1357 3916 979 3827 621 3827 
C 602 3827 570 3827 563 3808 
C 557 3795 557 3782 557 3648 
C 755 3648 1088 3686 1344 3839 
L 1344 461 
C 1344 236 1331 160 781 160 
L 589 160 
L 589 0 
C 896 0 1216 0 1523 0 
C 1830 0 2150 0 2458 0 
L 2458 160 
L 2266 160 
C 1715 160 1702 230 1702 458 
L 1702 4058 
z
" transform="scale(0.015625)"/>
       </defs>
       <use xlink:href="#CMR17-31" transform="scale(0.996264)"/>
       <use xlink:href="#CMR17-30" transform="translate(45.690477 0) scale(0.996264)"/>
       <use xlink:href="#CMR17-3a" transform="translate(91.380954 0) scale(0.996264)"/>
       <use xlink:href="#CMR17-30" transform="translate(116.252013 0) scale(0.996264)"/>
       <use xlink:href="#CMR17-30" transform="translate(161.94249 0) scale(0.996264)"/>
      </g>
     </g>
    </g>
    <g id="xtick_4">
     <g id="line2d_4">
      <g>
       <use xlink:href="#m4cd371f86f" x="192.561704" y="374.16419" style="stroke: #000000; stroke-width: 0.6"/>
      </g>
     </g>
     <g id="text_4">
      <!-- 11:00 -->
      <g transform="translate(177.007925 389.850067) scale(0.14 -0.14)">
       <use xlink:href="#CMR17-31" transform="scale(0.996264)"/>
       <use xlink:href="#CMR17-31" transform="translate(45.690477 0) scale(0.996264)"/>
       <use xlink:href="#CMR17-3a" transform="translate(91.380954 0) scale(0.996264)"/>
       <use xlink:href="#CMR17-30" transform="translate(116.252013 0) scale(0.996264)"/>
       <use xlink:href="#CMR17-30" transform="translate(161.94249 0) scale(0.996264)"/>
      </g>
     </g>
    </g>
    <g id="xtick_5">
     <g id="line2d_5">
      <g>
       <use xlink:href="#m4cd371f86f" x="241.814048" y="374.16419" style="stroke: #000000; stroke-width: 0.6"/>
      </g>
     </g>
     <g id="text_5">
      <!-- 12:00 -->
      <g transform="translate(226.260268 389.850067) scale(0.14 -0.14)">
       <defs>
        <path id="CMR17-32" d="M 2669 989 
L 2554 989 
C 2490 536 2438 459 2413 420 
C 2381 369 1920 369 1830 369 
L 602 369 
C 832 619 1280 1072 1824 1597 
C 2214 1967 2669 2402 2669 3035 
C 2669 3790 2067 4224 1395 4224 
C 691 4224 262 3604 262 3030 
C 262 2780 448 2748 525 2748 
C 589 2748 781 2787 781 3010 
C 781 3207 614 3264 525 3264 
C 486 3264 448 3258 422 3245 
C 544 3790 915 4058 1306 4058 
C 1862 4058 2227 3617 2227 3035 
C 2227 2479 1901 2000 1536 1584 
L 262 146 
L 262 0 
L 2515 0 
L 2669 989 
z
" transform="scale(0.015625)"/>
       </defs>
       <use xlink:href="#CMR17-31" transform="scale(0.996264)"/>
       <use xlink:href="#CMR17-32" transform="translate(45.690477 0) scale(0.996264)"/>
       <use xlink:href="#CMR17-3a" transform="translate(91.380954 0) scale(0.996264)"/>
       <use xlink:href="#CMR17-30" transform="translate(116.252013 0) scale(0.996264)"/>
       <use xlink:href="#CMR17-30" transform="translate(161.94249 0) scale(0.996264)"/>
      </g>
     </g>
    </g>
    <g id="xtick_6">
     <g id="line2d_6">
      <g>
       <use xlink:href="#m4cd371f86f" x="291.066392" y="374.16419" style="stroke: #000000; stroke-width: 0.6"/>
      </g>
     </g>
     <g id="text_6">
      <!-- 13:00 -->
      <g transform="translate(275.512612 389.850067) scale(0.14 -0.14)">
       <defs>
        <path id="CMR17-33" d="M 1414 2157 
C 1984 2157 2234 1662 2234 1090 
C 2234 320 1824 25 1453 25 
C 1114 25 563 194 390 693 
C 422 680 454 680 486 680 
C 640 680 755 782 755 948 
C 755 1133 614 1216 486 1216 
C 378 1216 211 1165 211 926 
C 211 335 787 -128 1466 -128 
C 2176 -128 2720 430 2720 1085 
C 2720 1707 2208 2157 1600 2227 
C 2086 2328 2554 2756 2554 3329 
C 2554 3820 2048 4179 1472 4179 
C 890 4179 378 3829 378 3329 
C 378 3110 544 3072 627 3072 
C 762 3072 877 3155 877 3321 
C 877 3486 762 3569 627 3569 
C 602 3569 570 3569 544 3557 
C 730 3959 1235 4032 1459 4032 
C 1683 4032 2106 3925 2106 3320 
C 2106 3143 2080 2828 1862 2550 
C 1670 2304 1453 2304 1242 2284 
C 1210 2284 1062 2269 1037 2269 
C 992 2263 966 2257 966 2208 
C 966 2163 973 2157 1101 2157 
L 1414 2157 
z
" transform="scale(0.015625)"/>
       </defs>
       <use xlink:href="#CMR17-31" transform="scale(0.996264)"/>
       <use xlink:href="#CMR17-33" transform="translate(45.690477 0) scale(0.996264)"/>
       <use xlink:href="#CMR17-3a" transform="translate(91.380954 0) scale(0.996264)"/>
       <use xlink:href="#CMR17-30" transform="translate(116.252013 0) scale(0.996264)"/>
       <use xlink:href="#CMR17-30" transform="translate(161.94249 0) scale(0.996264)"/>
      </g>
     </g>
    </g>
    <g id="xtick_7">
     <g id="line2d_7">
      <g>
       <use xlink:href="#m4cd371f86f" x="340.318735" y="374.16419" style="stroke: #000000; stroke-width: 0.6"/>
      </g>
     </g>
     <g id="text_7">
      <!-- 14:00 -->
      <g transform="translate(324.764956 389.850067) scale(0.14 -0.14)">
       <defs>
        <path id="CMR17-34" d="M 2150 4122 
C 2150 4256 2144 4256 2029 4256 
L 128 1254 
L 128 1088 
L 1779 1088 
L 1779 457 
C 1779 224 1766 160 1318 160 
L 1197 160 
L 1197 0 
C 1402 0 1747 0 1965 0 
C 2182 0 2528 0 2733 0 
L 2733 160 
L 2611 160 
C 2163 160 2150 224 2150 457 
L 2150 1088 
L 2803 1088 
L 2803 1254 
L 2150 1254 
L 2150 4122 
z
M 1798 3703 
L 1798 1254 
L 256 1254 
L 1798 3703 
z
" transform="scale(0.015625)"/>
       </defs>
       <use xlink:href="#CMR17-31" transform="scale(0.996264)"/>
       <use xlink:href="#CMR17-34" transform="translate(45.690477 0) scale(0.996264)"/>
       <use xlink:href="#CMR17-3a" transform="translate(91.380954 0) scale(0.996264)"/>
       <use xlink:href="#CMR17-30" transform="translate(116.252013 0) scale(0.996264)"/>
       <use xlink:href="#CMR17-30" transform="translate(161.94249 0) scale(0.996264)"/>
      </g>
     </g>
    </g>
    <g id="xtick_8">
     <g id="line2d_8">
      <g>
       <use xlink:href="#m4cd371f86f" x="389.571079" y="374.16419" style="stroke: #000000; stroke-width: 0.6"/>
      </g>
     </g>
     <g id="text_8">
      <!-- 15:00 -->
      <g transform="translate(374.017299 389.850067) scale(0.14 -0.14)">
       <defs>
        <path id="CMR17-35" d="M 730 3692 
C 794 3666 1056 3584 1325 3584 
C 1920 3584 2246 3911 2432 4100 
C 2432 4157 2432 4192 2394 4192 
C 2387 4192 2374 4192 2323 4163 
C 2099 4058 1837 3973 1517 3973 
C 1325 3973 1037 3999 723 4139 
C 653 4171 640 4171 634 4171 
C 602 4171 595 4164 595 4037 
L 595 2203 
C 595 2089 595 2057 659 2057 
C 691 2057 704 2070 736 2114 
C 941 2401 1222 2522 1542 2522 
C 1766 2522 2246 2382 2246 1289 
C 2246 1085 2246 715 2054 421 
C 1894 159 1645 25 1370 25 
C 947 25 518 320 403 814 
C 429 807 480 795 506 795 
C 589 795 749 840 749 1038 
C 749 1210 627 1280 506 1280 
C 358 1280 262 1190 262 1011 
C 262 454 704 -128 1382 -128 
C 2042 -128 2669 440 2669 1264 
C 2669 2030 2170 2624 1549 2624 
C 1222 2624 947 2503 730 2274 
L 730 3692 
z
" transform="scale(0.015625)"/>
       </defs>
       <use xlink:href="#CMR17-31" transform="scale(0.996264)"/>
       <use xlink:href="#CMR17-35" transform="translate(45.690477 0) scale(0.996264)"/>
       <use xlink:href="#CMR17-3a" transform="translate(91.380954 0) scale(0.996264)"/>
       <use xlink:href="#CMR17-30" transform="translate(116.252013 0) scale(0.996264)"/>
       <use xlink:href="#CMR17-30" transform="translate(161.94249 0) scale(0.996264)"/>
      </g>
     </g>
    </g>
    <g id="xtick_9">
     <g id="line2d_9">
      <g>
       <use xlink:href="#m4cd371f86f" x="438.823423" y="374.16419" style="stroke: #000000; stroke-width: 0.6"/>
      </g>
     </g>
     <g id="text_9">
      <!-- 16:00 -->
      <g transform="translate(423.269643 389.850067) scale(0.14 -0.14)">
       <defs>
        <path id="CMR17-36" d="M 678 2176 
C 678 3690 1395 4032 1811 4032 
C 1946 4032 2272 4009 2400 3776 
C 2298 3776 2106 3776 2106 3553 
C 2106 3381 2246 3323 2336 3323 
C 2394 3323 2566 3348 2566 3560 
C 2566 3954 2246 4179 1805 4179 
C 1043 4179 243 3390 243 1984 
C 243 253 966 -128 1478 -128 
C 2099 -128 2688 427 2688 1283 
C 2688 2081 2170 2662 1517 2662 
C 1126 2662 838 2407 678 1960 
L 678 2176 
z
M 1478 25 
C 691 25 691 1200 691 1436 
C 691 1896 909 2560 1504 2560 
C 1613 2560 1926 2560 2138 2120 
C 2253 1870 2253 1609 2253 1289 
C 2253 944 2253 690 2118 434 
C 1978 171 1773 25 1478 25 
z
" transform="scale(0.015625)"/>
       </defs>
       <use xlink:href="#CMR17-31" transform="scale(0.996264)"/>
       <use xlink:href="#CMR17-36" transform="translate(45.690477 0) scale(0.996264)"/>
       <use xlink:href="#CMR17-3a" transform="translate(91.380954 0) scale(0.996264)"/>
       <use xlink:href="#CMR17-30" transform="translate(116.252013 0) scale(0.996264)"/>
       <use xlink:href="#CMR17-30" transform="translate(161.94249 0) scale(0.996264)"/>
      </g>
     </g>
    </g>
    <g id="xtick_10">
     <g id="line2d_10">
      <g>
       <use xlink:href="#m4cd371f86f" x="488.075766" y="374.16419" style="stroke: #000000; stroke-width: 0.6"/>
      </g>
     </g>
     <g id="text_10">
      <!-- 17:00 -->
      <g transform="translate(472.521987 389.850067) scale(0.14 -0.14)">
       <defs>
        <path id="CMR17-37" d="M 2886 3941 
L 2886 4081 
L 1382 4081 
C 634 4081 621 4165 595 4288 
L 480 4288 
L 294 3094 
L 410 3094 
C 429 3215 474 3540 550 3661 
C 589 3712 1062 3712 1171 3712 
L 2579 3712 
L 1869 2661 
C 1395 1954 1069 999 1069 165 
C 1069 89 1069 -128 1299 -128 
C 1530 -128 1530 89 1530 171 
L 1530 465 
C 1530 1508 1709 2196 2003 2636 
L 2886 3941 
z
" transform="scale(0.015625)"/>
       </defs>
       <use xlink:href="#CMR17-31" transform="scale(0.996264)"/>
       <use xlink:href="#CMR17-37" transform="translate(45.690477 0) scale(0.996264)"/>
       <use xlink:href="#CMR17-3a" transform="translate(91.380954 0) scale(0.996264)"/>
       <use xlink:href="#CMR17-30" transform="translate(116.252013 0) scale(0.996264)"/>
       <use xlink:href="#CMR17-30" transform="translate(161.94249 0) scale(0.996264)"/>
      </g>
     </g>
    </g>
    <g id="xtick_11">
     <g id="line2d_11">
      <g>
       <use xlink:href="#m4cd371f86f" x="537.32811" y="374.16419" style="stroke: #000000; stroke-width: 0.6"/>
      </g>
     </g>
     <g id="text_11">
      <!-- 18:00 -->
      <g transform="translate(521.77433 389.850067) scale(0.14 -0.14)">
       <use xlink:href="#CMR17-31" transform="scale(0.996264)"/>
       <use xlink:href="#CMR17-38" transform="translate(45.690477 0) scale(0.996264)"/>
       <use xlink:href="#CMR17-3a" transform="translate(91.380954 0) scale(0.996264)"/>
       <use xlink:href="#CMR17-30" transform="translate(116.252013 0) scale(0.996264)"/>
       <use xlink:href="#CMR17-30" transform="translate(161.94249 0) scale(0.996264)"/>
      </g>
     </g>
    </g>
    <g id="text_12">
     <!-- Time of day -->
     <g transform="translate(255.247902 406.247972) scale(0.14 -0.14)">
      <defs>
       <path id="CMR17-54" d="M 3981 4326 
L 288 4326 
L 179 2918 
L 294 2918 
C 378 3976 467 4160 1453 4160 
C 1568 4160 1754 4160 1805 4154 
C 1926 4135 1926 4058 1926 3912 
L 1926 459 
C 1926 230 1907 160 1376 160 
L 1197 160 
L 1197 0 
C 1504 0 1824 0 2138 0 
C 2451 0 2771 0 3078 0 
L 3078 160 
L 2899 160 
C 2368 160 2349 230 2349 459 
L 2349 3912 
C 2349 4052 2349 4129 2464 4154 
C 2515 4160 2701 4160 2816 4160 
C 3795 4160 3891 3976 3974 2918 
L 4090 2918 
L 3981 4326 
z
" transform="scale(0.015625)"/>
       <path id="CMR17-69" d="M 992 3909 
C 992 4049 877 4170 730 4170 
C 589 4170 467 4056 467 3909 
C 467 3769 582 3648 730 3648 
C 870 3648 992 3763 992 3909 
z
M 243 2706 
L 243 2541 
C 602 2541 653 2502 653 2197 
L 653 427 
C 653 184 627 153 218 153 
L 218 -13 
C 371 0 646 0 806 0 
C 960 0 1222 0 1370 -13 
L 1370 153 
C 992 153 979 191 979 420 
L 979 2776 
L 243 2706 
z
" transform="scale(0.015625)"/>
       <path id="CMR17-6d" d="M 4326 1933 
C 4326 2252 4269 2790 3507 2790 
C 3072 2790 2771 2496 2656 2151 
L 2650 2151 
C 2573 2676 2195 2790 1837 2790 
C 1331 2790 1069 2400 973 2144 
L 966 2144 
L 966 2790 
L 211 2720 
L 211 2554 
C 589 2554 646 2515 646 2208 
L 646 428 
C 646 184 621 153 211 153 
L 211 -13 
C 365 0 646 0 813 0 
C 979 0 1267 0 1421 -13 
L 1421 153 
C 1011 153 986 178 986 428 
L 986 1658 
C 986 2247 1344 2688 1792 2688 
C 2266 2688 2317 2266 2317 1958 
L 2317 428 
C 2317 184 2291 153 1882 153 
L 1882 -13 
C 2035 0 2317 0 2483 0 
C 2650 0 2938 0 3091 -13 
L 3091 153 
C 2682 153 2656 178 2656 428 
L 2656 1658 
C 2656 2247 3014 2688 3462 2688 
C 3936 2688 3987 2266 3987 1958 
L 3987 428 
C 3987 184 3962 153 3552 153 
L 3552 -13 
C 3706 0 3987 0 4154 0 
C 4320 0 4608 0 4762 -13 
L 4762 153 
C 4352 153 4326 178 4326 428 
L 4326 1933 
z
" transform="scale(0.015625)"/>
       <path id="CMR17-65" d="M 2438 1472 
C 2464 1498 2464 1511 2464 1576 
C 2464 2238 2118 2816 1389 2816 
C 710 2816 173 2169 173 1383 
C 173 551 781 -64 1459 -64 
C 2176 -64 2458 607 2458 740 
C 2458 784 2419 784 2406 784 
C 2362 784 2355 771 2330 696 
C 2189 265 1837 51 1504 51 
C 1229 51 954 203 781 480 
C 582 803 582 1176 582 1472 
L 2438 1472 
z
M 589 1568 
C 634 2505 1126 2714 1382 2714 
C 1818 2714 2112 2297 2118 1568 
L 589 1568 
z
" transform="scale(0.015625)"/>
       <path id="CMR17-6f" d="M 2758 1356 
C 2758 2176 2163 2816 1466 2816 
C 768 2816 173 2176 173 1356 
C 173 551 768 -64 1466 -64 
C 2163 -64 2758 551 2758 1356 
z
M 1466 51 
C 1165 51 909 230 762 480 
C 602 767 582 1126 582 1408 
C 582 1677 595 2010 762 2298 
C 890 2509 1139 2714 1466 2714 
C 1754 2714 1997 2554 2150 2330 
C 2349 2029 2349 1607 2349 1408 
C 2349 1158 2336 775 2163 467 
C 1984 173 1709 51 1466 51 
z
" transform="scale(0.015625)"/>
       <path id="CMR17-66" d="M 979 2560 
L 1709 2560 
L 1709 2725 
L 966 2725 
L 966 3494 
C 966 4022 1235 4352 1510 4352 
C 1594 4352 1690 4327 1754 4282 
C 1702 4269 1568 4225 1568 4067 
C 1568 3901 1696 3850 1786 3850 
C 1875 3850 2003 3901 2003 4067 
C 2003 4308 1773 4454 1517 4454 
C 1152 4454 653 4156 653 3481 
L 653 2725 
L 141 2725 
L 141 2560 
L 653 2560 
L 653 427 
C 653 184 627 153 218 153 
L 218 -13 
C 371 0 666 0 832 0 
C 1018 0 1344 0 1517 -13 
L 1517 153 
C 1056 153 979 153 979 439 
L 979 2560 
z
" transform="scale(0.015625)"/>
       <path id="CMR17-64" d="M 1869 4326 
L 1869 4160 
C 2246 4160 2304 4122 2304 3820 
L 2304 2345 
C 2278 2377 2016 2790 1498 2790 
C 845 2790 211 2208 211 1364 
C 211 525 806 -64 1434 -64 
C 1978 -64 2259 337 2291 380 
L 2291 -63 
L 3066 -63 
L 3066 128 
C 2688 128 2630 166 2630 473 
L 2630 4396 
L 1869 4326 
z
M 2291 755 
C 2291 563 2176 390 2029 262 
C 1811 70 1594 38 1472 38 
C 1286 38 621 134 621 1356 
C 621 2612 1363 2688 1530 2688 
C 1824 2688 2061 2522 2208 2291 
C 2291 2157 2291 2138 2291 2023 
L 2291 755 
z
" transform="scale(0.015625)"/>
       <path id="CMR17-61" d="M 2304 1653 
C 2304 2072 2304 2294 2035 2543 
C 1798 2752 1523 2816 1306 2816 
C 800 2816 435 2407 435 1971 
C 435 1728 627 1728 666 1728 
C 749 1728 896 1778 896 1954 
C 896 2112 774 2181 666 2181 
C 640 2181 608 2174 589 2168 
C 723 2592 1069 2714 1293 2714 
C 1613 2714 1965 2429 1965 1885 
L 1965 1600 
C 1587 1600 1133 1549 774 1357 
C 371 1133 256 813 256 570 
C 256 77 832 -64 1171 -64 
C 1523 -64 1850 139 1990 511 
C 2003 233 2182 -18 2464 -18 
C 2598 -18 2938 70 2938 567 
L 2938 920 
L 2822 920 
L 2822 562 
C 2822 178 2650 128 2566 128 
C 2304 128 2304 458 2304 738 
L 2304 1653 
z
M 1965 870 
C 1965 317 1568 38 1216 38 
C 896 38 646 275 646 570 
C 646 761 730 1100 1101 1305 
C 1408 1478 1760 1504 1965 1504 
L 1965 870 
z
" transform="scale(0.015625)"/>
       <path id="CMR17-79" d="M 2496 2197 
C 2656 2586 2944 2586 3034 2586 
L 3034 2752 
C 2912 2752 2752 2752 2630 2752 
C 2496 2752 2285 2752 2157 2758 
L 2157 2592 
C 2400 2573 2406 2394 2406 2343 
C 2406 2280 2394 2248 2362 2171 
L 1664 449 
L 902 2306 
C 870 2382 870 2426 870 2433 
C 870 2573 1018 2586 1171 2586 
L 1171 2758 
C 1018 2752 742 2752 582 2752 
C 410 2752 205 2752 64 2758 
L 64 2586 
C 410 2586 448 2554 531 2350 
L 1485 15 
C 1197 -738 1030 -1178 627 -1178 
C 557 -1178 397 -1159 282 -1044 
C 429 -1031 493 -942 493 -833 
C 493 -725 416 -629 288 -629 
C 147 -629 77 -725 77 -840 
C 77 -1095 339 -1280 627 -1280 
C 998 -1280 1229 -922 1357 -604 
L 2496 2197 
z
" transform="scale(0.015625)"/>
      </defs>
      <use xlink:href="#CMR17-54" transform="scale(0.996264)"/>
      <use xlink:href="#CMR17-69" transform="translate(66.509881 0) scale(0.996264)"/>
      <use xlink:href="#CMR17-6d" transform="translate(91.380939 0) scale(0.996264)"/>
      <use xlink:href="#CMR17-65" transform="translate(168.300529 0) scale(0.996264)"/>
      <use xlink:href="#CMR17-6f" transform="translate(238.862156 0) scale(0.996264)"/>
      <use xlink:href="#CMR17-66" transform="translate(284.552633 0) scale(0.996264)"/>
      <use xlink:href="#CMR17-64" transform="translate(342.102112 0) scale(0.996264)"/>
      <use xlink:href="#CMR17-61" transform="translate(392.997481 0) scale(0.996264)"/>
      <use xlink:href="#CMR17-79" transform="translate(436.085505 0) scale(0.996264)"/>
     </g>
    </g>
   </g>
   <g id="matplotlib.axis_2">
    <g id="ytick_1">
     <g id="line2d_12">
      <defs>
       <path id="m56f3a9ced1" d="M 0 0 
L -2.5 0 
" style="stroke: #000000; stroke-width: 0.6"/>
      </defs>
      <g>
       <use xlink:href="#m56f3a9ced1" x="44.804673" y="374.16419" style="stroke: #000000; stroke-width: 0.6"/>
      </g>
     </g>
     <g id="text_13">
      <!-- $\mathdefault{0}$ -->
      <g transform="translate(31.976185 379.007129) scale(0.14 -0.14)">
       <use xlink:href="#CMR17-30" transform="scale(0.996264)"/>
      </g>
     </g>
    </g>
    <g id="ytick_2">
     <g id="line2d_13">
      <g>
       <use xlink:href="#m56f3a9ced1" x="44.804673" y="328.899034" style="stroke: #000000; stroke-width: 0.6"/>
      </g>
     </g>
     <g id="text_14">
      <!-- $\mathdefault{5}$ -->
      <g transform="translate(31.976185 333.741972) scale(0.14 -0.14)">
       <use xlink:href="#CMR17-35" transform="scale(0.996264)"/>
      </g>
     </g>
    </g>
    <g id="ytick_3">
     <g id="line2d_14">
      <g>
       <use xlink:href="#m56f3a9ced1" x="44.804673" y="283.633877" style="stroke: #000000; stroke-width: 0.6"/>
      </g>
     </g>
     <g id="text_15">
      <!-- $\mathdefault{10}$ -->
      <g transform="translate(25.147696 288.476816) scale(0.14 -0.14)">
       <use xlink:href="#CMR17-31" transform="scale(0.996264)"/>
       <use xlink:href="#CMR17-30" transform="translate(45.690477 0) scale(0.996264)"/>
      </g>
     </g>
    </g>
    <g id="ytick_4">
     <g id="line2d_15">
      <g>
       <use xlink:href="#m56f3a9ced1" x="44.804673" y="238.368721" style="stroke: #000000; stroke-width: 0.6"/>
      </g>
     </g>
     <g id="text_16">
      <!-- $\mathdefault{15}$ -->
      <g transform="translate(25.147696 243.211659) scale(0.14 -0.14)">
       <use xlink:href="#CMR17-31" transform="scale(0.996264)"/>
       <use xlink:href="#CMR17-35" transform="translate(45.690477 0) scale(0.996264)"/>
      </g>
     </g>
    </g>
    <g id="ytick_5">
     <g id="line2d_16">
      <g>
       <use xlink:href="#m56f3a9ced1" x="44.804673" y="193.103564" style="stroke: #000000; stroke-width: 0.6"/>
      </g>
     </g>
     <g id="text_17">
      <!-- $\mathdefault{20}$ -->
      <g transform="translate(25.147696 197.946503) scale(0.14 -0.14)">
       <use xlink:href="#CMR17-32" transform="scale(0.996264)"/>
       <use xlink:href="#CMR17-30" transform="translate(45.690477 0) scale(0.996264)"/>
      </g>
     </g>
    </g>
    <g id="ytick_6">
     <g id="line2d_17">
      <g>
       <use xlink:href="#m56f3a9ced1" x="44.804673" y="147.838408" style="stroke: #000000; stroke-width: 0.6"/>
      </g>
     </g>
     <g id="text_18">
      <!-- $\mathdefault{25}$ -->
      <g transform="translate(25.147696 152.681346) scale(0.14 -0.14)">
       <use xlink:href="#CMR17-32" transform="scale(0.996264)"/>
       <use xlink:href="#CMR17-35" transform="translate(45.690477 0) scale(0.996264)"/>
      </g>
     </g>
    </g>
    <g id="ytick_7">
     <g id="line2d_18">
      <g>
       <use xlink:href="#m56f3a9ced1" x="44.804673" y="102.573251" style="stroke: #000000; stroke-width: 0.6"/>
      </g>
     </g>
     <g id="text_19">
      <!-- $\mathdefault{30}$ -->
      <g transform="translate(25.147696 107.416189) scale(0.14 -0.14)">
       <use xlink:href="#CMR17-33" transform="scale(0.996264)"/>
       <use xlink:href="#CMR17-30" transform="translate(45.690477 0) scale(0.996264)"/>
      </g>
     </g>
    </g>
    <g id="ytick_8">
     <g id="line2d_19">
      <g>
       <use xlink:href="#m56f3a9ced1" x="44.804673" y="57.308095" style="stroke: #000000; stroke-width: 0.6"/>
      </g>
     </g>
     <g id="text_20">
      <!-- $\mathdefault{35}$ -->
      <g transform="translate(25.147696 62.151033) scale(0.14 -0.14)">
       <use xlink:href="#CMR17-33" transform="scale(0.996264)"/>
       <use xlink:href="#CMR17-35" transform="translate(45.690477 0) scale(0.996264)"/>
      </g>
     </g>
    </g>
    <g id="ytick_9">
     <g id="line2d_20">
      <g>
       <use xlink:href="#m56f3a9ced1" x="44.804673" y="12.042938" style="stroke: #000000; stroke-width: 0.6"/>
      </g>
     </g>
     <g id="text_21">
      <!-- $\mathdefault{40}$ -->
      <g transform="translate(25.147696 16.885876) scale(0.14 -0.14)">
       <use xlink:href="#CMR17-34" transform="scale(0.996264)"/>
       <use xlink:href="#CMR17-30" transform="translate(45.690477 0) scale(0.996264)"/>
      </g>
     </g>
    </g>
    <g id="text_22">
     <!-- sun duration (min) -->
     <g transform="translate(17.660772 250.045572) rotate(-90) scale(0.14 -0.14)">
      <defs>
       <path id="CMR17-73" d="M 1978 2697 
C 1978 2813 1971 2819 1933 2819 
C 1907 2819 1901 2813 1824 2717 
C 1805 2691 1747 2626 1728 2601 
C 1523 2819 1235 2819 1126 2819 
C 416 2819 160 2447 160 2076 
C 160 1498 813 1365 998 1325 
C 1402 1243 1542 1217 1677 1101 
C 1760 1025 1901 884 1901 654 
C 1901 384 1747 38 1158 38 
C 602 38 403 460 288 1021 
C 269 1110 269 1117 218 1117 
C 166 1117 160 1110 160 983 
L 160 63 
C 160 -51 166 -58 205 -58 
C 237 -58 243 -51 275 0 
C 314 57 410 211 448 276 
C 576 103 800 -64 1158 -64 
C 1792 -64 2131 283 2131 784 
C 2131 1112 1958 1285 1875 1362 
C 1683 1561 1459 1606 1190 1657 
C 838 1735 390 1825 390 2217 
C 390 2383 480 2737 1126 2737 
C 1811 2737 1850 2094 1862 1888 
C 1869 1856 1901 1849 1920 1849 
C 1978 1849 1978 1869 1978 1978 
L 1978 2697 
z
" transform="scale(0.015625)"/>
       <path id="CMR17-75" d="M 1882 2693 
L 1882 2528 
C 2259 2528 2317 2489 2317 2186 
L 2317 1032 
C 2317 500 2029 38 1555 38 
C 1030 38 986 348 986 678 
L 986 2763 
L 211 2693 
L 211 2528 
C 467 2528 640 2528 646 2274 
L 646 1058 
C 646 633 646 361 813 183 
C 896 101 1056 -64 1517 -64 
C 2061 -64 2272 377 2323 506 
L 2330 506 
L 2330 -63 
L 3091 -63 
L 3091 128 
C 2714 128 2656 166 2656 473 
L 2656 2763 
L 1882 2693 
z
" transform="scale(0.015625)"/>
       <path id="CMR17-6e" d="M 2656 1933 
C 2656 2259 2592 2790 1837 2790 
C 1331 2790 1069 2400 973 2144 
L 966 2144 
L 966 2790 
L 211 2720 
L 211 2554 
C 589 2554 646 2515 646 2208 
L 646 428 
C 646 184 621 153 211 153 
L 211 -13 
C 365 0 646 0 813 0 
C 979 0 1267 0 1421 -13 
L 1421 153 
C 1011 153 986 178 986 428 
L 986 1658 
C 986 2247 1344 2688 1792 2688 
C 2266 2688 2317 2266 2317 1958 
L 2317 428 
C 2317 184 2291 153 1882 153 
L 1882 -13 
C 2035 0 2317 0 2483 0 
C 2650 0 2938 0 3091 -13 
L 3091 153 
C 2682 153 2656 178 2656 428 
L 2656 1933 
z
" transform="scale(0.015625)"/>
       <path id="CMR17-72" d="M 960 1497 
C 960 2112 1222 2688 1702 2688 
C 1747 2688 1792 2682 1837 2662 
C 1837 2662 1696 2617 1696 2452 
C 1696 2298 1818 2234 1914 2234 
C 1990 2234 2131 2279 2131 2458 
C 2131 2663 1926 2790 1709 2790 
C 1222 2790 1011 2317 947 2093 
L 941 2093 
L 941 2790 
L 198 2720 
L 198 2554 
C 576 2554 634 2515 634 2208 
L 634 428 
C 634 184 608 153 198 153 
L 198 -13 
C 352 0 646 0 813 0 
C 998 0 1325 0 1498 -13 
L 1498 153 
C 1037 153 960 153 960 440 
L 960 1497 
z
" transform="scale(0.015625)"/>
       <path id="CMR17-74" d="M 966 2560 
L 1862 2560 
L 1862 2725 
L 966 2725 
L 966 3904 
L 851 3904 
C 838 3245 614 2668 70 2668 
L 70 2560 
L 627 2560 
L 627 771 
C 627 650 627 -64 1370 -64 
C 1747 -64 1965 306 1965 777 
L 1965 1140 
L 1850 1140 
L 1850 783 
C 1850 344 1677 51 1408 51 
C 1222 51 966 178 966 758 
L 966 2560 
z
" transform="scale(0.015625)"/>
       <path id="CMR17-28" d="M 1958 -1561 
C 1958 -1555 1958 -1542 1939 -1523 
C 1645 -1224 858 -407 858 1581 
C 858 3569 1632 4379 1946 4697 
C 1946 4704 1958 4717 1958 4736 
C 1958 4755 1939 4768 1914 4768 
C 1843 4768 1299 4296 986 3594 
C 666 2887 576 2199 576 1588 
C 576 1128 621 351 1005 -471 
C 1312 -1135 1837 -1600 1914 -1600 
C 1946 -1600 1958 -1587 1958 -1561 
z
" transform="scale(0.015625)"/>
       <path id="CMR17-29" d="M 1683 1581 
C 1683 2040 1638 2817 1254 3639 
C 947 4303 422 4768 346 4768 
C 326 4768 301 4761 301 4729 
C 301 4717 307 4710 314 4697 
C 621 4378 1402 3568 1402 1584 
C 1402 -407 627 -1217 314 -1537 
C 307 -1549 301 -1556 301 -1568 
C 301 -1600 326 -1600 346 -1600 
C 416 -1600 960 -1128 1274 -426 
C 1594 281 1683 969 1683 1581 
z
" transform="scale(0.015625)"/>
      </defs>
      <use xlink:href="#CMR17-73" transform="scale(0.996264)"/>
      <use xlink:href="#CMR17-75" transform="translate(35.801338 0) scale(0.996264)"/>
      <use xlink:href="#CMR17-6e" transform="translate(86.696707 0) scale(0.996264)"/>
      <use xlink:href="#CMR17-64" transform="translate(167.668044 0) scale(0.996264)"/>
      <use xlink:href="#CMR17-75" transform="translate(218.563413 0) scale(0.996264)"/>
      <use xlink:href="#CMR17-72" transform="translate(269.458783 0) scale(0.996264)"/>
      <use xlink:href="#CMR17-61" transform="translate(304.739551 0) scale(0.996264)"/>
      <use xlink:href="#CMR17-74" transform="translate(350.430028 0) scale(0.996264)"/>
      <use xlink:href="#CMR17-69" transform="translate(385.710796 0) scale(0.996264)"/>
      <use xlink:href="#CMR17-6f" transform="translate(410.581854 0) scale(0.996264)"/>
      <use xlink:href="#CMR17-6e" transform="translate(456.272331 0) scale(0.996264)"/>
      <use xlink:href="#CMR17-28" transform="translate(537.243668 0) scale(0.996264)"/>
      <use xlink:href="#CMR17-6d" transform="translate(572.524435 0) scale(0.996264)"/>
      <use xlink:href="#CMR17-69" transform="translate(649.444025 0) scale(0.996264)"/>
      <use xlink:href="#CMR17-6e" transform="translate(674.315084 0) scale(0.996264)"/>
      <use xlink:href="#CMR17-29" transform="translate(725.210453 0) scale(0.996264)"/>
     </g>
    </g>
   </g>
   <g id="line2d_21">
    <path d="M 44.804673 374.16419 
L 48.909035 374.16419 
L 53.013397 374.16419 
L 57.117759 374.16419 
L 61.222121 374.16419 
L 65.326483 374.16419 
L 69.430845 374.16419 
L 73.535207 374.16419 
L 77.639569 374.16419 
L 81.743931 374.16419 
L 85.848293 352.688388 
L 89.952655 352.688388 
L 94.057017 349.620417 
L 98.161379 349.620417 
L 102.265741 349.620417 
L 106.370103 349.620417 
L 110.474465 352.688388 
L 114.578827 334.280558 
L 118.683189 282.125039 
L 122.787551 239.173435 
L 126.891913 205.425746 
L 130.996275 187.017915 
L 135.100637 180.881972 
L 139.204999 171.678057 
L 143.309361 165.542113 
L 147.413723 165.542113 
L 151.518085 162.474142 
L 155.622447 159.40617 
L 159.726809 153.270227 
L 163.831171 144.066311 
L 167.935533 147.134283 
L 172.039895 153.270227 
L 176.144256 159.40617 
L 180.248618 162.474142 
L 184.35298 168.610085 
L 188.457342 171.678057 
L 192.561704 165.542113 
L 196.666066 165.542113 
L 200.770428 168.610085 
L 204.87479 165.542113 
L 208.979152 147.134283 
L 213.083514 134.862396 
L 217.187876 134.862396 
L 221.292238 137.930368 
L 225.3966 128.726453 
L 229.500962 131.794425 
L 233.605324 125.658481 
L 237.709686 125.658481 
L 241.814048 128.726453 
L 245.91841 125.658481 
L 250.022772 125.658481 
L 254.127134 122.590509 
L 258.231496 119.522538 
L 262.335858 119.522538 
L 266.44022 128.726453 
L 270.544582 144.066311 
L 274.648944 156.338198 
L 278.753306 162.474142 
L 282.857668 165.542113 
L 286.96203 174.746029 
L 291.066392 174.746029 
L 295.170754 187.017915 
L 299.275116 196.221831 
L 303.379478 205.425746 
L 307.48384 199.289802 
L 311.588202 199.289802 
L 315.692564 199.289802 
L 319.796926 205.425746 
L 323.901287 208.493717 
L 328.005649 202.357774 
L 332.110011 199.289802 
L 336.214373 202.357774 
L 340.318735 193.153859 
L 344.423097 180.881972 
L 348.527459 180.881972 
L 352.631821 220.765604 
L 356.736183 214.629661 
L 360.840545 229.96952 
L 364.944907 272.921124 
L 369.049269 269.853152 
L 373.153631 266.78518 
L 377.257993 260.649237 
L 381.362355 242.241406 
L 385.466717 257.581265 
L 389.571079 257.581265 
L 393.675441 248.37735 
L 397.779803 245.309378 
L 401.884165 248.37735 
L 405.988527 263.717208 
L 410.092889 285.19301 
L 414.197251 303.600841 
L 418.301613 309.736784 
L 422.405975 315.872728 
L 426.510337 322.008671 
L 430.614699 322.008671 
L 434.719061 331.212586 
L 438.823423 374.16419 
L 442.927785 374.16419 
L 447.032147 374.16419 
L 451.136509 374.16419 
L 455.240871 374.16419 
L 459.345233 374.16419 
L 463.449595 374.16419 
L 467.553956 374.16419 
L 471.658318 374.16419 
L 475.76268 374.16419 
L 479.867042 374.16419 
L 483.971404 374.16419 
L 488.075766 374.16419 
L 492.180128 374.16419 
L 496.28449 374.16419 
L 500.388852 374.16419 
L 504.493214 374.16419 
L 508.597576 374.16419 
L 512.701938 374.16419 
L 516.8063 374.16419 
L 520.910662 374.16419 
L 525.015024 374.16419 
L 529.119386 374.16419 
L 533.223748 374.16419 
L 537.32811 374.16419 
" clip-path="url(#pa457f13bd9)" style="fill: none; stroke: #c70303; stroke-width: 2; stroke-linecap: square"/>
   </g>
   <g id="line2d_22">
    <path d="M 44.804673 374.16419 
L 48.909035 374.16419 
L 53.013397 374.16419 
L 57.117759 374.16419 
L 61.222121 374.16419 
L 65.326483 374.16419 
L 69.430845 374.16419 
L 73.535207 374.16419 
L 77.639569 374.16419 
L 81.743931 374.16419 
L 85.848293 343.484473 
L 89.952655 340.416501 
L 94.057017 334.280558 
L 98.161379 331.212586 
L 102.265741 331.212586 
L 106.370103 334.280558 
L 110.474465 334.280558 
L 114.578827 315.872728 
L 118.683189 266.78518 
L 122.787551 199.289802 
L 126.891913 165.542113 
L 130.996275 156.338198 
L 135.100637 153.270227 
L 139.204999 147.134283 
L 143.309361 144.066311 
L 147.413723 140.99834 
L 151.518085 137.930368 
L 155.622447 131.794425 
L 159.726809 128.726453 
L 163.831171 131.794425 
L 167.935533 122.590509 
L 172.039895 122.590509 
L 176.144256 131.794425 
L 180.248618 131.794425 
L 184.35298 128.726453 
L 188.457342 122.590509 
L 192.561704 122.590509 
L 196.666066 119.522538 
L 200.770428 110.318622 
L 204.87479 101.114707 
L 208.979152 94.978764 
L 213.083514 98.046736 
L 217.187876 98.046736 
L 221.292238 94.978764 
L 225.3966 85.774849 
L 229.500962 85.774849 
L 233.605324 88.84282 
L 237.709686 85.774849 
L 241.814048 82.706877 
L 245.91841 85.774849 
L 250.022772 85.774849 
L 254.127134 85.774849 
L 258.231496 85.774849 
L 262.335858 85.774849 
L 266.44022 76.570934 
L 270.544582 76.570934 
L 274.648944 88.84282 
L 278.753306 94.978764 
L 282.857668 88.84282 
L 286.96203 85.774849 
L 291.066392 79.638905 
L 295.170754 76.570934 
L 299.275116 64.299047 
L 303.379478 70.43499 
L 307.48384 79.638905 
L 311.588202 82.706877 
L 315.692564 88.84282 
L 319.796926 101.114707 
L 323.901287 110.318622 
L 328.005649 116.454566 
L 332.110011 119.522538 
L 336.214373 125.658481 
L 340.318735 128.726453 
L 344.423097 128.726453 
L 348.527459 140.99834 
L 352.631821 144.066311 
L 356.736183 165.542113 
L 360.840545 165.542113 
L 364.944907 159.40617 
L 369.049269 177.814 
L 373.153631 174.746029 
L 377.257993 177.814 
L 381.362355 177.814 
L 385.466717 180.881972 
L 389.571079 177.814 
L 393.675441 193.153859 
L 397.779803 196.221831 
L 401.884165 196.221831 
L 405.988527 196.221831 
L 410.092889 199.289802 
L 414.197251 202.357774 
L 418.301613 211.561689 
L 422.405975 260.649237 
L 426.510337 282.125039 
L 430.614699 282.125039 
L 434.719061 288.260982 
L 438.823423 291.328954 
L 442.927785 297.464897 
L 447.032147 322.008671 
L 451.136509 364.960275 
L 455.240871 374.16419 
L 459.345233 374.16419 
L 463.449595 374.16419 
L 467.553956 374.16419 
L 471.658318 374.16419 
L 475.76268 374.16419 
L 479.867042 374.16419 
L 483.971404 374.16419 
L 488.075766 374.16419 
L 492.180128 374.16419 
L 496.28449 374.16419 
L 500.388852 374.16419 
L 504.493214 374.16419 
L 508.597576 374.16419 
L 512.701938 374.16419 
L 516.8063 374.16419 
L 520.910662 374.16419 
L 525.015024 374.16419 
L 529.119386 374.16419 
L 533.223748 374.16419 
L 537.32811 374.16419 
" clip-path="url(#pa457f13bd9)" style="fill: none; stroke: #2979ea; stroke-width: 2; stroke-linecap: square"/>
   </g>
   <g id="line2d_23">
    <path d="M 44.804673 374.16419 
L 48.909035 374.16419 
L 53.013397 374.16419 
L 57.117759 374.16419 
L 61.222121 374.16419 
L 65.326483 374.16419 
L 69.430845 374.16419 
L 73.535207 374.16419 
L 77.639569 374.16419 
L 81.743931 352.688388 
L 85.848293 325.076643 
L 89.952655 325.076643 
L 94.057017 322.008671 
L 98.161379 322.008671 
L 102.265741 325.076643 
L 106.370103 325.076643 
L 110.474465 315.872728 
L 114.578827 269.853152 
L 118.683189 205.425746 
L 122.787551 159.40617 
L 126.891913 137.930368 
L 130.996275 131.794425 
L 135.100637 131.794425 
L 139.204999 119.522538 
L 143.309361 107.250651 
L 147.413723 104.182679 
L 151.518085 98.046736 
L 155.622447 91.910792 
L 159.726809 85.774849 
L 163.831171 85.774849 
L 167.935533 79.638905 
L 172.039895 82.706877 
L 176.144256 76.570934 
L 180.248618 58.163103 
L 184.35298 58.163103 
L 188.457342 61.231075 
L 192.561704 55.095132 
L 196.666066 55.095132 
L 200.770428 45.891216 
L 204.87479 45.891216 
L 208.979152 45.891216 
L 213.083514 48.959188 
L 217.187876 48.959188 
L 221.292238 45.891216 
L 225.3966 48.959188 
L 229.500962 45.891216 
L 233.605324 42.823245 
L 237.709686 42.823245 
L 241.814048 39.755273 
L 245.91841 39.755273 
L 250.022772 30.551358 
L 254.127134 24.415414 
L 258.231496 24.415414 
L 262.335858 24.415414 
L 266.44022 24.415414 
L 270.544582 24.415414 
L 274.648944 24.415414 
L 278.753306 24.415414 
L 282.857668 24.415414 
L 286.96203 24.415414 
L 291.066392 24.415414 
L 295.170754 24.415414 
L 299.275116 24.415414 
L 303.379478 24.415414 
L 307.48384 27.483386 
L 311.588202 27.483386 
L 315.692564 33.619329 
L 319.796926 36.687301 
L 323.901287 36.687301 
L 328.005649 39.755273 
L 332.110011 52.02716 
L 336.214373 48.959188 
L 340.318735 45.891216 
L 344.423097 58.163103 
L 348.527459 67.367018 
L 352.631821 73.502962 
L 356.736183 76.570934 
L 360.840545 82.706877 
L 364.944907 88.84282 
L 369.049269 94.978764 
L 373.153631 104.182679 
L 377.257993 104.182679 
L 381.362355 104.182679 
L 385.466717 104.182679 
L 389.571079 94.978764 
L 393.675441 70.43499 
L 397.779803 85.774849 
L 401.884165 88.84282 
L 405.988527 85.774849 
L 410.092889 79.638905 
L 414.197251 104.182679 
L 418.301613 140.99834 
L 422.405975 162.474142 
L 426.510337 168.610085 
L 430.614699 174.746029 
L 434.719061 214.629661 
L 438.823423 263.717208 
L 442.927785 272.921124 
L 447.032147 272.921124 
L 451.136509 285.19301 
L 455.240871 291.328954 
L 459.345233 303.600841 
L 463.449595 322.008671 
L 467.553956 374.16419 
L 471.658318 374.16419 
L 475.76268 374.16419 
L 479.867042 374.16419 
L 483.971404 374.16419 
L 488.075766 374.16419 
L 492.180128 374.16419 
L 496.28449 374.16419 
L 500.388852 374.16419 
L 504.493214 374.16419 
L 508.597576 374.16419 
L 512.701938 374.16419 
L 516.8063 374.16419 
L 520.910662 374.16419 
L 525.015024 374.16419 
L 529.119386 374.16419 
L 533.223748 374.16419 
L 537.32811 374.16419 
" clip-path="url(#pa457f13bd9)" style="fill: none; stroke: #ffc107; stroke-width: 2; stroke-linecap: square"/>
   </g>
   <g id="line2d_24">
    <path d="M 44.804673 374.16419 
L 48.909035 374.16419 
L 53.013397 374.16419 
L 57.117759 374.16419 
L 61.222121 343.484473 
L 65.326483 322.008671 
L 69.430845 303.600841 
L 73.535207 297.464897 
L 77.639569 297.464897 
L 81.743931 294.396926 
L 85.848293 266.78518 
L 89.952655 187.017915 
L 94.057017 107.250651 
L 98.161379 85.774849 
L 102.265741 76.570934 
L 106.370103 61.231075 
L 110.474465 55.095132 
L 114.578827 55.095132 
L 118.683189 48.959188 
L 122.787551 42.823245 
L 126.891913 42.823245 
L 130.996275 39.755273 
L 135.100637 36.687301 
L 139.204999 33.619329 
L 143.309361 24.415414 
L 147.413723 24.415414 
L 151.518085 24.415414 
L 155.622447 24.415414 
L 159.726809 24.415414 
L 163.831171 24.415414 
L 167.935533 24.415414 
L 172.039895 24.415414 
L 176.144256 24.415414 
L 180.248618 24.415414 
L 184.35298 24.415414 
L 188.457342 24.415414 
L 192.561704 24.415414 
L 196.666066 24.415414 
L 200.770428 24.415414 
L 204.87479 24.415414 
L 208.979152 24.415414 
L 213.083514 24.415414 
L 217.187876 24.415414 
L 221.292238 24.415414 
L 225.3966 24.415414 
L 229.500962 24.415414 
L 233.605324 24.415414 
L 237.709686 24.415414 
L 241.814048 24.415414 
L 245.91841 24.415414 
L 250.022772 24.415414 
L 254.127134 24.415414 
L 258.231496 24.415414 
L 262.335858 24.415414 
L 266.44022 24.415414 
L 270.544582 24.415414 
L 274.648944 24.415414 
L 278.753306 24.415414 
L 282.857668 24.415414 
L 286.96203 24.415414 
L 291.066392 24.415414 
L 295.170754 24.415414 
L 299.275116 24.415414 
L 303.379478 24.415414 
L 307.48384 24.415414 
L 311.588202 24.415414 
L 315.692564 24.415414 
L 319.796926 24.415414 
L 323.901287 24.415414 
L 328.005649 24.415414 
L 332.110011 24.415414 
L 336.214373 24.415414 
L 340.318735 24.415414 
L 344.423097 24.415414 
L 348.527459 24.415414 
L 352.631821 24.415414 
L 356.736183 24.415414 
L 360.840545 24.415414 
L 364.944907 24.415414 
L 369.049269 24.415414 
L 373.153631 24.415414 
L 377.257993 24.415414 
L 381.362355 24.415414 
L 385.466717 24.415414 
L 389.571079 24.415414 
L 393.675441 24.415414 
L 397.779803 24.415414 
L 401.884165 24.415414 
L 405.988527 24.415414 
L 410.092889 24.415414 
L 414.197251 24.415414 
L 418.301613 24.415414 
L 422.405975 24.415414 
L 426.510337 27.483386 
L 430.614699 27.483386 
L 434.719061 27.483386 
L 438.823423 27.483386 
L 442.927785 30.551358 
L 447.032147 33.619329 
L 451.136509 36.687301 
L 455.240871 36.687301 
L 459.345233 48.959188 
L 463.449595 122.590509 
L 467.553956 174.746029 
L 471.658318 202.357774 
L 475.76268 211.561689 
L 479.867042 236.105463 
L 483.971404 257.581265 
L 488.075766 279.057067 
L 492.180128 368.028247 
L 496.28449 374.16419 
L 500.388852 374.16419 
L 504.493214 374.16419 
L 508.597576 374.16419 
L 512.701938 374.16419 
L 516.8063 374.16419 
L 520.910662 374.16419 
L 525.015024 374.16419 
L 529.119386 374.16419 
L 533.223748 374.16419 
L 537.32811 374.16419 
" clip-path="url(#pa457f13bd9)" style="fill: none; stroke: #004d40; stroke-width: 2; stroke-linecap: square"/>
   </g>
   <g id="patch_3">
    <path d="M 44.804673 374.16419 
L 44.804673 12.042938 
" style="fill: none; stroke: #000000; stroke-width: 0.6; stroke-linejoin: miter; stroke-linecap: square"/>
   </g>
   <g id="patch_4">
    <path d="M 44.804673 374.16419 
L 538.148982 374.16419 
" style="fill: none; stroke: #000000; stroke-width: 0.6; stroke-linejoin: miter; stroke-linecap: square"/>
   </g>
   <g id="legend_1">
    <g id="line2d_25">
     <path d="M 219.153685 295.416077 
L 232.103685 295.416077 
L 245.053685 295.416077 
" style="fill: none; stroke: #c70303; stroke-width: 2; stroke-linecap: square"/>
    </g>
    <g id="text_23">
     <!-- January 13, 2026 -->
     <g transform="translate(256.253685 300.316077) scale(0.14 -0.14)">
      <defs>
       <path id="CMR17-4a" d="M 1888 910 
C 1888 324 1568 -26 1242 -26 
C 1075 -26 691 49 525 431 
C 550 425 582 418 608 418 
C 730 418 883 501 883 692 
C 883 845 774 960 614 960 
C 461 960 339 865 339 682 
C 339 258 730 -128 1254 -128 
C 1754 -128 2214 229 2291 764 
C 2298 809 2298 821 2298 1038 
L 2298 3715 
C 2298 3823 2298 4001 2310 4039 
C 2336 4160 2483 4160 2682 4160 
L 2682 4320 
C 2669 4320 2214 4320 2054 4320 
C 1786 4320 1491 4320 1222 4320 
L 1222 4160 
L 1376 4160 
C 1875 4160 1888 4090 1888 3861 
L 1888 910 
z
" transform="scale(0.015625)"/>
       <path id="CMR17-2c" d="M 1011 102 
C 1024 45 1024 25 1024 -77 
C 1024 -463 896 -817 627 -1139 
C 595 -1170 595 -1183 595 -1197 
C 595 -1222 621 -1248 646 -1248 
C 685 -1248 1126 -799 1126 -87 
C 1126 124 1101 522 800 522 
C 659 522 538 427 538 261 
C 538 96 659 0 800 0 
C 877 0 960 32 1011 102 
z
" transform="scale(0.015625)"/>
      </defs>
      <use xlink:href="#CMR17-4a" transform="scale(0.996264)"/>
      <use xlink:href="#CMR17-61" transform="translate(46.97179 0) scale(0.996264)"/>
      <use xlink:href="#CMR17-6e" transform="translate(92.662267 0) scale(0.996264)"/>
      <use xlink:href="#CMR17-75" transform="translate(140.955183 0) scale(0.996264)"/>
      <use xlink:href="#CMR17-61" transform="translate(191.850552 0) scale(0.996264)"/>
      <use xlink:href="#CMR17-72" transform="translate(237.54103 0) scale(0.996264)"/>
      <use xlink:href="#CMR17-79" transform="translate(272.821797 0) scale(0.996264)"/>
      <use xlink:href="#CMR17-31" transform="translate(351.19068 0) scale(0.996264)"/>
      <use xlink:href="#CMR17-33" transform="translate(396.881157 0) scale(0.996264)"/>
      <use xlink:href="#CMR17-2c" transform="translate(442.571634 0) scale(0.996264)"/>
      <use xlink:href="#CMR17-32" transform="translate(497.518659 0) scale(0.996264)"/>
      <use xlink:href="#CMR17-30" transform="translate(543.209136 0) scale(0.996264)"/>
      <use xlink:href="#CMR17-32" transform="translate(588.899613 0) scale(0.996264)"/>
      <use xlink:href="#CMR17-36" transform="translate(634.59009 0) scale(0.996264)"/>
     </g>
    </g>
    <g id="line2d_26">
     <path d="M 219.153685 314.928105 
L 232.103685 314.928105 
L 245.053685 314.928105 
" style="fill: none; stroke: #2979ea; stroke-width: 2; stroke-linecap: square"/>
    </g>
    <g id="text_24">
     <!-- January 20, 2026 -->
     <g transform="translate(256.253685 319.828105) scale(0.14 -0.14)">
      <use xlink:href="#CMR17-4a" transform="scale(0.996264)"/>
      <use xlink:href="#CMR17-61" transform="translate(46.97179 0) scale(0.996264)"/>
      <use xlink:href="#CMR17-6e" transform="translate(92.662267 0) scale(0.996264)"/>
      <use xlink:href="#CMR17-75" transform="translate(140.955183 0) scale(0.996264)"/>
      <use xlink:href="#CMR17-61" transform="translate(191.850552 0) scale(0.996264)"/>
      <use xlink:href="#CMR17-72" transform="translate(237.54103 0) scale(0.996264)"/>
      <use xlink:href="#CMR17-79" transform="translate(272.821797 0) scale(0.996264)"/>
      <use xlink:href="#CMR17-32" transform="translate(351.19068 0) scale(0.996264)"/>
      <use xlink:href="#CMR17-30" transform="translate(396.881157 0) scale(0.996264)"/>
      <use xlink:href="#CMR17-2c" transform="translate(442.571634 0) scale(0.996264)"/>
      <use xlink:href="#CMR17-32" transform="translate(497.518659 0) scale(0.996264)"/>
      <use xlink:href="#CMR17-30" transform="translate(543.209136 0) scale(0.996264)"/>
      <use xlink:href="#CMR17-32" transform="translate(588.899613 0) scale(0.996264)"/>
      <use xlink:href="#CMR17-36" transform="translate(634.59009 0) scale(0.996264)"/>
     </g>
    </g>
    <g id="line2d_27">
     <path d="M 219.153685 334.440134 
L 232.103685 334.440134 
L 245.053685 334.440134 
" style="fill: none; stroke: #ffc107; stroke-width: 2; stroke-linecap: square"/>
    </g>
    <g id="text_25">
     <!-- January 27, 2026 -->
     <g transform="translate(256.253685 339.340134) scale(0.14 -0.14)">
      <use xlink:href="#CMR17-4a" transform="scale(0.996264)"/>
      <use xlink:href="#CMR17-61" transform="translate(46.97179 0) scale(0.996264)"/>
      <use xlink:href="#CMR17-6e" transform="translate(92.662267 0) scale(0.996264)"/>
      <use xlink:href="#CMR17-75" transform="translate(140.955183 0) scale(0.996264)"/>
      <use xlink:href="#CMR17-61" transform="translate(191.850552 0) scale(0.996264)"/>
      <use xlink:href="#CMR17-72" transform="translate(237.54103 0) scale(0.996264)"/>
      <use xlink:href="#CMR17-79" transform="translate(272.821797 0) scale(0.996264)"/>
      <use xlink:href="#CMR17-32" transform="translate(351.19068 0) scale(0.996264)"/>
      <use xlink:href="#CMR17-37" transform="translate(396.881157 0) scale(0.996264)"/>
      <use xlink:href="#CMR17-2c" transform="translate(442.571634 0) scale(0.996264)"/>
      <use xlink:href="#CMR17-32" transform="translate(497.518659 0) scale(0.996264)"/>
      <use xlink:href="#CMR17-30" transform="translate(543.209136 0) scale(0.996264)"/>
      <use xlink:href="#CMR17-32" transform="translate(588.899613 0) scale(0.996264)"/>
      <use xlink:href="#CMR17-36" transform="translate(634.59009 0) scale(0.996264)"/>
     </g>
    </g>
    <g id="line2d_28">
     <path d="M 219.153685 353.952162 
L 232.103685 353.952162 
L 245.053685 353.952162 
" style="fill: none; stroke: #004d40; stroke-width: 2; stroke-linecap: square"/>
    </g>
    <g id="text_26">
     <!-- February 14, 2026 -->
     <g transform="translate(256.253685 358.852162) scale(0.14 -0.14)">
      <defs>
       <path id="CMR17-46" d="M 3482 4325 
L 326 4325 
L 326 4160 
C 768 4160 838 4160 838 3874 
L 838 446 
C 838 160 768 160 326 160 
L 326 0 
C 512 0 870 0 1069 0 
C 1331 0 1638 0 1901 0 
L 1901 160 
L 1760 160 
C 1274 160 1261 223 1261 452 
L 1261 2075 
L 1837 2075 
C 2432 2075 2490 1865 2490 1332 
L 2605 1332 
L 2605 2987 
L 2490 2987 
C 2490 2450 2432 2240 1837 2240 
L 1261 2240 
L 1261 3911 
C 1261 4128 1274 4160 1530 4160 
L 2355 4160 
C 3322 4160 3430 3765 3520 2916 
L 3635 2916 
L 3482 4325 
z
" transform="scale(0.015625)"/>
       <path id="CMR17-62" d="M 960 4396 
L 198 4326 
L 198 4160 
C 576 4160 634 4122 634 3817 
L 634 -13 
L 749 -13 
L 934 441 
C 1120 141 1395 -64 1766 -64 
C 2406 -64 3053 500 3053 1370 
C 3053 2188 2477 2790 1830 2790 
C 1434 2790 1152 2579 960 2330 
L 960 4396 
z
M 973 2004 
C 973 2118 973 2138 1062 2272 
C 1312 2657 1670 2688 1792 2688 
C 1984 2688 2643 2585 2643 1376 
C 2643 108 1888 38 1734 38 
C 1536 38 1248 114 1043 486 
C 973 608 973 621 973 735 
L 973 2004 
z
" transform="scale(0.015625)"/>
      </defs>
      <use xlink:href="#CMR17-46" transform="scale(0.996264)"/>
      <use xlink:href="#CMR17-65" transform="translate(52.176591 0) scale(0.996264)"/>
      <use xlink:href="#CMR17-62" transform="translate(92.662252 0) scale(0.996264)"/>
      <use xlink:href="#CMR17-72" transform="translate(143.557621 0) scale(0.996264)"/>
      <use xlink:href="#CMR17-75" transform="translate(178.838389 0) scale(0.996264)"/>
      <use xlink:href="#CMR17-61" transform="translate(229.733759 0) scale(0.996264)"/>
      <use xlink:href="#CMR17-72" transform="translate(275.424236 0) scale(0.996264)"/>
      <use xlink:href="#CMR17-79" transform="translate(310.705004 0) scale(0.996264)"/>
      <use xlink:href="#CMR17-31" transform="translate(389.073886 0) scale(0.996264)"/>
      <use xlink:href="#CMR17-34" transform="translate(434.764363 0) scale(0.996264)"/>
      <use xlink:href="#CMR17-2c" transform="translate(480.45484 0) scale(0.996264)"/>
      <use xlink:href="#CMR17-32" transform="translate(535.401865 0) scale(0.996264)"/>
      <use xlink:href="#CMR17-30" transform="translate(581.092342 0) scale(0.996264)"/>
      <use xlink:href="#CMR17-32" transform="translate(626.782819 0) scale(0.996264)"/>
      <use xlink:href="#CMR17-36" transform="translate(672.473297 0) scale(0.996264)"/>
     </g>
    </g>
   </g>
  </g>
 </g>
 <defs>
  <clipPath id="pa457f13bd9">
   <rect x="44.804673" y="12.042938" width="493.344309" height="362.121252"/>
  </clipPath>
 </defs>
</svg>
