<?xml version="1.0" encoding="utf-8" standalone="no"?>
<!DOCTYPE svg PUBLIC "-//W3C//DTD SVG 1.1//EN"
  "http://www.w3.org/Graphics/SVG/1.1/DTD/svg11.dtd">
<svg xmlns:xlink="http://www.w3.org/1999/xlink" width="560.16pt" height="416.16pt" viewBox="0 0 560.16 416.16" xmlns="http://www.w3.org/2000/svg" version="1.1">
 <metadata>
  <rdf:RDF xmlns:dc="http://purl.org/dc/elements/1.1/" xmlns:cc="http://creativecommons.org/ns#" xmlns:rdf="http://www.w3.org/1999/02/22-rdf-syntax-ns#">
   <cc:Work>
    <dc:type rdf:resource="http://purl.org/dc/dcmitype/StillImage"/>
    <dc:date>2026-01-05T12:31:21.562724</dc:date>
    <dc:format>image/svg+xml</dc:format>
    <dc:creator>
     <cc:Agent>
      <dc:title>Matplotlib v3.10.3, https://matplotlib.org/</dc:title>
     </cc:Agent>
    </dc:creator>
   </cc:Work>
  </rdf:RDF>
 </metadata>
 <defs>
  <style type="text/css">*{stroke-linejoin: round; stroke-linecap: butt}</style>
 </defs>
 <g id="figure_1">
  <g id="patch_1">
   <path d="M 0 416.16 
L 560.16 416.16 
L 560.16 0 
L 0 0 
L 0 416.16 
z
" style="fill: none"/>
  </g>
  <g id="axes_1">
   <g id="patch_2">
    <path d="M 44.804673 372.614399 
L 542.717267 372.614399 
L 542.717267 12.042938 
L 44.804673 12.042938 
L 44.804673 372.614399 
z
" style="fill: none"/>
   </g>
   <g id="matplotlib.axis_1">
    <g id="xtick_1">
     <g id="line2d_1">
      <defs>
       <path id="m4cd371f86f" d="M 0 0 
L 0 2.5 
" style="stroke: #000000; stroke-width: 0.6"/>
      </defs>
      <g>
       <use xlink:href="#m4cd371f86f" x="44.804673" y="372.614399" style="stroke: #000000; stroke-width: 0.6"/>
      </g>
     </g>
     <g id="text_1">
      <!-- $\mathdefault{0}$ -->
      <g transform="translate(41.390429 388.300275) scale(0.14 -0.14)">
       <defs>
        <path id="CMR17-30" d="M 2688 2025 
C 2688 2416 2682 3080 2413 3591 
C 2176 4039 1798 4198 1466 4198 
C 1158 4198 768 4058 525 3597 
C 269 3118 243 2524 243 2025 
C 243 1661 250 1106 448 619 
C 723 -39 1216 -128 1466 -128 
C 1760 -128 2208 -7 2470 600 
C 2662 1042 2688 1559 2688 2025 
z
M 1466 -26 
C 1056 -26 813 325 723 812 
C 653 1188 653 1738 653 2096 
C 653 2588 653 2997 736 3387 
C 858 3929 1216 4096 1466 4096 
C 1728 4096 2067 3923 2189 3400 
C 2272 3036 2278 2607 2278 2096 
C 2278 1680 2278 1169 2202 792 
C 2067 95 1690 -26 1466 -26 
z
" transform="scale(0.015625)"/>
       </defs>
       <use xlink:href="#CMR17-30" transform="scale(0.996264)"/>
      </g>
     </g>
    </g>
    <g id="xtick_2">
     <g id="line2d_2">
      <g>
       <use xlink:href="#m4cd371f86f" x="127.790106" y="372.614399" style="stroke: #000000; stroke-width: 0.6"/>
      </g>
     </g>
     <g id="text_2">
      <!-- $\mathdefault{60}$ -->
      <g transform="translate(120.961617 388.300275) scale(0.14 -0.14)">
       <defs>
        <path id="CMR17-36" d="M 678 2176 
C 678 3690 1395 4032 1811 4032 
C 1946 4032 2272 4009 2400 3776 
C 2298 3776 2106 3776 2106 3553 
C 2106 3381 2246 3323 2336 3323 
C 2394 3323 2566 3348 2566 3560 
C 2566 3954 2246 4179 1805 4179 
C 1043 4179 243 3390 243 1984 
C 243 253 966 -128 1478 -128 
C 2099 -128 2688 427 2688 1283 
C 2688 2081 2170 2662 1517 2662 
C 1126 2662 838 2407 678 1960 
L 678 2176 
z
M 1478 25 
C 691 25 691 1200 691 1436 
C 691 1896 909 2560 1504 2560 
C 1613 2560 1926 2560 2138 2120 
C 2253 1870 2253 1609 2253 1289 
C 2253 944 2253 690 2118 434 
C 1978 171 1773 25 1478 25 
z
" transform="scale(0.015625)"/>
       </defs>
       <use xlink:href="#CMR17-36" transform="scale(0.996264)"/>
       <use xlink:href="#CMR17-30" transform="translate(45.690477 0) scale(0.996264)"/>
      </g>
     </g>
    </g>
    <g id="xtick_3">
     <g id="line2d_3">
      <g>
       <use xlink:href="#m4cd371f86f" x="210.775538" y="372.614399" style="stroke: #000000; stroke-width: 0.6"/>
      </g>
     </g>
     <g id="text_3">
      <!-- $\mathdefault{120}$ -->
      <g transform="translate(200.532805 388.300275) scale(0.14 -0.14)">
       <defs>
        <path id="CMR17-31" d="M 1702 4058 
C 1702 4192 1696 4192 1606 4192 
C 1357 3916 979 3827 621 3827 
C 602 3827 570 3827 563 3808 
C 557 3795 557 3782 557 3648 
C 755 3648 1088 3686 1344 3839 
L 1344 461 
C 1344 236 1331 160 781 160 
L 589 160 
L 589 0 
C 896 0 1216 0 1523 0 
C 1830 0 2150 0 2458 0 
L 2458 160 
L 2266 160 
C 1715 160 1702 230 1702 458 
L 1702 4058 
z
" transform="scale(0.015625)"/>
        <path id="CMR17-32" d="M 2669 989 
L 2554 989 
C 2490 536 2438 459 2413 420 
C 2381 369 1920 369 1830 369 
L 602 369 
C 832 619 1280 1072 1824 1597 
C 2214 1967 2669 2402 2669 3035 
C 2669 3790 2067 4224 1395 4224 
C 691 4224 262 3604 262 3030 
C 262 2780 448 2748 525 2748 
C 589 2748 781 2787 781 3010 
C 781 3207 614 3264 525 3264 
C 486 3264 448 3258 422 3245 
C 544 3790 915 4058 1306 4058 
C 1862 4058 2227 3617 2227 3035 
C 2227 2479 1901 2000 1536 1584 
L 262 146 
L 262 0 
L 2515 0 
L 2669 989 
z
" transform="scale(0.015625)"/>
       </defs>
       <use xlink:href="#CMR17-31" transform="scale(0.996264)"/>
       <use xlink:href="#CMR17-32" transform="translate(45.690477 0) scale(0.996264)"/>
       <use xlink:href="#CMR17-30" transform="translate(91.380954 0) scale(0.996264)"/>
      </g>
     </g>
    </g>
    <g id="xtick_4">
     <g id="line2d_4">
      <g>
       <use xlink:href="#m4cd371f86f" x="293.76097" y="372.614399" style="stroke: #000000; stroke-width: 0.6"/>
      </g>
     </g>
     <g id="text_4">
      <!-- $\mathdefault{180}$ -->
      <g transform="translate(283.518237 388.300275) scale(0.14 -0.14)">
       <defs>
        <path id="CMR17-38" d="M 1741 2264 
C 2144 2467 2554 2773 2554 3263 
C 2554 3841 1990 4179 1472 4179 
C 890 4179 378 3759 378 3180 
C 378 3021 416 2747 666 2505 
C 730 2442 998 2251 1171 2130 
C 883 1983 211 1634 211 934 
C 211 279 838 -128 1459 -128 
C 2144 -128 2720 362 2720 1010 
C 2720 1590 2330 1857 2074 2029 
L 1741 2264 
z
M 902 2822 
C 851 2854 595 3051 595 3351 
C 595 3739 998 4032 1459 4032 
C 1965 4032 2336 3676 2336 3262 
C 2336 2669 1670 2331 1638 2331 
C 1632 2331 1626 2331 1574 2370 
L 902 2822 
z
M 2080 1519 
C 2176 1449 2483 1240 2483 851 
C 2483 381 2010 25 1472 25 
C 890 25 448 438 448 940 
C 448 1443 838 1862 1280 2060 
L 2080 1519 
z
" transform="scale(0.015625)"/>
       </defs>
       <use xlink:href="#CMR17-31" transform="scale(0.996264)"/>
       <use xlink:href="#CMR17-38" transform="translate(45.690477 0) scale(0.996264)"/>
       <use xlink:href="#CMR17-30" transform="translate(91.380954 0) scale(0.996264)"/>
      </g>
     </g>
    </g>
    <g id="xtick_5">
     <g id="line2d_5">
      <g>
       <use xlink:href="#m4cd371f86f" x="376.746403" y="372.614399" style="stroke: #000000; stroke-width: 0.6"/>
      </g>
     </g>
     <g id="text_5">
      <!-- $\mathdefault{240}$ -->
      <g transform="translate(366.50367 388.300275) scale(0.14 -0.14)">
       <defs>
        <path id="CMR17-34" d="M 2150 4122 
C 2150 4256 2144 4256 2029 4256 
L 128 1254 
L 128 1088 
L 1779 1088 
L 1779 457 
C 1779 224 1766 160 1318 160 
L 1197 160 
L 1197 0 
C 1402 0 1747 0 1965 0 
C 2182 0 2528 0 2733 0 
L 2733 160 
L 2611 160 
C 2163 160 2150 224 2150 457 
L 2150 1088 
L 2803 1088 
L 2803 1254 
L 2150 1254 
L 2150 4122 
z
M 1798 3703 
L 1798 1254 
L 256 1254 
L 1798 3703 
z
" transform="scale(0.015625)"/>
       </defs>
       <use xlink:href="#CMR17-32" transform="scale(0.996264)"/>
       <use xlink:href="#CMR17-34" transform="translate(45.690477 0) scale(0.996264)"/>
       <use xlink:href="#CMR17-30" transform="translate(91.380954 0) scale(0.996264)"/>
      </g>
     </g>
    </g>
    <g id="xtick_6">
     <g id="line2d_6">
      <g>
       <use xlink:href="#m4cd371f86f" x="459.731835" y="372.614399" style="stroke: #000000; stroke-width: 0.6"/>
      </g>
     </g>
     <g id="text_6">
      <!-- $\mathdefault{300}$ -->
      <g transform="translate(449.489102 388.300275) scale(0.14 -0.14)">
       <defs>
        <path id="CMR17-33" d="M 1414 2157 
C 1984 2157 2234 1662 2234 1090 
C 2234 320 1824 25 1453 25 
C 1114 25 563 194 390 693 
C 422 680 454 680 486 680 
C 640 680 755 782 755 948 
C 755 1133 614 1216 486 1216 
C 378 1216 211 1165 211 926 
C 211 335 787 -128 1466 -128 
C 2176 -128 2720 430 2720 1085 
C 2720 1707 2208 2157 1600 2227 
C 2086 2328 2554 2756 2554 3329 
C 2554 3820 2048 4179 1472 4179 
C 890 4179 378 3829 378 3329 
C 378 3110 544 3072 627 3072 
C 762 3072 877 3155 877 3321 
C 877 3486 762 3569 627 3569 
C 602 3569 570 3569 544 3557 
C 730 3959 1235 4032 1459 4032 
C 1683 4032 2106 3925 2106 3320 
C 2106 3143 2080 2828 1862 2550 
C 1670 2304 1453 2304 1242 2284 
C 1210 2284 1062 2269 1037 2269 
C 992 2263 966 2257 966 2208 
C 966 2163 973 2157 1101 2157 
L 1414 2157 
z
" transform="scale(0.015625)"/>
       </defs>
       <use xlink:href="#CMR17-33" transform="scale(0.996264)"/>
       <use xlink:href="#CMR17-30" transform="translate(45.690477 0) scale(0.996264)"/>
       <use xlink:href="#CMR17-30" transform="translate(91.380954 0) scale(0.996264)"/>
      </g>
     </g>
    </g>
    <g id="xtick_7">
     <g id="line2d_7">
      <g>
       <use xlink:href="#m4cd371f86f" x="542.717267" y="372.614399" style="stroke: #000000; stroke-width: 0.6"/>
      </g>
     </g>
     <g id="text_7">
      <!-- $\mathdefault{360}$ -->
      <g transform="translate(532.474534 388.300275) scale(0.14 -0.14)">
       <use xlink:href="#CMR17-33" transform="scale(0.996264)"/>
       <use xlink:href="#CMR17-36" transform="translate(45.690477 0) scale(0.996264)"/>
       <use xlink:href="#CMR17-30" transform="translate(91.380954 0) scale(0.996264)"/>
      </g>
     </g>
    </g>
    <g id="text_8">
     <!-- azimuth (deg) -->
     <g transform="translate(251.841637 405.473076) scale(0.14 -0.14)">
      <defs>
       <path id="CMR17-61" d="M 2304 1653 
C 2304 2072 2304 2294 2035 2543 
C 1798 2752 1523 2816 1306 2816 
C 800 2816 435 2407 435 1971 
C 435 1728 627 1728 666 1728 
C 749 1728 896 1778 896 1954 
C 896 2112 774 2181 666 2181 
C 640 2181 608 2174 589 2168 
C 723 2592 1069 2714 1293 2714 
C 1613 2714 1965 2429 1965 1885 
L 1965 1600 
C 1587 1600 1133 1549 774 1357 
C 371 1133 256 813 256 570 
C 256 77 832 -64 1171 -64 
C 1523 -64 1850 139 1990 511 
C 2003 233 2182 -18 2464 -18 
C 2598 -18 2938 70 2938 567 
L 2938 920 
L 2822 920 
L 2822 562 
C 2822 178 2650 128 2566 128 
C 2304 128 2304 458 2304 738 
L 2304 1653 
z
M 1965 870 
C 1965 317 1568 38 1216 38 
C 896 38 646 275 646 570 
C 646 761 730 1100 1101 1305 
C 1408 1478 1760 1504 1965 1504 
L 1965 870 
z
" transform="scale(0.015625)"/>
       <path id="CMR17-7a" d="M 2310 2605 
C 2362 2670 2362 2682 2362 2695 
C 2362 2752 2336 2752 2221 2752 
L 275 2752 
L 211 1760 
L 326 1760 
C 371 2381 442 2650 1178 2650 
L 1958 2650 
L 128 96 
C 128 0 134 0 269 0 
L 2291 0 
L 2381 1152 
L 2266 1152 
C 2214 442 2131 115 1350 115 
L 531 115 
L 2310 2605 
z
" transform="scale(0.015625)"/>
       <path id="CMR17-69" d="M 992 3909 
C 992 4049 877 4170 730 4170 
C 589 4170 467 4056 467 3909 
C 467 3769 582 3648 730 3648 
C 870 3648 992 3763 992 3909 
z
M 243 2706 
L 243 2541 
C 602 2541 653 2502 653 2197 
L 653 427 
C 653 184 627 153 218 153 
L 218 -13 
C 371 0 646 0 806 0 
C 960 0 1222 0 1370 -13 
L 1370 153 
C 992 153 979 191 979 420 
L 979 2776 
L 243 2706 
z
" transform="scale(0.015625)"/>
       <path id="CMR17-6d" d="M 4326 1933 
C 4326 2252 4269 2790 3507 2790 
C 3072 2790 2771 2496 2656 2151 
L 2650 2151 
C 2573 2676 2195 2790 1837 2790 
C 1331 2790 1069 2400 973 2144 
L 966 2144 
L 966 2790 
L 211 2720 
L 211 2554 
C 589 2554 646 2515 646 2208 
L 646 428 
C 646 184 621 153 211 153 
L 211 -13 
C 365 0 646 0 813 0 
C 979 0 1267 0 1421 -13 
L 1421 153 
C 1011 153 986 178 986 428 
L 986 1658 
C 986 2247 1344 2688 1792 2688 
C 2266 2688 2317 2266 2317 1958 
L 2317 428 
C 2317 184 2291 153 1882 153 
L 1882 -13 
C 2035 0 2317 0 2483 0 
C 2650 0 2938 0 3091 -13 
L 3091 153 
C 2682 153 2656 178 2656 428 
L 2656 1658 
C 2656 2247 3014 2688 3462 2688 
C 3936 2688 3987 2266 3987 1958 
L 3987 428 
C 3987 184 3962 153 3552 153 
L 3552 -13 
C 3706 0 3987 0 4154 0 
C 4320 0 4608 0 4762 -13 
L 4762 153 
C 4352 153 4326 178 4326 428 
L 4326 1933 
z
" transform="scale(0.015625)"/>
       <path id="CMR17-75" d="M 1882 2693 
L 1882 2528 
C 2259 2528 2317 2489 2317 2186 
L 2317 1032 
C 2317 500 2029 38 1555 38 
C 1030 38 986 348 986 678 
L 986 2763 
L 211 2693 
L 211 2528 
C 467 2528 640 2528 646 2274 
L 646 1058 
C 646 633 646 361 813 183 
C 896 101 1056 -64 1517 -64 
C 2061 -64 2272 377 2323 506 
L 2330 506 
L 2330 -63 
L 3091 -63 
L 3091 128 
C 2714 128 2656 166 2656 473 
L 2656 2763 
L 1882 2693 
z
" transform="scale(0.015625)"/>
       <path id="CMR17-74" d="M 966 2560 
L 1862 2560 
L 1862 2725 
L 966 2725 
L 966 3904 
L 851 3904 
C 838 3245 614 2668 70 2668 
L 70 2560 
L 627 2560 
L 627 771 
C 627 650 627 -64 1370 -64 
C 1747 -64 1965 306 1965 777 
L 1965 1140 
L 1850 1140 
L 1850 783 
C 1850 344 1677 51 1408 51 
C 1222 51 966 178 966 758 
L 966 2560 
z
" transform="scale(0.015625)"/>
       <path id="CMR17-68" d="M 2656 1933 
C 2656 2259 2592 2790 1837 2790 
C 1312 2790 1056 2368 979 2157 
L 973 2157 
L 973 4396 
L 211 4326 
L 211 4160 
C 589 4160 646 4122 646 3817 
L 646 426 
C 646 184 621 153 211 153 
L 211 -13 
C 365 0 646 0 813 0 
C 979 0 1267 0 1421 -13 
L 1421 153 
C 1011 153 986 178 986 428 
L 986 1658 
C 986 2247 1344 2688 1792 2688 
C 2266 2688 2317 2266 2317 1958 
L 2317 428 
C 2317 184 2291 153 1882 153 
L 1882 -13 
C 2035 0 2317 0 2483 0 
C 2650 0 2938 0 3091 -13 
L 3091 153 
C 2682 153 2656 178 2656 428 
L 2656 1933 
z
" transform="scale(0.015625)"/>
       <path id="CMR17-28" d="M 1958 -1561 
C 1958 -1555 1958 -1542 1939 -1523 
C 1645 -1224 858 -407 858 1581 
C 858 3569 1632 4379 1946 4697 
C 1946 4704 1958 4717 1958 4736 
C 1958 4755 1939 4768 1914 4768 
C 1843 4768 1299 4296 986 3594 
C 666 2887 576 2199 576 1588 
C 576 1128 621 351 1005 -471 
C 1312 -1135 1837 -1600 1914 -1600 
C 1946 -1600 1958 -1587 1958 -1561 
z
" transform="scale(0.015625)"/>
       <path id="CMR17-64" d="M 1869 4326 
L 1869 4160 
C 2246 4160 2304 4122 2304 3820 
L 2304 2345 
C 2278 2377 2016 2790 1498 2790 
C 845 2790 211 2208 211 1364 
C 211 525 806 -64 1434 -64 
C 1978 -64 2259 337 2291 380 
L 2291 -63 
L 3066 -63 
L 3066 128 
C 2688 128 2630 166 2630 473 
L 2630 4396 
L 1869 4326 
z
M 2291 755 
C 2291 563 2176 390 2029 262 
C 1811 70 1594 38 1472 38 
C 1286 38 621 134 621 1356 
C 621 2612 1363 2688 1530 2688 
C 1824 2688 2061 2522 2208 2291 
C 2291 2157 2291 2138 2291 2023 
L 2291 755 
z
" transform="scale(0.015625)"/>
       <path id="CMR17-65" d="M 2438 1472 
C 2464 1498 2464 1511 2464 1576 
C 2464 2238 2118 2816 1389 2816 
C 710 2816 173 2169 173 1383 
C 173 551 781 -64 1459 -64 
C 2176 -64 2458 607 2458 740 
C 2458 784 2419 784 2406 784 
C 2362 784 2355 771 2330 696 
C 2189 265 1837 51 1504 51 
C 1229 51 954 203 781 480 
C 582 803 582 1176 582 1472 
L 2438 1472 
z
M 589 1568 
C 634 2505 1126 2714 1382 2714 
C 1818 2714 2112 2297 2118 1568 
L 589 1568 
z
" transform="scale(0.015625)"/>
       <path id="CMR17-67" d="M 710 1164 
C 832 1068 1043 960 1299 960 
C 1805 960 2240 1357 2240 1888 
C 2240 2054 2189 2310 1997 2509 
C 2176 2692 2438 2752 2586 2752 
C 2611 2752 2650 2752 2682 2734 
C 2656 2728 2598 2703 2598 2605 
C 2598 2527 2656 2471 2739 2471 
C 2835 2471 2886 2533 2886 2614 
C 2886 2731 2790 2854 2586 2854 
C 2330 2854 2106 2738 1926 2580 
C 1734 2753 1504 2816 1299 2816 
C 794 2816 358 2419 358 1888 
C 358 1522 570 1292 634 1228 
C 442 1004 442 743 442 711 
C 442 545 506 302 723 168 
C 390 85 128 -169 128 -486 
C 128 -943 736 -1280 1466 -1280 
C 2170 -1280 2803 -956 2803 -479 
C 2803 384 1856 384 1363 384 
C 1216 384 954 384 922 391 
C 723 423 589 602 589 826 
C 589 883 589 1024 710 1164 
z
M 1299 1068 
C 736 1068 736 1760 736 1889 
C 736 2016 736 2708 1299 2708 
C 1862 2708 1862 2016 1862 1889 
C 1862 1760 1862 1068 1299 1068 
z
M 1466 -1171 
C 826 -1171 384 -835 384 -486 
C 384 -289 493 -105 634 -4 
C 794 104 858 104 1293 104 
C 1818 104 2547 104 2547 -486 
C 2547 -835 2106 -1171 1466 -1171 
z
" transform="scale(0.015625)"/>
       <path id="CMR17-29" d="M 1683 1581 
C 1683 2040 1638 2817 1254 3639 
C 947 4303 422 4768 346 4768 
C 326 4768 301 4761 301 4729 
C 301 4717 307 4710 314 4697 
C 621 4378 1402 3568 1402 1584 
C 1402 -407 627 -1217 314 -1537 
C 307 -1549 301 -1556 301 -1568 
C 301 -1600 326 -1600 346 -1600 
C 416 -1600 960 -1128 1274 -426 
C 1594 281 1683 969 1683 1581 
z
" transform="scale(0.015625)"/>
      </defs>
      <use xlink:href="#CMR17-61" transform="scale(0.996264)"/>
      <use xlink:href="#CMR17-7a" transform="translate(45.690477 0) scale(0.996264)"/>
      <use xlink:href="#CMR17-69" transform="translate(86.176138 0) scale(0.996264)"/>
      <use xlink:href="#CMR17-6d" transform="translate(111.047196 0) scale(0.996264)"/>
      <use xlink:href="#CMR17-75" transform="translate(185.364332 0) scale(0.996264)"/>
      <use xlink:href="#CMR17-74" transform="translate(236.259702 0) scale(0.996264)"/>
      <use xlink:href="#CMR17-68" transform="translate(271.54047 0) scale(0.996264)"/>
      <use xlink:href="#CMR17-28" transform="translate(352.511806 0) scale(0.996264)"/>
      <use xlink:href="#CMR17-64" transform="translate(387.792574 0) scale(0.996264)"/>
      <use xlink:href="#CMR17-65" transform="translate(438.687943 0) scale(0.996264)"/>
      <use xlink:href="#CMR17-67" transform="translate(479.173604 0) scale(0.996264)"/>
      <use xlink:href="#CMR17-29" transform="translate(524.864081 0) scale(0.996264)"/>
     </g>
    </g>
   </g>
   <g id="matplotlib.axis_2">
    <g id="ytick_1">
     <g id="line2d_8">
      <defs>
       <path id="m56f3a9ced1" d="M 0 0 
L -2.5 0 
" style="stroke: #000000; stroke-width: 0.6"/>
      </defs>
      <g>
       <use xlink:href="#m56f3a9ced1" x="44.804673" y="372.614399" style="stroke: #000000; stroke-width: 0.6"/>
      </g>
     </g>
     <g id="text_9">
      <!-- $\mathdefault{0}$ -->
      <g transform="translate(31.976185 377.457337) scale(0.14 -0.14)">
       <use xlink:href="#CMR17-30" transform="scale(0.996264)"/>
      </g>
     </g>
    </g>
    <g id="ytick_2">
     <g id="line2d_9">
      <g>
       <use xlink:href="#m56f3a9ced1" x="44.804673" y="300.500107" style="stroke: #000000; stroke-width: 0.6"/>
      </g>
     </g>
     <g id="text_10">
      <!-- $\mathdefault{5}$ -->
      <g transform="translate(31.976185 305.343045) scale(0.14 -0.14)">
       <defs>
        <path id="CMR17-35" d="M 730 3692 
C 794 3666 1056 3584 1325 3584 
C 1920 3584 2246 3911 2432 4100 
C 2432 4157 2432 4192 2394 4192 
C 2387 4192 2374 4192 2323 4163 
C 2099 4058 1837 3973 1517 3973 
C 1325 3973 1037 3999 723 4139 
C 653 4171 640 4171 634 4171 
C 602 4171 595 4164 595 4037 
L 595 2203 
C 595 2089 595 2057 659 2057 
C 691 2057 704 2070 736 2114 
C 941 2401 1222 2522 1542 2522 
C 1766 2522 2246 2382 2246 1289 
C 2246 1085 2246 715 2054 421 
C 1894 159 1645 25 1370 25 
C 947 25 518 320 403 814 
C 429 807 480 795 506 795 
C 589 795 749 840 749 1038 
C 749 1210 627 1280 506 1280 
C 358 1280 262 1190 262 1011 
C 262 454 704 -128 1382 -128 
C 2042 -128 2669 440 2669 1264 
C 2669 2030 2170 2624 1549 2624 
C 1222 2624 947 2503 730 2274 
L 730 3692 
z
" transform="scale(0.015625)"/>
       </defs>
       <use xlink:href="#CMR17-35" transform="scale(0.996264)"/>
      </g>
     </g>
    </g>
    <g id="ytick_3">
     <g id="line2d_10">
      <g>
       <use xlink:href="#m56f3a9ced1" x="44.804673" y="228.385815" style="stroke: #000000; stroke-width: 0.6"/>
      </g>
     </g>
     <g id="text_11">
      <!-- $\mathdefault{10}$ -->
      <g transform="translate(25.147696 233.228753) scale(0.14 -0.14)">
       <use xlink:href="#CMR17-31" transform="scale(0.996264)"/>
       <use xlink:href="#CMR17-30" transform="translate(45.690477 0) scale(0.996264)"/>
      </g>
     </g>
    </g>
    <g id="ytick_4">
     <g id="line2d_11">
      <g>
       <use xlink:href="#m56f3a9ced1" x="44.804673" y="156.271523" style="stroke: #000000; stroke-width: 0.6"/>
      </g>
     </g>
     <g id="text_12">
      <!-- $\mathdefault{15}$ -->
      <g transform="translate(25.147696 161.114461) scale(0.14 -0.14)">
       <use xlink:href="#CMR17-31" transform="scale(0.996264)"/>
       <use xlink:href="#CMR17-35" transform="translate(45.690477 0) scale(0.996264)"/>
      </g>
     </g>
    </g>
    <g id="ytick_5">
     <g id="line2d_12">
      <g>
       <use xlink:href="#m56f3a9ced1" x="44.804673" y="84.15723" style="stroke: #000000; stroke-width: 0.6"/>
      </g>
     </g>
     <g id="text_13">
      <!-- $\mathdefault{20}$ -->
      <g transform="translate(25.147696 89.000169) scale(0.14 -0.14)">
       <use xlink:href="#CMR17-32" transform="scale(0.996264)"/>
       <use xlink:href="#CMR17-30" transform="translate(45.690477 0) scale(0.996264)"/>
      </g>
     </g>
    </g>
    <g id="ytick_6">
     <g id="line2d_13">
      <g>
       <use xlink:href="#m56f3a9ced1" x="44.804673" y="12.042938" style="stroke: #000000; stroke-width: 0.6"/>
      </g>
     </g>
     <g id="text_14">
      <!-- $\mathdefault{25}$ -->
      <g transform="translate(25.147696 16.885876) scale(0.14 -0.14)">
       <use xlink:href="#CMR17-32" transform="scale(0.996264)"/>
       <use xlink:href="#CMR17-35" transform="translate(45.690477 0) scale(0.996264)"/>
      </g>
     </g>
    </g>
    <g id="text_15">
     <!-- horizon (deg) -->
     <g transform="translate(17.660772 232.161519) rotate(-90) scale(0.14 -0.14)">
      <defs>
       <path id="CMR17-6f" d="M 2758 1356 
C 2758 2176 2163 2816 1466 2816 
C 768 2816 173 2176 173 1356 
C 173 551 768 -64 1466 -64 
C 2163 -64 2758 551 2758 1356 
z
M 1466 51 
C 1165 51 909 230 762 480 
C 602 767 582 1126 582 1408 
C 582 1677 595 2010 762 2298 
C 890 2509 1139 2714 1466 2714 
C 1754 2714 1997 2554 2150 2330 
C 2349 2029 2349 1607 2349 1408 
C 2349 1158 2336 775 2163 467 
C 1984 173 1709 51 1466 51 
z
" transform="scale(0.015625)"/>
       <path id="CMR17-72" d="M 960 1497 
C 960 2112 1222 2688 1702 2688 
C 1747 2688 1792 2682 1837 2662 
C 1837 2662 1696 2617 1696 2452 
C 1696 2298 1818 2234 1914 2234 
C 1990 2234 2131 2279 2131 2458 
C 2131 2663 1926 2790 1709 2790 
C 1222 2790 1011 2317 947 2093 
L 941 2093 
L 941 2790 
L 198 2720 
L 198 2554 
C 576 2554 634 2515 634 2208 
L 634 428 
C 634 184 608 153 198 153 
L 198 -13 
C 352 0 646 0 813 0 
C 998 0 1325 0 1498 -13 
L 1498 153 
C 1037 153 960 153 960 440 
L 960 1497 
z
" transform="scale(0.015625)"/>
       <path id="CMR17-6e" d="M 2656 1933 
C 2656 2259 2592 2790 1837 2790 
C 1331 2790 1069 2400 973 2144 
L 966 2144 
L 966 2790 
L 211 2720 
L 211 2554 
C 589 2554 646 2515 646 2208 
L 646 428 
C 646 184 621 153 211 153 
L 211 -13 
C 365 0 646 0 813 0 
C 979 0 1267 0 1421 -13 
L 1421 153 
C 1011 153 986 178 986 428 
L 986 1658 
C 986 2247 1344 2688 1792 2688 
C 2266 2688 2317 2266 2317 1958 
L 2317 428 
C 2317 184 2291 153 1882 153 
L 1882 -13 
C 2035 0 2317 0 2483 0 
C 2650 0 2938 0 3091 -13 
L 3091 153 
C 2682 153 2656 178 2656 428 
L 2656 1933 
z
" transform="scale(0.015625)"/>
      </defs>
      <use xlink:href="#CMR17-68" transform="scale(0.996264)"/>
      <use xlink:href="#CMR17-6f" transform="translate(50.89537 0) scale(0.996264)"/>
      <use xlink:href="#CMR17-72" transform="translate(96.585847 0) scale(0.996264)"/>
      <use xlink:href="#CMR17-69" transform="translate(131.866615 0) scale(0.996264)"/>
      <use xlink:href="#CMR17-7a" transform="translate(156.737673 0) scale(0.996264)"/>
      <use xlink:href="#CMR17-6f" transform="translate(197.223334 0) scale(0.996264)"/>
      <use xlink:href="#CMR17-6e" transform="translate(242.913811 0) scale(0.996264)"/>
      <use xlink:href="#CMR17-28" transform="translate(323.885147 0) scale(0.996264)"/>
      <use xlink:href="#CMR17-64" transform="translate(359.165915 0) scale(0.996264)"/>
      <use xlink:href="#CMR17-65" transform="translate(410.061284 0) scale(0.996264)"/>
      <use xlink:href="#CMR17-67" transform="translate(450.546945 0) scale(0.996264)"/>
      <use xlink:href="#CMR17-29" transform="translate(496.237422 0) scale(0.996264)"/>
     </g>
    </g>
   </g>
   <g id="line2d_14">
    <path d="M 44.804673 339.039775 
L 45.150446 338.78509 
L 45.496219 339.123583 
L 45.841991 339.771223 
L 46.533537 340.510377 
L 47.225082 341.979016 
L 48.2624 347.09172 
L 49.299718 349.518149 
L 49.64549 350.925827 
L 49.991263 352.87523 
L 50.337036 353.918413 
L 50.682808 353.290542 
L 51.374353 355.119571 
L 51.720126 354.783454 
L 52.065899 355.27673 
L 52.411671 356.179142 
L 52.757444 356.601374 
L 53.103217 356.250557 
L 53.448989 355.188241 
L 54.486307 353.4807 
L 54.83208 353.332371 
L 55.177852 352.557127 
L 55.523625 350.540463 
L 55.869398 349.977049 
L 56.21517 349.656073 
L 56.560943 349.680503 
L 57.598261 351.121979 
L 57.944034 351.205202 
L 58.289806 351.583549 
L 58.635579 351.719344 
L 58.981351 351.302408 
L 60.018669 348.179329 
L 60.364442 346.925787 
L 62.093305 338.539527 
L 62.439078 335.588557 
L 62.78485 334.022363 
L 63.130623 333.102032 
L 63.822168 332.112398 
L 64.513714 330.559199 
L 64.859486 329.290396 
L 65.551031 328.306869 
L 66.242577 327.491837 
L 66.588349 327.013737 
L 67.279895 326.849275 
L 67.625667 327.210986 
L 67.97144 328.362957 
L 69.008758 330.374425 
L 69.35453 331.370524 
L 70.046076 334.242521 
L 70.391848 334.238646 
L 70.737621 334.605154 
L 71.083394 334.663436 
L 71.429166 334.837797 
L 71.774939 334.747704 
L 72.466484 333.244077 
L 73.158029 332.662026 
L 73.503802 332.745338 
L 73.849575 333.481232 
L 74.195347 333.609557 
L 74.54112 334.13043 
L 74.886893 334.336596 
L 75.232665 334.205418 
L 76.269983 329.255053 
L 76.961528 327.381923 
L 77.307301 326.933457 
L 77.653074 326.864508 
L 77.998846 326.060302 
L 78.344619 325.825069 
L 79.036164 324.426493 
L 79.381937 324.143287 
L 79.727709 324.017538 
L 80.073482 324.324296 
L 80.419255 324.057313 
L 81.1108 323.929284 
L 81.456573 324.120736 
L 81.802345 324.567843 
L 82.148118 324.4931 
L 82.493891 324.755124 
L 82.839663 324.791247 
L 83.185436 324.962483 
L 83.531208 324.230066 
L 83.876981 324.680226 
L 84.568526 324.013336 
L 85.260072 322.140677 
L 85.605844 322.137919 
L 85.951617 322.945651 
L 86.29739 324.105001 
L 86.643162 325.706555 
L 86.988935 325.791428 
L 87.68048 326.405555 
L 88.026253 326.415142 
L 88.372025 325.460177 
L 88.717798 324.980464 
L 89.063571 325.21839 
L 89.755116 327.626657 
L 90.100889 327.649995 
L 90.446661 328.18994 
L 90.792434 329.633115 
L 91.483979 333.609753 
L 91.829752 332.156812 
L 92.175524 331.344053 
L 92.521297 330.836119 
L 92.86707 330.903981 
L 93.212842 330.531291 
L 94.25016 326.474246 
L 94.941705 320.26047 
L 95.287478 318.007201 
L 95.979023 316.726352 
L 96.670569 312.392814 
L 97.016341 311.358164 
L 97.362114 311.133749 
L 98.399432 303.325909 
L 98.745204 300.941035 
L 99.782522 297.90123 
L 100.128295 297.340781 
L 100.474068 297.231555 
L 100.81984 296.705478 
L 101.511385 296.386843 
L 101.857158 296.480946 
L 102.202931 296.023912 
L 103.586021 291.742277 
L 103.931794 290.18829 
L 104.623339 288.429668 
L 104.969112 288.455995 
L 105.314884 289.211156 
L 106.00643 291.648869 
L 106.697975 293.334288 
L 107.043748 293.62018 
L 107.38952 293.162265 
L 107.735293 292.360916 
L 108.081066 291.208071 
L 108.772611 290.218565 
L 109.809929 287.871372 
L 110.501474 284.756556 
L 111.193019 280.395322 
L 111.538792 278.918465 
L 112.230337 274.777005 
L 112.57611 273.860714 
L 112.921882 273.583502 
L 113.267655 271.934106 
L 113.613428 271.063426 
L 113.9592 271.401647 
L 114.304973 272.616078 
L 114.650746 272.904315 
L 114.996518 272.591918 
L 115.342291 272.498737 
L 115.688063 273.467907 
L 116.033836 273.725732 
L 116.379609 273.823611 
L 116.725381 274.422525 
L 117.071154 275.484148 
L 119.491562 287.43686 
L 119.837335 288.045396 
L 120.874653 293.129529 
L 121.566198 294.818394 
L 122.949289 295.452871 
L 123.295061 294.482339 
L 123.986607 294.619246 
L 124.332379 294.469568 
L 125.023925 295.053565 
L 125.369697 294.933727 
L 125.71547 296.182923 
L 126.407015 300.597325 
L 126.752788 302.437664 
L 128.135878 317.301309 
L 128.481651 317.756312 
L 128.827424 317.285498 
L 129.518969 315.026129 
L 130.210514 315.601605 
L 130.556287 316.515355 
L 130.902059 316.861516 
L 131.247832 316.811896 
L 131.593605 316.641633 
L 131.939377 315.781995 
L 132.28515 316.762696 
L 132.630923 316.299585 
L 133.66824 321.693938 
L 134.014013 324.238673 
L 135.742876 331.790135 
L 136.434422 334.990014 
L 136.780194 335.929275 
L 137.125967 334.921395 
L 137.471739 335.408185 
L 137.817512 335.69386 
L 138.163285 335.636062 
L 138.509057 336.134189 
L 138.85483 335.11045 
L 139.200603 336.242291 
L 139.546375 335.433796 
L 139.892148 333.674084 
L 140.237921 330.589081 
L 140.583693 331.395042 
L 141.275238 334.075621 
L 141.621011 335.821582 
L 141.966784 335.549057 
L 142.312556 335.585245 
L 142.658329 334.991011 
L 143.004102 336.616931 
L 143.349874 337.682732 
L 143.695647 338.014606 
L 144.041419 337.597962 
L 144.387192 337.42968 
L 144.732965 335.142691 
L 145.078737 333.765391 
L 145.42451 335.012434 
L 145.770283 335.455989 
L 146.116055 335.230721 
L 146.461828 335.725612 
L 147.153373 338.074184 
L 147.499146 334.640173 
L 147.844918 330.039326 
L 148.190691 329.00372 
L 148.536464 328.835613 
L 149.228009 325.947482 
L 149.573782 327.79084 
L 149.919554 329.017722 
L 150.265327 329.223826 
L 152.339963 305.810195 
L 153.723053 291.504389 
L 154.068826 285.228975 
L 155.106144 278.342012 
L 156.489234 267.334132 
L 156.835007 266.273341 
L 157.18078 264.399695 
L 157.872325 262.786825 
L 158.218098 261.487493 
L 158.56387 260.89917 
L 159.255415 258.539027 
L 159.601188 258.324391 
L 160.292733 256.377667 
L 160.638506 255.720879 
L 160.984279 255.720879 
L 161.330051 254.206128 
L 161.675824 254.080713 
L 162.021596 253.364808 
L 162.367369 253.088118 
L 163.058914 253.116356 
L 163.404687 253.593658 
L 163.75046 253.593658 
L 164.096232 254.155607 
L 164.787778 252.743494 
L 165.13355 251.343044 
L 165.479323 251.343044 
L 166.170868 251.227133 
L 166.516641 250.714027 
L 166.862413 250.714027 
L 167.553959 249.882349 
L 167.899731 249.882349 
L 168.245504 247.569893 
L 168.591277 242.351315 
L 168.937049 239.562039 
L 169.282822 239.562039 
L 169.628594 233.709039 
L 169.974367 233.709039 
L 170.32014 227.600283 
L 170.665912 227.600283 
L 171.011685 223.84577 
L 171.357458 222.715023 
L 171.70323 218.88281 
L 172.394776 215.684936 
L 173.432093 206.166072 
L 174.123639 204.107239 
L 174.469411 201.941533 
L 174.815184 197.288218 
L 175.160957 194.725248 
L 175.506729 194.246612 
L 176.198274 192.106681 
L 176.88982 189.435214 
L 177.581365 185.155588 
L 178.27291 177.001617 
L 178.618683 175.357585 
L 179.656001 162.912338 
L 180.347546 159.698797 
L 181.384864 153.012537 
L 181.730637 152.446668 
L 182.076409 150.979398 
L 182.422182 152.4562 
L 182.767955 152.135303 
L 183.113727 154.246485 
L 183.4595 157.41989 
L 183.805272 158.040736 
L 184.151045 159.758988 
L 185.188363 166.479567 
L 185.534136 165.496009 
L 185.879908 165.496009 
L 186.225681 164.492162 
L 186.571454 164.710835 
L 186.917226 164.456593 
L 187.262999 164.613603 
L 187.954544 168.109692 
L 188.300317 167.945695 
L 188.646089 166.79752 
L 188.991862 166.469168 
L 189.337635 166.68923 
L 190.374953 166.527749 
L 190.720725 166.195105 
L 192.103816 170.750225 
L 192.449588 172.852069 
L 192.795361 174.178476 
L 193.141134 174.178476 
L 193.486906 175.317779 
L 193.832679 177.231527 
L 194.178451 177.175862 
L 194.524224 176.888278 
L 194.869997 176.824126 
L 195.215769 177.068726 
L 195.561542 176.90195 
L 195.907315 177.581419 
L 196.59886 180.626753 
L 196.944633 180.626753 
L 197.636178 182.129263 
L 197.98195 182.412885 
L 198.673496 184.065334 
L 199.019268 184.377704 
L 199.365041 184.328187 
L 199.710814 185.00071 
L 200.056586 185.229464 
L 200.402359 185.192189 
L 201.093904 186.59792 
L 201.785449 189.443219 
L 202.131222 191.647453 
L 202.476995 192.194423 
L 202.822767 193.216893 
L 203.16854 196.035714 
L 203.514313 196.938587 
L 203.860085 197.458336 
L 204.205858 198.251928 
L 204.551631 197.667435 
L 204.897403 197.417444 
L 205.243176 197.866191 
L 205.588948 197.730047 
L 205.934721 198.367977 
L 206.626266 199.046015 
L 206.972039 200.276704 
L 207.317812 201.016212 
L 207.663584 201.103472 
L 208.009357 202.519395 
L 208.35513 202.636077 
L 208.700902 203.280595 
L 209.046675 204.530967 
L 209.392447 205.237422 
L 210.429765 210.876468 
L 211.467083 215.001781 
L 211.812856 215.643163 
L 212.158628 215.547182 
L 212.850174 213.714189 
L 213.195946 213.194151 
L 213.541719 211.584093 
L 213.887492 210.780598 
L 214.233264 210.444859 
L 215.616355 207.368866 
L 215.962127 207.149313 
L 216.999445 205.974936 
L 218.036763 204.359033 
L 218.728309 202.710558 
L 220.111399 199.833224 
L 220.802944 197.971483 
L 221.148717 197.226432 
L 222.186035 193.329269 
L 222.531808 192.169953 
L 222.87758 191.863361 
L 223.223353 191.363638 
L 223.569125 190.045373 
L 223.914898 189.479711 
L 224.260671 189.603737 
L 225.297989 195.71948 
L 225.643761 201.828675 
L 227.372624 215.622434 
L 227.718397 219.487838 
L 228.06417 221.206104 
L 228.755715 227.070823 
L 229.101488 231.868769 
L 229.44726 234.905822 
L 230.138805 237.491721 
L 231.176123 239.030089 
L 231.867669 238.078291 
L 232.213441 237.918296 
L 233.942304 243.206762 
L 234.288077 243.206762 
L 234.63385 241.356286 
L 234.979622 240.574166 
L 236.01694 229.84827 
L 236.362713 229.84827 
L 236.708486 227.795476 
L 237.054258 226.810171 
L 238.091576 218.919328 
L 238.783121 216.038872 
L 239.128894 216.038872 
L 239.474667 214.970434 
L 239.820439 211.112733 
L 240.166212 211.112733 
L 240.511985 208.602044 
L 240.857757 208.054855 
L 241.549302 203.368996 
L 241.895075 203.02158 
L 242.240848 202.053716 
L 242.932393 194.046027 
L 243.623938 194.046027 
L 243.969711 190.431578 
L 244.315483 189.02399 
L 244.661256 189.02399 
L 245.007029 187.280319 
L 245.352801 184.268725 
L 245.698574 184.268725 
L 246.044347 178.73068 
L 246.390119 178.73068 
L 246.735892 175.288468 
L 247.081665 175.288468 
L 247.427437 171.512869 
L 247.77321 171.512869 
L 248.118982 166.22919 
L 248.810528 166.22919 
L 249.1563 165.749233 
L 249.847846 165.749233 
L 250.193618 163.509608 
L 250.539391 165.749233 
L 250.885164 162.885378 
L 251.230936 162.885378 
L 251.576709 163.014054 
L 251.922481 160.741583 
L 252.268254 162.324681 
L 253.651345 162.324681 
L 253.997117 164.897527 
L 254.34289 161.702501 
L 254.688663 164.007887 
L 255.034435 164.007887 
L 255.380208 165.401445 
L 256.071753 165.401445 
L 256.417526 166.461685 
L 256.763298 166.461685 
L 257.109071 168.889103 
L 257.454844 165.461636 
L 257.800616 166.199521 
L 258.146389 166.199521 
L 258.492162 166.855703 
L 259.875252 166.855703 
L 260.221025 166.645517 
L 260.566797 164.518145 
L 260.91257 164.826333 
L 261.949888 160.469542 
L 262.29566 160.469542 
L 262.641433 158.251197 
L 262.987206 154.41985 
L 263.332978 148.969065 
L 264.024524 142.518697 
L 264.370296 141.350386 
L 264.716069 141.350386 
L 265.061842 138.359644 
L 265.407614 137.332498 
L 265.753387 135.336112 
L 266.444932 135.336112 
L 266.790705 135.211136 
L 267.136477 134.303105 
L 267.48225 134.303105 
L 267.828023 133.691103 
L 268.173795 131.31594 
L 268.519568 131.441246 
L 268.865341 131.441246 
L 269.211113 132.885215 
L 269.556886 132.331395 
L 270.248431 132.331395 
L 270.594204 133.010575 
L 270.939976 131.169673 
L 271.631522 131.169673 
L 272.323067 128.873159 
L 272.66884 127.285205 
L 273.014612 126.335332 
L 273.360385 126.335332 
L 274.397703 113.646145 
L 274.743475 112.693054 
L 275.089248 105.15396 
L 275.435021 105.15396 
L 276.126566 97.673791 
L 276.472339 97.673791 
L 276.818111 94.659281 
L 277.163884 94.659281 
L 277.509656 90.006833 
L 277.855429 87.764045 
L 278.201202 87.764045 
L 278.546974 84.960203 
L 278.892747 84.960203 
L 279.584292 81.305714 
L 279.930065 81.305714 
L 280.275837 78.747311 
L 280.967383 78.747311 
L 281.313155 77.227195 
L 281.658928 77.227195 
L 282.004701 78.589599 
L 282.350473 75.699597 
L 282.696246 75.722787 
L 283.042019 76.019587 
L 284.425109 76.11144 
L 284.770882 77.879416 
L 285.116654 77.879416 
L 285.462427 81.201893 
L 286.153972 81.201893 
L 286.499745 88.107418 
L 286.845518 85.933761 
L 287.19129 85.933761 
L 287.537063 83.332443 
L 288.228608 83.332443 
L 288.574381 81.881129 
L 288.920153 81.881129 
L 289.265926 80.868837 
L 289.611699 80.868837 
L 289.957471 80.076015 
L 290.649017 80.076015 
L 290.994789 79.598947 
L 291.340562 79.598947 
L 291.686334 79.884577 
L 292.032107 79.884577 
L 292.37788 80.524529 
L 292.723652 80.524529 
L 293.069425 81.160189 
L 293.415198 81.160189 
L 293.76097 81.914112 
L 294.452515 81.914112 
L 294.798288 83.450403 
L 295.144061 83.450403 
L 295.489833 85.25879 
L 295.835606 85.25879 
L 296.181379 86.39823 
L 296.527151 86.39823 
L 296.872924 88.198914 
L 297.218697 88.198914 
L 297.564469 89.089862 
L 298.256014 89.089862 
L 298.601787 89.674795 
L 298.94756 89.674795 
L 299.293332 89.818284 
L 299.639105 89.818284 
L 299.984878 90.757978 
L 300.33065 90.757978 
L 300.676423 91.335593 
L 301.022196 91.335593 
L 301.367968 91.876456 
L 301.713741 91.876456 
L 302.059513 93.630869 
L 302.405286 93.630869 
L 302.751059 94.269996 
L 303.096831 94.269996 
L 303.442604 96.025702 
L 303.788377 96.025702 
L 304.134149 99.761563 
L 304.479922 102.089053 
L 304.825695 105.196352 
L 305.171467 105.196352 
L 305.51724 107.363489 
L 305.863012 104.932646 
L 306.208785 104.932646 
L 306.554558 103.062281 
L 306.90033 102.645651 
L 307.591876 97.56037 
L 307.937648 97.56037 
L 308.283421 90.762545 
L 308.629194 90.762545 
L 308.974966 88.708939 
L 309.320739 88.708939 
L 309.666511 85.921795 
L 310.358057 83.410295 
L 310.703829 81.34442 
L 311.049602 81.34442 
L 311.395375 79.282644 
L 312.08692 79.283689 
L 312.778465 83.824009 
L 313.47001 86.73976 
L 313.815783 88.3758 
L 314.161556 88.3758 
L 314.507328 90.182426 
L 314.853101 94.089286 
L 315.198874 94.795123 
L 315.544646 97.044458 
L 315.890419 97.672746 
L 316.236191 97.672746 
L 316.581964 96.329626 
L 316.927737 95.807332 
L 317.273509 93.313438 
L 317.619282 93.313438 
L 317.965055 92.4585 
L 319.002373 87.516158 
L 319.348145 87.516158 
L 319.693918 86.148335 
L 320.03969 87.828335 
L 320.385463 87.828335 
L 320.731236 88.143125 
L 321.077008 88.143125 
L 321.768554 92.203928 
L 322.114326 92.526559 
L 322.460099 93.595382 
L 322.805872 95.141219 
L 323.151644 94.360474 
L 323.497417 94.00574 
L 323.843189 95.271366 
L 324.188962 95.216044 
L 324.534735 94.810391 
L 324.880507 94.797104 
L 325.917825 97.075021 
L 326.263598 100.080343 
L 326.955143 101.602439 
L 327.300916 103.857468 
L 327.992461 106.177145 
L 328.338234 106.558756 
L 329.029779 110.012453 
L 329.375552 110.46259 
L 329.721324 112.066252 
L 330.067097 114.231435 
L 330.758642 116.7261 
L 331.450187 121.208869 
L 331.79596 121.850197 
L 332.141733 125.20552 
L 332.487505 125.73846 
L 332.833278 127.607038 
L 333.179051 127.395573 
L 333.524823 130.281448 
L 333.870596 130.281448 
L 334.216368 130.667983 
L 334.562141 132.088212 
L 335.599459 142.700521 
L 335.945232 145.050898 
L 336.291004 146.55796 
L 336.636777 147.231143 
L 337.328322 152.1672 
L 338.019867 156.008698 
L 338.36564 157.207132 
L 338.711413 159.067099 
L 339.402958 164.949575 
L 340.440276 171.254899 
L 340.786049 175.106328 
L 341.131821 177.299214 
L 341.477594 180.835426 
L 341.823366 183.069755 
L 343.206457 188.770793 
L 343.55223 192.606816 
L 343.898002 193.751291 
L 344.589547 196.846651 
L 344.93532 197.488473 
L 345.281093 198.838016 
L 345.626865 199.299886 
L 345.972638 200.927068 
L 346.664183 202.578458 
L 347.701501 207.008245 
L 348.047274 208.381763 
L 348.393046 210.71016 
L 349.084592 212.943622 
L 351.159228 225.679259 
L 351.505 227.369328 
L 351.850773 228.028756 
L 352.196545 229.779896 
L 352.542318 230.475526 
L 352.888091 232.290117 
L 353.233863 232.469574 
L 353.579636 233.492732 
L 353.925409 233.058675 
L 354.271181 234.008726 
L 354.616954 233.602233 
L 357.037362 238.047618 
L 358.07468 242.105189 
L 358.420453 243.787293 
L 358.766226 244.568973 
L 359.111998 244.336299 
L 359.457771 245.640507 
L 359.803543 246.242193 
L 360.149316 248.206173 
L 360.495089 248.206173 
L 360.840861 249.367524 
L 361.186634 250.021973 
L 361.878179 251.959599 
L 362.223952 252.148272 
L 362.569724 252.530873 
L 362.915497 252.530873 
L 363.26127 253.468697 
L 363.607042 252.993197 
L 363.952815 253.151898 
L 364.298588 253.479536 
L 364.990133 254.71966 
L 366.373223 259.063879 
L 367.756314 260.652067 
L 368.102087 260.707718 
L 368.793632 262.873954 
L 369.83095 265.330339 
L 370.176722 264.92126 
L 370.522495 262.62192 
L 370.868268 262.62192 
L 371.21404 262.160126 
L 371.559813 262.064029 
L 372.251358 261.617008 
L 372.597131 261.023506 
L 372.942904 261.27686 
L 373.288676 260.742676 
L 373.634449 260.826373 
L 374.325994 259.475028 
L 374.671767 259.475028 
L 375.017539 258.551991 
L 375.709085 258.414051 
L 376.054857 257.899797 
L 376.40063 257.81231 
L 376.746403 258.232276 
L 377.092175 258.305761 
L 377.78372 259.097963 
L 378.129493 258.772018 
L 378.475266 258.938092 
L 379.166811 259.00961 
L 380.204129 261.395048 
L 380.549901 262.691746 
L 380.895674 264.709596 
L 381.587219 266.920143 
L 381.932992 267.406674 
L 384.699173 276.53452 
L 385.390718 280.652694 
L 385.736491 282.100604 
L 386.773809 285.066188 
L 387.465354 287.798637 
L 389.194217 292.579299 
L 389.53999 293.829382 
L 389.885763 293.955348 
L 391.268853 298.425773 
L 391.960398 301.60809 
L 392.651944 303.112174 
L 393.689262 304.311056 
L 394.035034 305.550843 
L 394.380807 306.201379 
L 395.072352 308.635433 
L 395.763897 310.967193 
L 396.10967 311.283442 
L 396.801215 312.957727 
L 397.146988 313.332866 
L 397.492761 314.542785 
L 398.184306 316.073688 
L 399.221624 318.763703 
L 399.567396 319.277789 
L 400.950487 322.907268 
L 401.29626 324.236774 
L 401.642032 324.585308 
L 401.987805 324.625706 
L 402.333577 325.288772 
L 402.67935 325.463093 
L 403.370895 327.266256 
L 403.716668 327.527087 
L 404.062441 329.146164 
L 404.408213 329.618466 
L 405.791304 334.72909 
L 406.482849 335.963142 
L 406.828622 335.963142 
L 407.520167 338.138766 
L 407.86594 338.309156 
L 408.211712 338.878381 
L 408.557485 339.994613 
L 408.903258 340.400133 
L 409.24903 340.986414 
L 409.594803 342.575712 
L 409.940575 342.575712 
L 410.286348 344.3165 
L 410.632121 344.96734 
L 411.323666 345.665458 
L 411.669439 345.696307 
L 412.706756 347.454501 
L 413.052529 347.851034 
L 413.398302 347.883844 
L 413.744074 348.119787 
L 414.089847 348.573871 
L 415.127165 350.490657 
L 415.472938 349.962925 
L 415.81871 349.041834 
L 416.164483 349.041834 
L 416.510255 349.338848 
L 416.856028 350.573343 
L 417.201801 350.573343 
L 417.547573 352.483725 
L 417.893346 353.499605 
L 418.584891 353.862 
L 418.930664 354.41291 
L 419.276437 355.48009 
L 419.622209 354.331429 
L 419.967982 354.951823 
L 420.313754 356.627477 
L 421.0053 356.378587 
L 421.351072 356.109215 
L 421.696845 356.149332 
L 422.042618 355.767993 
L 422.38839 355.13311 
L 422.734163 354.970989 
L 423.079936 355.344546 
L 424.463026 352.990476 
L 424.808799 352.597249 
L 425.500344 352.677365 
L 425.846117 352.120936 
L 426.191889 351.176436 
L 426.537662 350.842643 
L 426.883435 350.697658 
L 427.229207 351.18723 
L 427.57498 350.633694 
L 427.920752 350.327971 
L 428.266525 349.472772 
L 428.612298 348.925227 
L 429.649616 348.569334 
L 429.995388 347.983534 
L 430.341161 347.821313 
L 430.686933 346.972706 
L 431.032706 346.680009 
L 431.378479 346.7017 
L 431.724251 346.475439 
L 432.415797 345.632681 
L 433.798887 343.051935 
L 434.14466 343.048688 
L 434.490432 342.68118 
L 434.836205 342.01127 
L 435.181978 341.750278 
L 435.873523 343.358768 
L 436.565068 342.843444 
L 437.602386 342.503376 
L 437.948159 341.949636 
L 438.293931 342.17546 
L 438.639704 342.035768 
L 438.985477 342.196268 
L 440.368567 341.592942 
L 441.060113 340.690822 
L 442.09743 340.239739 
L 442.788976 340.04435 
L 443.134748 340.254756 
L 443.480521 340.032126 
L 443.826294 339.214683 
L 444.172066 338.798174 
L 444.517839 339.178533 
L 444.863611 339.820833 
L 445.209384 339.691907 
L 445.555157 339.399447 
L 445.900929 339.765064 
L 446.246702 340.65335 
L 446.592475 340.935233 
L 446.938247 340.894556 
L 447.28402 341.014188 
L 447.629793 341.361704 
L 447.975565 341.280971 
L 448.321338 341.027513 
L 448.66711 340.999484 
L 449.012883 340.525652 
L 449.358656 340.281344 
L 449.704428 340.910729 
L 450.050201 340.748433 
L 450.741746 340.7826 
L 451.087519 340.522302 
L 451.433292 340.503049 
L 451.779064 339.727875 
L 452.124837 339.327599 
L 452.470609 339.252203 
L 452.816382 339.526943 
L 453.162155 340.065997 
L 453.507927 339.810895 
L 453.8537 339.86915 
L 454.891018 340.904477 
L 455.236791 340.941223 
L 455.582563 340.852636 
L 455.928336 341.205867 
L 456.274108 341.796948 
L 456.619881 341.758022 
L 456.965654 341.115595 
L 457.311426 341.268007 
L 457.657199 342.010761 
L 458.002972 341.81204 
L 458.694517 343.381989 
L 459.731835 346.146112 
L 460.077607 346.563888 
L 460.42338 346.701343 
L 460.769153 346.548918 
L 461.806471 345.629271 
L 463.535334 344.636919 
L 464.572652 342.61176 
L 464.918424 342.811997 
L 465.264197 342.778044 
L 465.60997 342.477173 
L 466.301515 342.233261 
L 466.647287 342.108884 
L 467.338833 342.144774 
L 468.030378 341.653149 
L 469.067696 340.753595 
L 469.759241 341.872926 
L 470.450786 341.31762 
L 470.796559 341.765305 
L 471.142332 341.832566 
L 472.17965 342.700852 
L 472.525422 343.292604 
L 472.871195 343.583582 
L 473.56274 343.922897 
L 473.908513 344.240629 
L 474.254285 344.264022 
L 474.600058 344.119597 
L 474.945831 344.108824 
L 476.328921 345.942679 
L 476.674694 346.176528 
L 477.020467 346.559724 
L 477.366239 347.114472 
L 477.712012 347.402745 
L 480.478193 352.75005 
L 481.169738 353.847977 
L 481.861283 355.641894 
L 482.207056 355.955976 
L 482.552829 356.670239 
L 483.244374 359.199486 
L 483.590147 360.597561 
L 483.935919 361.338123 
L 484.627464 364.126492 
L 485.31901 367.604664 
L 485.664782 367.255139 
L 486.010555 366.323248 
L 487.393646 360.685541 
L 487.739418 360.816635 
L 488.085191 361.234839 
L 488.776736 362.548782 
L 490.851372 365.343211 
L 491.88869 367.933454 
L 492.580235 369.019258 
L 493.27178 370.489173 
L 493.617553 370.989395 
L 493.963326 371.746273 
L 495.000644 373.096459 
L 496.037961 375.240491 
L 496.383734 375.776793 
L 496.729507 376.953873 
L 497.075279 378.65402 
L 497.421052 379.654112 
L 497.766825 381.622328 
L 498.45837 381.689155 
L 500.533006 381.581034 
L 500.878778 381.74709 
L 501.570324 381.432997 
L 502.261869 381.577375 
L 502.607641 381.339645 
L 502.953414 380.906453 
L 503.299187 380.893936 
L 503.990732 380.589527 
L 504.336505 380.526823 
L 505.02805 380.090023 
L 505.373823 379.424058 
L 506.065368 377.476745 
L 506.756913 376.580278 
L 507.794231 376.153641 
L 508.140004 376.442132 
L 508.831549 377.49806 
L 509.523094 378.580485 
L 510.214639 379.99583 
L 510.560412 380.199374 
L 510.906185 380.192981 
L 511.59773 379.932389 
L 512.635048 379.924323 
L 512.98082 379.830531 
L 513.326593 379.610077 
L 513.672366 379.080781 
L 514.018138 379.1717 
L 514.709684 378.993743 
L 515.401229 378.854664 
L 516.438547 378.483213 
L 517.475865 378.284217 
L 517.821637 378.190642 
L 518.16741 378.695405 
L 519.550501 378.207673 
L 520.587818 378.069547 
L 521.625136 376.207737 
L 522.316682 375.240746 
L 523.008227 374.723262 
L 523.699772 373.504639 
L 524.73709 371.181356 
L 525.082863 370.624751 
L 526.120181 369.504038 
L 527.157499 367.565769 
L 527.503271 366.791342 
L 528.194816 366.587281 
L 529.232134 365.576727 
L 530.269452 363.641003 
L 530.615225 363.591384 
L 530.960997 362.34593 
L 531.30677 360.657469 
L 531.998315 359.240248 
L 532.344088 357.765129 
L 532.689861 357.98472 
L 533.035633 357.701909 
L 533.727179 354.494591 
L 534.072951 354.090333 
L 534.418724 354.424146 
L 535.110269 354.306562 
L 535.801814 351.480179 
L 536.147587 351.217578 
L 536.49336 351.841849 
L 536.839132 351.221295 
L 537.530678 348.730601 
L 537.87645 349.04847 
L 538.222223 348.932907 
L 538.913768 346.014448 
L 540.296859 336.111477 
L 540.642631 335.385324 
L 540.988404 335.443139 
L 541.334177 336.430816 
L 541.679949 338.201587 
L 542.025722 338.718778 
L 542.371494 338.590361 
L 542.371494 338.590361 
" clip-path="url(#p978a913a22)" style="fill: none; stroke: #c70303; stroke-width: 2; stroke-linecap: square"/>
   </g>
   <g id="patch_3">
    <path d="M 44.804673 372.614399 
L 44.804673 12.042938 
" style="fill: none; stroke: #000000; stroke-width: 0.6; stroke-linejoin: miter; stroke-linecap: square"/>
   </g>
   <g id="patch_4">
    <path d="M 44.804673 372.614399 
L 542.717267 372.614399 
" style="fill: none; stroke: #000000; stroke-width: 0.6; stroke-linejoin: miter; stroke-linecap: square"/>
   </g>
  </g>
 </g>
 <defs>
  <clipPath id="p978a913a22">
   <rect x="44.804673" y="12.042938" width="497.912594" height="360.571461"/>
  </clipPath>
 </defs>
</svg>
