<?xml version="1.0" encoding="utf-8" standalone="no"?>
<!DOCTYPE svg PUBLIC "-//W3C//DTD SVG 1.1//EN"
  "http://www.w3.org/Graphics/SVG/1.1/DTD/svg11.dtd">
<svg xmlns:xlink="http://www.w3.org/1999/xlink" width="206.988489pt" height="200.16pt" viewBox="0 0 206.988489 200.16" xmlns="http://www.w3.org/2000/svg" version="1.1">
 <metadata>
  <rdf:RDF xmlns:dc="http://purl.org/dc/elements/1.1/" xmlns:cc="http://creativecommons.org/ns#" xmlns:rdf="http://www.w3.org/1999/02/22-rdf-syntax-ns#">
   <cc:Work>
    <dc:type rdf:resource="http://purl.org/dc/dcmitype/StillImage"/>
    <dc:date>2025-12-21T11:21:42.339066</dc:date>
    <dc:format>image/svg+xml</dc:format>
    <dc:creator>
     <cc:Agent>
      <dc:title>Matplotlib v3.8.4, https://matplotlib.org/</dc:title>
     </cc:Agent>
    </dc:creator>
   </cc:Work>
  </rdf:RDF>
 </metadata>
 <defs>
  <style type="text/css">*{stroke-linejoin: round; stroke-linecap: butt}</style>
 </defs>
 <g id="figure_1">
  <g id="patch_1">
   <path d="M 0 200.16 
L 206.988489 200.16 
L 206.988489 0 
L 0 0 
L 0 200.16 
z
" style="fill: none"/>
  </g>
  <g id="axes_1">
   <g id="patch_2">
    <path d="M 53.876976 156.614399 
L 199.788489 156.614399 
L 199.788489 24.823055 
L 53.876976 24.823055 
L 53.876976 156.614399 
z
" style="fill: none"/>
   </g>
   <g id="matplotlib.axis_1">
    <g id="xtick_1">
     <g id="line2d_1">
      <defs>
       <path id="m4cd371f86f" d="M 0 0 
L 0 2.5 
" style="stroke: #000000; stroke-width: 0.6"/>
      </defs>
      <g>
       <use xlink:href="#m4cd371f86f" x="66.036268" y="156.614399" style="stroke: #000000; stroke-width: 0.6"/>
      </g>
     </g>
     <g id="text_1">
      <!-- $\mathdefault{-25}$ -->
      <g transform="translate(53.783662 172.300275) scale(0.14 -0.14)">
       <defs>
        <path id="CMSY10-0" d="M 4218 1472 
C 4326 1472 4442 1472 4442 1600 
C 4442 1728 4326 1728 4218 1728 
L 755 1728 
C 646 1728 531 1728 531 1600 
C 531 1472 646 1472 755 1472 
L 4218 1472 
z
" transform="scale(0.015625)"/>
        <path id="CMR17-32" d="M 2669 989 
L 2554 989 
C 2490 536 2438 459 2413 420 
C 2381 369 1920 369 1830 369 
L 602 369 
C 832 619 1280 1072 1824 1597 
C 2214 1967 2669 2402 2669 3035 
C 2669 3790 2067 4224 1395 4224 
C 691 4224 262 3604 262 3030 
C 262 2780 448 2748 525 2748 
C 589 2748 781 2787 781 3010 
C 781 3207 614 3264 525 3264 
C 486 3264 448 3258 422 3245 
C 544 3790 915 4058 1306 4058 
C 1862 4058 2227 3617 2227 3035 
C 2227 2479 1901 2000 1536 1584 
L 262 146 
L 262 0 
L 2515 0 
L 2669 989 
z
" transform="scale(0.015625)"/>
        <path id="CMR17-35" d="M 730 3692 
C 794 3666 1056 3584 1325 3584 
C 1920 3584 2246 3911 2432 4100 
C 2432 4157 2432 4192 2394 4192 
C 2387 4192 2374 4192 2323 4163 
C 2099 4058 1837 3973 1517 3973 
C 1325 3973 1037 3999 723 4139 
C 653 4171 640 4171 634 4171 
C 602 4171 595 4164 595 4037 
L 595 2203 
C 595 2089 595 2057 659 2057 
C 691 2057 704 2070 736 2114 
C 941 2401 1222 2522 1542 2522 
C 1766 2522 2246 2382 2246 1289 
C 2246 1085 2246 715 2054 421 
C 1894 159 1645 25 1370 25 
C 947 25 518 320 403 814 
C 429 807 480 795 506 795 
C 589 795 749 840 749 1038 
C 749 1210 627 1280 506 1280 
C 358 1280 262 1190 262 1011 
C 262 454 704 -128 1382 -128 
C 2042 -128 2669 440 2669 1264 
C 2669 2030 2170 2624 1549 2624 
C 1222 2624 947 2503 730 2274 
L 730 3692 
z
" transform="scale(0.015625)"/>
       </defs>
       <use xlink:href="#CMSY10-0" transform="scale(0.996264)"/>
       <use xlink:href="#CMR17-32" transform="translate(77.487468 0) scale(0.996264)"/>
       <use xlink:href="#CMR17-35" transform="translate(123.177945 0) scale(0.996264)"/>
      </g>
     </g>
    </g>
    <g id="xtick_2">
     <g id="line2d_2">
      <g>
       <use xlink:href="#m4cd371f86f" x="126.832732" y="156.614399" style="stroke: #000000; stroke-width: 0.6"/>
      </g>
     </g>
     <g id="text_2">
      <!-- $\mathdefault{0}$ -->
      <g transform="translate(123.418488 172.300275) scale(0.14 -0.14)">
       <defs>
        <path id="CMR17-30" d="M 2688 2025 
C 2688 2416 2682 3080 2413 3591 
C 2176 4039 1798 4198 1466 4198 
C 1158 4198 768 4058 525 3597 
C 269 3118 243 2524 243 2025 
C 243 1661 250 1106 448 619 
C 723 -39 1216 -128 1466 -128 
C 1760 -128 2208 -7 2470 600 
C 2662 1042 2688 1559 2688 2025 
z
M 1466 -26 
C 1056 -26 813 325 723 812 
C 653 1188 653 1738 653 2096 
C 653 2588 653 2997 736 3387 
C 858 3929 1216 4096 1466 4096 
C 1728 4096 2067 3923 2189 3400 
C 2272 3036 2278 2607 2278 2096 
C 2278 1680 2278 1169 2202 792 
C 2067 95 1690 -26 1466 -26 
z
" transform="scale(0.015625)"/>
       </defs>
       <use xlink:href="#CMR17-30" transform="scale(0.996264)"/>
      </g>
     </g>
    </g>
    <g id="xtick_3">
     <g id="line2d_3">
      <g>
       <use xlink:href="#m4cd371f86f" x="187.629196" y="156.614399" style="stroke: #000000; stroke-width: 0.6"/>
      </g>
     </g>
     <g id="text_3">
      <!-- $\mathdefault{25}$ -->
      <g transform="translate(180.800707 172.300275) scale(0.14 -0.14)">
       <use xlink:href="#CMR17-32" transform="scale(0.996264)"/>
       <use xlink:href="#CMR17-35" transform="translate(45.690477 0) scale(0.996264)"/>
      </g>
     </g>
    </g>
    <g id="text_4">
     <!-- $t$(s) -->
     <g transform="translate(116.362383 189.473076) scale(0.14 -0.14)">
      <defs>
       <path id="CMMI12-74" d="M 1286 2566 
L 1875 2566 
C 1997 2566 2061 2566 2061 2681 
C 2061 2752 2022 2752 1894 2752 
L 1331 2752 
L 1568 3692 
C 1594 3781 1594 3794 1594 3840 
C 1594 3943 1510 4000 1427 4000 
C 1376 4000 1229 3981 1178 3775 
L 928 2752 
L 326 2752 
C 198 2752 141 2752 141 2630 
C 141 2566 186 2566 307 2566 
L 877 2566 
L 454 881 
C 403 658 384 594 384 511 
C 384 211 595 -64 954 -64 
C 1600 -64 1946 868 1946 912 
C 1946 951 1920 970 1882 970 
C 1869 970 1843 970 1830 944 
C 1824 938 1818 931 1773 829 
C 1638 511 1344 64 973 64 
C 781 64 768 224 768 364 
C 768 370 768 492 787 568 
L 1286 2566 
z
" transform="scale(0.015625)"/>
       <path id="CMR17-28" d="M 1958 -1561 
C 1958 -1555 1958 -1542 1939 -1523 
C 1645 -1224 858 -407 858 1581 
C 858 3569 1632 4379 1946 4697 
C 1946 4704 1958 4717 1958 4736 
C 1958 4755 1939 4768 1914 4768 
C 1843 4768 1299 4296 986 3594 
C 666 2887 576 2199 576 1588 
C 576 1128 621 351 1005 -471 
C 1312 -1135 1837 -1600 1914 -1600 
C 1946 -1600 1958 -1587 1958 -1561 
z
" transform="scale(0.015625)"/>
       <path id="CMR17-73" d="M 1978 2697 
C 1978 2813 1971 2819 1933 2819 
C 1907 2819 1901 2813 1824 2717 
C 1805 2691 1747 2626 1728 2601 
C 1523 2819 1235 2819 1126 2819 
C 416 2819 160 2447 160 2076 
C 160 1498 813 1365 998 1325 
C 1402 1243 1542 1217 1677 1101 
C 1760 1025 1901 884 1901 654 
C 1901 384 1747 38 1158 38 
C 602 38 403 460 288 1021 
C 269 1110 269 1117 218 1117 
C 166 1117 160 1110 160 983 
L 160 63 
C 160 -51 166 -58 205 -58 
C 237 -58 243 -51 275 0 
C 314 57 410 211 448 276 
C 576 103 800 -64 1158 -64 
C 1792 -64 2131 283 2131 784 
C 2131 1112 1958 1285 1875 1362 
C 1683 1561 1459 1606 1190 1657 
C 838 1735 390 1825 390 2217 
C 390 2383 480 2737 1126 2737 
C 1811 2737 1850 2094 1862 1888 
C 1869 1856 1901 1849 1920 1849 
C 1978 1849 1978 1869 1978 1978 
L 1978 2697 
z
" transform="scale(0.015625)"/>
       <path id="CMR17-29" d="M 1683 1581 
C 1683 2040 1638 2817 1254 3639 
C 947 4303 422 4768 346 4768 
C 326 4768 301 4761 301 4729 
C 301 4717 307 4710 314 4697 
C 621 4378 1402 3568 1402 1584 
C 1402 -407 627 -1217 314 -1537 
C 307 -1549 301 -1556 301 -1568 
C 301 -1600 326 -1600 346 -1600 
C 416 -1600 960 -1128 1274 -426 
C 1594 281 1683 969 1683 1581 
z
" transform="scale(0.015625)"/>
      </defs>
      <use xlink:href="#CMMI12-74" transform="scale(0.996264)"/>
      <use xlink:href="#CMR17-28" transform="translate(35.22633 0) scale(0.996264)"/>
      <use xlink:href="#CMR17-73" transform="translate(70.507098 0) scale(0.996264)"/>
      <use xlink:href="#CMR17-29" transform="translate(106.308436 0) scale(0.996264)"/>
     </g>
    </g>
   </g>
   <g id="matplotlib.axis_2">
    <g id="ytick_1">
     <g id="line2d_4">
      <defs>
       <path id="m56f3a9ced1" d="M 0 0 
L -2.5 0 
" style="stroke: #000000; stroke-width: 0.6"/>
      </defs>
      <g>
       <use xlink:href="#m56f3a9ced1" x="53.876976" y="156.614399" style="stroke: #000000; stroke-width: 0.6"/>
      </g>
     </g>
     <g id="text_5">
      <!-- $\mathdefault{0.00}$ -->
      <g transform="translate(23.597905 161.457337) scale(0.14 -0.14)">
       <defs>
        <path id="CMMI12-3a" d="M 1178 307 
C 1178 492 1024 619 870 619 
C 685 619 557 466 557 313 
C 557 128 710 0 864 0 
C 1050 0 1178 153 1178 307 
z
" transform="scale(0.015625)"/>
       </defs>
       <use xlink:href="#CMR17-30" transform="scale(0.996264)"/>
       <use xlink:href="#CMMI12-3a" transform="translate(45.690477 0) scale(0.996264)"/>
       <use xlink:href="#CMR17-30" transform="translate(72.787654 0) scale(0.996264)"/>
       <use xlink:href="#CMR17-30" transform="translate(118.478131 0) scale(0.996264)"/>
      </g>
     </g>
    </g>
    <g id="ytick_2">
     <g id="line2d_5">
      <g>
       <use xlink:href="#m56f3a9ced1" x="53.876976" y="123.666563" style="stroke: #000000; stroke-width: 0.6"/>
      </g>
     </g>
     <g id="text_6">
      <!-- $\mathdefault{0.25}$ -->
      <g transform="translate(23.597905 128.509501) scale(0.14 -0.14)">
       <use xlink:href="#CMR17-30" transform="scale(0.996264)"/>
       <use xlink:href="#CMMI12-3a" transform="translate(45.690477 0) scale(0.996264)"/>
       <use xlink:href="#CMR17-32" transform="translate(72.787654 0) scale(0.996264)"/>
       <use xlink:href="#CMR17-35" transform="translate(118.478131 0) scale(0.996264)"/>
      </g>
     </g>
    </g>
    <g id="ytick_3">
     <g id="line2d_6">
      <g>
       <use xlink:href="#m56f3a9ced1" x="53.876976" y="90.718727" style="stroke: #000000; stroke-width: 0.6"/>
      </g>
     </g>
     <g id="text_7">
      <!-- $\mathdefault{0.50}$ -->
      <g transform="translate(23.597905 95.561665) scale(0.14 -0.14)">
       <use xlink:href="#CMR17-30" transform="scale(0.996264)"/>
       <use xlink:href="#CMMI12-3a" transform="translate(45.690477 0) scale(0.996264)"/>
       <use xlink:href="#CMR17-35" transform="translate(72.787654 0) scale(0.996264)"/>
       <use xlink:href="#CMR17-30" transform="translate(118.478131 0) scale(0.996264)"/>
      </g>
     </g>
    </g>
    <g id="ytick_4">
     <g id="line2d_7">
      <g>
       <use xlink:href="#m56f3a9ced1" x="53.876976" y="57.770891" style="stroke: #000000; stroke-width: 0.6"/>
      </g>
     </g>
     <g id="text_8">
      <!-- $\mathdefault{0.75}$ -->
      <g transform="translate(23.597905 62.613829) scale(0.14 -0.14)">
       <defs>
        <path id="CMR17-37" d="M 2886 3941 
L 2886 4081 
L 1382 4081 
C 634 4081 621 4165 595 4288 
L 480 4288 
L 294 3094 
L 410 3094 
C 429 3215 474 3540 550 3661 
C 589 3712 1062 3712 1171 3712 
L 2579 3712 
L 1869 2661 
C 1395 1954 1069 999 1069 165 
C 1069 89 1069 -128 1299 -128 
C 1530 -128 1530 89 1530 171 
L 1530 465 
C 1530 1508 1709 2196 2003 2636 
L 2886 3941 
z
" transform="scale(0.015625)"/>
       </defs>
       <use xlink:href="#CMR17-30" transform="scale(0.996264)"/>
       <use xlink:href="#CMMI12-3a" transform="translate(45.690477 0) scale(0.996264)"/>
       <use xlink:href="#CMR17-37" transform="translate(72.787654 0) scale(0.996264)"/>
       <use xlink:href="#CMR17-35" transform="translate(118.478131 0) scale(0.996264)"/>
      </g>
     </g>
    </g>
    <g id="ytick_5">
     <g id="line2d_8">
      <g>
       <use xlink:href="#m56f3a9ced1" x="53.876976" y="24.823055" style="stroke: #000000; stroke-width: 0.6"/>
      </g>
     </g>
     <g id="text_9">
      <!-- $\mathdefault{1.00}$ -->
      <g transform="translate(23.597905 29.665993) scale(0.14 -0.14)">
       <defs>
        <path id="CMR17-31" d="M 1702 4058 
C 1702 4192 1696 4192 1606 4192 
C 1357 3916 979 3827 621 3827 
C 602 3827 570 3827 563 3808 
C 557 3795 557 3782 557 3648 
C 755 3648 1088 3686 1344 3839 
L 1344 461 
C 1344 236 1331 160 781 160 
L 589 160 
L 589 0 
C 896 0 1216 0 1523 0 
C 1830 0 2150 0 2458 0 
L 2458 160 
L 2266 160 
C 1715 160 1702 230 1702 458 
L 1702 4058 
z
" transform="scale(0.015625)"/>
       </defs>
       <use xlink:href="#CMR17-31" transform="scale(0.996264)"/>
       <use xlink:href="#CMMI12-3a" transform="translate(45.690477 0) scale(0.996264)"/>
       <use xlink:href="#CMR17-30" transform="translate(72.787654 0) scale(0.996264)"/>
       <use xlink:href="#CMR17-30" transform="translate(118.478131 0) scale(0.996264)"/>
      </g>
     </g>
    </g>
    <g id="text_10">
     <!-- normalized elevation -->
     <g transform="translate(16.885876 151.985444) rotate(-90) scale(0.14 -0.14)">
      <defs>
       <path id="CMR17-6e" d="M 2656 1933 
C 2656 2259 2592 2790 1837 2790 
C 1331 2790 1069 2400 973 2144 
L 966 2144 
L 966 2790 
L 211 2720 
L 211 2554 
C 589 2554 646 2515 646 2208 
L 646 428 
C 646 184 621 153 211 153 
L 211 -13 
C 365 0 646 0 813 0 
C 979 0 1267 0 1421 -13 
L 1421 153 
C 1011 153 986 178 986 428 
L 986 1658 
C 986 2247 1344 2688 1792 2688 
C 2266 2688 2317 2266 2317 1958 
L 2317 428 
C 2317 184 2291 153 1882 153 
L 1882 -13 
C 2035 0 2317 0 2483 0 
C 2650 0 2938 0 3091 -13 
L 3091 153 
C 2682 153 2656 178 2656 428 
L 2656 1933 
z
" transform="scale(0.015625)"/>
       <path id="CMR17-6f" d="M 2758 1356 
C 2758 2176 2163 2816 1466 2816 
C 768 2816 173 2176 173 1356 
C 173 551 768 -64 1466 -64 
C 2163 -64 2758 551 2758 1356 
z
M 1466 51 
C 1165 51 909 230 762 480 
C 602 767 582 1126 582 1408 
C 582 1677 595 2010 762 2298 
C 890 2509 1139 2714 1466 2714 
C 1754 2714 1997 2554 2150 2330 
C 2349 2029 2349 1607 2349 1408 
C 2349 1158 2336 775 2163 467 
C 1984 173 1709 51 1466 51 
z
" transform="scale(0.015625)"/>
       <path id="CMR17-72" d="M 960 1497 
C 960 2112 1222 2688 1702 2688 
C 1747 2688 1792 2682 1837 2662 
C 1837 2662 1696 2617 1696 2452 
C 1696 2298 1818 2234 1914 2234 
C 1990 2234 2131 2279 2131 2458 
C 2131 2663 1926 2790 1709 2790 
C 1222 2790 1011 2317 947 2093 
L 941 2093 
L 941 2790 
L 198 2720 
L 198 2554 
C 576 2554 634 2515 634 2208 
L 634 428 
C 634 184 608 153 198 153 
L 198 -13 
C 352 0 646 0 813 0 
C 998 0 1325 0 1498 -13 
L 1498 153 
C 1037 153 960 153 960 440 
L 960 1497 
z
" transform="scale(0.015625)"/>
       <path id="CMR17-6d" d="M 4326 1933 
C 4326 2252 4269 2790 3507 2790 
C 3072 2790 2771 2496 2656 2151 
L 2650 2151 
C 2573 2676 2195 2790 1837 2790 
C 1331 2790 1069 2400 973 2144 
L 966 2144 
L 966 2790 
L 211 2720 
L 211 2554 
C 589 2554 646 2515 646 2208 
L 646 428 
C 646 184 621 153 211 153 
L 211 -13 
C 365 0 646 0 813 0 
C 979 0 1267 0 1421 -13 
L 1421 153 
C 1011 153 986 178 986 428 
L 986 1658 
C 986 2247 1344 2688 1792 2688 
C 2266 2688 2317 2266 2317 1958 
L 2317 428 
C 2317 184 2291 153 1882 153 
L 1882 -13 
C 2035 0 2317 0 2483 0 
C 2650 0 2938 0 3091 -13 
L 3091 153 
C 2682 153 2656 178 2656 428 
L 2656 1658 
C 2656 2247 3014 2688 3462 2688 
C 3936 2688 3987 2266 3987 1958 
L 3987 428 
C 3987 184 3962 153 3552 153 
L 3552 -13 
C 3706 0 3987 0 4154 0 
C 4320 0 4608 0 4762 -13 
L 4762 153 
C 4352 153 4326 178 4326 428 
L 4326 1933 
z
" transform="scale(0.015625)"/>
       <path id="CMR17-61" d="M 2304 1653 
C 2304 2072 2304 2294 2035 2543 
C 1798 2752 1523 2816 1306 2816 
C 800 2816 435 2407 435 1971 
C 435 1728 627 1728 666 1728 
C 749 1728 896 1778 896 1954 
C 896 2112 774 2181 666 2181 
C 640 2181 608 2174 589 2168 
C 723 2592 1069 2714 1293 2714 
C 1613 2714 1965 2429 1965 1885 
L 1965 1600 
C 1587 1600 1133 1549 774 1357 
C 371 1133 256 813 256 570 
C 256 77 832 -64 1171 -64 
C 1523 -64 1850 139 1990 511 
C 2003 233 2182 -18 2464 -18 
C 2598 -18 2938 70 2938 567 
L 2938 920 
L 2822 920 
L 2822 562 
C 2822 178 2650 128 2566 128 
C 2304 128 2304 458 2304 738 
L 2304 1653 
z
M 1965 870 
C 1965 317 1568 38 1216 38 
C 896 38 646 275 646 570 
C 646 761 730 1100 1101 1305 
C 1408 1478 1760 1504 1965 1504 
L 1965 870 
z
" transform="scale(0.015625)"/>
       <path id="CMR17-6c" d="M 979 4396 
L 218 4326 
L 218 4160 
C 595 4160 653 4122 653 3817 
L 653 426 
C 653 184 627 153 218 153 
L 218 -13 
C 371 0 653 0 813 0 
C 979 0 1261 0 1414 -13 
L 1414 153 
C 1005 153 979 178 979 426 
L 979 4396 
z
" transform="scale(0.015625)"/>
       <path id="CMR17-69" d="M 992 3909 
C 992 4049 877 4170 730 4170 
C 589 4170 467 4056 467 3909 
C 467 3769 582 3648 730 3648 
C 870 3648 992 3763 992 3909 
z
M 243 2706 
L 243 2541 
C 602 2541 653 2502 653 2197 
L 653 427 
C 653 184 627 153 218 153 
L 218 -13 
C 371 0 646 0 806 0 
C 960 0 1222 0 1370 -13 
L 1370 153 
C 992 153 979 191 979 420 
L 979 2776 
L 243 2706 
z
" transform="scale(0.015625)"/>
       <path id="CMR17-7a" d="M 2310 2605 
C 2362 2670 2362 2682 2362 2695 
C 2362 2752 2336 2752 2221 2752 
L 275 2752 
L 211 1760 
L 326 1760 
C 371 2381 442 2650 1178 2650 
L 1958 2650 
L 128 96 
C 128 0 134 0 269 0 
L 2291 0 
L 2381 1152 
L 2266 1152 
C 2214 442 2131 115 1350 115 
L 531 115 
L 2310 2605 
z
" transform="scale(0.015625)"/>
       <path id="CMR17-65" d="M 2438 1472 
C 2464 1498 2464 1511 2464 1576 
C 2464 2238 2118 2816 1389 2816 
C 710 2816 173 2169 173 1383 
C 173 551 781 -64 1459 -64 
C 2176 -64 2458 607 2458 740 
C 2458 784 2419 784 2406 784 
C 2362 784 2355 771 2330 696 
C 2189 265 1837 51 1504 51 
C 1229 51 954 203 781 480 
C 582 803 582 1176 582 1472 
L 2438 1472 
z
M 589 1568 
C 634 2505 1126 2714 1382 2714 
C 1818 2714 2112 2297 2118 1568 
L 589 1568 
z
" transform="scale(0.015625)"/>
       <path id="CMR17-64" d="M 1869 4326 
L 1869 4160 
C 2246 4160 2304 4122 2304 3820 
L 2304 2345 
C 2278 2377 2016 2790 1498 2790 
C 845 2790 211 2208 211 1364 
C 211 525 806 -64 1434 -64 
C 1978 -64 2259 337 2291 380 
L 2291 -63 
L 3066 -63 
L 3066 128 
C 2688 128 2630 166 2630 473 
L 2630 4396 
L 1869 4326 
z
M 2291 755 
C 2291 563 2176 390 2029 262 
C 1811 70 1594 38 1472 38 
C 1286 38 621 134 621 1356 
C 621 2612 1363 2688 1530 2688 
C 1824 2688 2061 2522 2208 2291 
C 2291 2157 2291 2138 2291 2023 
L 2291 755 
z
" transform="scale(0.015625)"/>
       <path id="CMR17-76" d="M 2502 2163 
C 2560 2304 2662 2560 3034 2560 
L 3034 2726 
C 2912 2726 2752 2726 2630 2726 
C 2496 2726 2285 2726 2157 2732 
L 2157 2566 
C 2317 2553 2406 2477 2406 2311 
C 2406 2253 2406 2240 2368 2151 
L 1664 377 
L 902 2286 
C 864 2369 864 2381 864 2407 
C 864 2560 1075 2560 1171 2560 
L 1171 2732 
C 1018 2726 736 2726 576 2726 
C 403 2726 205 2726 64 2732 
L 64 2560 
C 307 2560 442 2560 518 2362 
L 1446 44 
C 1485 -51 1491 -64 1549 -64 
C 1606 -64 1613 -51 1651 44 
L 2502 2163 
z
" transform="scale(0.015625)"/>
       <path id="CMR17-74" d="M 966 2560 
L 1862 2560 
L 1862 2725 
L 966 2725 
L 966 3904 
L 851 3904 
C 838 3245 614 2668 70 2668 
L 70 2560 
L 627 2560 
L 627 771 
C 627 650 627 -64 1370 -64 
C 1747 -64 1965 306 1965 777 
L 1965 1140 
L 1850 1140 
L 1850 783 
C 1850 344 1677 51 1408 51 
C 1222 51 966 178 966 758 
L 966 2560 
z
" transform="scale(0.015625)"/>
      </defs>
      <use xlink:href="#CMR17-6e" transform="scale(0.996264)"/>
      <use xlink:href="#CMR17-6f" transform="translate(50.89537 0) scale(0.996264)"/>
      <use xlink:href="#CMR17-72" transform="translate(96.585847 0) scale(0.996264)"/>
      <use xlink:href="#CMR17-6d" transform="translate(131.866615 0) scale(0.996264)"/>
      <use xlink:href="#CMR17-61" transform="translate(208.786205 0) scale(0.996264)"/>
      <use xlink:href="#CMR17-6c" transform="translate(254.476682 0) scale(0.996264)"/>
      <use xlink:href="#CMR17-69" transform="translate(279.34774 0) scale(0.996264)"/>
      <use xlink:href="#CMR17-7a" transform="translate(304.218799 0) scale(0.996264)"/>
      <use xlink:href="#CMR17-65" transform="translate(344.704459 0) scale(0.996264)"/>
      <use xlink:href="#CMR17-64" transform="translate(385.19012 0) scale(0.996264)"/>
      <use xlink:href="#CMR17-65" transform="translate(466.161456 0) scale(0.996264)"/>
      <use xlink:href="#CMR17-6c" transform="translate(506.647116 0) scale(0.996264)"/>
      <use xlink:href="#CMR17-65" transform="translate(531.518175 0) scale(0.996264)"/>
      <use xlink:href="#CMR17-76" transform="translate(572.003835 0) scale(0.996264)"/>
      <use xlink:href="#CMR17-61" transform="translate(615.091934 0) scale(0.996264)"/>
      <use xlink:href="#CMR17-74" transform="translate(660.782411 0) scale(0.996264)"/>
      <use xlink:href="#CMR17-69" transform="translate(696.063179 0) scale(0.996264)"/>
      <use xlink:href="#CMR17-6f" transform="translate(720.934238 0) scale(0.996264)"/>
      <use xlink:href="#CMR17-6e" transform="translate(766.624715 0) scale(0.996264)"/>
     </g>
    </g>
   </g>
   <g id="line2d_9">
    <path d="M 78.195561 156.614399 
L 80.62742 159.054989 
L 83.059278 159.054989 
L 85.491137 161.495556 
L 87.922995 161.495556 
L 90.354854 159.054989 
L 92.786712 146.852086 
L 95.218571 134.649183 
L 97.650429 122.44628 
L 100.082288 112.683943 
L 102.514147 98.040473 
L 104.946005 90.718727 
L 107.377864 80.95639 
L 109.809722 73.634667 
L 112.241581 66.312921 
L 114.673439 56.550584 
L 117.105298 46.788271 
L 119.537156 39.466525 
L 121.969015 32.144778 
L 124.400874 24.823055 
L 126.832732 24.823055 
" clip-path="url(#p70e88dc408)" style="fill: none; stroke: #c70303; stroke-opacity: 0; stroke-width: 2; stroke-linecap: square"/>
   </g>
   <g id="line2d_10">
    <path d="M 126.832732 24.823055 
L 129.264591 24.823055 
L 131.696449 24.823055 
L 134.128308 27.263621 
L 136.560166 39.466525 
L 138.992025 49.228861 
L 141.423883 58.991174 
L 143.855742 68.753487 
L 146.2876 80.95639 
L 148.719459 90.718727 
L 151.151318 100.48104 
L 153.583176 112.683943 
L 156.015035 120.00569 
L 158.446893 127.327436 
L 160.878752 132.208593 
L 163.31061 144.411496 
L 165.742469 154.173809 
L 168.174327 156.614399 
" clip-path="url(#p70e88dc408)" style="fill: none; stroke: #2979ea; stroke-opacity: 0; stroke-width: 2; stroke-linecap: square"/>
   </g>
   <g id="line2d_11">
    <path d="M 85.491137 156.614399 
L 87.922995 156.614399 
L 90.354854 156.614399 
L 92.786712 143.69368 
L 95.218571 130.772961 
L 97.650429 115.268088 
L 100.082288 102.347369 
L 102.514147 92.010804 
L 104.946005 84.258367 
L 107.377864 76.505931 
L 109.809722 68.753519 
L 112.241581 61.001083 
L 114.673439 53.248647 
L 117.105298 45.49621 
L 119.537156 40.327928 
L 121.969015 32.575491 
L 124.400874 24.823055 
L 126.832732 24.823055 
" clip-path="url(#p70e88dc408)" style="fill: none; stroke: #c70303; stroke-opacity: 0.027027; stroke-width: 2; stroke-linecap: square"/>
   </g>
   <g id="line2d_12">
    <path d="M 126.832732 24.823055 
L 129.264591 24.823055 
L 131.696449 24.823055 
L 134.128308 27.407208 
L 136.560166 37.743774 
L 138.992025 45.49621 
L 141.423883 55.8328 
L 143.855742 66.169366 
L 146.2876 79.090085 
L 148.719459 89.42665 
L 151.151318 99.76324 
L 153.583176 110.099805 
L 156.015035 120.436396 
L 158.446893 128.188807 
L 160.878752 138.525397 
L 163.31061 146.277834 
L 165.742469 151.446116 
L 168.174327 161.782682 
L 170.606186 164.366835 
" clip-path="url(#p70e88dc408)" style="fill: none; stroke: #2979ea; stroke-opacity: 0.027027; stroke-width: 2; stroke-linecap: square"/>
   </g>
   <g id="line2d_13">
    <path d="M 83.059278 156.614399 
L 85.491137 156.614399 
L 87.922995 151.34275 
L 90.354854 138.163616 
L 92.786712 122.348644 
L 95.218571 109.16951 
L 97.650429 101.262024 
L 100.082288 93.354539 
L 102.514147 85.447078 
L 104.946005 77.539592 
L 107.377864 69.632107 
L 109.809722 64.360458 
L 112.241581 56.452972 
L 114.673439 48.545487 
L 117.105298 43.273838 
L 119.537156 35.366352 
L 121.969015 30.094704 
L 124.400874 24.823055 
L 126.832732 24.823055 
" clip-path="url(#p70e88dc408)" style="fill: none; stroke: #c70303; stroke-opacity: 0.054054; stroke-width: 2; stroke-linecap: square"/>
   </g>
   <g id="line2d_14">
    <path d="M 126.832732 24.823055 
L 129.264591 24.823055 
L 131.696449 24.823055 
L 134.128308 30.094704 
L 136.560166 40.638001 
L 138.992025 53.817135 
L 141.423883 61.724621 
L 143.855742 72.267944 
L 146.2876 80.175404 
L 148.719459 90.718727 
L 151.151318 98.626213 
L 153.583176 109.16951 
L 156.015035 119.712808 
L 158.446893 127.620293 
L 160.878752 135.527779 
L 163.31061 146.071076 
L 165.742469 153.978562 
L 168.174327 161.886048 
L 170.606186 167.157697 
" clip-path="url(#p70e88dc408)" style="fill: none; stroke: #2979ea; stroke-opacity: 0.054054; stroke-width: 2; stroke-linecap: square"/>
   </g>
   <g id="line2d_15">
    <path d="M 83.059278 156.614399 
L 85.491137 156.614399 
L 87.922995 156.614399 
L 90.354854 143.435265 
L 92.786712 127.620318 
L 95.218571 114.441184 
L 97.650429 101.26205 
L 100.082288 93.354564 
L 102.514147 85.447078 
L 104.946005 80.175429 
L 107.377864 72.267944 
L 109.809722 66.996295 
L 112.241581 59.088809 
L 114.673439 51.181324 
L 117.105298 43.273838 
L 119.537156 35.366377 
L 121.969015 30.094704 
L 124.400874 24.823055 
L 126.832732 24.823055 
" clip-path="url(#p70e88dc408)" style="fill: none; stroke: #c70303; stroke-opacity: 0.081081; stroke-width: 2; stroke-linecap: square"/>
   </g>
   <g id="line2d_16">
    <path d="M 126.832732 24.823055 
L 129.264591 24.823055 
L 131.696449 24.823055 
L 134.128308 30.094704 
L 136.560166 38.002189 
L 138.992025 51.181324 
L 141.423883 59.088809 
L 143.855742 66.996295 
L 146.2876 77.539592 
L 148.719459 88.082915 
L 151.151318 98.626213 
L 153.583176 106.533698 
L 156.015035 117.076996 
L 158.446893 124.984481 
L 160.878752 132.891967 
L 163.31061 140.799453 
L 165.742469 148.706913 
L 168.174327 153.978587 
L 170.606186 164.521885 
L 173.038045 169.793533 
" clip-path="url(#p70e88dc408)" style="fill: none; stroke: #2979ea; stroke-opacity: 0.081081; stroke-width: 2; stroke-linecap: square"/>
   </g>
   <g id="line2d_17">
    <path d="M 85.491137 156.614399 
L 87.922995 156.614399 
L 90.354854 154.030257 
L 92.786712 135.94124 
L 95.218571 123.020518 
L 97.650429 107.515667 
L 100.082288 97.179075 
L 102.514147 86.842508 
L 104.946005 79.09007 
L 107.377864 71.337632 
L 109.809722 63.585219 
L 112.241581 58.416911 
L 114.673439 50.664498 
L 117.105298 45.496189 
L 119.537156 37.743776 
L 121.969015 32.575468 
L 124.400874 24.823055 
L 126.832732 24.823055 
" clip-path="url(#p70e88dc408)" style="fill: none; stroke: #c70303; stroke-opacity: 0.108108; stroke-width: 2; stroke-linecap: square"/>
   </g>
   <g id="line2d_18">
    <path d="M 126.832732 24.823055 
L 129.264591 24.823055 
L 131.696449 24.823055 
L 134.128308 29.991338 
L 136.560166 40.327906 
L 138.992025 48.080344 
L 141.423883 61.001065 
L 143.855742 68.753503 
L 146.2876 79.09007 
L 148.719459 86.842508 
L 151.151318 94.594946 
L 153.583176 102.347384 
L 156.015035 115.268105 
L 158.446893 117.852235 
L 160.878752 125.604672 
L 163.31061 133.35711 
L 165.742469 141.109548 
L 168.174327 151.446115 
L 170.606186 159.198553 
" clip-path="url(#p70e88dc408)" style="fill: none; stroke: #2979ea; stroke-opacity: 0.108108; stroke-width: 2; stroke-linecap: square"/>
   </g>
   <g id="line2d_19">
    <path d="M 80.62742 156.614399 
L 83.059278 156.614399 
L 85.491137 156.614399 
L 87.922995 151.446104 
L 90.354854 135.941244 
L 92.786712 120.436371 
L 95.218571 110.099805 
L 97.650429 104.931523 
L 100.082288 97.179086 
L 102.514147 92.010804 
L 104.946005 84.258367 
L 107.377864 73.921802 
L 109.809722 68.753495 
L 112.241581 58.416929 
L 114.673439 50.664493 
L 117.105298 45.49621 
L 119.537156 37.743774 
L 121.969015 27.407208 
L 124.400874 24.823055 
L 126.832732 24.823055 
" clip-path="url(#p70e88dc408)" style="fill: none; stroke: #c70303; stroke-opacity: 0.135135; stroke-width: 2; stroke-linecap: square"/>
   </g>
   <g id="line2d_20">
    <path d="M 126.832732 24.823055 
L 129.264591 24.823055 
L 131.696449 27.407208 
L 134.128308 32.575491 
L 136.560166 45.49621 
L 138.992025 50.664493 
L 141.423883 61.001083 
L 143.855742 71.337648 
L 146.2876 79.090085 
L 148.719459 89.42665 
L 151.151318 99.76324 
L 153.583176 110.099805 
L 156.015035 117.852242 
L 158.446893 125.604678 
L 160.878752 133.35709 
L 163.31061 141.109526 
L 165.742469 151.446104 
L 168.174327 161.782682 
L 170.606186 164.366823 
" clip-path="url(#p70e88dc408)" style="fill: none; stroke: #2979ea; stroke-opacity: 0.135135; stroke-width: 2; stroke-linecap: square"/>
   </g>
   <g id="line2d_21">
    <path d="M 83.059278 156.614399 
L 85.491137 156.614399 
L 87.922995 151.446116 
L 90.354854 138.525383 
L 92.786712 120.43638 
L 95.218571 112.683943 
L 97.650429 104.93153 
L 100.082288 97.179093 
L 102.514147 89.426656 
L 104.946005 81.674219 
L 107.377864 71.337653 
L 109.809722 66.169369 
L 112.241581 58.416932 
L 114.673439 50.664495 
L 117.105298 42.912058 
L 119.537156 35.159621 
L 121.969015 27.407209 
L 124.400874 24.823055 
L 126.832732 24.823055 
" clip-path="url(#p70e88dc408)" style="fill: none; stroke: #c70303; stroke-opacity: 0.162162; stroke-width: 2; stroke-linecap: square"/>
   </g>
   <g id="line2d_22">
    <path d="M 126.832732 24.823055 
L 129.264591 24.823055 
L 131.696449 24.823055 
L 134.128308 35.159621 
L 136.560166 45.496212 
L 138.992025 53.248649 
L 141.423883 63.585216 
L 143.855742 73.921782 
L 146.2876 81.674219 
L 148.719459 92.01081 
L 151.151318 102.347376 
L 153.583176 115.268097 
L 156.015035 120.43638 
L 158.446893 128.188817 
L 160.878752 133.3571 
L 163.31061 143.693679 
L 165.742469 151.446116 
L 168.174327 161.782695 
L 170.606186 166.950978 
" clip-path="url(#p70e88dc408)" style="fill: none; stroke: #2979ea; stroke-opacity: 0.162162; stroke-width: 2; stroke-linecap: square"/>
   </g>
   <g id="line2d_23">
    <path d="M 80.62742 156.614399 
L 83.059278 156.614399 
L 85.491137 156.614399 
L 87.922995 144.411496 
L 90.354854 129.768003 
L 92.786712 112.683943 
L 95.218571 102.92163 
L 97.650429 93.159294 
L 100.082288 85.83757 
L 102.514147 80.95639 
L 104.946005 76.075234 
L 107.377864 68.753487 
L 109.809722 61.431764 
L 112.241581 56.550584 
L 114.673439 49.228861 
L 117.105298 41.907114 
L 119.537156 34.585368 
L 121.969015 27.263621 
L 124.400874 24.823055 
L 126.832732 24.823055 
" clip-path="url(#p70e88dc408)" style="fill: none; stroke: #c70303; stroke-opacity: 0.189189; stroke-width: 2; stroke-linecap: square"/>
   </g>
   <g id="line2d_24">
    <path d="M 126.832732 24.823055 
L 129.264591 24.823055 
L 131.696449 24.823055 
L 134.128308 34.585368 
L 136.560166 41.907114 
L 138.992025 51.669428 
L 141.423883 58.991174 
L 143.855742 68.753487 
L 146.2876 78.515824 
L 148.719459 88.278137 
L 151.151318 95.599883 
L 153.583176 105.362197 
L 156.015035 110.243377 
L 158.446893 120.00569 
L 160.878752 124.886846 
L 163.31061 132.208593 
L 165.742469 141.970918 
L 168.174327 151.733242 
" clip-path="url(#p70e88dc408)" style="fill: none; stroke: #2979ea; stroke-opacity: 0.189189; stroke-width: 2; stroke-linecap: square"/>
   </g>
   <g id="line2d_25">
    <path d="M 80.62742 156.614399 
L 83.059278 156.614399 
L 85.491137 156.614399 
L 87.922995 151.641134 
L 90.354854 136.721362 
L 92.786712 121.801578 
L 95.218571 109.368433 
L 97.650429 101.908565 
L 100.082288 91.962034 
L 102.514147 84.502142 
L 104.946005 79.528889 
L 107.377864 72.068997 
L 109.809722 64.609129 
L 112.241581 59.635852 
L 114.673439 52.175984 
L 117.105298 42.229453 
L 119.537156 34.769561 
L 121.969015 27.309693 
L 124.400874 24.823055 
L 126.832732 24.823055 
" clip-path="url(#p70e88dc408)" style="fill: none; stroke: #c70303; stroke-opacity: 0.216216; stroke-width: 2; stroke-linecap: square"/>
   </g>
   <g id="line2d_26">
    <path d="M 126.832732 24.823055 
L 129.264591 24.823055 
L 131.696449 24.823055 
L 134.128308 34.769561 
L 136.560166 42.229453 
L 138.992025 49.689345 
L 141.423883 59.635852 
L 143.855742 67.095744 
L 146.2876 74.555636 
L 148.719459 84.502142 
L 151.151318 94.448673 
L 153.583176 104.39518 
L 156.015035 111.855071 
L 158.446893 119.314963 
L 160.878752 126.774855 
L 163.31061 134.234723 
L 165.742469 141.694615 
L 168.174327 151.641134 
L 170.606186 156.614399 
" clip-path="url(#p70e88dc408)" style="fill: none; stroke: #2979ea; stroke-opacity: 0.216216; stroke-width: 2; stroke-linecap: square"/>
   </g>
   <g id="line2d_27">
    <path d="M 83.059278 156.614399 
L 85.491137 156.614399 
L 87.922995 156.614399 
L 90.354854 146.476601 
L 92.786712 131.269909 
L 95.218571 116.063205 
L 97.650429 105.925419 
L 100.082288 95.787608 
L 102.514147 88.18428 
L 104.946005 80.580928 
L 107.377864 72.977577 
L 109.809722 65.374225 
L 112.241581 57.770873 
L 114.673439 47.633086 
L 117.105298 40.029734 
L 119.537156 34.960841 
L 121.969015 27.357489 
L 124.400874 24.823055 
L 126.832732 24.823055 
" clip-path="url(#p70e88dc408)" style="fill: none; stroke: #c70303; stroke-opacity: 0.243243; stroke-width: 2; stroke-linecap: square"/>
   </g>
   <g id="line2d_28">
    <path d="M 126.832732 24.823055 
L 129.264591 24.823055 
L 131.696449 27.357489 
L 134.128308 37.4953 
L 136.560166 45.098628 
L 138.992025 55.236438 
L 141.423883 65.374225 
L 143.855742 72.977577 
L 146.2876 83.115363 
L 148.719459 93.253174 
L 151.151318 103.39096 
L 153.583176 110.994312 
L 156.015035 121.132098 
L 158.446893 128.73545 
L 160.878752 136.338802 
L 163.31061 141.407695 
L 165.742469 149.011047 
L 168.174327 156.614399 
" clip-path="url(#p70e88dc408)" style="fill: none; stroke: #2979ea; stroke-opacity: 0.243243; stroke-width: 2; stroke-linecap: square"/>
   </g>
   <g id="line2d_29">
    <path d="M 80.62742 156.614399 
L 83.059278 156.614399 
L 85.491137 156.614399 
L 87.922995 149.011047 
L 90.354854 133.804343 
L 92.786712 121.132098 
L 95.218571 108.459853 
L 97.650429 100.856525 
L 100.082288 93.253174 
L 102.514147 85.649822 
L 104.946005 78.04647 
L 107.377864 70.443118 
L 109.809722 60.305331 
L 112.241581 55.236438 
L 114.673439 45.098628 
L 117.105298 40.029734 
L 119.537156 34.960841 
L 121.969015 27.357489 
L 124.400874 24.823055 
L 126.832732 24.823055 
" clip-path="url(#p70e88dc408)" style="fill: none; stroke: #c70303; stroke-opacity: 0.27027; stroke-width: 2; stroke-linecap: square"/>
   </g>
   <g id="line2d_30">
    <path d="M 126.832732 24.823055 
L 129.264591 24.823055 
L 131.696449 24.823055 
L 134.128308 34.960841 
L 136.560166 42.564193 
L 138.992025 52.70198 
L 141.423883 60.305331 
L 143.855742 67.908683 
L 146.2876 75.512035 
L 148.719459 85.649822 
L 151.151318 95.787608 
L 153.583176 103.39096 
L 156.015035 113.528771 
L 158.446893 118.597664 
L 160.878752 123.666557 
L 163.31061 131.269909 
L 165.742469 138.873249 
L 168.174327 146.476601 
L 170.606186 156.614399 
L 173.038045 159.148846 
" clip-path="url(#p70e88dc408)" style="fill: none; stroke: #2979ea; stroke-opacity: 0.27027; stroke-width: 2; stroke-linecap: square"/>
   </g>
   <g id="line2d_31">
    <path d="M 83.059278 156.614399 
L 85.491137 156.614399 
L 87.922995 156.614399 
L 90.354854 143.693679 
L 92.786712 128.188817 
L 95.218571 115.268097 
L 97.650429 102.347376 
L 100.082288 94.594939 
L 102.514147 89.426656 
L 104.946005 81.674219 
L 107.377864 71.337653 
L 109.809722 66.169345 
L 112.241581 58.416932 
L 114.673439 50.664495 
L 117.105298 42.912058 
L 119.537156 35.159621 
L 121.969015 29.991338 
L 124.400874 24.823055 
L 126.832732 24.823055 
" clip-path="url(#p70e88dc408)" style="fill: none; stroke: #c70303; stroke-opacity: 0.297297; stroke-width: 2; stroke-linecap: square"/>
   </g>
   <g id="line2d_32">
    <path d="M 126.832732 24.823055 
L 129.264591 24.823055 
L 131.696449 24.823055 
L 134.128308 29.991338 
L 136.560166 40.327904 
L 138.992025 48.080341 
L 141.423883 58.416932 
L 143.855742 66.169345 
L 146.2876 76.505936 
L 148.719459 84.258373 
L 151.151318 94.594939 
L 153.583176 104.931506 
L 156.015035 112.683943 
L 158.446893 120.43638 
L 160.878752 128.188817 
L 163.31061 138.525383 
L 165.742469 143.693679 
L 168.174327 151.446104 
L 170.606186 154.030257 
" clip-path="url(#p70e88dc408)" style="fill: none; stroke: #2979ea; stroke-opacity: 0.297297; stroke-width: 2; stroke-linecap: square"/>
   </g>
   <g id="line2d_33">
    <path d="M 83.059278 156.614399 
L 85.491137 156.614399 
L 87.922995 154.07994 
L 90.354854 141.407695 
L 92.786712 131.269909 
L 95.218571 116.063205 
L 97.650429 108.459853 
L 100.082288 100.856525 
L 102.514147 90.718715 
L 104.946005 80.580928 
L 107.377864 72.977577 
L 109.809722 62.83979 
L 112.241581 55.236438 
L 114.673439 47.633086 
L 117.105298 42.564193 
L 119.537156 37.4953 
L 121.969015 32.426383 
L 124.400874 24.823055 
L 126.832732 24.823055 
" clip-path="url(#p70e88dc408)" style="fill: none; stroke: #c70303; stroke-opacity: 0.324324; stroke-width: 2; stroke-linecap: square"/>
   </g>
   <g id="line2d_34">
    <path d="M 126.832732 24.823055 
L 129.264591 24.823055 
L 131.696449 24.823055 
L 134.128308 27.357489 
L 136.560166 34.960841 
L 138.992025 42.564193 
L 141.423883 50.167545 
L 143.855742 62.83979 
L 146.2876 70.443118 
L 148.719459 80.580928 
L 151.151318 88.18428 
L 153.583176 98.322067 
L 156.015035 108.459853 
L 158.446893 116.063205 
L 160.878752 121.132098 
L 163.31061 131.269909 
L 165.742469 136.338802 
L 168.174327 143.942154 
L 170.606186 154.07994 
L 173.038045 159.148846 
" clip-path="url(#p70e88dc408)" style="fill: none; stroke: #2979ea; stroke-opacity: 0.324324; stroke-width: 2; stroke-linecap: square"/>
   </g>
   <g id="line2d_35">
    <path d="M 80.62742 156.614399 
L 83.059278 156.614399 
L 85.491137 156.614399 
L 87.922995 146.476601 
L 90.354854 131.269899 
L 92.786712 113.528762 
L 95.218571 100.856518 
L 97.650429 95.787626 
L 100.082288 88.184274 
L 102.514147 80.580923 
L 104.946005 75.512031 
L 107.377864 67.908679 
L 109.809722 60.305352 
L 112.241581 55.236435 
L 114.673439 47.633108 
L 117.105298 40.029757 
L 119.537156 34.960864 
L 121.969015 27.357513 
L 124.400874 24.823055 
L 126.832732 24.823055 
" clip-path="url(#p70e88dc408)" style="fill: none; stroke: #c70303; stroke-opacity: 0.351351; stroke-width: 2; stroke-linecap: square"/>
   </g>
   <g id="line2d_36">
    <path d="M 126.832732 24.823055 
L 129.264591 24.823055 
L 131.696449 24.823055 
L 134.128308 34.960864 
L 136.560166 42.564191 
L 138.992025 55.236435 
L 141.423883 62.839787 
L 143.855742 72.977596 
L 146.2876 83.115382 
L 148.719459 93.253167 
L 151.151318 100.856518 
L 153.583176 110.994328 
L 156.015035 118.597655 
L 158.446893 126.201006 
L 160.878752 136.338804 
L 163.31061 143.942155 
L 165.742469 149.011048 
L 168.174327 156.614399 
L 170.606186 161.683292 
" clip-path="url(#p70e88dc408)" style="fill: none; stroke: #2979ea; stroke-opacity: 0.351351; stroke-width: 2; stroke-linecap: square"/>
   </g>
   <g id="line2d_37">
    <path d="M 80.62742 156.614399 
L 83.059278 156.614399 
L 85.491137 156.614399 
L 87.922995 146.27782 
L 90.354854 130.772958 
L 92.786712 115.268097 
L 95.218571 104.93153 
L 97.650429 97.179093 
L 100.082288 92.01081 
L 102.514147 84.258373 
L 104.946005 76.505936 
L 107.377864 71.337653 
L 109.809722 63.585216 
L 112.241581 55.832778 
L 114.673439 50.664495 
L 117.105298 42.912058 
L 119.537156 35.159621 
L 121.969015 29.991338 
L 124.400874 24.823055 
L 126.832732 24.823055 
" clip-path="url(#p70e88dc408)" style="fill: none; stroke: #c70303; stroke-opacity: 0.378378; stroke-width: 2; stroke-linecap: square"/>
   </g>
   <g id="line2d_38">
    <path d="M 126.832732 24.823055 
L 129.264591 24.823055 
L 131.696449 27.407209 
L 134.128308 35.159621 
L 136.560166 42.912058 
L 138.992025 53.248649 
L 141.423883 63.585216 
L 143.855742 71.337653 
L 146.2876 81.674219 
L 148.719459 89.426656 
L 151.151318 99.763222 
L 153.583176 107.51566 
L 156.015035 115.268097 
L 158.446893 123.020534 
L 160.878752 130.772958 
L 163.31061 138.525396 
L 165.742469 143.693679 
L 168.174327 151.446116 
L 170.606186 159.198541 
" clip-path="url(#p70e88dc408)" style="fill: none; stroke: #2979ea; stroke-opacity: 0.378378; stroke-width: 2; stroke-linecap: square"/>
   </g>
   <g id="line2d_39">
    <path d="M 80.62742 156.614399 
L 83.059278 156.614399 
L 85.491137 156.614399 
L 87.922995 151.446115 
L 90.354854 135.941252 
L 92.786712 123.020518 
L 95.218571 107.515667 
L 97.650429 97.179075 
L 100.082288 89.426662 
L 102.514147 84.258354 
L 104.946005 76.505941 
L 107.377864 68.753503 
L 109.809722 66.169349 
L 112.241581 58.416911 
L 114.673439 50.664498 
L 117.105298 45.496189 
L 119.537156 37.743776 
L 121.969015 29.991338 
L 124.400874 24.823055 
L 126.832732 24.823055 
" clip-path="url(#p70e88dc408)" style="fill: none; stroke: #c70303; stroke-opacity: 0.405405; stroke-width: 2; stroke-linecap: square"/>
   </g>
   <g id="line2d_40">
    <path d="M 126.832732 24.823055 
L 129.264591 24.823055 
L 131.696449 24.823055 
L 134.128308 29.991338 
L 136.560166 37.743776 
L 138.992025 45.496189 
L 141.423883 55.832781 
L 143.855742 63.585219 
L 146.2876 73.921787 
L 148.719459 84.258354 
L 151.151318 94.594946 
L 153.583176 102.347384 
L 156.015035 110.099797 
L 158.446893 117.852235 
L 160.878752 123.020518 
L 163.31061 130.772956 
L 165.742469 135.941252 
L 168.174327 143.693678 
L 170.606186 148.861974 
L 173.038045 154.030257 
" clip-path="url(#p70e88dc408)" style="fill: none; stroke: #2979ea; stroke-opacity: 0.405405; stroke-width: 2; stroke-linecap: square"/>
   </g>
   <g id="line2d_41">
    <path d="M 80.62742 156.614399 
L 83.059278 156.614399 
L 85.491137 156.614399 
L 87.922995 145.85592 
L 90.354854 132.407824 
L 92.786712 116.270124 
L 95.218571 105.511631 
L 97.650429 97.442769 
L 100.082288 92.063535 
L 102.514147 83.994672 
L 104.946005 75.925835 
L 107.377864 70.546576 
L 109.809722 62.477739 
L 112.241581 54.408876 
L 114.673439 46.340014 
L 117.105298 40.96078 
L 119.537156 32.891918 
L 121.969015 24.823055 
L 124.400874 24.823055 
L 126.832732 24.823055 
" clip-path="url(#p70e88dc408)" style="fill: none; stroke: #c70303; stroke-opacity: 0.432432; stroke-width: 2; stroke-linecap: square"/>
   </g>
   <g id="line2d_42">
    <path d="M 126.832732 24.823055 
L 129.264591 24.823055 
L 131.696449 24.823055 
L 134.128308 32.891918 
L 136.560166 43.650384 
L 138.992025 54.408876 
L 141.423883 65.167343 
L 143.855742 78.615439 
L 146.2876 86.684302 
L 148.719459 97.442769 
L 151.151318 108.201261 
L 153.583176 116.270124 
L 156.015035 127.02859 
L 158.446893 132.407824 
L 160.878752 140.476686 
L 163.31061 148.545549 
L 165.742469 156.614399 
" clip-path="url(#p70e88dc408)" style="fill: none; stroke: #2979ea; stroke-opacity: 0.432432; stroke-width: 2; stroke-linecap: square"/>
   </g>
   <g id="line2d_43">
    <path d="M 80.62742 156.614399 
L 83.059278 156.614399 
L 85.491137 156.614399 
L 87.922995 148.706925 
L 90.354854 138.163614 
L 92.786712 122.348654 
L 95.218571 109.169518 
L 97.650429 95.990382 
L 100.082288 90.718733 
L 102.514147 82.811247 
L 104.946005 74.90376 
L 107.377864 66.996274 
L 109.809722 61.724625 
L 112.241581 51.181326 
L 114.673439 45.909652 
L 117.105298 40.638003 
L 119.537156 32.730516 
L 121.969015 27.458867 
L 124.400874 24.823055 
L 126.832732 24.823055 
" clip-path="url(#p70e88dc408)" style="fill: none; stroke: #c70303; stroke-opacity: 0.459459; stroke-width: 2; stroke-linecap: square"/>
   </g>
   <g id="line2d_44">
    <path d="M 126.832732 24.823055 
L 129.264591 24.823055 
L 131.696449 24.823055 
L 134.128308 30.094704 
L 136.560166 40.638003 
L 138.992025 48.545489 
L 141.423883 56.452975 
L 143.855742 64.360462 
L 146.2876 74.90376 
L 148.719459 82.811247 
L 151.151318 95.990382 
L 153.583176 103.897869 
L 156.015035 111.80533 
L 158.446893 119.712817 
L 160.878752 127.620303 
L 163.31061 132.891952 
L 165.742469 146.071088 
L 168.174327 153.978574 
" clip-path="url(#p70e88dc408)" style="fill: none; stroke: #2979ea; stroke-opacity: 0.459459; stroke-width: 2; stroke-linecap: square"/>
   </g>
   <g id="line2d_45">
    <path d="M 78.195561 156.614399 
L 80.62742 156.614399 
L 83.059278 156.614399 
L 85.491137 151.733242 
L 87.922995 141.970918 
L 90.354854 129.768003 
L 92.786712 115.124533 
L 95.218571 105.362197 
L 97.650429 98.040473 
L 100.082288 90.718727 
L 102.514147 83.39698 
L 104.946005 78.515824 
L 107.377864 73.634667 
L 109.809722 66.312921 
L 112.241581 56.550584 
L 114.673439 51.669428 
L 117.105298 44.347681 
L 119.537156 37.025958 
L 121.969015 29.704211 
L 124.400874 24.823055 
L 126.832732 24.823055 
" clip-path="url(#p70e88dc408)" style="fill: none; stroke: #c70303; stroke-opacity: 0.486486; stroke-width: 2; stroke-linecap: square"/>
   </g>
   <g id="line2d_46">
    <path d="M 126.832732 24.823055 
L 129.264591 24.823055 
L 131.696449 24.823055 
L 134.128308 34.585368 
L 136.560166 44.347681 
L 138.992025 54.110018 
L 141.423883 58.991174 
L 143.855742 68.753487 
L 146.2876 78.515824 
L 148.719459 85.83757 
L 151.151318 93.159294 
L 153.583176 102.92163 
L 156.015035 110.243377 
L 158.446893 115.124533 
L 160.878752 122.44628 
L 163.31061 132.208593 
L 165.742469 141.970918 
L 168.174327 146.852074 
L 170.606186 151.733242 
" clip-path="url(#p70e88dc408)" style="fill: none; stroke: #2979ea; stroke-opacity: 0.486486; stroke-width: 2; stroke-linecap: square"/>
   </g>
   <g id="line2d_47">
    <path d="M 80.62742 156.614399 
L 83.059278 156.614399 
L 85.491137 156.614399 
L 87.922995 149.154507 
L 90.354854 139.207989 
L 92.786712 126.774855 
L 95.218571 114.34171 
L 97.650429 104.39518 
L 100.082288 96.935288 
L 102.514147 91.962034 
L 104.946005 82.015528 
L 107.377864 74.555636 
L 109.809722 67.095744 
L 112.241581 59.635852 
L 114.673439 52.175984 
L 117.105298 44.716092 
L 119.537156 37.2562 
L 121.969015 29.796308 
L 124.400874 24.823055 
L 126.832732 24.823055 
" clip-path="url(#p70e88dc408)" style="fill: none; stroke: #c70303; stroke-opacity: 0.513514; stroke-width: 2; stroke-linecap: square"/>
   </g>
   <g id="line2d_48">
    <path d="M 126.832732 24.823055 
L 129.264591 24.823055 
L 131.696449 24.823055 
L 134.128308 29.796308 
L 136.560166 39.742839 
L 138.992025 49.689345 
L 141.423883 59.635852 
L 143.855742 69.582382 
L 146.2876 77.042274 
L 148.719459 84.502142 
L 151.151318 96.935288 
L 153.583176 106.881818 
L 156.015035 111.855071 
L 158.446893 119.314963 
L 160.878752 124.288217 
L 163.31061 129.26147 
L 165.742469 134.234723 
L 168.174327 141.694615 
L 170.606186 149.154507 
" clip-path="url(#p70e88dc408)" style="fill: none; stroke: #2979ea; stroke-opacity: 0.513514; stroke-width: 2; stroke-linecap: square"/>
   </g>
   <g id="line2d_49">
    <path d="M 80.62742 156.614399 
L 83.059278 156.614399 
L 85.491137 156.614399 
L 87.922995 151.446116 
L 90.354854 138.525397 
L 92.786712 125.604678 
L 95.218571 112.683959 
L 97.650429 97.179086 
L 100.082288 92.010804 
L 102.514147 86.842521 
L 104.946005 79.090085 
L 107.377864 71.337648 
L 109.809722 66.169366 
L 112.241581 58.416929 
L 114.673439 53.248647 
L 117.105298 45.49621 
L 119.537156 40.327928 
L 121.969015 32.575491 
L 124.400874 24.823055 
L 126.832732 24.823055 
" clip-path="url(#p70e88dc408)" style="fill: none; stroke: #c70303; stroke-opacity: 0.540541; stroke-width: 2; stroke-linecap: square"/>
   </g>
   <g id="line2d_50">
    <path d="M 126.832732 24.823055 
L 129.264591 24.823055 
L 131.696449 24.823055 
L 134.128308 29.991362 
L 136.560166 37.743774 
L 138.992025 48.080364 
L 141.423883 55.8328 
L 143.855742 63.585212 
L 146.2876 73.921802 
L 148.719459 81.674238 
L 151.151318 92.010804 
L 153.583176 99.76324 
L 156.015035 110.099805 
L 158.446893 115.268088 
L 160.878752 123.020525 
L 163.31061 130.772961 
L 165.742469 138.525397 
L 168.174327 146.277821 
L 170.606186 151.446116 
L 173.038045 154.030258 
" clip-path="url(#p70e88dc408)" style="fill: none; stroke: #2979ea; stroke-opacity: 0.540541; stroke-width: 2; stroke-linecap: square"/>
   </g>
   <g id="line2d_51">
    <path d="M 78.195561 156.614399 
L 80.62742 156.614399 
L 83.059278 154.030257 
L 85.491137 141.109537 
L 87.922995 133.3571 
L 90.354854 117.852226 
L 92.786712 107.51566 
L 95.218571 97.179093 
L 97.650429 92.010785 
L 100.082288 86.842502 
L 102.514147 79.090065 
L 104.946005 71.337653 
L 107.377864 66.169345 
L 109.809722 55.832778 
L 112.241581 48.080341 
L 114.673439 42.912058 
L 117.105298 35.159621 
L 119.537156 32.575492 
L 121.969015 27.407184 
L 124.400874 24.823055 
L 126.832732 24.823055 
" clip-path="url(#p70e88dc408)" style="fill: none; stroke: #c70303; stroke-opacity: 0.567568; stroke-width: 2; stroke-linecap: square"/>
   </g>
   <g id="line2d_52">
    <path d="M 126.832732 24.823055 
L 129.264591 24.823055 
L 131.696449 27.407184 
L 134.128308 42.912058 
L 136.560166 55.832778 
L 138.992025 66.169345 
L 141.423883 73.921782 
L 143.855742 84.258373 
L 146.2876 92.010785 
L 148.719459 99.763222 
L 151.151318 107.51566 
L 153.583176 112.683943 
L 156.015035 120.43638 
L 158.446893 130.772946 
L 160.878752 138.525383 
L 163.31061 143.693666 
L 165.742469 151.446104 
L 168.174327 159.198541 
L 170.606186 169.535119 
" clip-path="url(#p70e88dc408)" style="fill: none; stroke: #2979ea; stroke-opacity: 0.567568; stroke-width: 2; stroke-linecap: square"/>
   </g>
   <g id="line2d_53">
    <path d="M 78.195561 156.614399 
L 80.62742 156.614399 
L 83.059278 156.614399 
L 85.491137 147.200729 
L 87.922995 135.433645 
L 90.354854 123.66656 
L 92.786712 111.899476 
L 95.218571 100.132391 
L 97.650429 95.425562 
L 100.082288 88.365307 
L 102.514147 81.305051 
L 104.946005 76.598222 
L 107.377864 69.537967 
L 109.809722 62.477712 
L 112.241581 57.770882 
L 114.673439 50.710627 
L 117.105298 43.650394 
L 119.537156 38.943543 
L 121.969015 31.88331 
L 124.400874 24.823055 
L 126.832732 24.823055 
" clip-path="url(#p70e88dc408)" style="fill: none; stroke: #c70303; stroke-opacity: 0.594595; stroke-width: 2; stroke-linecap: square"/>
   </g>
   <g id="line2d_54">
    <path d="M 126.832732 24.823055 
L 129.264591 24.823055 
L 131.696449 24.823055 
L 134.128308 27.176458 
L 136.560166 34.236713 
L 138.992025 38.943543 
L 141.423883 48.357224 
L 143.855742 60.124308 
L 146.2876 69.537967 
L 148.719459 78.951648 
L 151.151318 88.365307 
L 153.583176 97.778965 
L 156.015035 104.83922 
L 158.446893 114.252902 
L 160.878752 116.606305 
L 163.31061 121.313134 
L 165.742469 128.373389 
L 168.174327 135.433645 
L 170.606186 142.4939 
L 173.038045 151.907558 
" clip-path="url(#p70e88dc408)" style="fill: none; stroke: #2979ea; stroke-opacity: 0.594595; stroke-width: 2; stroke-linecap: square"/>
   </g>
   <g id="line2d_55">
    <path d="M 83.059278 156.614399 
L 85.491137 156.614399 
L 87.922995 156.614399 
L 90.354854 148.545548 
L 92.786712 137.787068 
L 95.218571 124.33897 
L 97.650429 105.511639 
L 100.082288 92.063542 
L 102.514147 81.305048 
L 104.946005 73.236211 
L 107.377864 67.856951 
L 109.809722 62.477717 
L 112.241581 54.408854 
L 114.673439 51.71925 
L 117.105298 40.960756 
L 119.537156 30.202289 
L 121.969015 27.512659 
L 124.400874 24.823055 
L 126.832732 24.823055 
" clip-path="url(#p70e88dc408)" style="fill: none; stroke: #c70303; stroke-opacity: 0.621622; stroke-width: 2; stroke-linecap: square"/>
   </g>
   <g id="line2d_56">
    <path d="M 126.832732 24.823055 
L 129.264591 24.823055 
L 131.696449 24.823055 
L 134.128308 32.891918 
L 136.560166 49.02962 
L 138.992025 62.477717 
L 141.423883 70.546581 
L 143.855742 78.615444 
L 146.2876 83.994678 
L 148.719459 89.373912 
L 151.151318 100.132405 
L 153.583176 113.580503 
L 156.015035 124.33897 
L 158.446893 135.097438 
L 160.878752 140.476685 
L 163.31061 145.855931 
L 165.742469 151.235165 
L 168.174327 161.993646 
L 170.606186 167.37288 
" clip-path="url(#p70e88dc408)" style="fill: none; stroke: #2979ea; stroke-opacity: 0.621622; stroke-width: 2; stroke-linecap: square"/>
   </g>
   <g id="line2d_57">
    <path d="M 78.195561 156.614399 
L 80.62742 156.614399 
L 83.059278 154.342137 
L 85.491137 145.253076 
L 87.922995 136.164015 
L 90.354854 124.802692 
L 92.786712 115.713642 
L 95.218571 108.896843 
L 97.650429 99.807793 
L 100.082288 95.263246 
L 102.514147 88.44647 
L 104.946005 81.629671 
L 107.377864 74.812873 
L 109.809722 65.723823 
L 112.241581 56.634751 
L 114.673439 49.817953 
L 117.105298 38.45663 
L 119.537156 33.912105 
L 121.969015 27.095306 
L 124.400874 24.823055 
L 126.832732 24.823055 
" clip-path="url(#p70e88dc408)" style="fill: none; stroke: #c70303; stroke-opacity: 0.648649; stroke-width: 2; stroke-linecap: square"/>
   </g>
   <g id="line2d_58">
    <path d="M 126.832732 24.823055 
L 129.264591 24.823055 
L 131.696449 24.823055 
L 134.128308 31.639853 
L 136.560166 40.728903 
L 138.992025 52.090226 
L 141.423883 61.179276 
L 143.855742 74.812873 
L 146.2876 83.901923 
L 148.719459 90.718721 
L 151.151318 97.53552 
L 153.583176 104.352318 
L 156.015035 111.169117 
L 158.446893 117.985893 
L 160.878752 124.802692 
L 163.31061 131.61949 
L 165.742469 138.436288 
L 168.174327 145.253076 
L 170.606186 152.069874 
" clip-path="url(#p70e88dc408)" style="fill: none; stroke: #2979ea; stroke-opacity: 0.648649; stroke-width: 2; stroke-linecap: square"/>
   </g>
   <g id="line2d_59">
    <path d="M 80.62742 156.614399 
L 83.059278 156.614399 
L 85.491137 156.614399 
L 87.922995 149.292653 
L 90.354854 139.530329 
L 92.786712 127.327427 
L 95.218571 112.683959 
L 97.650429 105.362213 
L 100.082288 98.040467 
L 102.514147 90.718721 
L 104.946005 83.396975 
L 107.377864 78.515819 
L 109.809722 71.194073 
L 112.241581 63.872351 
L 114.673439 56.550605 
L 117.105298 46.788269 
L 119.537156 39.466547 
L 121.969015 34.585367 
L 124.400874 24.823055 
L 126.832732 24.823055 
" clip-path="url(#p70e88dc408)" style="fill: none; stroke: #c70303; stroke-opacity: 0.675676; stroke-width: 2; stroke-linecap: square"/>
   </g>
   <g id="line2d_60">
    <path d="M 126.832732 24.823055 
L 129.264591 24.823055 
L 131.696449 24.823055 
L 134.128308 27.263644 
L 136.560166 34.585367 
L 138.992025 41.907113 
L 141.423883 51.669449 
L 143.855742 58.991171 
L 146.2876 68.753507 
L 148.719459 78.515819 
L 151.151318 90.718721 
L 153.583176 102.921623 
L 156.015035 107.802779 
L 158.446893 115.124525 
L 160.878752 122.446271 
L 163.31061 127.327427 
L 165.742469 134.649173 
L 168.174327 144.411497 
L 170.606186 154.173821 
" clip-path="url(#p70e88dc408)" style="fill: none; stroke: #2979ea; stroke-opacity: 0.675676; stroke-width: 2; stroke-linecap: square"/>
   </g>
   <g id="line2d_61">
    <path d="M 78.195561 156.614399 
L 80.62742 156.614399 
L 83.059278 156.614399 
L 85.491137 151.342738 
L 87.922995 135.527779 
L 90.354854 114.441159 
L 92.786712 101.262024 
L 95.218571 93.354539 
L 97.650429 90.718727 
L 100.082288 85.447078 
L 102.514147 77.539592 
L 104.946005 72.267944 
L 107.377864 61.724621 
L 109.809722 56.452972 
L 112.241581 51.181324 
L 114.673439 45.909675 
L 117.105298 40.638001 
L 119.537156 32.73054 
L 121.969015 27.458867 
L 124.400874 24.823055 
L 126.832732 24.823055 
" clip-path="url(#p70e88dc408)" style="fill: none; stroke: #c70303; stroke-opacity: 0.702703; stroke-width: 2; stroke-linecap: square"/>
   </g>
   <g id="line2d_62">
    <path d="M 126.832732 24.823055 
L 129.264591 24.823055 
L 131.696449 24.823055 
L 134.128308 27.458867 
L 136.560166 35.366352 
L 138.992025 45.909675 
L 141.423883 53.817135 
L 143.855742 61.724621 
L 146.2876 72.267944 
L 148.719459 85.447078 
L 151.151318 90.718727 
L 153.583176 103.897861 
L 156.015035 114.441159 
L 158.446893 119.712808 
L 160.878752 124.984481 
L 163.31061 132.891942 
L 165.742469 135.527779 
L 168.174327 140.799428 
L 170.606186 146.071089 
L 173.038045 153.978562 
L 175.469903 156.614399 
" clip-path="url(#p70e88dc408)" style="fill: none; stroke: #2979ea; stroke-opacity: 0.702703; stroke-width: 2; stroke-linecap: square"/>
   </g>
   <g id="line2d_63">
    <path d="M 80.62742 156.614399 
L 83.059278 156.614399 
L 85.491137 151.545494 
L 87.922995 141.407695 
L 90.354854 128.73545 
L 92.786712 116.063205 
L 95.218571 105.925419 
L 97.650429 98.322067 
L 100.082288 90.718715 
L 102.514147 85.649822 
L 104.946005 78.04647 
L 107.377864 70.443118 
L 109.809722 62.83979 
L 112.241581 55.236438 
L 114.673439 47.633086 
L 117.105298 40.029734 
L 119.537156 34.960841 
L 121.969015 27.357489 
L 124.400874 24.823055 
L 126.832732 24.823055 
" clip-path="url(#p70e88dc408)" style="fill: none; stroke: #c70303; stroke-opacity: 0.72973; stroke-width: 2; stroke-linecap: square"/>
   </g>
   <g id="line2d_64">
    <path d="M 126.832732 24.823055 
L 129.264591 24.823055 
L 131.696449 27.357489 
L 134.128308 37.4953 
L 136.560166 45.098628 
L 138.992025 55.236438 
L 141.423883 65.374225 
L 143.855742 75.512035 
L 146.2876 80.580928 
L 148.719459 90.718715 
L 151.151318 100.856525 
L 153.583176 113.528771 
L 156.015035 121.132098 
L 158.446893 133.804343 
L 160.878752 141.407695 
L 163.31061 149.011047 
L 165.742469 156.614399 
L 168.174327 164.217739 
L 170.606186 174.355537 
" clip-path="url(#p70e88dc408)" style="fill: none; stroke: #2979ea; stroke-opacity: 0.72973; stroke-width: 2; stroke-linecap: square"/>
   </g>
   <g id="line2d_65">
    <path d="M 78.195561 156.614399 
L 80.62742 156.614399 
L 83.059278 156.614399 
L 85.491137 154.218195 
L 87.922995 142.237164 
L 90.354854 127.859928 
L 92.786712 113.482682 
L 95.218571 103.897866 
L 97.650429 96.709243 
L 100.082288 89.520619 
L 102.514147 84.728211 
L 104.946005 79.935803 
L 107.377864 75.143395 
L 109.809722 65.558557 
L 112.241581 60.766149 
L 114.673439 51.181333 
L 117.105298 43.992709 
L 119.537156 39.200301 
L 121.969015 29.615463 
L 124.400874 24.823055 
L 126.832732 24.823055 
" clip-path="url(#p70e88dc408)" style="fill: none; stroke: #c70303; stroke-opacity: 0.756757; stroke-width: 2; stroke-linecap: square"/>
   </g>
   <g id="line2d_66">
    <path d="M 126.832732 24.823055 
L 129.264591 24.823055 
L 131.696449 24.823055 
L 134.128308 29.615463 
L 136.560166 36.804086 
L 138.992025 43.992709 
L 141.423883 53.577525 
L 143.855742 63.162364 
L 146.2876 67.954772 
L 148.719459 77.539588 
L 151.151318 84.728211 
L 153.583176 94.313027 
L 156.015035 103.897866 
L 158.446893 111.086489 
L 160.878752 115.878897 
L 163.31061 123.067509 
L 165.742469 127.859928 
L 168.174327 135.04854 
L 170.606186 142.237164 
L 173.038045 147.029572 
" clip-path="url(#p70e88dc408)" style="fill: none; stroke: #2979ea; stroke-opacity: 0.756757; stroke-width: 2; stroke-linecap: square"/>
   </g>
   <g id="line2d_67">
    <path d="M 80.62742 156.614399 
L 83.059278 156.614399 
L 85.491137 156.614399 
L 87.922995 146.476601 
L 90.354854 133.804358 
L 92.786712 118.597679 
L 95.218571 108.45987 
L 97.650429 100.856518 
L 100.082288 93.253191 
L 102.514147 85.64984 
L 104.946005 78.046489 
L 107.377864 70.443138 
L 109.809722 65.374245 
L 112.241581 57.770894 
L 114.673439 50.167543 
L 117.105298 42.564216 
L 119.537156 34.960864 
L 121.969015 29.891972 
L 124.400874 24.823055 
L 126.832732 24.823055 
" clip-path="url(#p70e88dc408)" style="fill: none; stroke: #c70303; stroke-opacity: 0.783784; stroke-width: 2; stroke-linecap: square"/>
   </g>
   <g id="line2d_68">
    <path d="M 126.832732 24.823055 
L 129.264591 24.823055 
L 131.696449 27.357513 
L 134.128308 32.426406 
L 136.560166 37.495299 
L 138.992025 40.029757 
L 141.423883 47.633108 
L 143.855742 57.770894 
L 146.2876 70.443138 
L 148.719459 83.115382 
L 151.151318 93.253191 
L 153.583176 103.390977 
L 156.015035 113.528762 
L 158.446893 121.132114 
L 160.878752 128.735465 
L 163.31061 136.338816 
L 165.742469 138.873262 
L 168.174327 143.942155 
L 170.606186 154.079953 
L 173.038045 159.148845 
" clip-path="url(#p70e88dc408)" style="fill: none; stroke: #2979ea; stroke-opacity: 0.783784; stroke-width: 2; stroke-linecap: square"/>
   </g>
   <g id="line2d_69">
    <path d="M 78.195561 156.614399 
L 80.62742 156.614399 
L 83.059278 156.614399 
L 85.491137 146.071102 
L 87.922995 135.527791 
L 90.354854 119.712833 
L 92.786712 111.805347 
L 95.218571 101.26205 
L 97.650429 95.990376 
L 100.082288 90.718727 
L 102.514147 85.447078 
L 104.946005 80.175429 
L 107.377864 72.267944 
L 109.809722 64.360458 
L 112.241581 56.452972 
L 114.673439 48.545512 
L 117.105298 43.273838 
L 119.537156 38.002189 
L 121.969015 27.458892 
L 124.400874 24.823055 
L 126.832732 24.823055 
" clip-path="url(#p70e88dc408)" style="fill: none; stroke: #c70303; stroke-opacity: 0.810811; stroke-width: 2; stroke-linecap: square"/>
   </g>
   <g id="line2d_70">
    <path d="M 126.832732 24.823055 
L 129.264591 24.823055 
L 131.696449 24.823055 
L 134.128308 30.094704 
L 136.560166 38.002189 
L 138.992025 48.545512 
L 141.423883 61.724646 
L 143.855742 74.903781 
L 146.2876 88.082915 
L 148.719459 93.354564 
L 151.151318 98.626213 
L 153.583176 103.897861 
L 156.015035 111.805347 
L 158.446893 117.076996 
L 160.878752 124.984481 
L 163.31061 124.984481 
L 165.742469 130.25613 
L 168.174327 138.163616 
L 170.606186 148.706926 
L 173.038045 161.88606 
" clip-path="url(#p70e88dc408)" style="fill: none; stroke: #2979ea; stroke-opacity: 0.810811; stroke-width: 2; stroke-linecap: square"/>
   </g>
   <g id="line2d_71">
    <path d="M 80.62742 156.614399 
L 83.059278 156.614399 
L 85.491137 156.614399 
L 87.922995 154.127772 
L 90.354854 139.207987 
L 92.786712 121.801587 
L 95.218571 111.855079 
L 97.650429 99.421933 
L 100.082288 89.475402 
L 102.514147 86.988787 
L 104.946005 82.015509 
L 107.377864 77.042255 
L 109.809722 69.582363 
L 112.241581 62.122494 
L 114.673439 54.662601 
L 117.105298 47.202709 
L 119.537156 39.742816 
L 121.969015 32.282924 
L 124.400874 24.823055 
L 126.832732 24.823055 
" clip-path="url(#p70e88dc408)" style="fill: none; stroke: #c70303; stroke-opacity: 0.837838; stroke-width: 2; stroke-linecap: square"/>
   </g>
   <g id="line2d_72">
    <path d="M 126.832732 24.823055 
L 129.264591 24.823055 
L 131.696449 24.823055 
L 134.128308 32.282924 
L 136.560166 42.229455 
L 138.992025 49.689347 
L 141.423883 59.635855 
L 143.855742 67.095748 
L 146.2876 77.042255 
L 148.719459 86.988787 
L 151.151318 96.935294 
L 153.583176 104.395187 
L 156.015035 119.314948 
L 158.446893 126.774841 
L 160.878752 129.261479 
L 163.31061 134.234733 
L 165.742469 139.207987 
L 168.174327 149.154506 
L 170.606186 159.101026 
L 173.038045 161.587653 
" clip-path="url(#p70e88dc408)" style="fill: none; stroke: #2979ea; stroke-opacity: 0.837838; stroke-width: 2; stroke-linecap: square"/>
   </g>
   <g id="line2d_73">
    <path d="M 80.62742 156.614399 
L 83.059278 156.614399 
L 85.491137 151.821991 
L 87.922995 137.444754 
L 90.354854 123.067506 
L 92.786712 111.086474 
L 95.218571 101.501657 
L 97.650429 96.709249 
L 100.082288 89.520625 
L 102.514147 79.935785 
L 104.946005 75.143377 
L 107.377864 67.954753 
L 109.809722 60.766152 
L 112.241581 53.577528 
L 114.673439 48.785119 
L 117.105298 39.20028 
L 119.537156 34.407872 
L 121.969015 27.219248 
L 124.400874 24.823055 
L 126.832732 24.823055 
" clip-path="url(#p70e88dc408)" style="fill: none; stroke: #c70303; stroke-opacity: 0.864865; stroke-width: 2; stroke-linecap: square"/>
   </g>
   <g id="line2d_74">
    <path d="M 126.832732 24.823055 
L 129.264591 24.823055 
L 131.696449 24.823055 
L 134.128308 32.011656 
L 136.560166 43.992688 
L 138.992025 51.181312 
L 141.423883 60.766152 
L 143.855742 67.954753 
L 146.2876 77.539592 
L 148.719459 82.332001 
L 151.151318 89.520625 
L 153.583176 96.709249 
L 156.015035 103.89785 
L 158.446893 108.690281 
L 160.878752 113.482689 
L 163.31061 120.671302 
L 165.742469 127.859926 
L 168.174327 135.048539 
L 170.606186 139.840958 
L 173.038045 142.237163 
L 175.469903 151.821991 
" clip-path="url(#p70e88dc408)" style="fill: none; stroke: #2979ea; stroke-opacity: 0.864865; stroke-width: 2; stroke-linecap: square"/>
   </g>
   <g id="line2d_75">
    <path d="M 80.62742 156.614399 
L 83.059278 156.614399 
L 85.491137 156.614399 
L 87.922995 146.27782 
L 90.354854 133.3571 
L 92.786712 117.852226 
L 95.218571 107.51566 
L 97.650429 99.763222 
L 100.082288 94.594939 
L 102.514147 86.842502 
L 104.946005 79.090065 
L 107.377864 71.337653 
L 109.809722 61.001062 
L 112.241581 55.832778 
L 114.673439 50.664495 
L 117.105298 42.912058 
L 119.537156 37.743775 
L 121.969015 29.991338 
L 124.400874 24.823055 
L 126.832732 24.823055 
" clip-path="url(#p70e88dc408)" style="fill: none; stroke: #c70303; stroke-opacity: 0.891892; stroke-width: 2; stroke-linecap: square"/>
   </g>
   <g id="line2d_76">
    <path d="M 126.832732 24.823055 
L 129.264591 24.823055 
L 131.696449 24.823055 
L 134.128308 29.991338 
L 136.560166 37.743775 
L 138.992025 48.080341 
L 141.423883 58.416932 
L 143.855742 66.169345 
L 146.2876 73.921782 
L 148.719459 84.258373 
L 151.151318 92.010785 
L 153.583176 102.347376 
L 156.015035 110.099813 
L 158.446893 117.852226 
L 160.878752 125.604663 
L 163.31061 133.3571 
L 165.742469 138.525383 
L 168.174327 143.693679 
L 170.606186 148.861962 
" clip-path="url(#p70e88dc408)" style="fill: none; stroke: #2979ea; stroke-opacity: 0.891892; stroke-width: 2; stroke-linecap: square"/>
   </g>
   <g id="line2d_77">
    <path d="M 83.059278 156.614399 
L 85.491137 156.614399 
L 87.922995 156.614399 
L 90.354854 148.706925 
L 92.786712 135.527789 
L 95.218571 122.348654 
L 97.650429 109.169518 
L 100.082288 101.262032 
L 102.514147 95.990382 
L 104.946005 88.082896 
L 107.377864 82.811247 
L 109.809722 74.90376 
L 112.241581 66.996274 
L 114.673439 59.088787 
L 117.105298 48.545489 
L 119.537156 35.366353 
L 121.969015 32.730516 
L 124.400874 24.823055 
L 126.832732 24.823055 
" clip-path="url(#p70e88dc408)" style="fill: none; stroke: #c70303; stroke-opacity: 0.918919; stroke-width: 2; stroke-linecap: square"/>
   </g>
   <g id="line2d_78">
    <path d="M 126.832732 24.823055 
L 129.264591 24.823055 
L 131.696449 24.823055 
L 134.128308 27.458867 
L 136.560166 35.366353 
L 138.992025 45.909652 
L 141.423883 53.817138 
L 143.855742 61.724625 
L 146.2876 72.267923 
L 148.719459 82.811247 
L 151.151318 93.354545 
L 153.583176 101.262032 
L 156.015035 111.80533 
L 158.446893 122.348654 
L 160.878752 130.256128 
L 163.31061 138.163614 
L 165.742469 146.071088 
L 168.174327 153.978574 
L 170.606186 159.250224 
" clip-path="url(#p70e88dc408)" style="fill: none; stroke: #2979ea; stroke-opacity: 0.918919; stroke-width: 2; stroke-linecap: square"/>
   </g>
   <g id="line2d_79">
    <path d="M 83.059278 156.614399 
L 85.491137 156.614399 
L 87.922995 156.614399 
L 90.354854 148.545548 
L 92.786712 132.407834 
L 95.218571 118.959737 
L 97.650429 105.511639 
L 100.082288 94.753146 
L 102.514147 89.373912 
L 104.946005 83.994678 
L 107.377864 75.925815 
L 109.809722 67.856951 
L 112.241581 59.788113 
L 114.673439 51.71925 
L 117.105298 46.340016 
L 119.537156 38.271152 
L 121.969015 30.202289 
L 124.400874 24.823055 
L 126.832732 24.823055 
" clip-path="url(#p70e88dc408)" style="fill: none; stroke: #c70303; stroke-opacity: 0.945946; stroke-width: 2; stroke-linecap: square"/>
   </g>
   <g id="line2d_80">
    <path d="M 126.832732 24.823055 
L 129.264591 24.823055 
L 131.696449 24.823055 
L 134.128308 30.202289 
L 136.560166 40.960756 
L 138.992025 49.02962 
L 141.423883 59.788113 
L 143.855742 67.856951 
L 146.2876 75.925815 
L 148.719459 86.684308 
L 151.151318 97.442776 
L 153.583176 108.201243 
L 156.015035 116.270107 
L 158.446893 127.028587 
L 160.878752 132.407834 
L 163.31061 140.476685 
L 165.742469 145.855931 
L 168.174327 151.235165 
L 170.606186 159.304029 
L 173.038045 161.993646 
" clip-path="url(#p70e88dc408)" style="fill: none; stroke: #2979ea; stroke-opacity: 0.945946; stroke-width: 2; stroke-linecap: square"/>
   </g>
   <g id="patch_3">
    <path d="M 53.876976 156.614399 
L 53.876976 24.823055 
" style="fill: none; stroke: #000000; stroke-width: 0.6; stroke-linejoin: miter; stroke-linecap: square"/>
   </g>
   <g id="patch_4">
    <path d="M 53.876976 156.614399 
L 199.788489 156.614399 
" style="fill: none; stroke: #000000; stroke-width: 0.6; stroke-linejoin: miter; stroke-linecap: square"/>
   </g>
   <g id="text_11">
    <!-- 23 minutes 1 sec -->
    <g transform="translate(67.789078 18.823055) scale(0.168 -0.168)">
     <defs>
      <path id="CMR17-33" d="M 1414 2157 
C 1984 2157 2234 1662 2234 1090 
C 2234 320 1824 25 1453 25 
C 1114 25 563 194 390 693 
C 422 680 454 680 486 680 
C 640 680 755 782 755 948 
C 755 1133 614 1216 486 1216 
C 378 1216 211 1165 211 926 
C 211 335 787 -128 1466 -128 
C 2176 -128 2720 430 2720 1085 
C 2720 1707 2208 2157 1600 2227 
C 2086 2328 2554 2756 2554 3329 
C 2554 3820 2048 4179 1472 4179 
C 890 4179 378 3829 378 3329 
C 378 3110 544 3072 627 3072 
C 762 3072 877 3155 877 3321 
C 877 3486 762 3569 627 3569 
C 602 3569 570 3569 544 3557 
C 730 3959 1235 4032 1459 4032 
C 1683 4032 2106 3925 2106 3320 
C 2106 3143 2080 2828 1862 2550 
C 1670 2304 1453 2304 1242 2284 
C 1210 2284 1062 2269 1037 2269 
C 992 2263 966 2257 966 2208 
C 966 2163 973 2157 1101 2157 
L 1414 2157 
z
" transform="scale(0.015625)"/>
      <path id="CMR17-75" d="M 1882 2693 
L 1882 2528 
C 2259 2528 2317 2489 2317 2186 
L 2317 1032 
C 2317 500 2029 38 1555 38 
C 1030 38 986 348 986 678 
L 986 2763 
L 211 2693 
L 211 2528 
C 467 2528 640 2528 646 2274 
L 646 1058 
C 646 633 646 361 813 183 
C 896 101 1056 -64 1517 -64 
C 2061 -64 2272 377 2323 506 
L 2330 506 
L 2330 -63 
L 3091 -63 
L 3091 128 
C 2714 128 2656 166 2656 473 
L 2656 2763 
L 1882 2693 
z
" transform="scale(0.015625)"/>
      <path id="CMR17-63" d="M 2234 2240 
C 2112 2240 1933 2240 1933 2017 
C 1933 1838 2080 1787 2163 1787 
C 2208 1787 2394 1807 2394 2024 
C 2394 2467 1958 2803 1466 2803 
C 787 2803 211 2178 211 1363 
C 211 516 813 -64 1466 -64 
C 2259 -64 2458 677 2458 748 
C 2458 774 2451 793 2406 793 
C 2362 793 2355 787 2330 703 
C 2163 180 1798 51 1523 51 
C 1114 51 621 427 621 1369 
C 621 2338 1094 2688 1472 2688 
C 1722 2688 2093 2573 2234 2240 
z
" transform="scale(0.015625)"/>
     </defs>
     <use xlink:href="#CMR17-32" transform="scale(0.996264)"/>
     <use xlink:href="#CMR17-33" transform="translate(45.690477 0) scale(0.996264)"/>
     <use xlink:href="#CMR17-6d" transform="translate(121.456921 0) scale(0.996264)"/>
     <use xlink:href="#CMR17-69" transform="translate(198.37651 0) scale(0.996264)"/>
     <use xlink:href="#CMR17-6e" transform="translate(223.247569 0) scale(0.996264)"/>
     <use xlink:href="#CMR17-75" transform="translate(271.540485 0) scale(0.996264)"/>
     <use xlink:href="#CMR17-74" transform="translate(322.435855 0) scale(0.996264)"/>
     <use xlink:href="#CMR17-65" transform="translate(357.716622 0) scale(0.996264)"/>
     <use xlink:href="#CMR17-73" transform="translate(398.202283 0) scale(0.996264)"/>
     <use xlink:href="#CMR17-31" transform="translate(464.079587 0) scale(0.996264)"/>
     <use xlink:href="#CMR17-73" transform="translate(539.84603 0) scale(0.996264)"/>
     <use xlink:href="#CMR17-65" transform="translate(575.647368 0) scale(0.996264)"/>
     <use xlink:href="#CMR17-63" transform="translate(616.133028 0) scale(0.996264)"/>
    </g>
   </g>
  </g>
 </g>
 <defs>
  <clipPath id="p70e88dc408">
   <rect x="53.876976" y="24.823055" width="145.911513" height="131.791344"/>
  </clipPath>
 </defs>
</svg>
